ISO-10303-21;
HEADER;
FILE_DESCRIPTION (( 'STEP AP214' ),
    '1' );
FILE_NAME ('M3.5 x 25 Screw head.STEP',
    '2023-03-28T04:23:02',
    ( '' ),
    ( '' ),
    'SwSTEP 2.0',
    'SolidWorks 2022',
    '' );
FILE_SCHEMA (( 'AUTOMOTIVE_DESIGN' ));
ENDSEC;

DATA;
#1 =( NAMED_UNIT ( * ) PLANE_ANGLE_UNIT ( ) SI_UNIT ( $, .RADIAN. ) );
#2 = PLANE ( 'NONE',  #817 ) ;
#3 = ORIENTED_EDGE ( 'NONE', *, *, #713, .T. ) ;
#4 = EDGE_LOOP ( 'NONE', ( #638, #970, #781 ) ) ;
#5 = UNCERTAINTY_MEASURE_WITH_UNIT (LENGTH_MEASURE( 1.000000000000000082E-05 ), #45, 'distance_accuracy_value', 'NONE');
#6 =( NAMED_UNIT ( * ) PLANE_ANGLE_UNIT ( ) SI_UNIT ( $, .RADIAN. ) );
#7 = CARTESIAN_POINT ( 'NONE',  ( 2.599999999999998312, 0.000000000000000000, 0.000000000000000000 ) ) ;
#8 = COLOUR_RGB ( '',0.7764705882352941346, 0.7568627450980391913, 0.7372549019607843590 ) ;
#9 = STYLED_ITEM ( 'NONE', ( #238 ), #376 ) ;
#10 = CARTESIAN_POINT ( 'NONE',  ( 0.2666411873824114376, 0.4052592521765713274, 1.721732169736487794 ) ) ;
#11 = CARTESIAN_POINT ( 'NONE',  ( 2.599999999999998312, 0.000000000000000000, 0.000000000000000000 ) ) ;
#12 = COLOUR_RGB ( '',0.7764705882352941346, 0.7568627450980391913, 0.7372549019607843590 ) ;
#13 = TOROIDAL_SURFACE ( 'NONE', #131, 3.080000000000000515, 0.4200000000000000400 ) ;
#14 = ORIENTED_EDGE ( 'NONE', *, *, #205, .T. ) ;
#15 = PRESENTATION_STYLE_ASSIGNMENT (( #1024 ) ) ;
#16 = UNCERTAINTY_MEASURE_WITH_UNIT (LENGTH_MEASURE( 1.000000000000000082E-05 ), #521, 'distance_accuracy_value', 'NONE');
#17 = CARTESIAN_POINT ( 'NONE',  ( -25.39999999999996305, 0.000000000000000000, 0.000000000000000000 ) ) ;
#18 = EDGE_CURVE ( 'NONE', #1022, #866, #313, .T. ) ;
#19 = DIRECTION ( 'NONE',  ( -0.1108510534444136914, 1.257808851980383614E-16, -0.9938370308809506559 ) ) ;
#20 = DIRECTION ( 'NONE',  ( 0.7456662065614396706, 0.6663196743247736809, 0.000000000000000000 ) ) ;
#21 =( NAMED_UNIT ( * ) SI_UNIT ( $, .STERADIAN. ) SOLID_ANGLE_UNIT ( ) );
#22 = PRESENTATION_STYLE_ASSIGNMENT (( #198 ) ) ;
#23 = EDGE_CURVE ( 'NONE', #986, #29, #572, .T. ) ;
#24 = PRESENTATION_LAYER_ASSIGNMENT (  '', '', ( #929 ) ) ;
#25 =( GEOMETRIC_REPRESENTATION_CONTEXT ( 3 ) GLOBAL_UNCERTAINTY_ASSIGNED_CONTEXT ( ( #419 ) ) GLOBAL_UNIT_ASSIGNED_CONTEXT ( ( #148, #42, #92 ) ) REPRESENTATION_CONTEXT ( 'NONE', 'WORKASPACE' ) );
#26 = AXIS2_PLACEMENT_3D ( 'NONE', #535, #750, #607 ) ;
#27 = SURFACE_STYLE_USAGE ( .BOTH. , #799 ) ;
#28 = DIRECTION ( 'NONE',  ( -1.000000000000000000, -0.000000000000000000, -0.000000000000000000 ) ) ;
#29 = VERTEX_POINT ( 'NONE', #848 ) ;
#30 = DIRECTION ( 'NONE',  ( -0.1108510534444136914, 1.257808851980383614E-16, -0.9938370308809506559 ) ) ;
#31 = FACE_OUTER_BOUND ( 'NONE', #324, .T. ) ;
#32 =( NAMED_UNIT ( * ) SI_UNIT ( $, .STERADIAN. ) SOLID_ANGLE_UNIT ( ) );
#33 = FILL_AREA_STYLE ('',( #651 ) ) ;
#34 = EDGE_CURVE ( 'NONE', #760, #569, #494, .T. ) ;
#35 =( LENGTH_UNIT ( ) NAMED_UNIT ( * ) SI_UNIT ( .MILLI., .METRE. ) );
#36 =( NAMED_UNIT ( * ) PLANE_ANGLE_UNIT ( ) SI_UNIT ( $, .RADIAN. ) );
#37 = DIRECTION ( 'NONE',  ( -0.1108510534444137469, 2.096348086633972484E-17, 0.9938370308809506559 ) ) ;
#38 = STYLED_ITEM ( 'NONE', ( #197 ), #180 ) ;
#39 = DIRECTION ( 'NONE',  ( -0.9938370308809507669, -0.1108510534444137052, 0.000000000000000000 ) ) ;
#40 = PRESENTATION_LAYER_ASSIGNMENT (  '', '', ( #443 ) ) ;
#41 = FILL_AREA_STYLE_COLOUR ( '', #8 ) ;
#42 =( NAMED_UNIT ( * ) PLANE_ANGLE_UNIT ( ) SI_UNIT ( $, .RADIAN. ) );
#43 = ORIENTED_EDGE ( 'NONE', *, *, #278, .F. ) ;
#44 = PLANE ( 'NONE',  #299 ) ;
#45 =( LENGTH_UNIT ( ) NAMED_UNIT ( * ) SI_UNIT ( .MILLI., .METRE. ) );
#46 = FILL_AREA_STYLE ('',( #72 ) ) ;
#47 = PRESENTATION_STYLE_ASSIGNMENT (( #743 ) ) ;
#48 =( NAMED_UNIT ( * ) PLANE_ANGLE_UNIT ( ) SI_UNIT ( $, .RADIAN. ) );
#49 = CARTESIAN_POINT ( 'NONE',  ( 2.214116351126373949, 0.1880408685282127790, -0.1880408685282121406 ) ) ;
#50 = ORIENTED_EDGE ( 'NONE', *, *, #310, .T. ) ;
#51 = SURFACE_STYLE_FILL_AREA ( #457 ) ;
#52 = LINE ( 'NONE', #379, #179 ) ;
#53 = SURFACE_STYLE_FILL_AREA ( #400 ) ;
#54 = VERTEX_POINT ( 'NONE', #10 ) ;
#55 =( NAMED_UNIT ( * ) PLANE_ANGLE_UNIT ( ) SI_UNIT ( $, .RADIAN. ) );
#56 = EDGE_CURVE ( 'NONE', #523, #569, #558, .T. ) ;
#57 = AXIS2_PLACEMENT_3D ( 'NONE', #586, #364, #106 ) ;
#58 = AXIS2_PLACEMENT_3D ( 'NONE', #420, #621, #253 ) ;
#59 = SURFACE_SIDE_STYLE ('',( #137 ) ) ;
#60 = AXIS2_PLACEMENT_3D ( 'NONE', #103, #19, #574 ) ;
#61 = COLOUR_RGB ( '',0.7764705882352941346, 0.7568627450980391913, 0.7372549019607843590 ) ;
#62 =( NAMED_UNIT ( * ) SI_UNIT ( $, .STERADIAN. ) SOLID_ANGLE_UNIT ( ) );
#63 =( LENGTH_UNIT ( ) NAMED_UNIT ( * ) SI_UNIT ( .MILLI., .METRE. ) );
#64 = STYLED_ITEM ( 'NONE', ( #231 ), #630 ) ;
#65 = VERTEX_POINT ( 'NONE', #336 ) ;
#66 = PRESENTATION_STYLE_ASSIGNMENT (( #136 ) ) ;
#67 = EDGE_LOOP ( 'NONE', ( #812, #926, #540, #1018, #669, #73, #417, #790, #291, #347, #644 ) ) ;
#68 = ORIENTED_EDGE ( 'NONE', *, *, #307, .F. ) ;
#69 = EDGE_CURVE ( 'NONE', #754, #939, #265, .T. ) ;
#70 = DIRECTION ( 'NONE',  ( -0.1108510534444136914, 1.257808851980383614E-16, -0.9938370308809506559 ) ) ;
#71 = PLANE ( 'NONE',  #787 ) ;
#72 = FILL_AREA_STYLE_COLOUR ( '', #785 ) ;
#73 = ORIENTED_EDGE ( 'NONE', *, *, #833, .F. ) ;
#74 = VECTOR ( 'NONE', #710, 1000.000000000000000 ) ;
#75 = DIRECTION ( 'NONE',  ( -0.000000000000000000, 1.000000000000000000, 1.224646799147353207E-16 ) ) ;
#76 = COLOUR_RGB ( '',0.7764705882352941346, 0.7568627450980391913, 0.7372549019607843590 ) ;
#77 = EDGE_CURVE ( 'NONE', #629, #150, #734, .T. ) ;
#78 = PRESENTATION_LAYER_ASSIGNMENT (  '', '', ( #491 ) ) ;
#79 = CARTESIAN_POINT ( 'NONE',  ( 0.000000000000000000, -0.4350000000000069367, 1.959999999999998188 ) ) ;
#80 = AXIS2_PLACEMENT_3D ( 'NONE', #287, #727, #899 ) ;
#81 = COLOUR_RGB ( '',0.7764705882352941346, 0.7568627450980391913, 0.7372549019607843590 ) ;
#82 =( LENGTH_UNIT ( ) NAMED_UNIT ( * ) SI_UNIT ( .MILLI., .METRE. ) );
#83 = CARTESIAN_POINT ( 'NONE',  ( 0.9968214519863044520, -3.311827956989247035, -4.055819506853600563E-16 ) ) ;
#84 = PRESENTATION_STYLE_ASSIGNMENT (( #414 ) ) ;
#85 = ORIENTED_EDGE ( 'NONE', *, *, #672, .T. ) ;
#86 = EDGE_CURVE ( 'NONE', #523, #634, #160, .T. ) ;
#87 =( NAMED_UNIT ( * ) SI_UNIT ( $, .STERADIAN. ) SOLID_ANGLE_UNIT ( ) );
#88 = ORIENTED_EDGE ( 'NONE', *, *, #93, .T. ) ;
#89 = CARTESIAN_POINT ( 'NONE',  ( 1.347043950347263763, 0.000000000000000000, 0.000000000000000000 ) ) ;
#90 = APPLICATION_CONTEXT ( 'automotive_design' ) ;
#91 = DIRECTION ( 'NONE',  ( 0.000000000000000000, -1.224646799147354193E-16, 1.000000000000000000 ) ) ;
#92 =( NAMED_UNIT ( * ) SI_UNIT ( $, .STERADIAN. ) SOLID_ANGLE_UNIT ( ) );
#93 = EDGE_CURVE ( 'NONE', #523, #695, #155, .T. ) ;
#94 = STYLED_ITEM ( 'NONE', ( #724 ), #152 ) ;
#95 = CARTESIAN_POINT ( 'NONE',  ( 0.9968214519863044520, 0.000000000000000000, 0.000000000000000000 ) ) ;
#96 = CIRCLE ( 'NONE', #129, 1.749999999999999778 ) ;
#97 = ORIENTED_EDGE ( 'NONE', *, *, #851, .F. ) ;
#98 = MECHANICAL_DESIGN_GEOMETRIC_PRESENTATION_REPRESENTATION (  '', ( #800 ), #392 ) ;
#99 = STYLED_ITEM ( 'NONE', ( #398 ), #979 ) ;
#100 = ADVANCED_FACE ( 'NONE', ( #241 ), #568, .T. ) ;
#101 = PRESENTATION_STYLE_ASSIGNMENT (( #27 ) ) ;
#102 = CARTESIAN_POINT ( 'NONE',  ( 0.9968214519863044520, 0.000000000000000000, 0.000000000000000000 ) ) ;
#103 = CARTESIAN_POINT ( 'NONE',  ( 2.193400286944045430, 4.336808689942017736E-16, 0.1903515064562409931 ) ) ;
#104 = CARTESIAN_POINT ( 'NONE',  ( 4.309938594911940868, 1.891316923914901471, 2.356976916973721757E-16 ) ) ;
#105 = EDGE_CURVE ( 'NONE', #942, #342, #385, .T. ) ;
#106 = DIRECTION ( 'NONE',  ( 0.9938370308809507669, -0.1108510534444137746, 0.000000000000000000 ) ) ;
#107 = SURFACE_SIDE_STYLE ('',( #438 ) ) ;
#108 = DIRECTION ( 'NONE',  ( -0.1108510534444137469, 2.096348086633972484E-17, 0.9938370308809506559 ) ) ;
#109 = SURFACE_STYLE_FILL_AREA ( #589 ) ;
#110 = ORIENTED_EDGE ( 'NONE', *, *, #424, .F. ) ;
#111 = CARTESIAN_POINT ( 'NONE',  ( 2.599999999999998312, 0.000000000000000000, 0.000000000000000000 ) ) ;
#112 = AXIS2_PLACEMENT_3D ( 'NONE', #976, #666, #934 ) ;
#113 = AXIS2_PLACEMENT_3D ( 'NONE', #793, #30, #664 ) ;
#114 = PRODUCT_DEFINITION_FORMATION_WITH_SPECIFIED_SOURCE ( 'ANY', '', #562, .NOT_KNOWN. ) ;
#115 = DIRECTION ( 'NONE',  ( 0.6663196743247736809, -0.7456662065614397816, -9.292562311528023527E-17 ) ) ;
#116 = SURFACE_SIDE_STYLE ('',( #802 ) ) ;
#117 = PRESENTATION_STYLE_ASSIGNMENT (( #888 ) ) ;
#118 = SURFACE_STYLE_USAGE ( .BOTH. , #181 ) ;
#119 = SURFACE_STYLE_USAGE ( .BOTH. , #576 ) ;
#120 = ORIENTED_EDGE ( 'NONE', *, *, #690, .F. ) ;
#121 = CARTESIAN_POINT ( 'NONE',  ( 5.974195292295553905, 2.375629221075779134E-16, 0.2313525518329657416 ) ) ;
#122 = PLANE ( 'NONE',  #60 ) ;
#123 = FACE_OUTER_BOUND ( 'NONE', #500, .T. ) ;
#124 = CARTESIAN_POINT ( 'NONE',  ( 2.599999999999998312, 0.000000000000000000, 1.749999999999999778 ) ) ;
#125 = ORIENTED_EDGE ( 'NONE', *, *, #613, .F. ) ;
#126 = FILL_AREA_STYLE_COLOUR ( '', #441 ) ;
#127 = COLOUR_RGB ( '',0.7764705882352941346, 0.7568627450980391913, 0.7372549019607843590 ) ;
#128 = AXIS2_PLACEMENT_3D ( 'NONE', #935, #75, #91 ) ;
#129 = AXIS2_PLACEMENT_3D ( 'NONE', #11, #325, #865 ) ;
#130 = SURFACE_STYLE_FILL_AREA ( #46 ) ;
#131 = AXIS2_PLACEMENT_3D ( 'NONE', #89, #225, #764 ) ;
#132 = PRESENTATION_STYLE_ASSIGNMENT (( #460 ) ) ;
#133 = CARTESIAN_POINT ( 'NONE',  ( -25.39999999999996305, 2.143131898507868051E-16, -1.749999999999999778 ) ) ;
#134 = ORIENTED_EDGE ( 'NONE', *, *, #345, .T. ) ;
#135 = DIRECTION ( 'NONE',  ( -1.000000000000000000, -0.000000000000000000, -0.000000000000000000 ) ) ;
#136 = SURFACE_STYLE_USAGE ( .BOTH. , #673 ) ;
#137 = SURFACE_STYLE_FILL_AREA ( #825 ) ;
#138 = DIRECTION ( 'NONE',  ( -1.000000000000000000, -0.000000000000000000, -0.000000000000000000 ) ) ;
#139 = FACE_OUTER_BOUND ( 'NONE', #746, .T. ) ;
#140 = EDGE_CURVE ( 'NONE', #342, #939, #504, .T. ) ;
#141 = ORIENTED_EDGE ( 'NONE', *, *, #345, .F. ) ;
#142 = FILL_AREA_STYLE_COLOUR ( '', #628 ) ;
#143 = DIRECTION ( 'NONE',  ( -0.7456662065614396706, 0.6663196743247736809, 0.000000000000000000 ) ) ;
#144 = VERTEX_POINT ( 'NONE', #801 ) ;
#145 = CARTESIAN_POINT ( 'NONE',  ( 5.974195292295553905, 0.2313525518329656860, 8.370432990360215258E-16 ) ) ;
#146 = PRESENTATION_LAYER_ASSIGNMENT (  '', '', ( #996 ) ) ;
#147 = DIRECTION ( 'NONE',  ( -0.1108510534444137469, -0.9938370308809506559, -3.448999966305766196E-15 ) ) ;
#148 =( LENGTH_UNIT ( ) NAMED_UNIT ( * ) SI_UNIT ( .MILLI., .METRE. ) );
#149 = CIRCLE ( 'NONE', #757, 5.437518987584764929 ) ;
#150 = VERTEX_POINT ( 'NONE', #186 ) ;
#151 = FACE_OUTER_BOUND ( 'NONE', #759, .T. ) ;
#152 = ADVANCED_FACE ( 'NONE', ( #883 ), #955, .F. ) ;
#153 =( NAMED_UNIT ( * ) SI_UNIT ( $, .STERADIAN. ) SOLID_ANGLE_UNIT ( ) );
#154 =( LENGTH_UNIT ( ) NAMED_UNIT ( * ) SI_UNIT ( .MILLI., .METRE. ) );
#155 = LINE ( 'NONE', #854, #74 ) ;
#156 = CARTESIAN_POINT ( 'NONE',  ( 6.000000000000000000, 2.326828918379972351E-16, 0.000000000000000000 ) ) ;
#157 = EDGE_CURVE ( 'NONE', #54, #629, #331, .T. ) ;
#158 = SURFACE_SIDE_STYLE ('',( #776 ) ) ;
#159 = DIRECTION ( 'NONE',  ( -1.000000000000000000, -0.000000000000000000, -0.000000000000000000 ) ) ;
#160 = LINE ( 'NONE', #859, #281 ) ;
#161 = FILL_AREA_STYLE ('',( #242 ) ) ;
#162 = ORIENTED_EDGE ( 'NONE', *, *, #23, .F. ) ;
#163 = AXIS2_PLACEMENT_3D ( 'NONE', #344, #969, #273 ) ;
#164 = EDGE_CURVE ( 'NONE', #866, #309, #488, .T. ) ;
#165 = STYLED_ITEM ( 'NONE', ( #117 ), #512 ) ;
#166 =( GEOMETRIC_REPRESENTATION_CONTEXT ( 3 ) GLOBAL_UNCERTAINTY_ASSIGNED_CONTEXT ( ( #399 ) ) GLOBAL_UNIT_ASSIGNED_CONTEXT ( ( #938, #560, #32 ) ) REPRESENTATION_CONTEXT ( 'NONE', 'WORKASPACE' ) );
#167 = SURFACE_SIDE_STYLE ('',( #338 ) ) ;
#168 = SPHERICAL_SURFACE ( 'NONE', #509, 6.000000000000000000 ) ;
#169 = EDGE_CURVE ( 'NONE', #309, #311, #927, .T. ) ;
#170 =( NAMED_UNIT ( * ) PLANE_ANGLE_UNIT ( ) SI_UNIT ( $, .RADIAN. ) );
#171 =( NAMED_UNIT ( * ) SI_UNIT ( $, .STERADIAN. ) SOLID_ANGLE_UNIT ( ) );
#172 = SURFACE_SIDE_STYLE ('',( #771 ) ) ;
#173 = CARTESIAN_POINT ( 'NONE',  ( 5.974195292295553905, 2.619630734554813543E-16, -0.2313525518329656583 ) ) ;
#174 =( GEOMETRIC_REPRESENTATION_CONTEXT ( 3 ) GLOBAL_UNCERTAINTY_ASSIGNED_CONTEXT ( ( #716 ) ) GLOBAL_UNIT_ASSIGNED_CONTEXT ( ( #561, #864, #21 ) ) REPRESENTATION_CONTEXT ( 'NONE', 'WORKASPACE' ) );
#175 = UNCERTAINTY_MEASURE_WITH_UNIT (LENGTH_MEASURE( 1.000000000000000082E-05 ), #82, 'distance_accuracy_value', 'NONE');
#176 = MECHANICAL_DESIGN_GEOMETRIC_PRESENTATION_REPRESENTATION (  '', ( #368 ), #517 ) ;
#177 =( LENGTH_UNIT ( ) NAMED_UNIT ( * ) SI_UNIT ( .MILLI., .METRE. ) );
#178 = CARTESIAN_POINT ( 'NONE',  ( 2.193400286944045430, 4.336808689942017736E-16, 0.1903515064562409931 ) ) ;
#179 = VECTOR ( 'NONE', #207, 999.9999999999998863 ) ;
#180 = ADVANCED_FACE ( 'NONE', ( #789 ), #449, .T. ) ;
#181 = SURFACE_SIDE_STYLE ('',( #264 ) ) ;
#182 = CARTESIAN_POINT ( 'NONE',  ( 5.974195292295553905, -0.2313525518329657138, -8.028830871489587498E-16 ) ) ;
#183 =( NAMED_UNIT ( * ) PLANE_ANGLE_UNIT ( ) SI_UNIT ( $, .RADIAN. ) );
#184 = DIRECTION ( 'NONE',  ( 0.000000000000000000, 0.000000000000000000, -1.000000000000000000 ) ) ;
#185 = UNCERTAINTY_MEASURE_WITH_UNIT (LENGTH_MEASURE( 1.000000000000000082E-05 ), #63, 'distance_accuracy_value', 'NONE');
#186 = CARTESIAN_POINT ( 'NONE',  ( 0.2666411873824114376, 1.721732169736485352, 0.4052592521765772671 ) ) ;
#187 = SPHERICAL_SURFACE ( 'NONE', #591, 6.000000000000000000 ) ;
#188 = SURFACE_STYLE_FILL_AREA ( #886 ) ;
#189 = CIRCLE ( 'NONE', #993, 3.500000000000000000 ) ;
#190 = APPLICATION_CONTEXT ( 'automotive_design' ) ;
#191 = VECTOR ( 'NONE', #632, 1000.000000000000000 ) ;
#192 = DIRECTION ( 'NONE',  ( -1.000000000000000000, 0.000000000000000000, -0.000000000000000000 ) ) ;
#193 = VECTOR ( 'NONE', #461, 1000.000000000000000 ) ;
#194 = STYLED_ITEM ( 'NONE', ( #730 ), #917 ) ;
#195 = CARTESIAN_POINT ( 'NONE',  ( 6.000000000000000000, 2.326828918379972351E-16, 0.000000000000000000 ) ) ;
#196 = FILL_AREA_STYLE_COLOUR ( '', #534 ) ;
#197 = PRESENTATION_STYLE_ASSIGNMENT (( #518 ) ) ;
#198 = SURFACE_STYLE_USAGE ( .BOTH. , #116 ) ;
#199 = ORIENTED_EDGE ( 'NONE', *, *, #169, .T. ) ;
#200 = CARTESIAN_POINT ( 'NONE',  ( 0.9968214519863044520, 4.171041651934668579E-16, -3.311827956989247479 ) ) ;
#201 = CARTESIAN_POINT ( 'NONE',  ( -25.39999999999996305, 0.000000000000000000, 0.000000000000000000 ) ) ;
#202 = DIRECTION ( 'NONE',  ( 0.6663196743247735698, -2.603479645215216163E-15, 0.7456662065614397816 ) ) ;
#203 =( LENGTH_UNIT ( ) NAMED_UNIT ( * ) SI_UNIT ( .MILLI., .METRE. ) );
#204 = FILL_AREA_STYLE ('',( #126 ) ) ;
#205 = EDGE_CURVE ( 'NONE', #671, #986, #189, .T. ) ;
#206 = PRESENTATION_STYLE_ASSIGNMENT (( #901 ) ) ;
#207 = DIRECTION ( 'NONE',  ( 0.7431005017819711789, 0.08288428673721742745, 0.6640269868487616023 ) ) ;
#208 = PLANE ( 'NONE',  #677 ) ;
#209 = ORIENTED_EDGE ( 'NONE', *, *, #405, .F. ) ;
#210 =( GEOMETRIC_REPRESENTATION_CONTEXT ( 3 ) GLOBAL_UNCERTAINTY_ASSIGNED_CONTEXT ( ( #654 ) ) GLOBAL_UNIT_ASSIGNED_CONTEXT ( ( #655, #36, #872 ) ) REPRESENTATION_CONTEXT ( 'NONE', 'WORKASPACE' ) );
#211 =( GEOMETRIC_REPRESENTATION_CONTEXT ( 3 ) GLOBAL_UNCERTAINTY_ASSIGNED_CONTEXT ( ( #867 ) ) GLOBAL_UNIT_ASSIGNED_CONTEXT ( ( #983, #545, #62 ) ) REPRESENTATION_CONTEXT ( 'NONE', 'WORKASPACE' ) );
#212 = AXIS2_PLACEMENT_3D ( 'NONE', #201, #981, #222 ) ;
#213 = ADVANCED_FACE ( 'NONE', ( #123 ), #208, .F. ) ;
#214 = FACE_OUTER_BOUND ( 'NONE', #321, .T. ) ;
#215 = PRESENTATION_LAYER_ASSIGNMENT (  '', '', ( #823 ) ) ;
#216 = DIRECTION ( 'NONE',  ( -1.000000000000000000, -0.000000000000000000, -0.000000000000000000 ) ) ;
#217 = FILL_AREA_STYLE ('',( #984 ) ) ;
#218 = ORIENTED_EDGE ( 'NONE', *, *, #278, .T. ) ;
#219 = CARTESIAN_POINT ( 'NONE',  ( 0.2666411873824114376, -0.4052592521765831513, 1.721732169736483131 ) ) ;
#220 = ORIENTED_EDGE ( 'NONE', *, *, #925, .F. ) ;
#221 = EDGE_LOOP ( 'NONE', ( #85, #960, #326, #125 ) ) ;
#222 = DIRECTION ( 'NONE',  ( 0.000000000000000000, 0.000000000000000000, 1.000000000000000000 ) ) ;
#223 = AXIS2_PLACEMENT_3D ( 'NONE', #259, #692, #406 ) ;
#224 = AXIS2_PLACEMENT_3D ( 'NONE', #528, #597, #483 ) ;
#225 = DIRECTION ( 'NONE',  ( -1.000000000000000000, -0.000000000000000000, -0.000000000000000000 ) ) ;
#226 = MECHANICAL_DESIGN_GEOMETRIC_PRESENTATION_REPRESENTATION (  '', ( #64 ), #977 ) ;
#227 =( LENGTH_UNIT ( ) NAMED_UNIT ( * ) SI_UNIT ( .MILLI., .METRE. ) );
#228 = PRESENTATION_STYLE_ASSIGNMENT (( #290 ) ) ;
#229 = VECTOR ( 'NONE', #306, 1000.000000000000000 ) ;
#230 = EDGE_LOOP ( 'NONE', ( #134, #543, #704, #779, #415 ) ) ;
#231 = PRESENTATION_STYLE_ASSIGNMENT (( #478 ) ) ;
#232 = EDGE_CURVE ( 'NONE', #309, #538, #797, .T. ) ;
#233 = SURFACE_STYLE_USAGE ( .BOTH. , #762 ) ;
#234 = ORIENTED_EDGE ( 'NONE', *, *, #467, .T. ) ;
#235 =( NAMED_UNIT ( * ) PLANE_ANGLE_UNIT ( ) SI_UNIT ( $, .RADIAN. ) );
#236 = ORIENTED_EDGE ( 'NONE', *, *, #310, .F. ) ;
#237 = ORIENTED_EDGE ( 'NONE', *, *, #485, .F. ) ;
#238 = PRESENTATION_STYLE_ASSIGNMENT (( #233 ) ) ;
#239 = ORIENTED_EDGE ( 'NONE', *, *, #77, .T. ) ;
#240 = DIRECTION ( 'NONE',  ( -0.000000000000000000, 0.000000000000000000, -1.000000000000000000 ) ) ;
#241 = FACE_OUTER_BOUND ( 'NONE', #360, .T. ) ;
#242 = FILL_AREA_STYLE_COLOUR ( '', #753 ) ;
#243 = ORIENTED_EDGE ( 'NONE', *, *, #713, .F. ) ;
#244 =( LENGTH_UNIT ( ) NAMED_UNIT ( * ) SI_UNIT ( .MILLI., .METRE. ) );
#245 = EDGE_CURVE ( 'NONE', #939, #695, #923, .T. ) ;
#246 = PRESENTATION_LAYER_ASSIGNMENT (  '', '', ( #368 ) ) ;
#247 = PRESENTATION_LAYER_ASSIGNMENT (  '', '', ( #473 ) ) ;
#248 = DIRECTION ( 'NONE',  ( -0.9938370308809507669, 0.000000000000000000, 0.1108510534444137052 ) ) ;
#249 = VECTOR ( 'NONE', #904, 999.9999999999998863 ) ;
#250 =( GEOMETRIC_REPRESENTATION_CONTEXT ( 3 ) GLOBAL_UNCERTAINTY_ASSIGNED_CONTEXT ( ( #481 ) ) GLOBAL_UNIT_ASSIGNED_CONTEXT ( ( #244, #852, #1015 ) ) REPRESENTATION_CONTEXT ( 'NONE', 'WORKASPACE' ) );
#251 = DIRECTION ( 'NONE',  ( -1.000000000000000000, -0.000000000000000000, -0.000000000000000000 ) ) ;
#252 = ORIENTED_EDGE ( 'NONE', *, *, #357, .T. ) ;
#253 = DIRECTION ( 'NONE',  ( 0.000000000000000000, 0.000000000000000000, 1.000000000000000000 ) ) ;
#254 = PLANE ( 'NONE',  #595 ) ;
#255 = UNCERTAINTY_MEASURE_WITH_UNIT (LENGTH_MEASURE( 1.000000000000000082E-05 ), #464, 'distance_accuracy_value', 'NONE');
#256 = ORIENTED_EDGE ( 'NONE', *, *, #967, .T. ) ;
#257 =( LENGTH_UNIT ( ) NAMED_UNIT ( * ) SI_UNIT ( .MILLI., .METRE. ) );
#258 = CARTESIAN_POINT ( 'NONE',  ( 2.193400286944045430, 0.1903515064562410486, 2.309278636184420884E-16 ) ) ;
#259 = CARTESIAN_POINT ( 'NONE',  ( 4.309938594911940868, -6.606512545546451519E-15, 1.891316923914901693 ) ) ;
#260 = ADVANCED_FACE ( 'NONE', ( #918 ), #836, .T. ) ;
#261 = ORIENTED_EDGE ( 'NONE', *, *, #573, .T. ) ;
#262 = SURFACE_STYLE_FILL_AREA ( #633 ) ;
#263 = VERTEX_POINT ( 'NONE', #599 ) ;
#264 = SURFACE_STYLE_FILL_AREA ( #803 ) ;
#265 = CIRCLE ( 'NONE', #223, 5.437518987584765817 ) ;
#266 = UNCERTAINTY_MEASURE_WITH_UNIT (LENGTH_MEASURE( 1.000000000000000082E-05 ), #358, 'distance_accuracy_value', 'NONE');
#267 = PRESENTATION_LAYER_ASSIGNMENT (  '', '', ( #516 ) ) ;
#268 = AXIS2_PLACEMENT_3D ( 'NONE', #778, #251, #348 ) ;
#269 = SURFACE_STYLE_USAGE ( .BOTH. , #416 ) ;
#270 = TOROIDAL_SURFACE ( 'NONE', #508, 3.080000000000000515, 0.4200000000000000400 ) ;
#271 = EDGE_CURVE ( 'NONE', #701, #629, #898, .T. ) ;
#272 = COLOUR_RGB ( '',0.7921568627450980005, 0.8196078431372548767, 0.9333333333333333481 ) ;
#273 = DIRECTION ( 'NONE',  ( -0.7456662065614397816, 0.6663196743247735698, 0.000000000000000000 ) ) ;
#274 =( LENGTH_UNIT ( ) NAMED_UNIT ( * ) SI_UNIT ( .MILLI., .METRE. ) );
#275 = ADVANCED_FACE ( 'NONE', ( #783 ), #2, .T. ) ;
#276 = UNCERTAINTY_MEASURE_WITH_UNIT (LENGTH_MEASURE( 1.000000000000000082E-05 ), #35, 'distance_accuracy_value', 'NONE');
#277 = FILL_AREA_STYLE_COLOUR ( '', #514 ) ;
#278 = EDGE_CURVE ( 'NONE', #65, #538, #974, .T. ) ;
#279 = DIRECTION ( 'NONE',  ( 0.000000000000000000, 0.000000000000000000, 1.000000000000000000 ) ) ;
#280 = DIRECTION ( 'NONE',  ( 1.000000000000000000, 0.000000000000000000, 0.000000000000000000 ) ) ;
#281 = VECTOR ( 'NONE', #502, 1000.000000000000000 ) ;
#282 = CIRCLE ( 'NONE', #860, 1.749999999999999778 ) ;
#283 = AXIS2_PLACEMENT_3D ( 'NONE', #359, #653, #436 ) ;
#284 =( NAMED_UNIT ( * ) SI_UNIT ( $, .STERADIAN. ) SOLID_ANGLE_UNIT ( ) );
#285 = DIRECTION ( 'NONE',  ( -1.000000000000000000, -0.000000000000000000, -0.000000000000000000 ) ) ;
#286 = CARTESIAN_POINT ( 'NONE',  ( -25.39999999999996305, 0.000000000000000000, 0.000000000000000000 ) ) ;
#287 = CARTESIAN_POINT ( 'NONE',  ( 2.193400286944045430, -0.1903515064562409931, -2.309278636184418912E-16 ) ) ;
#288 = CARTESIAN_POINT ( 'NONE',  ( 1.949999999999999956, 0.2174999999999999989, 0.2174999999999999711 ) ) ;
#289 = SURFACE_STYLE_USAGE ( .BOTH. , #59 ) ;
#290 = SURFACE_STYLE_USAGE ( .BOTH. , #608 ) ;
#291 = ORIENTED_EDGE ( 'NONE', *, *, #105, .F. ) ;
#292 = DIRECTION ( 'NONE',  ( 0.000000000000000000, 0.000000000000000000, 1.000000000000000000 ) ) ;
#293 =( NAMED_UNIT ( * ) SI_UNIT ( $, .STERADIAN. ) SOLID_ANGLE_UNIT ( ) );
#294 = UNCERTAINTY_MEASURE_WITH_UNIT (LENGTH_MEASURE( 1.000000000000000082E-05 ), #884, 'distance_accuracy_value', 'NONE');
#295 = LINE ( 'NONE', #49, #458 ) ;
#296 = EDGE_LOOP ( 'NONE', ( #413, #237 ) ) ;
#297 = AXIS2_PLACEMENT_3D ( 'NONE', #102, #437, #279 ) ;
#298 = CIRCLE ( 'NONE', #224, 3.500000000000000444 ) ;
#299 = AXIS2_PLACEMENT_3D ( 'NONE', #895, #447, #378 ) ;
#300 =( LENGTH_UNIT ( ) NAMED_UNIT ( * ) SI_UNIT ( .MILLI., .METRE. ) );
#301 = COLOUR_RGB ( '',0.7764705882352941346, 0.7568627450980391913, 0.7372549019607843590 ) ;
#302 = SURFACE_SIDE_STYLE ('',( #455 ) ) ;
#303 = DIRECTION ( 'NONE',  ( -0.1108510534444136914, 0.9938370308809506559, 3.595744332370143179E-15 ) ) ;
#304 = ORIENTED_EDGE ( 'NONE', *, *, #86, .T. ) ;
#305 = CARTESIAN_POINT ( 'NONE',  ( 2.214116351126373949, -0.1880408685282127235, 0.1880408685282120573 ) ) ;
#306 = DIRECTION ( 'NONE',  ( 0.7431005017819711789, -0.6640269868487613802, 0.08288428673721989770 ) ) ;
#307 = EDGE_CURVE ( 'NONE', #538, #1022, #694, .T. ) ;
#308 = FILL_AREA_STYLE ('',( #1006 ) ) ;
#309 = VERTEX_POINT ( 'NONE', #557 ) ;
#310 = EDGE_CURVE ( 'NONE', #671, #65, #635, .T. ) ;
#311 = VERTEX_POINT ( 'NONE', #641 ) ;
#312 = FILL_AREA_STYLE_COLOUR ( '', #61 ) ;
#313 = CIRCLE ( 'NONE', #873, 3.311827956989247479 ) ;
#314 = VECTOR ( 'NONE', #422, 1000.000000000000000 ) ;
#315 =( GEOMETRIC_REPRESENTATION_CONTEXT ( 3 ) GLOBAL_UNCERTAINTY_ASSIGNED_CONTEXT ( ( #804 ) ) GLOBAL_UNIT_ASSIGNED_CONTEXT ( ( #227, #235, #171 ) ) REPRESENTATION_CONTEXT ( 'NONE', 'WORKASPACE' ) );
#316 = PRESENTATION_STYLE_ASSIGNMENT (( #480 ) ) ;
#317 = MECHANICAL_DESIGN_GEOMETRIC_PRESENTATION_REPRESENTATION (  '', ( #996 ), #722 ) ;
#318 = CIRCLE ( 'NONE', #756, 3.500000000000000000 ) ;
#319 = PRESENTATION_STYLE_ASSIGNMENT (( #571 ) ) ;
#320 =( GEOMETRIC_REPRESENTATION_CONTEXT ( 3 ) GLOBAL_UNCERTAINTY_ASSIGNED_CONTEXT ( ( #294 ) ) GLOBAL_UNIT_ASSIGNED_CONTEXT ( ( #884, #602, #674 ) ) REPRESENTATION_CONTEXT ( 'NONE', 'WORKASPACE' ) );
#321 = EDGE_LOOP ( 'NONE', ( #386, #88, #471, #555 ) ) ;
#322 = ADVANCED_FACE ( 'NONE', ( #943 ), #187, .T. ) ;
#323 = PRESENTATION_STYLE_ASSIGNMENT (( #809 ) ) ;
#324 = EDGE_LOOP ( 'NONE', ( #606, #330, #120 ) ) ;
#325 = DIRECTION ( 'NONE',  ( -1.000000000000000000, -0.000000000000000000, -0.000000000000000000 ) ) ;
#326 = ORIENTED_EDGE ( 'NONE', *, *, #573, .F. ) ;
#327 = DIRECTION ( 'NONE',  ( -0.1108510534444137469, 2.096348086633972484E-17, 0.9938370308809506559 ) ) ;
#328 = EDGE_LOOP ( 'NONE', ( #990, #749 ) ) ;
#329 =( NAMED_UNIT ( * ) SI_UNIT ( $, .STERADIAN. ) SOLID_ANGLE_UNIT ( ) );
#330 = ORIENTED_EDGE ( 'NONE', *, *, #271, .F. ) ;
#331 = CIRCLE ( 'NONE', #57, 5.995482475482740270 ) ;
#332 =( NAMED_UNIT ( * ) PLANE_ANGLE_UNIT ( ) SI_UNIT ( $, .RADIAN. ) );
#333 = MECHANICAL_DESIGN_GEOMETRIC_PRESENTATION_REPRESENTATION (  '', ( #929 ), #440 ) ;
#334 = DIRECTION ( 'NONE',  ( -1.000000000000000000, -0.000000000000000000, -0.000000000000000000 ) ) ;
#335 = STYLED_ITEM ( 'NONE', ( #206 ), #452 ) ;
#336 = CARTESIAN_POINT ( 'NONE',  ( 1.347043950347265318, 4.286263797015737088E-16, -3.500000000000000444 ) ) ;
#337 = CIRCLE ( 'NONE', #459, 5.995482475482741158 ) ;
#338 = SURFACE_STYLE_FILL_AREA ( #161 ) ;
#339 =( NAMED_UNIT ( * ) SI_UNIT ( $, .STERADIAN. ) SOLID_ANGLE_UNIT ( ) );
#340 = SURFACE_STYLE_USAGE ( .BOTH. , #172 ) ;
#341 = ORIENTED_EDGE ( 'NONE', *, *, #952, .T. ) ;
#342 = VERTEX_POINT ( 'NONE', #765 ) ;
#343 = LINE ( 'NONE', #515, #425 ) ;
#344 = CARTESIAN_POINT ( 'NONE',  ( 1.949999999999999956, 0.2174999999999999989, 0.2174999999999999156 ) ) ;
#345 = EDGE_CURVE ( 'NONE', #365, #569, #343, .T. ) ;
#346 = LINE ( 'NONE', #648, #841 ) ;
#347 = ORIENTED_EDGE ( 'NONE', *, *, #925, .T. ) ;
#348 = DIRECTION ( 'NONE',  ( 0.000000000000000000, 0.000000000000000000, 1.000000000000000000 ) ) ;
#349 = EDGE_LOOP ( 'NONE', ( #261, #234 ) ) ;
#350 = PLANE ( 'NONE',  #352 ) ;
#351 = AXIS2_PLACEMENT_3D ( 'NONE', #826, #138, #383 ) ;
#352 = AXIS2_PLACEMENT_3D ( 'NONE', #258, #554, #407 ) ;
#353 = DIRECTION ( 'NONE',  ( -0.000000000000000000, 0.000000000000000000, 1.000000000000000000 ) ) ;
#354 = FILL_AREA_STYLE_COLOUR ( '', #961 ) ;
#355 = FACE_OUTER_BOUND ( 'NONE', #553, .T. ) ;
#356 = CIRCLE ( 'NONE', #650, 5.437518987584765817 ) ;
#357 = EDGE_CURVE ( 'NONE', #365, #381, #564, .T. ) ;
#358 =( LENGTH_UNIT ( ) NAMED_UNIT ( * ) SI_UNIT ( .MILLI., .METRE. ) );
#359 = CARTESIAN_POINT ( 'NONE',  ( 5.974195292295553905, 0.2313525518329656860, 8.370432990360215258E-16 ) ) ;
#360 = EDGE_LOOP ( 'NONE', ( #905, #832, #408, #659 ) ) ;
#361 = DIRECTION ( 'NONE',  ( 0.000000000000000000, -1.000000000000000000, -1.246209393661499126E-16 ) ) ;
#362 = PRODUCT_DEFINITION_SHAPE ( 'NONE', 'NONE',  #876 ) ;
#363 = ADVANCED_FACE ( 'NONE', ( #31 ), #350, .T. ) ;
#364 = DIRECTION ( 'NONE',  ( -0.1108510534444137469, -0.9938370308809506559, -3.448999966305766196E-15 ) ) ;
#365 = VERTEX_POINT ( 'NONE', #768 ) ;
#366 = DIRECTION ( 'NONE',  ( -0.000000000000000000, 0.000000000000000000, 1.000000000000000000 ) ) ;
#367 = AXIS2_PLACEMENT_3D ( 'NONE', #524, #879, #805 ) ;
#368 = STYLED_ITEM ( 'NONE', ( #323 ), #430 ) ;
#369 = PRESENTATION_LAYER_ASSIGNMENT (  '', '', ( #335 ) ) ;
#370 = STYLED_ITEM ( 'NONE', ( #228 ), #718 ) ;
#371 = MECHANICAL_DESIGN_GEOMETRIC_PRESENTATION_REPRESENTATION (  '', ( #194 ), #320 ) ;
#372 = CARTESIAN_POINT ( 'NONE',  ( 0.2553644383338094515, -1.731808957027352047, -2.120854295958262972E-16 ) ) ;
#373 = PLANE ( 'NONE',  #894 ) ;
#374 = SURFACE_STYLE_USAGE ( .BOTH. , #738 ) ;
#375 = CARTESIAN_POINT ( 'NONE',  ( 0.000000000000000000, 0.4349999999999932254, 1.960000000000001741 ) ) ;
#376 = ADVANCED_FACE ( 'NONE', ( #479 ), #849, .F. ) ;
#377 = ORIENTED_EDGE ( 'NONE', *, *, #657, .T. ) ;
#378 = DIRECTION ( 'NONE',  ( 0.000000000000000000, 0.000000000000000000, 1.000000000000000000 ) ) ;
#379 = CARTESIAN_POINT ( 'NONE',  ( 0.000000000000000000, -0.4349999999999927813, -1.960000000000001741 ) ) ;
#380 = CARTESIAN_POINT ( 'NONE',  ( 0.2666411873824114376, -0.4052592521765708278, -1.721732169736487128 ) ) ;
#381 = VERTEX_POINT ( 'NONE', #372 ) ;
#382 = FILL_AREA_STYLE ('',( #902 ) ) ;
#383 = DIRECTION ( 'NONE',  ( 0.000000000000000000, 0.000000000000000000, 1.000000000000000000 ) ) ;
#384 = CARTESIAN_POINT ( 'NONE',  ( 4.309938594911940868, -1.891316923914901471, 0.000000000000000000 ) ) ;
#385 = CIRCLE ( 'NONE', #367, 5.995482475482740270 ) ;
#386 = ORIENTED_EDGE ( 'NONE', *, *, #985, .T. ) ;
#387 = COLOUR_RGB ( '',0.7764705882352941346, 0.7568627450980391913, 0.7372549019607843590 ) ;
#388 = DIRECTION ( 'NONE',  ( 1.000000000000000000, 0.000000000000000000, 0.000000000000000000 ) ) ;
#389 = COLOUR_RGB ( '',0.7764705882352941346, 0.7568627450980391913, 0.7372549019607843590 ) ;
#390 = CIRCLE ( 'NONE', #1017, 5.995482475482740270 ) ;
#391 = DIRECTION ( 'NONE',  ( -1.000000000000000000, -0.000000000000000000, -0.000000000000000000 ) ) ;
#392 =( GEOMETRIC_REPRESENTATION_CONTEXT ( 3 ) GLOBAL_UNCERTAINTY_ASSIGNED_CONTEXT ( ( #585 ) ) GLOBAL_UNIT_ASSIGNED_CONTEXT ( ( #203, #806, #732 ) ) REPRESENTATION_CONTEXT ( 'NONE', 'WORKASPACE' ) );
#393 =( GEOMETRIC_REPRESENTATION_CONTEXT ( 3 ) GLOBAL_UNCERTAINTY_ASSIGNED_CONTEXT ( ( #845 ) ) GLOBAL_UNIT_ASSIGNED_CONTEXT ( ( #300, #1, #153 ) ) REPRESENTATION_CONTEXT ( 'NONE', 'WORKASPACE' ) );
#394 = LINE ( 'NONE', #682, #427 ) ;
#395 = ORIENTED_EDGE ( 'NONE', *, *, #56, .T. ) ;
#396 =( NAMED_UNIT ( * ) PLANE_ANGLE_UNIT ( ) SI_UNIT ( $, .RADIAN. ) );
#397 = PRODUCT_RELATED_PRODUCT_CATEGORY ( 'part', '', ( #562 ) ) ;
#398 = PRESENTATION_STYLE_ASSIGNMENT (( #289 ) ) ;
#399 = UNCERTAINTY_MEASURE_WITH_UNIT (LENGTH_MEASURE( 1.000000000000000082E-05 ), #938, 'distance_accuracy_value', 'NONE');
#400 = FILL_AREA_STYLE ('',( #41 ) ) ;
#401 = CARTESIAN_POINT ( 'NONE',  ( 1.949999999999999956, 0.2175000000000001377, 0.2174999999999999711 ) ) ;
#402 = ORIENTED_EDGE ( 'NONE', *, *, #584, .F. ) ;
#403 = DIRECTION ( 'NONE',  ( 0.000000000000000000, 1.224646799147353207E-16, -1.000000000000000000 ) ) ;
#404 = SURFACE_SIDE_STYLE ('',( #863 ) ) ;
#405 = EDGE_CURVE ( 'NONE', #1022, #381, #548, .T. ) ;
#406 = DIRECTION ( 'NONE',  ( -0.7456662065614396706, 0.000000000000000000, -0.6663196743247736809 ) ) ;
#407 = DIRECTION ( 'NONE',  ( 0.9938370308809506559, -0.1108510534444137469, -3.870343844922734420E-16 ) ) ;
#408 = ORIENTED_EDGE ( 'NONE', *, *, #613, .T. ) ;
#409 = MECHANICAL_DESIGN_GEOMETRIC_PRESENTATION_REPRESENTATION (  '', ( #335 ), #773 ) ;
#410 = AXIS2_PLACEMENT_3D ( 'NONE', #882, #588, #184 ) ;
#411 = PRESENTATION_LAYER_ASSIGNMENT (  '', '', ( #843 ) ) ;
#412 = CARTESIAN_POINT ( 'NONE',  ( 1.949999999999999956, -0.2175000000000000266, -0.2174999999999999989 ) ) ;
#413 = ORIENTED_EDGE ( 'NONE', *, *, #672, .F. ) ;
#414 = SURFACE_STYLE_USAGE ( .BOTH. , #158 ) ;
#415 = ORIENTED_EDGE ( 'NONE', *, *, #357, .F. ) ;
#416 = SURFACE_SIDE_STYLE ('',( #262 ) ) ;
#417 = ORIENTED_EDGE ( 'NONE', *, *, #69, .T. ) ;
#418 = SURFACE_SIDE_STYLE ('',( #769 ) ) ;
#419 = UNCERTAINTY_MEASURE_WITH_UNIT (LENGTH_MEASURE( 1.000000000000000082E-05 ), #148, 'distance_accuracy_value', 'NONE');
#420 = CARTESIAN_POINT ( 'NONE',  ( 0.9968214519863044520, 0.000000000000000000, 0.000000000000000000 ) ) ;
#421 = DIRECTION ( 'NONE',  ( 0.000000000000000000, 0.000000000000000000, 1.000000000000000000 ) ) ;
#422 = DIRECTION ( 'NONE',  ( 0.000000000000000000, -1.246209393661499619E-16, 1.000000000000000000 ) ) ;
#423 = STYLED_ITEM ( 'NONE', ( #15 ), #100 ) ;
#424 = EDGE_CURVE ( 'NONE', #65, #29, #298, .T. ) ;
#425 = VECTOR ( 'NONE', #794, 1000.000000000000000 ) ;
#426 = VECTOR ( 'NONE', #656, 1000.000000000000000 ) ;
#427 = VECTOR ( 'NONE', #614, 1000.000000000000000 ) ;
#428 = ORIENTED_EDGE ( 'NONE', *, *, #232, .F. ) ;
#429 = DIRECTION ( 'NONE',  ( -0.1108510534444136914, 1.257808851980383614E-16, -0.9938370308809506559 ) ) ;
#430 = ADVANCED_FACE ( 'NONE', ( #742 ), #729, .T. ) ;
#431 = CARTESIAN_POINT ( 'NONE',  ( 2.193400286944045430, -4.336808689942017736E-16, -0.1903515064562410486 ) ) ;
#432 = UNCERTAINTY_MEASURE_WITH_UNIT (LENGTH_MEASURE( 1.000000000000000082E-05 ), #274, 'distance_accuracy_value', 'NONE');
#433 = DIRECTION ( 'NONE',  ( 0.000000000000000000, 0.000000000000000000, 1.000000000000000000 ) ) ;
#434 = DIRECTION ( 'NONE',  ( -0.9938370308809506559, 0.000000000000000000, 0.1108510534444136914 ) ) ;
#435 = DIRECTION ( 'NONE',  ( 0.6663196743247736809, -0.7456662065614397816, -9.292562311528023527E-17 ) ) ;
#436 = DIRECTION ( 'NONE',  ( -0.9938370308809507669, -0.1108510534444137052, 0.000000000000000000 ) ) ;
#437 = DIRECTION ( 'NONE',  ( -1.000000000000000000, -0.000000000000000000, -0.000000000000000000 ) ) ;
#438 = SURFACE_STYLE_FILL_AREA ( #204 ) ;
#439 = MECHANICAL_DESIGN_GEOMETRIC_PRESENTATION_REPRESENTATION (  '', ( #94 ), #210 ) ;
#440 =( GEOMETRIC_REPRESENTATION_CONTEXT ( 3 ) GLOBAL_UNCERTAINTY_ASSIGNED_CONTEXT ( ( #897 ) ) GLOBAL_UNIT_ASSIGNED_CONTEXT ( ( #154, #6, #505 ) ) REPRESENTATION_CONTEXT ( 'NONE', 'WORKASPACE' ) );
#441 = COLOUR_RGB ( '',0.7764705882352941346, 0.7568627450980391913, 0.7372549019607843590 ) ;
#442 = EDGE_LOOP ( 'NONE', ( #624, #703, #913 ) ) ;
#443 = STYLED_ITEM ( 'NONE', ( #1023 ), #777 ) ;
#444 = AXIS2_PLACEMENT_3D ( 'NONE', #842, #834, #388 ) ;
#445 = CARTESIAN_POINT ( 'NONE',  ( 4.309938594911940868, 1.891316923914901471, 2.356976916973721757E-16 ) ) ;
#446 = FILL_AREA_STYLE_COLOUR ( '', #127 ) ;
#447 = DIRECTION ( 'NONE',  ( -1.000000000000000000, 0.000000000000000000, 0.000000000000000000 ) ) ;
#448 = FILL_AREA_STYLE_COLOUR ( '', #76 ) ;
#449 = CYLINDRICAL_SURFACE ( 'NONE', #956, 3.500000000000000444 ) ;
#450 = ORIENTED_EDGE ( 'NONE', *, *, #594, .T. ) ;
#451 =( NAMED_UNIT ( * ) SI_UNIT ( $, .STERADIAN. ) SOLID_ANGLE_UNIT ( ) );
#452 = ADVANCED_FACE ( 'NONE', ( #151 ), #122, .T. ) ;
#453 = SURFACE_STYLE_FILL_AREA ( #1009 ) ;
#454 = SURFACE_STYLE_FILL_AREA ( #382 ) ;
#455 = SURFACE_STYLE_FILL_AREA ( #997 ) ;
#456 = VERTEX_POINT ( 'NONE', #957 ) ;
#457 = FILL_AREA_STYLE ('',( #915 ) ) ;
#458 = VECTOR ( 'NONE', #465, 1000.000000000000114 ) ;
#459 = AXIS2_PLACEMENT_3D ( 'NONE', #145, #526, #39 ) ;
#460 = SURFACE_STYLE_USAGE ( .BOTH. , #302 ) ;
#461 = DIRECTION ( 'NONE',  ( -1.000000000000000000, -0.000000000000000000, -0.000000000000000000 ) ) ;
#462 = EDGE_LOOP ( 'NONE', ( #236, #14, #850, #110 ) ) ;
#463 =( LENGTH_UNIT ( ) NAMED_UNIT ( * ) SI_UNIT ( .MILLI., .METRE. ) );
#464 =( LENGTH_UNIT ( ) NAMED_UNIT ( * ) SI_UNIT ( .MILLI., .METRE. ) );
#465 = DIRECTION ( 'NONE',  ( 0.9877866216249069353, -0.1101762001043169320, 0.1101762001043165712 ) ) ;
#466 = ORIENTED_EDGE ( 'NONE', *, *, #857, .T. ) ;
#467 = EDGE_CURVE ( 'NONE', #1003, #645, #96, .T. ) ;
#468 =( NAMED_UNIT ( * ) PLANE_ANGLE_UNIT ( ) SI_UNIT ( $, .RADIAN. ) );
#469 = CARTESIAN_POINT ( 'NONE',  ( 1.949999999999999956, 0.2175000000000007205, -0.2174999999999992772 ) ) ;
#470 = PRESENTATION_LAYER_ASSIGNMENT (  '', '', ( #889 ) ) ;
#471 = ORIENTED_EDGE ( 'NONE', *, *, #245, .F. ) ;
#472 = ADVANCED_FACE ( 'NONE', ( #711 ), #503, .T. ) ;
#473 = STYLED_ITEM ( 'NONE', ( #947 ), #499 ) ;
#474 = STYLED_ITEM ( 'NONE', ( #847 ), #758 ) ;
#475 = CARTESIAN_POINT ( 'NONE',  ( 0.000000000000000000, 1.959999999999999964, -0.4350000000000000533 ) ) ;
#476 = DIRECTION ( 'NONE',  ( 0.9938370308809506559, -0.1108510534444137469, -3.870343844922734420E-16 ) ) ;
#477 = EDGE_LOOP ( 'NONE', ( #683, #50, #782, #162 ) ) ;
#478 = SURFACE_STYLE_USAGE ( .BOTH. , #767 ) ;
#479 = FACE_OUTER_BOUND ( 'NONE', #230, .T. ) ;
#480 = SURFACE_STYLE_USAGE ( .BOTH. , #418 ) ;
#481 = UNCERTAINTY_MEASURE_WITH_UNIT (LENGTH_MEASURE( 1.000000000000000082E-05 ), #244, 'distance_accuracy_value', 'NONE');
#482 = FILL_AREA_STYLE_COLOUR ( '', #835 ) ;
#483 = DIRECTION ( 'NONE',  ( 0.000000000000000000, 0.000000000000000000, 1.000000000000000000 ) ) ;
#484 = FACE_OUTER_BOUND ( 'NONE', #828, .T. ) ;
#485 = EDGE_CURVE ( 'NONE', #687, #144, #786, .T. ) ;
#486 = FILL_AREA_STYLE ('',( #709 ) ) ;
#487 = DIRECTION ( 'NONE',  ( 0.7431005017819711789, 0.08288428673722224305, -0.6640269868487610472 ) ) ;
#488 = CIRCLE ( 'NONE', #297, 3.311827956989247479 ) ;
#489 = MECHANICAL_DESIGN_GEOMETRIC_PRESENTATION_REPRESENTATION (  '', ( #9 ), #838 ) ;
#490 = FILL_AREA_STYLE_COLOUR ( '', #962 ) ;
#491 = STYLED_ITEM ( 'NONE', ( #646 ), #472 ) ;
#492 = AXIS2_PLACEMENT_3D ( 'NONE', #384, #605, #143 ) ;
#493 = CARTESIAN_POINT ( 'NONE',  ( -25.39999999999996305, 4.286263797015737088E-16, -3.500000000000000444 ) ) ;
#494 = LINE ( 'NONE', #79, #577 ) ;
#495 = ORIENTED_EDGE ( 'NONE', *, *, #600, .T. ) ;
#496 = CARTESIAN_POINT ( 'NONE',  ( 2.193400286944045430, -4.336808689942017736E-16, -0.1903515064562410486 ) ) ;
#497 = EDGE_LOOP ( 'NONE', ( #495, #304, #861 ) ) ;
#498 =( NAMED_UNIT ( * ) PLANE_ANGLE_UNIT ( ) SI_UNIT ( $, .RADIAN. ) );
#499 = MANIFOLD_SOLID_BREP ( 'Move Face1', #733 ) ;
#500 = EDGE_LOOP ( 'NONE', ( #940, #450, #579, #510 ) ) ;
#501 = UNCERTAINTY_MEASURE_WITH_UNIT (LENGTH_MEASURE( 1.000000000000000082E-05 ), #1013, 'distance_accuracy_value', 'NONE');
#502 = DIRECTION ( 'NONE',  ( -0.9877866216249070463, -0.1101762001043161271, -0.1101762001043165851 ) ) ;
#503 = PLANE ( 'NONE',  #959 ) ;
#504 = CIRCLE ( 'NONE', #546, 5.995482475482740270 ) ;
#505 =( NAMED_UNIT ( * ) SI_UNIT ( $, .STERADIAN. ) SOLID_ANGLE_UNIT ( ) );
#506 = FACE_OUTER_BOUND ( 'NONE', #221, .T. ) ;
#507 = COLOUR_RGB ( '',0.7764705882352941346, 0.7568627450980391913, 0.7372549019607843590 ) ;
#508 = AXIS2_PLACEMENT_3D ( 'NONE', #642, #871, #421 ) ;
#509 = AXIS2_PLACEMENT_3D ( 'NONE', #689, #240, #937 ) ;
#510 = ORIENTED_EDGE ( 'NONE', *, *, #663, .F. ) ;
#511 = DIRECTION ( 'NONE',  ( 0.9938370308809506559, 0.000000000000000000, 0.1108510534444137469 ) ) ;
#512 = ADVANCED_FACE ( 'NONE', ( #795, #527 ), #583, .F. ) ;
#513 = DIRECTION ( 'NONE',  ( 1.000000000000000000, 0.000000000000000000, 0.000000000000000000 ) ) ;
#514 = COLOUR_RGB ( '',0.7764705882352941346, 0.7568627450980391913, 0.7372549019607843590 ) ;
#515 = CARTESIAN_POINT ( 'NONE',  ( 0.000000000000000000, -1.959999999999999964, 0.4349999999999996092 ) ) ;
#516 = STYLED_ITEM ( 'NONE', ( #101 ), #363 ) ;
#517 =( GEOMETRIC_REPRESENTATION_CONTEXT ( 3 ) GLOBAL_UNCERTAINTY_ASSIGNED_CONTEXT ( ( #276 ) ) GLOBAL_UNIT_ASSIGNED_CONTEXT ( ( #35, #396, #284 ) ) REPRESENTATION_CONTEXT ( 'NONE', 'WORKASPACE' ) );
#518 = SURFACE_STYLE_USAGE ( .BOTH. , #731 ) ;
#519 = PLANE ( 'NONE',  #80 ) ;
#520 = AXIS2_PLACEMENT_3D ( 'NONE', #987, #192, #366 ) ;
#521 =( LENGTH_UNIT ( ) NAMED_UNIT ( * ) SI_UNIT ( .MILLI., .METRE. ) );
#522 = COLOUR_RGB ( '',0.7764705882352941346, 0.7568627450980391913, 0.7372549019607843590 ) ;
#523 = VERTEX_POINT ( 'NONE', #728 ) ;
#524 = CARTESIAN_POINT ( 'NONE',  ( 5.974195292295553905, 2.375629221075779134E-16, 0.2313525518329657416 ) ) ;
#525 = ADVANCED_FACE ( 'NONE', ( #355 ), #44, .T. ) ;
#526 = DIRECTION ( 'NONE',  ( -0.1108510534444136914, 0.9938370308809506559, 3.595744332370143968E-15 ) ) ;
#527 = FACE_BOUND ( 'NONE', #349, .T. ) ;
#528 = CARTESIAN_POINT ( 'NONE',  ( 1.347043950347265318, 0.000000000000000000, 0.000000000000000000 ) ) ;
#529 = SURFACE_SIDE_STYLE ('',( #454 ) ) ;
#530 = DIRECTION ( 'NONE',  ( 0.7431005017819711789, -0.08288428673722218754, 0.6640269868487610472 ) ) ;
#531 =( NAMED_UNIT ( * ) PLANE_ANGLE_UNIT ( ) SI_UNIT ( $, .RADIAN. ) );
#532 =( GEOMETRIC_REPRESENTATION_CONTEXT ( 3 ) GLOBAL_UNCERTAINTY_ASSIGNED_CONTEXT ( ( #266 ) ) GLOBAL_UNIT_ASSIGNED_CONTEXT ( ( #358, #652, #339 ) ) REPRESENTATION_CONTEXT ( 'NONE', 'WORKASPACE' ) );
#533 = ORIENTED_EDGE ( 'NONE', *, *, #271, .T. ) ;
#534 = COLOUR_RGB ( '',0.7764705882352941346, 0.7568627450980391913, 0.7372549019607843590 ) ;
#535 = CARTESIAN_POINT ( 'NONE',  ( 4.309938594911940868, -1.891316923914901471, 0.000000000000000000 ) ) ;
#536 = CARTESIAN_POINT ( 'NONE',  ( 2.599999999999998312, 0.000000000000000000, 0.000000000000000000 ) ) ;
#537 = CARTESIAN_POINT ( 'NONE',  ( 2.599999999999998312, 4.286263797015736595E-16, -3.500000000000000000 ) ) ;
#538 = VERTEX_POINT ( 'NONE', #200 ) ;
#539 = LINE ( 'NONE', #305, #975 ) ;
#540 = ORIENTED_EDGE ( 'NONE', *, *, #405, .T. ) ;
#541 = DIRECTION ( 'NONE',  ( 0.000000000000000000, 0.000000000000000000, 1.000000000000000000 ) ) ;
#542 = DIRECTION ( 'NONE',  ( 0.6663196743247736809, -2.603479645215216163E-15, 0.7456662065614397816 ) ) ;
#543 = ORIENTED_EDGE ( 'NONE', *, *, #56, .F. ) ;
#544 = LINE ( 'NONE', #755, #948 ) ;
#545 =( NAMED_UNIT ( * ) PLANE_ANGLE_UNIT ( ) SI_UNIT ( $, .RADIAN. ) );
#546 = AXIS2_PLACEMENT_3D ( 'NONE', #182, #792, #964 ) ;
#547 = ORIENTED_EDGE ( 'NONE', *, *, #164, .T. ) ;
#548 = CIRCLE ( 'NONE', #661, 6.000000000000000000 ) ;
#549 = PRESENTATION_LAYER_ASSIGNMENT (  '', '', ( #800 ) ) ;
#550 = FILL_AREA_STYLE ('',( #490 ) ) ;
#551 = MECHANICAL_DESIGN_GEOMETRIC_PRESENTATION_REPRESENTATION (  '', ( #1001 ), #250 ) ;
#552 = SURFACE_STYLE_USAGE ( .BOTH. , #924 ) ;
#553 = EDGE_LOOP ( 'NONE', ( #807, #395, #636, #700 ) ) ;
#554 = DIRECTION ( 'NONE',  ( -0.1108510534444137469, -0.9938370308809506559, -3.448999966305766196E-15 ) ) ;
#555 = ORIENTED_EDGE ( 'NONE', *, *, #69, .F. ) ;
#556 =( NAMED_UNIT ( * ) SI_UNIT ( $, .STERADIAN. ) SOLID_ANGLE_UNIT ( ) );
#557 = CARTESIAN_POINT ( 'NONE',  ( 0.9968214519863044520, 3.311827956989247479, 0.000000000000000000 ) ) ;
#558 = LINE ( 'NONE', #412, #314 ) ;
#559 = FILL_AREA_STYLE_COLOUR ( '', #387 ) ;
#560 =( NAMED_UNIT ( * ) PLANE_ANGLE_UNIT ( ) SI_UNIT ( $, .RADIAN. ) );
#561 =( LENGTH_UNIT ( ) NAMED_UNIT ( * ) SI_UNIT ( .MILLI., .METRE. ) );
#562 = PRODUCT ( 'M3.5 x 25 Screw head', 'M3.5 x 25 Screw head', '', ( #680 ) ) ;
#563 = MECHANICAL_DESIGN_GEOMETRIC_PRESENTATION_REPRESENTATION (  '', ( #889 ), #649 ) ;
#564 = CIRCLE ( 'NONE', #875, 5.437518987584764929 ) ;
#565 = ORIENTED_EDGE ( 'NONE', *, *, #657, .F. ) ;
#566 =( GEOMETRIC_REPRESENTATION_CONTEXT ( 3 ) GLOBAL_UNCERTAINTY_ASSIGNED_CONTEXT ( ( #432 ) ) GLOBAL_UNIT_ASSIGNED_CONTEXT ( ( #274, #881, #451 ) ) REPRESENTATION_CONTEXT ( 'NONE', 'WORKASPACE' ) );
#567 = CIRCLE ( 'NONE', #627, 1.749999999999999778 ) ;
#568 = CYLINDRICAL_SURFACE ( 'NONE', #580, 1.749999999999999778 ) ;
#569 = VERTEX_POINT ( 'NONE', #973 ) ;
#570 = SURFACE_STYLE_USAGE ( .BOTH. , #167 ) ;
#571 = SURFACE_STYLE_USAGE ( .BOTH. , #404 ) ;
#572 = LINE ( 'NONE', #946, #1014 ) ;
#573 = EDGE_CURVE ( 'NONE', #645, #1003, #282, .T. ) ;
#574 = DIRECTION ( 'NONE',  ( -0.9938370308809506559, 0.000000000000000000, 0.1108510534444136914 ) ) ;
#575 = UNCERTAINTY_MEASURE_WITH_UNIT (LENGTH_MEASURE( 1.000000000000000082E-05 ), #780, 'distance_accuracy_value', 'NONE');
#576 = SURFACE_SIDE_STYLE ('',( #109 ) ) ;
#577 = VECTOR ( 'NONE', #487, 1000.000000000000000 ) ;
#578 = EDGE_CURVE ( 'NONE', #634, #456, #390, .T. ) ;
#579 = ORIENTED_EDGE ( 'NONE', *, *, #34, .F. ) ;
#580 = AXIS2_PLACEMENT_3D ( 'NONE', #17, #28, #433 ) ;
#581 = CIRCLE ( 'NONE', #113, 5.995482475482741158 ) ;
#582 = PRESENTATION_LAYER_ASSIGNMENT (  '', '', ( #370 ) ) ;
#583 = PLANE ( 'NONE',  #520 ) ;
#584 = EDGE_CURVE ( 'NONE', #365, #263, #581, .T. ) ;
#585 = UNCERTAINTY_MEASURE_WITH_UNIT (LENGTH_MEASURE( 1.000000000000000082E-05 ), #203, 'distance_accuracy_value', 'NONE');
#586 = CARTESIAN_POINT ( 'NONE',  ( 5.974195292295553905, -0.2313525518329657138, -8.028830871489587498E-16 ) ) ;
#587 = PRESENTATION_STYLE_ASSIGNMENT (( #660 ) ) ;
#588 = DIRECTION ( 'NONE',  ( 0.000000000000000000, -1.000000000000000000, 0.000000000000000000 ) ) ;
#589 = FILL_AREA_STYLE ('',( #446 ) ) ;
#590 = DIRECTION ( 'NONE',  ( 0.000000000000000000, 0.000000000000000000, -1.000000000000000000 ) ) ;
#591 = AXIS2_PLACEMENT_3D ( 'NONE', #195, #721, #715 ) ;
#592 =( GEOMETRIC_REPRESENTATION_CONTEXT ( 3 ) GLOBAL_UNCERTAINTY_ASSIGNED_CONTEXT ( ( #603 ) ) GLOBAL_UNIT_ASSIGNED_CONTEXT ( ( #869, #498, #329 ) ) REPRESENTATION_CONTEXT ( 'NONE', 'WORKASPACE' ) );
#593 = FILL_AREA_STYLE ('',( #354 ) ) ;
#594 = EDGE_CURVE ( 'NONE', #701, #569, #980, .T. ) ;
#595 = AXIS2_PLACEMENT_3D ( 'NONE', #431, #108, #511 ) ;
#596 = AXIS2_PLACEMENT_3D ( 'NONE', #907, #391, #816 ) ;
#597 = DIRECTION ( 'NONE',  ( -1.000000000000000000, -0.000000000000000000, -0.000000000000000000 ) ) ;
#598 = DIRECTION ( 'NONE',  ( 0.7456662065614396706, 0.6663196743247736809, 0.000000000000000000 ) ) ;
#599 = CARTESIAN_POINT ( 'NONE',  ( 0.03111693966988560850, -0.4315292644214371864, 0.4315292644214354101 ) ) ;
#600 = EDGE_CURVE ( 'NONE', #456, #523, #601, .T. ) ;
#601 = LINE ( 'NONE', #900, #426 ) ;
#602 =( NAMED_UNIT ( * ) PLANE_ANGLE_UNIT ( ) SI_UNIT ( $, .RADIAN. ) );
#603 = UNCERTAINTY_MEASURE_WITH_UNIT (LENGTH_MEASURE( 1.000000000000000082E-05 ), #869, 'distance_accuracy_value', 'NONE');
#604 = DIRECTION ( 'NONE',  ( 0.000000000000000000, 0.000000000000000000, 1.000000000000000000 ) ) ;
#605 = DIRECTION ( 'NONE',  ( 0.6663196743247736809, 0.7456662065614397816, 0.000000000000000000 ) ) ;
#606 = ORIENTED_EDGE ( 'NONE', *, *, #157, .T. ) ;
#607 = DIRECTION ( 'NONE',  ( -0.7456662065614396706, 0.6663196743247736809, 0.000000000000000000 ) ) ;
#608 = SURFACE_SIDE_STYLE ('',( #911 ) ) ;
#609 = MECHANICAL_DESIGN_GEOMETRIC_PRESENTATION_REPRESENTATION (  '', ( #38 ), #691 ) ;
#610 = ORIENTED_EDGE ( 'NONE', *, *, #985, .F. ) ;
#611 = MECHANICAL_DESIGN_GEOMETRIC_PRESENTATION_REPRESENTATION (  '', ( #443 ), #166 ) ;
#612 = MECHANICAL_DESIGN_GEOMETRIC_PRESENTATION_REPRESENTATION (  '', ( #823 ), #862 ) ;
#613 = EDGE_CURVE ( 'NONE', #144, #645, #544, .T. ) ;
#614 = DIRECTION ( 'NONE',  ( 0.000000000000000000, 0.000000000000000000, -1.000000000000000000 ) ) ;
#615 = ORIENTED_EDGE ( 'NONE', *, *, #833, .T. ) ;
#616 = DIRECTION ( 'NONE',  ( 0.9877866216249069353, 0.1101762001043169042, -0.1101762001043164879 ) ) ;
#617 = CARTESIAN_POINT ( 'NONE',  ( 2.599999999999998312, 0.000000000000000000, 3.500000000000000000 ) ) ;
#618 = SURFACE_STYLE_FILL_AREA ( #308 ) ;
#619 = ORIENTED_EDGE ( 'NONE', *, *, #157, .F. ) ;
#620 = UNCERTAINTY_MEASURE_WITH_UNIT (LENGTH_MEASURE( 1.000000000000000082E-05 ), #463, 'distance_accuracy_value', 'NONE');
#621 = DIRECTION ( 'NONE',  ( -1.000000000000000000, -0.000000000000000000, -0.000000000000000000 ) ) ;
#622 = CARTESIAN_POINT ( 'NONE',  ( 27.60000000000000142, 2.143131898507868051E-16, -1.749999999999999778 ) ) ;
#623 = PRESENTATION_LAYER_ASSIGNMENT (  '', '', ( #94 ) ) ;
#624 = ORIENTED_EDGE ( 'NONE', *, *, #140, .T. ) ;
#625 = EDGE_CURVE ( 'NONE', #263, #569, #539, .T. ) ;
#626 = MECHANICAL_DESIGN_GEOMETRIC_PRESENTATION_REPRESENTATION (  '', ( #473 ), #592 ) ;
#627 = AXIS2_PLACEMENT_3D ( 'NONE', #751, #837, #928 ) ;
#628 = COLOUR_RGB ( '',0.7764705882352941346, 0.7568627450980391913, 0.7372549019607843590 ) ;
#629 = VERTEX_POINT ( 'NONE', #921 ) ;
#630 = ADVANCED_FACE ( 'NONE', ( #693 ), #71, .T. ) ;
#631 = APPLICATION_PROTOCOL_DEFINITION ( 'draft international standard', 'automotive_design', 1998, #90 ) ;
#632 = DIRECTION ( 'NONE',  ( -0.9877866216249070463, 0.1101762001043161965, 0.1101762001043165434 ) ) ;
#633 = FILL_AREA_STYLE ('',( #714 ) ) ;
#634 = VERTEX_POINT ( 'NONE', #965 ) ;
#635 = LINE ( 'NONE', #493, #994 ) ;
#636 = ORIENTED_EDGE ( 'NONE', *, *, #594, .F. ) ;
#637 =( GEOMETRIC_REPRESENTATION_CONTEXT ( 3 ) GLOBAL_UNCERTAINTY_ASSIGNED_CONTEXT ( ( #175 ) ) GLOBAL_UNIT_ASSIGNED_CONTEXT ( ( #82, #941, #87 ) ) REPRESENTATION_CONTEXT ( 'NONE', 'WORKASPACE' ) );
#638 = ORIENTED_EDGE ( 'NONE', *, *, #105, .T. ) ;
#639 = ADVANCED_FACE ( 'NONE', ( #887 ), #519, .T. ) ;
#640 =( GEOMETRIC_REPRESENTATION_CONTEXT ( 3 ) GLOBAL_UNCERTAINTY_ASSIGNED_CONTEXT ( ( #185 ) ) GLOBAL_UNIT_ASSIGNED_CONTEXT ( ( #63, #531, #739 ) ) REPRESENTATION_CONTEXT ( 'NONE', 'WORKASPACE' ) );
#641 = CARTESIAN_POINT ( 'NONE',  ( 0.2553644383338094515, 1.731808957027352269, 0.000000000000000000 ) ) ;
#642 = CARTESIAN_POINT ( 'NONE',  ( 1.347043950347263763, 0.000000000000000000, 0.000000000000000000 ) ) ;
#643 = EDGE_LOOP ( 'NONE', ( #256, #741, #565, #243, #220 ) ) ;
#644 = ORIENTED_EDGE ( 'NONE', *, *, #169, .F. ) ;
#645 = VERTEX_POINT ( 'NONE', #124 ) ;
#646 = PRESENTATION_STYLE_ASSIGNMENT (( #269 ) ) ;
#647 =( NAMED_UNIT ( * ) PLANE_ANGLE_UNIT ( ) SI_UNIT ( $, .RADIAN. ) );
#648 = CARTESIAN_POINT ( 'NONE',  ( 0.000000000000000000, 1.959999999999999964, 0.4350000000000001088 ) ) ;
#649 =( GEOMETRIC_REPRESENTATION_CONTEXT ( 3 ) GLOBAL_UNCERTAINTY_ASSIGNED_CONTEXT ( ( #255 ) ) GLOBAL_UNIT_ASSIGNED_CONTEXT ( ( #464, #48, #830 ) ) REPRESENTATION_CONTEXT ( 'NONE', 'WORKASPACE' ) );
#650 = AXIS2_PLACEMENT_3D ( 'NONE', #668, #542, #827 ) ;
#651 = FILL_AREA_STYLE_COLOUR ( '', #697 ) ;
#652 =( NAMED_UNIT ( * ) PLANE_ANGLE_UNIT ( ) SI_UNIT ( $, .RADIAN. ) );
#653 = DIRECTION ( 'NONE',  ( -0.1108510534444136914, 0.9938370308809506559, 3.595744332370143968E-15 ) ) ;
#654 = UNCERTAINTY_MEASURE_WITH_UNIT (LENGTH_MEASURE( 1.000000000000000082E-05 ), #655, 'distance_accuracy_value', 'NONE');
#655 =( LENGTH_UNIT ( ) NAMED_UNIT ( * ) SI_UNIT ( .MILLI., .METRE. ) );
#656 = DIRECTION ( 'NONE',  ( 0.7431005017819711789, 0.6640269868487613802, 0.08288428673721986994 ) ) ;
#657 = EDGE_CURVE ( 'NONE', #150, #701, #346, .T. ) ;
#658 = CARTESIAN_POINT ( 'NONE',  ( 1.347043950347265318, 0.000000000000000000, 0.000000000000000000 ) ) ;
#659 = ORIENTED_EDGE ( 'NONE', *, *, #467, .F. ) ;
#660 = SURFACE_STYLE_USAGE ( .BOTH. , #813 ) ;
#661 = AXIS2_PLACEMENT_3D ( 'NONE', #156, #403, #855 ) ;
#662 = UNCERTAINTY_MEASURE_WITH_UNIT (LENGTH_MEASURE( 1.000000000000000082E-05 ), #177, 'distance_accuracy_value', 'NONE');
#663 = EDGE_CURVE ( 'NONE', #54, #760, #356, .T. ) ;
#664 = DIRECTION ( 'NONE',  ( -0.9938370308809507669, 0.000000000000000000, 0.1108510534444137052 ) ) ;
#665 = CIRCLE ( 'NONE', #26, 5.437518987584765817 ) ;
#666 = DIRECTION ( 'NONE',  ( 0.6663196743247735698, -0.7456662065614397816, -9.292562311528023527E-17 ) ) ;
#667 = CARTESIAN_POINT ( 'NONE',  ( 0.000000000000000000, 0.4350000000000068257, -1.959999999999998188 ) ) ;
#668 = CARTESIAN_POINT ( 'NONE',  ( 4.309938594911940868, 6.836180637525074799E-15, -1.891316923914901693 ) ) ;
#669 = ORIENTED_EDGE ( 'NONE', *, *, #578, .F. ) ;
#670 = DIRECTION ( 'NONE',  ( -0.9938370308809506559, -0.1108510534444136914, -3.870343844922732447E-16 ) ) ;
#671 = VERTEX_POINT ( 'NONE', #537 ) ;
#672 = EDGE_CURVE ( 'NONE', #144, #687, #567, .T. ) ;
#673 = SURFACE_SIDE_STYLE ('',( #51 ) ) ;
#674 =( NAMED_UNIT ( * ) SI_UNIT ( $, .STERADIAN. ) SOLID_ANGLE_UNIT ( ) );
#675 = FILL_AREA_STYLE_COLOUR ( '', #719 ) ;
#676 = PLANE ( 'NONE',  #1019 ) ;
#677 = AXIS2_PLACEMENT_3D ( 'NONE', #910, #202, #744 ) ;
#678 = PRESENTATION_LAYER_ASSIGNMENT (  '', '', ( #705 ) ) ;
#679 = ORIENTED_EDGE ( 'NONE', *, *, #584, .T. ) ;
#680 = PRODUCT_CONTEXT ( 'NONE', #90, 'mechanical' ) ;
#681 =( NAMED_UNIT ( * ) PLANE_ANGLE_UNIT ( ) SI_UNIT ( $, .RADIAN. ) );
#682 = CARTESIAN_POINT ( 'NONE',  ( 1.949999999999999956, 0.2174999999999999989, 0.2174999999999999711 ) ) ;
#683 = ORIENTED_EDGE ( 'NONE', *, *, #763, .T. ) ;
#684 =( LENGTH_UNIT ( ) NAMED_UNIT ( * ) SI_UNIT ( .MILLI., .METRE. ) );
#685 = FILL_AREA_STYLE_COLOUR ( '', #909 ) ;
#686 = CARTESIAN_POINT ( 'NONE',  ( 1.949999999999999956, 0.2175000000000007483, -0.2174999999999992772 ) ) ;
#687 = VERTEX_POINT ( 'NONE', #622 ) ;
#688 = FILL_AREA_STYLE ('',( #448 ) ) ;
#689 = CARTESIAN_POINT ( 'NONE',  ( 6.000000000000000000, 2.326828918379972351E-16, 0.000000000000000000 ) ) ;
#690 = EDGE_CURVE ( 'NONE', #54, #701, #831, .T. ) ;
#691 =( GEOMETRIC_REPRESENTATION_CONTEXT ( 3 ) GLOBAL_UNCERTAINTY_ASSIGNED_CONTEXT ( ( #662 ) ) GLOBAL_UNIT_ASSIGNED_CONTEXT ( ( #177, #647, #903 ) ) REPRESENTATION_CONTEXT ( 'NONE', 'WORKASPACE' ) );
#692 = DIRECTION ( 'NONE',  ( 0.6663196743247736809, 2.696405268330496226E-15, -0.7456662065614397816 ) ) ;
#693 = FACE_OUTER_BOUND ( 'NONE', #296, .T. ) ;
#694 = CIRCLE ( 'NONE', #58, 3.311827956989247479 ) ;
#695 = VERTEX_POINT ( 'NONE', #686 ) ;
#696 =( NAMED_UNIT ( * ) PLANE_ANGLE_UNIT ( ) SI_UNIT ( $, .RADIAN. ) );
#697 = COLOUR_RGB ( '',0.7764705882352941346, 0.7568627450980391913, 0.7372549019607843590 ) ;
#698 = FILL_AREA_STYLE ('',( #559 ) ) ;
#699 = SURFACE_STYLE_FILL_AREA ( #868 ) ;
#700 = ORIENTED_EDGE ( 'NONE', *, *, #737, .T. ) ;
#701 = VERTEX_POINT ( 'NONE', #401 ) ;
#702 = EDGE_CURVE ( 'NONE', #342, #695, #295, .T. ) ;
#703 = ORIENTED_EDGE ( 'NONE', *, *, #245, .T. ) ;
#704 = ORIENTED_EDGE ( 'NONE', *, *, #600, .F. ) ;
#705 = STYLED_ITEM ( 'NONE', ( #132 ), #260 ) ;
#706 = ORIENTED_EDGE ( 'NONE', *, *, #86, .F. ) ;
#707 = CIRCLE ( 'NONE', #283, 5.995482475482741158 ) ;
#708 = MECHANICAL_DESIGN_GEOMETRIC_PRESENTATION_REPRESENTATION (  '', ( #99 ), #1020 ) ;
#709 = FILL_AREA_STYLE_COLOUR ( '', #12 ) ;
#710 = DIRECTION ( 'NONE',  ( 0.000000000000000000, 1.000000000000000000, 6.231046968307495628E-17 ) ) ;
#711 = FACE_OUTER_BOUND ( 'NONE', #1012, .T. ) ;
#712 = FILL_AREA_STYLE_COLOUR ( '', #389 ) ;
#713 = EDGE_CURVE ( 'NONE', #311, #150, #740, .T. ) ;
#714 = FILL_AREA_STYLE_COLOUR ( '', #507 ) ;
#715 = DIRECTION ( 'NONE',  ( 0.000000000000000000, 1.000000000000000000, 0.000000000000000000 ) ) ;
#716 = UNCERTAINTY_MEASURE_WITH_UNIT (LENGTH_MEASURE( 1.000000000000000082E-05 ), #561, 'distance_accuracy_value', 'NONE');
#717 = CARTESIAN_POINT ( 'NONE',  ( 6.000000000000000000, 2.326828918379972351E-16, 0.000000000000000000 ) ) ;
#718 = ADVANCED_FACE ( 'NONE', ( #139 ), #676, .T. ) ;
#719 = COLOUR_RGB ( '',0.7764705882352941346, 0.7568627450980391913, 0.7372549019607843590 ) ;
#720 = PRESENTATION_LAYER_ASSIGNMENT (  '', '', ( #958 ) ) ;
#721 = DIRECTION ( 'NONE',  ( -0.000000000000000000, 0.000000000000000000, -1.000000000000000000 ) ) ;
#722 =( GEOMETRIC_REPRESENTATION_CONTEXT ( 3 ) GLOBAL_UNCERTAINTY_ASSIGNED_CONTEXT ( ( #16 ) ) GLOBAL_UNIT_ASSIGNED_CONTEXT ( ( #521, #183, #971 ) ) REPRESENTATION_CONTEXT ( 'NONE', 'WORKASPACE' ) );
#723 = CIRCLE ( 'NONE', #999, 3.500000000000000444 ) ;
#724 = PRESENTATION_STYLE_ASSIGNMENT (( #119 ) ) ;
#725 = DIRECTION ( 'NONE',  ( 0.9938370308809507669, 0.000000000000000000, 0.1108510534444137746 ) ) ;
#726 = ADVANCED_BREP_SHAPE_REPRESENTATION ( 'M3.5 x 25 Screw head', ( #499, #444 ), #878 ) ;
#727 = DIRECTION ( 'NONE',  ( -0.1108510534444136914, 0.9938370308809506559, 3.595744332370143179E-15 ) ) ;
#728 = CARTESIAN_POINT ( 'NONE',  ( 1.949999999999999956, -0.2175000000000000266, -0.2174999999999999989 ) ) ;
#729 = CYLINDRICAL_SURFACE ( 'NONE', #212, 3.500000000000000444 ) ;
#730 = PRESENTATION_STYLE_ASSIGNMENT (( #118 ) ) ;
#731 = SURFACE_SIDE_STYLE ('',( #188 ) ) ;
#732 =( NAMED_UNIT ( * ) SI_UNIT ( $, .STERADIAN. ) SOLID_ANGLE_UNIT ( ) );
#733 = CLOSED_SHELL ( 'NONE', ( #992, #180, #917, #322, #1004, #777, #275, #472, #452, #100, #512, #430, #758, #630, #152, #376, #525, #979, #639, #260, #213, #363, #718 ) ) ;
#734 = CIRCLE ( 'NONE', #858, 5.995482475482741158 ) ;
#735 = SURFACE_SIDE_STYLE ('',( #453 ) ) ;
#736 = CARTESIAN_POINT ( 'NONE',  ( 0.2666411873824114376, 0.4052592521765831513, -1.721732169736484019 ) ) ;
#737 = EDGE_CURVE ( 'NONE', #701, #695, #394, .T. ) ;
#738 = SURFACE_SIDE_STYLE ('',( #53 ) ) ;
#739 =( NAMED_UNIT ( * ) SI_UNIT ( $, .STERADIAN. ) SOLID_ANGLE_UNIT ( ) );
#740 = CIRCLE ( 'NONE', #492, 5.437518987584765817 ) ;
#741 = ORIENTED_EDGE ( 'NONE', *, *, #737, .F. ) ;
#742 = FACE_OUTER_BOUND ( 'NONE', #462, .T. ) ;
#743 = SURFACE_STYLE_USAGE ( .BOTH. , #529 ) ;
#744 = DIRECTION ( 'NONE',  ( -0.7456662065614397816, -2.326442708608981349E-15, 0.6663196743247735698 ) ) ;
#745 = EDGE_CURVE ( 'NONE', #687, #1003, #820, .T. ) ;
#746 = EDGE_LOOP ( 'NONE', ( #341, #747, #936 ) ) ;
#747 = ORIENTED_EDGE ( 'NONE', *, *, #34, .T. ) ;
#748 = PRESENTATION_STYLE_ASSIGNMENT (( #374 ) ) ;
#749 = ORIENTED_EDGE ( 'NONE', *, *, #205, .F. ) ;
#750 = DIRECTION ( 'NONE',  ( 0.6663196743247736809, 0.7456662065614397816, 0.000000000000000000 ) ) ;
#751 = CARTESIAN_POINT ( 'NONE',  ( 27.60000000000000142, 0.000000000000000000, 0.000000000000000000 ) ) ;
#752 = COLOUR_RGB ( '',0.7764705882352941346, 0.7568627450980391913, 0.7372549019607843590 ) ;
#753 = COLOUR_RGB ( '',0.7921568627450980005, 0.8196078431372548767, 0.9333333333333333481 ) ;
#754 = VERTEX_POINT ( 'NONE', #380 ) ;
#755 = CARTESIAN_POINT ( 'NONE',  ( -25.39999999999996305, 0.000000000000000000, 1.749999999999999778 ) ) ;
#756 = AXIS2_PLACEMENT_3D ( 'NONE', #7, #159, #853 ) ;
#757 = AXIS2_PLACEMENT_3D ( 'NONE', #445, #115, #598 ) ;
#758 = ADVANCED_FACE ( 'NONE', ( #919 ), #270, .T. ) ;
#759 = EDGE_LOOP ( 'NONE', ( #679, #880, #141 ) ) ;
#760 = VERTEX_POINT ( 'NONE', #219 ) ;
#761 =( NAMED_UNIT ( * ) SI_UNIT ( $, .STERADIAN. ) SOLID_ANGLE_UNIT ( ) );
#762 = SURFACE_SIDE_STYLE ('',( #815 ) ) ;
#763 = EDGE_CURVE ( 'NONE', #986, #671, #318, .T. ) ;
#764 = DIRECTION ( 'NONE',  ( 0.000000000000000000, 0.000000000000000000, 1.000000000000000000 ) ) ;
#765 = CARTESIAN_POINT ( 'NONE',  ( 0.03111693966988560850, 0.4315292644214372975, -0.4315292644214357431 ) ) ;
#766 = SURFACE_SIDE_STYLE ('',( #699 ) ) ;
#767 = SURFACE_SIDE_STYLE ('',( #991 ) ) ;
#768 = CARTESIAN_POINT ( 'NONE',  ( 0.2666411873824114376, -1.721732169736485796, 0.4052592521765768785 ) ) ;
#769 = SURFACE_STYLE_FILL_AREA ( #550 ) ;
#770 = FILL_AREA_STYLE_COLOUR ( '', #752 ) ;
#771 = SURFACE_STYLE_FILL_AREA ( #486 ) ;
#772 = DIRECTION ( 'NONE',  ( -1.000000000000000000, -0.000000000000000000, -0.000000000000000000 ) ) ;
#773 =( GEOMETRIC_REPRESENTATION_CONTEXT ( 3 ) GLOBAL_UNCERTAINTY_ASSIGNED_CONTEXT ( ( #972 ) ) GLOBAL_UNIT_ASSIGNED_CONTEXT ( ( #257, #170, #1025 ) ) REPRESENTATION_CONTEXT ( 'NONE', 'WORKASPACE' ) );
#774 = PRESENTATION_LAYER_ASSIGNMENT (  '', '', ( #64 ) ) ;
#775 = PRESENTATION_LAYER_ASSIGNMENT (  '', '', ( #99 ) ) ;
#776 = SURFACE_STYLE_FILL_AREA ( #1011 ) ;
#777 = ADVANCED_FACE ( 'NONE', ( #951 ), #254, .T. ) ;
#778 = CARTESIAN_POINT ( 'NONE',  ( 27.60000000000000142, 0.000000000000000000, 0.000000000000000000 ) ) ;
#779 = ORIENTED_EDGE ( 'NONE', *, *, #885, .F. ) ;
#780 =( LENGTH_UNIT ( ) NAMED_UNIT ( * ) SI_UNIT ( .MILLI., .METRE. ) );
#781 = ORIENTED_EDGE ( 'NONE', *, *, #967, .F. ) ;
#782 = ORIENTED_EDGE ( 'NONE', *, *, #857, .F. ) ;
#783 = FACE_OUTER_BOUND ( 'NONE', #497, .T. ) ;
#784 = ORIENTED_EDGE ( 'NONE', *, *, #164, .F. ) ;
#785 = COLOUR_RGB ( '',0.7764705882352941346, 0.7568627450980391913, 0.7372549019607843590 ) ;
#786 = CIRCLE ( 'NONE', #268, 1.749999999999999778 ) ;
#787 = AXIS2_PLACEMENT_3D ( 'NONE', #829, #280, #590 ) ;
#788 = SURFACE_STYLE_FILL_AREA ( #870 ) ;
#789 = FACE_OUTER_BOUND ( 'NONE', #477, .T. ) ;
#790 = ORIENTED_EDGE ( 'NONE', *, *, #140, .F. ) ;
#791 = CYLINDRICAL_SURFACE ( 'NONE', #596, 1.749999999999999778 ) ;
#792 = DIRECTION ( 'NONE',  ( -0.1108510534444137469, -0.9938370308809506559, -3.448999966305766196E-15 ) ) ;
#793 = CARTESIAN_POINT ( 'NONE',  ( 5.974195292295553905, 2.619630734554813543E-16, -0.2313525518329656583 ) ) ;
#794 = DIRECTION ( 'NONE',  ( 0.7431005017819711789, 0.6640269868487613802, -0.08288428673721975892 ) ) ;
#795 = FACE_OUTER_BOUND ( 'NONE', #328, .T. ) ;
#796 = AXIS2_PLACEMENT_3D ( 'NONE', #717, #353, #513 ) ;
#797 = CIRCLE ( 'NONE', #351, 3.311827956989247479 ) ;
#798 = MECHANICAL_DESIGN_GEOMETRIC_PRESENTATION_REPRESENTATION (  '', ( #705 ), #211 ) ;
#799 = SURFACE_SIDE_STYLE ('',( #788 ) ) ;
#800 = STYLED_ITEM ( 'NONE', ( #22 ), #639 ) ;
#801 = CARTESIAN_POINT ( 'NONE',  ( 27.60000000000000142, 0.000000000000000000, 1.749999999999999778 ) ) ;
#802 = SURFACE_STYLE_FILL_AREA ( #593 ) ;
#803 = FILL_AREA_STYLE ('',( #196 ) ) ;
#804 = UNCERTAINTY_MEASURE_WITH_UNIT (LENGTH_MEASURE( 1.000000000000000082E-05 ), #227, 'distance_accuracy_value', 'NONE');
#805 = DIRECTION ( 'NONE',  ( 0.9938370308809507669, 0.000000000000000000, 0.1108510534444137746 ) ) ;
#806 =( NAMED_UNIT ( * ) PLANE_ANGLE_UNIT ( ) SI_UNIT ( $, .RADIAN. ) );
#807 = ORIENTED_EDGE ( 'NONE', *, *, #93, .F. ) ;
#808 = DIRECTION ( 'NONE',  ( -1.000000000000000000, -0.000000000000000000, -0.000000000000000000 ) ) ;
#809 = SURFACE_STYLE_USAGE ( .BOTH. , #1021 ) ;
#810 =( NAMED_UNIT ( * ) SI_UNIT ( $, .STERADIAN. ) SOLID_ANGLE_UNIT ( ) );
#811 = CARTESIAN_POINT ( 'NONE',  ( 2.193400286944045430, 0.1903515064562410486, 2.309278636184420884E-16 ) ) ;
#812 = ORIENTED_EDGE ( 'NONE', *, *, #232, .T. ) ;
#813 = SURFACE_SIDE_STYLE ('',( #966 ) ) ;
#814 = MECHANICAL_DESIGN_GEOMETRIC_PRESENTATION_REPRESENTATION (  '', ( #423 ), #174 ) ;
#815 = SURFACE_STYLE_FILL_AREA ( #688 ) ;
#816 = DIRECTION ( 'NONE',  ( 0.000000000000000000, 0.000000000000000000, 1.000000000000000000 ) ) ;
#817 = AXIS2_PLACEMENT_3D ( 'NONE', #496, #327, #950 ) ;
#818 = PRESENTATION_LAYER_ASSIGNMENT (  '', '', ( #165 ) ) ;
#819 = DIRECTION ( 'NONE',  ( -1.000000000000000000, -0.000000000000000000, -0.000000000000000000 ) ) ;
#820 = LINE ( 'NONE', #133, #193 ) ;
#821 = CIRCLE ( 'NONE', #410, 0.4199999999999998179 ) ;
#822 = ORIENTED_EDGE ( 'NONE', *, *, #851, .T. ) ;
#823 = STYLED_ITEM ( 'NONE', ( #66 ), #726 ) ;
#824 = ORIENTED_EDGE ( 'NONE', *, *, #18, .F. ) ;
#825 = FILL_AREA_STYLE ('',( #142 ) ) ;
#826 = CARTESIAN_POINT ( 'NONE',  ( 0.9968214519863044520, 0.000000000000000000, 0.000000000000000000 ) ) ;
#827 = DIRECTION ( 'NONE',  ( 0.7456662065614395596, 0.000000000000000000, -0.6663196743247737919 ) ) ;
#828 = EDGE_LOOP ( 'NONE', ( #209, #1007, #547, #199, #3, #1000, #619, #916, #920, #402, #252 ) ) ;
#829 = CARTESIAN_POINT ( 'NONE',  ( 27.59999999999999787, 1.749999999999999778, 0.000000000000000000 ) ) ;
#830 =( NAMED_UNIT ( * ) SI_UNIT ( $, .STERADIAN. ) SOLID_ANGLE_UNIT ( ) );
#831 = LINE ( 'NONE', #375, #249 ) ;
#832 = ORIENTED_EDGE ( 'NONE', *, *, #485, .T. ) ;
#833 = EDGE_CURVE ( 'NONE', #754, #634, #707, .T. ) ;
#834 = DIRECTION ( 'NONE',  ( 0.000000000000000000, 0.000000000000000000, 1.000000000000000000 ) ) ;
#835 = COLOUR_RGB ( '',0.7764705882352941346, 0.7568627450980391913, 0.7372549019607843590 ) ;
#836 = PLANE ( 'NONE',  #1016 ) ;
#837 = DIRECTION ( 'NONE',  ( -1.000000000000000000, -0.000000000000000000, -0.000000000000000000 ) ) ;
#838 =( GEOMETRIC_REPRESENTATION_CONTEXT ( 3 ) GLOBAL_UNCERTAINTY_ASSIGNED_CONTEXT ( ( #501 ) ) GLOBAL_UNIT_ASSIGNED_CONTEXT ( ( #1013, #696, #844 ) ) REPRESENTATION_CONTEXT ( 'NONE', 'WORKASPACE' ) );
#839 = VECTOR ( 'NONE', #361, 1000.000000000000000 ) ;
#840 = EDGE_LOOP ( 'NONE', ( #43, #931, #822, #824, #68 ) ) ;
#841 = VECTOR ( 'NONE', #989, 1000.000000000000000 ) ;
#842 = CARTESIAN_POINT ( 'NONE',  ( 0.000000000000000000, 0.000000000000000000, 0.000000000000000000 ) ) ;
#843 = STYLED_ITEM ( 'NONE', ( #47 ), #992 ) ;
#844 =( NAMED_UNIT ( * ) SI_UNIT ( $, .STERADIAN. ) SOLID_ANGLE_UNIT ( ) );
#845 = UNCERTAINTY_MEASURE_WITH_UNIT (LENGTH_MEASURE( 1.000000000000000082E-05 ), #300, 'distance_accuracy_value', 'NONE');
#846 = CARTESIAN_POINT ( 'NONE',  ( 2.214116351126373505, 0.1880408685282115300, 0.1880408685282121406 ) ) ;
#847 = PRESENTATION_STYLE_ASSIGNMENT (( #552 ) ) ;
#848 = CARTESIAN_POINT ( 'NONE',  ( 1.347043950347265318, 0.000000000000000000, 3.500000000000000444 ) ) ;
#849 = PLANE ( 'NONE',  #112 ) ;
#850 = ORIENTED_EDGE ( 'NONE', *, *, #23, .T. ) ;
#851 = EDGE_CURVE ( 'NONE', #29, #866, #821, .T. ) ;
#852 =( NAMED_UNIT ( * ) PLANE_ANGLE_UNIT ( ) SI_UNIT ( $, .RADIAN. ) );
#853 = DIRECTION ( 'NONE',  ( 0.000000000000000000, 0.000000000000000000, 1.000000000000000000 ) ) ;
#854 = CARTESIAN_POINT ( 'NONE',  ( 1.949999999999999956, -0.2175000000000000266, -0.2174999999999999989 ) ) ;
#855 = DIRECTION ( 'NONE',  ( 0.000000000000000000, 1.000000000000000000, 1.224646799147353207E-16 ) ) ;
#856 = EDGE_LOOP ( 'NONE', ( #466, #218, #428, #784, #97 ) ) ;
#857 = EDGE_CURVE ( 'NONE', #29, #65, #723, .T. ) ;
#858 = AXIS2_PLACEMENT_3D ( 'NONE', #173, #70, #248 ) ;
#859 = CARTESIAN_POINT ( 'NONE',  ( 2.214116351126373505, -0.1880408685282114467, -0.1880408685282121684 ) ) ;
#860 = AXIS2_PLACEMENT_3D ( 'NONE', #111, #808, #292 ) ;
#861 = ORIENTED_EDGE ( 'NONE', *, *, #578, .T. ) ;
#862 =( GEOMETRIC_REPRESENTATION_CONTEXT ( 3 ) GLOBAL_UNCERTAINTY_ASSIGNED_CONTEXT ( ( #5 ) ) GLOBAL_UNIT_ASSIGNED_CONTEXT ( ( #45, #468, #293 ) ) REPRESENTATION_CONTEXT ( 'NONE', 'WORKASPACE' ) );
#863 = SURFACE_STYLE_FILL_AREA ( #698 ) ;
#864 =( NAMED_UNIT ( * ) PLANE_ANGLE_UNIT ( ) SI_UNIT ( $, .RADIAN. ) );
#865 = DIRECTION ( 'NONE',  ( 0.000000000000000000, 0.000000000000000000, 1.000000000000000000 ) ) ;
#866 = VERTEX_POINT ( 'NONE', #968 ) ;
#867 = UNCERTAINTY_MEASURE_WITH_UNIT (LENGTH_MEASURE( 1.000000000000000082E-05 ), #983, 'distance_accuracy_value', 'NONE');
#868 = FILL_AREA_STYLE ('',( #482 ) ) ;
#869 =( LENGTH_UNIT ( ) NAMED_UNIT ( * ) SI_UNIT ( .MILLI., .METRE. ) );
#870 = FILL_AREA_STYLE ('',( #712 ) ) ;
#871 = DIRECTION ( 'NONE',  ( -1.000000000000000000, -0.000000000000000000, -0.000000000000000000 ) ) ;
#872 =( NAMED_UNIT ( * ) SI_UNIT ( $, .STERADIAN. ) SOLID_ANGLE_UNIT ( ) );
#873 = AXIS2_PLACEMENT_3D ( 'NONE', #95, #953, #954 ) ;
#874 = PRESENTATION_LAYER_ASSIGNMENT (  '', '', ( #38 ) ) ;
#875 = AXIS2_PLACEMENT_3D ( 'NONE', #104, #435, #20 ) ;
#876 = PRODUCT_DEFINITION ( 'UNKNOWN', '', #114, #995 ) ;
#877 = EDGE_LOOP ( 'NONE', ( #615, #706, #610 ) ) ;
#878 =( GEOMETRIC_REPRESENTATION_CONTEXT ( 3 ) GLOBAL_UNCERTAINTY_ASSIGNED_CONTEXT ( ( #575 ) ) GLOBAL_UNIT_ASSIGNED_CONTEXT ( ( #780, #332, #556 ) ) REPRESENTATION_CONTEXT ( 'NONE', 'WORKASPACE' ) );
#879 = DIRECTION ( 'NONE',  ( -0.1108510534444137469, 2.096348086633972484E-17, 0.9938370308809506559 ) ) ;
#880 = ORIENTED_EDGE ( 'NONE', *, *, #625, .T. ) ;
#881 =( NAMED_UNIT ( * ) PLANE_ANGLE_UNIT ( ) SI_UNIT ( $, .RADIAN. ) );
#882 = CARTESIAN_POINT ( 'NONE',  ( 1.347043950347263763, 0.000000000000000000, 3.080000000000000515 ) ) ;
#883 = FACE_OUTER_BOUND ( 'NONE', #643, .T. ) ;
#884 =( LENGTH_UNIT ( ) NAMED_UNIT ( * ) SI_UNIT ( .MILLI., .METRE. ) );
#885 = EDGE_CURVE ( 'NONE', #381, #456, #149, .T. ) ;
#886 = FILL_AREA_STYLE ('',( #277 ) ) ;
#887 = FACE_OUTER_BOUND ( 'NONE', #877, .T. ) ;
#888 = SURFACE_STYLE_USAGE ( .BOTH. , #107 ) ;
#889 = STYLED_ITEM ( 'NONE', ( #748 ), #213 ) ;
#890 = MECHANICAL_DESIGN_GEOMETRIC_PRESENTATION_REPRESENTATION (  '', ( #516 ), #532 ) ;
#891 = MECHANICAL_DESIGN_GEOMETRIC_PRESENTATION_REPRESENTATION (  '', ( #491 ), #637 ) ;
#892 = DIRECTION ( 'NONE',  ( 0.000000000000000000, 0.000000000000000000, 1.000000000000000000 ) ) ;
#893 = PRESENTATION_LAYER_ASSIGNMENT (  '', '', ( #474 ) ) ;
#894 = AXIS2_PLACEMENT_3D ( 'NONE', #469, #1005, #896 ) ;
#895 = CARTESIAN_POINT ( 'NONE',  ( 1.949999999999999956, 0.2174999999999999989, -0.2174999999999999711 ) ) ;
#896 = DIRECTION ( 'NONE',  ( 0.7456662065614397816, -2.326442708608981349E-15, 0.6663196743247735698 ) ) ;
#897 = UNCERTAINTY_MEASURE_WITH_UNIT (LENGTH_MEASURE( 1.000000000000000082E-05 ), #154, 'distance_accuracy_value', 'NONE');
#898 = LINE ( 'NONE', #846, #191 ) ;
#899 = DIRECTION ( 'NONE',  ( -0.9938370308809506559, -0.1108510534444136914, -3.870343844922732447E-16 ) ) ;
#900 = CARTESIAN_POINT ( 'NONE',  ( 0.000000000000000000, -1.959999999999999964, -0.4349999999999999978 ) ) ;
#901 = SURFACE_STYLE_USAGE ( .BOTH. , #735 ) ;
#902 = FILL_AREA_STYLE_COLOUR ( '', #81 ) ;
#903 =( NAMED_UNIT ( * ) SI_UNIT ( $, .STERADIAN. ) SOLID_ANGLE_UNIT ( ) );
#904 = DIRECTION ( 'NONE',  ( 0.7431005017819711789, -0.08288428673721758011, -0.6640269868487616023 ) ) ;
#905 = ORIENTED_EDGE ( 'NONE', *, *, #745, .F. ) ;
#906 = VECTOR ( 'NONE', #530, 1000.000000000000000 ) ;
#907 = CARTESIAN_POINT ( 'NONE',  ( -25.39999999999996305, 0.000000000000000000, 0.000000000000000000 ) ) ;
#908 = PRESENTATION_LAYER_ASSIGNMENT (  '', '', ( #9 ) ) ;
#909 = COLOUR_RGB ( '',0.7764705882352941346, 0.7568627450980391913, 0.7372549019607843590 ) ;
#910 = CARTESIAN_POINT ( 'NONE',  ( 1.949999999999999956, -0.2175000000000006928, 0.2174999999999992495 ) ) ;
#911 = SURFACE_STYLE_FILL_AREA ( #217 ) ;
#912 = MECHANICAL_DESIGN_GEOMETRIC_PRESENTATION_REPRESENTATION (  '', ( #474 ), #25 ) ;
#913 = ORIENTED_EDGE ( 'NONE', *, *, #702, .F. ) ;
#914 = PRESENTATION_LAYER_ASSIGNMENT (  '', '', ( #194 ) ) ;
#915 = FILL_AREA_STYLE_COLOUR ( '', #272 ) ;
#916 = ORIENTED_EDGE ( 'NONE', *, *, #663, .T. ) ;
#917 = ADVANCED_FACE ( 'NONE', ( #506 ), #791, .T. ) ;
#918 = FACE_OUTER_BOUND ( 'NONE', #442, .T. ) ;
#919 = FACE_OUTER_BOUND ( 'NONE', #840, .T. ) ;
#920 = ORIENTED_EDGE ( 'NONE', *, *, #952, .F. ) ;
#921 = CARTESIAN_POINT ( 'NONE',  ( 0.03111693966988647586, 0.4315292644214342443, 0.4315292644214356321 ) ) ;
#922 = FACE_OUTER_BOUND ( 'NONE', #856, .T. ) ;
#923 = LINE ( 'NONE', #667, #906 ) ;
#924 = SURFACE_SIDE_STYLE ('',( #618 ) ) ;
#925 = EDGE_CURVE ( 'NONE', #942, #311, #665, .T. ) ;
#926 = ORIENTED_EDGE ( 'NONE', *, *, #307, .T. ) ;
#927 = CIRCLE ( 'NONE', #796, 6.000000000000000000 ) ;
#928 = DIRECTION ( 'NONE',  ( 0.000000000000000000, 0.000000000000000000, 1.000000000000000000 ) ) ;
#929 = STYLED_ITEM ( 'NONE', ( #84 ), #322 ) ;
#930 = MECHANICAL_DESIGN_GEOMETRIC_PRESENTATION_REPRESENTATION (  '', ( #165 ), #566 ) ;
#931 = ORIENTED_EDGE ( 'NONE', *, *, #424, .T. ) ;
#932 = FILL_AREA_STYLE ('',( #312 ) ) ;
#933 = MECHANICAL_DESIGN_GEOMETRIC_PRESENTATION_REPRESENTATION (  '', ( #370 ), #640 ) ;
#934 = DIRECTION ( 'NONE',  ( 0.7456662065614397816, 0.6663196743247735698, 0.000000000000000000 ) ) ;
#935 = CARTESIAN_POINT ( 'NONE',  ( 1.347043950347263763, 3.771912141373848894E-16, -3.080000000000000515 ) ) ;
#936 = ORIENTED_EDGE ( 'NONE', *, *, #625, .F. ) ;
#937 = DIRECTION ( 'NONE',  ( 0.000000000000000000, 1.000000000000000000, 0.000000000000000000 ) ) ;
#938 =( LENGTH_UNIT ( ) NAMED_UNIT ( * ) SI_UNIT ( .MILLI., .METRE. ) );
#939 = VERTEX_POINT ( 'NONE', #736 ) ;
#940 = ORIENTED_EDGE ( 'NONE', *, *, #690, .T. ) ;
#941 =( NAMED_UNIT ( * ) PLANE_ANGLE_UNIT ( ) SI_UNIT ( $, .RADIAN. ) );
#942 = VERTEX_POINT ( 'NONE', #1010 ) ;
#943 = FACE_OUTER_BOUND ( 'NONE', #67, .T. ) ;
#944 = PRESENTATION_LAYER_ASSIGNMENT (  '', '', ( #423 ) ) ;
#945 = MECHANICAL_DESIGN_GEOMETRIC_PRESENTATION_REPRESENTATION (  '', ( #958 ), #315 ) ;
#946 = CARTESIAN_POINT ( 'NONE',  ( -25.39999999999996305, 0.000000000000000000, 3.500000000000000444 ) ) ;
#947 = PRESENTATION_STYLE_ASSIGNMENT (( #570 ) ) ;
#948 = VECTOR ( 'NONE', #135, 1000.000000000000000 ) ;
#949 = PRESENTATION_LAYER_ASSIGNMENT (  '', '', ( #1001 ) ) ;
#950 = DIRECTION ( 'NONE',  ( 0.9938370308809506559, 0.000000000000000000, 0.1108510534444137469 ) ) ;
#951 = FACE_OUTER_BOUND ( 'NONE', #4, .T. ) ;
#952 = EDGE_CURVE ( 'NONE', #263, #760, #337, .T. ) ;
#953 = DIRECTION ( 'NONE',  ( -1.000000000000000000, -0.000000000000000000, -0.000000000000000000 ) ) ;
#954 = DIRECTION ( 'NONE',  ( 0.000000000000000000, 0.000000000000000000, 1.000000000000000000 ) ) ;
#955 = PLANE ( 'NONE',  #163 ) ;
#956 = AXIS2_PLACEMENT_3D ( 'NONE', #286, #819, #541 ) ;
#957 = CARTESIAN_POINT ( 'NONE',  ( 0.2666411873824114376, -1.721732169736485796, -0.4052592521765772116 ) ) ;
#958 = STYLED_ITEM ( 'NONE', ( #319 ), #275 ) ;
#959 = AXIS2_PLACEMENT_3D ( 'NONE', #178, #429, #434 ) ;
#960 = ORIENTED_EDGE ( 'NONE', *, *, #745, .T. ) ;
#961 = COLOUR_RGB ( '',0.7764705882352941346, 0.7568627450980391913, 0.7372549019607843590 ) ;
#962 = COLOUR_RGB ( '',0.7764705882352941346, 0.7568627450980391913, 0.7372549019607843590 ) ;
#963 = UNCERTAINTY_MEASURE_WITH_UNIT (LENGTH_MEASURE( 1.000000000000000082E-05 ), #684, 'distance_accuracy_value', 'NONE');
#964 = DIRECTION ( 'NONE',  ( 0.9938370308809507669, -0.1108510534444137746, 0.000000000000000000 ) ) ;
#965 = CARTESIAN_POINT ( 'NONE',  ( 0.03111693966988647586, -0.4315292644214340778, -0.4315292644214357987 ) ) ;
#966 = SURFACE_STYLE_FILL_AREA ( #33 ) ;
#967 = EDGE_CURVE ( 'NONE', #942, #695, #988, .T. ) ;
#968 = CARTESIAN_POINT ( 'NONE',  ( 0.9968214519863044520, 0.000000000000000000, 3.311827956989247479 ) ) ;
#969 = DIRECTION ( 'NONE',  ( 0.6663196743247735698, 0.7456662065614397816, 0.000000000000000000 ) ) ;
#970 = ORIENTED_EDGE ( 'NONE', *, *, #702, .T. ) ;
#971 =( NAMED_UNIT ( * ) SI_UNIT ( $, .STERADIAN. ) SOLID_ANGLE_UNIT ( ) );
#972 = UNCERTAINTY_MEASURE_WITH_UNIT (LENGTH_MEASURE( 1.000000000000000082E-05 ), #257, 'distance_accuracy_value', 'NONE');
#973 = CARTESIAN_POINT ( 'NONE',  ( 1.949999999999999956, -0.2175000000000007205, 0.2174999999999993883 ) ) ;
#974 = CIRCLE ( 'NONE', #128, 0.4199999999999998179 ) ;
#975 = VECTOR ( 'NONE', #616, 1000.000000000000114 ) ;
#976 = CARTESIAN_POINT ( 'NONE',  ( 1.949999999999999956, -0.2175000000000000266, -0.2174999999999999711 ) ) ;
#977 =( GEOMETRIC_REPRESENTATION_CONTEXT ( 3 ) GLOBAL_UNCERTAINTY_ASSIGNED_CONTEXT ( ( #963 ) ) GLOBAL_UNIT_ASSIGNED_CONTEXT ( ( #684, #55, #761 ) ) REPRESENTATION_CONTEXT ( 'NONE', 'WORKASPACE' ) );
#978 = MECHANICAL_DESIGN_GEOMETRIC_PRESENTATION_REPRESENTATION (  '', ( #843 ), #393 ) ;
#979 = ADVANCED_FACE ( 'NONE', ( #214 ), #373, .F. ) ;
#980 = LINE ( 'NONE', #288, #839 ) ;
#981 = DIRECTION ( 'NONE',  ( -1.000000000000000000, -0.000000000000000000, -0.000000000000000000 ) ) ;
#982 = CARTESIAN_POINT ( 'NONE',  ( 2.599999999999998312, 2.143131898507868051E-16, -1.749999999999999778 ) ) ;
#983 =( LENGTH_UNIT ( ) NAMED_UNIT ( * ) SI_UNIT ( .MILLI., .METRE. ) );
#984 = FILL_AREA_STYLE_COLOUR ( '', #301 ) ;
#985 = EDGE_CURVE ( 'NONE', #754, #523, #52, .T. ) ;
#986 = VERTEX_POINT ( 'NONE', #617 ) ;
#987 = CARTESIAN_POINT ( 'NONE',  ( 2.600000000000000089, 1.749999999999999778, 0.000000000000000000 ) ) ;
#988 = LINE ( 'NONE', #475, #229 ) ;
#989 = DIRECTION ( 'NONE',  ( 0.7431005017819711789, -0.6640269868487613802, -0.08288428673721992546 ) ) ;
#990 = ORIENTED_EDGE ( 'NONE', *, *, #763, .F. ) ;
#991 = SURFACE_STYLE_FILL_AREA ( #932 ) ;
#992 = ADVANCED_FACE ( 'NONE', ( #922 ), #13, .T. ) ;
#993 = AXIS2_PLACEMENT_3D ( 'NONE', #536, #216, #604 ) ;
#994 = VECTOR ( 'NONE', #334, 1000.000000000000000 ) ;
#995 = PRODUCT_DEFINITION_CONTEXT ( 'detailed design', #190, 'design' ) ;
#996 = STYLED_ITEM ( 'NONE', ( #587 ), #525 ) ;
#997 = FILL_AREA_STYLE ('',( #675 ) ) ;
#998 = CARTESIAN_POINT ( 'NONE',  ( 2.193400286944045430, -0.1903515064562409931, -2.309278636184418912E-16 ) ) ;
#999 = AXIS2_PLACEMENT_3D ( 'NONE', #658, #285, #892 ) ;
#1000 = ORIENTED_EDGE ( 'NONE', *, *, #77, .F. ) ;
#1001 = STYLED_ITEM ( 'NONE', ( #316 ), #1004 ) ;
#1002 = APPLICATION_PROTOCOL_DEFINITION ( 'draft international standard', 'automotive_design', 1998, #190 ) ;
#1003 = VERTEX_POINT ( 'NONE', #982 ) ;
#1004 = ADVANCED_FACE ( 'NONE', ( #484 ), #168, .T. ) ;
#1005 = DIRECTION ( 'NONE',  ( 0.6663196743247735698, 2.696405268330496621E-15, -0.7456662065614397816 ) ) ;
#1006 = FILL_AREA_STYLE_COLOUR ( '', #522 ) ;
#1007 = ORIENTED_EDGE ( 'NONE', *, *, #18, .T. ) ;
#1008 = SHAPE_DEFINITION_REPRESENTATION ( #362, #726 ) ;
#1009 = FILL_AREA_STYLE ('',( #685 ) ) ;
#1010 = CARTESIAN_POINT ( 'NONE',  ( 0.2666411873824114376, 1.721732169736486240, -0.4052592521765773226 ) ) ;
#1011 = FILL_AREA_STYLE ('',( #770 ) ) ;
#1012 = EDGE_LOOP ( 'NONE', ( #377, #533, #239 ) ) ;
#1013 =( LENGTH_UNIT ( ) NAMED_UNIT ( * ) SI_UNIT ( .MILLI., .METRE. ) );
#1014 = VECTOR ( 'NONE', #772, 1000.000000000000000 ) ;
#1015 =( NAMED_UNIT ( * ) SI_UNIT ( $, .STERADIAN. ) SOLID_ANGLE_UNIT ( ) );
#1016 = AXIS2_PLACEMENT_3D ( 'NONE', #811, #147, #476 ) ;
#1017 = AXIS2_PLACEMENT_3D ( 'NONE', #121, #37, #725 ) ;
#1018 = ORIENTED_EDGE ( 'NONE', *, *, #885, .T. ) ;
#1019 = AXIS2_PLACEMENT_3D ( 'NONE', #998, #303, #670 ) ;
#1020 =( GEOMETRIC_REPRESENTATION_CONTEXT ( 3 ) GLOBAL_UNCERTAINTY_ASSIGNED_CONTEXT ( ( #620 ) ) GLOBAL_UNIT_ASSIGNED_CONTEXT ( ( #463, #681, #810 ) ) REPRESENTATION_CONTEXT ( 'NONE', 'WORKASPACE' ) );
#1021 = SURFACE_SIDE_STYLE ('',( #130 ) ) ;
#1022 = VERTEX_POINT ( 'NONE', #83 ) ;
#1023 = PRESENTATION_STYLE_ASSIGNMENT (( #340 ) ) ;
#1024 = SURFACE_STYLE_USAGE ( .BOTH. , #766 ) ;
#1025 =( NAMED_UNIT ( * ) SI_UNIT ( $, .STERADIAN. ) SOLID_ANGLE_UNIT ( ) );
ENDSEC;
END-ISO-10303-21;
