ISO-10303-21;
HEADER;
FILE_DESCRIPTION (( 'STEP AP214' ),
    '1' );
FILE_NAME ('M3.5 x 13 Screw head.STEP',
    '2023-03-28T04:22:27',
    ( '' ),
    ( '' ),
    'SwSTEP 2.0',
    'SolidWorks 2022',
    '' );
FILE_SCHEMA (( 'AUTOMOTIVE_DESIGN' ));
ENDSEC;

DATA;
#1 = FILL_AREA_STYLE ('',( #724 ) ) ;
#2 = AXIS2_PLACEMENT_3D ( 'NONE', #296, #359, #131 ) ;
#3 = ORIENTED_EDGE ( 'NONE', *, *, #959, .F. ) ;
#4 = DIRECTION ( 'NONE',  ( 0.9938370308809507669, 0.000000000000000000, 0.1108510534444137746 ) ) ;
#5 = FILL_AREA_STYLE ('',( #568 ) ) ;
#6 = ORIENTED_EDGE ( 'NONE', *, *, #612, .F. ) ;
#7 = FILL_AREA_STYLE ('',( #400 ) ) ;
#8 = APPLICATION_PROTOCOL_DEFINITION ( 'draft international standard', 'automotive_design', 1998, #660 ) ;
#9 = FACE_OUTER_BOUND ( 'NONE', #848, .T. ) ;
#10 = PRESENTATION_STYLE_ASSIGNMENT (( #956 ) ) ;
#11 = EDGE_CURVE ( 'NONE', #196, #938, #299, .T. ) ;
#12 = CARTESIAN_POINT ( 'NONE',  ( 0.2666411873824114376, -1.721732169736485796, -0.4052592521765772116 ) ) ;
#13 = SURFACE_STYLE_USAGE ( .BOTH. , #891 ) ;
#14 =( GEOMETRIC_REPRESENTATION_CONTEXT ( 3 ) GLOBAL_UNCERTAINTY_ASSIGNED_CONTEXT ( ( #697 ) ) GLOBAL_UNIT_ASSIGNED_CONTEXT ( ( #494, #106, #966 ) ) REPRESENTATION_CONTEXT ( 'NONE', 'WORKASPACE' ) );
#15 = CIRCLE ( 'NONE', #78, 0.4199999999999998179 ) ;
#16 = VERTEX_POINT ( 'NONE', #624 ) ;
#17 =( GEOMETRIC_REPRESENTATION_CONTEXT ( 3 ) GLOBAL_UNCERTAINTY_ASSIGNED_CONTEXT ( ( #557 ) ) GLOBAL_UNIT_ASSIGNED_CONTEXT ( ( #499, #749, #19 ) ) REPRESENTATION_CONTEXT ( 'NONE', 'WORKASPACE' ) );
#18 = AXIS2_PLACEMENT_3D ( 'NONE', #68, #934, #710 ) ;
#19 =( NAMED_UNIT ( * ) SI_UNIT ( $, .STERADIAN. ) SOLID_ANGLE_UNIT ( ) );
#20 = FILL_AREA_STYLE ('',( #899 ) ) ;
#21 = SURFACE_STYLE_USAGE ( .BOTH. , #821 ) ;
#22 = CARTESIAN_POINT ( 'NONE',  ( 0.9968214519863044520, 3.311827956989247479, 0.000000000000000000 ) ) ;
#23 = ADVANCED_FACE ( 'NONE', ( #475 ), #543, .T. ) ;
#24 = ORIENTED_EDGE ( 'NONE', *, *, #574, .T. ) ;
#25 = FACE_OUTER_BOUND ( 'NONE', #327, .T. ) ;
#26 = CARTESIAN_POINT ( 'NONE',  ( -25.39999999999996305, 0.000000000000000000, 0.000000000000000000 ) ) ;
#27 = ORIENTED_EDGE ( 'NONE', *, *, #896, .F. ) ;
#28 = UNCERTAINTY_MEASURE_WITH_UNIT (LENGTH_MEASURE( 1.000000000000000082E-05 ), #857, 'distance_accuracy_value', 'NONE');
#29 = DIRECTION ( 'NONE',  ( 0.000000000000000000, 0.000000000000000000, 1.000000000000000000 ) ) ;
#30 = CARTESIAN_POINT ( 'NONE',  ( 0.2666411873824114376, 1.721732169736486240, -0.4052592521765773226 ) ) ;
#31 = CIRCLE ( 'NONE', #338, 3.311827956989247479 ) ;
#32 = COLOUR_RGB ( '',0.7764705882352941346, 0.7568627450980391913, 0.7372549019607843590 ) ;
#33 = MANIFOLD_SOLID_BREP ( 'Move Face1', #990 ) ;
#34 = ORIENTED_EDGE ( 'NONE', *, *, #305, .T. ) ;
#35 = ADVANCED_FACE ( 'NONE', ( #548 ), #66, .T. ) ;
#36 = PLANE ( 'NONE',  #169 ) ;
#37 = VERTEX_POINT ( 'NONE', #22 ) ;
#38 = DIRECTION ( 'NONE',  ( -1.000000000000000000, -0.000000000000000000, -0.000000000000000000 ) ) ;
#39 =( NAMED_UNIT ( * ) PLANE_ANGLE_UNIT ( ) SI_UNIT ( $, .RADIAN. ) );
#40 = SURFACE_SIDE_STYLE ('',( #441 ) ) ;
#41 = EDGE_LOOP ( 'NONE', ( #531, #865, #650, #391 ) ) ;
#42 = AXIS2_PLACEMENT_3D ( 'NONE', #293, #784, #213 ) ;
#43 =( NAMED_UNIT ( * ) PLANE_ANGLE_UNIT ( ) SI_UNIT ( $, .RADIAN. ) );
#44 = VECTOR ( 'NONE', #580, 1000.000000000000000 ) ;
#45 =( GEOMETRIC_REPRESENTATION_CONTEXT ( 3 ) GLOBAL_UNCERTAINTY_ASSIGNED_CONTEXT ( ( #319 ) ) GLOBAL_UNIT_ASSIGNED_CONTEXT ( ( #466, #953, #164 ) ) REPRESENTATION_CONTEXT ( 'NONE', 'WORKASPACE' ) );
#46 = FILL_AREA_STYLE_COLOUR ( '', #567 ) ;
#47 = STYLED_ITEM ( 'NONE', ( #785 ), #935 ) ;
#48 = DIRECTION ( 'NONE',  ( -0.7456662065614396706, 0.6663196743247736809, 0.000000000000000000 ) ) ;
#49 = ORIENTED_EDGE ( 'NONE', *, *, #408, .T. ) ;
#50 = ADVANCED_FACE ( 'NONE', ( #326 ), #399, .T. ) ;
#51 = APPLICATION_CONTEXT ( 'automotive_design' ) ;
#52 = PLANE ( 'NONE',  #652 ) ;
#53 = FILL_AREA_STYLE_COLOUR ( '', #488 ) ;
#54 = ORIENTED_EDGE ( 'NONE', *, *, #682, .T. ) ;
#55 = DIRECTION ( 'NONE',  ( -0.9938370308809507669, 0.000000000000000000, 0.1108510534444137052 ) ) ;
#56 =( NAMED_UNIT ( * ) PLANE_ANGLE_UNIT ( ) SI_UNIT ( $, .RADIAN. ) );
#57 = DIRECTION ( 'NONE',  ( -0.1108510534444136914, 0.9938370308809506559, 3.595744332370143179E-15 ) ) ;
#58 =( NAMED_UNIT ( * ) SI_UNIT ( $, .STERADIAN. ) SOLID_ANGLE_UNIT ( ) );
#59 = SURFACE_SIDE_STYLE ('',( #781 ) ) ;
#60 = ORIENTED_EDGE ( 'NONE', *, *, #361, .T. ) ;
#61 = FILL_AREA_STYLE ('',( #476 ) ) ;
#62 = COLOUR_RGB ( '',0.7764705882352941346, 0.7568627450980391913, 0.7372549019607843590 ) ;
#63 = MECHANICAL_DESIGN_GEOMETRIC_PRESENTATION_REPRESENTATION (  '', ( #991 ), #218 ) ;
#64 = AXIS2_PLACEMENT_3D ( 'NONE', #247, #458, #631 ) ;
#65 = VECTOR ( 'NONE', #38, 1000.000000000000000 ) ;
#66 = CYLINDRICAL_SURFACE ( 'NONE', #515, 1.749999999999999778 ) ;
#67 = CIRCLE ( 'NONE', #888, 0.4199999999999998179 ) ;
#68 = CARTESIAN_POINT ( 'NONE',  ( 1.949999999999999956, 0.2174999999999999989, -0.2174999999999999711 ) ) ;
#69 = ORIENTED_EDGE ( 'NONE', *, *, #491, .T. ) ;
#70 = EDGE_CURVE ( 'NONE', #527, #423, #421, .T. ) ;
#71 = PRODUCT_CONTEXT ( 'NONE', #660, 'mechanical' ) ;
#72 =( NAMED_UNIT ( * ) PLANE_ANGLE_UNIT ( ) SI_UNIT ( $, .RADIAN. ) );
#73 = ORIENTED_EDGE ( 'NONE', *, *, #11, .F. ) ;
#74 = DIRECTION ( 'NONE',  ( 0.000000000000000000, 0.000000000000000000, 1.000000000000000000 ) ) ;
#75 = EDGE_LOOP ( 'NONE', ( #368, #112, #679, #124, #370 ) ) ;
#76 = CARTESIAN_POINT ( 'NONE',  ( 0.000000000000000000, 1.959999999999999964, 0.4350000000000001088 ) ) ;
#77 =( GEOMETRIC_REPRESENTATION_CONTEXT ( 3 ) GLOBAL_UNCERTAINTY_ASSIGNED_CONTEXT ( ( #837 ) ) GLOBAL_UNIT_ASSIGNED_CONTEXT ( ( #234, #799, #801 ) ) REPRESENTATION_CONTEXT ( 'NONE', 'WORKASPACE' ) );
#78 = AXIS2_PLACEMENT_3D ( 'NONE', #776, #126, #380 ) ;
#79 = PRESENTATION_LAYER_ASSIGNMENT (  '', '', ( #302 ) ) ;
#80 = ORIENTED_EDGE ( 'NONE', *, *, #658, .T. ) ;
#81 = VECTOR ( 'NONE', #125, 999.9999999999998863 ) ;
#82 = VERTEX_POINT ( 'NONE', #916 ) ;
#83 = EDGE_CURVE ( 'NONE', #995, #188, #634, .T. ) ;
#84 = MECHANICAL_DESIGN_GEOMETRIC_PRESENTATION_REPRESENTATION (  '', ( #535 ), #623 ) ;
#85 = DIRECTION ( 'NONE',  ( -0.1108510534444137469, -0.9938370308809506559, -3.448999966305766196E-15 ) ) ;
#86 = DIRECTION ( 'NONE',  ( -0.9938370308809506559, -0.1108510534444136914, -3.870343844922732447E-16 ) ) ;
#87 =( LENGTH_UNIT ( ) NAMED_UNIT ( * ) SI_UNIT ( .MILLI., .METRE. ) );
#88 = FILL_AREA_STYLE_COLOUR ( '', #844 ) ;
#89 = ORIENTED_EDGE ( 'NONE', *, *, #764, .T. ) ;
#90 = DIRECTION ( 'NONE',  ( 0.9877866216249069353, -0.1101762001043169320, 0.1101762001043165712 ) ) ;
#91 = FILL_AREA_STYLE_COLOUR ( '', #132 ) ;
#92 =( LENGTH_UNIT ( ) NAMED_UNIT ( * ) SI_UNIT ( .MILLI., .METRE. ) );
#93 = SURFACE_SIDE_STYLE ('',( #375 ) ) ;
#94 = DIRECTION ( 'NONE',  ( 0.000000000000000000, 0.000000000000000000, 1.000000000000000000 ) ) ;
#95 = PLANE ( 'NONE',  #502 ) ;
#96 = STYLED_ITEM ( 'NONE', ( #928 ), #114 ) ;
#97 = PRESENTATION_LAYER_ASSIGNMENT (  '', '', ( #602 ) ) ;
#98 = PRESENTATION_LAYER_ASSIGNMENT (  '', '', ( #671 ) ) ;
#99 = EDGE_LOOP ( 'NONE', ( #778, #107, #858 ) ) ;
#100 = PRESENTATION_LAYER_ASSIGNMENT (  '', '', ( #551 ) ) ;
#101 = AXIS2_PLACEMENT_3D ( 'NONE', #514, #827, #521 ) ;
#102 = SURFACE_STYLE_USAGE ( .BOTH. , #813 ) ;
#103 = TOROIDAL_SURFACE ( 'NONE', #222, 3.080000000000000515, 0.4200000000000000400 ) ;
#104 = DIRECTION ( 'NONE',  ( -1.000000000000000000, -0.000000000000000000, -0.000000000000000000 ) ) ;
#105 = FACE_OUTER_BOUND ( 'NONE', #912, .T. ) ;
#106 =( NAMED_UNIT ( * ) PLANE_ANGLE_UNIT ( ) SI_UNIT ( $, .RADIAN. ) );
#107 = ORIENTED_EDGE ( 'NONE', *, *, #491, .F. ) ;
#108 = DIRECTION ( 'NONE',  ( -0.9877866216249070463, -0.1101762001043161271, -0.1101762001043165851 ) ) ;
#109 = UNCERTAINTY_MEASURE_WITH_UNIT (LENGTH_MEASURE( 1.000000000000000082E-05 ), #144, 'distance_accuracy_value', 'NONE');
#110 = SURFACE_STYLE_FILL_AREA ( #918 ) ;
#111 = PRESENTATION_LAYER_ASSIGNMENT (  '', '', ( #725 ) ) ;
#112 = ORIENTED_EDGE ( 'NONE', *, *, #665, .F. ) ;
#113 = AXIS2_PLACEMENT_3D ( 'NONE', #333, #407, #254 ) ;
#114 = ADVANCED_FACE ( 'NONE', ( #644 ), #252, .F. ) ;
#115 = SURFACE_STYLE_USAGE ( .BOTH. , #760 ) ;
#116 = STYLED_ITEM ( 'NONE', ( #436 ), #587 ) ;
#117 = VECTOR ( 'NONE', #206, 1000.000000000000000 ) ;
#118 = DIRECTION ( 'NONE',  ( -1.000000000000000000, -0.000000000000000000, -0.000000000000000000 ) ) ;
#119 = ORIENTED_EDGE ( 'NONE', *, *, #468, .F. ) ;
#120 = PLANE ( 'NONE',  #605 ) ;
#121 = EDGE_CURVE ( 'NONE', #919, #376, #181, .T. ) ;
#122 = DIRECTION ( 'NONE',  ( -0.7456662065614396706, 0.000000000000000000, -0.6663196743247736809 ) ) ;
#123 =( NAMED_UNIT ( * ) SI_UNIT ( $, .STERADIAN. ) SOLID_ANGLE_UNIT ( ) );
#124 = ORIENTED_EDGE ( 'NONE', *, *, #408, .F. ) ;
#125 = DIRECTION ( 'NONE',  ( 0.7431005017819711789, -0.08288428673721758011, -0.6640269868487616023 ) ) ;
#126 = DIRECTION ( 'NONE',  ( 0.000000000000000000, -1.000000000000000000, 0.000000000000000000 ) ) ;
#127 = EDGE_CURVE ( 'NONE', #598, #613, #901, .T. ) ;
#128 = UNCERTAINTY_MEASURE_WITH_UNIT (LENGTH_MEASURE( 1.000000000000000082E-05 ), #177, 'distance_accuracy_value', 'NONE');
#129 = ORIENTED_EDGE ( 'NONE', *, *, #893, .F. ) ;
#130 = COLOUR_RGB ( '',0.7764705882352941346, 0.7568627450980391913, 0.7372549019607843590 ) ;
#131 = DIRECTION ( 'NONE',  ( 0.000000000000000000, 0.000000000000000000, 1.000000000000000000 ) ) ;
#132 = COLOUR_RGB ( '',0.7764705882352941346, 0.7568627450980391913, 0.7372549019607843590 ) ;
#133 =( GEOMETRIC_REPRESENTATION_CONTEXT ( 3 ) GLOBAL_UNCERTAINTY_ASSIGNED_CONTEXT ( ( #159 ) ) GLOBAL_UNIT_ASSIGNED_CONTEXT ( ( #187, #593, #424 ) ) REPRESENTATION_CONTEXT ( 'NONE', 'WORKASPACE' ) );
#134 = AXIS2_PLACEMENT_3D ( 'NONE', #453, #779, #55 ) ;
#135 = AXIS2_PLACEMENT_3D ( 'NONE', #542, #372, #461 ) ;
#136 = ADVANCED_FACE ( 'NONE', ( #841, #360 ), #526, .F. ) ;
#137 = VERTEX_POINT ( 'NONE', #541 ) ;
#138 = DIRECTION ( 'NONE',  ( 0.000000000000000000, 0.000000000000000000, 1.000000000000000000 ) ) ;
#139 = UNCERTAINTY_MEASURE_WITH_UNIT (LENGTH_MEASURE( 1.000000000000000082E-05 ), #553, 'distance_accuracy_value', 'NONE');
#140 = DIRECTION ( 'NONE',  ( 1.000000000000000000, 0.000000000000000000, 0.000000000000000000 ) ) ;
#141 = LINE ( 'NONE', #459, #500 ) ;
#142 = SURFACE_SIDE_STYLE ('',( #616 ) ) ;
#143 = ORIENTED_EDGE ( 'NONE', *, *, #70, .F. ) ;
#144 =( LENGTH_UNIT ( ) NAMED_UNIT ( * ) SI_UNIT ( .MILLI., .METRE. ) );
#145 = ORIENTED_EDGE ( 'NONE', *, *, #755, .T. ) ;
#146 = EDGE_CURVE ( 'NONE', #196, #423, #141, .T. ) ;
#147 = PRESENTATION_STYLE_ASSIGNMENT (( #642 ) ) ;
#148 = AXIS2_PLACEMENT_3D ( 'NONE', #731, #645, #4 ) ;
#149 = DIRECTION ( 'NONE',  ( 0.000000000000000000, 0.000000000000000000, 1.000000000000000000 ) ) ;
#150 = VECTOR ( 'NONE', #174, 999.9999999999998863 ) ;
#151 =( GEOMETRIC_REPRESENTATION_CONTEXT ( 3 ) GLOBAL_UNCERTAINTY_ASSIGNED_CONTEXT ( ( #942 ) ) GLOBAL_UNIT_ASSIGNED_CONTEXT ( ( #687, #294, #957 ) ) REPRESENTATION_CONTEXT ( 'NONE', 'WORKASPACE' ) );
#152 = UNCERTAINTY_MEASURE_WITH_UNIT (LENGTH_MEASURE( 1.000000000000000082E-05 ), #590, 'distance_accuracy_value', 'NONE');
#153 = EDGE_LOOP ( 'NONE', ( #823, #24, #284 ) ) ;
#154 = LINE ( 'NONE', #170, #256 ) ;
#155 = CARTESIAN_POINT ( 'NONE',  ( 1.949999999999999956, 0.2175000000000007483, -0.2174999999999992772 ) ) ;
#156 = EDGE_CURVE ( 'NONE', #592, #188, #15, .T. ) ;
#157 = ORIENTED_EDGE ( 'NONE', *, *, #160, .T. ) ;
#158 = PRESENTATION_STYLE_ASSIGNMENT (( #737 ) ) ;
#159 = UNCERTAINTY_MEASURE_WITH_UNIT (LENGTH_MEASURE( 1.000000000000000082E-05 ), #187, 'distance_accuracy_value', 'NONE');
#160 = EDGE_CURVE ( 'NONE', #613, #598, #974, .T. ) ;
#161 = CARTESIAN_POINT ( 'NONE',  ( 2.214116351126373505, 0.1880408685282115300, 0.1880408685282121406 ) ) ;
#162 = VERTEX_POINT ( 'NONE', #1012 ) ;
#163 = CARTESIAN_POINT ( 'NONE',  ( 0.000000000000000000, 0.4350000000000068257, -1.959999999999998188 ) ) ;
#164 =( NAMED_UNIT ( * ) SI_UNIT ( $, .STERADIAN. ) SOLID_ANGLE_UNIT ( ) );
#165 = CARTESIAN_POINT ( 'NONE',  ( 6.000000000000000000, 2.326828918379972351E-16, 0.000000000000000000 ) ) ;
#166 = MECHANICAL_DESIGN_GEOMETRIC_PRESENTATION_REPRESENTATION (  '', ( #671 ), #447 ) ;
#167 = STYLED_ITEM ( 'NONE', ( #178 ), #495 ) ;
#168 = DIRECTION ( 'NONE',  ( -1.000000000000000000, -0.000000000000000000, -0.000000000000000000 ) ) ;
#169 = AXIS2_PLACEMENT_3D ( 'NONE', #223, #57, #547 ) ;
#170 = CARTESIAN_POINT ( 'NONE',  ( 2.214116351126373949, -0.1880408685282127235, 0.1880408685282120573 ) ) ;
#171 = CARTESIAN_POINT ( 'NONE',  ( 1.949999999999999956, 0.2174999999999999989, 0.2174999999999999711 ) ) ;
#172 = SURFACE_STYLE_FILL_AREA ( #5 ) ;
#173 = FILL_AREA_STYLE ('',( #646 ) ) ;
#174 = DIRECTION ( 'NONE',  ( 0.7431005017819711789, 0.08288428673721742745, 0.6640269868487616023 ) ) ;
#175 = PLANE ( 'NONE',  #335 ) ;
#176 = SURFACE_STYLE_FILL_AREA ( #1019 ) ;
#177 =( LENGTH_UNIT ( ) NAMED_UNIT ( * ) SI_UNIT ( .MILLI., .METRE. ) );
#178 = PRESENTATION_STYLE_ASSIGNMENT (( #742 ) ) ;
#179 = ADVANCED_FACE ( 'NONE', ( #627 ), #52, .F. ) ;
#180 = FACE_OUTER_BOUND ( 'NONE', #884, .T. ) ;
#181 = CIRCLE ( 'NONE', #768, 5.437518987584765817 ) ;
#182 = SURFACE_STYLE_FILL_AREA ( #683 ) ;
#183 =( GEOMETRIC_REPRESENTATION_CONTEXT ( 3 ) GLOBAL_UNCERTAINTY_ASSIGNED_CONTEXT ( ( #791 ) ) GLOBAL_UNIT_ASSIGNED_CONTEXT ( ( #669, #828, #906 ) ) REPRESENTATION_CONTEXT ( 'NONE', 'WORKASPACE' ) );
#184 = MECHANICAL_DESIGN_GEOMETRIC_PRESENTATION_REPRESENTATION (  '', ( #363 ), #532 ) ;
#185 = ORIENTED_EDGE ( 'NONE', *, *, #529, .F. ) ;
#186 = CIRCLE ( 'NONE', #993, 5.995482475482740270 ) ;
#187 =( LENGTH_UNIT ( ) NAMED_UNIT ( * ) SI_UNIT ( .MILLI., .METRE. ) );
#188 = VERTEX_POINT ( 'NONE', #248 ) ;
#189 = LINE ( 'NONE', #496, #44 ) ;
#190 = ADVANCED_FACE ( 'NONE', ( #330 ), #386, .T. ) ;
#191 = VERTEX_POINT ( 'NONE', #805 ) ;
#192 = DIRECTION ( 'NONE',  ( 0.000000000000000000, 0.000000000000000000, 1.000000000000000000 ) ) ;
#193 = PRESENTATION_STYLE_ASSIGNMENT (( #982 ) ) ;
#194 =( NAMED_UNIT ( * ) SI_UNIT ( $, .STERADIAN. ) SOLID_ANGLE_UNIT ( ) );
#195 = STYLED_ITEM ( 'NONE', ( #740 ), #50 ) ;
#196 = VERTEX_POINT ( 'NONE', #653 ) ;
#197 = EDGE_CURVE ( 'NONE', #995, #191, #516, .T. ) ;
#198 = MECHANICAL_DESIGN_GEOMETRIC_PRESENTATION_REPRESENTATION (  '', ( #602 ), #757 ) ;
#199 = CARTESIAN_POINT ( 'NONE',  ( 15.60000000000000320, 2.143131898507868051E-16, -1.749999999999999778 ) ) ;
#200 = ORIENTED_EDGE ( 'NONE', *, *, #971, .F. ) ;
#201 = CIRCLE ( 'NONE', #64, 5.995482475482740270 ) ;
#202 = DIRECTION ( 'NONE',  ( -0.1108510534444137469, -0.9938370308809506559, -3.448999966305766196E-15 ) ) ;
#203 = PRESENTATION_LAYER_ASSIGNMENT (  '', '', ( #656 ) ) ;
#204 = CARTESIAN_POINT ( 'NONE',  ( 0.9968214519863044520, 0.000000000000000000, 0.000000000000000000 ) ) ;
#205 = MECHANICAL_DESIGN_GEOMETRIC_PRESENTATION_REPRESENTATION (  '', ( #729 ), #151 ) ;
#206 = DIRECTION ( 'NONE',  ( 0.7431005017819711789, 0.6640269868487613802, -0.08288428673721975892 ) ) ;
#207 = EDGE_LOOP ( 'NONE', ( #762, #240, #510 ) ) ;
#208 = DIRECTION ( 'NONE',  ( 0.9938370308809507669, -0.1108510534444137746, 0.000000000000000000 ) ) ;
#209 =( LENGTH_UNIT ( ) NAMED_UNIT ( * ) SI_UNIT ( .MILLI., .METRE. ) );
#210 = CARTESIAN_POINT ( 'NONE',  ( 1.347043950347263763, 3.771912141373848894E-16, -3.080000000000000515 ) ) ;
#211 = ORIENTED_EDGE ( 'NONE', *, *, #445, .T. ) ;
#212 = CARTESIAN_POINT ( 'NONE',  ( 1.347043950347263763, 0.000000000000000000, 0.000000000000000000 ) ) ;
#213 = DIRECTION ( 'NONE',  ( -0.7456662065614397816, 0.6663196743247735698, 0.000000000000000000 ) ) ;
#214 = PRODUCT_DEFINITION ( 'UNKNOWN', '', #708, #528 ) ;
#215 = UNCERTAINTY_MEASURE_WITH_UNIT (LENGTH_MEASURE( 1.000000000000000082E-05 ), #396, 'distance_accuracy_value', 'NONE');
#216 = ORIENTED_EDGE ( 'NONE', *, *, #612, .T. ) ;
#217 = CARTESIAN_POINT ( 'NONE',  ( 0.2553644383338094515, 1.731808957027352269, 0.000000000000000000 ) ) ;
#218 =( GEOMETRIC_REPRESENTATION_CONTEXT ( 3 ) GLOBAL_UNCERTAINTY_ASSIGNED_CONTEXT ( ( #546 ) ) GLOBAL_UNIT_ASSIGNED_CONTEXT ( ( #209, #56, #1004 ) ) REPRESENTATION_CONTEXT ( 'NONE', 'WORKASPACE' ) );
#219 = VECTOR ( 'NONE', #721, 1000.000000000000000 ) ;
#220 = SURFACE_STYLE_FILL_AREA ( #845 ) ;
#221 = COLOUR_RGB ( '',0.7764705882352941346, 0.7568627450980391913, 0.7372549019607843590 ) ;
#222 = AXIS2_PLACEMENT_3D ( 'NONE', #825, #983, #29 ) ;
#223 = CARTESIAN_POINT ( 'NONE',  ( 2.193400286944045430, -0.1903515064562409931, -2.309278636184418912E-16 ) ) ;
#224 = ORIENTED_EDGE ( 'NONE', *, *, #146, .T. ) ;
#225 = LINE ( 'NONE', #890, #150 ) ;
#226 = DIRECTION ( 'NONE',  ( -0.000000000000000000, 0.000000000000000000, 1.000000000000000000 ) ) ;
#227 = DIRECTION ( 'NONE',  ( 0.000000000000000000, 0.000000000000000000, 1.000000000000000000 ) ) ;
#228 = ADVANCED_FACE ( 'NONE', ( #638 ), #887, .T. ) ;
#229 = PRESENTATION_STYLE_ASSIGNMENT (( #625 ) ) ;
#230 = ORIENTED_EDGE ( 'NONE', *, *, #146, .F. ) ;
#231 = SURFACE_SIDE_STYLE ('',( #394 ) ) ;
#232 = SURFACE_STYLE_USAGE ( .BOTH. , #806 ) ;
#233 =( NAMED_UNIT ( * ) SI_UNIT ( $, .STERADIAN. ) SOLID_ANGLE_UNIT ( ) );
#234 =( LENGTH_UNIT ( ) NAMED_UNIT ( * ) SI_UNIT ( .MILLI., .METRE. ) );
#235 = MECHANICAL_DESIGN_GEOMETRIC_PRESENTATION_REPRESENTATION (  '', ( #96 ), #316 ) ;
#236 = CARTESIAN_POINT ( 'NONE',  ( 4.309938594911940868, 1.891316923914901471, 2.356976916973721757E-16 ) ) ;
#237 = UNCERTAINTY_MEASURE_WITH_UNIT (LENGTH_MEASURE( 1.000000000000000082E-05 ), #722, 'distance_accuracy_value', 'NONE');
#238 = COLOUR_RGB ( '',0.7764705882352941346, 0.7568627450980391913, 0.7372549019607843590 ) ;
#239 = MECHANICAL_DESIGN_GEOMETRIC_PRESENTATION_REPRESENTATION (  '', ( #320 ), #907 ) ;
#240 = ORIENTED_EDGE ( 'NONE', *, *, #11, .T. ) ;
#241 = CARTESIAN_POINT ( 'NONE',  ( 5.974195292295553905, 0.2313525518329656860, 8.370432990360215258E-16 ) ) ;
#242 =( NAMED_UNIT ( * ) PLANE_ANGLE_UNIT ( ) SI_UNIT ( $, .RADIAN. ) );
#243 = EDGE_CURVE ( 'NONE', #373, #423, #189, .T. ) ;
#244 = ORIENTED_EDGE ( 'NONE', *, *, #574, .F. ) ;
#245 = VERTEX_POINT ( 'NONE', #508 ) ;
#246 = LINE ( 'NONE', #163, #929 ) ;
#247 = CARTESIAN_POINT ( 'NONE',  ( 5.974195292295553905, 2.375629221075779134E-16, 0.2313525518329657416 ) ) ;
#248 = CARTESIAN_POINT ( 'NONE',  ( 0.9968214519863044520, 0.000000000000000000, 3.311827956989247479 ) ) ;
#249 = UNCERTAINTY_MEASURE_WITH_UNIT (LENGTH_MEASURE( 1.000000000000000082E-05 ), #767, 'distance_accuracy_value', 'NONE');
#250 =( NAMED_UNIT ( * ) SI_UNIT ( $, .STERADIAN. ) SOLID_ANGLE_UNIT ( ) );
#251 =( NAMED_UNIT ( * ) SI_UNIT ( $, .STERADIAN. ) SOLID_ANGLE_UNIT ( ) );
#252 = PLANE ( 'NONE',  #42 ) ;
#253 = SURFACE_SIDE_STYLE ('',( #328 ) ) ;
#254 = DIRECTION ( 'NONE',  ( 0.000000000000000000, 0.000000000000000000, 1.000000000000000000 ) ) ;
#255 = PRESENTATION_STYLE_ASSIGNMENT (( #958 ) ) ;
#256 = VECTOR ( 'NONE', #720, 1000.000000000000114 ) ;
#257 = SURFACE_STYLE_USAGE ( .BOTH. , #93 ) ;
#258 = FILL_AREA_STYLE_COLOUR ( '', #62 ) ;
#259 =( GEOMETRIC_REPRESENTATION_CONTEXT ( 3 ) GLOBAL_UNCERTAINTY_ASSIGNED_CONTEXT ( ( #249 ) ) GLOBAL_UNIT_ASSIGNED_CONTEXT ( ( #767, #43, #286 ) ) REPRESENTATION_CONTEXT ( 'NONE', 'WORKASPACE' ) );
#260 = PRESENTATION_LAYER_ASSIGNMENT (  '', '', ( #506 ) ) ;
#261 = AXIS2_PLACEMENT_3D ( 'NONE', #575, #149, #881 ) ;
#262 = PRESENTATION_STYLE_ASSIGNMENT (( #102 ) ) ;
#263 = DIRECTION ( 'NONE',  ( -0.7456662065614397816, -2.326442708608981349E-15, 0.6663196743247735698 ) ) ;
#264 = SURFACE_SIDE_STYLE ('',( #815 ) ) ;
#265 = FACE_OUTER_BOUND ( 'NONE', #927, .T. ) ;
#266 = ADVANCED_FACE ( 'NONE', ( #512 ), #977, .T. ) ;
#267 = CARTESIAN_POINT ( 'NONE',  ( 2.214116351126373505, -0.1880408685282114467, -0.1880408685282121684 ) ) ;
#268 = PRESENTATION_STYLE_ASSIGNMENT (( #666 ) ) ;
#269 = FILL_AREA_STYLE_COLOUR ( '', #908 ) ;
#270 = EDGE_CURVE ( 'NONE', #895, #867, #154, .T. ) ;
#271 = AXIS2_PLACEMENT_3D ( 'NONE', #444, #707, #769 ) ;
#272 = AXIS2_PLACEMENT_3D ( 'NONE', #507, #676, #894 ) ;
#273 = EDGE_LOOP ( 'NONE', ( #1015, #309, #427, #540 ) ) ;
#274 = CIRCLE ( 'NONE', #306, 5.995482475482740270 ) ;
#275 = CARTESIAN_POINT ( 'NONE',  ( 2.193400286944045430, -4.336808689942017736E-16, -0.1903515064562410486 ) ) ;
#276 = EDGE_CURVE ( 'NONE', #137, #834, #770, .T. ) ;
#277 = DIRECTION ( 'NONE',  ( 0.9938370308809507669, -0.1108510534444137746, 0.000000000000000000 ) ) ;
#278 = VERTEX_POINT ( 'NONE', #952 ) ;
#279 = CARTESIAN_POINT ( 'NONE',  ( -25.39999999999996305, 0.000000000000000000, 3.500000000000000444 ) ) ;
#280 = CARTESIAN_POINT ( 'NONE',  ( 1.949999999999999956, -0.2175000000000007205, 0.2174999999999993883 ) ) ;
#281 = ORIENTED_EDGE ( 'NONE', *, *, #871, .F. ) ;
#282 = DIRECTION ( 'NONE',  ( -1.000000000000000000, -0.000000000000000000, -0.000000000000000000 ) ) ;
#283 = STYLED_ITEM ( 'NONE', ( #718 ), #23 ) ;
#284 = ORIENTED_EDGE ( 'NONE', *, *, #270, .F. ) ;
#285 = EDGE_CURVE ( 'NONE', #82, #245, #915, .T. ) ;
#286 =( NAMED_UNIT ( * ) SI_UNIT ( $, .STERADIAN. ) SOLID_ANGLE_UNIT ( ) );
#287 = CIRCLE ( 'NONE', #397, 1.749999999999999778 ) ;
#288 = CIRCLE ( 'NONE', #353, 5.437518987584764929 ) ;
#289 =( NAMED_UNIT ( * ) SI_UNIT ( $, .STERADIAN. ) SOLID_ANGLE_UNIT ( ) );
#290 = CARTESIAN_POINT ( 'NONE',  ( 1.347043950347265318, 0.000000000000000000, 0.000000000000000000 ) ) ;
#291 = ORIENTED_EDGE ( 'NONE', *, *, #690, .F. ) ;
#292 = DIRECTION ( 'NONE',  ( -0.9938370308809507669, -0.1108510534444137052, 0.000000000000000000 ) ) ;
#293 = CARTESIAN_POINT ( 'NONE',  ( 1.949999999999999956, 0.2174999999999999989, 0.2174999999999999156 ) ) ;
#294 =( NAMED_UNIT ( * ) PLANE_ANGLE_UNIT ( ) SI_UNIT ( $, .RADIAN. ) );
#295 = EDGE_LOOP ( 'NONE', ( #452, #513, #244, #1020 ) ) ;
#296 = CARTESIAN_POINT ( 'NONE',  ( 2.599999999999998312, 0.000000000000000000, 0.000000000000000000 ) ) ;
#297 = DIRECTION ( 'NONE',  ( 0.000000000000000000, 0.000000000000000000, -1.000000000000000000 ) ) ;
#298 = SURFACE_STYLE_USAGE ( .BOTH. , #142 ) ;
#299 = LINE ( 'NONE', #161, #349 ) ;
#300 =( NAMED_UNIT ( * ) SI_UNIT ( $, .STERADIAN. ) SOLID_ANGLE_UNIT ( ) );
#301 = COLOUR_RGB ( '',0.7764705882352941346, 0.7568627450980391913, 0.7372549019607843590 ) ;
#302 = STYLED_ITEM ( 'NONE', ( #255 ), #356 ) ;
#303 = CARTESIAN_POINT ( 'NONE',  ( 2.600000000000000089, 1.749999999999999778, 0.000000000000000000 ) ) ;
#304 = MECHANICAL_DESIGN_GEOMETRIC_PRESENTATION_REPRESENTATION (  '', ( #656 ), #469 ) ;
#305 = EDGE_CURVE ( 'NONE', #376, #423, #246, .T. ) ;
#306 = AXIS2_PLACEMENT_3D ( 'NONE', #350, #662, #277 ) ;
#307 = SURFACE_STYLE_FILL_AREA ( #936 ) ;
#308 = DIRECTION ( 'NONE',  ( 0.6663196743247736809, 0.7456662065614397816, 0.000000000000000000 ) ) ;
#309 = ORIENTED_EDGE ( 'NONE', *, *, #243, .T. ) ;
#310 = DIRECTION ( 'NONE',  ( 0.7456662065614396706, 0.6663196743247736809, 0.000000000000000000 ) ) ;
#311 = DIRECTION ( 'NONE',  ( -1.000000000000000000, -0.000000000000000000, -0.000000000000000000 ) ) ;
#312 = FACE_OUTER_BOUND ( 'NONE', #947, .T. ) ;
#313 = CARTESIAN_POINT ( 'NONE',  ( 15.60000000000000142, 1.749999999999999778, 0.000000000000000000 ) ) ;
#314 = DIRECTION ( 'NONE',  ( -1.000000000000000000, -0.000000000000000000, -0.000000000000000000 ) ) ;
#315 = ADVANCED_FACE ( 'NONE', ( #479 ), #965, .T. ) ;
#316 =( GEOMETRIC_REPRESENTATION_CONTEXT ( 3 ) GLOBAL_UNCERTAINTY_ASSIGNED_CONTEXT ( ( #998 ) ) GLOBAL_UNIT_ASSIGNED_CONTEXT ( ( #686, #39, #289 ) ) REPRESENTATION_CONTEXT ( 'NONE', 'WORKASPACE' ) );
#317 = CARTESIAN_POINT ( 'NONE',  ( 0.2666411873824114376, 0.4052592521765831513, -1.721732169736484019 ) ) ;
#318 = STYLED_ITEM ( 'NONE', ( #405 ), #315 ) ;
#319 = UNCERTAINTY_MEASURE_WITH_UNIT (LENGTH_MEASURE( 1.000000000000000082E-05 ), #466, 'distance_accuracy_value', 'NONE');
#320 = STYLED_ITEM ( 'NONE', ( #229 ), #835 ) ;
#321 =( GEOMETRIC_REPRESENTATION_CONTEXT ( 3 ) GLOBAL_UNCERTAINTY_ASSIGNED_CONTEXT ( ( #152 ) ) GLOBAL_UNIT_ASSIGNED_CONTEXT ( ( #590, #994, #233 ) ) REPRESENTATION_CONTEXT ( 'NONE', 'WORKASPACE' ) );
#322 = ORIENTED_EDGE ( 'NONE', *, *, #422, .F. ) ;
#323 = ORIENTED_EDGE ( 'NONE', *, *, #896, .T. ) ;
#324 = DIRECTION ( 'NONE',  ( 0.7431005017819711789, 0.6640269868487613802, 0.08288428673721986994 ) ) ;
#325 =( NAMED_UNIT ( * ) PLANE_ANGLE_UNIT ( ) SI_UNIT ( $, .RADIAN. ) );
#326 = FACE_OUTER_BOUND ( 'NONE', #478, .T. ) ;
#327 = EDGE_LOOP ( 'NONE', ( #60, #448, #143 ) ) ;
#328 = SURFACE_STYLE_FILL_AREA ( #7 ) ;
#329 = LINE ( 'NONE', #267, #992 ) ;
#330 = FACE_OUTER_BOUND ( 'NONE', #490, .T. ) ;
#331 =( NAMED_UNIT ( * ) SI_UNIT ( $, .STERADIAN. ) SOLID_ANGLE_UNIT ( ) );
#332 = DIRECTION ( 'NONE',  ( -0.9938370308809507669, 0.000000000000000000, 0.1108510534444137052 ) ) ;
#333 = CARTESIAN_POINT ( 'NONE',  ( -25.39999999999996305, 0.000000000000000000, 0.000000000000000000 ) ) ;
#334 = MECHANICAL_DESIGN_GEOMETRIC_PRESENTATION_REPRESENTATION (  '', ( #195 ), #14 ) ;
#335 = AXIS2_PLACEMENT_3D ( 'NONE', #347, #355, #344 ) ;
#336 = FILL_AREA_STYLE_COLOUR ( '', #364 ) ;
#337 = SURFACE_SIDE_STYLE ('',( #748 ) ) ;
#338 = AXIS2_PLACEMENT_3D ( 'NONE', #595, #910, #192 ) ;
#339 = ORIENTED_EDGE ( 'NONE', *, *, #682, .F. ) ;
#340 = FACE_OUTER_BOUND ( 'NONE', #273, .T. ) ;
#341 =( NAMED_UNIT ( * ) SI_UNIT ( $, .STERADIAN. ) SOLID_ANGLE_UNIT ( ) );
#342 = DIRECTION ( 'NONE',  ( -0.000000000000000000, 0.000000000000000000, 1.000000000000000000 ) ) ;
#343 = EDGE_CURVE ( 'NONE', #613, #914, #497, .T. ) ;
#344 = DIRECTION ( 'NONE',  ( 0.9938370308809506559, 0.000000000000000000, 0.1108510534444137469 ) ) ;
#345 = DIRECTION ( 'NONE',  ( -0.9938370308809506559, 0.000000000000000000, 0.1108510534444136914 ) ) ;
#346 = ADVANCED_FACE ( 'NONE', ( #882 ), #95, .T. ) ;
#347 = CARTESIAN_POINT ( 'NONE',  ( 2.193400286944045430, -4.336808689942017736E-16, -0.1903515064562410486 ) ) ;
#348 = SURFACE_STYLE_FILL_AREA ( #898 ) ;
#349 = VECTOR ( 'NONE', #640, 1000.000000000000000 ) ;
#350 = CARTESIAN_POINT ( 'NONE',  ( 5.974195292295553905, -0.2313525518329657138, -8.028830871489587498E-16 ) ) ;
#351 =( GEOMETRIC_REPRESENTATION_CONTEXT ( 3 ) GLOBAL_UNCERTAINTY_ASSIGNED_CONTEXT ( ( #387 ) ) GLOBAL_UNIT_ASSIGNED_CONTEXT ( ( #576, #875, #401 ) ) REPRESENTATION_CONTEXT ( 'NONE', 'WORKASPACE' ) );
#352 = ORIENTED_EDGE ( 'NONE', *, *, #70, .T. ) ;
#353 = AXIS2_PLACEMENT_3D ( 'NONE', #989, #985, #533 ) ;
#354 = PRESENTATION_LAYER_ASSIGNMENT (  '', '', ( #774 ) ) ;
#355 = DIRECTION ( 'NONE',  ( -0.1108510534444137469, 2.096348086633972484E-17, 0.9938370308809506559 ) ) ;
#356 = ADVANCED_FACE ( 'NONE', ( #180 ), #403, .T. ) ;
#357 = ORIENTED_EDGE ( 'NONE', *, *, #197, .T. ) ;
#358 = DIRECTION ( 'NONE',  ( 0.000000000000000000, 0.000000000000000000, 1.000000000000000000 ) ) ;
#359 = DIRECTION ( 'NONE',  ( -1.000000000000000000, -0.000000000000000000, -0.000000000000000000 ) ) ;
#360 = FACE_BOUND ( 'NONE', #839, .T. ) ;
#361 = EDGE_CURVE ( 'NONE', #527, #278, #201, .T. ) ;
#362 = ORIENTED_EDGE ( 'NONE', *, *, #597, .F. ) ;
#363 = STYLED_ITEM ( 'NONE', ( #268 ), #346 ) ;
#364 = COLOUR_RGB ( '',0.7764705882352941346, 0.7568627450980391913, 0.7372549019607843590 ) ;
#365 = FILL_AREA_STYLE ('',( #46 ) ) ;
#366 =( GEOMETRIC_REPRESENTATION_CONTEXT ( 3 ) GLOBAL_UNCERTAINTY_ASSIGNED_CONTEXT ( ( #711 ) ) GLOBAL_UNIT_ASSIGNED_CONTEXT ( ( #430, #674, #123 ) ) REPRESENTATION_CONTEXT ( 'NONE', 'WORKASPACE' ) );
#367 = PLANE ( 'NONE',  #1009 ) ;
#368 = ORIENTED_EDGE ( 'NONE', *, *, #871, .T. ) ;
#369 = CARTESIAN_POINT ( 'NONE',  ( 0.9968214519863044520, 0.000000000000000000, 0.000000000000000000 ) ) ;
#370 = ORIENTED_EDGE ( 'NONE', *, *, #643, .F. ) ;
#371 = DIRECTION ( 'NONE',  ( 0.000000000000000000, -1.246209393661499619E-16, 1.000000000000000000 ) ) ;
#372 = DIRECTION ( 'NONE',  ( 0.6663196743247735698, -0.7456662065614397816, -9.292562311528023527E-17 ) ) ;
#373 = VERTEX_POINT ( 'NONE', #783 ) ;
#374 =( GEOMETRIC_REPRESENTATION_CONTEXT ( 3 ) GLOBAL_UNCERTAINTY_ASSIGNED_CONTEXT ( ( #128 ) ) GLOBAL_UNIT_ASSIGNED_CONTEXT ( ( #177, #681, #522 ) ) REPRESENTATION_CONTEXT ( 'NONE', 'WORKASPACE' ) );
#375 = SURFACE_STYLE_FILL_AREA ( #811 ) ;
#376 = VERTEX_POINT ( 'NONE', #317 ) ;
#377 = PRESENTATION_LAYER_ASSIGNMENT (  '', '', ( #991 ) ) ;
#378 = COLOUR_RGB ( '',0.7764705882352941346, 0.7568627450980391913, 0.7372549019607843590 ) ;
#379 = DIRECTION ( 'NONE',  ( 0.000000000000000000, 0.000000000000000000, 1.000000000000000000 ) ) ;
#380 = DIRECTION ( 'NONE',  ( 0.000000000000000000, 0.000000000000000000, -1.000000000000000000 ) ) ;
#381 = EDGE_CURVE ( 'NONE', #914, #773, #287, .T. ) ;
#382 = COLOUR_RGB ( '',0.7764705882352941346, 0.7568627450980391913, 0.7372549019607843590 ) ;
#383 = SURFACE_SIDE_STYLE ('',( #950 ) ) ;
#384 = CARTESIAN_POINT ( 'NONE',  ( 0.2666411873824114376, -1.721732169736485796, 0.4052592521765768785 ) ) ;
#385 = ORIENTED_EDGE ( 'NONE', *, *, #388, .T. ) ;
#386 = CYLINDRICAL_SURFACE ( 'NONE', #113, 3.500000000000000444 ) ;
#387 = UNCERTAINTY_MEASURE_WITH_UNIT (LENGTH_MEASURE( 1.000000000000000082E-05 ), #576, 'distance_accuracy_value', 'NONE');
#388 = EDGE_CURVE ( 'NONE', #16, #832, #714, .T. ) ;
#389 = ORIENTED_EDGE ( 'NONE', *, *, #665, .T. ) ;
#390 = DIRECTION ( 'NONE',  ( -1.000000000000000000, -0.000000000000000000, -0.000000000000000000 ) ) ;
#391 = ORIENTED_EDGE ( 'NONE', *, *, #445, .F. ) ;
#392 = EDGE_CURVE ( 'NONE', #834, #373, #472, .T. ) ;
#393 = ORIENTED_EDGE ( 'NONE', *, *, #930, .F. ) ;
#394 = SURFACE_STYLE_FILL_AREA ( #61 ) ;
#395 = PRESENTATION_LAYER_ASSIGNMENT (  '', '', ( #846 ) ) ;
#396 =( LENGTH_UNIT ( ) NAMED_UNIT ( * ) SI_UNIT ( .MILLI., .METRE. ) );
#397 = AXIS2_PLACEMENT_3D ( 'NONE', #732, #390, #379 ) ;
#398 = CIRCLE ( 'NONE', #534, 5.995482475482741158 ) ;
#399 = SPHERICAL_SURFACE ( 'NONE', #988, 6.000000000000000000 ) ;
#400 = FILL_AREA_STYLE_COLOUR ( '', #743 ) ;
#401 =( NAMED_UNIT ( * ) SI_UNIT ( $, .STERADIAN. ) SOLID_ANGLE_UNIT ( ) );
#402 = DIRECTION ( 'NONE',  ( 0.000000000000000000, 1.224646799147353207E-16, -1.000000000000000000 ) ) ;
#403 = PLANE ( 'NONE',  #744 ) ;
#404 = ORIENTED_EDGE ( 'NONE', *, *, #519, .F. ) ;
#405 = PRESENTATION_STYLE_ASSIGNMENT (( #565 ) ) ;
#406 = SURFACE_STYLE_FILL_AREA ( #511 ) ;
#407 = DIRECTION ( 'NONE',  ( -1.000000000000000000, -0.000000000000000000, -0.000000000000000000 ) ) ;
#408 = EDGE_CURVE ( 'NONE', #191, #834, #704, .T. ) ;
#409 = CARTESIAN_POINT ( 'NONE',  ( 2.193400286944045430, 4.336808689942017736E-16, 0.1903515064562409931 ) ) ;
#410 = DIRECTION ( 'NONE',  ( -0.7456662065614396706, 0.6663196743247736809, 0.000000000000000000 ) ) ;
#411 = PRESENTATION_STYLE_ASSIGNMENT (( #578 ) ) ;
#412 = FILL_AREA_STYLE ('',( #975 ) ) ;
#413 = AXIS2_PLACEMENT_3D ( 'NONE', #633, #311, #74 ) ;
#414 = PRESENTATION_LAYER_ASSIGNMENT (  '', '', ( #864 ) ) ;
#415 = VECTOR ( 'NONE', #324, 1000.000000000000000 ) ;
#416 = CARTESIAN_POINT ( 'NONE',  ( 6.000000000000000000, 2.326828918379972351E-16, 0.000000000000000000 ) ) ;
#417 = VECTOR ( 'NONE', #371, 1000.000000000000000 ) ;
#418 = MECHANICAL_DESIGN_GEOMETRIC_PRESENTATION_REPRESENTATION (  '', ( #47 ), #435 ) ;
#419 = DIRECTION ( 'NONE',  ( 0.000000000000000000, 1.000000000000000000, 0.000000000000000000 ) ) ;
#420 = CARTESIAN_POINT ( 'NONE',  ( 0.9968214519863044520, 0.000000000000000000, 0.000000000000000000 ) ) ;
#421 = LINE ( 'NONE', #649, #600 ) ;
#422 = EDGE_CURVE ( 'NONE', #919, #137, #654, .T. ) ;
#423 = VERTEX_POINT ( 'NONE', #155 ) ;
#424 =( NAMED_UNIT ( * ) SI_UNIT ( $, .STERADIAN. ) SOLID_ANGLE_UNIT ( ) );
#425 = UNCERTAINTY_MEASURE_WITH_UNIT (LENGTH_MEASURE( 1.000000000000000082E-05 ), #92, 'distance_accuracy_value', 'NONE');
#426 = DIRECTION ( 'NONE',  ( 0.9938370308809506559, 0.000000000000000000, 0.1108510534444137469 ) ) ;
#427 = ORIENTED_EDGE ( 'NONE', *, *, #305, .F. ) ;
#428 = LINE ( 'NONE', #566, #932 ) ;
#429 = MECHANICAL_DESIGN_GEOMETRIC_PRESENTATION_REPRESENTATION (  '', ( #480 ), #1003 ) ;
#430 =( LENGTH_UNIT ( ) NAMED_UNIT ( * ) SI_UNIT ( .MILLI., .METRE. ) );
#431 = MECHANICAL_DESIGN_GEOMETRIC_PRESENTATION_REPRESENTATION (  '', ( #864 ), #183 ) ;
#432 = VECTOR ( 'NONE', #879, 1000.000000000000000 ) ;
#433 = ORIENTED_EDGE ( 'NONE', *, *, #276, .T. ) ;
#434 = VECTOR ( 'NONE', #579, 1000.000000000000000 ) ;
#435 =( GEOMETRIC_REPRESENTATION_CONTEXT ( 3 ) GLOBAL_UNCERTAINTY_ASSIGNED_CONTEXT ( ( #28 ) ) GLOBAL_UNIT_ASSIGNED_CONTEXT ( ( #857, #926, #537 ) ) REPRESENTATION_CONTEXT ( 'NONE', 'WORKASPACE' ) );
#436 = PRESENTATION_STYLE_ASSIGNMENT (( #115 ) ) ;
#437 = CARTESIAN_POINT ( 'NONE',  ( 2.599999999999998312, 2.143131898507868051E-16, -1.749999999999999778 ) ) ;
#438 = ORIENTED_EDGE ( 'NONE', *, *, #361, .F. ) ;
#439 = CARTESIAN_POINT ( 'NONE',  ( 2.599999999999998312, 0.000000000000000000, 0.000000000000000000 ) ) ;
#440 = DIRECTION ( 'NONE',  ( 0.000000000000000000, 0.000000000000000000, 1.000000000000000000 ) ) ;
#441 = SURFACE_STYLE_FILL_AREA ( #940 ) ;
#442 = ORIENTED_EDGE ( 'NONE', *, *, #270, .T. ) ;
#443 = CARTESIAN_POINT ( 'NONE',  ( 0.000000000000000000, 0.4349999999999932254, 1.960000000000001741 ) ) ;
#444 = CARTESIAN_POINT ( 'NONE',  ( 15.60000000000000320, 0.000000000000000000, 0.000000000000000000 ) ) ;
#445 = EDGE_CURVE ( 'NONE', #598, #773, #796, .T. ) ;
#446 = PRESENTATION_LAYER_ASSIGNMENT (  '', '', ( #283 ) ) ;
#447 =( GEOMETRIC_REPRESENTATION_CONTEXT ( 3 ) GLOBAL_UNCERTAINTY_ASSIGNED_CONTEXT ( ( #215 ) ) GLOBAL_UNIT_ASSIGNED_CONTEXT ( ( #396, #242, #715 ) ) REPRESENTATION_CONTEXT ( 'NONE', 'WORKASPACE' ) );
#448 = ORIENTED_EDGE ( 'NONE', *, *, #529, .T. ) ;
#449 = DIRECTION ( 'NONE',  ( 0.000000000000000000, 0.000000000000000000, 1.000000000000000000 ) ) ;
#450 = COLOUR_RGB ( '',0.7764705882352941346, 0.7568627450980391913, 0.7372549019607843590 ) ;
#451 = CIRCLE ( 'NONE', #591, 3.500000000000000444 ) ;
#452 = ORIENTED_EDGE ( 'NONE', *, *, #717, .T. ) ;
#453 = CARTESIAN_POINT ( 'NONE',  ( 5.974195292295553905, 2.619630734554813543E-16, -0.2313525518329656583 ) ) ;
#454 = DIRECTION ( 'NONE',  ( 0.6663196743247736809, 2.696405268330496226E-15, -0.7456662065614397816 ) ) ;
#455 =( NAMED_UNIT ( * ) PLANE_ANGLE_UNIT ( ) SI_UNIT ( $, .RADIAN. ) );
#456 = CYLINDRICAL_SURFACE ( 'NONE', #706, 3.500000000000000444 ) ;
#457 = DIRECTION ( 'NONE',  ( 0.9938370308809506559, -0.1108510534444137469, -3.870343844922734420E-16 ) ) ;
#458 = DIRECTION ( 'NONE',  ( -0.1108510534444137469, 2.096348086633972484E-17, 0.9938370308809506559 ) ) ;
#459 = CARTESIAN_POINT ( 'NONE',  ( 1.949999999999999956, 0.2174999999999999989, 0.2174999999999999711 ) ) ;
#460 = UNCERTAINTY_MEASURE_WITH_UNIT (LENGTH_MEASURE( 1.000000000000000082E-05 ), #538, 'distance_accuracy_value', 'NONE');
#461 = DIRECTION ( 'NONE',  ( 0.7456662065614397816, 0.6663196743247735698, 0.000000000000000000 ) ) ;
#462 = SURFACE_STYLE_USAGE ( .BOTH. , #629 ) ;
#463 = SURFACE_SIDE_STYLE ('',( #176 ) ) ;
#464 = ORIENTED_EDGE ( 'NONE', *, *, #822, .F. ) ;
#465 = AXIS2_PLACEMENT_3D ( 'NONE', #713, #860, #630 ) ;
#466 =( LENGTH_UNIT ( ) NAMED_UNIT ( * ) SI_UNIT ( .MILLI., .METRE. ) );
#467 = SURFACE_SIDE_STYLE ('',( #172 ) ) ;
#468 = EDGE_CURVE ( 'NONE', #970, #196, #944, .T. ) ;
#469 =( GEOMETRIC_REPRESENTATION_CONTEXT ( 3 ) GLOBAL_UNCERTAINTY_ASSIGNED_CONTEXT ( ( #109 ) ) GLOBAL_UNIT_ASSIGNED_CONTEXT ( ( #144, #72, #300 ) ) REPRESENTATION_CONTEXT ( 'NONE', 'WORKASPACE' ) );
#470 = FILL_AREA_STYLE_COLOUR ( '', #221 ) ;
#471 = ORIENTED_EDGE ( 'NONE', *, *, #276, .F. ) ;
#472 = LINE ( 'NONE', #552, #415 ) ;
#473 =( NAMED_UNIT ( * ) PLANE_ANGLE_UNIT ( ) SI_UNIT ( $, .RADIAN. ) );
#474 = ADVANCED_FACE ( 'NONE', ( #481 ), #939, .T. ) ;
#475 = FACE_OUTER_BOUND ( 'NONE', #618, .T. ) ;
#476 = FILL_AREA_STYLE_COLOUR ( '', #238 ) ;
#477 = SURFACE_STYLE_USAGE ( .BOTH. , #383 ) ;
#478 = EDGE_LOOP ( 'NONE', ( #789, #54, #357, #49, #471, #322, #753, #27, #438, #795, #129 ) ) ;
#479 = FACE_OUTER_BOUND ( 'NONE', #946, .T. ) ;
#480 = STYLED_ITEM ( 'NONE', ( #793 ), #33 ) ;
#481 = FACE_OUTER_BOUND ( 'NONE', #909, .T. ) ;
#482 = AXIS2_PLACEMENT_3D ( 'NONE', #809, #402, #556 ) ;
#483 = CARTESIAN_POINT ( 'NONE',  ( 1.949999999999999956, -0.2175000000000006928, 0.2174999999999992495 ) ) ;
#484 = AXIS2_PLACEMENT_3D ( 'NONE', #804, #85, #955 ) ;
#485 = UNCERTAINTY_MEASURE_WITH_UNIT (LENGTH_MEASURE( 1.000000000000000082E-05 ), #853, 'distance_accuracy_value', 'NONE');
#486 = SHAPE_DEFINITION_REPRESENTATION ( #960, #694 ) ;
#487 = AXIS2_PLACEMENT_3D ( 'NONE', #369, #850, #138 ) ;
#488 = COLOUR_RGB ( '',0.7764705882352941346, 0.7568627450980391913, 0.7372549019607843590 ) ;
#489 = FILL_AREA_STYLE ('',( #883 ) ) ;
#490 = EDGE_LOOP ( 'NONE', ( #984, #89, #987, #393 ) ) ;
#491 = EDGE_CURVE ( 'NONE', #373, #137, #329, .T. ) ;
#492 = LINE ( 'NONE', #808, #434 ) ;
#493 = CARTESIAN_POINT ( 'NONE',  ( 4.309938594911940868, -1.891316923914901471, 0.000000000000000000 ) ) ;
#494 =( LENGTH_UNIT ( ) NAMED_UNIT ( * ) SI_UNIT ( .MILLI., .METRE. ) );
#495 = ADVANCED_FACE ( 'NONE', ( #25 ), #175, .T. ) ;
#496 = CARTESIAN_POINT ( 'NONE',  ( 1.949999999999999956, -0.2175000000000000266, -0.2174999999999999989 ) ) ;
#497 = LINE ( 'NONE', #818, #829 ) ;
#498 = DIRECTION ( 'NONE',  ( -1.000000000000000000, -0.000000000000000000, -0.000000000000000000 ) ) ;
#499 =( LENGTH_UNIT ( ) NAMED_UNIT ( * ) SI_UNIT ( .MILLI., .METRE. ) );
#500 = VECTOR ( 'NONE', #297, 1000.000000000000000 ) ;
#501 = ADVANCED_FACE ( 'NONE', ( #340 ), #585, .F. ) ;
#502 = AXIS2_PLACEMENT_3D ( 'NONE', #409, #661, #345 ) ;
#503 = AXIS2_PLACEMENT_3D ( 'NONE', #962, #824, #332 ) ;
#504 =( LENGTH_UNIT ( ) NAMED_UNIT ( * ) SI_UNIT ( .MILLI., .METRE. ) );
#505 = CIRCLE ( 'NONE', #621, 6.000000000000000000 ) ;
#506 = STYLED_ITEM ( 'NONE', ( #900 ), #920 ) ;
#507 = CARTESIAN_POINT ( 'NONE',  ( 1.949999999999999956, 0.2175000000000007205, -0.2174999999999992772 ) ) ;
#508 = CARTESIAN_POINT ( 'NONE',  ( 0.2666411873824114376, -0.4052592521765831513, 1.721732169736483131 ) ) ;
#509 = FILL_AREA_STYLE_COLOUR ( '', #32 ) ;
#510 = ORIENTED_EDGE ( 'NONE', *, *, #519, .T. ) ;
#511 = FILL_AREA_STYLE ('',( #659 ) ) ;
#512 = FACE_OUTER_BOUND ( 'NONE', #712, .T. ) ;
#513 = ORIENTED_EDGE ( 'NONE', *, *, #563, .T. ) ;
#514 = CARTESIAN_POINT ( 'NONE',  ( 2.599999999999998312, 0.000000000000000000, 0.000000000000000000 ) ) ;
#515 = AXIS2_PLACEMENT_3D ( 'NONE', #26, #498, #94 ) ;
#516 = CIRCLE ( 'NONE', #482, 6.000000000000000000 ) ;
#517 = ORIENTED_EDGE ( 'NONE', *, *, #1001, .F. ) ;
#518 = PRESENTATION_LAYER_ASSIGNMENT (  '', '', ( #790 ) ) ;
#519 = EDGE_CURVE ( 'NONE', #938, #970, #847, .T. ) ;
#520 = AXIS2_PLACEMENT_3D ( 'NONE', #700, #862, #48 ) ;
#521 = DIRECTION ( 'NONE',  ( 0.000000000000000000, 0.000000000000000000, 1.000000000000000000 ) ) ;
#522 =( NAMED_UNIT ( * ) SI_UNIT ( $, .STERADIAN. ) SOLID_ANGLE_UNIT ( ) );
#523 = LINE ( 'NONE', #838, #117 ) ;
#524 = ORIENTED_EDGE ( 'NONE', *, *, #160, .F. ) ;
#525 = LINE ( 'NONE', #443, #81 ) ;
#526 = PLANE ( 'NONE',  #530 ) ;
#527 = VERTEX_POINT ( 'NONE', #30 ) ;
#528 = PRODUCT_DEFINITION_CONTEXT ( 'detailed design', #51, 'design' ) ;
#529 = EDGE_CURVE ( 'NONE', #278, #423, #428, .T. ) ;
#530 = AXIS2_PLACEMENT_3D ( 'NONE', #303, #622, #226 ) ;
#531 = ORIENTED_EDGE ( 'NONE', *, *, #127, .T. ) ;
#532 =( GEOMETRIC_REPRESENTATION_CONTEXT ( 3 ) GLOBAL_UNCERTAINTY_ASSIGNED_CONTEXT ( ( #872 ) ) GLOBAL_UNIT_ASSIGNED_CONTEXT ( ( #87, #735, #341 ) ) REPRESENTATION_CONTEXT ( 'NONE', 'WORKASPACE' ) );
#533 = DIRECTION ( 'NONE',  ( 0.7456662065614396706, 0.6663196743247736809, 0.000000000000000000 ) ) ;
#534 = AXIS2_PLACEMENT_3D ( 'NONE', #996, #614, #292 ) ;
#535 = STYLED_ITEM ( 'NONE', ( #558 ), #694 ) ;
#536 = SURFACE_SIDE_STYLE ('',( #220 ) ) ;
#537 =( NAMED_UNIT ( * ) SI_UNIT ( $, .STERADIAN. ) SOLID_ANGLE_UNIT ( ) );
#538 =( LENGTH_UNIT ( ) NAMED_UNIT ( * ) SI_UNIT ( .MILLI., .METRE. ) );
#539 = FILL_AREA_STYLE ('',( #336 ) ) ;
#540 = ORIENTED_EDGE ( 'NONE', *, *, #121, .F. ) ;
#541 = CARTESIAN_POINT ( 'NONE',  ( 0.03111693966988647586, -0.4315292644214340778, -0.4315292644214357987 ) ) ;
#542 = CARTESIAN_POINT ( 'NONE',  ( 1.949999999999999956, -0.2175000000000000266, -0.2174999999999999711 ) ) ;
#543 = CYLINDRICAL_SURFACE ( 'NONE', #413, 1.749999999999999778 ) ;
#544 = ORIENTED_EDGE ( 'NONE', *, *, #959, .T. ) ;
#545 = SURFACE_STYLE_USAGE ( .BOTH. , #231 ) ;
#546 = UNCERTAINTY_MEASURE_WITH_UNIT (LENGTH_MEASURE( 1.000000000000000082E-05 ), #209, 'distance_accuracy_value', 'NONE');
#547 = DIRECTION ( 'NONE',  ( -0.9938370308809506559, -0.1108510534444136914, -3.870343844922732447E-16 ) ) ;
#548 = FACE_OUTER_BOUND ( 'NONE', #41, .T. ) ;
#549 = COLOUR_RGB ( '',0.7764705882352941346, 0.7568627450980391913, 0.7372549019607843590 ) ;
#550 = PRESENTATION_STYLE_ASSIGNMENT (( #257 ) ) ;
#551 = STYLED_ITEM ( 'NONE', ( #262 ), #501 ) ;
#552 = CARTESIAN_POINT ( 'NONE',  ( 0.000000000000000000, -1.959999999999999964, -0.4349999999999999978 ) ) ;
#553 =( LENGTH_UNIT ( ) NAMED_UNIT ( * ) SI_UNIT ( .MILLI., .METRE. ) );
#554 = CIRCLE ( 'NONE', #1007, 1.749999999999999778 ) ;
#555 = MECHANICAL_DESIGN_GEOMETRIC_PRESENTATION_REPRESENTATION (  '', ( #774 ), #366 ) ;
#556 = DIRECTION ( 'NONE',  ( 0.000000000000000000, 1.000000000000000000, 1.224646799147353207E-16 ) ) ;
#557 = UNCERTAINTY_MEASURE_WITH_UNIT (LENGTH_MEASURE( 1.000000000000000082E-05 ), #499, 'distance_accuracy_value', 'NONE');
#558 = PRESENTATION_STYLE_ASSIGNMENT (( #569 ) ) ;
#559 = EDGE_LOOP ( 'NONE', ( #6, #668 ) ) ;
#560 = ORIENTED_EDGE ( 'NONE', *, *, #156, .T. ) ;
#561 = DIRECTION ( 'NONE',  ( -1.000000000000000000, -0.000000000000000000, -0.000000000000000000 ) ) ;
#562 = FILL_AREA_STYLE_COLOUR ( '', #378 ) ;
#563 = EDGE_CURVE ( 'NONE', #196, #867, #886, .T. ) ;
#564 = SURFACE_STYLE_FILL_AREA ( #489 ) ;
#565 = SURFACE_STYLE_USAGE ( .BOTH. , #253 ) ;
#566 = CARTESIAN_POINT ( 'NONE',  ( 2.214116351126373949, 0.1880408685282127790, -0.1880408685282121406 ) ) ;
#567 = COLOUR_RGB ( '',0.7764705882352941346, 0.7568627450980391913, 0.7372549019607843590 ) ;
#568 = FILL_AREA_STYLE_COLOUR ( '', #588 ) ;
#569 = SURFACE_STYLE_USAGE ( .BOTH. , #964 ) ;
#570 = AXIS2_PLACEMENT_3D ( 'NONE', #212, #692, #449 ) ;
#571 = SURFACE_SIDE_STYLE ('',( #750 ) ) ;
#572 = COLOUR_RGB ( '',0.7764705882352941346, 0.7568627450980391913, 0.7372549019607843590 ) ;
#573 = FILL_AREA_STYLE ('',( #88 ) ) ;
#574 = EDGE_CURVE ( 'NONE', #245, #867, #492, .T. ) ;
#575 = CARTESIAN_POINT ( 'NONE',  ( 0.000000000000000000, 0.000000000000000000, 0.000000000000000000 ) ) ;
#576 =( LENGTH_UNIT ( ) NAMED_UNIT ( * ) SI_UNIT ( .MILLI., .METRE. ) );
#577 = SURFACE_STYLE_USAGE ( .BOTH. , #463 ) ;
#578 = SURFACE_STYLE_USAGE ( .BOTH. , #337 ) ;
#579 = DIRECTION ( 'NONE',  ( 0.7431005017819711789, 0.08288428673722224305, -0.6640269868487610472 ) ) ;
#580 = DIRECTION ( 'NONE',  ( 0.000000000000000000, 1.000000000000000000, 6.231046968307495628E-17 ) ) ;
#581 = DIRECTION ( 'NONE',  ( -0.000000000000000000, 0.000000000000000000, -1.000000000000000000 ) ) ;
#582 = SURFACE_STYLE_USAGE ( .BOTH. , #972 ) ;
#583 = DIRECTION ( 'NONE',  ( 0.000000000000000000, 1.000000000000000000, 0.000000000000000000 ) ) ;
#584 = ORIENTED_EDGE ( 'NONE', *, *, #893, .T. ) ;
#585 = PLANE ( 'NONE',  #272 ) ;
#586 = AXIS2_PLACEMENT_3D ( 'NONE', #696, #925, #440 ) ;
#587 = ADVANCED_FACE ( 'NONE', ( #9 ), #979, .T. ) ;
#588 = COLOUR_RGB ( '',0.7764705882352941346, 0.7568627450980391913, 0.7372549019607843590 ) ;
#589 = MECHANICAL_DESIGN_GEOMETRIC_PRESENTATION_REPRESENTATION (  '', ( #116 ), #259 ) ;
#590 =( LENGTH_UNIT ( ) NAMED_UNIT ( * ) SI_UNIT ( .MILLI., .METRE. ) );
#591 = AXIS2_PLACEMENT_3D ( 'NONE', #290, #698, #227 ) ;
#592 = VERTEX_POINT ( 'NONE', #651 ) ;
#593 =( NAMED_UNIT ( * ) PLANE_ANGLE_UNIT ( ) SI_UNIT ( $, .RADIAN. ) );
#594 = FACE_OUTER_BOUND ( 'NONE', #153, .T. ) ;
#595 = CARTESIAN_POINT ( 'NONE',  ( 0.9968214519863044520, 0.000000000000000000, 0.000000000000000000 ) ) ;
#596 = DIRECTION ( 'NONE',  ( 1.000000000000000000, 0.000000000000000000, 0.000000000000000000 ) ) ;
#597 = EDGE_CURVE ( 'NONE', #162, #592, #599, .T. ) ;
#598 = VERTEX_POINT ( 'NONE', #843 ) ;
#599 = LINE ( 'NONE', #279, #65 ) ;
#600 = VECTOR ( 'NONE', #752, 1000.000000000000000 ) ;
#601 = DIRECTION ( 'NONE',  ( 0.000000000000000000, 0.000000000000000000, 1.000000000000000000 ) ) ;
#602 = STYLED_ITEM ( 'NONE', ( #158 ), #228 ) ;
#603 = COLOUR_RGB ( '',0.7764705882352941346, 0.7568627450980391913, 0.7372549019607843590 ) ;
#604 = ORIENTED_EDGE ( 'NONE', *, *, #563, .F. ) ;
#605 = AXIS2_PLACEMENT_3D ( 'NONE', #1002, #648, #719 ) ;
#606 = PRESENTATION_LAYER_ASSIGNMENT (  '', '', ( #47 ) ) ;
#607 = DIRECTION ( 'NONE',  ( 0.000000000000000000, 0.000000000000000000, 1.000000000000000000 ) ) ;
#608 = PRESENTATION_STYLE_ASSIGNMENT (( #780 ) ) ;
#609 = PRESENTATION_STYLE_ASSIGNMENT (( #923 ) ) ;
#610 = ORIENTED_EDGE ( 'NONE', *, *, #678, .F. ) ;
#611 = SURFACE_STYLE_FILL_AREA ( #699 ) ;
#612 = EDGE_CURVE ( 'NONE', #162, #16, #637, .T. ) ;
#613 = VERTEX_POINT ( 'NONE', #199 ) ;
#614 = DIRECTION ( 'NONE',  ( -0.1108510534444136914, 0.9938370308809506559, 3.595744332370143968E-15 ) ) ;
#615 = EDGE_CURVE ( 'NONE', #895, #245, #398, .T. ) ;
#616 = SURFACE_STYLE_FILL_AREA ( #1005 ) ;
#617 = COLOUR_RGB ( '',0.7764705882352941346, 0.7568627450980391913, 0.7372549019607843590 ) ;
#618 = EDGE_LOOP ( 'NONE', ( #943, #157, #211, #695 ) ) ;
#619 = COLOUR_RGB ( '',0.7764705882352941346, 0.7568627450980391913, 0.7372549019607843590 ) ;
#620 = CIRCLE ( 'NONE', #487, 3.311827956989247479 ) ;
#621 = AXIS2_PLACEMENT_3D ( 'NONE', #747, #342, #596 ) ;
#622 = DIRECTION ( 'NONE',  ( -1.000000000000000000, 0.000000000000000000, -0.000000000000000000 ) ) ;
#623 =( GEOMETRIC_REPRESENTATION_CONTEXT ( 3 ) GLOBAL_UNCERTAINTY_ASSIGNED_CONTEXT ( ( #794 ) ) GLOBAL_UNIT_ASSIGNED_CONTEXT ( ( #810, #876, #250 ) ) REPRESENTATION_CONTEXT ( 'NONE', 'WORKASPACE' ) );
#624 = CARTESIAN_POINT ( 'NONE',  ( 2.599999999999998312, 4.286263797015736595E-16, -3.500000000000000000 ) ) ;
#625 = SURFACE_STYLE_USAGE ( .BOTH. , #59 ) ;
#626 = DIRECTION ( 'NONE',  ( -0.9938370308809507669, -0.1108510534444137052, 0.000000000000000000 ) ) ;
#627 = FACE_OUTER_BOUND ( 'NONE', #295, .T. ) ;
#628 = FILL_AREA_STYLE_COLOUR ( '', #572 ) ;
#629 = SURFACE_SIDE_STYLE ('',( #307 ) ) ;
#630 = DIRECTION ( 'NONE',  ( 0.7456662065614395596, 0.000000000000000000, -0.6663196743247737919 ) ) ;
#631 = DIRECTION ( 'NONE',  ( 0.9938370308809507669, 0.000000000000000000, 0.1108510534444137746 ) ) ;
#632 = SURFACE_STYLE_FILL_AREA ( #949 ) ;
#633 = CARTESIAN_POINT ( 'NONE',  ( -25.39999999999996305, 0.000000000000000000, 0.000000000000000000 ) ) ;
#634 = CIRCLE ( 'NONE', #863, 3.311827956989247479 ) ;
#635 =( GEOMETRIC_REPRESENTATION_CONTEXT ( 3 ) GLOBAL_UNCERTAINTY_ASSIGNED_CONTEXT ( ( #237 ) ) GLOBAL_UNIT_ASSIGNED_CONTEXT ( ( #722, #880, #1016 ) ) REPRESENTATION_CONTEXT ( 'NONE', 'WORKASPACE' ) );
#636 = VERTEX_POINT ( 'NONE', #217 ) ;
#637 = CIRCLE ( 'NONE', #2, 3.500000000000000000 ) ;
#638 = FACE_OUTER_BOUND ( 'NONE', #807, .T. ) ;
#639 = MECHANICAL_DESIGN_GEOMETRIC_PRESENTATION_REPRESENTATION (  '', ( #506 ), #321 ) ;
#640 = DIRECTION ( 'NONE',  ( -0.9877866216249070463, 0.1101762001043161965, 0.1101762001043165434 ) ) ;
#641 = DIRECTION ( 'NONE',  ( -0.1108510534444136914, 0.9938370308809506559, 3.595744332370143968E-15 ) ) ;
#642 = SURFACE_STYLE_USAGE ( .BOTH. , #997 ) ;
#643 = EDGE_CURVE ( 'NONE', #826, #191, #288, .T. ) ;
#644 = FACE_OUTER_BOUND ( 'NONE', #999, .T. ) ;
#645 = DIRECTION ( 'NONE',  ( -0.1108510534444137469, 2.096348086633972484E-17, 0.9938370308809506559 ) ) ;
#646 = FILL_AREA_STYLE_COLOUR ( '', #948 ) ;
#647 = FILL_AREA_STYLE ('',( #562 ) ) ;
#648 = DIRECTION ( 'NONE',  ( -0.1108510534444136914, 1.257808851980383614E-16, -0.9938370308809506559 ) ) ;
#649 = CARTESIAN_POINT ( 'NONE',  ( 0.000000000000000000, 1.959999999999999964, -0.4350000000000000533 ) ) ;
#650 = ORIENTED_EDGE ( 'NONE', *, *, #658, .F. ) ;
#651 = CARTESIAN_POINT ( 'NONE',  ( 1.347043950347265318, 0.000000000000000000, 3.500000000000000444 ) ) ;
#652 = AXIS2_PLACEMENT_3D ( 'NONE', #483, #728, #263 ) ;
#653 = CARTESIAN_POINT ( 'NONE',  ( 1.949999999999999956, 0.2175000000000001377, 0.2174999999999999711 ) ) ;
#654 = CIRCLE ( 'NONE', #917, 5.995482475482741158 ) ;
#655 = SURFACE_STYLE_FILL_AREA ( #173 ) ;
#656 = STYLED_ITEM ( 'NONE', ( #550 ), #798 ) ;
#657 = PRESENTATION_LAYER_ASSIGNMENT (  '', '', ( #729 ) ) ;
#658 = EDGE_CURVE ( 'NONE', #773, #914, #554, .T. ) ;
#659 = FILL_AREA_STYLE_COLOUR ( '', #603 ) ;
#660 = APPLICATION_CONTEXT ( 'automotive_design' ) ;
#661 = DIRECTION ( 'NONE',  ( -0.1108510534444136914, 1.257808851980383614E-16, -0.9938370308809506559 ) ) ;
#662 = DIRECTION ( 'NONE',  ( -0.1108510534444137469, -0.9938370308809506559, -3.448999966305766196E-15 ) ) ;
#663 = SURFACE_STYLE_FILL_AREA ( #836 ) ;
#664 = ORIENTED_EDGE ( 'NONE', *, *, #678, .T. ) ;
#665 = EDGE_CURVE ( 'NONE', #373, #867, #840, .T. ) ;
#666 = SURFACE_STYLE_USAGE ( .BOTH. , #264 ) ;
#667 = CARTESIAN_POINT ( 'NONE',  ( -25.39999999999996305, 0.000000000000000000, 0.000000000000000000 ) ) ;
#668 = ORIENTED_EDGE ( 'NONE', *, *, #764, .F. ) ;
#669 =( LENGTH_UNIT ( ) NAMED_UNIT ( * ) SI_UNIT ( .MILLI., .METRE. ) );
#670 = PRESENTATION_LAYER_ASSIGNMENT (  '', '', ( #480 ) ) ;
#671 = STYLED_ITEM ( 'NONE', ( #147 ), #179 ) ;
#672 = MECHANICAL_DESIGN_GEOMETRIC_PRESENTATION_REPRESENTATION (  '', ( #302 ), #351 ) ;
#673 = CIRCLE ( 'NONE', #101, 3.500000000000000000 ) ;
#674 =( NAMED_UNIT ( * ) PLANE_ANGLE_UNIT ( ) SI_UNIT ( $, .RADIAN. ) );
#675 = AXIS2_PLACEMENT_3D ( 'NONE', #420, #118, #358 ) ;
#676 = DIRECTION ( 'NONE',  ( 0.6663196743247735698, 2.696405268330496621E-15, -0.7456662065614397816 ) ) ;
#677 = FILL_AREA_STYLE_COLOUR ( '', #301 ) ;
#678 = EDGE_CURVE ( 'NONE', #82, #938, #186, .T. ) ;
#679 = ORIENTED_EDGE ( 'NONE', *, *, #392, .F. ) ;
#680 = CARTESIAN_POINT ( 'NONE',  ( 2.599999999999998312, 0.000000000000000000, 1.749999999999999778 ) ) ;
#681 =( NAMED_UNIT ( * ) PLANE_ANGLE_UNIT ( ) SI_UNIT ( $, .RADIAN. ) );
#682 = EDGE_CURVE ( 'NONE', #812, #995, #620, .T. ) ;
#683 = FILL_AREA_STYLE ('',( #269 ) ) ;
#684 = ORIENTED_EDGE ( 'NONE', *, *, #83, .T. ) ;
#685 = PRESENTATION_LAYER_ASSIGNMENT (  '', '', ( #96 ) ) ;
#686 =( LENGTH_UNIT ( ) NAMED_UNIT ( * ) SI_UNIT ( .MILLI., .METRE. ) );
#687 =( LENGTH_UNIT ( ) NAMED_UNIT ( * ) SI_UNIT ( .MILLI., .METRE. ) );
#688 = PRESENTATION_LAYER_ASSIGNMENT (  '', '', ( #905 ) ) ;
#689 = ORIENTED_EDGE ( 'NONE', *, *, #83, .F. ) ;
#690 = EDGE_CURVE ( 'NONE', #826, #895, #705, .T. ) ;
#691 = PRESENTATION_LAYER_ASSIGNMENT (  '', '', ( #535 ) ) ;
#692 = DIRECTION ( 'NONE',  ( -1.000000000000000000, -0.000000000000000000, -0.000000000000000000 ) ) ;
#693 = SURFACE_STYLE_FILL_AREA ( #365 ) ;
#694 = ADVANCED_BREP_SHAPE_REPRESENTATION ( 'M3.5 x 13 Screw head', ( #33, #261 ), #869 ) ;
#695 = ORIENTED_EDGE ( 'NONE', *, *, #381, .F. ) ;
#696 = CARTESIAN_POINT ( 'NONE',  ( 15.60000000000000320, 0.000000000000000000, 0.000000000000000000 ) ) ;
#697 = UNCERTAINTY_MEASURE_WITH_UNIT (LENGTH_MEASURE( 1.000000000000000082E-05 ), #494, 'distance_accuracy_value', 'NONE');
#698 = DIRECTION ( 'NONE',  ( -1.000000000000000000, -0.000000000000000000, -0.000000000000000000 ) ) ;
#699 = FILL_AREA_STYLE ('',( #897 ) ) ;
#700 = CARTESIAN_POINT ( 'NONE',  ( 4.309938594911940868, -1.891316923914901471, 0.000000000000000000 ) ) ;
#701 = MECHANICAL_DESIGN_GEOMETRIC_PRESENTATION_REPRESENTATION (  '', ( #725 ), #374 ) ;
#702 = AXIS2_PLACEMENT_3D ( 'NONE', #854, #202, #457 ) ;
#703 = FILL_AREA_STYLE_COLOUR ( '', #617 ) ;
#704 = CIRCLE ( 'NONE', #726, 5.437518987584764929 ) ;
#705 = CIRCLE ( 'NONE', #134, 5.995482475482741158 ) ;
#706 = AXIS2_PLACEMENT_3D ( 'NONE', #667, #761, #601 ) ;
#707 = DIRECTION ( 'NONE',  ( -1.000000000000000000, -0.000000000000000000, -0.000000000000000000 ) ) ;
#708 = PRODUCT_DEFINITION_FORMATION_WITH_SPECIFIED_SOURCE ( 'ANY', '', #741, .NOT_KNOWN. ) ;
#709 = DIRECTION ( 'NONE',  ( -0.000000000000000000, 1.000000000000000000, 1.224646799147353207E-16 ) ) ;
#710 = DIRECTION ( 'NONE',  ( 0.000000000000000000, 0.000000000000000000, 1.000000000000000000 ) ) ;
#711 = UNCERTAINTY_MEASURE_WITH_UNIT (LENGTH_MEASURE( 1.000000000000000082E-05 ), #430, 'distance_accuracy_value', 'NONE');
#712 = EDGE_LOOP ( 'NONE', ( #664, #73, #877 ) ) ;
#713 = CARTESIAN_POINT ( 'NONE',  ( 4.309938594911940868, 6.836180637525074799E-15, -1.891316923914901693 ) ) ;
#714 = LINE ( 'NONE', #1011, #866 ) ;
#715 =( NAMED_UNIT ( * ) SI_UNIT ( $, .STERADIAN. ) SOLID_ANGLE_UNIT ( ) );
#716 = CARTESIAN_POINT ( 'NONE',  ( 2.193400286944045430, -0.1903515064562409931, -2.309278636184418912E-16 ) ) ;
#717 = EDGE_CURVE ( 'NONE', #82, #196, #525, .T. ) ;
#718 = PRESENTATION_STYLE_ASSIGNMENT (( #462 ) ) ;
#719 = DIRECTION ( 'NONE',  ( -0.9938370308809506559, 0.000000000000000000, 0.1108510534444136914 ) ) ;
#720 = DIRECTION ( 'NONE',  ( 0.9877866216249069353, 0.1101762001043169042, -0.1101762001043164879 ) ) ;
#721 = DIRECTION ( 'NONE',  ( -1.000000000000000000, -0.000000000000000000, -0.000000000000000000 ) ) ;
#722 =( LENGTH_UNIT ( ) NAMED_UNIT ( * ) SI_UNIT ( .MILLI., .METRE. ) );
#723 = DIRECTION ( 'NONE',  ( -0.1108510534444136914, 0.9938370308809506559, 3.595744332370143179E-15 ) ) ;
#724 = FILL_AREA_STYLE_COLOUR ( '', #973 ) ;
#725 = STYLED_ITEM ( 'NONE', ( #411 ), #35 ) ;
#726 = AXIS2_PLACEMENT_3D ( 'NONE', #236, #870, #310 ) ;
#727 = MECHANICAL_DESIGN_GEOMETRIC_PRESENTATION_REPRESENTATION (  '', ( #790 ), #830 ) ;
#728 = DIRECTION ( 'NONE',  ( 0.6663196743247735698, -2.603479645215216163E-15, 0.7456662065614397816 ) ) ;
#729 = STYLED_ITEM ( 'NONE', ( #609 ), #986 ) ;
#730 = DIRECTION ( 'NONE',  ( 0.000000000000000000, 0.000000000000000000, 1.000000000000000000 ) ) ;
#731 = CARTESIAN_POINT ( 'NONE',  ( 5.974195292295553905, 2.375629221075779134E-16, 0.2313525518329657416 ) ) ;
#732 = CARTESIAN_POINT ( 'NONE',  ( 2.599999999999998312, 0.000000000000000000, 0.000000000000000000 ) ) ;
#733 = SURFACE_SIDE_STYLE ('',( #632 ) ) ;
#734 = UNCERTAINTY_MEASURE_WITH_UNIT (LENGTH_MEASURE( 1.000000000000000082E-05 ), #738, 'distance_accuracy_value', 'NONE');
#735 =( NAMED_UNIT ( * ) PLANE_ANGLE_UNIT ( ) SI_UNIT ( $, .RADIAN. ) );
#736 = ORIENTED_EDGE ( 'NONE', *, *, #392, .T. ) ;
#737 = SURFACE_STYLE_USAGE ( .BOTH. , #733 ) ;
#738 =( LENGTH_UNIT ( ) NAMED_UNIT ( * ) SI_UNIT ( .MILLI., .METRE. ) );
#739 = CARTESIAN_POINT ( 'NONE',  ( 1.347043950347265318, 4.286263797015737088E-16, -3.500000000000000444 ) ) ;
#740 = PRESENTATION_STYLE_ASSIGNMENT (( #13 ) ) ;
#741 = PRODUCT ( 'M3.5 x 13 Screw head', 'M3.5 x 13 Screw head', '', ( #71 ) ) ;
#742 = SURFACE_STYLE_USAGE ( .BOTH. , #904 ) ;
#743 = COLOUR_RGB ( '',0.7764705882352941346, 0.7568627450980391913, 0.7372549019607843590 ) ;
#744 = AXIS2_PLACEMENT_3D ( 'NONE', #313, #140, #855 ) ;
#745 = AXIS2_PLACEMENT_3D ( 'NONE', #493, #308, #410 ) ;
#746 = AXIS2_PLACEMENT_3D ( 'NONE', #1024, #314, #889 ) ;
#747 = CARTESIAN_POINT ( 'NONE',  ( 6.000000000000000000, 2.326828918379972351E-16, 0.000000000000000000 ) ) ;
#748 = SURFACE_STYLE_FILL_AREA ( #573 ) ;
#749 =( NAMED_UNIT ( * ) PLANE_ANGLE_UNIT ( ) SI_UNIT ( $, .RADIAN. ) );
#750 = SURFACE_STYLE_FILL_AREA ( #20 ) ;
#751 = PRESENTATION_STYLE_ASSIGNMENT (( #21 ) ) ;
#752 = DIRECTION ( 'NONE',  ( 0.7431005017819711789, -0.6640269868487613802, 0.08288428673721989770 ) ) ;
#753 = ORIENTED_EDGE ( 'NONE', *, *, #121, .T. ) ;
#754 = EDGE_LOOP ( 'NONE', ( #902, #442, #281 ) ) ;
#755 = EDGE_CURVE ( 'NONE', #188, #37, #31, .T. ) ;
#756 = MECHANICAL_DESIGN_GEOMETRIC_PRESENTATION_REPRESENTATION (  '', ( #283 ), #77 ) ;
#757 =( GEOMETRIC_REPRESENTATION_CONTEXT ( 3 ) GLOBAL_UNCERTAINTY_ASSIGNED_CONTEXT ( ( #139 ) ) GLOBAL_UNIT_ASSIGNED_CONTEXT ( ( #553, #473, #1023 ) ) REPRESENTATION_CONTEXT ( 'NONE', 'WORKASPACE' ) );
#758 = PRESENTATION_LAYER_ASSIGNMENT (  '', '', ( #116 ) ) ;
#759 = ORIENTED_EDGE ( 'NONE', *, *, #971, .T. ) ;
#760 = SURFACE_SIDE_STYLE ('',( #611 ) ) ;
#761 = DIRECTION ( 'NONE',  ( -1.000000000000000000, -0.000000000000000000, -0.000000000000000000 ) ) ;
#762 = ORIENTED_EDGE ( 'NONE', *, *, #468, .T. ) ;
#763 = FILL_AREA_STYLE_COLOUR ( '', #382 ) ;
#764 = EDGE_CURVE ( 'NONE', #16, #162, #673, .T. ) ;
#765 = CARTESIAN_POINT ( 'NONE',  ( 0.2666411873824114376, 1.721732169736485352, 0.4052592521765772671 ) ) ;
#766 = ORIENTED_EDGE ( 'NONE', *, *, #852, .F. ) ;
#767 =( LENGTH_UNIT ( ) NAMED_UNIT ( * ) SI_UNIT ( .MILLI., .METRE. ) );
#768 = AXIS2_PLACEMENT_3D ( 'NONE', #856, #454, #122 ) ;
#769 = DIRECTION ( 'NONE',  ( 0.000000000000000000, 0.000000000000000000, 1.000000000000000000 ) ) ;
#770 = CIRCLE ( 'NONE', #148, 5.995482475482740270 ) ;
#771 = CARTESIAN_POINT ( 'NONE',  ( 0.03111693966988647586, 0.4315292644214342443, 0.4315292644214356321 ) ) ;
#772 = CIRCLE ( 'NONE', #745, 5.437518987584765817 ) ;
#773 = VERTEX_POINT ( 'NONE', #680 ) ;
#774 = STYLED_ITEM ( 'NONE', ( #751 ), #859 ) ;
#775 = CARTESIAN_POINT ( 'NONE',  ( 1.949999999999999956, -0.2175000000000000266, -0.2174999999999999989 ) ) ;
#776 = CARTESIAN_POINT ( 'NONE',  ( 1.347043950347263763, 0.000000000000000000, 3.080000000000000515 ) ) ;
#777 = FACE_OUTER_BOUND ( 'NONE', #75, .T. ) ;
#778 = ORIENTED_EDGE ( 'NONE', *, *, #422, .T. ) ;
#779 = DIRECTION ( 'NONE',  ( -0.1108510534444136914, 1.257808851980383614E-16, -0.9938370308809506559 ) ) ;
#780 = SURFACE_STYLE_USAGE ( .BOTH. , #536 ) ;
#781 = SURFACE_STYLE_FILL_AREA ( #539 ) ;
#782 = ADVANCED_FACE ( 'NONE', ( #833 ), #120, .T. ) ;
#783 = CARTESIAN_POINT ( 'NONE',  ( 1.949999999999999956, -0.2175000000000000266, -0.2174999999999999989 ) ) ;
#784 = DIRECTION ( 'NONE',  ( 0.6663196743247735698, 0.7456662065614397816, 0.000000000000000000 ) ) ;
#785 = PRESENTATION_STYLE_ASSIGNMENT (( #298 ) ) ;
#786 = PRESENTATION_LAYER_ASSIGNMENT (  '', '', ( #195 ) ) ;
#787 = AXIS2_PLACEMENT_3D ( 'NONE', #275, #968, #426 ) ;
#788 = PRESENTATION_LAYER_ASSIGNMENT (  '', '', ( #167 ) ) ;
#789 = ORIENTED_EDGE ( 'NONE', *, *, #852, .T. ) ;
#790 = STYLED_ITEM ( 'NONE', ( #941 ), #782 ) ;
#791 = UNCERTAINTY_MEASURE_WITH_UNIT (LENGTH_MEASURE( 1.000000000000000082E-05 ), #669, 'distance_accuracy_value', 'NONE');
#792 = CARTESIAN_POINT ( 'NONE',  ( 0.9968214519863044520, -3.311827956989247035, -4.055819506853600563E-16 ) ) ;
#793 = PRESENTATION_STYLE_ASSIGNMENT (( #477 ) ) ;
#794 = UNCERTAINTY_MEASURE_WITH_UNIT (LENGTH_MEASURE( 1.000000000000000082E-05 ), #810, 'distance_accuracy_value', 'NONE');
#795 = ORIENTED_EDGE ( 'NONE', *, *, #822, .T. ) ;
#796 = LINE ( 'NONE', #1022, #219 ) ;
#797 = APPLICATION_PROTOCOL_DEFINITION ( 'draft international standard', 'automotive_design', 1998, #51 ) ;
#798 = ADVANCED_FACE ( 'NONE', ( #312 ), #1010, .T. ) ;
#799 =( NAMED_UNIT ( * ) PLANE_ANGLE_UNIT ( ) SI_UNIT ( $, .RADIAN. ) );
#800 = ORIENTED_EDGE ( 'NONE', *, *, #755, .F. ) ;
#801 =( NAMED_UNIT ( * ) SI_UNIT ( $, .STERADIAN. ) SOLID_ANGLE_UNIT ( ) );
#802 = MECHANICAL_DESIGN_GEOMETRIC_PRESENTATION_REPRESENTATION (  '', ( #846 ), #635 ) ;
#803 = AXIS2_PLACEMENT_3D ( 'NONE', #165, #581, #419 ) ;
#804 = CARTESIAN_POINT ( 'NONE',  ( 2.193400286944045430, 0.1903515064562410486, 2.309278636184420884E-16 ) ) ;
#805 = CARTESIAN_POINT ( 'NONE',  ( 0.2553644383338094515, -1.731808957027352047, -2.120854295958262972E-16 ) ) ;
#806 = SURFACE_SIDE_STYLE ('',( #564 ) ) ;
#807 = EDGE_LOOP ( 'NONE', ( #736, #69, #433 ) ) ;
#808 = CARTESIAN_POINT ( 'NONE',  ( 0.000000000000000000, -0.4350000000000069367, 1.959999999999998188 ) ) ;
#809 = CARTESIAN_POINT ( 'NONE',  ( 6.000000000000000000, 2.326828918379972351E-16, 0.000000000000000000 ) ) ;
#810 =( LENGTH_UNIT ( ) NAMED_UNIT ( * ) SI_UNIT ( .MILLI., .METRE. ) );
#811 = FILL_AREA_STYLE ('',( #470 ) ) ;
#812 = VERTEX_POINT ( 'NONE', #937 ) ;
#813 = SURFACE_SIDE_STYLE ('',( #406 ) ) ;
#814 = EDGE_CURVE ( 'NONE', #919, #373, #225, .T. ) ;
#815 = SURFACE_STYLE_FILL_AREA ( #647 ) ;
#816 = SURFACE_SIDE_STYLE ('',( #348 ) ) ;
#817 = PRESENTATION_LAYER_ASSIGNMENT (  '', '', ( #320 ) ) ;
#818 = CARTESIAN_POINT ( 'NONE',  ( -25.39999999999996305, 2.143131898507868051E-16, -1.749999999999999778 ) ) ;
#819 = DIRECTION ( 'NONE',  ( -0.000000000000000000, 0.000000000000000000, -1.000000000000000000 ) ) ;
#820 = ORIENTED_EDGE ( 'NONE', *, *, #930, .T. ) ;
#821 = SURFACE_SIDE_STYLE ('',( #110 ) ) ;
#822 = EDGE_CURVE ( 'NONE', #527, #636, #772, .T. ) ;
#823 = ORIENTED_EDGE ( 'NONE', *, *, #615, .T. ) ;
#824 = DIRECTION ( 'NONE',  ( -0.1108510534444136914, 1.257808851980383614E-16, -0.9938370308809506559 ) ) ;
#825 = CARTESIAN_POINT ( 'NONE',  ( 1.347043950347263763, 0.000000000000000000, 0.000000000000000000 ) ) ;
#826 = VERTEX_POINT ( 'NONE', #384 ) ;
#827 = DIRECTION ( 'NONE',  ( -1.000000000000000000, -0.000000000000000000, -0.000000000000000000 ) ) ;
#828 =( NAMED_UNIT ( * ) PLANE_ANGLE_UNIT ( ) SI_UNIT ( $, .RADIAN. ) );
#829 = VECTOR ( 'NONE', #104, 1000.000000000000000 ) ;
#830 =( GEOMETRIC_REPRESENTATION_CONTEXT ( 3 ) GLOBAL_UNCERTAINTY_ASSIGNED_CONTEXT ( ( #485 ) ) GLOBAL_UNIT_ASSIGNED_CONTEXT ( ( #853, #1014, #331 ) ) REPRESENTATION_CONTEXT ( 'NONE', 'WORKASPACE' ) );
#831 = CARTESIAN_POINT ( 'NONE',  ( 0.03111693966988560850, -0.4315292644214371864, 0.4315292644214354101 ) ) ;
#832 = VERTEX_POINT ( 'NONE', #739 ) ;
#833 = FACE_OUTER_BOUND ( 'NONE', #754, .T. ) ;
#834 = VERTEX_POINT ( 'NONE', #12 ) ;
#835 = ADVANCED_FACE ( 'NONE', ( #265 ), #456, .T. ) ;
#836 = FILL_AREA_STYLE ('',( #258 ) ) ;
#837 = UNCERTAINTY_MEASURE_WITH_UNIT (LENGTH_MEASURE( 1.000000000000000082E-05 ), #234, 'distance_accuracy_value', 'NONE');
#838 = CARTESIAN_POINT ( 'NONE',  ( 0.000000000000000000, -1.959999999999999964, 0.4349999999999996092 ) ) ;
#839 = EDGE_LOOP ( 'NONE', ( #80, #878 ) ) ;
#840 = LINE ( 'NONE', #775, #417 ) ;
#841 = FACE_OUTER_BOUND ( 'NONE', #559, .T. ) ;
#842 = FACE_OUTER_BOUND ( 'NONE', #99, .T. ) ;
#843 = CARTESIAN_POINT ( 'NONE',  ( 15.60000000000000320, 0.000000000000000000, 1.749999999999999778 ) ) ;
#844 = COLOUR_RGB ( '',0.7764705882352941346, 0.7568627450980391913, 0.7372549019607843590 ) ;
#845 = FILL_AREA_STYLE ('',( #922 ) ) ;
#846 = STYLED_ITEM ( 'NONE', ( #10 ), #190 ) ;
#847 = CIRCLE ( 'NONE', #503, 5.995482475482741158 ) ;
#848 = EDGE_LOOP ( 'NONE', ( #200, #820, #560, #689, #339 ) ) ;
#849 = CIRCLE ( 'NONE', #746, 3.500000000000000444 ) ;
#850 = DIRECTION ( 'NONE',  ( -1.000000000000000000, -0.000000000000000000, -0.000000000000000000 ) ) ;
#851 = PLANE ( 'NONE',  #135 ) ;
#852 = EDGE_CURVE ( 'NONE', #37, #812, #933, .T. ) ;
#853 =( LENGTH_UNIT ( ) NAMED_UNIT ( * ) SI_UNIT ( .MILLI., .METRE. ) );
#854 = CARTESIAN_POINT ( 'NONE',  ( 2.193400286944045430, 0.1903515064562410486, 2.309278636184420884E-16 ) ) ;
#855 = DIRECTION ( 'NONE',  ( 0.000000000000000000, 0.000000000000000000, -1.000000000000000000 ) ) ;
#856 = CARTESIAN_POINT ( 'NONE',  ( 4.309938594911940868, -6.606512545546451519E-15, 1.891316923914901693 ) ) ;
#857 =( LENGTH_UNIT ( ) NAMED_UNIT ( * ) SI_UNIT ( .MILLI., .METRE. ) );
#858 = ORIENTED_EDGE ( 'NONE', *, *, #814, .F. ) ;
#859 = ADVANCED_FACE ( 'NONE', ( #105 ), #103, .T. ) ;
#860 = DIRECTION ( 'NONE',  ( 0.6663196743247736809, -2.603479645215216163E-15, 0.7456662065614397816 ) ) ;
#861 = PRESENTATION_STYLE_ASSIGNMENT (( #545 ) ) ;
#862 = DIRECTION ( 'NONE',  ( 0.6663196743247736809, 0.7456662065614397816, 0.000000000000000000 ) ) ;
#863 = AXIS2_PLACEMENT_3D ( 'NONE', #204, #168, #730 ) ;
#864 = STYLED_ITEM ( 'NONE', ( #193 ), #266 ) ;
#865 = ORIENTED_EDGE ( 'NONE', *, *, #343, .T. ) ;
#866 = VECTOR ( 'NONE', #561, 1000.000000000000000 ) ;
#867 = VERTEX_POINT ( 'NONE', #280 ) ;
#868 = VECTOR ( 'NONE', #967, 1000.000000000000000 ) ;
#869 =( GEOMETRIC_REPRESENTATION_CONTEXT ( 3 ) GLOBAL_UNCERTAINTY_ASSIGNED_CONTEXT ( ( #425 ) ) GLOBAL_UNIT_ASSIGNED_CONTEXT ( ( #92, #325, #1017 ) ) REPRESENTATION_CONTEXT ( 'NONE', 'WORKASPACE' ) );
#870 = DIRECTION ( 'NONE',  ( 0.6663196743247736809, -0.7456662065614397816, -9.292562311528023527E-17 ) ) ;
#871 = EDGE_CURVE ( 'NONE', #826, #867, #523, .T. ) ;
#872 = UNCERTAINTY_MEASURE_WITH_UNIT (LENGTH_MEASURE( 1.000000000000000082E-05 ), #87, 'distance_accuracy_value', 'NONE');
#873 = ORIENTED_EDGE ( 'NONE', *, *, #243, .F. ) ;
#874 = ORIENTED_EDGE ( 'NONE', *, *, #285, .T. ) ;
#875 =( NAMED_UNIT ( * ) PLANE_ANGLE_UNIT ( ) SI_UNIT ( $, .RADIAN. ) );
#876 =( NAMED_UNIT ( * ) PLANE_ANGLE_UNIT ( ) SI_UNIT ( $, .RADIAN. ) );
#877 = ORIENTED_EDGE ( 'NONE', *, *, #717, .F. ) ;
#878 = ORIENTED_EDGE ( 'NONE', *, *, #381, .T. ) ;
#879 = DIRECTION ( 'NONE',  ( 0.7431005017819711789, -0.6640269868487613802, -0.08288428673721992546 ) ) ;
#880 =( NAMED_UNIT ( * ) PLANE_ANGLE_UNIT ( ) SI_UNIT ( $, .RADIAN. ) );
#881 = DIRECTION ( 'NONE',  ( 1.000000000000000000, 0.000000000000000000, 0.000000000000000000 ) ) ;
#882 = FACE_OUTER_BOUND ( 'NONE', #207, .T. ) ;
#883 = FILL_AREA_STYLE_COLOUR ( '', #549 ) ;
#884 = EDGE_LOOP ( 'NONE', ( #892, #524 ) ) ;
#885 = COLOUR_RGB ( '',0.7764705882352941346, 0.7568627450980391913, 0.7372549019607843590 ) ;
#886 = LINE ( 'NONE', #171, #868 ) ;
#887 = PLANE ( 'NONE',  #787 ) ;
#888 = AXIS2_PLACEMENT_3D ( 'NONE', #210, #709, #1013 ) ;
#889 = DIRECTION ( 'NONE',  ( 0.000000000000000000, 0.000000000000000000, 1.000000000000000000 ) ) ;
#890 = CARTESIAN_POINT ( 'NONE',  ( 0.000000000000000000, -0.4349999999999927813, -1.960000000000001741 ) ) ;
#891 = SURFACE_SIDE_STYLE ('',( #663 ) ) ;
#892 = ORIENTED_EDGE ( 'NONE', *, *, #127, .F. ) ;
#893 = EDGE_CURVE ( 'NONE', #37, #636, #505, .T. ) ;
#894 = DIRECTION ( 'NONE',  ( 0.7456662065614397816, -2.326442708608981349E-15, 0.6663196743247735698 ) ) ;
#895 = VERTEX_POINT ( 'NONE', #831 ) ;
#896 = EDGE_CURVE ( 'NONE', #278, #376, #274, .T. ) ;
#897 = FILL_AREA_STYLE_COLOUR ( '', #450 ) ;
#898 = FILL_AREA_STYLE ('',( #677 ) ) ;
#899 = FILL_AREA_STYLE_COLOUR ( '', #885 ) ;
#900 = PRESENTATION_STYLE_ASSIGNMENT (( #582 ) ) ;
#901 = CIRCLE ( 'NONE', #586, 1.749999999999999778 ) ;
#902 = ORIENTED_EDGE ( 'NONE', *, *, #690, .T. ) ;
#903 = PRESENTATION_LAYER_ASSIGNMENT (  '', '', ( #318 ) ) ;
#904 = SURFACE_SIDE_STYLE ('',( #981 ) ) ;
#905 = STYLED_ITEM ( 'NONE', ( #861 ), #474 ) ;
#906 =( NAMED_UNIT ( * ) SI_UNIT ( $, .STERADIAN. ) SOLID_ANGLE_UNIT ( ) );
#907 =( GEOMETRIC_REPRESENTATION_CONTEXT ( 3 ) GLOBAL_UNCERTAINTY_ASSIGNED_CONTEXT ( ( #1000 ) ) GLOBAL_UNIT_ASSIGNED_CONTEXT ( ( #504, #911, #194 ) ) REPRESENTATION_CONTEXT ( 'NONE', 'WORKASPACE' ) );
#908 = COLOUR_RGB ( '',0.7764705882352941346, 0.7568627450980391913, 0.7372549019607843590 ) ;
#909 = EDGE_LOOP ( 'NONE', ( #323, #34, #185 ) ) ;
#910 = DIRECTION ( 'NONE',  ( -1.000000000000000000, -0.000000000000000000, -0.000000000000000000 ) ) ;
#911 =( NAMED_UNIT ( * ) PLANE_ANGLE_UNIT ( ) SI_UNIT ( $, .RADIAN. ) );
#912 = EDGE_LOOP ( 'NONE', ( #1008, #759, #766, #800, #980 ) ) ;
#913 = CARTESIAN_POINT ( 'NONE',  ( 5.974195292295553905, -0.2313525518329657138, -8.028830871489587498E-16 ) ) ;
#914 = VERTEX_POINT ( 'NONE', #437 ) ;
#915 = CIRCLE ( 'NONE', #465, 5.437518987584765817 ) ;
#916 = CARTESIAN_POINT ( 'NONE',  ( 0.2666411873824114376, 0.4052592521765713274, 1.721732169736487794 ) ) ;
#917 = AXIS2_PLACEMENT_3D ( 'NONE', #241, #641, #626 ) ;
#918 = FILL_AREA_STYLE ('',( #509 ) ) ;
#919 = VERTEX_POINT ( 'NONE', #969 ) ;
#920 = ADVANCED_FACE ( 'NONE', ( #594 ), #36, .T. ) ;
#921 = DIRECTION ( 'NONE',  ( -0.1108510534444137469, -0.9938370308809506559, -3.448999966305766196E-15 ) ) ;
#922 = FILL_AREA_STYLE_COLOUR ( '', #130 ) ;
#923 = SURFACE_STYLE_USAGE ( .BOTH. , #40 ) ;
#924 = ORIENTED_EDGE ( 'NONE', *, *, #643, .T. ) ;
#925 = DIRECTION ( 'NONE',  ( -1.000000000000000000, -0.000000000000000000, -0.000000000000000000 ) ) ;
#926 =( NAMED_UNIT ( * ) PLANE_ANGLE_UNIT ( ) SI_UNIT ( $, .RADIAN. ) );
#927 = EDGE_LOOP ( 'NONE', ( #216, #385, #517, #362 ) ) ;
#928 = PRESENTATION_STYLE_ASSIGNMENT (( #232 ) ) ;
#929 = VECTOR ( 'NONE', #1021, 1000.000000000000000 ) ;
#930 = EDGE_CURVE ( 'NONE', #832, #592, #451, .T. ) ;
#931 = MECHANICAL_DESIGN_GEOMETRIC_PRESENTATION_REPRESENTATION (  '', ( #905 ), #45 ) ;
#932 = VECTOR ( 'NONE', #90, 1000.000000000000114 ) ;
#933 = CIRCLE ( 'NONE', #675, 3.311827956989247479 ) ;
#934 = DIRECTION ( 'NONE',  ( -1.000000000000000000, 0.000000000000000000, 0.000000000000000000 ) ) ;
#935 = ADVANCED_FACE ( 'NONE', ( #777 ), #851, .F. ) ;
#936 = FILL_AREA_STYLE ('',( #703 ) ) ;
#937 = CARTESIAN_POINT ( 'NONE',  ( 0.9968214519863044520, 4.171041651934668579E-16, -3.311827956989247479 ) ) ;
#938 = VERTEX_POINT ( 'NONE', #771 ) ;
#939 = PLANE ( 'NONE',  #484 ) ;
#940 = FILL_AREA_STYLE ('',( #628 ) ) ;
#941 = PRESENTATION_STYLE_ASSIGNMENT (( #577 ) ) ;
#942 = UNCERTAINTY_MEASURE_WITH_UNIT (LENGTH_MEASURE( 1.000000000000000082E-05 ), #687, 'distance_accuracy_value', 'NONE');
#943 = ORIENTED_EDGE ( 'NONE', *, *, #343, .F. ) ;
#944 = LINE ( 'NONE', #76, #432 ) ;
#945 = MECHANICAL_DESIGN_GEOMETRIC_PRESENTATION_REPRESENTATION (  '', ( #551 ), #133 ) ;
#946 = EDGE_LOOP ( 'NONE', ( #1018, #684, #145, #584, #544, #404, #610, #874, #951, #291, #924 ) ) ;
#947 = EDGE_LOOP ( 'NONE', ( #873, #389, #604, #224 ) ) ;
#948 = COLOUR_RGB ( '',0.7921568627450980005, 0.8196078431372548767, 0.9333333333333333481 ) ;
#949 = FILL_AREA_STYLE ('',( #91 ) ) ;
#950 = SURFACE_STYLE_FILL_AREA ( #1 ) ;
#951 = ORIENTED_EDGE ( 'NONE', *, *, #615, .F. ) ;
#952 = CARTESIAN_POINT ( 'NONE',  ( 0.03111693966988560850, 0.4315292644214372975, -0.4315292644214357431 ) ) ;
#953 =( NAMED_UNIT ( * ) PLANE_ANGLE_UNIT ( ) SI_UNIT ( $, .RADIAN. ) );
#954 =( NAMED_UNIT ( * ) PLANE_ANGLE_UNIT ( ) SI_UNIT ( $, .RADIAN. ) );
#955 = DIRECTION ( 'NONE',  ( 0.9938370308809506559, -0.1108510534444137469, -3.870343844922734420E-16 ) ) ;
#956 = SURFACE_STYLE_USAGE ( .BOTH. , #467 ) ;
#957 =( NAMED_UNIT ( * ) SI_UNIT ( $, .STERADIAN. ) SOLID_ANGLE_UNIT ( ) );
#958 = SURFACE_STYLE_USAGE ( .BOTH. , #571 ) ;
#959 = EDGE_CURVE ( 'NONE', #636, #970, #963, .T. ) ;
#960 = PRODUCT_DEFINITION_SHAPE ( 'NONE', 'NONE',  #214 ) ;
#961 = PRESENTATION_LAYER_ASSIGNMENT (  '', '', ( #363 ) ) ;
#962 = CARTESIAN_POINT ( 'NONE',  ( 5.974195292295553905, 2.619630734554813543E-16, -0.2313525518329656583 ) ) ;
#963 = CIRCLE ( 'NONE', #520, 5.437518987584765817 ) ;
#964 = SURFACE_SIDE_STYLE ('',( #655 ) ) ;
#965 = SPHERICAL_SURFACE ( 'NONE', #803, 6.000000000000000000 ) ;
#966 =( NAMED_UNIT ( * ) SI_UNIT ( $, .STERADIAN. ) SOLID_ANGLE_UNIT ( ) );
#967 = DIRECTION ( 'NONE',  ( 0.000000000000000000, -1.000000000000000000, -1.246209393661499126E-16 ) ) ;
#968 = DIRECTION ( 'NONE',  ( -0.1108510534444137469, 2.096348086633972484E-17, 0.9938370308809506559 ) ) ;
#969 = CARTESIAN_POINT ( 'NONE',  ( 0.2666411873824114376, -0.4052592521765708278, -1.721732169736487128 ) ) ;
#970 = VERTEX_POINT ( 'NONE', #765 ) ;
#971 = EDGE_CURVE ( 'NONE', #832, #812, #67, .T. ) ;
#972 = SURFACE_SIDE_STYLE ('',( #182 ) ) ;
#973 = COLOUR_RGB ( '',0.7921568627450980005, 0.8196078431372548767, 0.9333333333333333481 ) ;
#974 = CIRCLE ( 'NONE', #271, 1.749999999999999778 ) ;
#975 = FILL_AREA_STYLE_COLOUR ( '', #619 ) ;
#976 =( GEOMETRIC_REPRESENTATION_CONTEXT ( 3 ) GLOBAL_UNCERTAINTY_ASSIGNED_CONTEXT ( ( #734 ) ) GLOBAL_UNIT_ASSIGNED_CONTEXT ( ( #738, #954, #251 ) ) REPRESENTATION_CONTEXT ( 'NONE', 'WORKASPACE' ) );
#977 = PLANE ( 'NONE',  #702 ) ;
#978 = PRODUCT_RELATED_PRODUCT_CATEGORY ( 'part', '', ( #741 ) ) ;
#979 = TOROIDAL_SURFACE ( 'NONE', #570, 3.080000000000000515, 0.4200000000000000400 ) ;
#980 = ORIENTED_EDGE ( 'NONE', *, *, #156, .F. ) ;
#981 = SURFACE_STYLE_FILL_AREA ( #412 ) ;
#982 = SURFACE_STYLE_USAGE ( .BOTH. , #816 ) ;
#983 = DIRECTION ( 'NONE',  ( -1.000000000000000000, -0.000000000000000000, -0.000000000000000000 ) ) ;
#984 = ORIENTED_EDGE ( 'NONE', *, *, #388, .F. ) ;
#985 = DIRECTION ( 'NONE',  ( 0.6663196743247736809, -0.7456662065614397816, -9.292562311528023527E-17 ) ) ;
#986 = ADVANCED_FACE ( 'NONE', ( #842 ), #367, .T. ) ;
#987 = ORIENTED_EDGE ( 'NONE', *, *, #597, .T. ) ;
#988 = AXIS2_PLACEMENT_3D ( 'NONE', #416, #819, #583 ) ;
#989 = CARTESIAN_POINT ( 'NONE',  ( 4.309938594911940868, 1.891316923914901471, 2.356976916973721757E-16 ) ) ;
#990 = CLOSED_SHELL ( 'NONE', ( #859, #835, #35, #50, #315, #495, #228, #346, #782, #23, #136, #190, #587, #356, #114, #935, #798, #501, #986, #474, #179, #266, #920 ) ) ;
#991 = STYLED_ITEM ( 'NONE', ( #608 ), #136 ) ;
#992 = VECTOR ( 'NONE', #108, 1000.000000000000000 ) ;
#993 = AXIS2_PLACEMENT_3D ( 'NONE', #913, #921, #208 ) ;
#994 =( NAMED_UNIT ( * ) PLANE_ANGLE_UNIT ( ) SI_UNIT ( $, .RADIAN. ) );
#995 = VERTEX_POINT ( 'NONE', #792 ) ;
#996 = CARTESIAN_POINT ( 'NONE',  ( 5.974195292295553905, 0.2313525518329656860, 8.370432990360215258E-16 ) ) ;
#997 = SURFACE_SIDE_STYLE ('',( #693 ) ) ;
#998 = UNCERTAINTY_MEASURE_WITH_UNIT (LENGTH_MEASURE( 1.000000000000000082E-05 ), #686, 'distance_accuracy_value', 'NONE');
#999 = EDGE_LOOP ( 'NONE', ( #352, #230, #119, #3, #464 ) ) ;
#1000 = UNCERTAINTY_MEASURE_WITH_UNIT (LENGTH_MEASURE( 1.000000000000000082E-05 ), #504, 'distance_accuracy_value', 'NONE');
#1001 = EDGE_CURVE ( 'NONE', #592, #832, #849, .T. ) ;
#1002 = CARTESIAN_POINT ( 'NONE',  ( 2.193400286944045430, 4.336808689942017736E-16, 0.1903515064562409931 ) ) ;
#1003 =( GEOMETRIC_REPRESENTATION_CONTEXT ( 3 ) GLOBAL_UNCERTAINTY_ASSIGNED_CONTEXT ( ( #460 ) ) GLOBAL_UNIT_ASSIGNED_CONTEXT ( ( #538, #455, #58 ) ) REPRESENTATION_CONTEXT ( 'NONE', 'WORKASPACE' ) );
#1004 =( NAMED_UNIT ( * ) SI_UNIT ( $, .STERADIAN. ) SOLID_ANGLE_UNIT ( ) );
#1005 = FILL_AREA_STYLE ('',( #53 ) ) ;
#1006 = MECHANICAL_DESIGN_GEOMETRIC_PRESENTATION_REPRESENTATION (  '', ( #167 ), #17 ) ;
#1007 = AXIS2_PLACEMENT_3D ( 'NONE', #439, #282, #607 ) ;
#1008 = ORIENTED_EDGE ( 'NONE', *, *, #1001, .T. ) ;
#1009 = AXIS2_PLACEMENT_3D ( 'NONE', #716, #723, #86 ) ;
#1010 = PLANE ( 'NONE',  #18 ) ;
#1011 = CARTESIAN_POINT ( 'NONE',  ( -25.39999999999996305, 4.286263797015737088E-16, -3.500000000000000444 ) ) ;
#1012 = CARTESIAN_POINT ( 'NONE',  ( 2.599999999999998312, 0.000000000000000000, 3.500000000000000000 ) ) ;
#1013 = DIRECTION ( 'NONE',  ( 0.000000000000000000, -1.224646799147354193E-16, 1.000000000000000000 ) ) ;
#1014 =( NAMED_UNIT ( * ) PLANE_ANGLE_UNIT ( ) SI_UNIT ( $, .RADIAN. ) );
#1015 = ORIENTED_EDGE ( 'NONE', *, *, #814, .T. ) ;
#1016 =( NAMED_UNIT ( * ) SI_UNIT ( $, .STERADIAN. ) SOLID_ANGLE_UNIT ( ) );
#1017 =( NAMED_UNIT ( * ) SI_UNIT ( $, .STERADIAN. ) SOLID_ANGLE_UNIT ( ) );
#1018 = ORIENTED_EDGE ( 'NONE', *, *, #197, .F. ) ;
#1019 = FILL_AREA_STYLE ('',( #763 ) ) ;
#1020 = ORIENTED_EDGE ( 'NONE', *, *, #285, .F. ) ;
#1021 = DIRECTION ( 'NONE',  ( 0.7431005017819711789, -0.08288428673722218754, 0.6640269868487610472 ) ) ;
#1022 = CARTESIAN_POINT ( 'NONE',  ( -25.39999999999996305, 0.000000000000000000, 1.749999999999999778 ) ) ;
#1023 =( NAMED_UNIT ( * ) SI_UNIT ( $, .STERADIAN. ) SOLID_ANGLE_UNIT ( ) );
#1024 = CARTESIAN_POINT ( 'NONE',  ( 1.347043950347265318, 0.000000000000000000, 0.000000000000000000 ) ) ;
#1025 = MECHANICAL_DESIGN_GEOMETRIC_PRESENTATION_REPRESENTATION (  '', ( #318 ), #976 ) ;
ENDSEC;
END-ISO-10303-21;
