ISO-10303-21;
HEADER;
FILE_DESCRIPTION (( 'STEP AP214' ),
    '1' );
FILE_NAME ('M3.5 x 30 Screw head.STEP',
    '2023-03-28T04:23:14',
    ( '' ),
    ( '' ),
    'SwSTEP 2.0',
    'SolidWorks 2022',
    '' );
FILE_SCHEMA (( 'AUTOMOTIVE_DESIGN' ));
ENDSEC;

DATA;
#1 = CARTESIAN_POINT ( 'NONE',  ( 0.9968214519863044520, 4.171041651934668579E-16, -3.311827956989247479 ) ) ;
#2 = PRESENTATION_STYLE_ASSIGNMENT (( #785 ) ) ;
#3 = DIRECTION ( 'NONE',  ( 0.9938370308809507669, -0.1108510534444137746, 0.000000000000000000 ) ) ;
#4 = EDGE_CURVE ( 'NONE', #188, #975, #365, .T. ) ;
#5 = ORIENTED_EDGE ( 'NONE', *, *, #727, .T. ) ;
#6 = FILL_AREA_STYLE_COLOUR ( '', #478 ) ;
#7 = DIRECTION ( 'NONE',  ( 1.000000000000000000, 0.000000000000000000, 0.000000000000000000 ) ) ;
#8 = AXIS2_PLACEMENT_3D ( 'NONE', #847, #138, #54 ) ;
#9 = FILL_AREA_STYLE ('',( #397 ) ) ;
#10 = COLOUR_RGB ( '',0.7764705882352941346, 0.7568627450980391913, 0.7372549019607843590 ) ;
#11 = ORIENTED_EDGE ( 'NONE', *, *, #543, .F. ) ;
#12 = AXIS2_PLACEMENT_3D ( 'NONE', #459, #779, #619 ) ;
#13 = FACE_OUTER_BOUND ( 'NONE', #35, .T. ) ;
#14 = STYLED_ITEM ( 'NONE', ( #691 ), #723 ) ;
#15 = FILL_AREA_STYLE ('',( #477 ) ) ;
#16 = DIRECTION ( 'NONE',  ( -0.000000000000000000, 1.000000000000000000, 1.224646799147353207E-16 ) ) ;
#17 = PRESENTATION_STYLE_ASSIGNMENT (( #726 ) ) ;
#18 = SURFACE_STYLE_USAGE ( .BOTH. , #657 ) ;
#19 = CARTESIAN_POINT ( 'NONE',  ( 2.214116351126373505, -0.1880408685282114467, -0.1880408685282121684 ) ) ;
#20 = DIRECTION ( 'NONE',  ( -0.1108510534444136914, 0.9938370308809506559, 3.595744332370143179E-15 ) ) ;
#21 =( NAMED_UNIT ( * ) SI_UNIT ( $, .STERADIAN. ) SOLID_ANGLE_UNIT ( ) );
#22 = UNCERTAINTY_MEASURE_WITH_UNIT (LENGTH_MEASURE( 1.000000000000000082E-05 ), #594, 'distance_accuracy_value', 'NONE');
#23 = ORIENTED_EDGE ( 'NONE', *, *, #841, .T. ) ;
#24 =( GEOMETRIC_REPRESENTATION_CONTEXT ( 3 ) GLOBAL_UNCERTAINTY_ASSIGNED_CONTEXT ( ( #923 ) ) GLOBAL_UNIT_ASSIGNED_CONTEXT ( ( #25, #404, #656 ) ) REPRESENTATION_CONTEXT ( 'NONE', 'WORKASPACE' ) );
#25 =( LENGTH_UNIT ( ) NAMED_UNIT ( * ) SI_UNIT ( .MILLI., .METRE. ) );
#26 = DIRECTION ( 'NONE',  ( -1.000000000000000000, -0.000000000000000000, -0.000000000000000000 ) ) ;
#27 =( NAMED_UNIT ( * ) SI_UNIT ( $, .STERADIAN. ) SOLID_ANGLE_UNIT ( ) );
#28 = CARTESIAN_POINT ( 'NONE',  ( 6.000000000000000000, 2.326828918379972351E-16, 0.000000000000000000 ) ) ;
#29 = ADVANCED_FACE ( 'NONE', ( #596 ), #56, .T. ) ;
#30 = EDGE_LOOP ( 'NONE', ( #670, #341, #158, #362 ) ) ;
#31 = CARTESIAN_POINT ( 'NONE',  ( 1.949999999999999956, -0.2175000000000000266, -0.2174999999999999989 ) ) ;
#32 = CARTESIAN_POINT ( 'NONE',  ( 0.03111693966988560850, 0.4315292644214372975, -0.4315292644214357431 ) ) ;
#33 = DIRECTION ( 'NONE',  ( 0.000000000000000000, -1.000000000000000000, -1.246209393661499126E-16 ) ) ;
#34 = PRESENTATION_LAYER_ASSIGNMENT (  '', '', ( #83 ) ) ;
#35 = EDGE_LOOP ( 'NONE', ( #46, #615, #1013 ) ) ;
#36 =( LENGTH_UNIT ( ) NAMED_UNIT ( * ) SI_UNIT ( .MILLI., .METRE. ) );
#37 = SURFACE_SIDE_STYLE ('',( #760 ) ) ;
#38 =( GEOMETRIC_REPRESENTATION_CONTEXT ( 3 ) GLOBAL_UNCERTAINTY_ASSIGNED_CONTEXT ( ( #154 ) ) GLOBAL_UNIT_ASSIGNED_CONTEXT ( ( #622, #305, #466 ) ) REPRESENTATION_CONTEXT ( 'NONE', 'WORKASPACE' ) );
#39 = ORIENTED_EDGE ( 'NONE', *, *, #476, .T. ) ;
#40 =( LENGTH_UNIT ( ) NAMED_UNIT ( * ) SI_UNIT ( .MILLI., .METRE. ) );
#41 = AXIS2_PLACEMENT_3D ( 'NONE', #742, #586, #259 ) ;
#42 = AXIS2_PLACEMENT_3D ( 'NONE', #985, #916, #131 ) ;
#43 = EDGE_LOOP ( 'NONE', ( #617, #358, #510 ) ) ;
#44 = CYLINDRICAL_SURFACE ( 'NONE', #790, 1.749999999999999778 ) ;
#45 = DIRECTION ( 'NONE',  ( 0.000000000000000000, 1.000000000000000000, 1.224646799147353207E-16 ) ) ;
#46 = ORIENTED_EDGE ( 'NONE', *, *, #584, .T. ) ;
#47 =( NAMED_UNIT ( * ) SI_UNIT ( $, .STERADIAN. ) SOLID_ANGLE_UNIT ( ) );
#48 = PRESENTATION_STYLE_ASSIGNMENT (( #842 ) ) ;
#49 = ADVANCED_FACE ( 'NONE', ( #73 ), #481, .T. ) ;
#50 = CARTESIAN_POINT ( 'NONE',  ( 1.949999999999999956, 0.2174999999999999989, 0.2174999999999999711 ) ) ;
#51 = EDGE_LOOP ( 'NONE', ( #729, #179, #995, #872 ) ) ;
#52 = LINE ( 'NONE', #276, #954 ) ;
#53 = STYLED_ITEM ( 'NONE', ( #873 ), #340 ) ;
#54 = DIRECTION ( 'NONE',  ( 0.000000000000000000, 0.000000000000000000, 1.000000000000000000 ) ) ;
#55 = FILL_AREA_STYLE_COLOUR ( '', #602 ) ;
#56 = PLANE ( 'NONE',  #140 ) ;
#57 = CIRCLE ( 'NONE', #434, 5.437518987584765817 ) ;
#58 =( GEOMETRIC_REPRESENTATION_CONTEXT ( 3 ) GLOBAL_UNCERTAINTY_ASSIGNED_CONTEXT ( ( #1023 ) ) GLOBAL_UNIT_ASSIGNED_CONTEXT ( ( #544, #117, #754 ) ) REPRESENTATION_CONTEXT ( 'NONE', 'WORKASPACE' ) );
#59 = PRESENTATION_LAYER_ASSIGNMENT (  '', '', ( #520 ) ) ;
#60 =( GEOMETRIC_REPRESENTATION_CONTEXT ( 3 ) GLOBAL_UNCERTAINTY_ASSIGNED_CONTEXT ( ( #231 ) ) GLOBAL_UNIT_ASSIGNED_CONTEXT ( ( #787, #858, #151 ) ) REPRESENTATION_CONTEXT ( 'NONE', 'WORKASPACE' ) );
#61 = CARTESIAN_POINT ( 'NONE',  ( 1.949999999999999956, 0.2174999999999999989, 0.2174999999999999156 ) ) ;
#62 = FILL_AREA_STYLE_COLOUR ( '', #570 ) ;
#63 = DIRECTION ( 'NONE',  ( -1.000000000000000000, -0.000000000000000000, -0.000000000000000000 ) ) ;
#64 = EDGE_CURVE ( 'NONE', #213, #191, #57, .T. ) ;
#65 = VERTEX_POINT ( 'NONE', #79 ) ;
#66 = DIRECTION ( 'NONE',  ( 0.000000000000000000, 0.000000000000000000, 1.000000000000000000 ) ) ;
#67 = DIRECTION ( 'NONE',  ( 0.000000000000000000, 0.000000000000000000, 1.000000000000000000 ) ) ;
#68 = DIRECTION ( 'NONE',  ( 0.000000000000000000, 0.000000000000000000, 1.000000000000000000 ) ) ;
#69 = CARTESIAN_POINT ( 'NONE',  ( 0.000000000000000000, 0.000000000000000000, 0.000000000000000000 ) ) ;
#70 = ADVANCED_FACE ( 'NONE', ( #316 ), #719, .T. ) ;
#71 = DIRECTION ( 'NONE',  ( -1.000000000000000000, -0.000000000000000000, -0.000000000000000000 ) ) ;
#72 = DIRECTION ( 'NONE',  ( 0.7456662065614397816, 0.6663196743247735698, 0.000000000000000000 ) ) ;
#73 = FACE_OUTER_BOUND ( 'NONE', #866, .T. ) ;
#74 = AXIS2_PLACEMENT_3D ( 'NONE', #343, #728, #420 ) ;
#75 = LINE ( 'NONE', #562, #1020 ) ;
#76 = CIRCLE ( 'NONE', #983, 5.995482475482741158 ) ;
#77 = DIRECTION ( 'NONE',  ( 0.7431005017819711789, -0.6640269868487613802, 0.08288428673721989770 ) ) ;
#78 = PRESENTATION_LAYER_ASSIGNMENT (  '', '', ( #832 ) ) ;
#79 = CARTESIAN_POINT ( 'NONE',  ( 2.599999999999998312, 0.000000000000000000, 3.500000000000000000 ) ) ;
#80 = EDGE_LOOP ( 'NONE', ( #536, #630, #551 ) ) ;
#81 = PRESENTATION_STYLE_ASSIGNMENT (( #946 ) ) ;
#82 = DIRECTION ( 'NONE',  ( 0.000000000000000000, 0.000000000000000000, 1.000000000000000000 ) ) ;
#83 = STYLED_ITEM ( 'NONE', ( #198 ), #209 ) ;
#84 = ORIENTED_EDGE ( 'NONE', *, *, #727, .F. ) ;
#85 = ADVANCED_FACE ( 'NONE', ( #558, #463 ), #643, .F. ) ;
#86 = DIRECTION ( 'NONE',  ( -0.1108510534444137469, 2.096348086633972484E-17, 0.9938370308809506559 ) ) ;
#87 = MECHANICAL_DESIGN_GEOMETRIC_PRESENTATION_REPRESENTATION (  '', ( #203 ), #597 ) ;
#88 = FILL_AREA_STYLE ('',( #959 ) ) ;
#89 = AXIS2_PLACEMENT_3D ( 'NONE', #857, #781, #67 ) ;
#90 =( GEOMETRIC_REPRESENTATION_CONTEXT ( 3 ) GLOBAL_UNCERTAINTY_ASSIGNED_CONTEXT ( ( #935 ) ) GLOBAL_UNIT_ASSIGNED_CONTEXT ( ( #835, #1006, #47 ) ) REPRESENTATION_CONTEXT ( 'NONE', 'WORKASPACE' ) );
#91 = CARTESIAN_POINT ( 'NONE',  ( 0.2666411873824114376, 0.4052592521765831513, -1.721732169736484019 ) ) ;
#92 = DIRECTION ( 'NONE',  ( -0.1108510534444136914, 1.257808851980383614E-16, -0.9938370308809506559 ) ) ;
#93 = SURFACE_SIDE_STYLE ('',( #818 ) ) ;
#94 = ORIENTED_EDGE ( 'NONE', *, *, #696, .F. ) ;
#95 = EDGE_CURVE ( 'NONE', #659, #227, #349, .T. ) ;
#96 = DIRECTION ( 'NONE',  ( -0.9938370308809506559, 0.000000000000000000, 0.1108510534444136914 ) ) ;
#97 = ORIENTED_EDGE ( 'NONE', *, *, #330, .T. ) ;
#98 = PRESENTATION_LAYER_ASSIGNMENT (  '', '', ( #288 ) ) ;
#99 = CIRCLE ( 'NONE', #751, 5.995482475482740270 ) ;
#100 = FILL_AREA_STYLE_COLOUR ( '', #101 ) ;
#101 = COLOUR_RGB ( '',0.7764705882352941346, 0.7568627450980391913, 0.7372549019607843590 ) ;
#102 = EDGE_CURVE ( 'NONE', #188, #65, #963, .T. ) ;
#103 = CARTESIAN_POINT ( 'NONE',  ( 0.000000000000000000, -1.959999999999999964, -0.4349999999999999978 ) ) ;
#104 = ORIENTED_EDGE ( 'NONE', *, *, #412, .T. ) ;
#105 = DIRECTION ( 'NONE',  ( 0.6663196743247736809, 2.696405268330496226E-15, -0.7456662065614397816 ) ) ;
#106 = DIRECTION ( 'NONE',  ( 0.6663196743247735698, -2.603479645215216163E-15, 0.7456662065614397816 ) ) ;
#107 = ORIENTED_EDGE ( 'NONE', *, *, #782, .F. ) ;
#108 = CARTESIAN_POINT ( 'NONE',  ( 2.214116351126373949, -0.1880408685282127235, 0.1880408685282120573 ) ) ;
#109 = EDGE_CURVE ( 'NONE', #975, #248, #769, .T. ) ;
#110 = VERTEX_POINT ( 'NONE', #424 ) ;
#111 = FILL_AREA_STYLE ('',( #296 ) ) ;
#112 = FACE_OUTER_BOUND ( 'NONE', #977, .T. ) ;
#113 = CARTESIAN_POINT ( 'NONE',  ( 2.193400286944045430, -4.336808689942017736E-16, -0.1903515064562410486 ) ) ;
#114 = CARTESIAN_POINT ( 'NONE',  ( -25.39999999999996305, 2.143131898507868051E-16, -1.749999999999999778 ) ) ;
#115 = SURFACE_STYLE_USAGE ( .BOTH. , #910 ) ;
#116 = ORIENTED_EDGE ( 'NONE', *, *, #530, .T. ) ;
#117 =( NAMED_UNIT ( * ) PLANE_ANGLE_UNIT ( ) SI_UNIT ( $, .RADIAN. ) );
#118 = AXIS2_PLACEMENT_3D ( 'NONE', #936, #235, #473 ) ;
#119 =( LENGTH_UNIT ( ) NAMED_UNIT ( * ) SI_UNIT ( .MILLI., .METRE. ) );
#120 = AXIS2_PLACEMENT_3D ( 'NONE', #380, #587, #228 ) ;
#121 = ORIENTED_EDGE ( 'NONE', *, *, #543, .T. ) ;
#122 = FILL_AREA_STYLE_COLOUR ( '', #897 ) ;
#123 = CIRCLE ( 'NONE', #705, 5.437518987584764929 ) ;
#124 = CIRCLE ( 'NONE', #337, 5.437518987584765817 ) ;
#125 = MECHANICAL_DESIGN_GEOMETRIC_PRESENTATION_REPRESENTATION (  '', ( #498 ), #58 ) ;
#126 = DIRECTION ( 'NONE',  ( 0.000000000000000000, 0.000000000000000000, 1.000000000000000000 ) ) ;
#127 = EDGE_CURVE ( 'NONE', #260, #110, #512, .T. ) ;
#128 = PRESENTATION_STYLE_ASSIGNMENT (( #607 ) ) ;
#129 = UNCERTAINTY_MEASURE_WITH_UNIT (LENGTH_MEASURE( 1.000000000000000082E-05 ), #40, 'distance_accuracy_value', 'NONE');
#130 = VERTEX_POINT ( 'NONE', #91 ) ;
#131 = DIRECTION ( 'NONE',  ( 0.9938370308809507669, -0.1108510534444137746, 0.000000000000000000 ) ) ;
#132 = ADVANCED_FACE ( 'NONE', ( #576 ), #251, .F. ) ;
#133 =( NAMED_UNIT ( * ) SI_UNIT ( $, .STERADIAN. ) SOLID_ANGLE_UNIT ( ) );
#134 = DIRECTION ( 'NONE',  ( 0.000000000000000000, 1.000000000000000000, 0.000000000000000000 ) ) ;
#135 =( NAMED_UNIT ( * ) PLANE_ANGLE_UNIT ( ) SI_UNIT ( $, .RADIAN. ) );
#136 = EDGE_LOOP ( 'NONE', ( #314, #1000, #1015 ) ) ;
#137 = CARTESIAN_POINT ( 'NONE',  ( 0.03111693966988647586, -0.4315292644214340778, -0.4315292644214357987 ) ) ;
#138 = DIRECTION ( 'NONE',  ( -1.000000000000000000, -0.000000000000000000, -0.000000000000000000 ) ) ;
#139 = UNCERTAINTY_MEASURE_WITH_UNIT (LENGTH_MEASURE( 1.000000000000000082E-05 ), #730, 'distance_accuracy_value', 'NONE');
#140 = AXIS2_PLACEMENT_3D ( 'NONE', #952, #798, #232 ) ;
#141 =( GEOMETRIC_REPRESENTATION_CONTEXT ( 3 ) GLOBAL_UNCERTAINTY_ASSIGNED_CONTEXT ( ( #590 ) ) GLOBAL_UNIT_ASSIGNED_CONTEXT ( ( #517, #685, #133 ) ) REPRESENTATION_CONTEXT ( 'NONE', 'WORKASPACE' ) );
#142 = STYLED_ITEM ( 'NONE', ( #741 ), #800 ) ;
#143 = PRESENTATION_STYLE_ASSIGNMENT (( #850 ) ) ;
#144 = CIRCLE ( 'NONE', #501, 6.000000000000000000 ) ;
#145 = ORIENTED_EDGE ( 'NONE', *, *, #702, .F. ) ;
#146 = PRODUCT_DEFINITION_FORMATION_WITH_SPECIFIED_SOURCE ( 'ANY', '', #595, .NOT_KNOWN. ) ;
#147 = PLANE ( 'NONE',  #12 ) ;
#148 = PRESENTATION_STYLE_ASSIGNMENT (( #553 ) ) ;
#149 = SURFACE_STYLE_FILL_AREA ( #994 ) ;
#150 = CARTESIAN_POINT ( 'NONE',  ( 0.9968214519863044520, 0.000000000000000000, 0.000000000000000000 ) ) ;
#151 =( NAMED_UNIT ( * ) SI_UNIT ( $, .STERADIAN. ) SOLID_ANGLE_UNIT ( ) );
#152 = FILL_AREA_STYLE_COLOUR ( '', #449 ) ;
#153 =( LENGTH_UNIT ( ) NAMED_UNIT ( * ) SI_UNIT ( .MILLI., .METRE. ) );
#154 = UNCERTAINTY_MEASURE_WITH_UNIT (LENGTH_MEASURE( 1.000000000000000082E-05 ), #622, 'distance_accuracy_value', 'NONE');
#155 = DIRECTION ( 'NONE',  ( 0.000000000000000000, 0.000000000000000000, -1.000000000000000000 ) ) ;
#156 = CARTESIAN_POINT ( 'NONE',  ( 0.9968214519863044520, 0.000000000000000000, 0.000000000000000000 ) ) ;
#157 = EDGE_CURVE ( 'NONE', #317, #453, #256, .T. ) ;
#158 = ORIENTED_EDGE ( 'NONE', *, *, #680, .F. ) ;
#159 = AXIS2_PLACEMENT_3D ( 'NONE', #808, #106, #965 ) ;
#160 = DIRECTION ( 'NONE',  ( 0.7431005017819711789, 0.08288428673722224305, -0.6640269868487610472 ) ) ;
#161 = COLOUR_RGB ( '',0.7764705882352941346, 0.7568627450980391913, 0.7372549019607843590 ) ;
#162 = PRESENTATION_LAYER_ASSIGNMENT (  '', '', ( #484 ) ) ;
#163 = DIRECTION ( 'NONE',  ( 0.000000000000000000, 0.000000000000000000, 1.000000000000000000 ) ) ;
#164 = SURFACE_STYLE_FILL_AREA ( #939 ) ;
#165 = DIRECTION ( 'NONE',  ( 0.000000000000000000, -1.000000000000000000, 0.000000000000000000 ) ) ;
#166 = PRESENTATION_STYLE_ASSIGNMENT (( #488 ) ) ;
#167 = CARTESIAN_POINT ( 'NONE',  ( 5.974195292295553905, 0.2313525518329656860, 8.370432990360215258E-16 ) ) ;
#168 = STYLED_ITEM ( 'NONE', ( #978 ), #85 ) ;
#169 = AXIS2_PLACEMENT_3D ( 'NONE', #942, #550, #313 ) ;
#170 = MECHANICAL_DESIGN_GEOMETRIC_PRESENTATION_REPRESENTATION (  '', ( #639 ), #322 ) ;
#171 = VECTOR ( 'NONE', #593, 1000.000000000000000 ) ;
#172 = PRESENTATION_STYLE_ASSIGNMENT (( #18 ) ) ;
#173 = MECHANICAL_DESIGN_GEOMETRIC_PRESENTATION_REPRESENTATION (  '', ( #604 ), #60 ) ;
#174 = CIRCLE ( 'NONE', #169, 1.749999999999999778 ) ;
#175 = LINE ( 'NONE', #50, #253 ) ;
#176 = SURFACE_STYLE_FILL_AREA ( #583 ) ;
#177 = SURFACE_STYLE_FILL_AREA ( #573 ) ;
#178 = DIRECTION ( 'NONE',  ( 0.000000000000000000, 1.000000000000000000, 0.000000000000000000 ) ) ;
#179 = ORIENTED_EDGE ( 'NONE', *, *, #102, .T. ) ;
#180 = SURFACE_STYLE_USAGE ( .BOTH. , #327 ) ;
#181 = ADVANCED_FACE ( 'NONE', ( #740 ), #480, .T. ) ;
#182 = FILL_AREA_STYLE ('',( #811 ) ) ;
#183 = ORIENTED_EDGE ( 'NONE', *, *, #246, .F. ) ;
#184 = SURFACE_SIDE_STYLE ('',( #724 ) ) ;
#185 = ADVANCED_FACE ( 'NONE', ( #986 ), #678, .T. ) ;
#186 = PRESENTATION_LAYER_ASSIGNMENT (  '', '', ( #498 ) ) ;
#187 = CARTESIAN_POINT ( 'NONE',  ( 0.9968214519863044520, 3.311827956989247479, 0.000000000000000000 ) ) ;
#188 = VERTEX_POINT ( 'NONE', #588 ) ;
#189 = AXIS2_PLACEMENT_3D ( 'NONE', #996, #840, #445 ) ;
#190 =( NAMED_UNIT ( * ) PLANE_ANGLE_UNIT ( ) SI_UNIT ( $, .RADIAN. ) );
#191 = VERTEX_POINT ( 'NONE', #672 ) ;
#192 = FACE_OUTER_BOUND ( 'NONE', #51, .T. ) ;
#193 =( NAMED_UNIT ( * ) PLANE_ANGLE_UNIT ( ) SI_UNIT ( $, .RADIAN. ) );
#194 = DIRECTION ( 'NONE',  ( 0.6663196743247736809, -0.7456662065614397816, -9.292562311528023527E-17 ) ) ;
#195 = EDGE_LOOP ( 'NONE', ( #367, #776, #116, #201, #971 ) ) ;
#196 = FILL_AREA_STYLE ('',( #861 ) ) ;
#197 =( LENGTH_UNIT ( ) NAMED_UNIT ( * ) SI_UNIT ( .MILLI., .METRE. ) );
#198 = PRESENTATION_STYLE_ASSIGNMENT (( #289 ) ) ;
#199 = DIRECTION ( 'NONE',  ( 0.7431005017819711789, -0.08288428673721758011, -0.6640269868487616023 ) ) ;
#200 = UNCERTAINTY_MEASURE_WITH_UNIT (LENGTH_MEASURE( 1.000000000000000082E-05 ), #491, 'distance_accuracy_value', 'NONE');
#201 = ORIENTED_EDGE ( 'NONE', *, *, #372, .F. ) ;
#202 = ORIENTED_EDGE ( 'NONE', *, *, #976, .F. ) ;
#203 = STYLED_ITEM ( 'NONE', ( #172 ), #132 ) ;
#204 = FILL_AREA_STYLE ('',( #991 ) ) ;
#205 = COLOUR_RGB ( '',0.7764705882352941346, 0.7568627450980391913, 0.7372549019607843590 ) ;
#206 = EDGE_LOOP ( 'NONE', ( #681, #694, #486, #513, #145 ) ) ;
#207 = CIRCLE ( 'NONE', #270, 1.749999999999999778 ) ;
#208 = MECHANICAL_DESIGN_GEOMETRIC_PRESENTATION_REPRESENTATION (  '', ( #272 ), #24 ) ;
#209 = ADVANCED_FACE ( 'NONE', ( #746 ), #450, .F. ) ;
#210 = SURFACE_STYLE_USAGE ( .BOTH. , #668 ) ;
#211 = EDGE_LOOP ( 'NONE', ( #716, #533, #220, #97, #609, #202, #665, #634, #425, #292, #679 ) ) ;
#212 = ORIENTED_EDGE ( 'NONE', *, *, #1016, .F. ) ;
#213 = VERTEX_POINT ( 'NONE', #612 ) ;
#214 =( LENGTH_UNIT ( ) NAMED_UNIT ( * ) SI_UNIT ( .MILLI., .METRE. ) );
#215 = DIRECTION ( 'NONE',  ( -0.1108510534444136914, 1.257808851980383614E-16, -0.9938370308809506559 ) ) ;
#216 = APPLICATION_CONTEXT ( 'automotive_design' ) ;
#217 = MECHANICAL_DESIGN_GEOMETRIC_PRESENTATION_REPRESENTATION (  '', ( #896 ), #802 ) ;
#218 =( LENGTH_UNIT ( ) NAMED_UNIT ( * ) SI_UNIT ( .MILLI., .METRE. ) );
#219 = CARTESIAN_POINT ( 'NONE',  ( 0.2666411873824114376, -0.4052592521765831513, 1.721732169736483131 ) ) ;
#220 = ORIENTED_EDGE ( 'NONE', *, *, #605, .T. ) ;
#221 =( NAMED_UNIT ( * ) SI_UNIT ( $, .STERADIAN. ) SOLID_ANGLE_UNIT ( ) );
#222 = VECTOR ( 'NONE', #788, 1000.000000000000000 ) ;
#223 = TOROIDAL_SURFACE ( 'NONE', #239, 3.080000000000000515, 0.4200000000000000400 ) ;
#224 = AXIS2_PLACEMENT_3D ( 'NONE', #506, #906, #430 ) ;
#225 = PLANE ( 'NONE',  #568 ) ;
#226 = FILL_AREA_STYLE ('',( #392 ) ) ;
#227 = VERTEX_POINT ( 'NONE', #625 ) ;
#228 = DIRECTION ( 'NONE',  ( 0.9938370308809507669, 0.000000000000000000, 0.1108510534444137746 ) ) ;
#229 = ORIENTED_EDGE ( 'NONE', *, *, #757, .T. ) ;
#230 = SURFACE_STYLE_USAGE ( .BOTH. , #325 ) ;
#231 = UNCERTAINTY_MEASURE_WITH_UNIT (LENGTH_MEASURE( 1.000000000000000082E-05 ), #787, 'distance_accuracy_value', 'NONE');
#232 = DIRECTION ( 'NONE',  ( 0.9938370308809506559, 0.000000000000000000, 0.1108510534444137469 ) ) ;
#233 = EDGE_CURVE ( 'NONE', #110, #260, #354, .T. ) ;
#234 = SURFACE_STYLE_USAGE ( .BOTH. , #922 ) ;
#235 = DIRECTION ( 'NONE',  ( -1.000000000000000000, -0.000000000000000000, -0.000000000000000000 ) ) ;
#236 = COLOUR_RGB ( '',0.7764705882352941346, 0.7568627450980391913, 0.7372549019607843590 ) ;
#237 = CARTESIAN_POINT ( 'NONE',  ( -25.39999999999996305, 0.000000000000000000, 0.000000000000000000 ) ) ;
#238 = VECTOR ( 'NONE', #160, 1000.000000000000000 ) ;
#239 = AXIS2_PLACEMENT_3D ( 'NONE', #279, #1012, #908 ) ;
#240 = CIRCLE ( 'NONE', #403, 3.500000000000000444 ) ;
#241 =( NAMED_UNIT ( * ) PLANE_ANGLE_UNIT ( ) SI_UNIT ( $, .RADIAN. ) );
#242 = FILL_AREA_STYLE_COLOUR ( '', #755 ) ;
#243 = SURFACE_SIDE_STYLE ('',( #461 ) ) ;
#244 = FACE_OUTER_BOUND ( 'NONE', #136, .T. ) ;
#245 = PRESENTATION_STYLE_ASSIGNMENT (( #180 ) ) ;
#246 = EDGE_CURVE ( 'NONE', #736, #248, #877, .T. ) ;
#247 = FILL_AREA_STYLE_COLOUR ( '', #10 ) ;
#248 = VERTEX_POINT ( 'NONE', #1 ) ;
#249 = CARTESIAN_POINT ( 'NONE',  ( 0.2553644383338094515, -1.731808957027352047, -2.120854295958262972E-16 ) ) ;
#250 = EDGE_LOOP ( 'NONE', ( #346, #862, #212, #748, #698 ) ) ;
#251 = PLANE ( 'NONE',  #159 ) ;
#252 = CARTESIAN_POINT ( 'NONE',  ( 0.03111693966988560850, -0.4315292644214371864, 0.4315292644214354101 ) ) ;
#253 = VECTOR ( 'NONE', #768, 1000.000000000000000 ) ;
#254 = DIRECTION ( 'NONE',  ( -0.7456662065614396706, 0.000000000000000000, -0.6663196743247736809 ) ) ;
#255 = CIRCLE ( 'NONE', #224, 5.995482475482741158 ) ;
#256 = LINE ( 'NONE', #261, #732 ) ;
#257 = FILL_AREA_STYLE ('',( #100 ) ) ;
#258 = COLOUR_RGB ( '',0.7921568627450980005, 0.8196078431372548767, 0.9333333333333333481 ) ;
#259 = DIRECTION ( 'NONE',  ( 0.7456662065614396706, 0.6663196743247736809, 0.000000000000000000 ) ) ;
#260 = VERTEX_POINT ( 'NONE', #709 ) ;
#261 = CARTESIAN_POINT ( 'NONE',  ( 2.214116351126373505, 0.1880408685282115300, 0.1880408685282121406 ) ) ;
#262 = LINE ( 'NONE', #103, #774 ) ;
#263 = EDGE_CURVE ( 'NONE', #299, #260, #395, .T. ) ;
#264 = LINE ( 'NONE', #19, #852 ) ;
#265 = DIRECTION ( 'NONE',  ( -0.000000000000000000, 0.000000000000000000, -1.000000000000000000 ) ) ;
#266 = MECHANICAL_DESIGN_GEOMETRIC_PRESENTATION_REPRESENTATION (  '', ( #618 ), #911 ) ;
#267 = PRESENTATION_LAYER_ASSIGNMENT (  '', '', ( #896 ) ) ;
#268 = CARTESIAN_POINT ( 'NONE',  ( 0.03111693966988647586, 0.4315292644214342443, 0.4315292644214356321 ) ) ;
#269 = DIRECTION ( 'NONE',  ( -0.1108510534444136914, 1.257808851980383614E-16, -0.9938370308809506559 ) ) ;
#270 = AXIS2_PLACEMENT_3D ( 'NONE', #697, #523, #1018 ) ;
#271 = SURFACE_SIDE_STYLE ('',( #649 ) ) ;
#272 = STYLED_ITEM ( 'NONE', ( #864 ), #894 ) ;
#273 = CARTESIAN_POINT ( 'NONE',  ( 1.949999999999999956, 0.2174999999999999989, 0.2174999999999999711 ) ) ;
#274 = EDGE_LOOP ( 'NONE', ( #418, #229, #39 ) ) ;
#275 = DIRECTION ( 'NONE',  ( -0.9938370308809506559, 0.000000000000000000, 0.1108510534444136914 ) ) ;
#276 = CARTESIAN_POINT ( 'NONE',  ( 0.000000000000000000, 1.959999999999999964, 0.4350000000000001088 ) ) ;
#277 = PRODUCT_DEFINITION_SHAPE ( 'NONE', 'NONE',  #722 ) ;
#278 = PRESENTATION_STYLE_ASSIGNMENT (( #210 ) ) ;
#279 = CARTESIAN_POINT ( 'NONE',  ( 1.347043950347263763, 0.000000000000000000, 0.000000000000000000 ) ) ;
#280 = ORIENTED_EDGE ( 'NONE', *, *, #957, .T. ) ;
#281 = LINE ( 'NONE', #273, #773 ) ;
#282 = ORIENTED_EDGE ( 'NONE', *, *, #64, .T. ) ;
#283 = DIRECTION ( 'NONE',  ( -1.000000000000000000, -0.000000000000000000, -0.000000000000000000 ) ) ;
#284 = PRESENTATION_STYLE_ASSIGNMENT (( #974 ) ) ;
#285 = UNCERTAINTY_MEASURE_WITH_UNIT (LENGTH_MEASURE( 1.000000000000000082E-05 ), #556, 'distance_accuracy_value', 'NONE');
#286 = EDGE_LOOP ( 'NONE', ( #919, #84 ) ) ;
#287 = DIRECTION ( 'NONE',  ( -0.1108510534444136914, 0.9938370308809506559, 3.595744332370143968E-15 ) ) ;
#288 = STYLED_ITEM ( 'NONE', ( #838 ), #29 ) ;
#289 = SURFACE_STYLE_USAGE ( .BOTH. , #997 ) ;
#290 = PLANE ( 'NONE',  #623 ) ;
#291 = VECTOR ( 'NONE', #666, 1000.000000000000000 ) ;
#292 = ORIENTED_EDGE ( 'NONE', *, *, #584, .F. ) ;
#293 = MECHANICAL_DESIGN_GEOMETRIC_PRESENTATION_REPRESENTATION (  '', ( #882 ), #721 ) ;
#294 = PRESENTATION_LAYER_ASSIGNMENT (  '', '', ( #470 ) ) ;
#295 = SURFACE_STYLE_USAGE ( .BOTH. , #37 ) ;
#296 = FILL_AREA_STYLE_COLOUR ( '', #653 ) ;
#297 = CARTESIAN_POINT ( 'NONE',  ( 0.9968214519863044520, 0.000000000000000000, 0.000000000000000000 ) ) ;
#298 =( NAMED_UNIT ( * ) PLANE_ANGLE_UNIT ( ) SI_UNIT ( $, .RADIAN. ) );
#299 = VERTEX_POINT ( 'NONE', #549 ) ;
#300 = SURFACE_SIDE_STYLE ('',( #149 ) ) ;
#301 =( NAMED_UNIT ( * ) PLANE_ANGLE_UNIT ( ) SI_UNIT ( $, .RADIAN. ) );
#302 = AXIS2_PLACEMENT_3D ( 'NONE', #783, #71, #465 ) ;
#303 = DIRECTION ( 'NONE',  ( 1.000000000000000000, 0.000000000000000000, 0.000000000000000000 ) ) ;
#304 = AXIS2_PLACEMENT_3D ( 'NONE', #881, #895, #493 ) ;
#305 =( NAMED_UNIT ( * ) PLANE_ANGLE_UNIT ( ) SI_UNIT ( $, .RADIAN. ) );
#306 = CIRCLE ( 'NONE', #880, 3.500000000000000444 ) ;
#307 = AXIS2_PLACEMENT_3D ( 'NONE', #821, #992, #375 ) ;
#308 = COLOUR_RGB ( '',0.7764705882352941346, 0.7568627450980391913, 0.7372549019607843590 ) ;
#309 = MECHANICAL_DESIGN_GEOMETRIC_PRESENTATION_REPRESENTATION (  '', ( #832 ), #438 ) ;
#310 =( NAMED_UNIT ( * ) SI_UNIT ( $, .STERADIAN. ) SOLID_ANGLE_UNIT ( ) );
#311 = CARTESIAN_POINT ( 'NONE',  ( 0.2666411873824114376, -1.721732169736485796, -0.4052592521765772116 ) ) ;
#312 = EDGE_CURVE ( 'NONE', #328, #905, #714, .T. ) ;
#313 = DIRECTION ( 'NONE',  ( 0.000000000000000000, 0.000000000000000000, 1.000000000000000000 ) ) ;
#314 = ORIENTED_EDGE ( 'NONE', *, *, #574, .T. ) ;
#315 = DIRECTION ( 'NONE',  ( -0.000000000000000000, 0.000000000000000000, 1.000000000000000000 ) ) ;
#316 = FACE_OUTER_BOUND ( 'NONE', #286, .T. ) ;
#317 = VERTEX_POINT ( 'NONE', #378 ) ;
#318 = APPLICATION_PROTOCOL_DEFINITION ( 'draft international standard', 'automotive_design', 1998, #764 ) ;
#319 = SURFACE_STYLE_FILL_AREA ( #859 ) ;
#320 = COLOUR_RGB ( '',0.7764705882352941346, 0.7568627450980391913, 0.7372549019607843590 ) ;
#321 = LINE ( 'NONE', #633, #238 ) ;
#322 =( GEOMETRIC_REPRESENTATION_CONTEXT ( 3 ) GLOBAL_UNCERTAINTY_ASSIGNED_CONTEXT ( ( #129 ) ) GLOBAL_UNIT_ASSIGNED_CONTEXT ( ( #40, #733, #359 ) ) REPRESENTATION_CONTEXT ( 'NONE', 'WORKASPACE' ) );
#323 = EDGE_CURVE ( 'NONE', #213, #771, #545, .T. ) ;
#324 = STYLED_ITEM ( 'NONE', ( #756 ), #960 ) ;
#325 = SURFACE_SIDE_STYLE ('',( #164 ) ) ;
#326 = AXIS2_PLACEMENT_3D ( 'NONE', #69, #66, #548 ) ;
#327 = SURFACE_SIDE_STYLE ('',( #956 ) ) ;
#328 = VERTEX_POINT ( 'NONE', #635 ) ;
#329 = DIRECTION ( 'NONE',  ( -0.1108510534444136914, 0.9938370308809506559, 3.595744332370143179E-15 ) ) ;
#330 = EDGE_CURVE ( 'NONE', #736, #191, #616, .T. ) ;
#331 = DIRECTION ( 'NONE',  ( 0.6663196743247736809, 0.7456662065614397816, 0.000000000000000000 ) ) ;
#332 = DIRECTION ( 'NONE',  ( -0.9938370308809506559, -0.1108510534444136914, -3.870343844922732447E-16 ) ) ;
#333 = PRESENTATION_LAYER_ASSIGNMENT (  '', '', ( #817 ) ) ;
#334 = PLANE ( 'NONE',  #385 ) ;
#335 = CIRCLE ( 'NONE', #819, 5.437518987584765817 ) ;
#336 = PLANE ( 'NONE',  #189 ) ;
#337 = AXIS2_PLACEMENT_3D ( 'NONE', #647, #105, #254 ) ;
#338 =( GEOMETRIC_REPRESENTATION_CONTEXT ( 3 ) GLOBAL_UNCERTAINTY_ASSIGNED_CONTEXT ( ( #830 ) ) GLOBAL_UNIT_ASSIGNED_CONTEXT ( ( #36, #1014, #931 ) ) REPRESENTATION_CONTEXT ( 'NONE', 'WORKASPACE' ) );
#339 = ORIENTED_EDGE ( 'NONE', *, *, #979, .F. ) ;
#340 = ADVANCED_FACE ( 'NONE', ( #632 ), #147, .F. ) ;
#341 = ORIENTED_EDGE ( 'NONE', *, *, #406, .T. ) ;
#342 = CARTESIAN_POINT ( 'NONE',  ( 2.193400286944045430, 0.1903515064562410486, 2.309278636184420884E-16 ) ) ;
#343 = CARTESIAN_POINT ( 'NONE',  ( 2.599999999999998312, 0.000000000000000000, 0.000000000000000000 ) ) ;
#344 = ORIENTED_EDGE ( 'NONE', *, *, #109, .T. ) ;
#345 = CARTESIAN_POINT ( 'NONE',  ( -25.39999999999996305, 0.000000000000000000, 3.500000000000000444 ) ) ;
#346 = ORIENTED_EDGE ( 'NONE', *, *, #323, .T. ) ;
#347 = SURFACE_STYLE_FILL_AREA ( #196 ) ;
#348 = FACE_OUTER_BOUND ( 'NONE', #938, .T. ) ;
#349 = LINE ( 'NONE', #485, #384 ) ;
#350 = SURFACE_STYLE_FILL_AREA ( #9 ) ;
#351 = AXIS2_PLACEMENT_3D ( 'NONE', #113, #921, #431 ) ;
#352 = ADVANCED_FACE ( 'NONE', ( #934 ), #225, .T. ) ;
#353 =( GEOMETRIC_REPRESENTATION_CONTEXT ( 3 ) GLOBAL_UNCERTAINTY_ASSIGNED_CONTEXT ( ( #446 ) ) GLOBAL_UNIT_ASSIGNED_CONTEXT ( ( #444, #135, #940 ) ) REPRESENTATION_CONTEXT ( 'NONE', 'WORKASPACE' ) );
#354 = CIRCLE ( 'NONE', #302, 1.749999999999999778 ) ;
#355 = CARTESIAN_POINT ( 'NONE',  ( 5.974195292295553905, 0.2313525518329656860, 8.370432990360215258E-16 ) ) ;
#356 = CIRCLE ( 'NONE', #402, 5.995482475482741158 ) ;
#357 = AXIS2_PLACEMENT_3D ( 'NONE', #920, #283, #765 ) ;
#358 = ORIENTED_EDGE ( 'NONE', *, *, #560, .T. ) ;
#359 =( NAMED_UNIT ( * ) SI_UNIT ( $, .STERADIAN. ) SOLID_ANGLE_UNIT ( ) );
#360 = CYLINDRICAL_SURFACE ( 'NONE', #357, 3.500000000000000444 ) ;
#361 =( LENGTH_UNIT ( ) NAMED_UNIT ( * ) SI_UNIT ( .MILLI., .METRE. ) );
#362 = ORIENTED_EDGE ( 'NONE', *, *, #711, .T. ) ;
#363 = CARTESIAN_POINT ( 'NONE',  ( 0.000000000000000000, 0.4350000000000068257, -1.959999999999998188 ) ) ;
#364 = FACE_OUTER_BOUND ( 'NONE', #206, .T. ) ;
#365 = LINE ( 'NONE', #831, #930 ) ;
#366 = ADVANCED_FACE ( 'NONE', ( #13 ), #334, .T. ) ;
#367 = ORIENTED_EDGE ( 'NONE', *, *, #109, .F. ) ;
#368 = DIRECTION ( 'NONE',  ( -1.000000000000000000, -0.000000000000000000, -0.000000000000000000 ) ) ;
#369 = PRESENTATION_LAYER_ASSIGNMENT (  '', '', ( #168 ) ) ;
#370 = SURFACE_STYLE_FILL_AREA ( #987 ) ;
#371 = CIRCLE ( 'NONE', #913, 3.311827956989247479 ) ;
#372 = EDGE_CURVE ( 'NONE', #943, #743, #371, .T. ) ;
#373 = CARTESIAN_POINT ( 'NONE',  ( -25.39999999999996305, 0.000000000000000000, 0.000000000000000000 ) ) ;
#374 = DIRECTION ( 'NONE',  ( 0.6663196743247735698, 0.7456662065614397816, 0.000000000000000000 ) ) ;
#375 = DIRECTION ( 'NONE',  ( 0.7456662065614395596, 0.000000000000000000, -0.6663196743247737919 ) ) ;
#376 = ORIENTED_EDGE ( 'NONE', *, *, #157, .F. ) ;
#377 = CARTESIAN_POINT ( 'NONE',  ( 2.193400286944045430, 4.336808689942017736E-16, 0.1903515064562409931 ) ) ;
#378 = CARTESIAN_POINT ( 'NONE',  ( 1.949999999999999956, 0.2175000000000001377, 0.2174999999999999711 ) ) ;
#379 = SURFACE_SIDE_STYLE ('',( #780 ) ) ;
#380 = CARTESIAN_POINT ( 'NONE',  ( 5.974195292295553905, 2.375629221075779134E-16, 0.2313525518329657416 ) ) ;
#381 = ORIENTED_EDGE ( 'NONE', *, *, #530, .F. ) ;
#382 = PRODUCT_CONTEXT ( 'NONE', #216, 'mechanical' ) ;
#383 = DIRECTION ( 'NONE',  ( -1.000000000000000000, -0.000000000000000000, -0.000000000000000000 ) ) ;
#384 = VECTOR ( 'NONE', #803, 999.9999999999998863 ) ;
#385 = AXIS2_PLACEMENT_3D ( 'NONE', #377, #215, #275 ) ;
#386 = ORIENTED_EDGE ( 'NONE', *, *, #233, .F. ) ;
#387 = DIRECTION ( 'NONE',  ( 0.000000000000000000, 0.000000000000000000, 1.000000000000000000 ) ) ;
#388 = AXIS2_PLACEMENT_3D ( 'NONE', #355, #287, #524 ) ;
#389 = AXIS2_PLACEMENT_3D ( 'NONE', #559, #165, #405 ) ;
#390 = DIRECTION ( 'NONE',  ( -1.000000000000000000, -0.000000000000000000, -0.000000000000000000 ) ) ;
#391 = EDGE_CURVE ( 'NONE', #213, #924, #620, .T. ) ;
#392 = FILL_AREA_STYLE_COLOUR ( '', #867 ) ;
#393 = CARTESIAN_POINT ( 'NONE',  ( 5.974195292295553905, 2.619630734554813543E-16, -0.2313525518329656583 ) ) ;
#394 = ORIENTED_EDGE ( 'NONE', *, *, #912, .F. ) ;
#395 = LINE ( 'NONE', #472, #482 ) ;
#396 = SURFACE_STYLE_FILL_AREA ( #226 ) ;
#397 = FILL_AREA_STYLE_COLOUR ( '', #516 ) ;
#398 = PRESENTATION_LAYER_ASSIGNMENT (  '', '', ( #53 ) ) ;
#399 = MECHANICAL_DESIGN_GEOMETRIC_PRESENTATION_REPRESENTATION (  '', ( #817 ), #38 ) ;
#400 = AXIS2_PLACEMENT_3D ( 'NONE', #61, #374, #693 ) ;
#401 = SURFACE_SIDE_STYLE ('',( #799 ) ) ;
#402 = AXIS2_PLACEMENT_3D ( 'NONE', #393, #92, #567 ) ;
#403 = AXIS2_PLACEMENT_3D ( 'NONE', #514, #368, #126 ) ;
#404 =( NAMED_UNIT ( * ) PLANE_ANGLE_UNIT ( ) SI_UNIT ( $, .RADIAN. ) );
#405 = DIRECTION ( 'NONE',  ( 0.000000000000000000, 0.000000000000000000, -1.000000000000000000 ) ) ;
#406 = EDGE_CURVE ( 'NONE', #227, #905, #624, .T. ) ;
#407 =( NAMED_UNIT ( * ) PLANE_ANGLE_UNIT ( ) SI_UNIT ( $, .RADIAN. ) );
#408 = CARTESIAN_POINT ( 'NONE',  ( 1.949999999999999956, -0.2175000000000007205, 0.2174999999999993883 ) ) ;
#409 =( LENGTH_UNIT ( ) NAMED_UNIT ( * ) SI_UNIT ( .MILLI., .METRE. ) );
#410 = PRESENTATION_STYLE_ASSIGNMENT (( #886 ) ) ;
#411 = ORIENTED_EDGE ( 'NONE', *, *, #782, .T. ) ;
#412 = EDGE_CURVE ( 'NONE', #65, #188, #599, .T. ) ;
#413 = CARTESIAN_POINT ( 'NONE',  ( 2.599999999999998312, 0.000000000000000000, 0.000000000000000000 ) ) ;
#414 = UNCERTAINTY_MEASURE_WITH_UNIT (LENGTH_MEASURE( 1.000000000000000082E-05 ), #479, 'distance_accuracy_value', 'NONE');
#415 = ORIENTED_EDGE ( 'NONE', *, *, #979, .T. ) ;
#416 = CARTESIAN_POINT ( 'NONE',  ( 0.2666411873824114376, -0.4052592521765708278, -1.721732169736487128 ) ) ;
#417 =( GEOMETRIC_REPRESENTATION_CONTEXT ( 3 ) GLOBAL_UNCERTAINTY_ASSIGNED_CONTEXT ( ( #909 ) ) GLOBAL_UNIT_ASSIGNED_CONTEXT ( ( #409, #661, #579 ) ) REPRESENTATION_CONTEXT ( 'NONE', 'WORKASPACE' ) );
#418 = ORIENTED_EDGE ( 'NONE', *, *, #675, .T. ) ;
#419 = VECTOR ( 'NONE', #495, 1000.000000000000114 ) ;
#420 = DIRECTION ( 'NONE',  ( 0.000000000000000000, 0.000000000000000000, 1.000000000000000000 ) ) ;
#421 = DIRECTION ( 'NONE',  ( 0.7431005017819711789, 0.6640269868487613802, 0.08288428673721986994 ) ) ;
#422 = VERTEX_POINT ( 'NONE', #699 ) ;
#423 = SURFACE_STYLE_USAGE ( .BOTH. , #457 ) ;
#424 = CARTESIAN_POINT ( 'NONE',  ( 2.599999999999998312, 2.143131898507868051E-16, -1.749999999999999778 ) ) ;
#425 = ORIENTED_EDGE ( 'NONE', *, *, #574, .F. ) ;
#426 =( LENGTH_UNIT ( ) NAMED_UNIT ( * ) SI_UNIT ( .MILLI., .METRE. ) );
#427 = EDGE_CURVE ( 'NONE', #248, #943, #522, .T. ) ;
#428 = ORIENTED_EDGE ( 'NONE', *, *, #874, .T. ) ;
#429 = SURFACE_STYLE_FILL_AREA ( #111 ) ;
#430 = DIRECTION ( 'NONE',  ( -0.9938370308809507669, 0.000000000000000000, 0.1108510534444137052 ) ) ;
#431 = DIRECTION ( 'NONE',  ( 0.9938370308809506559, 0.000000000000000000, 0.1108510534444137469 ) ) ;
#432 = EDGE_LOOP ( 'NONE', ( #759, #849 ) ) ;
#433 =( GEOMETRIC_REPRESENTATION_CONTEXT ( 3 ) GLOBAL_UNCERTAINTY_ASSIGNED_CONTEXT ( ( #762 ) ) GLOBAL_UNIT_ASSIGNED_CONTEXT ( ( #218, #241, #475 ) ) REPRESENTATION_CONTEXT ( 'NONE', 'WORKASPACE' ) );
#434 = AXIS2_PLACEMENT_3D ( 'NONE', #792, #706, #637 ) ;
#435 = ADVANCED_FACE ( 'NONE', ( #508 ), #44, .T. ) ;
#436 = DIRECTION ( 'NONE',  ( 0.000000000000000000, 0.000000000000000000, 1.000000000000000000 ) ) ;
#437 = FILL_AREA_STYLE_COLOUR ( '', #308 ) ;
#438 =( GEOMETRIC_REPRESENTATION_CONTEXT ( 3 ) GLOBAL_UNCERTAINTY_ASSIGNED_CONTEXT ( ( #200 ) ) GLOBAL_UNIT_ASSIGNED_CONTEXT ( ( #491, #407, #813 ) ) REPRESENTATION_CONTEXT ( 'NONE', 'WORKASPACE' ) );
#439 = SURFACE_STYLE_FILL_AREA ( #585 ) ;
#440 = FILL_AREA_STYLE ('',( #62 ) ) ;
#441 = COLOUR_RGB ( '',0.7764705882352941346, 0.7568627450980391913, 0.7372549019607843590 ) ;
#442 = ORIENTED_EDGE ( 'NONE', *, *, #391, .F. ) ;
#443 = MECHANICAL_DESIGN_GEOMETRIC_PRESENTATION_REPRESENTATION (  '', ( #793 ), #338 ) ;
#444 =( LENGTH_UNIT ( ) NAMED_UNIT ( * ) SI_UNIT ( .MILLI., .METRE. ) );
#445 = DIRECTION ( 'NONE',  ( 0.9938370308809506559, -0.1108510534444137469, -3.870343844922734420E-16 ) ) ;
#446 = UNCERTAINTY_MEASURE_WITH_UNIT (LENGTH_MEASURE( 1.000000000000000082E-05 ), #444, 'distance_accuracy_value', 'NONE');
#447 = ORIENTED_EDGE ( 'NONE', *, *, #970, .F. ) ;
#448 = MECHANICAL_DESIGN_GEOMETRIC_PRESENTATION_REPRESENTATION (  '', ( #581 ), #683 ) ;
#449 = COLOUR_RGB ( '',0.7764705882352941346, 0.7568627450980391913, 0.7372549019607843590 ) ;
#450 = PLANE ( 'NONE',  #400 ) ;
#451 = DIRECTION ( 'NONE',  ( -0.000000000000000000, 0.000000000000000000, -1.000000000000000000 ) ) ;
#452 = CIRCLE ( 'NONE', #791, 3.311827956989247479 ) ;
#453 = VERTEX_POINT ( 'NONE', #268 ) ;
#454 =( NAMED_UNIT ( * ) PLANE_ANGLE_UNIT ( ) SI_UNIT ( $, .RADIAN. ) );
#455 = ADVANCED_FACE ( 'NONE', ( #192 ), #1009, .T. ) ;
#456 = PRESENTATION_LAYER_ASSIGNMENT (  '', '', ( #324 ) ) ;
#457 = SURFACE_SIDE_STYLE ('',( #347 ) ) ;
#458 = ORIENTED_EDGE ( 'NONE', *, *, #970, .T. ) ;
#459 = CARTESIAN_POINT ( 'NONE',  ( 1.949999999999999956, 0.2175000000000007205, -0.2174999999999992772 ) ) ;
#460 = UNCERTAINTY_MEASURE_WITH_UNIT (LENGTH_MEASURE( 1.000000000000000082E-05 ), #153, 'distance_accuracy_value', 'NONE');
#461 = SURFACE_STYLE_FILL_AREA ( #710 ) ;
#462 = DIRECTION ( 'NONE',  ( 0.000000000000000000, 0.000000000000000000, 1.000000000000000000 ) ) ;
#463 = FACE_BOUND ( 'NONE', #671, .T. ) ;
#464 = DIRECTION ( 'NONE',  ( -1.000000000000000000, -0.000000000000000000, -0.000000000000000000 ) ) ;
#465 = DIRECTION ( 'NONE',  ( 0.000000000000000000, 0.000000000000000000, 1.000000000000000000 ) ) ;
#466 =( NAMED_UNIT ( * ) SI_UNIT ( $, .STERADIAN. ) SOLID_ANGLE_UNIT ( ) );
#467 = COLOUR_RGB ( '',0.7764705882352941346, 0.7568627450980391913, 0.7372549019607843590 ) ;
#468 = AXIS2_PLACEMENT_3D ( 'NONE', #969, #20, #332 ) ;
#469 = PRESENTATION_STYLE_ASSIGNMENT (( #865 ) ) ;
#470 = STYLED_ITEM ( 'NONE', ( #797 ), #884 ) ;
#471 = VERTEX_POINT ( 'NONE', #249 ) ;
#472 = CARTESIAN_POINT ( 'NONE',  ( -25.39999999999996305, 0.000000000000000000, 1.749999999999999778 ) ) ;
#473 = DIRECTION ( 'NONE',  ( 0.000000000000000000, 0.000000000000000000, 1.000000000000000000 ) ) ;
#474 = DIRECTION ( 'NONE',  ( -0.1108510534444136914, 0.9938370308809506559, 3.595744332370143968E-15 ) ) ;
#475 =( NAMED_UNIT ( * ) SI_UNIT ( $, .STERADIAN. ) SOLID_ANGLE_UNIT ( ) );
#476 = EDGE_CURVE ( 'NONE', #993, #889, #1002, .T. ) ;
#477 = FILL_AREA_STYLE_COLOUR ( '', #758 ) ;
#478 = COLOUR_RGB ( '',0.7764705882352941346, 0.7568627450980391913, 0.7372549019607843590 ) ;
#479 =( LENGTH_UNIT ( ) NAMED_UNIT ( * ) SI_UNIT ( .MILLI., .METRE. ) );
#480 = CYLINDRICAL_SURFACE ( 'NONE', #8, 1.749999999999999778 ) ;
#481 = TOROIDAL_SURFACE ( 'NONE', #118, 3.080000000000000515, 0.4200000000000000400 ) ;
#482 = VECTOR ( 'NONE', #390, 1000.000000000000000 ) ;
#483 = DIRECTION ( 'NONE',  ( -1.000000000000000000, -0.000000000000000000, -0.000000000000000000 ) ) ;
#484 = STYLED_ITEM ( 'NONE', ( #166 ), #945 ) ;
#485 = CARTESIAN_POINT ( 'NONE',  ( 0.000000000000000000, -0.4349999999999927813, -1.960000000000001741 ) ) ;
#486 = ORIENTED_EDGE ( 'NONE', *, *, #675, .F. ) ;
#487 = EDGE_CURVE ( 'NONE', #299, #933, #174, .T. ) ;
#488 = SURFACE_STYLE_USAGE ( .BOTH. , #575 ) ;
#489 = FILL_AREA_STYLE ('',( #890 ) ) ;
#490 = ORIENTED_EDGE ( 'NONE', *, *, #487, .T. ) ;
#491 =( LENGTH_UNIT ( ) NAMED_UNIT ( * ) SI_UNIT ( .MILLI., .METRE. ) );
#492 = ADVANCED_FACE ( 'NONE', ( #244 ), #786, .T. ) ;
#493 = DIRECTION ( 'NONE',  ( -0.000000000000000000, 0.000000000000000000, 1.000000000000000000 ) ) ;
#494 = CARTESIAN_POINT ( 'NONE',  ( 0.9968214519863044520, 0.000000000000000000, 3.311827956989247479 ) ) ;
#495 = DIRECTION ( 'NONE',  ( 0.9877866216249069353, 0.1101762001043169042, -0.1101762001043164879 ) ) ;
#496 = COLOUR_RGB ( '',0.7764705882352941346, 0.7568627450980391913, 0.7372549019607843590 ) ;
#497 = ORIENTED_EDGE ( 'NONE', *, *, #1010, .F. ) ;
#498 = STYLED_ITEM ( 'NONE', ( #826 ), #435 ) ;
#499 = EDGE_LOOP ( 'NONE', ( #428, #926, #883, #984 ) ) ;
#500 = STYLED_ITEM ( 'NONE', ( #410 ), #642 ) ;
#501 = AXIS2_PLACEMENT_3D ( 'NONE', #854, #775, #45 ) ;
#502 = SURFACE_STYLE_FILL_AREA ( #489 ) ;
#503 = CARTESIAN_POINT ( 'NONE',  ( 1.949999999999999956, 0.2175000000000007483, -0.2174999999999992772 ) ) ;
#504 =( NAMED_UNIT ( * ) SI_UNIT ( $, .STERADIAN. ) SOLID_ANGLE_UNIT ( ) );
#505 = DIRECTION ( 'NONE',  ( -1.000000000000000000, -0.000000000000000000, -0.000000000000000000 ) ) ;
#506 = CARTESIAN_POINT ( 'NONE',  ( 5.974195292295553905, 2.619630734554813543E-16, -0.2313525518329656583 ) ) ;
#507 = EDGE_CURVE ( 'NONE', #422, #453, #99, .T. ) ;
#508 = FACE_OUTER_BOUND ( 'NONE', #592, .T. ) ;
#509 =( NAMED_UNIT ( * ) SI_UNIT ( $, .STERADIAN. ) SOLID_ANGLE_UNIT ( ) );
#510 = ORIENTED_EDGE ( 'NONE', *, *, #323, .F. ) ;
#511 = EDGE_CURVE ( 'NONE', #839, #905, #321, .T. ) ;
#512 = CIRCLE ( 'NONE', #74, 1.749999999999999778 ) ;
#513 = ORIENTED_EDGE ( 'NONE', *, *, #651, .F. ) ;
#514 = CARTESIAN_POINT ( 'NONE',  ( 1.347043950347265318, 0.000000000000000000, 0.000000000000000000 ) ) ;
#515 = AXIS2_PLACEMENT_3D ( 'NONE', #958, #329, #871 ) ;
#516 = COLOUR_RGB ( '',0.7764705882352941346, 0.7568627450980391913, 0.7372549019607843590 ) ;
#517 =( LENGTH_UNIT ( ) NAMED_UNIT ( * ) SI_UNIT ( .MILLI., .METRE. ) );
#518 = SPHERICAL_SURFACE ( 'NONE', #885, 6.000000000000000000 ) ;
#519 = UNCERTAINTY_MEASURE_WITH_UNIT (LENGTH_MEASURE( 1.000000000000000082E-05 ), #361, 'distance_accuracy_value', 'NONE');
#520 = STYLED_ITEM ( 'NONE', ( #128 ), #844 ) ;
#521 = PRESENTATION_LAYER_ASSIGNMENT (  '', '', ( #604 ) ) ;
#522 = CIRCLE ( 'NONE', #704, 3.311827956989247479 ) ;
#523 = DIRECTION ( 'NONE',  ( -1.000000000000000000, -0.000000000000000000, -0.000000000000000000 ) ) ;
#524 = DIRECTION ( 'NONE',  ( -0.9938370308809507669, -0.1108510534444137052, 0.000000000000000000 ) ) ;
#525 = FILL_AREA_STYLE ('',( #532 ) ) ;
#526 = ORIENTED_EDGE ( 'NONE', *, *, #651, .T. ) ;
#527 = PLANE ( 'NONE',  #89 ) ;
#528 = ORIENTED_EDGE ( 'NONE', *, *, #95, .T. ) ;
#529 =( NAMED_UNIT ( * ) PLANE_ANGLE_UNIT ( ) SI_UNIT ( $, .RADIAN. ) );
#530 = EDGE_CURVE ( 'NONE', #1008, #743, #949, .T. ) ;
#531 =( LENGTH_UNIT ( ) NAMED_UNIT ( * ) SI_UNIT ( .MILLI., .METRE. ) );
#532 = FILL_AREA_STYLE_COLOUR ( '', #161 ) ;
#533 = ORIENTED_EDGE ( 'NONE', *, *, #372, .T. ) ;
#534 = AXIS2_PLACEMENT_3D ( 'NONE', #868, #315, #303 ) ;
#535 = SURFACE_SIDE_STYLE ('',( #429 ) ) ;
#536 = ORIENTED_EDGE ( 'NONE', *, *, #1016, .T. ) ;
#537 = FILL_AREA_STYLE ('',( #1021 ) ) ;
#538 = PRESENTATION_LAYER_ASSIGNMENT (  '', '', ( #203 ) ) ;
#539 = COLOUR_RGB ( '',0.7764705882352941346, 0.7568627450980391913, 0.7372549019607843590 ) ;
#540 = CARTESIAN_POINT ( 'NONE',  ( 0.000000000000000000, 1.959999999999999964, -0.4350000000000000533 ) ) ;
#541 = CARTESIAN_POINT ( 'NONE',  ( 6.000000000000000000, 2.326828918379972351E-16, 0.000000000000000000 ) ) ;
#542 = SURFACE_STYLE_FILL_AREA ( #928 ) ;
#543 = EDGE_CURVE ( 'NONE', #1008, #975, #306, .T. ) ;
#544 =( LENGTH_UNIT ( ) NAMED_UNIT ( * ) SI_UNIT ( .MILLI., .METRE. ) );
#545 = LINE ( 'NONE', #540, #932 ) ;
#546 = SURFACE_SIDE_STYLE ('',( #396 ) ) ;
#547 = DIRECTION ( 'NONE',  ( 0.000000000000000000, 0.000000000000000000, 1.000000000000000000 ) ) ;
#548 = DIRECTION ( 'NONE',  ( 1.000000000000000000, 0.000000000000000000, 0.000000000000000000 ) ) ;
#549 = CARTESIAN_POINT ( 'NONE',  ( 32.60000000000000142, 0.000000000000000000, 1.749999999999999778 ) ) ;
#550 = DIRECTION ( 'NONE',  ( -1.000000000000000000, -0.000000000000000000, -0.000000000000000000 ) ) ;
#551 = ORIENTED_EDGE ( 'NONE', *, *, #976, .T. ) ;
#552 =( NAMED_UNIT ( * ) PLANE_ANGLE_UNIT ( ) SI_UNIT ( $, .RADIAN. ) );
#553 = SURFACE_STYLE_USAGE ( .BOTH. , #546 ) ;
#554 = EDGE_LOOP ( 'NONE', ( #415, #878, #641 ) ) ;
#555 = PRESENTATION_LAYER_ASSIGNMENT (  '', '', ( #500 ) ) ;
#556 =( LENGTH_UNIT ( ) NAMED_UNIT ( * ) SI_UNIT ( .MILLI., .METRE. ) );
#557 = VECTOR ( 'NONE', #199, 999.9999999999998863 ) ;
#558 = FACE_OUTER_BOUND ( 'NONE', #432, .T. ) ;
#559 = CARTESIAN_POINT ( 'NONE',  ( 1.347043950347263763, 0.000000000000000000, 3.080000000000000515 ) ) ;
#560 = EDGE_CURVE ( 'NONE', #924, #771, #75, .T. ) ;
#561 = FILL_AREA_STYLE_COLOUR ( '', #1001 ) ;
#562 = CARTESIAN_POINT ( 'NONE',  ( 2.214116351126373949, 0.1880408685282127790, -0.1880408685282121406 ) ) ;
#563 = VERTEX_POINT ( 'NONE', #252 ) ;
#564 = MECHANICAL_DESIGN_GEOMETRIC_PRESENTATION_REPRESENTATION (  '', ( #53 ), #433 ) ;
#565 = CARTESIAN_POINT ( 'NONE',  ( 1.347043950347263763, 3.771912141373848894E-16, -3.080000000000000515 ) ) ;
#566 = FACE_OUTER_BOUND ( 'NONE', #195, .T. ) ;
#567 = DIRECTION ( 'NONE',  ( -0.9938370308809507669, 0.000000000000000000, 0.1108510534444137052 ) ) ;
#568 = AXIS2_PLACEMENT_3D ( 'NONE', #342, #972, #737 ) ;
#569 = MECHANICAL_DESIGN_GEOMETRIC_PRESENTATION_REPRESENTATION (  '', ( #500 ), #1003 ) ;
#570 = COLOUR_RGB ( '',0.7921568627450980005, 0.8196078431372548767, 0.9333333333333333481 ) ;
#571 = MECHANICAL_DESIGN_GEOMETRIC_PRESENTATION_REPRESENTATION (  '', ( #1024 ), #655 ) ;
#572 = CARTESIAN_POINT ( 'NONE',  ( 32.60000000000000142, 2.143131898507868051E-16, -1.749999999999999778 ) ) ;
#573 = FILL_AREA_STYLE ('',( #561 ) ) ;
#574 = EDGE_CURVE ( 'NONE', #563, #839, #76, .T. ) ;
#575 = SURFACE_SIDE_STYLE ('',( #176 ) ) ;
#576 = FACE_OUTER_BOUND ( 'NONE', #499, .T. ) ;
#577 = DIRECTION ( 'NONE',  ( -1.000000000000000000, -0.000000000000000000, -0.000000000000000000 ) ) ;
#578 = PRESENTATION_LAYER_ASSIGNMENT (  '', '', ( #766 ) ) ;
#579 =( NAMED_UNIT ( * ) SI_UNIT ( $, .STERADIAN. ) SOLID_ANGLE_UNIT ( ) );
#580 = DIRECTION ( 'NONE',  ( -0.9877866216249070463, -0.1101762001043161271, -0.1101762001043165851 ) ) ;
#581 = STYLED_ITEM ( 'NONE', ( #17 ), #352 ) ;
#582 = VECTOR ( 'NONE', #577, 1000.000000000000000 ) ;
#583 = FILL_AREA_STYLE ('',( #888 ) ) ;
#584 = EDGE_CURVE ( 'NONE', #328, #563, #356, .T. ) ;
#585 = FILL_AREA_STYLE ('',( #761 ) ) ;
#586 = DIRECTION ( 'NONE',  ( 0.6663196743247736809, -0.7456662065614397816, -9.292562311528023527E-17 ) ) ;
#587 = DIRECTION ( 'NONE',  ( -0.1108510534444137469, 2.096348086633972484E-17, 0.9938370308809506559 ) ) ;
#588 = CARTESIAN_POINT ( 'NONE',  ( 2.599999999999998312, 4.286263797015736595E-16, -3.500000000000000000 ) ) ;
#589 = SURFACE_SIDE_STYLE ('',( #837 ) ) ;
#590 = UNCERTAINTY_MEASURE_WITH_UNIT (LENGTH_MEASURE( 1.000000000000000082E-05 ), #517, 'distance_accuracy_value', 'NONE');
#591 = PRODUCT_RELATED_PRODUCT_CATEGORY ( 'part', '', ( #595 ) ) ;
#592 = EDGE_LOOP ( 'NONE', ( #107, #5, #608, #386 ) ) ;
#593 = DIRECTION ( 'NONE',  ( 0.7431005017819711789, -0.08288428673722218754, 0.6640269868487610472 ) ) ;
#594 =( LENGTH_UNIT ( ) NAMED_UNIT ( * ) SI_UNIT ( .MILLI., .METRE. ) );
#595 = PRODUCT ( 'M3.5 x 30 Screw head', 'M3.5 x 30 Screw head', '', ( #382 ) ) ;
#596 = FACE_OUTER_BOUND ( 'NONE', #43, .T. ) ;
#597 =( GEOMETRIC_REPRESENTATION_CONTEXT ( 3 ) GLOBAL_UNCERTAINTY_ASSIGNED_CONTEXT ( ( #900 ) ) GLOBAL_UNIT_ASSIGNED_CONTEXT ( ( #648, #731, #738 ) ) REPRESENTATION_CONTEXT ( 'NONE', 'WORKASPACE' ) );
#598 = CARTESIAN_POINT ( 'NONE',  ( 1.347043950347265318, 0.000000000000000000, 3.500000000000000444 ) ) ;
#599 = CIRCLE ( 'NONE', #836, 3.500000000000000000 ) ;
#600 = CIRCLE ( 'NONE', #307, 5.437518987584765817 ) ;
#601 = UNCERTAINTY_MEASURE_WITH_UNIT (LENGTH_MEASURE( 1.000000000000000082E-05 ), #197, 'distance_accuracy_value', 'NONE');
#602 = COLOUR_RGB ( '',0.7764705882352941346, 0.7568627450980391913, 0.7372549019607843590 ) ;
#603 = ORIENTED_EDGE ( 'NONE', *, *, #1010, .T. ) ;
#604 = STYLED_ITEM ( 'NONE', ( #81 ), #962 ) ;
#605 = EDGE_CURVE ( 'NONE', #743, #736, #452, .T. ) ;
#606 =( NAMED_UNIT ( * ) PLANE_ANGLE_UNIT ( ) SI_UNIT ( $, .RADIAN. ) );
#607 = SURFACE_STYLE_USAGE ( .BOTH. , #589 ) ;
#608 = ORIENTED_EDGE ( 'NONE', *, *, #263, .T. ) ;
#609 = ORIENTED_EDGE ( 'NONE', *, *, #789, .T. ) ;
#610 = ADVANCED_FACE ( 'NONE', ( #707 ), #892, .T. ) ;
#611 = SURFACE_STYLE_FILL_AREA ( #537 ) ;
#612 = CARTESIAN_POINT ( 'NONE',  ( 0.2666411873824114376, 1.721732169736486240, -0.4052592521765773226 ) ) ;
#613 = EDGE_CURVE ( 'NONE', #563, #905, #1025, .T. ) ;
#614 = SURFACE_SIDE_STYLE ('',( #686 ) ) ;
#615 = ORIENTED_EDGE ( 'NONE', *, *, #613, .T. ) ;
#616 = CIRCLE ( 'NONE', #534, 6.000000000000000000 ) ;
#617 = ORIENTED_EDGE ( 'NONE', *, *, #391, .T. ) ;
#618 = STYLED_ITEM ( 'NONE', ( #148 ), #70 ) ;
#619 = DIRECTION ( 'NONE',  ( 0.7456662065614397816, -2.326442708608981349E-15, 0.6663196743247735698 ) ) ;
#620 = CIRCLE ( 'NONE', #120, 5.995482475482740270 ) ;
#621 = MECHANICAL_DESIGN_GEOMETRIC_PRESENTATION_REPRESENTATION (  '', ( #142 ), #752 ) ;
#622 =( LENGTH_UNIT ( ) NAMED_UNIT ( * ) SI_UNIT ( .MILLI., .METRE. ) );
#623 = AXIS2_PLACEMENT_3D ( 'NONE', #636, #950, #72 ) ;
#624 = LINE ( 'NONE', #31, #291 ) ;
#625 = CARTESIAN_POINT ( 'NONE',  ( 1.949999999999999956, -0.2175000000000000266, -0.2174999999999999989 ) ) ;
#626 = PLANE ( 'NONE',  #640 ) ;
#627 = UNCERTAINTY_MEASURE_WITH_UNIT (LENGTH_MEASURE( 1.000000000000000082E-05 ), #426, 'distance_accuracy_value', 'NONE');
#628 =( NAMED_UNIT ( * ) SI_UNIT ( $, .STERADIAN. ) SOLID_ANGLE_UNIT ( ) );
#629 = DIRECTION ( 'NONE',  ( -0.1108510534444137469, -0.9938370308809506559, -3.448999966305766196E-15 ) ) ;
#630 = ORIENTED_EDGE ( 'NONE', *, *, #157, .T. ) ;
#631 = APPLICATION_PROTOCOL_DEFINITION ( 'draft international standard', 'automotive_design', 1998, #216 ) ;
#632 = FACE_OUTER_BOUND ( 'NONE', #812, .T. ) ;
#633 = CARTESIAN_POINT ( 'NONE',  ( 0.000000000000000000, -0.4350000000000069367, 1.959999999999998188 ) ) ;
#634 = ORIENTED_EDGE ( 'NONE', *, *, #814, .T. ) ;
#635 = CARTESIAN_POINT ( 'NONE',  ( 0.2666411873824114376, -1.721732169736485796, 0.4052592521765768785 ) ) ;
#636 = CARTESIAN_POINT ( 'NONE',  ( 1.949999999999999956, -0.2175000000000000266, -0.2174999999999999711 ) ) ;
#637 = DIRECTION ( 'NONE',  ( -0.7456662065614396706, 0.6663196743247736809, 0.000000000000000000 ) ) ;
#638 = AXIS2_PLACEMENT_3D ( 'NONE', #644, #86, #955 ) ;
#639 = STYLED_ITEM ( 'NONE', ( #824 ), #610 ) ;
#640 = AXIS2_PLACEMENT_3D ( 'NONE', #807, #269, #96 ) ;
#641 = ORIENTED_EDGE ( 'NONE', *, *, #95, .F. ) ;
#642 = ADVANCED_FACE ( 'NONE', ( #809 ), #652, .T. ) ;
#643 = PLANE ( 'NONE',  #304 ) ;
#644 = CARTESIAN_POINT ( 'NONE',  ( 5.974195292295553905, 2.375629221075779134E-16, 0.2313525518329657416 ) ) ;
#645 =( LENGTH_UNIT ( ) NAMED_UNIT ( * ) SI_UNIT ( .MILLI., .METRE. ) );
#646 = CARTESIAN_POINT ( 'NONE',  ( 5.974195292295553905, -0.2313525518329657138, -8.028830871489587498E-16 ) ) ;
#647 = CARTESIAN_POINT ( 'NONE',  ( 4.309938594911940868, -6.606512545546451519E-15, 1.891316923914901693 ) ) ;
#648 =( LENGTH_UNIT ( ) NAMED_UNIT ( * ) SI_UNIT ( .MILLI., .METRE. ) );
#649 = SURFACE_STYLE_FILL_AREA ( #257 ) ;
#650 = AXIS2_PLACEMENT_3D ( 'NONE', #565, #16, #815 ) ;
#651 = EDGE_CURVE ( 'NONE', #471, #889, #684, .T. ) ;
#652 = PLANE ( 'NONE',  #468 ) ;
#653 = COLOUR_RGB ( '',0.7764705882352941346, 0.7568627450980391913, 0.7372549019607843590 ) ;
#654 = MECHANICAL_DESIGN_GEOMETRIC_PRESENTATION_REPRESENTATION (  '', ( #14 ), #804 ) ;
#655 =( GEOMETRIC_REPRESENTATION_CONTEXT ( 3 ) GLOBAL_UNCERTAINTY_ASSIGNED_CONTEXT ( ( #285 ) ) GLOBAL_UNIT_ASSIGNED_CONTEXT ( ( #556, #796, #715 ) ) REPRESENTATION_CONTEXT ( 'NONE', 'WORKASPACE' ) );
#656 =( NAMED_UNIT ( * ) SI_UNIT ( $, .STERADIAN. ) SOLID_ANGLE_UNIT ( ) );
#657 = SURFACE_SIDE_STYLE ('',( #502 ) ) ;
#658 = DIRECTION ( 'NONE',  ( -0.9877866216249070463, 0.1101762001043161965, 0.1101762001043165434 ) ) ;
#659 = VERTEX_POINT ( 'NONE', #416 ) ;
#660 = DIRECTION ( 'NONE',  ( -1.000000000000000000, -0.000000000000000000, -0.000000000000000000 ) ) ;
#661 =( NAMED_UNIT ( * ) PLANE_ANGLE_UNIT ( ) SI_UNIT ( $, .RADIAN. ) );
#662 = LINE ( 'NONE', #114, #582 ) ;
#663 = SURFACE_SIDE_STYLE ('',( #350 ) ) ;
#664 = CLOSED_SHELL ( 'NONE', ( #49, #960, #181, #822, #610, #29, #185, #894, #366, #435, #85, #455, #800, #70, #209, #884, #723, #340, #642, #945, #132, #352, #492 ) ) ;
#665 = ORIENTED_EDGE ( 'NONE', *, *, #507, .F. ) ;
#666 = DIRECTION ( 'NONE',  ( 0.000000000000000000, -1.246209393661499619E-16, 1.000000000000000000 ) ) ;
#667 = CARTESIAN_POINT ( 'NONE',  ( 1.949999999999999956, -0.2175000000000000266, -0.2174999999999999989 ) ) ;
#668 = SURFACE_SIDE_STYLE ('',( #439 ) ) ;
#669 = CARTESIAN_POINT ( 'NONE',  ( 0.000000000000000000, 0.4349999999999932254, 1.960000000000001741 ) ) ;
#670 = ORIENTED_EDGE ( 'NONE', *, *, #957, .F. ) ;
#671 = EDGE_LOOP ( 'NONE', ( #753, #713 ) ) ;
#672 = CARTESIAN_POINT ( 'NONE',  ( 0.2553644383338094515, 1.731808957027352269, 0.000000000000000000 ) ) ;
#673 = LINE ( 'NONE', #669, #557 ) ;
#674 = UNCERTAINTY_MEASURE_WITH_UNIT (LENGTH_MEASURE( 1.000000000000000082E-05 ), #875, 'distance_accuracy_value', 'NONE');
#675 = EDGE_CURVE ( 'NONE', #889, #227, #262, .T. ) ;
#676 = ORIENTED_EDGE ( 'NONE', *, *, #330, .F. ) ;
#677 = CARTESIAN_POINT ( 'NONE',  ( 1.347043950347265318, 4.286263797015737088E-16, -3.500000000000000444 ) ) ;
#678 = PLANE ( 'NONE',  #351 ) ;
#679 = ORIENTED_EDGE ( 'NONE', *, *, #702, .T. ) ;
#680 = EDGE_CURVE ( 'NONE', #317, #905, #281, .T. ) ;
#681 = ORIENTED_EDGE ( 'NONE', *, *, #312, .T. ) ;
#682 = DIRECTION ( 'NONE',  ( 0.000000000000000000, 1.000000000000000000, 6.231046968307495628E-17 ) ) ;
#683 =( GEOMETRIC_REPRESENTATION_CONTEXT ( 3 ) GLOBAL_UNCERTAINTY_ASSIGNED_CONTEXT ( ( #139 ) ) GLOBAL_UNIT_ASSIGNED_CONTEXT ( ( #730, #717, #21 ) ) REPRESENTATION_CONTEXT ( 'NONE', 'WORKASPACE' ) );
#684 = CIRCLE ( 'NONE', #41, 5.437518987584764929 ) ;
#685 =( NAMED_UNIT ( * ) PLANE_ANGLE_UNIT ( ) SI_UNIT ( $, .RADIAN. ) );
#686 = SURFACE_STYLE_FILL_AREA ( #525 ) ;
#687 = UNCERTAINTY_MEASURE_WITH_UNIT (LENGTH_MEASURE( 1.000000000000000082E-05 ), #645, 'distance_accuracy_value', 'NONE');
#688 = MECHANICAL_DESIGN_GEOMETRIC_PRESENTATION_REPRESENTATION (  '', ( #520 ), #1005 ) ;
#689 = FILL_AREA_STYLE_COLOUR ( '', #496 ) ;
#690 =( GEOMETRIC_REPRESENTATION_CONTEXT ( 3 ) GLOBAL_UNCERTAINTY_ASSIGNED_CONTEXT ( ( #601 ) ) GLOBAL_UNIT_ASSIGNED_CONTEXT ( ( #197, #301, #310 ) ) REPRESENTATION_CONTEXT ( 'NONE', 'WORKASPACE' ) );
#691 = PRESENTATION_STYLE_ASSIGNMENT (( #925 ) ) ;
#692 = DIRECTION ( 'NONE',  ( -1.000000000000000000, -0.000000000000000000, -0.000000000000000000 ) ) ;
#693 = DIRECTION ( 'NONE',  ( -0.7456662065614397816, 0.6663196743247735698, 0.000000000000000000 ) ) ;
#694 = ORIENTED_EDGE ( 'NONE', *, *, #406, .F. ) ;
#695 = DIRECTION ( 'NONE',  ( -1.000000000000000000, -0.000000000000000000, -0.000000000000000000 ) ) ;
#696 = EDGE_CURVE ( 'NONE', #65, #1008, #739, .T. ) ;
#697 = CARTESIAN_POINT ( 'NONE',  ( 32.60000000000000142, 0.000000000000000000, 0.000000000000000000 ) ) ;
#698 = ORIENTED_EDGE ( 'NONE', *, *, #64, .F. ) ;
#699 = CARTESIAN_POINT ( 'NONE',  ( 0.2666411873824114376, 0.4052592521765713274, 1.721732169736487794 ) ) ;
#700 = ORIENTED_EDGE ( 'NONE', *, *, #246, .T. ) ;
#701 = MECHANICAL_DESIGN_GEOMETRIC_PRESENTATION_REPRESENTATION (  '', ( #288 ), #353 ) ;
#702 = EDGE_CURVE ( 'NONE', #328, #471, #123, .T. ) ;
#703 = FILL_AREA_STYLE ('',( #152 ) ) ;
#704 = AXIS2_PLACEMENT_3D ( 'NONE', #1019, #695, #462 ) ;
#705 = AXIS2_PLACEMENT_3D ( 'NONE', #901, #194, #828 ) ;
#706 = DIRECTION ( 'NONE',  ( 0.6663196743247736809, 0.7456662065614397816, 0.000000000000000000 ) ) ;
#707 = FACE_OUTER_BOUND ( 'NONE', #211, .T. ) ;
#708 = VERTEX_POINT ( 'NONE', #989 ) ;
#709 = CARTESIAN_POINT ( 'NONE',  ( 2.599999999999998312, 0.000000000000000000, 1.749999999999999778 ) ) ;
#710 = FILL_AREA_STYLE ('',( #1017 ) ) ;
#711 = EDGE_CURVE ( 'NONE', #317, #771, #175, .T. ) ;
#712 = DIRECTION ( 'NONE',  ( 0.000000000000000000, 0.000000000000000000, 1.000000000000000000 ) ) ;
#713 = ORIENTED_EDGE ( 'NONE', *, *, #233, .T. ) ;
#714 = LINE ( 'NONE', #927, #222 ) ;
#715 =( NAMED_UNIT ( * ) SI_UNIT ( $, .STERADIAN. ) SOLID_ANGLE_UNIT ( ) );
#716 = ORIENTED_EDGE ( 'NONE', *, *, #841, .F. ) ;
#717 =( NAMED_UNIT ( * ) PLANE_ANGLE_UNIT ( ) SI_UNIT ( $, .RADIAN. ) );
#718 = FACE_OUTER_BOUND ( 'NONE', #80, .T. ) ;
#719 = PLANE ( 'NONE',  #770 ) ;
#720 = COLOUR_RGB ( '',0.7764705882352941346, 0.7568627450980391913, 0.7372549019607843590 ) ;
#721 =( GEOMETRIC_REPRESENTATION_CONTEXT ( 3 ) GLOBAL_UNCERTAINTY_ASSIGNED_CONTEXT ( ( #22 ) ) GLOBAL_UNIT_ASSIGNED_CONTEXT ( ( #594, #298, #1007 ) ) REPRESENTATION_CONTEXT ( 'NONE', 'WORKASPACE' ) );
#722 = PRODUCT_DEFINITION ( 'UNKNOWN', '', #146, #843 ) ;
#723 = ADVANCED_FACE ( 'NONE', ( #929 ), #527, .T. ) ;
#724 = SURFACE_STYLE_FILL_AREA ( #703 ) ;
#725 = SURFACE_STYLE_USAGE ( .BOTH. , #379 ) ;
#726 = SURFACE_STYLE_USAGE ( .BOTH. , #184 ) ;
#727 = EDGE_CURVE ( 'NONE', #933, #299, #207, .T. ) ;
#728 = DIRECTION ( 'NONE',  ( -1.000000000000000000, -0.000000000000000000, -0.000000000000000000 ) ) ;
#729 = ORIENTED_EDGE ( 'NONE', *, *, #4, .F. ) ;
#730 =( LENGTH_UNIT ( ) NAMED_UNIT ( * ) SI_UNIT ( .MILLI., .METRE. ) );
#731 =( NAMED_UNIT ( * ) PLANE_ANGLE_UNIT ( ) SI_UNIT ( $, .RADIAN. ) );
#732 = VECTOR ( 'NONE', #658, 1000.000000000000000 ) ;
#733 =( NAMED_UNIT ( * ) PLANE_ANGLE_UNIT ( ) SI_UNIT ( $, .RADIAN. ) );
#734 = PRESENTATION_LAYER_ASSIGNMENT (  '', '', ( #882 ) ) ;
#735 = MECHANICAL_DESIGN_GEOMETRIC_PRESENTATION_REPRESENTATION (  '', ( #484 ), #853 ) ;
#736 = VERTEX_POINT ( 'NONE', #187 ) ;
#737 = DIRECTION ( 'NONE',  ( 0.9938370308809506559, -0.1108510534444137469, -3.870343844922734420E-16 ) ) ;
#738 =( NAMED_UNIT ( * ) SI_UNIT ( $, .STERADIAN. ) SOLID_ANGLE_UNIT ( ) );
#739 = LINE ( 'NONE', #345, #967 ) ;
#740 = FACE_OUTER_BOUND ( 'NONE', #902, .T. ) ;
#741 = PRESENTATION_STYLE_ASSIGNMENT (( #966 ) ) ;
#742 = CARTESIAN_POINT ( 'NONE',  ( 4.309938594911940868, 1.891316923914901471, 2.356976916973721757E-16 ) ) ;
#743 = VERTEX_POINT ( 'NONE', #494 ) ;
#744 = DIRECTION ( 'NONE',  ( 0.7431005017819711789, -0.6640269868487613802, -0.08288428673721992546 ) ) ;
#745 =( GEOMETRIC_REPRESENTATION_CONTEXT ( 3 ) GLOBAL_UNCERTAINTY_ASSIGNED_CONTEXT ( ( #747 ) ) GLOBAL_UNIT_ASSIGNED_CONTEXT ( ( #531, #606, #899 ) ) REPRESENTATION_CONTEXT ( 'NONE', 'WORKASPACE' ) );
#746 = FACE_OUTER_BOUND ( 'NONE', #250, .T. ) ;
#747 = UNCERTAINTY_MEASURE_WITH_UNIT (LENGTH_MEASURE( 1.000000000000000082E-05 ), #531, 'distance_accuracy_value', 'NONE');
#748 = ORIENTED_EDGE ( 'NONE', *, *, #789, .F. ) ;
#749 = SURFACE_STYLE_USAGE ( .BOTH. , #663 ) ;
#750 = MECHANICAL_DESIGN_GEOMETRIC_PRESENTATION_REPRESENTATION (  '', ( #168 ), #417 ) ;
#751 = AXIS2_PLACEMENT_3D ( 'NONE', #646, #629, #3 ) ;
#752 =( GEOMETRIC_REPRESENTATION_CONTEXT ( 3 ) GLOBAL_UNCERTAINTY_ASSIGNED_CONTEXT ( ( #687 ) ) GLOBAL_UNIT_ASSIGNED_CONTEXT ( ( #645, #891, #27 ) ) REPRESENTATION_CONTEXT ( 'NONE', 'WORKASPACE' ) );
#753 = ORIENTED_EDGE ( 'NONE', *, *, #127, .T. ) ;
#754 =( NAMED_UNIT ( * ) SI_UNIT ( $, .STERADIAN. ) SOLID_ANGLE_UNIT ( ) );
#755 = COLOUR_RGB ( '',0.7764705882352941346, 0.7568627450980391913, 0.7372549019607843590 ) ;
#756 = PRESENTATION_STYLE_ASSIGNMENT (( #295 ) ) ;
#757 = EDGE_CURVE ( 'NONE', #227, #993, #264, .T. ) ;
#758 = COLOUR_RGB ( '',0.7764705882352941346, 0.7568627450980391913, 0.7372549019607843590 ) ;
#759 = ORIENTED_EDGE ( 'NONE', *, *, #412, .F. ) ;
#760 = SURFACE_STYLE_FILL_AREA ( #772 ) ;
#761 = FILL_AREA_STYLE_COLOUR ( '', #539 ) ;
#762 = UNCERTAINTY_MEASURE_WITH_UNIT (LENGTH_MEASURE( 1.000000000000000082E-05 ), #218, 'distance_accuracy_value', 'NONE');
#763 = ORIENTED_EDGE ( 'NONE', *, *, #263, .F. ) ;
#764 = APPLICATION_CONTEXT ( 'automotive_design' ) ;
#765 = DIRECTION ( 'NONE',  ( 0.000000000000000000, 0.000000000000000000, 1.000000000000000000 ) ) ;
#766 = STYLED_ITEM ( 'NONE', ( #284 ), #181 ) ;
#767 = ORIENTED_EDGE ( 'NONE', *, *, #507, .T. ) ;
#768 = DIRECTION ( 'NONE',  ( 0.000000000000000000, 0.000000000000000000, -1.000000000000000000 ) ) ;
#769 = CIRCLE ( 'NONE', #650, 0.4199999999999998179 ) ;
#770 = AXIS2_PLACEMENT_3D ( 'NONE', #860, #7, #155 ) ;
#771 = VERTEX_POINT ( 'NONE', #503 ) ;
#772 = FILL_AREA_STYLE ('',( #437 ) ) ;
#773 = VECTOR ( 'NONE', #33, 1000.000000000000000 ) ;
#774 = VECTOR ( 'NONE', #421, 1000.000000000000000 ) ;
#775 = DIRECTION ( 'NONE',  ( 0.000000000000000000, 1.224646799147353207E-16, -1.000000000000000000 ) ) ;
#776 = ORIENTED_EDGE ( 'NONE', *, *, #947, .T. ) ;
#777 = ORIENTED_EDGE ( 'NONE', *, *, #605, .F. ) ;
#778 = SURFACE_SIDE_STYLE ('',( #611 ) ) ;
#779 = DIRECTION ( 'NONE',  ( 0.6663196743247735698, 2.696405268330496621E-15, -0.7456662065614397816 ) ) ;
#780 = SURFACE_STYLE_FILL_AREA ( #856 ) ;
#781 = DIRECTION ( 'NONE',  ( -1.000000000000000000, 0.000000000000000000, 0.000000000000000000 ) ) ;
#782 = EDGE_CURVE ( 'NONE', #933, #110, #662, .T. ) ;
#783 = CARTESIAN_POINT ( 'NONE',  ( 2.599999999999998312, 0.000000000000000000, 0.000000000000000000 ) ) ;
#784 =( NAMED_UNIT ( * ) SI_UNIT ( $, .STERADIAN. ) SOLID_ANGLE_UNIT ( ) );
#785 = SURFACE_STYLE_USAGE ( .BOTH. , #243 ) ;
#786 = PLANE ( 'NONE',  #515 ) ;
#787 =( LENGTH_UNIT ( ) NAMED_UNIT ( * ) SI_UNIT ( .MILLI., .METRE. ) );
#788 = DIRECTION ( 'NONE',  ( 0.7431005017819711789, 0.6640269868487613802, -0.08288428673721975892 ) ) ;
#789 = EDGE_CURVE ( 'NONE', #191, #708, #335, .T. ) ;
#790 = AXIS2_PLACEMENT_3D ( 'NONE', #373, #692, #547 ) ;
#791 = AXIS2_PLACEMENT_3D ( 'NONE', #156, #464, #387 ) ;
#792 = CARTESIAN_POINT ( 'NONE',  ( 4.309938594911940868, -1.891316923914901471, 0.000000000000000000 ) ) ;
#793 = STYLED_ITEM ( 'NONE', ( #143 ), #455 ) ;
#794 = DIRECTION ( 'NONE',  ( -0.9938370308809507669, -0.1108510534444137052, 0.000000000000000000 ) ) ;
#795 = SURFACE_STYLE_USAGE ( .BOTH. , #948 ) ;
#796 =( NAMED_UNIT ( * ) PLANE_ANGLE_UNIT ( ) SI_UNIT ( $, .RADIAN. ) );
#797 = PRESENTATION_STYLE_ASSIGNMENT (( #234 ) ) ;
#798 = DIRECTION ( 'NONE',  ( -0.1108510534444137469, 2.096348086633972484E-17, 0.9938370308809506559 ) ) ;
#799 = SURFACE_STYLE_FILL_AREA ( #15 ) ;
#800 = ADVANCED_FACE ( 'NONE', ( #566 ), #223, .T. ) ;
#801 = MECHANICAL_DESIGN_GEOMETRIC_PRESENTATION_REPRESENTATION (  '', ( #83 ), #141 ) ;
#802 =( GEOMETRIC_REPRESENTATION_CONTEXT ( 3 ) GLOBAL_UNCERTAINTY_ASSIGNED_CONTEXT ( ( #519 ) ) GLOBAL_UNIT_ASSIGNED_CONTEXT ( ( #361, #193, #907 ) ) REPRESENTATION_CONTEXT ( 'NONE', 'WORKASPACE' ) );
#803 = DIRECTION ( 'NONE',  ( 0.7431005017819711789, 0.08288428673721742745, 0.6640269868487616023 ) ) ;
#804 =( GEOMETRIC_REPRESENTATION_CONTEXT ( 3 ) GLOBAL_UNCERTAINTY_ASSIGNED_CONTEXT ( ( #855 ) ) GLOBAL_UNIT_ASSIGNED_CONTEXT ( ( #214, #454, #221 ) ) REPRESENTATION_CONTEXT ( 'NONE', 'WORKASPACE' ) );
#805 = EDGE_LOOP ( 'NONE', ( #700, #988, #23, #526, #845, #339, #1004, #497, #442, #282, #676 ) ) ;
#806 = MECHANICAL_DESIGN_GEOMETRIC_PRESENTATION_REPRESENTATION (  '', ( #470 ), #915 ) ;
#807 = CARTESIAN_POINT ( 'NONE',  ( 2.193400286944045430, 4.336808689942017736E-16, 0.1903515064562409931 ) ) ;
#808 = CARTESIAN_POINT ( 'NONE',  ( 1.949999999999999956, -0.2175000000000006928, 0.2174999999999992495 ) ) ;
#809 = FACE_OUTER_BOUND ( 'NONE', #554, .T. ) ;
#810 = SURFACE_SIDE_STYLE ('',( #177 ) ) ;
#811 = FILL_AREA_STYLE_COLOUR ( '', #720 ) ;
#812 = EDGE_LOOP ( 'NONE', ( #528, #280, #447, #394 ) ) ;
#813 =( NAMED_UNIT ( * ) SI_UNIT ( $, .STERADIAN. ) SOLID_ANGLE_UNIT ( ) );
#814 = EDGE_CURVE ( 'NONE', #422, #839, #600, .T. ) ;
#815 = DIRECTION ( 'NONE',  ( 0.000000000000000000, -1.224646799147354193E-16, 1.000000000000000000 ) ) ;
#816 = CARTESIAN_POINT ( 'NONE',  ( 4.309938594911940868, -1.891316923914901471, 0.000000000000000000 ) ) ;
#817 = STYLED_ITEM ( 'NONE', ( #2 ), #49 ) ;
#818 = SURFACE_STYLE_FILL_AREA ( #182 ) ;
#819 = AXIS2_PLACEMENT_3D ( 'NONE', #816, #331, #981 ) ;
#820 = DIRECTION ( 'NONE',  ( 0.000000000000000000, 0.000000000000000000, 1.000000000000000000 ) ) ;
#821 = CARTESIAN_POINT ( 'NONE',  ( 4.309938594911940868, 6.836180637525074799E-15, -1.891316923914901693 ) ) ;
#822 = ADVANCED_FACE ( 'NONE', ( #918 ), #518, .T. ) ;
#823 = EDGE_LOOP ( 'NONE', ( #767, #376, #827 ) ) ;
#824 = PRESENTATION_STYLE_ASSIGNMENT (( #749 ) ) ;
#825 = ORIENTED_EDGE ( 'NONE', *, *, #127, .F. ) ;
#826 = PRESENTATION_STYLE_ASSIGNMENT (( #423 ) ) ;
#827 = ORIENTED_EDGE ( 'NONE', *, *, #874, .F. ) ;
#828 = DIRECTION ( 'NONE',  ( 0.7456662065614396706, 0.6663196743247736809, 0.000000000000000000 ) ) ;
#829 =( NAMED_UNIT ( * ) SI_UNIT ( $, .STERADIAN. ) SOLID_ANGLE_UNIT ( ) );
#830 = UNCERTAINTY_MEASURE_WITH_UNIT (LENGTH_MEASURE( 1.000000000000000082E-05 ), #36, 'distance_accuracy_value', 'NONE');
#831 = CARTESIAN_POINT ( 'NONE',  ( -25.39999999999996305, 4.286263797015737088E-16, -3.500000000000000444 ) ) ;
#832 = STYLED_ITEM ( 'NONE', ( #245 ), #366 ) ;
#833 = PRESENTATION_LAYER_ASSIGNMENT (  '', '', ( #14 ) ) ;
#834 = CIRCLE ( 'NONE', #388, 5.995482475482741158 ) ;
#835 =( LENGTH_UNIT ( ) NAMED_UNIT ( * ) SI_UNIT ( .MILLI., .METRE. ) );
#836 = AXIS2_PLACEMENT_3D ( 'NONE', #903, #937, #436 ) ;
#837 = SURFACE_STYLE_FILL_AREA ( #440 ) ;
#838 = PRESENTATION_STYLE_ASSIGNMENT (( #115 ) ) ;
#839 = VERTEX_POINT ( 'NONE', #219 ) ;
#840 = DIRECTION ( 'NONE',  ( -0.1108510534444137469, -0.9938370308809506559, -3.448999966305766196E-15 ) ) ;
#841 = EDGE_CURVE ( 'NONE', #943, #471, #144, .T. ) ;
#842 = SURFACE_STYLE_USAGE ( .BOTH. , #614 ) ;
#843 = PRODUCT_DEFINITION_CONTEXT ( 'detailed design', #764, 'design' ) ;
#844 = MANIFOLD_SOLID_BREP ( 'Move Face1', #664 ) ;
#845 = ORIENTED_EDGE ( 'NONE', *, *, #476, .F. ) ;
#846 = LINE ( 'NONE', #363, #171 ) ;
#847 = CARTESIAN_POINT ( 'NONE',  ( -25.39999999999996305, 0.000000000000000000, 0.000000000000000000 ) ) ;
#848 = COLOUR_RGB ( '',0.7764705882352941346, 0.7568627450980391913, 0.7372549019607843590 ) ;
#849 = ORIENTED_EDGE ( 'NONE', *, *, #102, .F. ) ;
#850 = SURFACE_STYLE_USAGE ( .BOTH. , #535 ) ;
#851 = AXIS2_PLACEMENT_3D ( 'NONE', #297, #383, #163 ) ;
#852 = VECTOR ( 'NONE', #580, 1000.000000000000000 ) ;
#853 =( GEOMETRIC_REPRESENTATION_CONTEXT ( 3 ) GLOBAL_UNCERTAINTY_ASSIGNED_CONTEXT ( ( #414 ) ) GLOBAL_UNIT_ASSIGNED_CONTEXT ( ( #479, #529, #829 ) ) REPRESENTATION_CONTEXT ( 'NONE', 'WORKASPACE' ) );
#854 = CARTESIAN_POINT ( 'NONE',  ( 6.000000000000000000, 2.326828918379972351E-16, 0.000000000000000000 ) ) ;
#855 = UNCERTAINTY_MEASURE_WITH_UNIT (LENGTH_MEASURE( 1.000000000000000082E-05 ), #214, 'distance_accuracy_value', 'NONE');
#856 = FILL_AREA_STYLE ('',( #247 ) ) ;
#857 = CARTESIAN_POINT ( 'NONE',  ( 1.949999999999999956, 0.2174999999999999989, -0.2174999999999999711 ) ) ;
#858 =( NAMED_UNIT ( * ) PLANE_ANGLE_UNIT ( ) SI_UNIT ( $, .RADIAN. ) );
#859 = FILL_AREA_STYLE ('',( #6 ) ) ;
#860 = CARTESIAN_POINT ( 'NONE',  ( 32.60000000000000142, 1.749999999999999778, 0.000000000000000000 ) ) ;
#861 = FILL_AREA_STYLE_COLOUR ( '', #467 ) ;
#862 = ORIENTED_EDGE ( 'NONE', *, *, #711, .F. ) ;
#863 = SHAPE_DEFINITION_REPRESENTATION ( #277, #962 ) ;
#864 = PRESENTATION_STYLE_ASSIGNMENT (( #230 ) ) ;
#865 = SURFACE_STYLE_USAGE ( .BOTH. , #401 ) ;
#866 = EDGE_LOOP ( 'NONE', ( #121, #344, #183, #777, #381 ) ) ;
#867 = COLOUR_RGB ( '',0.7764705882352941346, 0.7568627450980391913, 0.7372549019607843590 ) ;
#868 = CARTESIAN_POINT ( 'NONE',  ( 6.000000000000000000, 2.326828918379972351E-16, 0.000000000000000000 ) ) ;
#869 =( NAMED_UNIT ( * ) PLANE_ANGLE_UNIT ( ) SI_UNIT ( $, .RADIAN. ) );
#870 = PRESENTATION_LAYER_ASSIGNMENT (  '', '', ( #272 ) ) ;
#871 = DIRECTION ( 'NONE',  ( -0.9938370308809506559, -0.1108510534444136914, -3.870343844922732447E-16 ) ) ;
#872 = ORIENTED_EDGE ( 'NONE', *, *, #947, .F. ) ;
#873 = PRESENTATION_STYLE_ASSIGNMENT (( #795 ) ) ;
#874 = EDGE_CURVE ( 'NONE', #422, #317, #673, .T. ) ;
#875 =( LENGTH_UNIT ( ) NAMED_UNIT ( * ) SI_UNIT ( .MILLI., .METRE. ) );
#876 = DIRECTION ( 'NONE',  ( -1.000000000000000000, -0.000000000000000000, -0.000000000000000000 ) ) ;
#877 = CIRCLE ( 'NONE', #851, 3.311827956989247479 ) ;
#878 = ORIENTED_EDGE ( 'NONE', *, *, #757, .F. ) ;
#879 = AXIS2_PLACEMENT_3D ( 'NONE', #413, #26, #820 ) ;
#880 = AXIS2_PLACEMENT_3D ( 'NONE', #944, #876, #82 ) ;
#881 = CARTESIAN_POINT ( 'NONE',  ( 2.600000000000000089, 1.749999999999999778, 0.000000000000000000 ) ) ;
#882 = STYLED_ITEM ( 'NONE', ( #48 ), #822 ) ;
#883 = ORIENTED_EDGE ( 'NONE', *, *, #511, .F. ) ;
#884 = ADVANCED_FACE ( 'NONE', ( #364 ), #290, .F. ) ;
#885 = AXIS2_PLACEMENT_3D ( 'NONE', #541, #451, #134 ) ;
#886 = SURFACE_STYLE_USAGE ( .BOTH. , #93 ) ;
#887 = PRESENTATION_LAYER_ASSIGNMENT (  '', '', ( #1024 ) ) ;
#888 = FILL_AREA_STYLE_COLOUR ( '', #441 ) ;
#889 = VERTEX_POINT ( 'NONE', #311 ) ;
#890 = FILL_AREA_STYLE_COLOUR ( '', #320 ) ;
#891 =( NAMED_UNIT ( * ) PLANE_ANGLE_UNIT ( ) SI_UNIT ( $, .RADIAN. ) );
#892 = SPHERICAL_SURFACE ( 'NONE', #1022, 6.000000000000000000 ) ;
#893 = PRESENTATION_LAYER_ASSIGNMENT (  '', '', ( #581 ) ) ;
#894 = ADVANCED_FACE ( 'NONE', ( #718 ), #626, .T. ) ;
#895 = DIRECTION ( 'NONE',  ( -1.000000000000000000, 0.000000000000000000, -0.000000000000000000 ) ) ;
#896 = STYLED_ITEM ( 'NONE', ( #278 ), #185 ) ;
#897 = COLOUR_RGB ( '',0.7764705882352941346, 0.7568627450980391913, 0.7372549019607843590 ) ;
#898 = MECHANICAL_DESIGN_GEOMETRIC_PRESENTATION_REPRESENTATION (  '', ( #324 ), #90 ) ;
#899 =( NAMED_UNIT ( * ) SI_UNIT ( $, .STERADIAN. ) SOLID_ANGLE_UNIT ( ) );
#900 = UNCERTAINTY_MEASURE_WITH_UNIT (LENGTH_MEASURE( 1.000000000000000082E-05 ), #648, 'distance_accuracy_value', 'NONE');
#901 = CARTESIAN_POINT ( 'NONE',  ( 4.309938594911940868, 1.891316923914901471, 2.356976916973721757E-16 ) ) ;
#902 = EDGE_LOOP ( 'NONE', ( #490, #411, #825, #763 ) ) ;
#903 = CARTESIAN_POINT ( 'NONE',  ( 2.599999999999998312, 0.000000000000000000, 0.000000000000000000 ) ) ;
#904 = SURFACE_STYLE_FILL_AREA ( #204 ) ;
#905 = VERTEX_POINT ( 'NONE', #408 ) ;
#906 = DIRECTION ( 'NONE',  ( -0.1108510534444136914, 1.257808851980383614E-16, -0.9938370308809506559 ) ) ;
#907 =( NAMED_UNIT ( * ) SI_UNIT ( $, .STERADIAN. ) SOLID_ANGLE_UNIT ( ) );
#908 = DIRECTION ( 'NONE',  ( 0.000000000000000000, 0.000000000000000000, 1.000000000000000000 ) ) ;
#909 = UNCERTAINTY_MEASURE_WITH_UNIT (LENGTH_MEASURE( 1.000000000000000082E-05 ), #409, 'distance_accuracy_value', 'NONE');
#910 = SURFACE_SIDE_STYLE ('',( #542 ) ) ;
#911 =( GEOMETRIC_REPRESENTATION_CONTEXT ( 3 ) GLOBAL_UNCERTAINTY_ASSIGNED_CONTEXT ( ( #674 ) ) GLOBAL_UNIT_ASSIGNED_CONTEXT ( ( #875, #869, #628 ) ) REPRESENTATION_CONTEXT ( 'NONE', 'WORKASPACE' ) );
#912 = EDGE_CURVE ( 'NONE', #659, #130, #124, .T. ) ;
#913 = AXIS2_PLACEMENT_3D ( 'NONE', #150, #505, #68 ) ;
#914 = PRESENTATION_LAYER_ASSIGNMENT (  '', '', ( #142 ) ) ;
#915 =( GEOMETRIC_REPRESENTATION_CONTEXT ( 3 ) GLOBAL_UNCERTAINTY_ASSIGNED_CONTEXT ( ( #460 ) ) GLOBAL_UNIT_ASSIGNED_CONTEXT ( ( #153, #552, #784 ) ) REPRESENTATION_CONTEXT ( 'NONE', 'WORKASPACE' ) );
#916 = DIRECTION ( 'NONE',  ( -0.1108510534444137469, -0.9938370308809506559, -3.448999966305766196E-15 ) ) ;
#917 = AXIS2_PLACEMENT_3D ( 'NONE', #237, #483, #712 ) ;
#918 = FACE_OUTER_BOUND ( 'NONE', #805, .T. ) ;
#919 = ORIENTED_EDGE ( 'NONE', *, *, #487, .F. ) ;
#920 = CARTESIAN_POINT ( 'NONE',  ( -25.39999999999996305, 0.000000000000000000, 0.000000000000000000 ) ) ;
#921 = DIRECTION ( 'NONE',  ( -0.1108510534444137469, 2.096348086633972484E-17, 0.9938370308809506559 ) ) ;
#922 = SURFACE_SIDE_STYLE ('',( #370 ) ) ;
#923 = UNCERTAINTY_MEASURE_WITH_UNIT (LENGTH_MEASURE( 1.000000000000000082E-05 ), #25, 'distance_accuracy_value', 'NONE');
#924 = VERTEX_POINT ( 'NONE', #32 ) ;
#925 = SURFACE_STYLE_USAGE ( .BOTH. , #300 ) ;
#926 = ORIENTED_EDGE ( 'NONE', *, *, #680, .T. ) ;
#927 = CARTESIAN_POINT ( 'NONE',  ( 0.000000000000000000, -1.959999999999999964, 0.4349999999999996092 ) ) ;
#928 = FILL_AREA_STYLE ('',( #689 ) ) ;
#929 = FACE_OUTER_BOUND ( 'NONE', #30, .T. ) ;
#930 = VECTOR ( 'NONE', #63, 1000.000000000000000 ) ;
#931 =( NAMED_UNIT ( * ) SI_UNIT ( $, .STERADIAN. ) SOLID_ANGLE_UNIT ( ) );
#932 = VECTOR ( 'NONE', #77, 1000.000000000000000 ) ;
#933 = VERTEX_POINT ( 'NONE', #572 ) ;
#934 = FACE_OUTER_BOUND ( 'NONE', #823, .T. ) ;
#935 = UNCERTAINTY_MEASURE_WITH_UNIT (LENGTH_MEASURE( 1.000000000000000082E-05 ), #835, 'distance_accuracy_value', 'NONE');
#936 = CARTESIAN_POINT ( 'NONE',  ( 1.347043950347263763, 0.000000000000000000, 0.000000000000000000 ) ) ;
#937 = DIRECTION ( 'NONE',  ( -1.000000000000000000, -0.000000000000000000, -0.000000000000000000 ) ) ;
#938 = EDGE_LOOP ( 'NONE', ( #603, #458, #990 ) ) ;
#939 = FILL_AREA_STYLE ('',( #242 ) ) ;
#940 =( NAMED_UNIT ( * ) SI_UNIT ( $, .STERADIAN. ) SOLID_ANGLE_UNIT ( ) );
#941 = ORIENTED_EDGE ( 'NONE', *, *, #4, .T. ) ;
#942 = CARTESIAN_POINT ( 'NONE',  ( 32.60000000000000142, 0.000000000000000000, 0.000000000000000000 ) ) ;
#943 = VERTEX_POINT ( 'NONE', #973 ) ;
#944 = CARTESIAN_POINT ( 'NONE',  ( 1.347043950347265318, 0.000000000000000000, 0.000000000000000000 ) ) ;
#945 = ADVANCED_FACE ( 'NONE', ( #348 ), #336, .T. ) ;
#946 = SURFACE_STYLE_USAGE ( .BOTH. , #778 ) ;
#947 = EDGE_CURVE ( 'NONE', #975, #1008, #240, .T. ) ;
#948 = SURFACE_SIDE_STYLE ('',( #319 ) ) ;
#949 = CIRCLE ( 'NONE', #389, 0.4199999999999998179 ) ;
#950 = DIRECTION ( 'NONE',  ( 0.6663196743247735698, -0.7456662065614397816, -9.292562311528023527E-17 ) ) ;
#951 = PRESENTATION_LAYER_ASSIGNMENT (  '', '', ( #639 ) ) ;
#952 = CARTESIAN_POINT ( 'NONE',  ( 2.193400286944045430, -4.336808689942017736E-16, -0.1903515064562410486 ) ) ;
#953 = VECTOR ( 'NONE', #682, 1000.000000000000000 ) ;
#954 = VECTOR ( 'NONE', #744, 1000.000000000000000 ) ;
#955 = DIRECTION ( 'NONE',  ( 0.9938370308809507669, 0.000000000000000000, 0.1108510534444137746 ) ) ;
#956 = SURFACE_STYLE_FILL_AREA ( #88 ) ;
#957 = EDGE_CURVE ( 'NONE', #227, #771, #1011, .T. ) ;
#958 = CARTESIAN_POINT ( 'NONE',  ( 2.193400286944045430, -0.1903515064562409931, -2.309278636184418912E-16 ) ) ;
#959 = FILL_AREA_STYLE_COLOUR ( '', #205 ) ;
#960 = ADVANCED_FACE ( 'NONE', ( #112 ), #360, .T. ) ;
#961 = DIRECTION ( 'NONE',  ( 0.9877866216249069353, -0.1101762001043169320, 0.1101762001043165712 ) ) ;
#962 = ADVANCED_BREP_SHAPE_REPRESENTATION ( 'M3.5 x 30 Screw head', ( #844, #326 ), #690 ) ;
#963 = CIRCLE ( 'NONE', #879, 3.500000000000000000 ) ;
#964 = PRESENTATION_LAYER_ASSIGNMENT (  '', '', ( #793 ) ) ;
#965 = DIRECTION ( 'NONE',  ( -0.7456662065614397816, -2.326442708608981349E-15, 0.6663196743247735698 ) ) ;
#966 = SURFACE_STYLE_USAGE ( .BOTH. , #271 ) ;
#967 = VECTOR ( 'NONE', #660, 1000.000000000000000 ) ;
#968 = CIRCLE ( 'NONE', #42, 5.995482475482740270 ) ;
#969 = CARTESIAN_POINT ( 'NONE',  ( 2.193400286944045430, -0.1903515064562409931, -2.309278636184418912E-16 ) ) ;
#970 = EDGE_CURVE ( 'NONE', #130, #771, #846, .T. ) ;
#971 = ORIENTED_EDGE ( 'NONE', *, *, #427, .F. ) ;
#972 = DIRECTION ( 'NONE',  ( -0.1108510534444137469, -0.9938370308809506559, -3.448999966305766196E-15 ) ) ;
#973 = CARTESIAN_POINT ( 'NONE',  ( 0.9968214519863044520, -3.311827956989247035, -4.055819506853600563E-16 ) ) ;
#974 = SURFACE_STYLE_USAGE ( .BOTH. , #810 ) ;
#975 = VERTEX_POINT ( 'NONE', #677 ) ;
#976 = EDGE_CURVE ( 'NONE', #453, #708, #255, .T. ) ;
#977 = EDGE_LOOP ( 'NONE', ( #104, #941, #11, #94 ) ) ;
#978 = PRESENTATION_STYLE_ASSIGNMENT (( #725 ) ) ;
#979 = EDGE_CURVE ( 'NONE', #659, #993, #834, .T. ) ;
#980 = PRESENTATION_LAYER_ASSIGNMENT (  '', '', ( #618 ) ) ;
#981 = DIRECTION ( 'NONE',  ( -0.7456662065614396706, 0.6663196743247736809, 0.000000000000000000 ) ) ;
#982 = MECHANICAL_DESIGN_GEOMETRIC_PRESENTATION_REPRESENTATION (  '', ( #766 ), #745 ) ;
#983 = AXIS2_PLACEMENT_3D ( 'NONE', #167, #474, #794 ) ;
#984 = ORIENTED_EDGE ( 'NONE', *, *, #814, .F. ) ;
#985 = CARTESIAN_POINT ( 'NONE',  ( 5.974195292295553905, -0.2313525518329657138, -8.028830871489587498E-16 ) ) ;
#986 = FACE_OUTER_BOUND ( 'NONE', #274, .T. ) ;
#987 = FILL_AREA_STYLE ('',( #55 ) ) ;
#988 = ORIENTED_EDGE ( 'NONE', *, *, #427, .T. ) ;
#989 = CARTESIAN_POINT ( 'NONE',  ( 0.2666411873824114376, 1.721732169736485352, 0.4052592521765772671 ) ) ;
#990 = ORIENTED_EDGE ( 'NONE', *, *, #560, .F. ) ;
#991 = FILL_AREA_STYLE_COLOUR ( '', #848 ) ;
#992 = DIRECTION ( 'NONE',  ( 0.6663196743247736809, -2.603479645215216163E-15, 0.7456662065614397816 ) ) ;
#993 = VERTEX_POINT ( 'NONE', #137 ) ;
#994 = FILL_AREA_STYLE ('',( #122 ) ) ;
#995 = ORIENTED_EDGE ( 'NONE', *, *, #696, .T. ) ;
#996 = CARTESIAN_POINT ( 'NONE',  ( 2.193400286944045430, 0.1903515064562410486, 2.309278636184420884E-16 ) ) ;
#997 = SURFACE_SIDE_STYLE ('',( #904 ) ) ;
#998 =( NAMED_UNIT ( * ) PLANE_ANGLE_UNIT ( ) SI_UNIT ( $, .RADIAN. ) );
#999 = UNCERTAINTY_MEASURE_WITH_UNIT (LENGTH_MEASURE( 1.000000000000000082E-05 ), #119, 'distance_accuracy_value', 'NONE');
#1000 = ORIENTED_EDGE ( 'NONE', *, *, #511, .T. ) ;
#1001 = COLOUR_RGB ( '',0.7764705882352941346, 0.7568627450980391913, 0.7372549019607843590 ) ;
#1002 = CIRCLE ( 'NONE', #638, 5.995482475482740270 ) ;
#1003 =( GEOMETRIC_REPRESENTATION_CONTEXT ( 3 ) GLOBAL_UNCERTAINTY_ASSIGNED_CONTEXT ( ( #627 ) ) GLOBAL_UNIT_ASSIGNED_CONTEXT ( ( #426, #190, #504 ) ) REPRESENTATION_CONTEXT ( 'NONE', 'WORKASPACE' ) );
#1004 = ORIENTED_EDGE ( 'NONE', *, *, #912, .T. ) ;
#1005 =( GEOMETRIC_REPRESENTATION_CONTEXT ( 3 ) GLOBAL_UNCERTAINTY_ASSIGNED_CONTEXT ( ( #999 ) ) GLOBAL_UNIT_ASSIGNED_CONTEXT ( ( #119, #998, #509 ) ) REPRESENTATION_CONTEXT ( 'NONE', 'WORKASPACE' ) );
#1006 =( NAMED_UNIT ( * ) PLANE_ANGLE_UNIT ( ) SI_UNIT ( $, .RADIAN. ) );
#1007 =( NAMED_UNIT ( * ) SI_UNIT ( $, .STERADIAN. ) SOLID_ANGLE_UNIT ( ) );
#1008 = VERTEX_POINT ( 'NONE', #598 ) ;
#1009 = CYLINDRICAL_SURFACE ( 'NONE', #917, 3.500000000000000444 ) ;
#1010 = EDGE_CURVE ( 'NONE', #924, #130, #968, .T. ) ;
#1011 = LINE ( 'NONE', #667, #953 ) ;
#1012 = DIRECTION ( 'NONE',  ( -1.000000000000000000, -0.000000000000000000, -0.000000000000000000 ) ) ;
#1013 = ORIENTED_EDGE ( 'NONE', *, *, #312, .F. ) ;
#1014 =( NAMED_UNIT ( * ) PLANE_ANGLE_UNIT ( ) SI_UNIT ( $, .RADIAN. ) );
#1015 = ORIENTED_EDGE ( 'NONE', *, *, #613, .F. ) ;
#1016 = EDGE_CURVE ( 'NONE', #708, #317, #52, .T. ) ;
#1017 = FILL_AREA_STYLE_COLOUR ( '', #236 ) ;
#1018 = DIRECTION ( 'NONE',  ( 0.000000000000000000, 0.000000000000000000, 1.000000000000000000 ) ) ;
#1019 = CARTESIAN_POINT ( 'NONE',  ( 0.9968214519863044520, 0.000000000000000000, 0.000000000000000000 ) ) ;
#1020 = VECTOR ( 'NONE', #961, 1000.000000000000114 ) ;
#1021 = FILL_AREA_STYLE_COLOUR ( '', #258 ) ;
#1022 = AXIS2_PLACEMENT_3D ( 'NONE', #28, #265, #178 ) ;
#1023 = UNCERTAINTY_MEASURE_WITH_UNIT (LENGTH_MEASURE( 1.000000000000000082E-05 ), #544, 'distance_accuracy_value', 'NONE');
#1024 = STYLED_ITEM ( 'NONE', ( #469 ), #492 ) ;
#1025 = LINE ( 'NONE', #108, #419 ) ;
ENDSEC;
END-ISO-10303-21;
