ISO-10303-21;
HEADER;
FILE_DESCRIPTION (( 'STEP AP214' ),
    '1' );
FILE_NAME ('M3.5 x 5 Screw head.STEP',
    '2023-03-28T04:20:27',
    ( '' ),
    ( '' ),
    'SwSTEP 2.0',
    'SolidWorks 2022',
    '' );
FILE_SCHEMA (( 'AUTOMOTIVE_DESIGN' ));
ENDSEC;

DATA;
#1 = DIRECTION ( 'NONE',  ( -0.1108510534444137469, -0.9938370308809506559, -3.448999966305766196E-15 ) ) ;
#2 = VERTEX_POINT ( 'NONE', #620 ) ;
#3 = UNCERTAINTY_MEASURE_WITH_UNIT (LENGTH_MEASURE( 1.000000000000000082E-05 ), #770, 'distance_accuracy_value', 'NONE');
#4 = CARTESIAN_POINT ( 'NONE',  ( 0.2666411873824114376, -0.4052592521765708278, -1.721732169736487128 ) ) ;
#5 = MANIFOLD_SOLID_BREP ( 'pan cross head_am-4-solid1', #366 ) ;
#6 = SURFACE_STYLE_FILL_AREA ( #953 ) ;
#7 = PRESENTATION_STYLE_ASSIGNMENT (( #330 ) ) ;
#8 = CARTESIAN_POINT ( 'NONE',  ( 6.000000000000000000, 2.326828918379972351E-16, 0.000000000000000000 ) ) ;
#9 =( NAMED_UNIT ( * ) PLANE_ANGLE_UNIT ( ) SI_UNIT ( $, .RADIAN. ) );
#10 = EDGE_CURVE ( 'NONE', #662, #212, #381, .T. ) ;
#11 = CIRCLE ( 'NONE', #556, 5.437518987584764929 ) ;
#12 = AXIS2_PLACEMENT_3D ( 'NONE', #653, #255, #101 ) ;
#13 = EDGE_CURVE ( 'NONE', #183, #340, #11, .T. ) ;
#14 = MECHANICAL_DESIGN_GEOMETRIC_PRESENTATION_REPRESENTATION (  '', ( #903 ), #415 ) ;
#15 =( NAMED_UNIT ( * ) PLANE_ANGLE_UNIT ( ) SI_UNIT ( $, .RADIAN. ) );
#16 = MECHANICAL_DESIGN_GEOMETRIC_PRESENTATION_REPRESENTATION (  '', ( #856 ), #248 ) ;
#17 = CARTESIAN_POINT ( 'NONE',  ( 2.214116351126373505, 0.1880408685282115300, 0.1880408685282121406 ) ) ;
#18 = STYLED_ITEM ( 'NONE', ( #829 ), #821 ) ;
#19 =( NAMED_UNIT ( * ) PLANE_ANGLE_UNIT ( ) SI_UNIT ( $, .RADIAN. ) );
#20 = VERTEX_POINT ( 'NONE', #567 ) ;
#21 = LINE ( 'NONE', #622, #818 ) ;
#22 = CARTESIAN_POINT ( 'NONE',  ( 1.347043950347265318, 0.000000000000000000, 3.500000000000000444 ) ) ;
#23 = ORIENTED_EDGE ( 'NONE', *, *, #324, .F. ) ;
#24 =( NAMED_UNIT ( * ) SI_UNIT ( $, .STERADIAN. ) SOLID_ANGLE_UNIT ( ) );
#25 = SURFACE_STYLE_USAGE ( .BOTH. , #641 ) ;
#26 = EDGE_LOOP ( 'NONE', ( #176, #1008, #573, #847 ) ) ;
#27 = PRESENTATION_STYLE_ASSIGNMENT (( #272 ) ) ;
#28 = COLOUR_RGB ( '',0.7921568627450980005, 0.8196078431372548767, 0.9333333333333333481 ) ;
#29 = SURFACE_STYLE_FILL_AREA ( #663 ) ;
#30 = CIRCLE ( 'NONE', #990, 6.000000000000000000 ) ;
#31 = CARTESIAN_POINT ( 'NONE',  ( 2.599999999999998312, 0.000000000000000000, 1.749999999999999778 ) ) ;
#32 = DIRECTION ( 'NONE',  ( -0.9938370308809506559, 0.000000000000000000, 0.1108510534444136914 ) ) ;
#33 = ORIENTED_EDGE ( 'NONE', *, *, #141, .T. ) ;
#34 = FACE_OUTER_BOUND ( 'NONE', #787, .T. ) ;
#35 = FILL_AREA_STYLE ('',( #746 ) ) ;
#36 = ORIENTED_EDGE ( 'NONE', *, *, #1005, .T. ) ;
#37 = DIRECTION ( 'NONE',  ( 0.000000000000000000, 0.000000000000000000, 1.000000000000000000 ) ) ;
#38 = DIRECTION ( 'NONE',  ( -1.000000000000000000, -0.000000000000000000, -0.000000000000000000 ) ) ;
#39 = ORIENTED_EDGE ( 'NONE', *, *, #84, .F. ) ;
#40 = FILL_AREA_STYLE ('',( #51 ) ) ;
#41 = PRESENTATION_STYLE_ASSIGNMENT (( #815 ) ) ;
#42 =( GEOMETRIC_REPRESENTATION_CONTEXT ( 3 ) GLOBAL_UNCERTAINTY_ASSIGNED_CONTEXT ( ( #630 ) ) GLOBAL_UNIT_ASSIGNED_CONTEXT ( ( #123, #605, #768 ) ) REPRESENTATION_CONTEXT ( 'NONE', 'WORKASPACE' ) );
#43 = ADVANCED_FACE ( 'NONE', ( #170 ), #481, .T. ) ;
#44 = DIRECTION ( 'NONE',  ( 0.000000000000000000, 0.000000000000000000, 1.000000000000000000 ) ) ;
#45 = VECTOR ( 'NONE', #644, 1000.000000000000000 ) ;
#46 = CARTESIAN_POINT ( 'NONE',  ( 5.974195292295553905, -0.2313525518329657138, -8.028830871489587498E-16 ) ) ;
#47 = VERTEX_POINT ( 'NONE', #120 ) ;
#48 = UNCERTAINTY_MEASURE_WITH_UNIT (LENGTH_MEASURE( 1.000000000000000082E-05 ), #72, 'distance_accuracy_value', 'NONE');
#49 = COLOUR_RGB ( '',0.7921568627450980005, 0.8196078431372548767, 0.9333333333333333481 ) ;
#50 = ORIENTED_EDGE ( 'NONE', *, *, #13, .T. ) ;
#51 = FILL_AREA_STYLE_COLOUR ( '', #129 ) ;
#52 = DIRECTION ( 'NONE',  ( -0.000000000000000000, 1.000000000000000000, 1.224646799147353207E-16 ) ) ;
#53 = PLANE ( 'NONE',  #387 ) ;
#54 = CARTESIAN_POINT ( 'NONE',  ( 7.600000000000002309, 0.000000000000000000, 0.000000000000000000 ) ) ;
#55 = ORIENTED_EDGE ( 'NONE', *, *, #281, .F. ) ;
#56 = ADVANCED_FACE ( 'NONE', ( #516 ), #434, .T. ) ;
#57 = UNCERTAINTY_MEASURE_WITH_UNIT (LENGTH_MEASURE( 1.000000000000000082E-05 ), #374, 'distance_accuracy_value', 'NONE');
#58 = AXIS2_PLACEMENT_3D ( 'NONE', #426, #752, #310 ) ;
#59 = CARTESIAN_POINT ( 'NONE',  ( 5.974195292295553905, 2.619630734554813543E-16, -0.2313525518329656583 ) ) ;
#60 = AXIS2_PLACEMENT_3D ( 'NONE', #612, #131, #118 ) ;
#61 = ORIENTED_EDGE ( 'NONE', *, *, #281, .T. ) ;
#62 = ADVANCED_FACE ( 'NONE', ( #1009 ), #767, .T. ) ;
#63 = AXIS2_PLACEMENT_3D ( 'NONE', #574, #819, #37 ) ;
#64 = STYLED_ITEM ( 'NONE', ( #142 ), #918 ) ;
#65 = DIRECTION ( 'NONE',  ( -0.9938370308809506559, -0.1108510534444136914, -3.870343844922732447E-16 ) ) ;
#66 = DIRECTION ( 'NONE',  ( 0.6663196743247736809, 0.7456662065614397816, 0.000000000000000000 ) ) ;
#67 = CARTESIAN_POINT ( 'NONE',  ( 4.309938594911940868, 1.891316923914901471, 2.356976916973721757E-16 ) ) ;
#68 = UNCERTAINTY_MEASURE_WITH_UNIT (LENGTH_MEASURE( 1.000000000000000082E-05 ), #769, 'distance_accuracy_value', 'NONE');
#69 = FILL_AREA_STYLE ('',( #443 ) ) ;
#70 = CARTESIAN_POINT ( 'NONE',  ( 1.949999999999999956, -0.2175000000000000266, -0.2174999999999999711 ) ) ;
#71 = EDGE_CURVE ( 'NONE', #603, #138, #828, .T. ) ;
#72 =( LENGTH_UNIT ( ) NAMED_UNIT ( * ) SI_UNIT ( .MILLI., .METRE. ) );
#73 = EDGE_LOOP ( 'NONE', ( #771, #106, #1016, #348, #678, #709, #643, #995, #893, #471, #50 ) ) ;
#74 = COLOUR_RGB ( '',0.7764705882352941346, 0.7568627450980391913, 0.7372549019607843590 ) ;
#75 = AXIS2_PLACEMENT_3D ( 'NONE', #677, #681, #298 ) ;
#76 = FACE_OUTER_BOUND ( 'NONE', #78, .T. ) ;
#77 =( GEOMETRIC_REPRESENTATION_CONTEXT ( 3 ) GLOBAL_UNCERTAINTY_ASSIGNED_CONTEXT ( ( #848 ) ) GLOBAL_UNIT_ASSIGNED_CONTEXT ( ( #237, #883, #967 ) ) REPRESENTATION_CONTEXT ( 'NONE', 'WORKASPACE' ) );
#78 = EDGE_LOOP ( 'NONE', ( #490, #699, #126, #186 ) ) ;
#79 = DIRECTION ( 'NONE',  ( 0.6663196743247736809, 2.696405268330496226E-15, -0.7456662065614397816 ) ) ;
#80 = DIRECTION ( 'NONE',  ( -0.1108510534444136914, 0.9938370308809506559, 3.595744332370143968E-15 ) ) ;
#81 = EDGE_CURVE ( 'NONE', #504, #212, #794, .T. ) ;
#82 = FILL_AREA_STYLE ('',( #1013 ) ) ;
#83 = UNCERTAINTY_MEASURE_WITH_UNIT (LENGTH_MEASURE( 1.000000000000000082E-05 ), #117, 'distance_accuracy_value', 'NONE');
#84 = EDGE_CURVE ( 'NONE', #913, #336, #1014, .T. ) ;
#85 = DIRECTION ( 'NONE',  ( -1.000000000000000000, -0.000000000000000000, -0.000000000000000000 ) ) ;
#86 = DIRECTION ( 'NONE',  ( 0.000000000000000000, 0.000000000000000000, 1.000000000000000000 ) ) ;
#87 = DIRECTION ( 'NONE',  ( 0.6663196743247735698, -2.603479645215216163E-15, 0.7456662065614397816 ) ) ;
#88 = DIRECTION ( 'NONE',  ( -1.000000000000000000, -0.000000000000000000, -0.000000000000000000 ) ) ;
#89 = FILL_AREA_STYLE ('',( #797 ) ) ;
#90 =( GEOMETRIC_REPRESENTATION_CONTEXT ( 3 ) GLOBAL_UNCERTAINTY_ASSIGNED_CONTEXT ( ( #319 ) ) GLOBAL_UNIT_ASSIGNED_CONTEXT ( ( #513, #289, #445 ) ) REPRESENTATION_CONTEXT ( 'NONE', 'WORKASPACE' ) );
#91 = ORIENTED_EDGE ( 'NONE', *, *, #664, .F. ) ;
#92 = EDGE_CURVE ( 'NONE', #277, #2, #773, .T. ) ;
#93 = STYLED_ITEM ( 'NONE', ( #843 ), #261 ) ;
#94 = LINE ( 'NONE', #249, #946 ) ;
#95 = STYLED_ITEM ( 'NONE', ( #198 ), #459 ) ;
#96 = COLOUR_RGB ( '',0.7764705882352941346, 0.7568627450980391913, 0.7372549019607843590 ) ;
#97 = SURFACE_STYLE_FILL_AREA ( #305 ) ;
#98 = COLOUR_RGB ( '',0.7764705882352941346, 0.7568627450980391913, 0.7372549019607843590 ) ;
#99 = DIRECTION ( 'NONE',  ( -1.000000000000000000, -0.000000000000000000, -0.000000000000000000 ) ) ;
#100 = VECTOR ( 'NONE', #931, 1000.000000000000000 ) ;
#101 = DIRECTION ( 'NONE',  ( 0.9938370308809507669, 0.000000000000000000, 0.1108510534444137746 ) ) ;
#102 = EDGE_LOOP ( 'NONE', ( #747, #288, #477, #23, #323 ) ) ;
#103 = DIRECTION ( 'NONE',  ( 0.000000000000000000, 1.224646799147353207E-16, -1.000000000000000000 ) ) ;
#104 = FACE_OUTER_BOUND ( 'NONE', #73, .T. ) ;
#105 = SURFACE_STYLE_FILL_AREA ( #403 ) ;
#106 = ORIENTED_EDGE ( 'NONE', *, *, #71, .T. ) ;
#107 = CARTESIAN_POINT ( 'NONE',  ( 1.347043950347263763, 0.000000000000000000, 3.080000000000000515 ) ) ;
#108 = FILL_AREA_STYLE_COLOUR ( '', #113 ) ;
#109 = EDGE_CURVE ( 'NONE', #404, #765, #942, .T. ) ;
#110 = ORIENTED_EDGE ( 'NONE', *, *, #273, .F. ) ;
#111 = CARTESIAN_POINT ( 'NONE',  ( 6.000000000000000000, 2.326828918379972351E-16, 0.000000000000000000 ) ) ;
#112 = DIRECTION ( 'NONE',  ( -1.000000000000000000, -0.000000000000000000, -0.000000000000000000 ) ) ;
#113 = COLOUR_RGB ( '',0.7764705882352941346, 0.7568627450980391913, 0.7372549019607843590 ) ;
#114 = CIRCLE ( 'NONE', #545, 0.4199999999999998179 ) ;
#115 =( GEOMETRIC_REPRESENTATION_CONTEXT ( 3 ) GLOBAL_UNCERTAINTY_ASSIGNED_CONTEXT ( ( #478 ) ) GLOBAL_UNIT_ASSIGNED_CONTEXT ( ( #911, #124, #676 ) ) REPRESENTATION_CONTEXT ( 'NONE', 'WORKASPACE' ) );
#116 = ORIENTED_EDGE ( 'NONE', *, *, #784, .F. ) ;
#117 =( LENGTH_UNIT ( ) NAMED_UNIT ( * ) SI_UNIT ( .MILLI., .METRE. ) );
#118 = DIRECTION ( 'NONE',  ( 0.7456662065614396706, 0.6663196743247736809, 0.000000000000000000 ) ) ;
#119 = ORIENTED_EDGE ( 'NONE', *, *, #71, .F. ) ;
#120 = CARTESIAN_POINT ( 'NONE',  ( 0.2666411873824114376, -0.4052592521765831513, 1.721732169736483131 ) ) ;
#121 =( LENGTH_UNIT ( ) NAMED_UNIT ( * ) SI_UNIT ( .MILLI., .METRE. ) );
#122 = EDGE_CURVE ( 'NONE', #2, #521, #789, .T. ) ;
#123 =( LENGTH_UNIT ( ) NAMED_UNIT ( * ) SI_UNIT ( .MILLI., .METRE. ) );
#124 =( NAMED_UNIT ( * ) PLANE_ANGLE_UNIT ( ) SI_UNIT ( $, .RADIAN. ) );
#125 = CARTESIAN_POINT ( 'NONE',  ( 1.949999999999999956, -0.2175000000000007205, 0.2174999999999993883 ) ) ;
#126 = ORIENTED_EDGE ( 'NONE', *, *, #242, .F. ) ;
#127 =( LENGTH_UNIT ( ) NAMED_UNIT ( * ) SI_UNIT ( .MILLI., .METRE. ) );
#128 = PLANE ( 'NONE',  #775 ) ;
#129 = COLOUR_RGB ( '',0.7764705882352941346, 0.7568627450980391913, 0.7372549019607843590 ) ;
#130 =( GEOMETRIC_REPRESENTATION_CONTEXT ( 3 ) GLOBAL_UNCERTAINTY_ASSIGNED_CONTEXT ( ( #363 ) ) GLOBAL_UNIT_ASSIGNED_CONTEXT ( ( #325, #397, #563 ) ) REPRESENTATION_CONTEXT ( 'NONE', 'WORKASPACE' ) );
#131 = DIRECTION ( 'NONE',  ( 0.6663196743247736809, -0.7456662065614397816, -9.292562311528023527E-17 ) ) ;
#132 = ORIENTED_EDGE ( 'NONE', *, *, #1005, .F. ) ;
#133 = PRODUCT_DEFINITION_CONTEXT ( 'detailed design', #723, 'design' ) ;
#134 = AXIS2_PLACEMENT_3D ( 'NONE', #199, #275, #44 ) ;
#135 = CARTESIAN_POINT ( 'NONE',  ( 2.193400286944045430, -0.1903515064562409931, -2.309278636184418912E-16 ) ) ;
#136 = CARTESIAN_POINT ( 'NONE',  ( 2.193400286944045430, -0.1903515064562409931, -2.309278636184418912E-16 ) ) ;
#137 =( NAMED_UNIT ( * ) SI_UNIT ( $, .STERADIAN. ) SOLID_ANGLE_UNIT ( ) );
#138 = VERTEX_POINT ( 'NONE', #382 ) ;
#139 = SURFACE_SIDE_STYLE ('',( #679 ) ) ;
#140 = PLANE ( 'NONE',  #975 ) ;
#141 = EDGE_CURVE ( 'NONE', #515, #365, #339, .T. ) ;
#142 = PRESENTATION_STYLE_ASSIGNMENT (( #842 ) ) ;
#143 =( NAMED_UNIT ( * ) SI_UNIT ( $, .STERADIAN. ) SOLID_ANGLE_UNIT ( ) );
#144 = ORIENTED_EDGE ( 'NONE', *, *, #379, .T. ) ;
#145 = UNCERTAINTY_MEASURE_WITH_UNIT (LENGTH_MEASURE( 1.000000000000000082E-05 ), #716, 'distance_accuracy_value', 'NONE');
#146 = DIRECTION ( 'NONE',  ( -0.9938370308809506559, -0.1108510534444136914, -3.870343844922732447E-16 ) ) ;
#147 = SURFACE_SIDE_STYLE ('',( #950 ) ) ;
#148 = DIRECTION ( 'NONE',  ( -0.7456662065614396706, 0.6663196743247736809, 0.000000000000000000 ) ) ;
#149 = CIRCLE ( 'NONE', #558, 5.995482475482740270 ) ;
#150 = SURFACE_STYLE_USAGE ( .BOTH. , #851 ) ;
#151 = MECHANICAL_DESIGN_GEOMETRIC_PRESENTATION_REPRESENTATION (  '', ( #638 ), #230 ) ;
#152 = DIRECTION ( 'NONE',  ( 0.000000000000000000, -1.246209393661499619E-16, 1.000000000000000000 ) ) ;
#153 = CARTESIAN_POINT ( 'NONE',  ( 0.03111693966988560850, -0.4315292644214371864, 0.4315292644214354101 ) ) ;
#154 = CARTESIAN_POINT ( 'NONE',  ( 4.309938594911940868, -1.891316923914901471, 0.000000000000000000 ) ) ;
#155 = ADVANCED_FACE ( 'NONE', ( #550 ), #955, .F. ) ;
#156 = DIRECTION ( 'NONE',  ( 0.6663196743247735698, 0.7456662065614397816, 0.000000000000000000 ) ) ;
#157 = VERTEX_POINT ( 'NONE', #4 ) ;
#158 = DIRECTION ( 'NONE',  ( 0.7431005017819711789, -0.6640269868487613802, -0.08288428673721992546 ) ) ;
#159 = PRESENTATION_LAYER_ASSIGNMENT (  '', '', ( #921 ) ) ;
#160 = CIRCLE ( 'NONE', #488, 1.749999999999999778 ) ;
#161 = CARTESIAN_POINT ( 'NONE',  ( 2.599999999999998312, 0.000000000000000000, 0.000000000000000000 ) ) ;
#162 = COLOUR_RGB ( '',0.7764705882352941346, 0.7568627450980391913, 0.7372549019607843590 ) ;
#163 = SURFACE_SIDE_STYLE ('',( #6 ) ) ;
#164 = EDGE_CURVE ( 'NONE', #157, #895, #852, .T. ) ;
#165 = DIRECTION ( 'NONE',  ( 0.000000000000000000, 0.000000000000000000, 1.000000000000000000 ) ) ;
#166 = ORIENTED_EDGE ( 'NONE', *, *, #167, .F. ) ;
#167 = EDGE_CURVE ( 'NONE', #695, #462, #384, .T. ) ;
#168 = DIRECTION ( 'NONE',  ( 0.000000000000000000, 0.000000000000000000, 1.000000000000000000 ) ) ;
#169 = PLANE ( 'NONE',  #926 ) ;
#170 = FACE_OUTER_BOUND ( 'NONE', #799, .T. ) ;
#171 = EDGE_CURVE ( 'NONE', #823, #497, #160, .T. ) ;
#172 = PRESENTATION_STYLE_ASSIGNMENT (( #647 ) ) ;
#173 = LINE ( 'NONE', #632, #704 ) ;
#174 = CARTESIAN_POINT ( 'NONE',  ( 1.347043950347265318, 0.000000000000000000, 0.000000000000000000 ) ) ;
#175 = MECHANICAL_DESIGN_GEOMETRIC_PRESENTATION_REPRESENTATION (  '', ( #311 ), #1000 ) ;
#176 = ORIENTED_EDGE ( 'NONE', *, *, #565, .T. ) ;
#177 = COLOUR_RGB ( '',0.7764705882352941346, 0.7568627450980391913, 0.7372549019607843590 ) ;
#178 = AXIS2_PLACEMENT_3D ( 'NONE', #286, #112, #494 ) ;
#179 =( NAMED_UNIT ( * ) SI_UNIT ( $, .STERADIAN. ) SOLID_ANGLE_UNIT ( ) );
#180 =( LENGTH_UNIT ( ) NAMED_UNIT ( * ) SI_UNIT ( .MILLI., .METRE. ) );
#181 = ADVANCED_FACE ( 'NONE', ( #541 ), #568, .T. ) ;
#182 =( NAMED_UNIT ( * ) SI_UNIT ( $, .STERADIAN. ) SOLID_ANGLE_UNIT ( ) );
#183 = VERTEX_POINT ( 'NONE', #561 ) ;
#184 = CARTESIAN_POINT ( 'NONE',  ( -25.39999999999996305, 2.143131898507868051E-16, -1.749999999999999778 ) ) ;
#185 = DIRECTION ( 'NONE',  ( -1.000000000000000000, -0.000000000000000000, -0.000000000000000000 ) ) ;
#186 = ORIENTED_EDGE ( 'NONE', *, *, #81, .T. ) ;
#187 = COLOUR_RGB ( '',0.7764705882352941346, 0.7568627450980391913, 0.7372549019607843590 ) ;
#188 = SURFACE_STYLE_FILL_AREA ( #901 ) ;
#189 = EDGE_CURVE ( 'NONE', #662, #832, #973, .T. ) ;
#190 = COLOUR_RGB ( '',0.7764705882352941346, 0.7568627450980391913, 0.7372549019607843590 ) ;
#191 = CIRCLE ( 'NONE', #786, 3.311827956989247479 ) ;
#192 = ADVANCED_FACE ( 'NONE', ( #812 ), #489, .T. ) ;
#193 = SURFACE_STYLE_FILL_AREA ( #994 ) ;
#194 = FACE_OUTER_BOUND ( 'NONE', #529, .T. ) ;
#195 = ORIENTED_EDGE ( 'NONE', *, *, #538, .F. ) ;
#196 = PRODUCT_DEFINITION ( 'UNKNOWN', '', #510, #133 ) ;
#197 = CARTESIAN_POINT ( 'NONE',  ( 0.000000000000000000, -0.4350000000000069367, 1.959999999999998188 ) ) ;
#198 = PRESENTATION_STYLE_ASSIGNMENT (( #509 ) ) ;
#199 = CARTESIAN_POINT ( 'NONE',  ( 0.9968214519863044520, 0.000000000000000000, 0.000000000000000000 ) ) ;
#200 = DIRECTION ( 'NONE',  ( -1.000000000000000000, -0.000000000000000000, -0.000000000000000000 ) ) ;
#201 = ORIENTED_EDGE ( 'NONE', *, *, #189, .F. ) ;
#202 = CARTESIAN_POINT ( 'NONE',  ( 7.600000000000000533, 1.749999999999999778, 0.000000000000000000 ) ) ;
#203 = CARTESIAN_POINT ( 'NONE',  ( -25.39999999999996305, 0.000000000000000000, 0.000000000000000000 ) ) ;
#204 = DIRECTION ( 'NONE',  ( 0.000000000000000000, 0.000000000000000000, 1.000000000000000000 ) ) ;
#205 = ORIENTED_EDGE ( 'NONE', *, *, #1011, .T. ) ;
#206 =( NAMED_UNIT ( * ) SI_UNIT ( $, .STERADIAN. ) SOLID_ANGLE_UNIT ( ) );
#207 = FACE_OUTER_BOUND ( 'NONE', #484, .T. ) ;
#208 = PRESENTATION_LAYER_ASSIGNMENT (  '', '', ( #651 ) ) ;
#209 = DIRECTION ( 'NONE',  ( -1.000000000000000000, -0.000000000000000000, -0.000000000000000000 ) ) ;
#210 = VECTOR ( 'NONE', #982, 1000.000000000000000 ) ;
#211 =( LENGTH_UNIT ( ) NAMED_UNIT ( * ) SI_UNIT ( .MILLI., .METRE. ) );
#212 = VERTEX_POINT ( 'NONE', #656 ) ;
#213 = UNCERTAINTY_MEASURE_WITH_UNIT (LENGTH_MEASURE( 1.000000000000000082E-05 ), #878, 'distance_accuracy_value', 'NONE');
#214 = COLOUR_RGB ( '',0.7764705882352941346, 0.7568627450980391913, 0.7372549019607843590 ) ;
#215 = PRESENTATION_STYLE_ASSIGNMENT (( #454 ) ) ;
#216 = CARTESIAN_POINT ( 'NONE',  ( 0.000000000000000000, -1.959999999999999964, 0.4349999999999996092 ) ) ;
#217 = FACE_OUTER_BOUND ( 'NONE', #673, .T. ) ;
#218 = ORIENTED_EDGE ( 'NONE', *, *, #447, .T. ) ;
#219 = SURFACE_STYLE_FILL_AREA ( #855 ) ;
#220 = DIRECTION ( 'NONE',  ( 0.000000000000000000, 0.000000000000000000, 1.000000000000000000 ) ) ;
#221 = SURFACE_STYLE_USAGE ( .BOTH. , #846 ) ;
#222 = DIRECTION ( 'NONE',  ( 0.000000000000000000, 0.000000000000000000, 1.000000000000000000 ) ) ;
#223 = PRODUCT ( 'M3.5 x 5 Screw head', 'M3.5 x 5 Screw head', '', ( #566 ) ) ;
#224 = DIRECTION ( 'NONE',  ( -0.1108510534444136914, 0.9938370308809506559, 3.595744332370143179E-15 ) ) ;
#225 = VECTOR ( 'NONE', #391, 1000.000000000000000 ) ;
#226 = DIRECTION ( 'NONE',  ( -0.9938370308809507669, 0.000000000000000000, 0.1108510534444137052 ) ) ;
#227 = AXIS2_PLACEMENT_3D ( 'NONE', #690, #87, #936 ) ;
#228 =( NAMED_UNIT ( * ) PLANE_ANGLE_UNIT ( ) SI_UNIT ( $, .RADIAN. ) );
#229 = EDGE_CURVE ( 'NONE', #895, #212, #502, .T. ) ;
#230 =( GEOMETRIC_REPRESENTATION_CONTEXT ( 3 ) GLOBAL_UNCERTAINTY_ASSIGNED_CONTEXT ( ( #715 ) ) GLOBAL_UNIT_ASSIGNED_CONTEXT ( ( #779, #436, #915 ) ) REPRESENTATION_CONTEXT ( 'NONE', 'WORKASPACE' ) );
#231 = SURFACE_STYLE_FILL_AREA ( #621 ) ;
#232 = SURFACE_STYLE_USAGE ( .BOTH. , #163 ) ;
#233 = SURFACE_STYLE_USAGE ( .BOTH. , #147 ) ;
#234 = VERTEX_POINT ( 'NONE', #408 ) ;
#235 = CARTESIAN_POINT ( 'NONE',  ( -25.39999999999996305, 4.286263797015737088E-16, -3.500000000000000444 ) ) ;
#236 = DIRECTION ( 'NONE',  ( -0.1108510534444136914, 1.257808851980383614E-16, -0.9938370308809506559 ) ) ;
#237 =( LENGTH_UNIT ( ) NAMED_UNIT ( * ) SI_UNIT ( .MILLI., .METRE. ) );
#238 = DIRECTION ( 'NONE',  ( 0.7431005017819711789, -0.6640269868487613802, 0.08288428673721989770 ) ) ;
#239 = DIRECTION ( 'NONE',  ( 0.000000000000000000, 0.000000000000000000, 1.000000000000000000 ) ) ;
#240 = ADVANCED_FACE ( 'NONE', ( #332 ), #728, .T. ) ;
#241 = FILL_AREA_STYLE_COLOUR ( '', #456 ) ;
#242 = EDGE_CURVE ( 'NONE', #504, #336, #822, .T. ) ;
#243 = ORIENTED_EDGE ( 'NONE', *, *, #92, .T. ) ;
#244 = UNCERTAINTY_MEASURE_WITH_UNIT (LENGTH_MEASURE( 1.000000000000000082E-05 ), #781, 'distance_accuracy_value', 'NONE');
#245 = STYLED_ITEM ( 'NONE', ( #460 ), #181 ) ;
#246 = DIRECTION ( 'NONE',  ( -1.000000000000000000, -0.000000000000000000, -0.000000000000000000 ) ) ;
#247 = MECHANICAL_DESIGN_GEOMETRIC_PRESENTATION_REPRESENTATION (  '', ( #651 ), #945 ) ;
#248 =( GEOMETRIC_REPRESENTATION_CONTEXT ( 3 ) GLOBAL_UNCERTAINTY_ASSIGNED_CONTEXT ( ( #57 ) ) GLOBAL_UNIT_ASSIGNED_CONTEXT ( ( #374, #841, #537 ) ) REPRESENTATION_CONTEXT ( 'NONE', 'WORKASPACE' ) );
#249 = CARTESIAN_POINT ( 'NONE',  ( 2.214116351126373949, 0.1880408685282127790, -0.1880408685282121406 ) ) ;
#250 = AXIS2_PLACEMENT_3D ( 'NONE', #380, #375, #698 ) ;
#251 = EDGE_CURVE ( 'NONE', #234, #905, #623, .T. ) ;
#252 = CARTESIAN_POINT ( 'NONE',  ( 2.600000000000000089, 1.749999999999999778, 0.000000000000000000 ) ) ;
#253 =( LENGTH_UNIT ( ) NAMED_UNIT ( * ) SI_UNIT ( .MILLI., .METRE. ) );
#254 = SURFACE_SIDE_STYLE ('',( #966 ) ) ;
#255 = DIRECTION ( 'NONE',  ( -0.1108510534444137469, 2.096348086633972484E-17, 0.9938370308809506559 ) ) ;
#256 = DIRECTION ( 'NONE',  ( -0.9938370308809507669, 0.000000000000000000, 0.1108510534444137052 ) ) ;
#257 = SURFACE_STYLE_FILL_AREA ( #970 ) ;
#258 = CARTESIAN_POINT ( 'NONE',  ( 2.599999999999998312, 0.000000000000000000, 0.000000000000000000 ) ) ;
#259 =( NAMED_UNIT ( * ) PLANE_ANGLE_UNIT ( ) SI_UNIT ( $, .RADIAN. ) );
#260 = FACE_OUTER_BOUND ( 'NONE', #353, .T. ) ;
#261 = ADVANCED_FACE ( 'NONE', ( #194 ), #468, .T. ) ;
#262 = EDGE_LOOP ( 'NONE', ( #761, #33, #981, #654 ) ) ;
#263 = AXIS2_PLACEMENT_3D ( 'NONE', #572, #971, #884 ) ;
#264 = AXIS2_PLACEMENT_3D ( 'NONE', #958, #719, #871 ) ;
#265 = CIRCLE ( 'NONE', #405, 5.995482475482741158 ) ;
#266 = SURFACE_SIDE_STYLE ('',( #105 ) ) ;
#267 = ORIENTED_EDGE ( 'NONE', *, *, #84, .T. ) ;
#268 = CARTESIAN_POINT ( 'NONE',  ( 1.347043950347265318, 0.000000000000000000, 0.000000000000000000 ) ) ;
#269 = SURFACE_STYLE_USAGE ( .BOTH. , #284 ) ;
#270 = FILL_AREA_STYLE ('',( #808 ) ) ;
#271 = ORIENTED_EDGE ( 'NONE', *, *, #870, .F. ) ;
#272 = SURFACE_STYLE_USAGE ( .BOTH. , #900 ) ;
#273 = EDGE_CURVE ( 'NONE', #365, #515, #737, .T. ) ;
#274 = EDGE_CURVE ( 'NONE', #813, #695, #364, .T. ) ;
#275 = DIRECTION ( 'NONE',  ( -1.000000000000000000, -0.000000000000000000, -0.000000000000000000 ) ) ;
#276 = CARTESIAN_POINT ( 'NONE',  ( 2.214116351126373505, -0.1880408685282114467, -0.1880408685282121684 ) ) ;
#277 = VERTEX_POINT ( 'NONE', #598 ) ;
#278 = DIRECTION ( 'NONE',  ( -0.9938370308809507669, -0.1108510534444137052, 0.000000000000000000 ) ) ;
#279 = MECHANICAL_DESIGN_GEOMETRIC_PRESENTATION_REPRESENTATION (  '', ( #987 ), #557 ) ;
#280 = DIRECTION ( 'NONE',  ( -1.000000000000000000, -0.000000000000000000, -0.000000000000000000 ) ) ;
#281 = EDGE_CURVE ( 'NONE', #2, #277, #869, .T. ) ;
#282 = AXIS2_PLACEMENT_3D ( 'NONE', #625, #321, #239 ) ;
#283 = AXIS2_PLACEMENT_3D ( 'NONE', #59, #308, #226 ) ;
#284 = SURFACE_SIDE_STYLE ('',( #193 ) ) ;
#285 = ORIENTED_EDGE ( 'NONE', *, *, #453, .F. ) ;
#286 = CARTESIAN_POINT ( 'NONE',  ( 1.347043950347263763, 0.000000000000000000, 0.000000000000000000 ) ) ;
#287 = CARTESIAN_POINT ( 'NONE',  ( 1.949999999999999956, -0.2175000000000000266, -0.2174999999999999989 ) ) ;
#288 = ORIENTED_EDGE ( 'NONE', *, *, #482, .F. ) ;
#289 =( NAMED_UNIT ( * ) PLANE_ANGLE_UNIT ( ) SI_UNIT ( $, .RADIAN. ) );
#290 = LINE ( 'NONE', #675, #637 ) ;
#291 = FILL_AREA_STYLE_COLOUR ( '', #1018 ) ;
#292 = ORIENTED_EDGE ( 'NONE', *, *, #1011, .F. ) ;
#293 = CARTESIAN_POINT ( 'NONE',  ( 2.193400286944045430, 4.336808689942017736E-16, 0.1903515064562409931 ) ) ;
#294 = VECTOR ( 'NONE', #1001, 1000.000000000000000 ) ;
#295 = TOROIDAL_SURFACE ( 'NONE', #178, 3.080000000000000515, 0.4200000000000000400 ) ;
#296 = CARTESIAN_POINT ( 'NONE',  ( 2.193400286944045430, 0.1903515064562410486, 2.309278636184420884E-16 ) ) ;
#297 =( GEOMETRIC_REPRESENTATION_CONTEXT ( 3 ) GLOBAL_UNCERTAINTY_ASSIGNED_CONTEXT ( ( #432 ) ) GLOBAL_UNIT_ASSIGNED_CONTEXT ( ( #864, #1022, #464 ) ) REPRESENTATION_CONTEXT ( 'NONE', 'WORKASPACE' ) );
#298 = DIRECTION ( 'NONE',  ( 0.000000000000000000, 0.000000000000000000, 1.000000000000000000 ) ) ;
#299 = ORIENTED_EDGE ( 'NONE', *, *, #274, .T. ) ;
#300 = UNCERTAINTY_MEASURE_WITH_UNIT (LENGTH_MEASURE( 1.000000000000000082E-05 ), #335, 'distance_accuracy_value', 'NONE');
#301 =( GEOMETRIC_REPRESENTATION_CONTEXT ( 3 ) GLOBAL_UNCERTAINTY_ASSIGNED_CONTEXT ( ( #876 ) ) GLOBAL_UNIT_ASSIGNED_CONTEXT ( ( #511, #501, #601 ) ) REPRESENTATION_CONTEXT ( 'NONE', 'WORKASPACE' ) );
#302 = DIRECTION ( 'NONE',  ( 0.9938370308809506559, -0.1108510534444137469, -3.870343844922734420E-16 ) ) ;
#303 = AXIS2_PLACEMENT_3D ( 'NONE', #873, #165, #792 ) ;
#304 = CARTESIAN_POINT ( 'NONE',  ( 0.03111693966988647586, 0.4315292644214342443, 0.4315292644214356321 ) ) ;
#305 = FILL_AREA_STYLE ('',( #712 ) ) ;
#306 = ORIENTED_EDGE ( 'NONE', *, *, #919, .F. ) ;
#307 = SURFACE_STYLE_USAGE ( .BOTH. , #461 ) ;
#308 = DIRECTION ( 'NONE',  ( -0.1108510534444136914, 1.257808851980383614E-16, -0.9938370308809506559 ) ) ;
#309 = ORIENTED_EDGE ( 'NONE', *, *, #171, .T. ) ;
#310 = DIRECTION ( 'NONE',  ( 0.000000000000000000, 0.000000000000000000, 1.000000000000000000 ) ) ;
#311 = STYLED_ITEM ( 'NONE', ( #722 ), #43 ) ;
#312 = PRESENTATION_LAYER_ASSIGNMENT (  '', '', ( #755 ) ) ;
#313 = CARTESIAN_POINT ( 'NONE',  ( 1.949999999999999956, 0.2175000000000007205, -0.2174999999999992772 ) ) ;
#314 = AXIS2_PLACEMENT_3D ( 'NONE', #136, #224, #65 ) ;
#315 = EDGE_LOOP ( 'NONE', ( #756, #450, #606, #91 ) ) ;
#316 = DIRECTION ( 'NONE',  ( -0.1108510534444137469, 2.096348086633972484E-17, 0.9938370308809506559 ) ) ;
#317 =( GEOMETRIC_REPRESENTATION_CONTEXT ( 3 ) GLOBAL_UNCERTAINTY_ASSIGNED_CONTEXT ( ( #696 ) ) GLOBAL_UNIT_ASSIGNED_CONTEXT ( ( #253, #802, #179 ) ) REPRESENTATION_CONTEXT ( 'NONE', 'WORKASPACE' ) );
#318 = FACE_OUTER_BOUND ( 'NONE', #817, .T. ) ;
#319 = UNCERTAINTY_MEASURE_WITH_UNIT (LENGTH_MEASURE( 1.000000000000000082E-05 ), #513, 'distance_accuracy_value', 'NONE');
#320 =( NAMED_UNIT ( * ) SI_UNIT ( $, .STERADIAN. ) SOLID_ANGLE_UNIT ( ) );
#321 = DIRECTION ( 'NONE',  ( -1.000000000000000000, 0.000000000000000000, 0.000000000000000000 ) ) ;
#322 = DIRECTION ( 'NONE',  ( 1.000000000000000000, 0.000000000000000000, 0.000000000000000000 ) ) ;
#323 = ORIENTED_EDGE ( 'NONE', *, *, #13, .F. ) ;
#324 = EDGE_CURVE ( 'NONE', #340, #462, #505, .T. ) ;
#325 =( LENGTH_UNIT ( ) NAMED_UNIT ( * ) SI_UNIT ( .MILLI., .METRE. ) );
#326 = DIRECTION ( 'NONE',  ( 0.9938370308809506559, -0.1108510534444137469, -3.870343844922734420E-16 ) ) ;
#327 =( GEOMETRIC_REPRESENTATION_CONTEXT ( 3 ) GLOBAL_UNCERTAINTY_ASSIGNED_CONTEXT ( ( #390 ) ) GLOBAL_UNIT_ASSIGNED_CONTEXT ( ( #180, #19, #892 ) ) REPRESENTATION_CONTEXT ( 'NONE', 'WORKASPACE' ) );
#328 = AXIS2_PLACEMENT_3D ( 'NONE', #268, #280, #581 ) ;
#329 = PRESENTATION_LAYER_ASSIGNMENT (  '', '', ( #638 ) ) ;
#330 = SURFACE_STYLE_USAGE ( .BOTH. , #449 ) ;
#331 = CARTESIAN_POINT ( 'NONE',  ( 0.9968214519863044520, 3.311827956989247479, 0.000000000000000000 ) ) ;
#332 = FACE_OUTER_BOUND ( 'NONE', #262, .T. ) ;
#333 = EDGE_LOOP ( 'NONE', ( #420, #431, #844 ) ) ;
#334 = FILL_AREA_STYLE ('',( #469 ) ) ;
#335 =( LENGTH_UNIT ( ) NAMED_UNIT ( * ) SI_UNIT ( .MILLI., .METRE. ) );
#336 = VERTEX_POINT ( 'NONE', #125 ) ;
#337 = CARTESIAN_POINT ( 'NONE',  ( 1.949999999999999956, -0.2175000000000000266, -0.2174999999999999989 ) ) ;
#338 = PRESENTATION_STYLE_ASSIGNMENT (( #25 ) ) ;
#339 = CIRCLE ( 'NONE', #736, 1.749999999999999778 ) ;
#340 = VERTEX_POINT ( 'NONE', #932 ) ;
#341 = MECHANICAL_DESIGN_GEOMETRIC_PRESENTATION_REPRESENTATION (  '', ( #93 ), #924 ) ;
#342 = STYLED_ITEM ( 'NONE', ( #398 ), #372 ) ;
#343 = PRESENTATION_LAYER_ASSIGNMENT (  '', '', ( #369 ) ) ;
#344 = SURFACE_STYLE_USAGE ( .BOTH. , #993 ) ;
#345 =( GEOMETRIC_REPRESENTATION_CONTEXT ( 3 ) GLOBAL_UNCERTAINTY_ASSIGNED_CONTEXT ( ( #48 ) ) GLOBAL_UNIT_ASSIGNED_CONTEXT ( ( #72, #705, #836 ) ) REPRESENTATION_CONTEXT ( 'NONE', 'WORKASPACE' ) );
#346 = DIRECTION ( 'NONE',  ( 0.6663196743247736809, -2.603479645215216163E-15, 0.7456662065614397816 ) ) ;
#347 = DIRECTION ( 'NONE',  ( -0.1108510534444136914, 1.257808851980383614E-16, -0.9938370308809506559 ) ) ;
#348 = ORIENTED_EDGE ( 'NONE', *, *, #977, .T. ) ;
#349 = ADVANCED_FACE ( 'NONE', ( #217 ), #534, .T. ) ;
#350 = ORIENTED_EDGE ( 'NONE', *, *, #447, .F. ) ;
#351 = FACE_OUTER_BOUND ( 'NONE', #315, .T. ) ;
#352 = EDGE_CURVE ( 'NONE', #662, #404, #526, .T. ) ;
#353 = EDGE_LOOP ( 'NONE', ( #859, #729, #617, #793 ) ) ;
#354 = VECTOR ( 'NONE', #1019, 1000.000000000000114 ) ;
#355 = AXIS2_PLACEMENT_3D ( 'NONE', #54, #38, #204 ) ;
#356 =( GEOMETRIC_REPRESENTATION_CONTEXT ( 3 ) GLOBAL_UNCERTAINTY_ASSIGNED_CONTEXT ( ( #213 ) ) GLOBAL_UNIT_ASSIGNED_CONTEXT ( ( #878, #15, #485 ) ) REPRESENTATION_CONTEXT ( 'NONE', 'WORKASPACE' ) );
#357 = CARTESIAN_POINT ( 'NONE',  ( 5.974195292295553905, -0.2313525518329657138, -8.028830871489587498E-16 ) ) ;
#358 = CIRCLE ( 'NONE', #283, 5.995482475482741158 ) ;
#359 = CIRCLE ( 'NONE', #439, 3.311827956989247479 ) ;
#360 = VERTEX_POINT ( 'NONE', #22 ) ;
#361 = FACE_OUTER_BOUND ( 'NONE', #999, .T. ) ;
#362 = ORIENTED_EDGE ( 'NONE', *, *, #551, .T. ) ;
#363 = UNCERTAINTY_MEASURE_WITH_UNIT (LENGTH_MEASURE( 1.000000000000000082E-05 ), #325, 'distance_accuracy_value', 'NONE');
#364 = LINE ( 'NONE', #276, #294 ) ;
#365 = VERTEX_POINT ( 'NONE', #640 ) ;
#366 = CLOSED_SHELL ( 'NONE', ( #437, #821, #745, #181, #451, #853, #349, #500, #192, #240, #372, #535, #261, #43, #517, #155, #583, #918, #56, #935, #419, #62, #459 ) ) ;
#367 = AXIS2_PLACEMENT_3D ( 'NONE', #70, #554, #866 ) ;
#368 = FILL_AREA_STYLE_COLOUR ( '', #742 ) ;
#369 = STYLED_ITEM ( 'NONE', ( #27 ), #745 ) ;
#370 = ORIENTED_EDGE ( 'NONE', *, *, #92, .F. ) ;
#371 = CIRCLE ( 'NONE', #134, 3.311827956989247479 ) ;
#372 = ADVANCED_FACE ( 'NONE', ( #575, #777 ), #169, .F. ) ;
#373 = CARTESIAN_POINT ( 'NONE',  ( 2.193400286944045430, 0.1903515064562410486, 2.309278636184420884E-16 ) ) ;
#374 =( LENGTH_UNIT ( ) NAMED_UNIT ( * ) SI_UNIT ( .MILLI., .METRE. ) );
#375 = DIRECTION ( 'NONE',  ( -0.1108510534444137469, 2.096348086633972484E-17, 0.9938370308809506559 ) ) ;
#376 = CARTESIAN_POINT ( 'NONE',  ( 4.309938594911940868, -1.891316923914901471, 0.000000000000000000 ) ) ;
#377 = SURFACE_STYLE_USAGE ( .BOTH. , #1024 ) ;
#378 = FILL_AREA_STYLE_COLOUR ( '', #190 ) ;
#379 = EDGE_CURVE ( 'NONE', #157, #695, #470, .T. ) ;
#380 = CARTESIAN_POINT ( 'NONE',  ( 2.193400286944045430, -4.336808689942017736E-16, -0.1903515064562410486 ) ) ;
#381 = LINE ( 'NONE', #626, #718 ) ;
#382 = CARTESIAN_POINT ( 'NONE',  ( 0.9968214519863044520, 0.000000000000000000, 3.311827956989247479 ) ) ;
#383 = VECTOR ( 'NONE', #631, 1000.000000000000000 ) ;
#384 = CIRCLE ( 'NONE', #902, 5.995482475482740270 ) ;
#385 = AXIS2_PLACEMENT_3D ( 'NONE', #376, #66, #148 ) ;
#386 = ORIENTED_EDGE ( 'NONE', *, *, #585, .T. ) ;
#387 = AXIS2_PLACEMENT_3D ( 'NONE', #296, #1, #326 ) ;
#388 = DIRECTION ( 'NONE',  ( 0.7431005017819711789, 0.08288428673721742745, 0.6640269868487616023 ) ) ;
#389 = EDGE_LOOP ( 'NONE', ( #309, #751 ) ) ;
#390 = UNCERTAINTY_MEASURE_WITH_UNIT (LENGTH_MEASURE( 1.000000000000000082E-05 ), #180, 'distance_accuracy_value', 'NONE');
#391 = DIRECTION ( 'NONE',  ( 0.000000000000000000, 0.000000000000000000, -1.000000000000000000 ) ) ;
#392 = SURFACE_STYLE_USAGE ( .BOTH. , #962 ) ;
#393 = DIRECTION ( 'NONE',  ( -0.9938370308809507669, -0.1108510534444137052, 0.000000000000000000 ) ) ;
#394 = APPLICATION_PROTOCOL_DEFINITION ( 'draft international standard', 'automotive_design', 1998, #978 ) ;
#395 = ORIENTED_EDGE ( 'NONE', *, *, #683, .T. ) ;
#396 = FILL_AREA_STYLE ('',( #700 ) ) ;
#397 =( NAMED_UNIT ( * ) PLANE_ANGLE_UNIT ( ) SI_UNIT ( $, .RADIAN. ) );
#398 = PRESENTATION_STYLE_ASSIGNMENT (( #221 ) ) ;
#399 = PRESENTATION_LAYER_ASSIGNMENT (  '', '', ( #849 ) ) ;
#400 = SURFACE_STYLE_USAGE ( .BOTH. , #254 ) ;
#401 = PRESENTATION_LAYER_ASSIGNMENT (  '', '', ( #503 ) ) ;
#402 = VECTOR ( 'NONE', #750, 1000.000000000000000 ) ;
#403 = FILL_AREA_STYLE ('',( #798 ) ) ;
#404 = VERTEX_POINT ( 'NONE', #888 ) ;
#405 = AXIS2_PLACEMENT_3D ( 'NONE', #498, #506, #278 ) ;
#406 = PRESENTATION_STYLE_ASSIGNMENT (( #392 ) ) ;
#407 = COLOUR_RGB ( '',0.7764705882352941346, 0.7568627450980391913, 0.7372549019607843590 ) ;
#408 = CARTESIAN_POINT ( 'NONE',  ( 0.2666411873824114376, 0.4052592521765713274, 1.721732169736487794 ) ) ;
#409 = EDGE_LOOP ( 'NONE', ( #733, #132, #559 ) ) ;
#410 = FILL_AREA_STYLE ('',( #659 ) ) ;
#411 = ORIENTED_EDGE ( 'NONE', *, *, #939, .F. ) ;
#412 = ORIENTED_EDGE ( 'NONE', *, *, #766, .F. ) ;
#413 = AXIS2_PLACEMENT_3D ( 'NONE', #591, #916, #912 ) ;
#414 = DIRECTION ( 'NONE',  ( 0.000000000000000000, 1.000000000000000000, 1.224646799147353207E-16 ) ) ;
#415 =( GEOMETRIC_REPRESENTATION_CONTEXT ( 3 ) GLOBAL_UNCERTAINTY_ASSIGNED_CONTEXT ( ( #83 ) ) GLOBAL_UNIT_ASSIGNED_CONTEXT ( ( #117, #584, #596 ) ) REPRESENTATION_CONTEXT ( 'NONE', 'WORKASPACE' ) );
#416 =( GEOMETRIC_REPRESENTATION_CONTEXT ( 3 ) GLOBAL_UNCERTAINTY_ASSIGNED_CONTEXT ( ( #522 ) ) GLOBAL_UNIT_ASSIGNED_CONTEXT ( ( #121, #427, #814 ) ) REPRESENTATION_CONTEXT ( 'NONE', 'WORKASPACE' ) );
#417 = DIRECTION ( 'NONE',  ( 0.000000000000000000, 1.000000000000000000, 0.000000000000000000 ) ) ;
#418 = AXIS2_PLACEMENT_3D ( 'NONE', #174, #88, #785 ) ;
#419 = ADVANCED_FACE ( 'NONE', ( #260 ), #645, .F. ) ;
#420 = ORIENTED_EDGE ( 'NONE', *, *, #189, .T. ) ;
#421 = DIRECTION ( 'NONE',  ( 0.000000000000000000, -1.000000000000000000, 0.000000000000000000 ) ) ;
#422 = SURFACE_STYLE_FILL_AREA ( #410 ) ;
#423 = FILL_AREA_STYLE_COLOUR ( '', #407 ) ;
#424 = SURFACE_SIDE_STYLE ('',( #661 ) ) ;
#425 = ORIENTED_EDGE ( 'NONE', *, *, #10, .T. ) ;
#426 = CARTESIAN_POINT ( 'NONE',  ( 0.9968214519863044520, 0.000000000000000000, 0.000000000000000000 ) ) ;
#427 =( NAMED_UNIT ( * ) PLANE_ANGLE_UNIT ( ) SI_UNIT ( $, .RADIAN. ) );
#428 =( LENGTH_UNIT ( ) NAMED_UNIT ( * ) SI_UNIT ( .MILLI., .METRE. ) );
#429 = PLANE ( 'NONE',  #250 ) ;
#430 =( LENGTH_UNIT ( ) NAMED_UNIT ( * ) SI_UNIT ( .MILLI., .METRE. ) );
#431 = ORIENTED_EDGE ( 'NONE', *, *, #538, .T. ) ;
#432 = UNCERTAINTY_MEASURE_WITH_UNIT (LENGTH_MEASURE( 1.000000000000000082E-05 ), #864, 'distance_accuracy_value', 'NONE');
#433 = MECHANICAL_DESIGN_GEOMETRIC_PRESENTATION_REPRESENTATION (  '', ( #503 ), #850 ) ;
#434 = PLANE ( 'NONE',  #684 ) ;
#435 = CIRCLE ( 'NONE', #1020, 0.4199999999999998179 ) ;
#436 =( NAMED_UNIT ( * ) PLANE_ANGLE_UNIT ( ) SI_UNIT ( $, .RADIAN. ) );
#437 = ADVANCED_FACE ( 'NONE', ( #600 ), #295, .T. ) ;
#438 = PRESENTATION_LAYER_ASSIGNMENT (  '', '', ( #595 ) ) ;
#439 = AXIS2_PLACEMENT_3D ( 'NONE', #858, #1012, #220 ) ;
#440 =( NAMED_UNIT ( * ) PLANE_ANGLE_UNIT ( ) SI_UNIT ( $, .RADIAN. ) );
#441 = ORIENTED_EDGE ( 'NONE', *, *, #956, .T. ) ;
#442 = CARTESIAN_POINT ( 'NONE',  ( 0.2666411873824114376, -1.721732169736485796, -0.4052592521765772116 ) ) ;
#443 = FILL_AREA_STYLE_COLOUR ( '', #214 ) ;
#444 = ORIENTED_EDGE ( 'NONE', *, *, #467, .F. ) ;
#445 =( NAMED_UNIT ( * ) SI_UNIT ( $, .STERADIAN. ) SOLID_ANGLE_UNIT ( ) );
#446 = FILL_AREA_STYLE_COLOUR ( '', #527 ) ;
#447 = EDGE_CURVE ( 'NONE', #521, #360, #1004, .T. ) ;
#448 = SURFACE_SIDE_STYLE ('',( #689 ) ) ;
#449 = SURFACE_SIDE_STYLE ('',( #97 ) ) ;
#450 = ORIENTED_EDGE ( 'NONE', *, *, #609, .T. ) ;
#451 = ADVANCED_FACE ( 'NONE', ( #104 ), #649, .T. ) ;
#452 = FILL_AREA_STYLE ('',( #996 ) ) ;
#453 = EDGE_CURVE ( 'NONE', #832, #895, #149, .T. ) ;
#454 = SURFACE_STYLE_USAGE ( .BOTH. , #997 ) ;
#455 = PRESENTATION_LAYER_ASSIGNMENT (  '', '', ( #987 ) ) ;
#456 = COLOUR_RGB ( '',0.7764705882352941346, 0.7568627450980391913, 0.7372549019607843590 ) ;
#457 = UNCERTAINTY_MEASURE_WITH_UNIT (LENGTH_MEASURE( 1.000000000000000082E-05 ), #428, 'distance_accuracy_value', 'NONE');
#458 =( GEOMETRIC_REPRESENTATION_CONTEXT ( 3 ) GLOBAL_UNCERTAINTY_ASSIGNED_CONTEXT ( ( #68 ) ) GLOBAL_UNIT_ASSIGNED_CONTEXT ( ( #769, #680, #137 ) ) REPRESENTATION_CONTEXT ( 'NONE', 'WORKASPACE' ) );
#459 = ADVANCED_FACE ( 'NONE', ( #34 ), #589, .T. ) ;
#460 = PRESENTATION_STYLE_ASSIGNMENT (( #150 ) ) ;
#461 = SURFACE_SIDE_STYLE ('',( #219 ) ) ;
#462 = VERTEX_POINT ( 'NONE', #442 ) ;
#463 = DIRECTION ( 'NONE',  ( 0.6663196743247736809, 0.7456662065614397816, 0.000000000000000000 ) ) ;
#464 =( NAMED_UNIT ( * ) SI_UNIT ( $, .STERADIAN. ) SOLID_ANGLE_UNIT ( ) );
#465 = UNCERTAINTY_MEASURE_WITH_UNIT (LENGTH_MEASURE( 1.000000000000000082E-05 ), #430, 'distance_accuracy_value', 'NONE');
#466 = CARTESIAN_POINT ( 'NONE',  ( 2.214116351126373949, -0.1880408685282127235, 0.1880408685282120573 ) ) ;
#467 = EDGE_CURVE ( 'NONE', #521, #20, #435, .T. ) ;
#468 = TOROIDAL_SURFACE ( 'NONE', #608, 3.080000000000000515, 0.4200000000000000400 ) ;
#469 = FILL_AREA_STYLE_COLOUR ( '', #49 ) ;
#470 = CIRCLE ( 'NONE', #854, 5.995482475482741158 ) ;
#471 = ORIENTED_EDGE ( 'NONE', *, *, #897, .F. ) ;
#472 = CARTESIAN_POINT ( 'NONE',  ( 4.309938594911940868, -6.606512545546451519E-15, 1.891316923914901693 ) ) ;
#473 = VECTOR ( 'NONE', #628, 1000.000000000000000 ) ;
#474 = PRESENTATION_STYLE_ASSIGNMENT (( #232 ) ) ;
#475 = DIRECTION ( 'NONE',  ( -1.000000000000000000, 0.000000000000000000, -0.000000000000000000 ) ) ;
#476 = LINE ( 'NONE', #487, #492 ) ;
#477 = ORIENTED_EDGE ( 'NONE', *, *, #585, .F. ) ;
#478 = UNCERTAINTY_MEASURE_WITH_UNIT (LENGTH_MEASURE( 1.000000000000000082E-05 ), #911, 'distance_accuracy_value', 'NONE');
#479 = CARTESIAN_POINT ( 'NONE',  ( 5.974195292295553905, 2.375629221075779134E-16, 0.2313525518329657416 ) ) ;
#480 = DIRECTION ( 'NONE',  ( 0.7431005017819711789, -0.08288428673721758011, -0.6640269868487616023 ) ) ;
#481 = PLANE ( 'NONE',  #523 ) ;
#482 = EDGE_CURVE ( 'NONE', #813, #336, #290, .T. ) ;
#483 =( NAMED_UNIT ( * ) SI_UNIT ( $, .STERADIAN. ) SOLID_ANGLE_UNIT ( ) );
#484 = EDGE_LOOP ( 'NONE', ( #593, #36, #362 ) ) ;
#485 =( NAMED_UNIT ( * ) SI_UNIT ( $, .STERADIAN. ) SOLID_ANGLE_UNIT ( ) );
#486 = PRESENTATION_LAYER_ASSIGNMENT (  '', '', ( #961 ) ) ;
#487 = CARTESIAN_POINT ( 'NONE',  ( -25.39999999999996305, 0.000000000000000000, 3.500000000000000444 ) ) ;
#488 = AXIS2_PLACEMENT_3D ( 'NONE', #938, #246, #222 ) ;
#489 = PLANE ( 'NONE',  #720 ) ;
#490 = ORIENTED_EDGE ( 'NONE', *, *, #763, .F. ) ;
#491 = PRESENTATION_LAYER_ASSIGNMENT (  '', '', ( #560 ) ) ;
#492 = VECTOR ( 'NONE', #727, 1000.000000000000000 ) ;
#493 = CARTESIAN_POINT ( 'NONE',  ( 0.03111693966988647586, -0.4315292644214340778, -0.4315292644214357987 ) ) ;
#494 = DIRECTION ( 'NONE',  ( 0.000000000000000000, 0.000000000000000000, 1.000000000000000000 ) ) ;
#495 = ORIENTED_EDGE ( 'NONE', *, *, #122, .F. ) ;
#496 = FILL_AREA_STYLE_COLOUR ( '', #783 ) ;
#497 = VERTEX_POINT ( 'NONE', #762 ) ;
#498 = CARTESIAN_POINT ( 'NONE',  ( 5.974195292295553905, 0.2313525518329656860, 8.370432990360215258E-16 ) ) ;
#499 = CARTESIAN_POINT ( 'NONE',  ( 6.000000000000000000, 2.326828918379972351E-16, 0.000000000000000000 ) ) ;
#500 = ADVANCED_FACE ( 'NONE', ( #207 ), #128, .T. ) ;
#501 =( NAMED_UNIT ( * ) PLANE_ANGLE_UNIT ( ) SI_UNIT ( $, .RADIAN. ) );
#502 = LINE ( 'NONE', #578, #667 ) ;
#503 = STYLED_ITEM ( 'NONE', ( #714 ), #5 ) ;
#504 = VERTEX_POINT ( 'NONE', #1010 ) ;
#505 = CIRCLE ( 'NONE', #60, 5.437518987584764929 ) ;
#506 = DIRECTION ( 'NONE',  ( -0.1108510534444136914, 0.9938370308809506559, 3.595744332370143968E-15 ) ) ;
#507 = MECHANICAL_DESIGN_GEOMETRIC_PRESENTATION_REPRESENTATION (  '', ( #95 ), #42 ) ;
#508 = VECTOR ( 'NONE', #658, 1000.000000000000000 ) ;
#509 = SURFACE_STYLE_USAGE ( .BOTH. , #748 ) ;
#510 = PRODUCT_DEFINITION_FORMATION_WITH_SPECIFIED_SOURCE ( 'ANY', '', #223, .NOT_KNOWN. ) ;
#511 =( LENGTH_UNIT ( ) NAMED_UNIT ( * ) SI_UNIT ( .MILLI., .METRE. ) );
#512 = ORIENTED_EDGE ( 'NONE', *, *, #109, .F. ) ;
#513 =( LENGTH_UNIT ( ) NAMED_UNIT ( * ) SI_UNIT ( .MILLI., .METRE. ) );
#514 = SURFACE_STYLE_USAGE ( .BOTH. , #983 ) ;
#515 = VERTEX_POINT ( 'NONE', #687 ) ;
#516 = FACE_OUTER_BOUND ( 'NONE', #582, .T. ) ;
#517 = ADVANCED_FACE ( 'NONE', ( #531 ), #140, .F. ) ;
#518 = DIRECTION ( 'NONE',  ( 0.000000000000000000, -1.224646799147354193E-16, 1.000000000000000000 ) ) ;
#519 = CARTESIAN_POINT ( 'NONE',  ( 4.309938594911940868, 6.836180637525074799E-15, -1.891316923914901693 ) ) ;
#520 = DIRECTION ( 'NONE',  ( 0.9938370308809507669, -0.1108510534444137746, 0.000000000000000000 ) ) ;
#521 = VERTEX_POINT ( 'NONE', #790 ) ;
#522 = UNCERTAINTY_MEASURE_WITH_UNIT (LENGTH_MEASURE( 1.000000000000000082E-05 ), #121, 'distance_accuracy_value', 'NONE');
#523 = AXIS2_PLACEMENT_3D ( 'NONE', #202, #827, #934 ) ;
#524 = SURFACE_STYLE_USAGE ( .BOTH. , #833 ) ;
#525 = MECHANICAL_DESIGN_GEOMETRIC_PRESENTATION_REPRESENTATION (  '', ( #774 ), #327 ) ;
#526 = CIRCLE ( 'NONE', #385, 5.437518987584765817 ) ;
#527 = COLOUR_RGB ( '',0.7764705882352941346, 0.7568627450980391913, 0.7372549019607843590 ) ;
#528 = MECHANICAL_DESIGN_GEOMETRIC_PRESENTATION_REPRESENTATION (  '', ( #1006 ), #115 ) ;
#529 = EDGE_LOOP ( 'NONE', ( #444, #218, #395, #119, #306 ) ) ;
#530 =( NAMED_UNIT ( * ) PLANE_ANGLE_UNIT ( ) SI_UNIT ( $, .RADIAN. ) );
#531 = FACE_OUTER_BOUND ( 'NONE', #691, .T. ) ;
#532 = EDGE_CURVE ( 'NONE', #234, #504, #173, .T. ) ;
#533 = LINE ( 'NONE', #216, #100 ) ;
#534 = PLANE ( 'NONE',  #264 ) ;
#535 = ADVANCED_FACE ( 'NONE', ( #318 ), #569, .T. ) ;
#536 = ORIENTED_EDGE ( 'NONE', *, *, #956, .F. ) ;
#537 =( NAMED_UNIT ( * ) SI_UNIT ( $, .STERADIAN. ) SOLID_ANGLE_UNIT ( ) );
#538 = EDGE_CURVE ( 'NONE', #832, #212, #94, .T. ) ;
#539 = PLANE ( 'NONE',  #776 ) ;
#540 = EDGE_LOOP ( 'NONE', ( #933, #549, #195 ) ) ;
#541 = FACE_OUTER_BOUND ( 'NONE', #724, .T. ) ;
#542 =( GEOMETRIC_REPRESENTATION_CONTEXT ( 3 ) GLOBAL_UNCERTAINTY_ASSIGNED_CONTEXT ( ( #145 ) ) GLOBAL_UNIT_ASSIGNED_CONTEXT ( ( #716, #618, #320 ) ) REPRESENTATION_CONTEXT ( 'NONE', 'WORKASPACE' ) );
#543 = PRESENTATION_LAYER_ASSIGNMENT (  '', '', ( #245 ) ) ;
#544 = MECHANICAL_DESIGN_GEOMETRIC_PRESENTATION_REPRESENTATION (  '', ( #342 ), #816 ) ;
#545 = AXIS2_PLACEMENT_3D ( 'NONE', #107, #421, #730 ) ;
#546 = AXIS2_PLACEMENT_3D ( 'NONE', #258, #99, #713 ) ;
#547 =( LENGTH_UNIT ( ) NAMED_UNIT ( * ) SI_UNIT ( .MILLI., .METRE. ) );
#548 = PRESENTATION_STYLE_ASSIGNMENT (( #233 ) ) ;
#549 = ORIENTED_EDGE ( 'NONE', *, *, #229, .T. ) ;
#550 = FACE_OUTER_BOUND ( 'NONE', #102, .T. ) ;
#551 = EDGE_CURVE ( 'NONE', #905, #765, #890, .T. ) ;
#552 = ORIENTED_EDGE ( 'NONE', *, *, #633, .T. ) ;
#553 = UNCERTAINTY_MEASURE_WITH_UNIT (LENGTH_MEASURE( 1.000000000000000082E-05 ), #669, 'distance_accuracy_value', 'NONE');
#554 = DIRECTION ( 'NONE',  ( 0.6663196743247735698, -0.7456662065614397816, -9.292562311528023527E-17 ) ) ;
#555 = LINE ( 'NONE', #825, #210 ) ;
#556 = AXIS2_PLACEMENT_3D ( 'NONE', #67, #624, #880 ) ;
#557 =( GEOMETRIC_REPRESENTATION_CONTEXT ( 3 ) GLOBAL_UNCERTAINTY_ASSIGNED_CONTEXT ( ( #300 ) ) GLOBAL_UNIT_ASSIGNED_CONTEXT ( ( #335, #9, #483 ) ) REPRESENTATION_CONTEXT ( 'NONE', 'WORKASPACE' ) );
#558 = AXIS2_PLACEMENT_3D ( 'NONE', #357, #743, #910 ) ;
#559 = ORIENTED_EDGE ( 'NONE', *, *, #532, .F. ) ;
#560 = STYLED_ITEM ( 'NONE', ( #474 ), #583 ) ;
#561 = CARTESIAN_POINT ( 'NONE',  ( 0.2666411873824114376, -1.721732169736485796, 0.4052592521765768785 ) ) ;
#562 = COLOUR_RGB ( '',0.7764705882352941346, 0.7568627450980391913, 0.7372549019607843590 ) ;
#563 =( NAMED_UNIT ( * ) SI_UNIT ( $, .STERADIAN. ) SOLID_ANGLE_UNIT ( ) );
#564 =( NAMED_UNIT ( * ) SI_UNIT ( $, .STERADIAN. ) SOLID_ANGLE_UNIT ( ) );
#565 = EDGE_CURVE ( 'NONE', #157, #813, #21, .T. ) ;
#566 = PRODUCT_CONTEXT ( 'NONE', #978, 'mechanical' ) ;
#567 = CARTESIAN_POINT ( 'NONE',  ( 0.9968214519863044520, 4.171041651934668579E-16, -3.311827956989247479 ) ) ;
#568 = SPHERICAL_SURFACE ( 'NONE', #263, 6.000000000000000000 ) ;
#569 = CYLINDRICAL_SURFACE ( 'NONE', #741, 3.500000000000000444 ) ;
#570 = CARTESIAN_POINT ( 'NONE',  ( 5.974195292295553905, 0.2313525518329656860, 8.370432990360215258E-16 ) ) ;
#571 = DIRECTION ( 'NONE',  ( -0.000000000000000000, 0.000000000000000000, 1.000000000000000000 ) ) ;
#572 = CARTESIAN_POINT ( 'NONE',  ( 6.000000000000000000, 2.326828918379972351E-16, 0.000000000000000000 ) ) ;
#573 = ORIENTED_EDGE ( 'NONE', *, *, #229, .F. ) ;
#574 = CARTESIAN_POINT ( 'NONE',  ( -25.39999999999996305, 0.000000000000000000, 0.000000000000000000 ) ) ;
#575 = FACE_OUTER_BOUND ( 'NONE', #875, .T. ) ;
#576 = LINE ( 'NONE', #17, #473 ) ;
#577 = MECHANICAL_DESIGN_GEOMETRIC_PRESENTATION_REPRESENTATION (  '', ( #245 ), #636 ) ;
#578 = CARTESIAN_POINT ( 'NONE',  ( 0.000000000000000000, 0.4350000000000068257, -1.959999999999998188 ) ) ;
#579 = COLOUR_RGB ( '',0.7764705882352941346, 0.7568627450980391913, 0.7372549019607843590 ) ;
#580 = CARTESIAN_POINT ( 'NONE',  ( 0.2666411873824114376, 1.721732169736486240, -0.4052592521765773226 ) ) ;
#581 = DIRECTION ( 'NONE',  ( 0.000000000000000000, 0.000000000000000000, 1.000000000000000000 ) ) ;
#582 = EDGE_LOOP ( 'NONE', ( #144, #1003, #629 ) ) ;
#583 = ADVANCED_FACE ( 'NONE', ( #76 ), #795, .T. ) ;
#584 =( NAMED_UNIT ( * ) PLANE_ANGLE_UNIT ( ) SI_UNIT ( $, .RADIAN. ) );
#585 = EDGE_CURVE ( 'NONE', #462, #813, #555, .T. ) ;
#586 = FILL_AREA_STYLE_COLOUR ( '', #562 ) ;
#587 = SURFACE_STYLE_FILL_AREA ( #270 ) ;
#588 = DIRECTION ( 'NONE',  ( -1.000000000000000000, -0.000000000000000000, -0.000000000000000000 ) ) ;
#589 = PLANE ( 'NONE',  #314 ) ;
#590 = CARTESIAN_POINT ( 'NONE',  ( 0.03111693966988560850, 0.4315292644214372975, -0.4315292644214357431 ) ) ;
#591 = CARTESIAN_POINT ( 'NONE',  ( 2.599999999999998312, 0.000000000000000000, 0.000000000000000000 ) ) ;
#592 = MECHANICAL_DESIGN_GEOMETRIC_PRESENTATION_REPRESENTATION (  '', ( #921 ), #542 ) ;
#593 = ORIENTED_EDGE ( 'NONE', *, *, #939, .T. ) ;
#594 = COLOUR_RGB ( '',0.7764705882352941346, 0.7568627450980391913, 0.7372549019607843590 ) ;
#595 = STYLED_ITEM ( 'NONE', ( #406 ), #535 ) ;
#596 =( NAMED_UNIT ( * ) SI_UNIT ( $, .STERADIAN. ) SOLID_ANGLE_UNIT ( ) );
#597 = AXIS2_PLACEMENT_3D ( 'NONE', #203, #209, #811 ) ;
#598 = CARTESIAN_POINT ( 'NONE',  ( 2.599999999999998312, 0.000000000000000000, 3.500000000000000000 ) ) ;
#599 = ORIENTED_EDGE ( 'NONE', *, *, #81, .F. ) ;
#600 = FACE_OUTER_BOUND ( 'NONE', #740, .T. ) ;
#601 =( NAMED_UNIT ( * ) SI_UNIT ( $, .STERADIAN. ) SOLID_ANGLE_UNIT ( ) );
#602 = SURFACE_SIDE_STYLE ('',( #760 ) ) ;
#603 = VERTEX_POINT ( 'NONE', #909 ) ;
#604 = DIRECTION ( 'NONE',  ( -0.1108510534444136914, 0.9938370308809506559, 3.595744332370143179E-15 ) ) ;
#605 =( NAMED_UNIT ( * ) PLANE_ANGLE_UNIT ( ) SI_UNIT ( $, .RADIAN. ) );
#606 = ORIENTED_EDGE ( 'NONE', *, *, #171, .F. ) ;
#607 = AXIS2_PLACEMENT_3D ( 'NONE', #373, #991, #302 ) ;
#608 = AXIS2_PLACEMENT_3D ( 'NONE', #764, #200, #830 ) ;
#609 = EDGE_CURVE ( 'NONE', #515, #497, #753, .T. ) ;
#610 = DIRECTION ( 'NONE',  ( -0.1108510534444136914, 1.257808851980383614E-16, -0.9938370308809506559 ) ) ;
#611 = PRESENTATION_LAYER_ASSIGNMENT (  '', '', ( #1006 ) ) ;
#612 = CARTESIAN_POINT ( 'NONE',  ( 4.309938594911940868, 1.891316923914901471, 2.356976916973721757E-16 ) ) ;
#613 = ORIENTED_EDGE ( 'NONE', *, *, #652, .T. ) ;
#614 = EDGE_CURVE ( 'NONE', #47, #336, #972, .T. ) ;
#615 = FILL_AREA_STYLE ('',( #368 ) ) ;
#616 =( NAMED_UNIT ( * ) PLANE_ANGLE_UNIT ( ) SI_UNIT ( $, .RADIAN. ) );
#617 = ORIENTED_EDGE ( 'NONE', *, *, #614, .F. ) ;
#618 =( NAMED_UNIT ( * ) PLANE_ANGLE_UNIT ( ) SI_UNIT ( $, .RADIAN. ) );
#619 = PRESENTATION_STYLE_ASSIGNMENT (( #307 ) ) ;
#620 = CARTESIAN_POINT ( 'NONE',  ( 2.599999999999998312, 4.286263797015736595E-16, -3.500000000000000000 ) ) ;
#621 = FILL_AREA_STYLE ('',( #877 ) ) ;
#622 = CARTESIAN_POINT ( 'NONE',  ( 0.000000000000000000, -0.4349999999999927813, -1.960000000000001741 ) ) ;
#623 = CIRCLE ( 'NONE', #685, 5.995482475482740270 ) ;
#624 = DIRECTION ( 'NONE',  ( 0.6663196743247736809, -0.7456662065614397816, -9.292562311528023527E-17 ) ) ;
#625 = CARTESIAN_POINT ( 'NONE',  ( 1.949999999999999956, 0.2174999999999999989, -0.2174999999999999711 ) ) ;
#626 = CARTESIAN_POINT ( 'NONE',  ( 0.000000000000000000, 1.959999999999999964, -0.4350000000000000533 ) ) ;
#627 = DIRECTION ( 'NONE',  ( -1.000000000000000000, -0.000000000000000000, -0.000000000000000000 ) ) ;
#628 = DIRECTION ( 'NONE',  ( -0.9877866216249070463, 0.1101762001043161965, 0.1101762001043165434 ) ) ;
#629 = ORIENTED_EDGE ( 'NONE', *, *, #565, .F. ) ;
#630 = UNCERTAINTY_MEASURE_WITH_UNIT (LENGTH_MEASURE( 1.000000000000000082E-05 ), #123, 'distance_accuracy_value', 'NONE');
#631 = DIRECTION ( 'NONE',  ( -1.000000000000000000, -0.000000000000000000, -0.000000000000000000 ) ) ;
#632 = CARTESIAN_POINT ( 'NONE',  ( 0.000000000000000000, 0.4349999999999932254, 1.960000000000001741 ) ) ;
#633 = EDGE_CURVE ( 'NONE', #913, #47, #265, .T. ) ;
#634 = AXIS2_PLACEMENT_3D ( 'NONE', #154, #463, #780 ) ;
#635 =( NAMED_UNIT ( * ) SI_UNIT ( $, .STERADIAN. ) SOLID_ANGLE_UNIT ( ) );
#636 =( GEOMETRIC_REPRESENTATION_CONTEXT ( 3 ) GLOBAL_UNCERTAINTY_ASSIGNED_CONTEXT ( ( #788 ) ) GLOBAL_UNIT_ASSIGNED_CONTEXT ( ( #547, #259, #182 ) ) REPRESENTATION_CONTEXT ( 'NONE', 'WORKASPACE' ) );
#637 = VECTOR ( 'NONE', #152, 1000.000000000000000 ) ;
#638 = STYLED_ITEM ( 'NONE', ( #619 ), #517 ) ;
#639 = MECHANICAL_DESIGN_GEOMETRIC_PRESENTATION_REPRESENTATION (  '', ( #992 ), #345 ) ;
#640 = CARTESIAN_POINT ( 'NONE',  ( 7.600000000000002309, 0.000000000000000000, 1.749999999999999778 ) ) ;
#641 = SURFACE_SIDE_STYLE ('',( #646 ) ) ;
#642 = SURFACE_STYLE_USAGE ( .BOTH. , #266 ) ;
#643 = ORIENTED_EDGE ( 'NONE', *, *, #251, .F. ) ;
#644 = DIRECTION ( 'NONE',  ( -1.000000000000000000, -0.000000000000000000, -0.000000000000000000 ) ) ;
#645 = PLANE ( 'NONE',  #227 ) ;
#646 = SURFACE_STYLE_FILL_AREA ( #334 ) ;
#647 = SURFACE_STYLE_USAGE ( .BOTH. , #898 ) ;
#648 = CARTESIAN_POINT ( 'NONE',  ( 0.2666411873824114376, 1.721732169736485352, 0.4052592521765772671 ) ) ;
#649 = SPHERICAL_SURFACE ( 'NONE', #686, 6.000000000000000000 ) ;
#650 =( GEOMETRIC_REPRESENTATION_CONTEXT ( 3 ) GLOBAL_UNCERTAINTY_ASSIGNED_CONTEXT ( ( #553 ) ) GLOBAL_UNIT_ASSIGNED_CONTEXT ( ( #669, #907, #206 ) ) REPRESENTATION_CONTEXT ( 'NONE', 'WORKASPACE' ) );
#651 = STYLED_ITEM ( 'NONE', ( #735 ), #437 ) ;
#652 = EDGE_CURVE ( 'NONE', #603, #340, #30, .T. ) ;
#653 = CARTESIAN_POINT ( 'NONE',  ( 5.974195292295553905, 2.375629221075779134E-16, 0.2313525518329657416 ) ) ;
#654 = ORIENTED_EDGE ( 'NONE', *, *, #979, .F. ) ;
#655 = FACE_OUTER_BOUND ( 'NONE', #333, .T. ) ;
#656 = CARTESIAN_POINT ( 'NONE',  ( 1.949999999999999956, 0.2175000000000007483, -0.2174999999999992772 ) ) ;
#657 = ORIENTED_EDGE ( 'NONE', *, *, #324, .T. ) ;
#658 = DIRECTION ( 'NONE',  ( 0.000000000000000000, 1.000000000000000000, 6.231046968307495628E-17 ) ) ;
#659 = FILL_AREA_STYLE_COLOUR ( '', #96 ) ;
#660 = DIRECTION ( 'NONE',  ( 0.7456662065614395596, 0.000000000000000000, -0.6663196743247737919 ) ) ;
#661 = SURFACE_STYLE_FILL_AREA ( #35 ) ;
#662 = VERTEX_POINT ( 'NONE', #580 ) ;
#663 = FILL_AREA_STYLE ('',( #807 ) ) ;
#664 = EDGE_CURVE ( 'NONE', #365, #823, #896, .T. ) ;
#665 = PRESENTATION_STYLE_ASSIGNMENT (( #514 ) ) ;
#666 = SURFACE_STYLE_USAGE ( .BOTH. , #424 ) ;
#667 = VECTOR ( 'NONE', #980, 1000.000000000000000 ) ;
#668 = ORIENTED_EDGE ( 'NONE', *, *, #167, .T. ) ;
#669 =( LENGTH_UNIT ( ) NAMED_UNIT ( * ) SI_UNIT ( .MILLI., .METRE. ) );
#670 =( GEOMETRIC_REPRESENTATION_CONTEXT ( 3 ) GLOBAL_UNCERTAINTY_ASSIGNED_CONTEXT ( ( #465 ) ) GLOBAL_UNIT_ASSIGNED_CONTEXT ( ( #430, #440, #635 ) ) REPRESENTATION_CONTEXT ( 'NONE', 'WORKASPACE' ) );
#671 = MECHANICAL_DESIGN_GEOMETRIC_PRESENTATION_REPRESENTATION (  '', ( #560 ), #130 ) ;
#672 = CIRCLE ( 'NONE', #965, 6.000000000000000000 ) ;
#673 = EDGE_LOOP ( 'NONE', ( #386, #299, #668 ) ) ;
#674 = UNCERTAINTY_MEASURE_WITH_UNIT (LENGTH_MEASURE( 1.000000000000000082E-05 ), #127, 'distance_accuracy_value', 'NONE');
#675 = CARTESIAN_POINT ( 'NONE',  ( 1.949999999999999956, -0.2175000000000000266, -0.2174999999999999989 ) ) ;
#676 =( NAMED_UNIT ( * ) SI_UNIT ( $, .STERADIAN. ) SOLID_ANGLE_UNIT ( ) );
#677 = CARTESIAN_POINT ( 'NONE',  ( -25.39999999999996305, 0.000000000000000000, 0.000000000000000000 ) ) ;
#678 = ORIENTED_EDGE ( 'NONE', *, *, #109, .T. ) ;
#679 = SURFACE_STYLE_FILL_AREA ( #452 ) ;
#680 =( NAMED_UNIT ( * ) PLANE_ANGLE_UNIT ( ) SI_UNIT ( $, .RADIAN. ) );
#681 = DIRECTION ( 'NONE',  ( -1.000000000000000000, -0.000000000000000000, -0.000000000000000000 ) ) ;
#682 = ORIENTED_EDGE ( 'NONE', *, *, #352, .T. ) ;
#683 = EDGE_CURVE ( 'NONE', #360, #138, #114, .T. ) ;
#684 = AXIS2_PLACEMENT_3D ( 'NONE', #135, #604, #146 ) ;
#685 = AXIS2_PLACEMENT_3D ( 'NONE', #46, #837, #520 ) ;
#686 = AXIS2_PLACEMENT_3D ( 'NONE', #499, #810, #417 ) ;
#687 = CARTESIAN_POINT ( 'NONE',  ( 7.600000000000002309, 2.143131898507868051E-16, -1.749999999999999778 ) ) ;
#688 = VECTOR ( 'NONE', #158, 1000.000000000000000 ) ;
#689 = SURFACE_STYLE_FILL_AREA ( #615 ) ;
#690 = CARTESIAN_POINT ( 'NONE',  ( 1.949999999999999956, -0.2175000000000006928, 0.2174999999999992495 ) ) ;
#691 = EDGE_LOOP ( 'NONE', ( #425, #599, #411, #512, #805 ) ) ;
#692 = SURFACE_STYLE_FILL_AREA ( #40 ) ;
#693 = FILL_AREA_STYLE ('',( #378 ) ) ;
#694 = DIRECTION ( 'NONE',  ( 0.6663196743247735698, 2.696405268330496621E-15, -0.7456662065614397816 ) ) ;
#695 = VERTEX_POINT ( 'NONE', #493 ) ;
#696 = UNCERTAINTY_MEASURE_WITH_UNIT (LENGTH_MEASURE( 1.000000000000000082E-05 ), #253, 'distance_accuracy_value', 'NONE');
#697 = DIRECTION ( 'NONE',  ( 0.000000000000000000, 0.000000000000000000, 1.000000000000000000 ) ) ;
#698 = DIRECTION ( 'NONE',  ( 0.9938370308809506559, 0.000000000000000000, 0.1108510534444137469 ) ) ;
#699 = ORIENTED_EDGE ( 'NONE', *, *, #482, .T. ) ;
#700 = FILL_AREA_STYLE_COLOUR ( '', #187 ) ;
#701 = MECHANICAL_DESIGN_GEOMETRIC_PRESENTATION_REPRESENTATION (  '', ( #961 ), #650 ) ;
#702 = AXIS2_PLACEMENT_3D ( 'NONE', #472, #79, #944 ) ;
#703 = PRESENTATION_LAYER_ASSIGNMENT (  '', '', ( #903 ) ) ;
#704 = VECTOR ( 'NONE', #480, 999.9999999999998863 ) ;
#705 =( NAMED_UNIT ( * ) PLANE_ANGLE_UNIT ( ) SI_UNIT ( $, .RADIAN. ) );
#706 = PRESENTATION_LAYER_ASSIGNMENT (  '', '', ( #64 ) ) ;
#707 = ORIENTED_EDGE ( 'NONE', *, *, #379, .F. ) ;
#708 = CARTESIAN_POINT ( 'NONE',  ( 1.949999999999999956, 0.2174999999999999989, 0.2174999999999999156 ) ) ;
#709 = ORIENTED_EDGE ( 'NONE', *, *, #551, .F. ) ;
#710 = CARTESIAN_POINT ( 'NONE',  ( 7.600000000000002309, 0.000000000000000000, 0.000000000000000000 ) ) ;
#711 = CARTESIAN_POINT ( 'NONE',  ( 5.974195292295553905, 2.619630734554813543E-16, -0.2313525518329656583 ) ) ;
#712 = FILL_AREA_STYLE_COLOUR ( '', #162 ) ;
#713 = DIRECTION ( 'NONE',  ( 0.000000000000000000, 0.000000000000000000, 1.000000000000000000 ) ) ;
#714 = PRESENTATION_STYLE_ASSIGNMENT (( #377 ) ) ;
#715 = UNCERTAINTY_MEASURE_WITH_UNIT (LENGTH_MEASURE( 1.000000000000000082E-05 ), #779, 'distance_accuracy_value', 'NONE');
#716 =( LENGTH_UNIT ( ) NAMED_UNIT ( * ) SI_UNIT ( .MILLI., .METRE. ) );
#717 = SURFACE_STYLE_FILL_AREA ( #882 ) ;
#718 = VECTOR ( 'NONE', #238, 1000.000000000000000 ) ;
#719 = DIRECTION ( 'NONE',  ( -0.1108510534444137469, 2.096348086633972484E-17, 0.9938370308809506559 ) ) ;
#720 = AXIS2_PLACEMENT_3D ( 'NONE', #804, #347, #32 ) ;
#721 = PRESENTATION_LAYER_ASSIGNMENT (  '', '', ( #342 ) ) ;
#722 = PRESENTATION_STYLE_ASSIGNMENT (( #400 ) ) ;
#723 = APPLICATION_CONTEXT ( 'automotive_design' ) ;
#724 = EDGE_LOOP ( 'NONE', ( #899, #885, #613, #657, #166, #707, #917, #285, #201, #682, #862 ) ) ;
#725 = AXIS2_PLACEMENT_3D ( 'NONE', #519, #346, #660 ) ;
#726 = DIRECTION ( 'NONE',  ( 0.9877866216249069353, -0.1101762001043169320, 0.1101762001043165712 ) ) ;
#727 = DIRECTION ( 'NONE',  ( -1.000000000000000000, -0.000000000000000000, -0.000000000000000000 ) ) ;
#728 = CYLINDRICAL_SURFACE ( 'NONE', #75, 1.749999999999999778 ) ;
#729 = ORIENTED_EDGE ( 'NONE', *, *, #242, .T. ) ;
#730 = DIRECTION ( 'NONE',  ( 0.000000000000000000, 0.000000000000000000, -1.000000000000000000 ) ) ;
#731 = SURFACE_SIDE_STYLE ('',( #422 ) ) ;
#732 = CARTESIAN_POINT ( 'NONE',  ( 0.000000000000000000, 1.959999999999999964, 0.4350000000000001088 ) ) ;
#733 = ORIENTED_EDGE ( 'NONE', *, *, #251, .T. ) ;
#734 = SURFACE_STYLE_FILL_AREA ( #809 ) ;
#735 = PRESENTATION_STYLE_ASSIGNMENT (( #344 ) ) ;
#736 = AXIS2_PLACEMENT_3D ( 'NONE', #710, #85, #697 ) ;
#737 = CIRCLE ( 'NONE', #355, 1.749999999999999778 ) ;
#738 = CYLINDRICAL_SURFACE ( 'NONE', #597, 3.500000000000000444 ) ;
#739 = COLOUR_RGB ( '',0.7764705882352941346, 0.7568627450980391913, 0.7372549019607843590 ) ;
#740 = EDGE_LOOP ( 'NONE', ( #441, #865, #116, #412, #826 ) ) ;
#741 = AXIS2_PLACEMENT_3D ( 'NONE', #800, #627, #86 ) ;
#742 = COLOUR_RGB ( '',0.7764705882352941346, 0.7568627450980391913, 0.7372549019607843590 ) ;
#743 = DIRECTION ( 'NONE',  ( -0.1108510534444137469, -0.9938370308809506559, -3.448999966305766196E-15 ) ) ;
#744 = SURFACE_STYLE_FILL_AREA ( #749 ) ;
#745 = ADVANCED_FACE ( 'NONE', ( #351 ), #969, .T. ) ;
#746 = FILL_AREA_STYLE_COLOUR ( '', #177 ) ;
#747 = ORIENTED_EDGE ( 'NONE', *, *, #870, .T. ) ;
#748 = SURFACE_SIDE_STYLE ('',( #188 ) ) ;
#749 = FILL_AREA_STYLE ('',( #423 ) ) ;
#750 = DIRECTION ( 'NONE',  ( 0.000000000000000000, -1.000000000000000000, -1.246209393661499126E-16 ) ) ;
#751 = ORIENTED_EDGE ( 'NONE', *, *, #979, .T. ) ;
#752 = DIRECTION ( 'NONE',  ( -1.000000000000000000, -0.000000000000000000, -0.000000000000000000 ) ) ;
#753 = LINE ( 'NONE', #184, #45 ) ;
#754 = DIRECTION ( 'NONE',  ( 0.000000000000000000, 0.000000000000000000, 1.000000000000000000 ) ) ;
#755 = STYLED_ITEM ( 'NONE', ( #988 ), #349 ) ;
#756 = ORIENTED_EDGE ( 'NONE', *, *, #273, .T. ) ;
#757 = MECHANICAL_DESIGN_GEOMETRIC_PRESENTATION_REPRESENTATION (  '', ( #974 ), #356 ) ;
#758 = VECTOR ( 'NONE', #985, 1000.000000000000000 ) ;
#759 = STYLED_ITEM ( 'NONE', ( #338 ), #1007 ) ;
#760 = SURFACE_STYLE_FILL_AREA ( #984 ) ;
#761 = ORIENTED_EDGE ( 'NONE', *, *, #609, .F. ) ;
#762 = CARTESIAN_POINT ( 'NONE',  ( 2.599999999999998312, 2.143131898507868051E-16, -1.749999999999999778 ) ) ;
#763 = EDGE_CURVE ( 'NONE', #813, #212, #806, .T. ) ;
#764 = CARTESIAN_POINT ( 'NONE',  ( 1.347043950347263763, 0.000000000000000000, 0.000000000000000000 ) ) ;
#765 = VERTEX_POINT ( 'NONE', #648 ) ;
#766 = EDGE_CURVE ( 'NONE', #138, #989, #191, .T. ) ;
#767 = PLANE ( 'NONE',  #607 ) ;
#768 =( NAMED_UNIT ( * ) SI_UNIT ( $, .STERADIAN. ) SOLID_ANGLE_UNIT ( ) );
#769 =( LENGTH_UNIT ( ) NAMED_UNIT ( * ) SI_UNIT ( .MILLI., .METRE. ) );
#770 =( LENGTH_UNIT ( ) NAMED_UNIT ( * ) SI_UNIT ( .MILLI., .METRE. ) );
#771 = ORIENTED_EDGE ( 'NONE', *, *, #652, .F. ) ;
#772 = UNCERTAINTY_MEASURE_WITH_UNIT (LENGTH_MEASURE( 1.000000000000000082E-05 ), #211, 'distance_accuracy_value', 'NONE');
#773 = CIRCLE ( 'NONE', #801, 3.500000000000000000 ) ;
#774 = STYLED_ITEM ( 'NONE', ( #881 ), #192 ) ;
#775 = AXIS2_PLACEMENT_3D ( 'NONE', #293, #610, #930 ) ;
#776 = AXIS2_PLACEMENT_3D ( 'NONE', #313, #694, #861 ) ;
#777 = FACE_BOUND ( 'NONE', #389, .T. ) ;
#778 = SURFACE_STYLE_FILL_AREA ( #396 ) ;
#779 =( LENGTH_UNIT ( ) NAMED_UNIT ( * ) SI_UNIT ( .MILLI., .METRE. ) );
#780 = DIRECTION ( 'NONE',  ( -0.7456662065614396706, 0.6663196743247736809, 0.000000000000000000 ) ) ;
#781 =( LENGTH_UNIT ( ) NAMED_UNIT ( * ) SI_UNIT ( .MILLI., .METRE. ) );
#782 = PRESENTATION_STYLE_ASSIGNMENT (( #952 ) ) ;
#783 = COLOUR_RGB ( '',0.7764705882352941346, 0.7568627450980391913, 0.7372549019607843590 ) ;
#784 = EDGE_CURVE ( 'NONE', #989, #20, #371, .T. ) ;
#785 = DIRECTION ( 'NONE',  ( 0.000000000000000000, 0.000000000000000000, 1.000000000000000000 ) ) ;
#786 = AXIS2_PLACEMENT_3D ( 'NONE', #922, #185, #754 ) ;
#787 = EDGE_LOOP ( 'NONE', ( #552, #954, #39 ) ) ;
#788 = UNCERTAINTY_MEASURE_WITH_UNIT (LENGTH_MEASURE( 1.000000000000000082E-05 ), #547, 'distance_accuracy_value', 'NONE');
#789 = LINE ( 'NONE', #235, #383 ) ;
#790 = CARTESIAN_POINT ( 'NONE',  ( 1.347043950347265318, 4.286263797015737088E-16, -3.500000000000000444 ) ) ;
#791 = DIRECTION ( 'NONE',  ( -0.000000000000000000, 0.000000000000000000, 1.000000000000000000 ) ) ;
#792 = DIRECTION ( 'NONE',  ( 1.000000000000000000, 0.000000000000000000, 0.000000000000000000 ) ) ;
#793 = ORIENTED_EDGE ( 'NONE', *, *, #835, .F. ) ;
#794 = LINE ( 'NONE', #863, #225 ) ;
#795 = PLANE ( 'NONE',  #282 ) ;
#796 = LINE ( 'NONE', #732, #688 ) ;
#797 = FILL_AREA_STYLE_COLOUR ( '', #1017 ) ;
#798 = FILL_AREA_STYLE_COLOUR ( '', #943 ) ;
#799 = EDGE_LOOP ( 'NONE', ( #110, #941 ) ) ;
#800 = CARTESIAN_POINT ( 'NONE',  ( -25.39999999999996305, 0.000000000000000000, 0.000000000000000000 ) ) ;
#801 = AXIS2_PLACEMENT_3D ( 'NONE', #161, #860, #168 ) ;
#802 =( NAMED_UNIT ( * ) PLANE_ANGLE_UNIT ( ) SI_UNIT ( $, .RADIAN. ) );
#803 = MECHANICAL_DESIGN_GEOMETRIC_PRESENTATION_REPRESENTATION (  '', ( #595 ), #297 ) ;
#804 = CARTESIAN_POINT ( 'NONE',  ( 2.193400286944045430, 4.336808689942017736E-16, 0.1903515064562409931 ) ) ;
#805 = ORIENTED_EDGE ( 'NONE', *, *, #352, .F. ) ;
#806 = LINE ( 'NONE', #337, #508 ) ;
#807 = FILL_AREA_STYLE_COLOUR ( '', #739 ) ;
#808 = FILL_AREA_STYLE_COLOUR ( '', #1002 ) ;
#809 = FILL_AREA_STYLE ('',( #496 ) ) ;
#810 = DIRECTION ( 'NONE',  ( -0.000000000000000000, 0.000000000000000000, -1.000000000000000000 ) ) ;
#811 = DIRECTION ( 'NONE',  ( 0.000000000000000000, 0.000000000000000000, 1.000000000000000000 ) ) ;
#812 = FACE_OUTER_BOUND ( 'NONE', #838, .T. ) ;
#813 = VERTEX_POINT ( 'NONE', #287 ) ;
#814 =( NAMED_UNIT ( * ) SI_UNIT ( $, .STERADIAN. ) SOLID_ANGLE_UNIT ( ) );
#815 = SURFACE_STYLE_USAGE ( .BOTH. , #731 ) ;
#816 =( GEOMETRIC_REPRESENTATION_CONTEXT ( 3 ) GLOBAL_UNCERTAINTY_ASSIGNED_CONTEXT ( ( #3 ) ) GLOBAL_UNIT_ASSIGNED_CONTEXT ( ( #770, #616, #564 ) ) REPRESENTATION_CONTEXT ( 'NONE', 'WORKASPACE' ) );
#817 = EDGE_LOOP ( 'NONE', ( #495, #61, #205, #350 ) ) ;
#818 = VECTOR ( 'NONE', #388, 999.9999999999998863 ) ;
#819 = DIRECTION ( 'NONE',  ( -1.000000000000000000, -0.000000000000000000, -0.000000000000000000 ) ) ;
#820 =( NAMED_UNIT ( * ) PLANE_ANGLE_UNIT ( ) SI_UNIT ( $, .RADIAN. ) );
#821 = ADVANCED_FACE ( 'NONE', ( #361 ), #738, .T. ) ;
#822 = LINE ( 'NONE', #904, #402 ) ;
#823 = VERTEX_POINT ( 'NONE', #31 ) ;
#824 = SURFACE_STYLE_USAGE ( .BOTH. , #139 ) ;
#825 = CARTESIAN_POINT ( 'NONE',  ( 0.000000000000000000, -1.959999999999999964, -0.4349999999999999978 ) ) ;
#826 = ORIENTED_EDGE ( 'NONE', *, *, #683, .F. ) ;
#827 = DIRECTION ( 'NONE',  ( 1.000000000000000000, 0.000000000000000000, 0.000000000000000000 ) ) ;
#828 = CIRCLE ( 'NONE', #58, 3.311827956989247479 ) ;
#829 = PRESENTATION_STYLE_ASSIGNMENT (( #269 ) ) ;
#830 = DIRECTION ( 'NONE',  ( 0.000000000000000000, 0.000000000000000000, 1.000000000000000000 ) ) ;
#831 = PRESENTATION_LAYER_ASSIGNMENT (  '', '', ( #774 ) ) ;
#832 = VERTEX_POINT ( 'NONE', #590 ) ;
#833 = SURFACE_SIDE_STYLE ('',( #692 ) ) ;
#834 = SURFACE_STYLE_FILL_AREA ( #693 ) ;
#835 = EDGE_CURVE ( 'NONE', #234, #47, #891, .T. ) ;
#836 =( NAMED_UNIT ( * ) SI_UNIT ( $, .STERADIAN. ) SOLID_ANGLE_UNIT ( ) );
#837 = DIRECTION ( 'NONE',  ( -0.1108510534444137469, -0.9938370308809506559, -3.448999966305766196E-15 ) ) ;
#838 = EDGE_LOOP ( 'NONE', ( #968, #267, #271 ) ) ;
#839 =( NAMED_UNIT ( * ) SI_UNIT ( $, .STERADIAN. ) SOLID_ANGLE_UNIT ( ) );
#840 = SHAPE_DEFINITION_REPRESENTATION ( #959, #1007 ) ;
#841 =( NAMED_UNIT ( * ) PLANE_ANGLE_UNIT ( ) SI_UNIT ( $, .RADIAN. ) );
#842 = SURFACE_STYLE_USAGE ( .BOTH. , #448 ) ;
#843 = PRESENTATION_STYLE_ASSIGNMENT (( #998 ) ) ;
#844 = ORIENTED_EDGE ( 'NONE', *, *, #10, .F. ) ;
#845 = FACE_OUTER_BOUND ( 'NONE', #540, .T. ) ;
#846 = SURFACE_SIDE_STYLE ('',( #257 ) ) ;
#847 = ORIENTED_EDGE ( 'NONE', *, *, #164, .F. ) ;
#848 = UNCERTAINTY_MEASURE_WITH_UNIT (LENGTH_MEASURE( 1.000000000000000082E-05 ), #237, 'distance_accuracy_value', 'NONE');
#849 = STYLED_ITEM ( 'NONE', ( #927 ), #56 ) ;
#850 =( GEOMETRIC_REPRESENTATION_CONTEXT ( 3 ) GLOBAL_UNCERTAINTY_ASSIGNED_CONTEXT ( ( #244 ) ) GLOBAL_UNIT_ASSIGNED_CONTEXT ( ( #781, #228, #937 ) ) REPRESENTATION_CONTEXT ( 'NONE', 'WORKASPACE' ) );
#851 = SURFACE_SIDE_STYLE ('',( #231 ) ) ;
#852 = CIRCLE ( 'NONE', #702, 5.437518987584765817 ) ;
#853 = ADVANCED_FACE ( 'NONE', ( #655 ), #429, .T. ) ;
#854 = AXIS2_PLACEMENT_3D ( 'NONE', #570, #80, #393 ) ;
#855 = FILL_AREA_STYLE ('',( #446 ) ) ;
#856 = STYLED_ITEM ( 'NONE', ( #215 ), #500 ) ;
#857 = MECHANICAL_DESIGN_GEOMETRIC_PRESENTATION_REPRESENTATION (  '', ( #759 ), #77 ) ;
#858 = CARTESIAN_POINT ( 'NONE',  ( 0.9968214519863044520, 0.000000000000000000, 0.000000000000000000 ) ) ;
#859 = ORIENTED_EDGE ( 'NONE', *, *, #532, .T. ) ;
#860 = DIRECTION ( 'NONE',  ( -1.000000000000000000, -0.000000000000000000, -0.000000000000000000 ) ) ;
#861 = DIRECTION ( 'NONE',  ( 0.7456662065614397816, -2.326442708608981349E-15, 0.6663196743247735698 ) ) ;
#862 = ORIENTED_EDGE ( 'NONE', *, *, #977, .F. ) ;
#863 = CARTESIAN_POINT ( 'NONE',  ( 1.949999999999999956, 0.2174999999999999989, 0.2174999999999999711 ) ) ;
#864 =( LENGTH_UNIT ( ) NAMED_UNIT ( * ) SI_UNIT ( .MILLI., .METRE. ) );
#865 = ORIENTED_EDGE ( 'NONE', *, *, #467, .T. ) ;
#866 = DIRECTION ( 'NONE',  ( 0.7456662065614397816, 0.6663196743247735698, 0.000000000000000000 ) ) ;
#867 = MECHANICAL_DESIGN_GEOMETRIC_PRESENTATION_REPRESENTATION (  '', ( #849 ), #90 ) ;
#868 = DIRECTION ( 'NONE',  ( -0.7456662065614397816, 0.6663196743247735698, 0.000000000000000000 ) ) ;
#869 = CIRCLE ( 'NONE', #413, 3.500000000000000000 ) ;
#870 = EDGE_CURVE ( 'NONE', #183, #336, #533, .T. ) ;
#871 = DIRECTION ( 'NONE',  ( 0.9938370308809506559, 0.000000000000000000, 0.1108510534444137469 ) ) ;
#872 = VECTOR ( 'NONE', #588, 1000.000000000000000 ) ;
#873 = CARTESIAN_POINT ( 'NONE',  ( 0.000000000000000000, 0.000000000000000000, 0.000000000000000000 ) ) ;
#874 = PRESENTATION_LAYER_ASSIGNMENT (  '', '', ( #759 ) ) ;
#875 = EDGE_LOOP ( 'NONE', ( #370, #55 ) ) ;
#876 = UNCERTAINTY_MEASURE_WITH_UNIT (LENGTH_MEASURE( 1.000000000000000082E-05 ), #511, 'distance_accuracy_value', 'NONE');
#877 = FILL_AREA_STYLE_COLOUR ( '', #594 ) ;
#878 =( LENGTH_UNIT ( ) NAMED_UNIT ( * ) SI_UNIT ( .MILLI., .METRE. ) );
#879 = APPLICATION_PROTOCOL_DEFINITION ( 'draft international standard', 'automotive_design', 1998, #723 ) ;
#880 = DIRECTION ( 'NONE',  ( 0.7456662065614396706, 0.6663196743247736809, 0.000000000000000000 ) ) ;
#881 = PRESENTATION_STYLE_ASSIGNMENT (( #642 ) ) ;
#882 = FILL_AREA_STYLE ('',( #957 ) ) ;
#883 =( NAMED_UNIT ( * ) PLANE_ANGLE_UNIT ( ) SI_UNIT ( $, .RADIAN. ) );
#884 = DIRECTION ( 'NONE',  ( 0.000000000000000000, 1.000000000000000000, 0.000000000000000000 ) ) ;
#885 = ORIENTED_EDGE ( 'NONE', *, *, #919, .T. ) ;
#886 = PRODUCT_RELATED_PRODUCT_CATEGORY ( 'part', '', ( #223 ) ) ;
#887 = MECHANICAL_DESIGN_GEOMETRIC_PRESENTATION_REPRESENTATION (  '', ( #755 ), #670 ) ;
#888 = CARTESIAN_POINT ( 'NONE',  ( 0.2553644383338094515, 1.731808957027352269, 0.000000000000000000 ) ) ;
#889 = PRESENTATION_LAYER_ASSIGNMENT (  '', '', ( #974 ) ) ;
#890 = CIRCLE ( 'NONE', #1021, 5.995482475482741158 ) ;
#891 = CIRCLE ( 'NONE', #725, 5.437518987584765817 ) ;
#892 =( NAMED_UNIT ( * ) SI_UNIT ( $, .STERADIAN. ) SOLID_ANGLE_UNIT ( ) );
#893 = ORIENTED_EDGE ( 'NONE', *, *, #633, .F. ) ;
#894 = CARTESIAN_POINT ( 'NONE',  ( -25.39999999999996305, 0.000000000000000000, 1.749999999999999778 ) ) ;
#895 = VERTEX_POINT ( 'NONE', #940 ) ;
#896 = LINE ( 'NONE', #894, #872 ) ;
#897 = EDGE_CURVE ( 'NONE', #183, #913, #358, .T. ) ;
#898 = SURFACE_SIDE_STYLE ('',( #587 ) ) ;
#899 = ORIENTED_EDGE ( 'NONE', *, *, #784, .T. ) ;
#900 = SURFACE_SIDE_STYLE ('',( #734 ) ) ;
#901 = FILL_AREA_STYLE ('',( #108 ) ) ;
#902 = AXIS2_PLACEMENT_3D ( 'NONE', #479, #316, #960 ) ;
#903 = STYLED_ITEM ( 'NONE', ( #41 ), #451 ) ;
#904 = CARTESIAN_POINT ( 'NONE',  ( 1.949999999999999956, 0.2174999999999999989, 0.2174999999999999711 ) ) ;
#905 = VERTEX_POINT ( 'NONE', #304 ) ;
#906 = PRESENTATION_LAYER_ASSIGNMENT (  '', '', ( #856 ) ) ;
#907 =( NAMED_UNIT ( * ) PLANE_ANGLE_UNIT ( ) SI_UNIT ( $, .RADIAN. ) );
#908 = MECHANICAL_DESIGN_GEOMETRIC_PRESENTATION_REPRESENTATION (  '', ( #64 ), #458 ) ;
#909 = CARTESIAN_POINT ( 'NONE',  ( 0.9968214519863044520, -3.311827956989247035, -4.055819506853600563E-16 ) ) ;
#910 = DIRECTION ( 'NONE',  ( 0.9938370308809507669, -0.1108510534444137746, 0.000000000000000000 ) ) ;
#911 =( LENGTH_UNIT ( ) NAMED_UNIT ( * ) SI_UNIT ( .MILLI., .METRE. ) );
#912 = DIRECTION ( 'NONE',  ( 0.000000000000000000, 0.000000000000000000, 1.000000000000000000 ) ) ;
#913 = VERTEX_POINT ( 'NONE', #153 ) ;
#914 = PRESENTATION_STYLE_ASSIGNMENT (( #824 ) ) ;
#915 =( NAMED_UNIT ( * ) SI_UNIT ( $, .STERADIAN. ) SOLID_ANGLE_UNIT ( ) );
#916 = DIRECTION ( 'NONE',  ( -1.000000000000000000, -0.000000000000000000, -0.000000000000000000 ) ) ;
#917 = ORIENTED_EDGE ( 'NONE', *, *, #164, .T. ) ;
#918 = ADVANCED_FACE ( 'NONE', ( #1015 ), #539, .F. ) ;
#919 = EDGE_CURVE ( 'NONE', #20, #603, #359, .T. ) ;
#920 = CARTESIAN_POINT ( 'NONE',  ( 1.347043950347263763, 3.771912141373848894E-16, -3.080000000000000515 ) ) ;
#921 = STYLED_ITEM ( 'NONE', ( #782 ), #155 ) ;
#922 = CARTESIAN_POINT ( 'NONE',  ( 0.9968214519863044520, 0.000000000000000000, 0.000000000000000000 ) ) ;
#923 =( NAMED_UNIT ( * ) PLANE_ANGLE_UNIT ( ) SI_UNIT ( $, .RADIAN. ) );
#924 =( GEOMETRIC_REPRESENTATION_CONTEXT ( 3 ) GLOBAL_UNCERTAINTY_ASSIGNED_CONTEXT ( ( #772 ) ) GLOBAL_UNIT_ASSIGNED_CONTEXT ( ( #211, #923, #143 ) ) REPRESENTATION_CONTEXT ( 'NONE', 'WORKASPACE' ) );
#925 = ORIENTED_EDGE ( 'NONE', *, *, #122, .T. ) ;
#926 = AXIS2_PLACEMENT_3D ( 'NONE', #252, #475, #791 ) ;
#927 = PRESENTATION_STYLE_ASSIGNMENT (( #524 ) ) ;
#928 = MECHANICAL_DESIGN_GEOMETRIC_PRESENTATION_REPRESENTATION (  '', ( #369 ), #416 ) ;
#929 = CIRCLE ( 'NONE', #418, 3.500000000000000444 ) ;
#930 = DIRECTION ( 'NONE',  ( -0.9938370308809506559, 0.000000000000000000, 0.1108510534444136914 ) ) ;
#931 = DIRECTION ( 'NONE',  ( 0.7431005017819711789, 0.6640269868487613802, -0.08288428673721975892 ) ) ;
#932 = CARTESIAN_POINT ( 'NONE',  ( 0.2553644383338094515, -1.731808957027352047, -2.120854295958262972E-16 ) ) ;
#933 = ORIENTED_EDGE ( 'NONE', *, *, #453, .T. ) ;
#934 = DIRECTION ( 'NONE',  ( 0.000000000000000000, 0.000000000000000000, -1.000000000000000000 ) ) ;
#935 = ADVANCED_FACE ( 'NONE', ( #845 ), #53, .T. ) ;
#936 = DIRECTION ( 'NONE',  ( -0.7456662065614397816, -2.326442708608981349E-15, 0.6663196743247735698 ) ) ;
#937 =( NAMED_UNIT ( * ) SI_UNIT ( $, .STERADIAN. ) SOLID_ANGLE_UNIT ( ) );
#938 = CARTESIAN_POINT ( 'NONE',  ( 2.599999999999998312, 0.000000000000000000, 0.000000000000000000 ) ) ;
#939 = EDGE_CURVE ( 'NONE', #765, #504, #796, .T. ) ;
#940 = CARTESIAN_POINT ( 'NONE',  ( 0.2666411873824114376, 0.4052592521765831513, -1.721732169736484019 ) ) ;
#941 = ORIENTED_EDGE ( 'NONE', *, *, #141, .F. ) ;
#942 = CIRCLE ( 'NONE', #634, 5.437518987584765817 ) ;
#943 = COLOUR_RGB ( '',0.7764705882352941346, 0.7568627450980391913, 0.7372549019607843590 ) ;
#944 = DIRECTION ( 'NONE',  ( -0.7456662065614396706, 0.000000000000000000, -0.6663196743247736809 ) ) ;
#945 =( GEOMETRIC_REPRESENTATION_CONTEXT ( 3 ) GLOBAL_UNCERTAINTY_ASSIGNED_CONTEXT ( ( #457 ) ) GLOBAL_UNIT_ASSIGNED_CONTEXT ( ( #428, #820, #24 ) ) REPRESENTATION_CONTEXT ( 'NONE', 'WORKASPACE' ) );
#946 = VECTOR ( 'NONE', #726, 1000.000000000000114 ) ;
#947 = FILL_AREA_STYLE_COLOUR ( '', #579 ) ;
#948 = CIRCLE ( 'NONE', #546, 1.749999999999999778 ) ;
#949 = PRESENTATION_LAYER_ASSIGNMENT (  '', '', ( #18 ) ) ;
#950 = SURFACE_STYLE_FILL_AREA ( #69 ) ;
#951 = SURFACE_STYLE_FILL_AREA ( #82 ) ;
#952 = SURFACE_STYLE_USAGE ( .BOTH. , #1025 ) ;
#953 = FILL_AREA_STYLE ('',( #947 ) ) ;
#954 = ORIENTED_EDGE ( 'NONE', *, *, #614, .T. ) ;
#955 = PLANE ( 'NONE',  #367 ) ;
#956 = EDGE_CURVE ( 'NONE', #360, #521, #929, .T. ) ;
#957 = FILL_AREA_STYLE_COLOUR ( '', #98 ) ;
#958 = CARTESIAN_POINT ( 'NONE',  ( 2.193400286944045430, -4.336808689942017736E-16, -0.1903515064562410486 ) ) ;
#959 = PRODUCT_DEFINITION_SHAPE ( 'NONE', 'NONE',  #196 ) ;
#960 = DIRECTION ( 'NONE',  ( 0.9938370308809507669, 0.000000000000000000, 0.1108510534444137746 ) ) ;
#961 = STYLED_ITEM ( 'NONE', ( #914 ), #62 ) ;
#962 = SURFACE_SIDE_STYLE ('',( #717 ) ) ;
#963 = PRESENTATION_LAYER_ASSIGNMENT (  '', '', ( #93 ) ) ;
#964 = PRESENTATION_LAYER_ASSIGNMENT (  '', '', ( #95 ) ) ;
#965 = AXIS2_PLACEMENT_3D ( 'NONE', #8, #571, #322 ) ;
#966 = SURFACE_STYLE_FILL_AREA ( #89 ) ;
#967 =( NAMED_UNIT ( * ) SI_UNIT ( $, .STERADIAN. ) SOLID_ANGLE_UNIT ( ) );
#968 = ORIENTED_EDGE ( 'NONE', *, *, #897, .T. ) ;
#969 = CYLINDRICAL_SURFACE ( 'NONE', #63, 1.749999999999999778 ) ;
#970 = FILL_AREA_STYLE ('',( #241 ) ) ;
#971 = DIRECTION ( 'NONE',  ( -0.000000000000000000, 0.000000000000000000, -1.000000000000000000 ) ) ;
#972 = LINE ( 'NONE', #197, #758 ) ;
#973 = CIRCLE ( 'NONE', #12, 5.995482475482740270 ) ;
#974 = STYLED_ITEM ( 'NONE', ( #7 ), #419 ) ;
#975 = AXIS2_PLACEMENT_3D ( 'NONE', #708, #156, #868 ) ;
#976 = MECHANICAL_DESIGN_GEOMETRIC_PRESENTATION_REPRESENTATION (  '', ( #18 ), #301 ) ;
#977 = EDGE_CURVE ( 'NONE', #989, #404, #672, .T. ) ;
#978 = APPLICATION_CONTEXT ( 'automotive_design' ) ;
#979 = EDGE_CURVE ( 'NONE', #497, #823, #948, .T. ) ;
#980 = DIRECTION ( 'NONE',  ( 0.7431005017819711789, -0.08288428673722218754, 0.6640269868487610472 ) ) ;
#981 = ORIENTED_EDGE ( 'NONE', *, *, #664, .T. ) ;
#982 = DIRECTION ( 'NONE',  ( 0.7431005017819711789, 0.6640269868487613802, 0.08288428673721986994 ) ) ;
#983 = SURFACE_SIDE_STYLE ('',( #744 ) ) ;
#984 = FILL_AREA_STYLE ('',( #291 ) ) ;
#985 = DIRECTION ( 'NONE',  ( 0.7431005017819711789, 0.08288428673722224305, -0.6640269868487610472 ) ) ;
#986 = PRESENTATION_LAYER_ASSIGNMENT (  '', '', ( #311 ) ) ;
#987 = STYLED_ITEM ( 'NONE', ( #172 ), #240 ) ;
#988 = PRESENTATION_STYLE_ASSIGNMENT (( #666 ) ) ;
#989 = VERTEX_POINT ( 'NONE', #331 ) ;
#990 = AXIS2_PLACEMENT_3D ( 'NONE', #111, #103, #414 ) ;
#991 = DIRECTION ( 'NONE',  ( -0.1108510534444137469, -0.9938370308809506559, -3.448999966305766196E-15 ) ) ;
#992 = STYLED_ITEM ( 'NONE', ( #548 ), #935 ) ;
#993 = SURFACE_SIDE_STYLE ('',( #29 ) ) ;
#994 = FILL_AREA_STYLE ('',( #586 ) ) ;
#995 = ORIENTED_EDGE ( 'NONE', *, *, #835, .T. ) ;
#996 = FILL_AREA_STYLE_COLOUR ( '', #74 ) ;
#997 = SURFACE_SIDE_STYLE ('',( #834 ) ) ;
#998 = SURFACE_STYLE_USAGE ( .BOTH. , #602 ) ;
#999 = EDGE_LOOP ( 'NONE', ( #243, #925, #536, #292 ) ) ;
#1000 =( GEOMETRIC_REPRESENTATION_CONTEXT ( 3 ) GLOBAL_UNCERTAINTY_ASSIGNED_CONTEXT ( ( #674 ) ) GLOBAL_UNIT_ASSIGNED_CONTEXT ( ( #127, #530, #839 ) ) REPRESENTATION_CONTEXT ( 'NONE', 'WORKASPACE' ) );
#1001 = DIRECTION ( 'NONE',  ( -0.9877866216249070463, -0.1101762001043161271, -0.1101762001043165851 ) ) ;
#1002 = COLOUR_RGB ( '',0.7764705882352941346, 0.7568627450980391913, 0.7372549019607843590 ) ;
#1003 = ORIENTED_EDGE ( 'NONE', *, *, #274, .F. ) ;
#1004 = CIRCLE ( 'NONE', #328, 3.500000000000000444 ) ;
#1005 = EDGE_CURVE ( 'NONE', #504, #905, #576, .T. ) ;
#1006 = STYLED_ITEM ( 'NONE', ( #665 ), #853 ) ;
#1007 = ADVANCED_BREP_SHAPE_REPRESENTATION ( 'M3.5 x 5 Screw head', ( #5, #303 ), #317 ) ;
#1008 = ORIENTED_EDGE ( 'NONE', *, *, #763, .T. ) ;
#1009 = FACE_OUTER_BOUND ( 'NONE', #409, .T. ) ;
#1010 = CARTESIAN_POINT ( 'NONE',  ( 1.949999999999999956, 0.2175000000000001377, 0.2174999999999999711 ) ) ;
#1011 = EDGE_CURVE ( 'NONE', #277, #360, #476, .T. ) ;
#1012 = DIRECTION ( 'NONE',  ( -1.000000000000000000, -0.000000000000000000, -0.000000000000000000 ) ) ;
#1013 = FILL_AREA_STYLE_COLOUR ( '', #28 ) ;
#1014 = LINE ( 'NONE', #466, #354 ) ;
#1015 = FACE_OUTER_BOUND ( 'NONE', #26, .T. ) ;
#1016 = ORIENTED_EDGE ( 'NONE', *, *, #766, .T. ) ;
#1017 = COLOUR_RGB ( '',0.7764705882352941346, 0.7568627450980391913, 0.7372549019607843590 ) ;
#1018 = COLOUR_RGB ( '',0.7764705882352941346, 0.7568627450980391913, 0.7372549019607843590 ) ;
#1019 = DIRECTION ( 'NONE',  ( 0.9877866216249069353, 0.1101762001043169042, -0.1101762001043164879 ) ) ;
#1020 = AXIS2_PLACEMENT_3D ( 'NONE', #920, #52, #518 ) ;
#1021 = AXIS2_PLACEMENT_3D ( 'NONE', #711, #236, #256 ) ;
#1022 =( NAMED_UNIT ( * ) PLANE_ANGLE_UNIT ( ) SI_UNIT ( $, .RADIAN. ) );
#1023 = PRESENTATION_LAYER_ASSIGNMENT (  '', '', ( #992 ) ) ;
#1024 = SURFACE_SIDE_STYLE ('',( #951 ) ) ;
#1025 = SURFACE_SIDE_STYLE ('',( #778 ) ) ;
ENDSEC;
END-ISO-10303-21;
