ISO-10303-21;
HEADER;
FILE_DESCRIPTION (( 'STEP AP214' ),
    '1' );
FILE_NAME ('M3.5 x 6 Screw head.STEP',
    '2023-03-28T04:21:42',
    ( '' ),
    ( '' ),
    'SwSTEP 2.0',
    'SolidWorks 2022',
    '' );
FILE_SCHEMA (( 'AUTOMOTIVE_DESIGN' ));
ENDSEC;

DATA;
#1 = DIRECTION ( 'NONE',  ( -1.000000000000000000, -0.000000000000000000, -0.000000000000000000 ) ) ;
#2 = ORIENTED_EDGE ( 'NONE', *, *, #294, .F. ) ;
#3 = FILL_AREA_STYLE_COLOUR ( '', #916 ) ;
#4 = DIRECTION ( 'NONE',  ( 0.000000000000000000, 1.000000000000000000, 6.231046968307495628E-17 ) ) ;
#5 = VERTEX_POINT ( 'NONE', #616 ) ;
#6 = DIRECTION ( 'NONE',  ( 0.7431005017819711789, -0.6640269868487613802, 0.08288428673721989770 ) ) ;
#7 = SURFACE_STYLE_FILL_AREA ( #229 ) ;
#8 = SHAPE_DEFINITION_REPRESENTATION ( #714, #271 ) ;
#9 = SURFACE_STYLE_USAGE ( .BOTH. , #454 ) ;
#10 = AXIS2_PLACEMENT_3D ( 'NONE', #74, #532, #605 ) ;
#11 = EDGE_CURVE ( 'NONE', #314, #440, #172, .T. ) ;
#12 = EDGE_LOOP ( 'NONE', ( #309, #1012, #156 ) ) ;
#13 = VECTOR ( 'NONE', #928, 999.9999999999998863 ) ;
#14 = CARTESIAN_POINT ( 'NONE',  ( 0.000000000000000000, 1.959999999999999964, -0.4350000000000000533 ) ) ;
#15 =( GEOMETRIC_REPRESENTATION_CONTEXT ( 3 ) GLOBAL_UNCERTAINTY_ASSIGNED_CONTEXT ( ( #289 ) ) GLOBAL_UNIT_ASSIGNED_CONTEXT ( ( #793, #873, #486 ) ) REPRESENTATION_CONTEXT ( 'NONE', 'WORKASPACE' ) );
#16 = DIRECTION ( 'NONE',  ( 0.000000000000000000, 0.000000000000000000, 1.000000000000000000 ) ) ;
#17 =( NAMED_UNIT ( * ) SI_UNIT ( $, .STERADIAN. ) SOLID_ANGLE_UNIT ( ) );
#18 = LINE ( 'NONE', #23, #912 ) ;
#19 = UNCERTAINTY_MEASURE_WITH_UNIT (LENGTH_MEASURE( 1.000000000000000082E-05 ), #913, 'distance_accuracy_value', 'NONE');
#20 = CARTESIAN_POINT ( 'NONE',  ( 1.949999999999999956, -0.2175000000000000266, -0.2174999999999999989 ) ) ;
#21 = DIRECTION ( 'NONE',  ( -0.1108510534444136914, 1.257808851980383614E-16, -0.9938370308809506559 ) ) ;
#22 = SURFACE_STYLE_FILL_AREA ( #711 ) ;
#23 = CARTESIAN_POINT ( 'NONE',  ( 0.000000000000000000, -1.959999999999999964, -0.4349999999999999978 ) ) ;
#24 = DIRECTION ( 'NONE',  ( -1.000000000000000000, -0.000000000000000000, -0.000000000000000000 ) ) ;
#25 =( NAMED_UNIT ( * ) PLANE_ANGLE_UNIT ( ) SI_UNIT ( $, .RADIAN. ) );
#26 = EDGE_CURVE ( 'NONE', #223, #167, #372, .T. ) ;
#27 = SURFACE_STYLE_FILL_AREA ( #975 ) ;
#28 = ADVANCED_FACE ( 'NONE', ( #797 ), #534, .F. ) ;
#29 =( LENGTH_UNIT ( ) NAMED_UNIT ( * ) SI_UNIT ( .MILLI., .METRE. ) );
#30 = PLANE ( 'NONE',  #433 ) ;
#31 = VECTOR ( 'NONE', #399, 1000.000000000000000 ) ;
#32 = CARTESIAN_POINT ( 'NONE',  ( 1.347043950347263763, 0.000000000000000000, 0.000000000000000000 ) ) ;
#33 = MECHANICAL_DESIGN_GEOMETRIC_PRESENTATION_REPRESENTATION (  '', ( #914 ), #527 ) ;
#34 = CIRCLE ( 'NONE', #83, 5.437518987584765817 ) ;
#35 = FACE_OUTER_BOUND ( 'NONE', #939, .T. ) ;
#36 = STYLED_ITEM ( 'NONE', ( #970 ), #1008 ) ;
#37 = CARTESIAN_POINT ( 'NONE',  ( 2.599999999999998312, 0.000000000000000000, 0.000000000000000000 ) ) ;
#38 = CYLINDRICAL_SURFACE ( 'NONE', #96, 1.749999999999999778 ) ;
#39 = FILL_AREA_STYLE_COLOUR ( '', #139 ) ;
#40 = PLANE ( 'NONE',  #144 ) ;
#41 = EDGE_CURVE ( 'NONE', #678, #437, #98, .T. ) ;
#42 = FILL_AREA_STYLE ('',( #347 ) ) ;
#43 = DIRECTION ( 'NONE',  ( 0.6663196743247736809, -2.603479645215216163E-15, 0.7456662065614397816 ) ) ;
#44 = PRESENTATION_STYLE_ASSIGNMENT (( #257 ) ) ;
#45 = FILL_AREA_STYLE_COLOUR ( '', #468 ) ;
#46 =( NAMED_UNIT ( * ) PLANE_ANGLE_UNIT ( ) SI_UNIT ( $, .RADIAN. ) );
#47 =( GEOMETRIC_REPRESENTATION_CONTEXT ( 3 ) GLOBAL_UNCERTAINTY_ASSIGNED_CONTEXT ( ( #588 ) ) GLOBAL_UNIT_ASSIGNED_CONTEXT ( ( #312, #635, #620 ) ) REPRESENTATION_CONTEXT ( 'NONE', 'WORKASPACE' ) );
#48 = FILL_AREA_STYLE ('',( #45 ) ) ;
#49 = MECHANICAL_DESIGN_GEOMETRIC_PRESENTATION_REPRESENTATION (  '', ( #273 ), #776 ) ;
#50 = AXIS2_PLACEMENT_3D ( 'NONE', #859, #152, #1022 ) ;
#51 = PRESENTATION_LAYER_ASSIGNMENT (  '', '', ( #274 ) ) ;
#52 = FACE_OUTER_BOUND ( 'NONE', #841, .T. ) ;
#53 = PRESENTATION_STYLE_ASSIGNMENT (( #375 ) ) ;
#54 = DIRECTION ( 'NONE',  ( 0.000000000000000000, -1.000000000000000000, -1.246209393661499126E-16 ) ) ;
#55 = ORIENTED_EDGE ( 'NONE', *, *, #812, .T. ) ;
#56 =( LENGTH_UNIT ( ) NAMED_UNIT ( * ) SI_UNIT ( .MILLI., .METRE. ) );
#57 = CARTESIAN_POINT ( 'NONE',  ( -25.39999999999996305, 0.000000000000000000, 0.000000000000000000 ) ) ;
#58 = VERTEX_POINT ( 'NONE', #785 ) ;
#59 =( NAMED_UNIT ( * ) SI_UNIT ( $, .STERADIAN. ) SOLID_ANGLE_UNIT ( ) );
#60 = ORIENTED_EDGE ( 'NONE', *, *, #507, .T. ) ;
#61 = AXIS2_PLACEMENT_3D ( 'NONE', #160, #957, #773 ) ;
#62 = COLOUR_RGB ( '',0.7764705882352941346, 0.7568627450980391913, 0.7372549019607843590 ) ;
#63 = CIRCLE ( 'NONE', #709, 5.995482475482740270 ) ;
#64 = MECHANICAL_DESIGN_GEOMETRIC_PRESENTATION_REPRESENTATION (  '', ( #306 ), #577 ) ;
#65 = DIRECTION ( 'NONE',  ( -0.1108510534444137469, 2.096348086633972484E-17, 0.9938370308809506559 ) ) ;
#66 = AXIS2_PLACEMENT_3D ( 'NONE', #393, #469, #548 ) ;
#67 = VERTEX_POINT ( 'NONE', #246 ) ;
#68 = SURFACE_STYLE_USAGE ( .BOTH. , #613 ) ;
#69 = PRESENTATION_STYLE_ASSIGNMENT (( #783 ) ) ;
#70 = EDGE_LOOP ( 'NONE', ( #684, #949 ) ) ;
#71 = EDGE_LOOP ( 'NONE', ( #131, #763, #699, #470, #597 ) ) ;
#72 = CYLINDRICAL_SURFACE ( 'NONE', #398, 1.749999999999999778 ) ;
#73 = FILL_AREA_STYLE ('',( #458 ) ) ;
#74 = CARTESIAN_POINT ( 'NONE',  ( 2.193400286944045430, -0.1903515064562409931, -2.309278636184418912E-16 ) ) ;
#75 = ORIENTED_EDGE ( 'NONE', *, *, #822, .T. ) ;
#76 = CARTESIAN_POINT ( 'NONE',  ( 2.599999999999998312, 0.000000000000000000, 0.000000000000000000 ) ) ;
#77 = EDGE_CURVE ( 'NONE', #664, #440, #93, .T. ) ;
#78 = ORIENTED_EDGE ( 'NONE', *, *, #822, .F. ) ;
#79 = CARTESIAN_POINT ( 'NONE',  ( 2.193400286944045430, 4.336808689942017736E-16, 0.1903515064562409931 ) ) ;
#80 =( GEOMETRIC_REPRESENTATION_CONTEXT ( 3 ) GLOBAL_UNCERTAINTY_ASSIGNED_CONTEXT ( ( #766 ) ) GLOBAL_UNIT_ASSIGNED_CONTEXT ( ( #206, #46, #367 ) ) REPRESENTATION_CONTEXT ( 'NONE', 'WORKASPACE' ) );
#81 = AXIS2_PLACEMENT_3D ( 'NONE', #726, #421, #803 ) ;
#82 = DIRECTION ( 'NONE',  ( -0.1108510534444137469, 2.096348086633972484E-17, 0.9938370308809506559 ) ) ;
#83 = AXIS2_PLACEMENT_3D ( 'NONE', #133, #43, #438 ) ;
#84 = CIRCLE ( 'NONE', #934, 5.995482475482741158 ) ;
#85 =( LENGTH_UNIT ( ) NAMED_UNIT ( * ) SI_UNIT ( .MILLI., .METRE. ) );
#86 = CARTESIAN_POINT ( 'NONE',  ( 1.949999999999999956, 0.2175000000000007483, -0.2174999999999992772 ) ) ;
#87 = VERTEX_POINT ( 'NONE', #146 ) ;
#88 = ADVANCED_FACE ( 'NONE', ( #449 ), #824, .T. ) ;
#89 = DIRECTION ( 'NONE',  ( 0.000000000000000000, 0.000000000000000000, 1.000000000000000000 ) ) ;
#90 = FACE_OUTER_BOUND ( 'NONE', #136, .T. ) ;
#91 = UNCERTAINTY_MEASURE_WITH_UNIT (LENGTH_MEASURE( 1.000000000000000082E-05 ), #490, 'distance_accuracy_value', 'NONE');
#92 = ORIENTED_EDGE ( 'NONE', *, *, #175, .T. ) ;
#93 = LINE ( 'NONE', #600, #832 ) ;
#94 = SURFACE_STYLE_FILL_AREA ( #780 ) ;
#95 = FACE_OUTER_BOUND ( 'NONE', #12, .T. ) ;
#96 = AXIS2_PLACEMENT_3D ( 'NONE', #57, #754, #990 ) ;
#97 = VECTOR ( 'NONE', #447, 1000.000000000000000 ) ;
#98 = CIRCLE ( 'NONE', #205, 1.749999999999999778 ) ;
#99 = FILL_AREA_STYLE_COLOUR ( '', #887 ) ;
#100 = CARTESIAN_POINT ( 'NONE',  ( 2.599999999999998312, 4.286263797015736595E-16, -3.500000000000000000 ) ) ;
#101 = EDGE_CURVE ( 'NONE', #591, #440, #880, .T. ) ;
#102 = FACE_OUTER_BOUND ( 'NONE', #366, .T. ) ;
#103 = EDGE_CURVE ( 'NONE', #451, #318, #542, .T. ) ;
#104 =( NAMED_UNIT ( * ) PLANE_ANGLE_UNIT ( ) SI_UNIT ( $, .RADIAN. ) );
#105 = FILL_AREA_STYLE_COLOUR ( '', #261 ) ;
#106 =( NAMED_UNIT ( * ) PLANE_ANGLE_UNIT ( ) SI_UNIT ( $, .RADIAN. ) );
#107 = EDGE_CURVE ( 'NONE', #851, #167, #779, .T. ) ;
#108 = SURFACE_STYLE_FILL_AREA ( #190 ) ;
#109 = CARTESIAN_POINT ( 'NONE',  ( 4.309938594911940868, -6.606512545546451519E-15, 1.891316923914901693 ) ) ;
#110 =( GEOMETRIC_REPRESENTATION_CONTEXT ( 3 ) GLOBAL_UNCERTAINTY_ASSIGNED_CONTEXT ( ( #704 ) ) GLOBAL_UNIT_ASSIGNED_CONTEXT ( ( #567, #106, #423 ) ) REPRESENTATION_CONTEXT ( 'NONE', 'WORKASPACE' ) );
#111 = DIRECTION ( 'NONE',  ( -1.000000000000000000, -0.000000000000000000, -0.000000000000000000 ) ) ;
#112 =( GEOMETRIC_REPRESENTATION_CONTEXT ( 3 ) GLOBAL_UNCERTAINTY_ASSIGNED_CONTEXT ( ( #127 ) ) GLOBAL_UNIT_ASSIGNED_CONTEXT ( ( #56, #364, #993 ) ) REPRESENTATION_CONTEXT ( 'NONE', 'WORKASPACE' ) );
#113 = FACE_OUTER_BOUND ( 'NONE', #997, .T. ) ;
#114 = SURFACE_SIDE_STYLE ('',( #348 ) ) ;
#115 =( NAMED_UNIT ( * ) SI_UNIT ( $, .STERADIAN. ) SOLID_ANGLE_UNIT ( ) );
#116 = EDGE_CURVE ( 'NONE', #757, #295, #952, .T. ) ;
#117 = FILL_AREA_STYLE ('',( #746 ) ) ;
#118 = CARTESIAN_POINT ( 'NONE',  ( 2.193400286944045430, -0.1903515064562409931, -2.309278636184418912E-16 ) ) ;
#119 =( LENGTH_UNIT ( ) NAMED_UNIT ( * ) SI_UNIT ( .MILLI., .METRE. ) );
#120 = ORIENTED_EDGE ( 'NONE', *, *, #801, .F. ) ;
#121 = CIRCLE ( 'NONE', #200, 5.437518987584764929 ) ;
#122 =( GEOMETRIC_REPRESENTATION_CONTEXT ( 3 ) GLOBAL_UNCERTAINTY_ASSIGNED_CONTEXT ( ( #519 ) ) GLOBAL_UNIT_ASSIGNED_CONTEXT ( ( #85, #936, #700 ) ) REPRESENTATION_CONTEXT ( 'NONE', 'WORKASPACE' ) );
#123 = ORIENTED_EDGE ( 'NONE', *, *, #455, .T. ) ;
#124 = MECHANICAL_DESIGN_GEOMETRIC_PRESENTATION_REPRESENTATION (  '', ( #828 ), #159 ) ;
#125 = AXIS2_PLACEMENT_3D ( 'NONE', #522, #288, #130 ) ;
#126 = CIRCLE ( 'NONE', #531, 3.500000000000000000 ) ;
#127 = UNCERTAINTY_MEASURE_WITH_UNIT (LENGTH_MEASURE( 1.000000000000000082E-05 ), #56, 'distance_accuracy_value', 'NONE');
#128 = DIRECTION ( 'NONE',  ( -1.000000000000000000, -0.000000000000000000, -0.000000000000000000 ) ) ;
#129 = ORIENTED_EDGE ( 'NONE', *, *, #244, .T. ) ;
#130 = DIRECTION ( 'NONE',  ( 0.000000000000000000, 0.000000000000000000, 1.000000000000000000 ) ) ;
#131 = ORIENTED_EDGE ( 'NONE', *, *, #530, .T. ) ;
#132 = ORIENTED_EDGE ( 'NONE', *, *, #269, .F. ) ;
#133 = CARTESIAN_POINT ( 'NONE',  ( 4.309938594911940868, 6.836180637525074799E-15, -1.891316923914901693 ) ) ;
#134 = DIRECTION ( 'NONE',  ( 0.000000000000000000, 1.000000000000000000, 0.000000000000000000 ) ) ;
#135 = ORIENTED_EDGE ( 'NONE', *, *, #101, .F. ) ;
#136 = EDGE_LOOP ( 'NONE', ( #145, #743, #1014, #363 ) ) ;
#137 = AXIS2_PLACEMENT_3D ( 'NONE', #666, #843, #751 ) ;
#138 = PRESENTATION_LAYER_ASSIGNMENT (  '', '', ( #355 ) ) ;
#139 = COLOUR_RGB ( '',0.7764705882352941346, 0.7568627450980391913, 0.7372549019607843590 ) ;
#140 =( GEOMETRIC_REPRESENTATION_CONTEXT ( 3 ) GLOBAL_UNCERTAINTY_ASSIGNED_CONTEXT ( ( #208 ) ) GLOBAL_UNIT_ASSIGNED_CONTEXT ( ( #865, #637, #933 ) ) REPRESENTATION_CONTEXT ( 'NONE', 'WORKASPACE' ) );
#141 = DIRECTION ( 'NONE',  ( 0.9938370308809507669, 0.000000000000000000, 0.1108510534444137746 ) ) ;
#142 = SURFACE_STYLE_FILL_AREA ( #232 ) ;
#143 = VECTOR ( 'NONE', #772, 1000.000000000000000 ) ;
#144 = AXIS2_PLACEMENT_3D ( 'NONE', #79, #21, #878 ) ;
#145 = ORIENTED_EDGE ( 'NONE', *, *, #805, .T. ) ;
#146 = CARTESIAN_POINT ( 'NONE',  ( 0.2666411873824114376, -0.4052592521765708278, -1.721732169736487128 ) ) ;
#147 = ORIENTED_EDGE ( 'NONE', *, *, #11, .F. ) ;
#148 = SURFACE_STYLE_FILL_AREA ( #73 ) ;
#149 = CARTESIAN_POINT ( 'NONE',  ( 4.309938594911940868, -1.891316923914901471, 0.000000000000000000 ) ) ;
#150 = ORIENTED_EDGE ( 'NONE', *, *, #107, .T. ) ;
#151 = SURFACE_STYLE_USAGE ( .BOTH. , #622 ) ;
#152 = DIRECTION ( 'NONE',  ( 0.6663196743247735698, 0.7456662065614397816, 0.000000000000000000 ) ) ;
#153 = SURFACE_STYLE_USAGE ( .BOTH. , #484 ) ;
#154 = CARTESIAN_POINT ( 'NONE',  ( 0.000000000000000000, 1.959999999999999964, 0.4350000000000001088 ) ) ;
#155 = DIRECTION ( 'NONE',  ( -0.7456662065614397816, -2.326442708608981349E-15, 0.6663196743247735698 ) ) ;
#156 = ORIENTED_EDGE ( 'NONE', *, *, #77, .F. ) ;
#157 = DIRECTION ( 'NONE',  ( -1.000000000000000000, -0.000000000000000000, -0.000000000000000000 ) ) ;
#158 =( GEOMETRIC_REPRESENTATION_CONTEXT ( 3 ) GLOBAL_UNCERTAINTY_ASSIGNED_CONTEXT ( ( #747 ) ) GLOBAL_UNIT_ASSIGNED_CONTEXT ( ( #351, #719, #518 ) ) REPRESENTATION_CONTEXT ( 'NONE', 'WORKASPACE' ) );
#159 =( GEOMETRIC_REPRESENTATION_CONTEXT ( 3 ) GLOBAL_UNCERTAINTY_ASSIGNED_CONTEXT ( ( #1018 ) ) GLOBAL_UNIT_ASSIGNED_CONTEXT ( ( #885, #807, #722 ) ) REPRESENTATION_CONTEXT ( 'NONE', 'WORKASPACE' ) );
#160 = CARTESIAN_POINT ( 'NONE',  ( 0.9968214519863044520, 0.000000000000000000, 0.000000000000000000 ) ) ;
#161 = AXIS2_PLACEMENT_3D ( 'NONE', #685, #920, #1006 ) ;
#162 = ORIENTED_EDGE ( 'NONE', *, *, #194, .T. ) ;
#163 = MECHANICAL_DESIGN_GEOMETRIC_PRESENTATION_REPRESENTATION (  '', ( #36 ), #833 ) ;
#164 = DIRECTION ( 'NONE',  ( 0.7431005017819711789, 0.08288428673722224305, -0.6640269868487610472 ) ) ;
#165 = LINE ( 'NONE', #169, #143 ) ;
#166 = DIRECTION ( 'NONE',  ( 0.6663196743247736809, 0.7456662065614397816, 0.000000000000000000 ) ) ;
#167 = VERTEX_POINT ( 'NONE', #178 ) ;
#168 = SURFACE_SIDE_STYLE ('',( #551 ) ) ;
#169 = CARTESIAN_POINT ( 'NONE',  ( 0.000000000000000000, 0.4350000000000068257, -1.959999999999998188 ) ) ;
#170 = CARTESIAN_POINT ( 'NONE',  ( -25.39999999999996305, 0.000000000000000000, 0.000000000000000000 ) ) ;
#171 = FACE_OUTER_BOUND ( 'NONE', #1009, .T. ) ;
#172 = LINE ( 'NONE', #14, #176 ) ;
#173 =( LENGTH_UNIT ( ) NAMED_UNIT ( * ) SI_UNIT ( .MILLI., .METRE. ) );
#174 = DIRECTION ( 'NONE',  ( 0.000000000000000000, 0.000000000000000000, 1.000000000000000000 ) ) ;
#175 = EDGE_CURVE ( 'NONE', #87, #390, #810, .T. ) ;
#176 = VECTOR ( 'NONE', #6, 1000.000000000000000 ) ;
#177 = MECHANICAL_DESIGN_GEOMETRIC_PRESENTATION_REPRESENTATION (  '', ( #796 ), #431 ) ;
#178 = CARTESIAN_POINT ( 'NONE',  ( 0.2666411873824114376, 1.721732169736485352, 0.4052592521765772671 ) ) ;
#179 = AXIS2_PLACEMENT_3D ( 'NONE', #968, #111, #963 ) ;
#180 =( LENGTH_UNIT ( ) NAMED_UNIT ( * ) SI_UNIT ( .MILLI., .METRE. ) );
#181 = STYLED_ITEM ( 'NONE', ( #342 ), #721 ) ;
#182 = CIRCLE ( 'NONE', #871, 5.437518987584765817 ) ;
#183 = MECHANICAL_DESIGN_GEOMETRIC_PRESENTATION_REPRESENTATION (  '', ( #817 ), #308 ) ;
#184 = PLANE ( 'NONE',  #243 ) ;
#185 = EDGE_CURVE ( 'NONE', #664, #1019, #483, .T. ) ;
#186 = SURFACE_STYLE_USAGE ( .BOTH. , #713 ) ;
#187 = PLANE ( 'NONE',  #326 ) ;
#188 = CARTESIAN_POINT ( 'NONE',  ( 1.949999999999999956, -0.2175000000000000266, -0.2174999999999999711 ) ) ;
#189 = CARTESIAN_POINT ( 'NONE',  ( 1.347043950347265318, 0.000000000000000000, 0.000000000000000000 ) ) ;
#190 = FILL_AREA_STYLE ('',( #350 ) ) ;
#191 = DIRECTION ( 'NONE',  ( -0.000000000000000000, 1.000000000000000000, 1.224646799147353207E-16 ) ) ;
#192 = PRESENTATION_LAYER_ASSIGNMENT (  '', '', ( #706 ) ) ;
#193 = AXIS2_PLACEMENT_3D ( 'NONE', #76, #157, #462 ) ;
#194 = EDGE_CURVE ( 'NONE', #281, #67, #756, .T. ) ;
#195 = SURFACE_SIDE_STYLE ('',( #979 ) ) ;
#196 = CARTESIAN_POINT ( 'NONE',  ( 0.000000000000000000, -0.4349999999999927813, -1.960000000000001741 ) ) ;
#197 = DIRECTION ( 'NONE',  ( -1.000000000000000000, -0.000000000000000000, -0.000000000000000000 ) ) ;
#198 = EDGE_CURVE ( 'NONE', #215, #477, #302, .T. ) ;
#199 = SURFACE_STYLE_FILL_AREA ( #117 ) ;
#200 = AXIS2_PLACEMENT_3D ( 'NONE', #624, #317, #946 ) ;
#201 = MECHANICAL_DESIGN_GEOMETRIC_PRESENTATION_REPRESENTATION (  '', ( #560 ), #629 ) ;
#202 = EDGE_LOOP ( 'NONE', ( #857, #55, #396, #615, #775 ) ) ;
#203 = COLOUR_RGB ( '',0.7764705882352941346, 0.7568627450980391913, 0.7372549019607843590 ) ;
#204 =( GEOMETRIC_REPRESENTATION_CONTEXT ( 3 ) GLOBAL_UNCERTAINTY_ASSIGNED_CONTEXT ( ( #365 ) ) GLOBAL_UNIT_ASSIGNED_CONTEXT ( ( #782, #634, #17 ) ) REPRESENTATION_CONTEXT ( 'NONE', 'WORKASPACE' ) );
#205 = AXIS2_PLACEMENT_3D ( 'NONE', #777, #628, #235 ) ;
#206 =( LENGTH_UNIT ( ) NAMED_UNIT ( * ) SI_UNIT ( .MILLI., .METRE. ) );
#207 = EDGE_CURVE ( 'NONE', #591, #851, #414, .T. ) ;
#208 = UNCERTAINTY_MEASURE_WITH_UNIT (LENGTH_MEASURE( 1.000000000000000082E-05 ), #865, 'distance_accuracy_value', 'NONE');
#209 = ORIENTED_EDGE ( 'NONE', *, *, #422, .T. ) ;
#210 = LINE ( 'NONE', #765, #13 ) ;
#211 = EDGE_CURVE ( 'NONE', #390, #318, #965, .T. ) ;
#212 = CARTESIAN_POINT ( 'NONE',  ( 2.599999999999998312, 2.143131898507868051E-16, -1.749999999999999778 ) ) ;
#213 = PRODUCT_DEFINITION_CONTEXT ( 'detailed design', #349, 'design' ) ;
#214 = ORIENTED_EDGE ( 'NONE', *, *, #492, .T. ) ;
#215 = VERTEX_POINT ( 'NONE', #256 ) ;
#216 = CIRCLE ( 'NONE', #283, 0.4199999999999998179 ) ;
#217 = EDGE_CURVE ( 'NONE', #67, #461, #357, .T. ) ;
#218 = MECHANICAL_DESIGN_GEOMETRIC_PRESENTATION_REPRESENTATION (  '', ( #432 ), #870 ) ;
#219 = DIRECTION ( 'NONE',  ( 0.7431005017819711789, -0.6640269868487613802, -0.08288428673721992546 ) ) ;
#220 = CARTESIAN_POINT ( 'NONE',  ( 1.949999999999999956, -0.2175000000000007205, 0.2174999999999993883 ) ) ;
#221 = MECHANICAL_DESIGN_GEOMETRIC_PRESENTATION_REPRESENTATION (  '', ( #274 ), #15 ) ;
#222 = EDGE_LOOP ( 'NONE', ( #290, #506, #448, #444 ) ) ;
#223 = VERTEX_POINT ( 'NONE', #262 ) ;
#224 = CARTESIAN_POINT ( 'NONE',  ( -25.39999999999996305, 0.000000000000000000, 0.000000000000000000 ) ) ;
#225 = CARTESIAN_POINT ( 'NONE',  ( 8.600000000000003197, 0.000000000000000000, 1.749999999999999778 ) ) ;
#226 = UNCERTAINTY_MEASURE_WITH_UNIT (LENGTH_MEASURE( 1.000000000000000082E-05 ), #180, 'distance_accuracy_value', 'NONE');
#227 = ORIENTED_EDGE ( 'NONE', *, *, #892, .T. ) ;
#228 = FILL_AREA_STYLE_COLOUR ( '', #631 ) ;
#229 = FILL_AREA_STYLE ('',( #473 ) ) ;
#230 =( LENGTH_UNIT ( ) NAMED_UNIT ( * ) SI_UNIT ( .MILLI., .METRE. ) );
#231 = DIRECTION ( 'NONE',  ( -0.1108510534444137469, -0.9938370308809506559, -3.448999966305766196E-15 ) ) ;
#232 = FILL_AREA_STYLE ('',( #849 ) ) ;
#233 = ORIENTED_EDGE ( 'NONE', *, *, #198, .F. ) ;
#234 = DIRECTION ( 'NONE',  ( -0.9938370308809506559, 0.000000000000000000, 0.1108510534444136914 ) ) ;
#235 = DIRECTION ( 'NONE',  ( 0.000000000000000000, 0.000000000000000000, 1.000000000000000000 ) ) ;
#236 = SURFACE_STYLE_USAGE ( .BOTH. , #770 ) ;
#237 = COLOUR_RGB ( '',0.7764705882352941346, 0.7568627450980391913, 0.7372549019607843590 ) ;
#238 = DIRECTION ( 'NONE',  ( 0.9938370308809506559, -0.1108510534444137469, -3.870343844922734420E-16 ) ) ;
#239 = CIRCLE ( 'NONE', #179, 3.311827956989247479 ) ;
#240 = PRESENTATION_LAYER_ASSIGNMENT (  '', '', ( #181 ) ) ;
#241 = STYLED_ITEM ( 'NONE', ( #409 ), #258 ) ;
#242 = EDGE_LOOP ( 'NONE', ( #835, #533 ) ) ;
#243 = AXIS2_PLACEMENT_3D ( 'NONE', #956, #231, #238 ) ;
#244 = EDGE_CURVE ( 'NONE', #87, #1019, #182, .T. ) ;
#245 = APPLICATION_CONTEXT ( 'automotive_design' ) ;
#246 = CARTESIAN_POINT ( 'NONE',  ( 1.347043950347265318, 4.286263797015737088E-16, -3.500000000000000444 ) ) ;
#247 = FACE_OUTER_BOUND ( 'NONE', #71, .T. ) ;
#248 = CARTESIAN_POINT ( 'NONE',  ( 2.193400286944045430, 4.336808689942017736E-16, 0.1903515064562409931 ) ) ;
#249 = SURFACE_SIDE_STYLE ('',( #802 ) ) ;
#250 = ADVANCED_FACE ( 'NONE', ( #113 ), #30, .T. ) ;
#251 = CARTESIAN_POINT ( 'NONE',  ( 1.949999999999999956, 0.2175000000000001377, 0.2174999999999999711 ) ) ;
#252 = PRESENTATION_STYLE_ASSIGNMENT (( #153 ) ) ;
#253 = PRESENTATION_STYLE_ASSIGNMENT (( #879 ) ) ;
#254 = SURFACE_STYLE_USAGE ( .BOTH. , #264 ) ;
#255 = UNCERTAINTY_MEASURE_WITH_UNIT (LENGTH_MEASURE( 1.000000000000000082E-05 ), #809, 'distance_accuracy_value', 'NONE');
#256 = CARTESIAN_POINT ( 'NONE',  ( 0.9968214519863044520, -3.311827956989247035, -4.055819506853600563E-16 ) ) ;
#257 = SURFACE_STYLE_USAGE ( .BOTH. , #114 ) ;
#258 = ADVANCED_FACE ( 'NONE', ( #102 ), #38, .T. ) ;
#259 = DIRECTION ( 'NONE',  ( 0.6663196743247735698, -0.7456662065614397816, -9.292562311528023527E-17 ) ) ;
#260 = CIRCLE ( 'NONE', #61, 3.311827956989247479 ) ;
#261 = COLOUR_RGB ( '',0.7764705882352941346, 0.7568627450980391913, 0.7372549019607843590 ) ;
#262 = CARTESIAN_POINT ( 'NONE',  ( 0.2553644383338094515, 1.731808957027352269, 0.000000000000000000 ) ) ;
#263 = STYLED_ITEM ( 'NONE', ( #377 ), #897 ) ;
#264 = SURFACE_SIDE_STYLE ('',( #413 ) ) ;
#265 = DIRECTION ( 'NONE',  ( -0.1108510534444137469, 2.096348086633972484E-17, 0.9938370308809506559 ) ) ;
#266 = SURFACE_SIDE_STYLE ('',( #27 ) ) ;
#267 =( NAMED_UNIT ( * ) PLANE_ANGLE_UNIT ( ) SI_UNIT ( $, .RADIAN. ) );
#268 = CARTESIAN_POINT ( 'NONE',  ( 1.347043950347263763, 3.771912141373848894E-16, -3.080000000000000515 ) ) ;
#269 = EDGE_CURVE ( 'NONE', #281, #5, #216, .T. ) ;
#270 = DIRECTION ( 'NONE',  ( 0.7456662065614397816, -2.326442708608981349E-15, 0.6663196743247735698 ) ) ;
#271 = ADVANCED_BREP_SHAPE_REPRESENTATION ( 'M3.5 x 6 Screw head', ( #698, #592 ), #404 ) ;
#272 = DIRECTION ( 'NONE',  ( -0.1108510534444137469, -0.9938370308809506559, -3.448999966305766196E-15 ) ) ;
#273 = STYLED_ITEM ( 'NONE', ( #627 ), #702 ) ;
#274 = STYLED_ITEM ( 'NONE', ( #253 ), #900 ) ;
#275 = AXIS2_PLACEMENT_3D ( 'NONE', #954, #781, #16 ) ;
#276 = FILL_AREA_STYLE_COLOUR ( '', #511 ) ;
#277 = DIRECTION ( 'NONE',  ( 0.000000000000000000, 0.000000000000000000, -1.000000000000000000 ) ) ;
#278 = ORIENTED_EDGE ( 'NONE', *, *, #558, .F. ) ;
#279 = EDGE_CURVE ( 'NONE', #672, #451, #848, .T. ) ;
#280 =( LENGTH_UNIT ( ) NAMED_UNIT ( * ) SI_UNIT ( .MILLI., .METRE. ) );
#281 = VERTEX_POINT ( 'NONE', #1007 ) ;
#282 = FILL_AREA_STYLE_COLOUR ( '', #443 ) ;
#283 = AXIS2_PLACEMENT_3D ( 'NONE', #436, #426, #277 ) ;
#284 = COLOUR_RGB ( '',0.7764705882352941346, 0.7568627450980391913, 0.7372549019607843590 ) ;
#285 = EDGE_LOOP ( 'NONE', ( #680, #135, #299, #688, #636 ) ) ;
#286 = PRESENTATION_LAYER_ASSIGNMENT (  '', '', ( #899 ) ) ;
#287 = ADVANCED_FACE ( 'NONE', ( #52 ), #671, .T. ) ;
#288 = DIRECTION ( 'NONE',  ( -1.000000000000000000, -0.000000000000000000, -0.000000000000000000 ) ) ;
#289 = UNCERTAINTY_MEASURE_WITH_UNIT (LENGTH_MEASURE( 1.000000000000000082E-05 ), #793, 'distance_accuracy_value', 'NONE');
#290 = ORIENTED_EDGE ( 'NONE', *, *, #655, .T. ) ;
#291 = ORIENTED_EDGE ( 'NONE', *, *, #207, .F. ) ;
#292 = CARTESIAN_POINT ( 'NONE',  ( 5.974195292295553905, 2.375629221075779134E-16, 0.2313525518329657416 ) ) ;
#293 = SURFACE_SIDE_STYLE ('',( #586 ) ) ;
#294 = EDGE_CURVE ( 'NONE', #591, #318, #523, .T. ) ;
#295 = VERTEX_POINT ( 'NONE', #823 ) ;
#296 = DIRECTION ( 'NONE',  ( -1.000000000000000000, 0.000000000000000000, 0.000000000000000000 ) ) ;
#297 = CARTESIAN_POINT ( 'NONE',  ( 0.2666411873824114376, -0.4052592521765831513, 1.721732169736483131 ) ) ;
#298 = UNCERTAINTY_MEASURE_WITH_UNIT (LENGTH_MEASURE( 1.000000000000000082E-05 ), #173, 'distance_accuracy_value', 'NONE');
#299 = ORIENTED_EDGE ( 'NONE', *, *, #883, .F. ) ;
#300 = DIRECTION ( 'NONE',  ( -0.1108510534444136914, 1.257808851980383614E-16, -0.9938370308809506559 ) ) ;
#301 =( NAMED_UNIT ( * ) SI_UNIT ( $, .STERADIAN. ) SOLID_ANGLE_UNIT ( ) );
#302 = CIRCLE ( 'NONE', #323, 6.000000000000000000 ) ;
#303 = ORIENTED_EDGE ( 'NONE', *, *, #492, .F. ) ;
#304 = CIRCLE ( 'NONE', #850, 5.995482475482741158 ) ;
#305 = AXIS2_PLACEMENT_3D ( 'NONE', #974, #638, #958 ) ;
#306 = STYLED_ITEM ( 'NONE', ( #478 ), #28 ) ;
#307 = CARTESIAN_POINT ( 'NONE',  ( 0.2666411873824114376, 0.4052592521765713274, 1.721732169736487794 ) ) ;
#308 =( GEOMETRIC_REPRESENTATION_CONTEXT ( 3 ) GLOBAL_UNCERTAINTY_ASSIGNED_CONTEXT ( ( #91 ) ) GLOBAL_UNIT_ASSIGNED_CONTEXT ( ( #490, #267, #115 ) ) REPRESENTATION_CONTEXT ( 'NONE', 'WORKASPACE' ) );
#309 = ORIENTED_EDGE ( 'NONE', *, *, #185, .T. ) ;
#310 = DIRECTION ( 'NONE',  ( 0.000000000000000000, 0.000000000000000000, 1.000000000000000000 ) ) ;
#311 = DIRECTION ( 'NONE',  ( -0.9938370308809507669, 0.000000000000000000, 0.1108510534444137052 ) ) ;
#312 =( LENGTH_UNIT ( ) NAMED_UNIT ( * ) SI_UNIT ( .MILLI., .METRE. ) );
#313 =( LENGTH_UNIT ( ) NAMED_UNIT ( * ) SI_UNIT ( .MILLI., .METRE. ) );
#314 = VERTEX_POINT ( 'NONE', #830 ) ;
#315 = SPHERICAL_SURFACE ( 'NONE', #800, 6.000000000000000000 ) ;
#316 = ADVANCED_FACE ( 'NONE', ( #361 ), #902, .T. ) ;
#317 = DIRECTION ( 'NONE',  ( 0.6663196743247736809, -0.7456662065614397816, -9.292562311528023527E-17 ) ) ;
#318 = VERTEX_POINT ( 'NONE', #220 ) ;
#319 = DIRECTION ( 'NONE',  ( -0.1108510534444136914, 1.257808851980383614E-16, -0.9938370308809506559 ) ) ;
#320 = SURFACE_STYLE_USAGE ( .BOTH. , #769 ) ;
#321 = CARTESIAN_POINT ( 'NONE',  ( 5.974195292295553905, 2.619630734554813543E-16, -0.2313525518329656583 ) ) ;
#322 = AXIS2_PLACEMENT_3D ( 'NONE', #388, #466, #945 ) ;
#323 = AXIS2_PLACEMENT_3D ( 'NONE', #653, #895, #891 ) ;
#324 = UNCERTAINTY_MEASURE_WITH_UNIT (LENGTH_MEASURE( 1.000000000000000082E-05 ), #391, 'distance_accuracy_value', 'NONE');
#325 = ORIENTED_EDGE ( 'NONE', *, *, #863, .T. ) ;
#326 = AXIS2_PLACEMENT_3D ( 'NONE', #494, #665, #808 ) ;
#327 = EDGE_CURVE ( 'NONE', #434, #477, #121, .T. ) ;
#328 = CIRCLE ( 'NONE', #275, 3.311827956989247479 ) ;
#329 =( NAMED_UNIT ( * ) SI_UNIT ( $, .STERADIAN. ) SOLID_ANGLE_UNIT ( ) );
#330 = FACE_OUTER_BOUND ( 'NONE', #911, .T. ) ;
#331 = CARTESIAN_POINT ( 'NONE',  ( 0.000000000000000000, -1.959999999999999964, 0.4349999999999996092 ) ) ;
#332 = PRESENTATION_STYLE_ASSIGNMENT (( #497 ) ) ;
#333 = DIRECTION ( 'NONE',  ( -0.000000000000000000, 0.000000000000000000, -1.000000000000000000 ) ) ;
#334 = DIRECTION ( 'NONE',  ( 0.7456662065614397816, 0.6663196743247735698, 0.000000000000000000 ) ) ;
#335 = DIRECTION ( 'NONE',  ( 0.9938370308809507669, -0.1108510534444137746, 0.000000000000000000 ) ) ;
#336 = FILL_AREA_STYLE_COLOUR ( '', #813 ) ;
#337 = SURFACE_STYLE_USAGE ( .BOTH. , #195 ) ;
#338 = VECTOR ( 'NONE', #656, 1000.000000000000114 ) ;
#339 = CIRCLE ( 'NONE', #648, 3.500000000000000000 ) ;
#340 = CARTESIAN_POINT ( 'NONE',  ( 2.193400286944045430, -4.336808689942017736E-16, -0.1903515064562410486 ) ) ;
#341 = AXIS2_PLACEMENT_3D ( 'NONE', #847, #750, #593 ) ;
#342 = PRESENTATION_STYLE_ASSIGNMENT (( #410 ) ) ;
#343 = PRESENTATION_LAYER_ASSIGNMENT (  '', '', ( #817 ) ) ;
#344 = FILL_AREA_STYLE_COLOUR ( '', #62 ) ;
#345 = CARTESIAN_POINT ( 'NONE',  ( 1.949999999999999956, 0.2175000000000007205, -0.2174999999999992772 ) ) ;
#346 =( NAMED_UNIT ( * ) SI_UNIT ( $, .STERADIAN. ) SOLID_ANGLE_UNIT ( ) );
#347 = FILL_AREA_STYLE_COLOUR ( '', #674 ) ;
#348 = SURFACE_STYLE_FILL_AREA ( #411 ) ;
#349 = APPLICATION_CONTEXT ( 'automotive_design' ) ;
#350 = FILL_AREA_STYLE_COLOUR ( '', #731 ) ;
#351 =( LENGTH_UNIT ( ) NAMED_UNIT ( * ) SI_UNIT ( .MILLI., .METRE. ) );
#352 = VECTOR ( 'NONE', #645, 999.9999999999998863 ) ;
#353 = SURFACE_SIDE_STYLE ('',( #199 ) ) ;
#354 = VERTEX_POINT ( 'NONE', #476 ) ;
#355 = STYLED_ITEM ( 'NONE', ( #877 ), #585 ) ;
#356 =( GEOMETRIC_REPRESENTATION_CONTEXT ( 3 ) GLOBAL_UNCERTAINTY_ASSIGNED_CONTEXT ( ( #439 ) ) GLOBAL_UNIT_ASSIGNED_CONTEXT ( ( #996, #679, #59 ) ) REPRESENTATION_CONTEXT ( 'NONE', 'WORKASPACE' ) );
#357 = CIRCLE ( 'NONE', #546, 0.4199999999999998179 ) ;
#358 = SURFACE_SIDE_STYLE ('',( #825 ) ) ;
#359 = CIRCLE ( 'NONE', #1021, 1.749999999999999778 ) ;
#360 = CARTESIAN_POINT ( 'NONE',  ( 4.309938594911940868, 1.891316923914901471, 2.356976916973721757E-16 ) ) ;
#361 = FACE_OUTER_BOUND ( 'NONE', #669, .T. ) ;
#362 = DIRECTION ( 'NONE',  ( -0.1108510534444136914, 0.9938370308809506559, 3.595744332370143179E-15 ) ) ;
#363 = ORIENTED_EDGE ( 'NONE', *, *, #821, .F. ) ;
#364 =( NAMED_UNIT ( * ) PLANE_ANGLE_UNIT ( ) SI_UNIT ( $, .RADIAN. ) );
#365 = UNCERTAINTY_MEASURE_WITH_UNIT (LENGTH_MEASURE( 1.000000000000000082E-05 ), #782, 'distance_accuracy_value', 'NONE');
#366 = EDGE_LOOP ( 'NONE', ( #120, #550, #514, #581 ) ) ;
#367 =( NAMED_UNIT ( * ) SI_UNIT ( $, .STERADIAN. ) SOLID_ANGLE_UNIT ( ) );
#368 = ORIENTED_EDGE ( 'NONE', *, *, #988, .F. ) ;
#369 = VECTOR ( 'NONE', #894, 1000.000000000000000 ) ;
#370 = CARTESIAN_POINT ( 'NONE',  ( -25.39999999999996305, 0.000000000000000000, 0.000000000000000000 ) ) ;
#371 = ORIENTED_EDGE ( 'NONE', *, *, #103, .T. ) ;
#372 = CIRCLE ( 'NONE', #982, 5.437518987584765817 ) ;
#373 = DIRECTION ( 'NONE',  ( -0.1108510534444137469, -0.9938370308809506559, -3.448999966305766196E-15 ) ) ;
#374 = UNCERTAINTY_MEASURE_WITH_UNIT (LENGTH_MEASURE( 1.000000000000000082E-05 ), #571, 'distance_accuracy_value', 'NONE');
#375 = SURFACE_STYLE_USAGE ( .BOTH. , #904 ) ;
#376 = EDGE_LOOP ( 'NONE', ( #881, #745, #2, #942 ) ) ;
#377 = PRESENTATION_STYLE_ASSIGNMENT (( #68 ) ) ;
#378 = ORIENTED_EDGE ( 'NONE', *, *, #1002, .T. ) ;
#379 = ORIENTED_EDGE ( 'NONE', *, *, #863, .F. ) ;
#380 = UNCERTAINTY_MEASURE_WITH_UNIT (LENGTH_MEASURE( 1.000000000000000082E-05 ), #119, 'distance_accuracy_value', 'NONE');
#381 = ORIENTED_EDGE ( 'NONE', *, *, #618, .T. ) ;
#382 = AXIS2_PLACEMENT_3D ( 'NONE', #370, #128, #675 ) ;
#383 = COLOUR_RGB ( '',0.7764705882352941346, 0.7568627450980391913, 0.7372549019607843590 ) ;
#384 = FILL_AREA_STYLE ('',( #3 ) ) ;
#385 = CARTESIAN_POINT ( 'NONE',  ( 1.949999999999999956, -0.2175000000000000266, -0.2174999999999999989 ) ) ;
#386 = PRESENTATION_LAYER_ASSIGNMENT (  '', '', ( #710 ) ) ;
#387 = ORIENTED_EDGE ( 'NONE', *, *, #892, .F. ) ;
#388 = CARTESIAN_POINT ( 'NONE',  ( 2.600000000000000089, 1.749999999999999778, 0.000000000000000000 ) ) ;
#389 = CARTESIAN_POINT ( 'NONE',  ( 1.949999999999999956, -0.2175000000000006928, 0.2174999999999992495 ) ) ;
#390 = VERTEX_POINT ( 'NONE', #938 ) ;
#391 =( LENGTH_UNIT ( ) NAMED_UNIT ( * ) SI_UNIT ( .MILLI., .METRE. ) );
#392 = EDGE_CURVE ( 'NONE', #314, #664, #727, .T. ) ;
#393 = CARTESIAN_POINT ( 'NONE',  ( 1.347043950347263763, 0.000000000000000000, 0.000000000000000000 ) ) ;
#394 = DIRECTION ( 'NONE',  ( -0.7456662065614396706, 0.6663196743247736809, 0.000000000000000000 ) ) ;
#395 = ORIENTED_EDGE ( 'NONE', *, *, #116, .T. ) ;
#396 = ORIENTED_EDGE ( 'NONE', *, *, #269, .T. ) ;
#397 =( LENGTH_UNIT ( ) NAMED_UNIT ( * ) SI_UNIT ( .MILLI., .METRE. ) );
#398 = AXIS2_PLACEMENT_3D ( 'NONE', #224, #535, #310 ) ;
#399 = DIRECTION ( 'NONE',  ( -0.9877866216249070463, -0.1101762001043161271, -0.1101762001043165851 ) ) ;
#400 = PRESENTATION_LAYER_ASSIGNMENT (  '', '', ( #273 ) ) ;
#401 = VECTOR ( 'NONE', #164, 1000.000000000000000 ) ;
#402 = PRESENTATION_LAYER_ASSIGNMENT (  '', '', ( #36 ) ) ;
#403 = SURFACE_SIDE_STYLE ('',( #657 ) ) ;
#404 =( GEOMETRIC_REPRESENTATION_CONTEXT ( 3 ) GLOBAL_UNCERTAINTY_ASSIGNED_CONTEXT ( ( #460 ) ) GLOBAL_UNIT_ASSIGNED_CONTEXT ( ( #397, #771, #479 ) ) REPRESENTATION_CONTEXT ( 'NONE', 'WORKASPACE' ) );
#405 = FILL_AREA_STYLE_COLOUR ( '', #886 ) ;
#406 = FILL_AREA_STYLE ('',( #99 ) ) ;
#407 = DIRECTION ( 'NONE',  ( 0.000000000000000000, 1.000000000000000000, 0.000000000000000000 ) ) ;
#408 = DIRECTION ( 'NONE',  ( 0.7431005017819711789, 0.6640269868487613802, 0.08288428673721986994 ) ) ;
#409 = PRESENTATION_STYLE_ASSIGNMENT (( #575 ) ) ;
#410 = SURFACE_STYLE_USAGE ( .BOTH. , #249 ) ;
#411 = FILL_AREA_STYLE ('',( #336 ) ) ;
#412 = DIRECTION ( 'NONE',  ( 0.7456662065614396706, 0.6663196743247736809, 0.000000000000000000 ) ) ;
#413 = SURFACE_STYLE_FILL_AREA ( #961 ) ;
#414 = LINE ( 'NONE', #962, #884 ) ;
#415 = PLANE ( 'NONE',  #81 ) ;
#416 = PRESENTATION_LAYER_ASSIGNMENT (  '', '', ( #560 ) ) ;
#417 = FILL_AREA_STYLE_COLOUR ( '', #898 ) ;
#418 = VECTOR ( 'NONE', #219, 1000.000000000000000 ) ;
#419 = STYLED_ITEM ( 'NONE', ( #556 ), #250 ) ;
#420 = VECTOR ( 'NONE', #573, 1000.000000000000000 ) ;
#421 = DIRECTION ( 'NONE',  ( -0.1108510534444137469, -0.9938370308809506559, -3.448999966305766196E-15 ) ) ;
#422 = EDGE_CURVE ( 'NONE', #314, #223, #998, .T. ) ;
#423 =( NAMED_UNIT ( * ) SI_UNIT ( $, .STERADIAN. ) SOLID_ANGLE_UNIT ( ) );
#424 = DIRECTION ( 'NONE',  ( -1.000000000000000000, -0.000000000000000000, -0.000000000000000000 ) ) ;
#425 = DIRECTION ( 'NONE',  ( 0.000000000000000000, 0.000000000000000000, 1.000000000000000000 ) ) ;
#426 = DIRECTION ( 'NONE',  ( 0.000000000000000000, -1.000000000000000000, 0.000000000000000000 ) ) ;
#427 = CARTESIAN_POINT ( 'NONE',  ( 2.599999999999998312, 0.000000000000000000, 3.500000000000000000 ) ) ;
#428 = PRODUCT ( 'M3.5 x 6 Screw head', 'M3.5 x 6 Screw head', '', ( #1025 ) ) ;
#429 = FILL_AREA_STYLE ('',( #276 ) ) ;
#430 = VECTOR ( 'NONE', #496, 1000.000000000000000 ) ;
#431 =( GEOMETRIC_REPRESENTATION_CONTEXT ( 3 ) GLOBAL_UNCERTAINTY_ASSIGNED_CONTEXT ( ( #908 ) ) GLOBAL_UNIT_ASSIGNED_CONTEXT ( ( #29, #971, #712 ) ) REPRESENTATION_CONTEXT ( 'NONE', 'WORKASPACE' ) );
#432 = STYLED_ITEM ( 'NONE', ( #332 ), #733 ) ;
#433 = AXIS2_PLACEMENT_3D ( 'NONE', #340, #265, #820 ) ;
#434 = VERTEX_POINT ( 'NONE', #696 ) ;
#435 = TOROIDAL_SURFACE ( 'NONE', #66, 3.080000000000000515, 0.4200000000000000400 ) ;
#436 = CARTESIAN_POINT ( 'NONE',  ( 1.347043950347263763, 0.000000000000000000, 3.080000000000000515 ) ) ;
#437 = VERTEX_POINT ( 'NONE', #225 ) ;
#438 = DIRECTION ( 'NONE',  ( 0.7456662065614395596, 0.000000000000000000, -0.6663196743247737919 ) ) ;
#439 = UNCERTAINTY_MEASURE_WITH_UNIT (LENGTH_MEASURE( 1.000000000000000082E-05 ), #996, 'distance_accuracy_value', 'NONE');
#440 = VERTEX_POINT ( 'NONE', #86 ) ;
#441 = CARTESIAN_POINT ( 'NONE',  ( 0.03111693966988647586, 0.4315292644214342443, 0.4315292644214356321 ) ) ;
#442 = ORIENTED_EDGE ( 'NONE', *, *, #977, .T. ) ;
#443 = COLOUR_RGB ( '',0.7764705882352941346, 0.7568627450980391913, 0.7372549019607843590 ) ;
#444 = ORIENTED_EDGE ( 'NONE', *, *, #947, .F. ) ;
#445 =( GEOMETRIC_REPRESENTATION_CONTEXT ( 3 ) GLOBAL_UNCERTAINTY_ASSIGNED_CONTEXT ( ( #374 ) ) GLOBAL_UNIT_ASSIGNED_CONTEXT ( ( #571, #896, #967 ) ) REPRESENTATION_CONTEXT ( 'NONE', 'WORKASPACE' ) );
#446 = MECHANICAL_DESIGN_GEOMETRIC_PRESENTATION_REPRESENTATION (  '', ( #899 ), #547 ) ;
#447 = DIRECTION ( 'NONE',  ( -1.000000000000000000, -0.000000000000000000, -0.000000000000000000 ) ) ;
#448 = ORIENTED_EDGE ( 'NONE', *, *, #194, .F. ) ;
#449 = FACE_OUTER_BOUND ( 'NONE', #762, .T. ) ;
#450 =( NAMED_UNIT ( * ) PLANE_ANGLE_UNIT ( ) SI_UNIT ( $, .RADIAN. ) );
#451 = VERTEX_POINT ( 'NONE', #297 ) ;
#452 = PLANE ( 'NONE',  #322 ) ;
#453 = DIRECTION ( 'NONE',  ( -0.000000000000000000, 0.000000000000000000, 1.000000000000000000 ) ) ;
#454 = SURFACE_SIDE_STYLE ('',( #703 ) ) ;
#455 = EDGE_CURVE ( 'NONE', #390, #440, #1011, .T. ) ;
#456 = ORIENTED_EDGE ( 'NONE', *, *, #392, .T. ) ;
#457 = FACE_OUTER_BOUND ( 'NONE', #1005, .T. ) ;
#458 = FILL_AREA_STYLE_COLOUR ( '', #589 ) ;
#459 = CARTESIAN_POINT ( 'NONE',  ( 0.2553644383338094515, -1.731808957027352047, -2.120854295958262972E-16 ) ) ;
#460 = UNCERTAINTY_MEASURE_WITH_UNIT (LENGTH_MEASURE( 1.000000000000000082E-05 ), #397, 'distance_accuracy_value', 'NONE');
#461 = VERTEX_POINT ( 'NONE', #789 ) ;
#462 = DIRECTION ( 'NONE',  ( 0.000000000000000000, 0.000000000000000000, 1.000000000000000000 ) ) ;
#463 = ADVANCED_FACE ( 'NONE', ( #90 ), #537, .F. ) ;
#464 = AXIS2_PLACEMENT_3D ( 'NONE', #188, #259, #334 ) ;
#465 = PRESENTATION_LAYER_ASSIGNMENT (  '', '', ( #914 ) ) ;
#466 = DIRECTION ( 'NONE',  ( -1.000000000000000000, 0.000000000000000000, -0.000000000000000000 ) ) ;
#467 = CIRCLE ( 'NONE', #852, 6.000000000000000000 ) ;
#468 = COLOUR_RGB ( '',0.7764705882352941346, 0.7568627450980391913, 0.7372549019607843590 ) ;
#469 = DIRECTION ( 'NONE',  ( -1.000000000000000000, -0.000000000000000000, -0.000000000000000000 ) ) ;
#470 = ORIENTED_EDGE ( 'NONE', *, *, #977, .F. ) ;
#471 = FILL_AREA_STYLE ('',( #228 ) ) ;
#472 =( NAMED_UNIT ( * ) SI_UNIT ( $, .STERADIAN. ) SOLID_ANGLE_UNIT ( ) );
#473 = FILL_AREA_STYLE_COLOUR ( '', #509 ) ;
#474 = CARTESIAN_POINT ( 'NONE',  ( 0.000000000000000000, 0.000000000000000000, 0.000000000000000000 ) ) ;
#475 = LINE ( 'NONE', #960, #563 ) ;
#476 = CARTESIAN_POINT ( 'NONE',  ( 0.03111693966988647586, -0.4315292644214340778, -0.4315292644214357987 ) ) ;
#477 = VERTEX_POINT ( 'NONE', #459 ) ;
#478 = PRESENTATION_STYLE_ASSIGNMENT (( #716 ) ) ;
#479 =( NAMED_UNIT ( * ) SI_UNIT ( $, .STERADIAN. ) SOLID_ANGLE_UNIT ( ) );
#480 = SURFACE_STYLE_USAGE ( .BOTH. , #639 ) ;
#481 = DIRECTION ( 'NONE',  ( 0.000000000000000000, 0.000000000000000000, 1.000000000000000000 ) ) ;
#482 = DIRECTION ( 'NONE',  ( 0.000000000000000000, 0.000000000000000000, -1.000000000000000000 ) ) ;
#483 = CIRCLE ( 'NONE', #606, 5.995482475482740270 ) ;
#484 = SURFACE_SIDE_STYLE ('',( #617 ) ) ;
#485 = STYLED_ITEM ( 'NONE', ( #985 ), #316 ) ;
#486 =( NAMED_UNIT ( * ) SI_UNIT ( $, .STERADIAN. ) SOLID_ANGLE_UNIT ( ) );
#487 = DIRECTION ( 'NONE',  ( -1.000000000000000000, -0.000000000000000000, -0.000000000000000000 ) ) ;
#488 = AXIS2_PLACEMENT_3D ( 'NONE', #189, #24, #570 ) ;
#489 = FILL_AREA_STYLE ('',( #417 ) ) ;
#490 =( LENGTH_UNIT ( ) NAMED_UNIT ( * ) SI_UNIT ( .MILLI., .METRE. ) );
#491 = LINE ( 'NONE', #718, #31 ) ;
#492 = EDGE_CURVE ( 'NONE', #5, #58, #260, .T. ) ;
#493 =( NAMED_UNIT ( * ) SI_UNIT ( $, .STERADIAN. ) SOLID_ANGLE_UNIT ( ) );
#494 = CARTESIAN_POINT ( 'NONE',  ( 8.599999999999999645, 1.749999999999999778, 0.000000000000000000 ) ) ;
#495 = LINE ( 'NONE', #640, #369 ) ;
#496 = DIRECTION ( 'NONE',  ( 0.000000000000000000, -1.246209393661499619E-16, 1.000000000000000000 ) ) ;
#497 = SURFACE_STYLE_USAGE ( .BOTH. , #715 ) ;
#498 = SURFACE_STYLE_USAGE ( .BOTH. , #728 ) ;
#499 = MECHANICAL_DESIGN_GEOMETRIC_PRESENTATION_REPRESENTATION (  '', ( #241 ), #158 ) ;
#500 = CARTESIAN_POINT ( 'NONE',  ( 5.974195292295553905, -0.2313525518329657138, -8.028830871489587498E-16 ) ) ;
#501 = CIRCLE ( 'NONE', #125, 3.500000000000000444 ) ;
#502 = MECHANICAL_DESIGN_GEOMETRIC_PRESENTATION_REPRESENTATION (  '', ( #512 ), #140 ) ;
#503 = MECHANICAL_DESIGN_GEOMETRIC_PRESENTATION_REPRESENTATION (  '', ( #710 ), #204 ) ;
#504 = ADVANCED_FACE ( 'NONE', ( #247 ), #692, .F. ) ;
#505 = PRESENTATION_STYLE_ASSIGNMENT (( #978 ) ) ;
#506 = ORIENTED_EDGE ( 'NONE', *, *, #558, .T. ) ;
#507 = EDGE_CURVE ( 'NONE', #845, #390, #18, .T. ) ;
#508 = VECTOR ( 'NONE', #561, 1000.000000000000000 ) ;
#509 = COLOUR_RGB ( '',0.7764705882352941346, 0.7568627450980391913, 0.7372549019607843590 ) ;
#510 = PRESENTATION_LAYER_ASSIGNMENT (  '', '', ( #432 ) ) ;
#511 = COLOUR_RGB ( '',0.7764705882352941346, 0.7568627450980391913, 0.7372549019607843590 ) ;
#512 = STYLED_ITEM ( 'NONE', ( #693 ), #88 ) ;
#513 =( NAMED_UNIT ( * ) PLANE_ANGLE_UNIT ( ) SI_UNIT ( $, .RADIAN. ) );
#514 = ORIENTED_EDGE ( 'NONE', *, *, #988, .T. ) ;
#515 =( GEOMETRIC_REPRESENTATION_CONTEXT ( 3 ) GLOBAL_UNCERTAINTY_ASSIGNED_CONTEXT ( ( #625 ) ) GLOBAL_UNIT_ASSIGNED_CONTEXT ( ( #230, #695, #329 ) ) REPRESENTATION_CONTEXT ( 'NONE', 'WORKASPACE' ) );
#516 = EDGE_LOOP ( 'NONE', ( #922, #991, #697, #368 ) ) ;
#517 = CARTESIAN_POINT ( 'NONE',  ( 0.2666411873824114376, -1.721732169736485796, -0.4052592521765772116 ) ) ;
#518 =( NAMED_UNIT ( * ) SI_UNIT ( $, .STERADIAN. ) SOLID_ANGLE_UNIT ( ) );
#519 = UNCERTAINTY_MEASURE_WITH_UNIT (LENGTH_MEASURE( 1.000000000000000082E-05 ), #85, 'distance_accuracy_value', 'NONE');
#520 = FACE_OUTER_BOUND ( 'NONE', #682, .T. ) ;
#521 = ORIENTED_EDGE ( 'NONE', *, *, #26, .T. ) ;
#522 = CARTESIAN_POINT ( 'NONE',  ( 1.347043950347265318, 0.000000000000000000, 0.000000000000000000 ) ) ;
#523 = LINE ( 'NONE', #1003, #740 ) ;
#524 = ORIENTED_EDGE ( 'NONE', *, *, #1023, .T. ) ;
#525 = DIRECTION ( 'NONE',  ( 0.9877866216249069353, -0.1101762001043169320, 0.1101762001043165712 ) ) ;
#526 =( GEOMETRIC_REPRESENTATION_CONTEXT ( 3 ) GLOBAL_UNCERTAINTY_ASSIGNED_CONTEXT ( ( #380 ) ) GLOBAL_UNIT_ASSIGNED_CONTEXT ( ( #119, #668, #994 ) ) REPRESENTATION_CONTEXT ( 'NONE', 'WORKASPACE' ) );
#527 =( GEOMETRIC_REPRESENTATION_CONTEXT ( 3 ) GLOBAL_UNCERTAINTY_ASSIGNED_CONTEXT ( ( #298 ) ) GLOBAL_UNIT_ASSIGNED_CONTEXT ( ( #173, #513, #596 ) ) REPRESENTATION_CONTEXT ( 'NONE', 'WORKASPACE' ) );
#528 = EDGE_LOOP ( 'NONE', ( #918, #749, #150 ) ) ;
#529 = CIRCLE ( 'NONE', #161, 1.749999999999999778 ) ;
#530 = EDGE_CURVE ( 'NONE', #434, #318, #976, .T. ) ;
#531 = AXIS2_PLACEMENT_3D ( 'NONE', #37, #197, #425 ) ;
#532 = DIRECTION ( 'NONE',  ( -0.1108510534444136914, 0.9938370308809506559, 3.595744332370143179E-15 ) ) ;
#533 = ORIENTED_EDGE ( 'NONE', *, *, #41, .F. ) ;
#534 = PLANE ( 'NONE',  #50 ) ;
#535 = DIRECTION ( 'NONE',  ( -1.000000000000000000, -0.000000000000000000, -0.000000000000000000 ) ) ;
#536 = EDGE_CURVE ( 'NONE', #672, #318, #651, .T. ) ;
#537 = PLANE ( 'NONE',  #670 ) ;
#538 = VERTEX_POINT ( 'NONE', #100 ) ;
#539 =( NAMED_UNIT ( * ) PLANE_ANGLE_UNIT ( ) SI_UNIT ( $, .RADIAN. ) );
#540 = CARTESIAN_POINT ( 'NONE',  ( 8.600000000000003197, 0.000000000000000000, 0.000000000000000000 ) ) ;
#541 = ORIENTED_EDGE ( 'NONE', *, *, #947, .T. ) ;
#542 = LINE ( 'NONE', #858, #401 ) ;
#543 =( LENGTH_UNIT ( ) NAMED_UNIT ( * ) SI_UNIT ( .MILLI., .METRE. ) );
#544 = MECHANICAL_DESIGN_GEOMETRIC_PRESENTATION_REPRESENTATION (  '', ( #559 ), #47 ) ;
#545 = PRESENTATION_STYLE_ASSIGNMENT (( #236 ) ) ;
#546 = AXIS2_PLACEMENT_3D ( 'NONE', #268, #191, #890 ) ;
#547 =( GEOMETRIC_REPRESENTATION_CONTEXT ( 3 ) GLOBAL_UNCERTAINTY_ASSIGNED_CONTEXT ( ( #19 ) ) GLOBAL_UNIT_ASSIGNED_CONTEXT ( ( #913, #919, #753 ) ) REPRESENTATION_CONTEXT ( 'NONE', 'WORKASPACE' ) );
#548 = DIRECTION ( 'NONE',  ( 0.000000000000000000, 0.000000000000000000, 1.000000000000000000 ) ) ;
#549 = CARTESIAN_POINT ( 'NONE',  ( 5.974195292295553905, 2.375629221075779134E-16, 0.2313525518329657416 ) ) ;
#550 = ORIENTED_EDGE ( 'NONE', *, *, #41, .T. ) ;
#551 = SURFACE_STYLE_FILL_AREA ( #406 ) ;
#552 =( NAMED_UNIT ( * ) PLANE_ANGLE_UNIT ( ) SI_UNIT ( $, .RADIAN. ) );
#553 = FACE_OUTER_BOUND ( 'NONE', #376, .T. ) ;
#554 = EDGE_LOOP ( 'NONE', ( #623, #395 ) ) ;
#555 = SURFACE_SIDE_STYLE ('',( #867 ) ) ;
#556 = PRESENTATION_STYLE_ASSIGNMENT (( #186 ) ) ;
#557 = MECHANICAL_DESIGN_GEOMETRIC_PRESENTATION_REPRESENTATION (  '', ( #706 ), #80 ) ;
#558 = EDGE_CURVE ( 'NONE', #538, #67, #495, .T. ) ;
#559 = STYLED_ITEM ( 'NONE', ( #1016 ), #463 ) ;
#560 = STYLED_ITEM ( 'NONE', ( #724 ), #566 ) ;
#561 = DIRECTION ( 'NONE',  ( 0.7431005017819711789, 0.6640269868487613802, -0.08288428673721975892 ) ) ;
#562 = EDGE_CURVE ( 'NONE', #390, #354, #491, .T. ) ;
#563 = VECTOR ( 'NONE', #788, 1000.000000000000000 ) ;
#564 = DIRECTION ( 'NONE',  ( 0.6663196743247736809, 2.696405268330496226E-15, -0.7456662065614397816 ) ) ;
#565 = FACE_OUTER_BOUND ( 'NONE', #925, .T. ) ;
#566 = ADVANCED_FACE ( 'NONE', ( #889 ), #644, .T. ) ;
#567 =( LENGTH_UNIT ( ) NAMED_UNIT ( * ) SI_UNIT ( .MILLI., .METRE. ) );
#568 = SURFACE_STYLE_FILL_AREA ( #720 ) ;
#569 = CARTESIAN_POINT ( 'NONE',  ( -25.39999999999996305, 0.000000000000000000, 1.749999999999999778 ) ) ;
#570 = DIRECTION ( 'NONE',  ( 0.000000000000000000, 0.000000000000000000, 1.000000000000000000 ) ) ;
#571 =( LENGTH_UNIT ( ) NAMED_UNIT ( * ) SI_UNIT ( .MILLI., .METRE. ) );
#572 = CARTESIAN_POINT ( 'NONE',  ( 5.974195292295553905, 0.2313525518329656860, 8.370432990360215258E-16 ) ) ;
#573 = DIRECTION ( 'NONE',  ( -1.000000000000000000, -0.000000000000000000, -0.000000000000000000 ) ) ;
#574 = MECHANICAL_DESIGN_GEOMETRIC_PRESENTATION_REPRESENTATION (  '', ( #355 ), #741 ) ;
#575 = SURFACE_STYLE_USAGE ( .BOTH. , #403 ) ;
#576 = AXIS2_PLACEMENT_3D ( 'NONE', #292, #65, #141 ) ;
#577 =( GEOMETRIC_REPRESENTATION_CONTEXT ( 3 ) GLOBAL_UNCERTAINTY_ASSIGNED_CONTEXT ( ( #324 ) ) GLOBAL_UNIT_ASSIGNED_CONTEXT ( ( #391, #872, #472 ) ) REPRESENTATION_CONTEXT ( 'NONE', 'WORKASPACE' ) );
#578 = MECHANICAL_DESIGN_GEOMETRIC_PRESENTATION_REPRESENTATION (  '', ( #263 ), #112 ) ;
#579 = CYLINDRICAL_SURFACE ( 'NONE', #382, 3.500000000000000444 ) ;
#580 = SURFACE_STYLE_USAGE ( .BOTH. , #293 ) ;
#581 = ORIENTED_EDGE ( 'NONE', *, *, #116, .F. ) ;
#582 = FILL_AREA_STYLE ('',( #744 ) ) ;
#583 = ORIENTED_EDGE ( 'NONE', *, *, #821, .T. ) ;
#584 = PRESENTATION_LAYER_ASSIGNMENT (  '', '', ( #485 ) ) ;
#585 = ADVANCED_FACE ( 'NONE', ( #794, #953 ), #452, .F. ) ;
#586 = SURFACE_STYLE_FILL_AREA ( #837 ) ;
#587 = PRESENTATION_LAYER_ASSIGNMENT (  '', '', ( #689 ) ) ;
#588 = UNCERTAINTY_MEASURE_WITH_UNIT (LENGTH_MEASURE( 1.000000000000000082E-05 ), #312, 'distance_accuracy_value', 'NONE');
#589 = COLOUR_RGB ( '',0.7764705882352941346, 0.7568627450980391913, 0.7372549019607843590 ) ;
#590 = FILL_AREA_STYLE ('',( #995 ) ) ;
#591 = VERTEX_POINT ( 'NONE', #251 ) ;
#592 = AXIS2_PLACEMENT_3D ( 'NONE', #474, #174, #701 ) ;
#593 = DIRECTION ( 'NONE',  ( 0.000000000000000000, 0.000000000000000000, 1.000000000000000000 ) ) ;
#594 = ADVANCED_FACE ( 'NONE', ( #764 ), #72, .T. ) ;
#595 = ORIENTED_EDGE ( 'NONE', *, *, #107, .F. ) ;
#596 =( NAMED_UNIT ( * ) SI_UNIT ( $, .STERADIAN. ) SOLID_ANGLE_UNIT ( ) );
#597 = ORIENTED_EDGE ( 'NONE', *, *, #327, .F. ) ;
#598 = CARTESIAN_POINT ( 'NONE',  ( 6.000000000000000000, 2.326828918379972351E-16, 0.000000000000000000 ) ) ;
#599 = PRESENTATION_STYLE_ASSIGNMENT (( #580 ) ) ;
#600 = CARTESIAN_POINT ( 'NONE',  ( 2.214116351126373949, 0.1880408685282127790, -0.1880408685282121406 ) ) ;
#601 = PRODUCT_RELATED_PRODUCT_CATEGORY ( 'part', '', ( #428 ) ) ;
#602 = PRESENTATION_STYLE_ASSIGNMENT (( #910 ) ) ;
#603 = ORIENTED_EDGE ( 'NONE', *, *, #536, .T. ) ;
#604 = CARTESIAN_POINT ( 'NONE',  ( -25.39999999999996305, 2.143131898507868051E-16, -1.749999999999999778 ) ) ;
#605 = DIRECTION ( 'NONE',  ( -0.9938370308809506559, -0.1108510534444136914, -3.870343844922732447E-16 ) ) ;
#606 = AXIS2_PLACEMENT_3D ( 'NONE', #500, #272, #335 ) ;
#607 = ORIENTED_EDGE ( 'NONE', *, *, #562, .F. ) ;
#608 = MECHANICAL_DESIGN_GEOMETRIC_PRESENTATION_REPRESENTATION (  '', ( #689 ), #122 ) ;
#609 = ORIENTED_EDGE ( 'NONE', *, *, #77, .T. ) ;
#610 = PRESENTATION_LAYER_ASSIGNMENT (  '', '', ( #831 ) ) ;
#611 = PRESENTATION_LAYER_ASSIGNMENT (  '', '', ( #512 ) ) ;
#612 = EDGE_CURVE ( 'NONE', #461, #215, #239, .T. ) ;
#613 = SURFACE_SIDE_STYLE ('',( #148 ) ) ;
#614 = UNCERTAINTY_MEASURE_WITH_UNIT (LENGTH_MEASURE( 1.000000000000000082E-05 ), #313, 'distance_accuracy_value', 'NONE');
#615 = ORIENTED_EDGE ( 'NONE', *, *, #1023, .F. ) ;
#616 = CARTESIAN_POINT ( 'NONE',  ( 0.9968214519863044520, 0.000000000000000000, 3.311827956989247479 ) ) ;
#617 = SURFACE_STYLE_FILL_AREA ( #882 ) ;
#618 = EDGE_CURVE ( 'NONE', #87, #354, #304, .T. ) ;
#619 = FILL_AREA_STYLE_COLOUR ( '', #983 ) ;
#620 =( NAMED_UNIT ( * ) SI_UNIT ( $, .STERADIAN. ) SOLID_ANGLE_UNIT ( ) );
#621 = ORIENTED_EDGE ( 'NONE', *, *, #937, .F. ) ;
#622 = SURFACE_SIDE_STYLE ('',( #917 ) ) ;
#623 = ORIENTED_EDGE ( 'NONE', *, *, #760, .T. ) ;
#624 = CARTESIAN_POINT ( 'NONE',  ( 4.309938594911940868, 1.891316923914901471, 2.356976916973721757E-16 ) ) ;
#625 = UNCERTAINTY_MEASURE_WITH_UNIT (LENGTH_MEASURE( 1.000000000000000082E-05 ), #230, 'distance_accuracy_value', 'NONE');
#626 = ORIENTED_EDGE ( 'NONE', *, *, #812, .F. ) ;
#627 = PRESENTATION_STYLE_ASSIGNMENT (( #320 ) ) ;
#628 = DIRECTION ( 'NONE',  ( -1.000000000000000000, -0.000000000000000000, -0.000000000000000000 ) ) ;
#629 =( GEOMETRIC_REPRESENTATION_CONTEXT ( 3 ) GLOBAL_UNCERTAINTY_ASSIGNED_CONTEXT ( ( #255 ) ) GLOBAL_UNIT_ASSIGNED_CONTEXT ( ( #809, #552, #346 ) ) REPRESENTATION_CONTEXT ( 'NONE', 'WORKASPACE' ) );
#630 =( LENGTH_UNIT ( ) NAMED_UNIT ( * ) SI_UNIT ( .MILLI., .METRE. ) );
#631 = COLOUR_RGB ( '',0.7764705882352941346, 0.7568627450980391913, 0.7372549019607843590 ) ;
#632 = VECTOR ( 'NONE', #482, 1000.000000000000000 ) ;
#633 = AXIS2_PLACEMENT_3D ( 'NONE', #360, #905, #412 ) ;
#634 =( NAMED_UNIT ( * ) PLANE_ANGLE_UNIT ( ) SI_UNIT ( $, .RADIAN. ) );
#635 =( NAMED_UNIT ( * ) PLANE_ANGLE_UNIT ( ) SI_UNIT ( $, .RADIAN. ) );
#636 = ORIENTED_EDGE ( 'NONE', *, *, #422, .F. ) ;
#637 =( NAMED_UNIT ( * ) PLANE_ANGLE_UNIT ( ) SI_UNIT ( $, .RADIAN. ) );
#638 = DIRECTION ( 'NONE',  ( -0.1108510534444137469, 2.096348086633972484E-17, 0.9938370308809506559 ) ) ;
#639 = SURFACE_SIDE_STYLE ('',( #22 ) ) ;
#640 = CARTESIAN_POINT ( 'NONE',  ( -25.39999999999996305, 4.286263797015737088E-16, -3.500000000000000444 ) ) ;
#641 = PLANE ( 'NONE',  #305 ) ;
#642 = ADVANCED_FACE ( 'NONE', ( #565 ), #415, .T. ) ;
#643 = DIRECTION ( 'NONE',  ( -0.1108510534444136914, 1.257808851980383614E-16, -0.9938370308809506559 ) ) ;
#644 = CYLINDRICAL_SURFACE ( 'NONE', #755, 3.500000000000000444 ) ;
#645 = DIRECTION ( 'NONE',  ( 0.7431005017819711789, 0.08288428673721742745, 0.6640269868487616023 ) ) ;
#646 = PLANE ( 'NONE',  #1020 ) ;
#647 = AXIS2_PLACEMENT_3D ( 'NONE', #921, #907, #134 ) ;
#648 = AXIS2_PLACEMENT_3D ( 'NONE', #798, #424, #659 ) ;
#649 = DIRECTION ( 'NONE',  ( 0.6663196743247735698, 2.696405268330496621E-15, -0.7456662065614397816 ) ) ;
#650 = CIRCLE ( 'NONE', #341, 3.311827956989247479 ) ;
#651 = LINE ( 'NONE', #730, #338 ) ;
#652 = PRESENTATION_LAYER_ASSIGNMENT (  '', '', ( #306 ) ) ;
#653 = CARTESIAN_POINT ( 'NONE',  ( 6.000000000000000000, 2.326828918379972351E-16, 0.000000000000000000 ) ) ;
#654 = SURFACE_SIDE_STYLE ('',( #980 ) ) ;
#655 = EDGE_CURVE ( 'NONE', #707, #538, #339, .T. ) ;
#656 = DIRECTION ( 'NONE',  ( 0.9877866216249069353, 0.1101762001043169042, -0.1101762001043164879 ) ) ;
#657 = SURFACE_STYLE_FILL_AREA ( #42 ) ;
#658 = DIRECTION ( 'NONE',  ( -1.000000000000000000, -0.000000000000000000, -0.000000000000000000 ) ) ;
#659 = DIRECTION ( 'NONE',  ( 0.000000000000000000, 0.000000000000000000, 1.000000000000000000 ) ) ;
#660 = ADVANCED_FACE ( 'NONE', ( #35 ), #579, .T. ) ;
#661 = PRESENTATION_STYLE_ASSIGNMENT (( #337 ) ) ;
#662 = SURFACE_STYLE_USAGE ( .BOTH. , #353 ) ;
#663 = MECHANICAL_DESIGN_GEOMETRIC_PRESENTATION_REPRESENTATION (  '', ( #419 ), #110 ) ;
#664 = VERTEX_POINT ( 'NONE', #987 ) ;
#665 = DIRECTION ( 'NONE',  ( 1.000000000000000000, 0.000000000000000000, 0.000000000000000000 ) ) ;
#666 = CARTESIAN_POINT ( 'NONE',  ( 5.974195292295553905, 0.2313525518329656860, 8.370432990360215258E-16 ) ) ;
#667 = ORIENTED_EDGE ( 'NONE', *, *, #279, .T. ) ;
#668 =( NAMED_UNIT ( * ) PLANE_ANGLE_UNIT ( ) SI_UNIT ( $, .RADIAN. ) );
#669 = EDGE_LOOP ( 'NONE', ( #667, #371, #767 ) ) ;
#670 = AXIS2_PLACEMENT_3D ( 'NONE', #389, #862, #155 ) ;
#671 = SPHERICAL_SURFACE ( 'NONE', #647, 6.000000000000000000 ) ;
#672 = VERTEX_POINT ( 'NONE', #840 ) ;
#673 = TOROIDAL_SURFACE ( 'NONE', #815, 3.080000000000000515, 0.4200000000000000400 ) ;
#674 = COLOUR_RGB ( '',0.7764705882352941346, 0.7568627450980391913, 0.7372549019607843590 ) ;
#675 = DIRECTION ( 'NONE',  ( 0.000000000000000000, 0.000000000000000000, 1.000000000000000000 ) ) ;
#676 = ORIENTED_EDGE ( 'NONE', *, *, #562, .T. ) ;
#677 = LINE ( 'NONE', #154, #418 ) ;
#678 = VERTEX_POINT ( 'NONE', #924 ) ;
#679 =( NAMED_UNIT ( * ) PLANE_ANGLE_UNIT ( ) SI_UNIT ( $, .RADIAN. ) );
#680 = ORIENTED_EDGE ( 'NONE', *, *, #11, .T. ) ;
#681 = DIRECTION ( 'NONE',  ( 1.000000000000000000, 0.000000000000000000, 0.000000000000000000 ) ) ;
#682 = EDGE_LOOP ( 'NONE', ( #381, #607, #903 ) ) ;
#683 = ADVANCED_FACE ( 'NONE', ( #520 ), #901, .T. ) ;
#684 = ORIENTED_EDGE ( 'NONE', *, *, #655, .F. ) ;
#685 = CARTESIAN_POINT ( 'NONE',  ( 2.599999999999998312, 0.000000000000000000, 0.000000000000000000 ) ) ;
#686 = FILL_AREA_STYLE_COLOUR ( '', #966 ) ;
#687 = AXIS2_PLACEMENT_3D ( 'NONE', #549, #82, #874 ) ;
#688 = ORIENTED_EDGE ( 'NONE', *, *, #26, .F. ) ;
#689 = STYLED_ITEM ( 'NONE', ( #545 ), #594 ) ;
#690 =( GEOMETRIC_REPRESENTATION_CONTEXT ( 3 ) GLOBAL_UNCERTAINTY_ASSIGNED_CONTEXT ( ( #614 ) ) GLOBAL_UNIT_ASSIGNED_CONTEXT ( ( #313, #450, #301 ) ) REPRESENTATION_CONTEXT ( 'NONE', 'WORKASPACE' ) );
#691 = CLOSED_SHELL ( 'NONE', ( #702, #566, #594, #900, #287, #721, #250, #1013, #88, #258, #585, #660, #897, #1008, #28, #504, #733, #959, #683, #941, #463, #642, #316 ) ) ;
#692 = PLANE ( 'NONE',  #464 ) ;
#693 = PRESENTATION_STYLE_ASSIGNMENT (( #151 ) ) ;
#694 = DIRECTION ( 'NONE',  ( -0.7456662065614396706, 0.6663196743247736809, 0.000000000000000000 ) ) ;
#695 =( NAMED_UNIT ( * ) PLANE_ANGLE_UNIT ( ) SI_UNIT ( $, .RADIAN. ) );
#696 = CARTESIAN_POINT ( 'NONE',  ( 0.2666411873824114376, -1.721732169736485796, 0.4052592521765768785 ) ) ;
#697 = ORIENTED_EDGE ( 'NONE', *, *, #760, .F. ) ;
#698 = MANIFOLD_SOLID_BREP ( 'Move Face1', #691 ) ;
#699 = ORIENTED_EDGE ( 'NONE', *, *, #507, .F. ) ;
#700 =( NAMED_UNIT ( * ) SI_UNIT ( $, .STERADIAN. ) SOLID_ANGLE_UNIT ( ) );
#701 = DIRECTION ( 'NONE',  ( 1.000000000000000000, 0.000000000000000000, 0.000000000000000000 ) ) ;
#702 = ADVANCED_FACE ( 'NONE', ( #457 ), #673, .T. ) ;
#703 = SURFACE_STYLE_FILL_AREA ( #856 ) ;
#704 = UNCERTAINTY_MEASURE_WITH_UNIT (LENGTH_MEASURE( 1.000000000000000082E-05 ), #567, 'distance_accuracy_value', 'NONE');
#705 = ORIENTED_EDGE ( 'NONE', *, *, #846, .T. ) ;
#706 = STYLED_ITEM ( 'NONE', ( #599 ), #287 ) ;
#707 = VERTEX_POINT ( 'NONE', #427 ) ;
#708 = CARTESIAN_POINT ( 'NONE',  ( 0.2666411873824114376, 0.4052592521765831513, -1.721732169736484019 ) ) ;
#709 = AXIS2_PLACEMENT_3D ( 'NONE', #926, #373, #1001 ) ;
#710 = STYLED_ITEM ( 'NONE', ( #964 ), #941 ) ;
#711 = FILL_AREA_STYLE ('',( #619 ) ) ;
#712 =( NAMED_UNIT ( * ) SI_UNIT ( $, .STERADIAN. ) SOLID_ANGLE_UNIT ( ) );
#713 = SURFACE_SIDE_STYLE ('',( #818 ) ) ;
#714 = PRODUCT_DEFINITION_SHAPE ( 'NONE', 'NONE',  #888 ) ;
#715 = SURFACE_SIDE_STYLE ('',( #568 ) ) ;
#716 = SURFACE_STYLE_USAGE ( .BOTH. , #168 ) ;
#717 = CARTESIAN_POINT ( 'NONE',  ( 6.000000000000000000, 2.326828918379972351E-16, 0.000000000000000000 ) ) ;
#718 = CARTESIAN_POINT ( 'NONE',  ( 2.214116351126373505, -0.1880408685282114467, -0.1880408685282121684 ) ) ;
#719 =( NAMED_UNIT ( * ) PLANE_ANGLE_UNIT ( ) SI_UNIT ( $, .RADIAN. ) );
#720 = FILL_AREA_STYLE ('',( #405 ) ) ;
#721 = ADVANCED_FACE ( 'NONE', ( #171 ), #641, .T. ) ;
#722 =( NAMED_UNIT ( * ) SI_UNIT ( $, .STERADIAN. ) SOLID_ANGLE_UNIT ( ) );
#723 =( NAMED_UNIT ( * ) SI_UNIT ( $, .STERADIAN. ) SOLID_ANGLE_UNIT ( ) );
#724 = PRESENTATION_STYLE_ASSIGNMENT (( #254 ) ) ;
#725 = DIRECTION ( 'NONE',  ( 0.000000000000000000, 0.000000000000000000, 1.000000000000000000 ) ) ;
#726 = CARTESIAN_POINT ( 'NONE',  ( 2.193400286944045430, 0.1903515064562410486, 2.309278636184420884E-16 ) ) ;
#727 = CIRCLE ( 'NONE', #687, 5.995482475482740270 ) ;
#728 = SURFACE_SIDE_STYLE ('',( #108 ) ) ;
#729 = STYLED_ITEM ( 'NONE', ( #602 ), #698 ) ;
#730 = CARTESIAN_POINT ( 'NONE',  ( 2.214116351126373949, -0.1880408685282127235, 0.1880408685282120573 ) ) ;
#731 = COLOUR_RGB ( '',0.7764705882352941346, 0.7568627450980391913, 0.7372549019607843590 ) ;
#732 = DIRECTION ( 'NONE',  ( -0.9938370308809507669, -0.1108510534444137052, 0.000000000000000000 ) ) ;
#733 = ADVANCED_FACE ( 'NONE', ( #553 ), #646, .T. ) ;
#734 = DIRECTION ( 'NONE',  ( -0.9877866216249070463, 0.1101762001043161965, 0.1101762001043165434 ) ) ;
#735 = DIRECTION ( 'NONE',  ( -0.1108510534444136914, 0.9938370308809506559, 3.595744332370143968E-15 ) ) ;
#736 = FACE_OUTER_BOUND ( 'NONE', #242, .T. ) ;
#737 = ORIENTED_EDGE ( 'NONE', *, *, #327, .T. ) ;
#738 = FILL_AREA_STYLE ('',( #834 ) ) ;
#739 = PLANE ( 'NONE',  #853 ) ;
#740 = VECTOR ( 'NONE', #54, 1000.000000000000000 ) ;
#741 =( GEOMETRIC_REPRESENTATION_CONTEXT ( 3 ) GLOBAL_UNCERTAINTY_ASSIGNED_CONTEXT ( ( #838 ) ) GLOBAL_UNIT_ASSIGNED_CONTEXT ( ( #630, #539, #866 ) ) REPRESENTATION_CONTEXT ( 'NONE', 'WORKASPACE' ) );
#742 = PRESENTATION_LAYER_ASSIGNMENT (  '', '', ( #241 ) ) ;
#743 = ORIENTED_EDGE ( 'NONE', *, *, #294, .T. ) ;
#744 = FILL_AREA_STYLE_COLOUR ( '', #203 ) ;
#745 = ORIENTED_EDGE ( 'NONE', *, *, #211, .T. ) ;
#746 = FILL_AREA_STYLE_COLOUR ( '', #868 ) ;
#747 = UNCERTAINTY_MEASURE_WITH_UNIT (LENGTH_MEASURE( 1.000000000000000082E-05 ), #351, 'distance_accuracy_value', 'NONE');
#748 = DIRECTION ( 'NONE',  ( -0.9938370308809506559, -0.1108510534444136914, -3.870343844922732447E-16 ) ) ;
#749 = ORIENTED_EDGE ( 'NONE', *, *, #207, .T. ) ;
#750 = DIRECTION ( 'NONE',  ( -1.000000000000000000, -0.000000000000000000, -0.000000000000000000 ) ) ;
#751 = DIRECTION ( 'NONE',  ( -0.9938370308809507669, -0.1108510534444137052, 0.000000000000000000 ) ) ;
#752 = EDGE_LOOP ( 'NONE', ( #75, #869, #876, #442, #935, #790, #129, #909, #784, #209, #387 ) ) ;
#753 =( NAMED_UNIT ( * ) SI_UNIT ( $, .STERADIAN. ) SOLID_ANGLE_UNIT ( ) );
#754 = DIRECTION ( 'NONE',  ( -1.000000000000000000, -0.000000000000000000, -0.000000000000000000 ) ) ;
#755 = AXIS2_PLACEMENT_3D ( 'NONE', #170, #487, #481 ) ;
#756 = CIRCLE ( 'NONE', #488, 3.500000000000000444 ) ;
#757 = VERTEX_POINT ( 'NONE', #212 ) ;
#758 = STYLED_ITEM ( 'NONE', ( #252 ), #271 ) ;
#759 = FACE_OUTER_BOUND ( 'NONE', #202, .T. ) ;
#760 = EDGE_CURVE ( 'NONE', #295, #757, #529, .T. ) ;
#761 = SURFACE_SIDE_STYLE ('',( #142 ) ) ;
#762 = EDGE_LOOP ( 'NONE', ( #839, #603, #1010 ) ) ;
#763 = ORIENTED_EDGE ( 'NONE', *, *, #211, .F. ) ;
#764 = FACE_OUTER_BOUND ( 'NONE', #516, .T. ) ;
#765 = CARTESIAN_POINT ( 'NONE',  ( 0.000000000000000000, 0.4349999999999932254, 1.960000000000001741 ) ) ;
#766 = UNCERTAINTY_MEASURE_WITH_UNIT (LENGTH_MEASURE( 1.000000000000000082E-05 ), #206, 'distance_accuracy_value', 'NONE');
#767 = ORIENTED_EDGE ( 'NONE', *, *, #536, .F. ) ;
#768 = CARTESIAN_POINT ( 'NONE',  ( 5.974195292295553905, 2.619630734554813543E-16, -0.2313525518329656583 ) ) ;
#769 = SURFACE_SIDE_STYLE ('',( #943 ) ) ;
#770 = SURFACE_SIDE_STYLE ('',( #94 ) ) ;
#771 =( NAMED_UNIT ( * ) PLANE_ANGLE_UNIT ( ) SI_UNIT ( $, .RADIAN. ) );
#772 = DIRECTION ( 'NONE',  ( 0.7431005017819711789, -0.08288428673722218754, 0.6640269868487610472 ) ) ;
#773 = DIRECTION ( 'NONE',  ( 0.000000000000000000, 0.000000000000000000, 1.000000000000000000 ) ) ;
#774 = AXIS2_PLACEMENT_3D ( 'NONE', #149, #166, #394 ) ;
#775 = ORIENTED_EDGE ( 'NONE', *, *, #612, .F. ) ;
#776 =( GEOMETRIC_REPRESENTATION_CONTEXT ( 3 ) GLOBAL_UNCERTAINTY_ASSIGNED_CONTEXT ( ( #930 ) ) GLOBAL_UNIT_ASSIGNED_CONTEXT ( ( #543, #950, #493 ) ) REPRESENTATION_CONTEXT ( 'NONE', 'WORKASPACE' ) );
#777 = CARTESIAN_POINT ( 'NONE',  ( 8.600000000000003197, 0.000000000000000000, 0.000000000000000000 ) ) ;
#778 = PRESENTATION_LAYER_ASSIGNMENT (  '', '', ( #263 ) ) ;
#779 = CIRCLE ( 'NONE', #927, 5.995482475482741158 ) ;
#780 = FILL_AREA_STYLE ('',( #1015 ) ) ;
#781 = DIRECTION ( 'NONE',  ( -1.000000000000000000, -0.000000000000000000, -0.000000000000000000 ) ) ;
#782 =( LENGTH_UNIT ( ) NAMED_UNIT ( * ) SI_UNIT ( .MILLI., .METRE. ) );
#783 = SURFACE_STYLE_USAGE ( .BOTH. , #761 ) ;
#784 = ORIENTED_EDGE ( 'NONE', *, *, #392, .F. ) ;
#785 = CARTESIAN_POINT ( 'NONE',  ( 0.9968214519863044520, 3.311827956989247479, 0.000000000000000000 ) ) ;
#786 = SURFACE_SIDE_STYLE ('',( #7 ) ) ;
#787 = APPLICATION_PROTOCOL_DEFINITION ( 'draft international standard', 'automotive_design', 1998, #349 ) ;
#788 = DIRECTION ( 'NONE',  ( -1.000000000000000000, -0.000000000000000000, -0.000000000000000000 ) ) ;
#789 = CARTESIAN_POINT ( 'NONE',  ( 0.9968214519863044520, 4.171041651934668579E-16, -3.311827956989247479 ) ) ;
#790 = ORIENTED_EDGE ( 'NONE', *, *, #618, .F. ) ;
#791 = CARTESIAN_POINT ( 'NONE',  ( 4.309938594911940868, -1.891316923914901471, 0.000000000000000000 ) ) ;
#792 = FILL_AREA_STYLE_COLOUR ( '', #1004 ) ;
#793 =( LENGTH_UNIT ( ) NAMED_UNIT ( * ) SI_UNIT ( .MILLI., .METRE. ) );
#794 = FACE_OUTER_BOUND ( 'NONE', #70, .T. ) ;
#795 = DIRECTION ( 'NONE',  ( -0.9938370308809507669, 0.000000000000000000, 0.1108510534444137052 ) ) ;
#796 = STYLED_ITEM ( 'NONE', ( #69 ), #504 ) ;
#797 = FACE_OUTER_BOUND ( 'NONE', #285, .T. ) ;
#798 = CARTESIAN_POINT ( 'NONE',  ( 2.599999999999998312, 0.000000000000000000, 0.000000000000000000 ) ) ;
#799 = AXIS2_PLACEMENT_3D ( 'NONE', #118, #362, #748 ) ;
#800 = AXIS2_PLACEMENT_3D ( 'NONE', #717, #333, #407 ) ;
#801 = EDGE_CURVE ( 'NONE', #678, #757, #861, .T. ) ;
#802 = SURFACE_STYLE_FILL_AREA ( #819 ) ;
#803 = DIRECTION ( 'NONE',  ( 0.9938370308809506559, -0.1108510534444137469, -3.870343844922734420E-16 ) ) ;
#804 = LINE ( 'NONE', #569, #420 ) ;
#805 = EDGE_CURVE ( 'NONE', #826, #591, #210, .T. ) ;
#806 =( NAMED_UNIT ( * ) SI_UNIT ( $, .STERADIAN. ) SOLID_ANGLE_UNIT ( ) );
#807 =( NAMED_UNIT ( * ) PLANE_ANGLE_UNIT ( ) SI_UNIT ( $, .RADIAN. ) );
#808 = DIRECTION ( 'NONE',  ( 0.000000000000000000, 0.000000000000000000, -1.000000000000000000 ) ) ;
#809 =( LENGTH_UNIT ( ) NAMED_UNIT ( * ) SI_UNIT ( .MILLI., .METRE. ) );
#810 = LINE ( 'NONE', #196, #352 ) ;
#811 = PRESENTATION_LAYER_ASSIGNMENT (  '', '', ( #796 ) ) ;
#812 = EDGE_CURVE ( 'NONE', #67, #281, #501, .T. ) ;
#813 = COLOUR_RGB ( '',0.7764705882352941346, 0.7568627450980391913, 0.7372549019607843590 ) ;
#814 = PRESENTATION_STYLE_ASSIGNMENT (( #498 ) ) ;
#815 = AXIS2_PLACEMENT_3D ( 'NONE', #32, #658, #725 ) ;
#816 = AXIS2_PLACEMENT_3D ( 'NONE', #248, #319, #234 ) ;
#817 = STYLED_ITEM ( 'NONE', ( #661 ), #959 ) ;
#818 = SURFACE_STYLE_FILL_AREA ( #489 ) ;
#819 = FILL_AREA_STYLE ('',( #39 ) ) ;
#820 = DIRECTION ( 'NONE',  ( 0.9938370308809506559, 0.000000000000000000, 0.1108510534444137469 ) ) ;
#821 = EDGE_CURVE ( 'NONE', #826, #451, #34, .T. ) ;
#822 = EDGE_CURVE ( 'NONE', #58, #461, #650, .T. ) ;
#823 = CARTESIAN_POINT ( 'NONE',  ( 2.599999999999998312, 0.000000000000000000, 1.749999999999999778 ) ) ;
#824 = PLANE ( 'NONE',  #816 ) ;
#825 = SURFACE_STYLE_FILL_AREA ( #738 ) ;
#826 = VERTEX_POINT ( 'NONE', #307 ) ;
#827 = VECTOR ( 'NONE', #4, 1000.000000000000000 ) ;
#828 = STYLED_ITEM ( 'NONE', ( #44 ), #642 ) ;
#829 = COLOUR_RGB ( '',0.7921568627450980005, 0.8196078431372548767, 0.9333333333333333481 ) ;
#830 = CARTESIAN_POINT ( 'NONE',  ( 0.2666411873824114376, 1.721732169736486240, -0.4052592521765773226 ) ) ;
#831 = STYLED_ITEM ( 'NONE', ( #53 ), #683 ) ;
#832 = VECTOR ( 'NONE', #525, 1000.000000000000114 ) ;
#833 =( GEOMETRIC_REPRESENTATION_CONTEXT ( 3 ) GLOBAL_UNCERTAINTY_ASSIGNED_CONTEXT ( ( #875 ) ) GLOBAL_UNIT_ASSIGNED_CONTEXT ( ( #280, #104, #723 ) ) REPRESENTATION_CONTEXT ( 'NONE', 'WORKASPACE' ) );
#834 = FILL_AREA_STYLE_COLOUR ( '', #829 ) ;
#835 = ORIENTED_EDGE ( 'NONE', *, *, #923, .F. ) ;
#836 = DIRECTION ( 'NONE',  ( 0.000000000000000000, 0.000000000000000000, 1.000000000000000000 ) ) ;
#837 = FILL_AREA_STYLE ('',( #282 ) ) ;
#838 = UNCERTAINTY_MEASURE_WITH_UNIT (LENGTH_MEASURE( 1.000000000000000082E-05 ), #630, 'distance_accuracy_value', 'NONE');
#839 = ORIENTED_EDGE ( 'NONE', *, *, #937, .T. ) ;
#840 = CARTESIAN_POINT ( 'NONE',  ( 0.03111693966988560850, -0.4315292644214371864, 0.4315292644214354101 ) ) ;
#841 = EDGE_LOOP ( 'NONE', ( #233, #524, #214, #227, #521, #595, #379, #583, #864, #621, #737 ) ) ;
#842 = CARTESIAN_POINT ( 'NONE',  ( 1.949999999999999956, 0.2174999999999999989, -0.2174999999999999711 ) ) ;
#843 = DIRECTION ( 'NONE',  ( -0.1108510534444136914, 0.9938370308809506559, 3.595744332370143968E-15 ) ) ;
#844 = SURFACE_STYLE_FILL_AREA ( #582 ) ;
#845 = VERTEX_POINT ( 'NONE', #517 ) ;
#846 = EDGE_CURVE ( 'NONE', #354, #845, #915, .T. ) ;
#847 = CARTESIAN_POINT ( 'NONE',  ( 0.9968214519863044520, 0.000000000000000000, 0.000000000000000000 ) ) ;
#848 = CIRCLE ( 'NONE', #137, 5.995482475482741158 ) ;
#849 = FILL_AREA_STYLE_COLOUR ( '', #237 ) ;
#850 = AXIS2_PLACEMENT_3D ( 'NONE', #572, #735, #732 ) ;
#851 = VERTEX_POINT ( 'NONE', #441 ) ;
#852 = AXIS2_PLACEMENT_3D ( 'NONE', #598, #453, #681 ) ;
#853 = AXIS2_PLACEMENT_3D ( 'NONE', #345, #649, #270 ) ;
#854 = ORIENTED_EDGE ( 'NONE', *, *, #244, .F. ) ;
#855 = FACE_OUTER_BOUND ( 'NONE', #752, .T. ) ;
#856 = FILL_AREA_STYLE ('',( #686 ) ) ;
#857 = ORIENTED_EDGE ( 'NONE', *, *, #217, .F. ) ;
#858 = CARTESIAN_POINT ( 'NONE',  ( 0.000000000000000000, -0.4350000000000069367, 1.959999999999998188 ) ) ;
#859 = CARTESIAN_POINT ( 'NONE',  ( 1.949999999999999956, 0.2174999999999999989, 0.2174999999999999156 ) ) ;
#860 = APPLICATION_PROTOCOL_DEFINITION ( 'draft international standard', 'automotive_design', 1998, #245 ) ;
#861 = LINE ( 'NONE', #604, #97 ) ;
#862 = DIRECTION ( 'NONE',  ( 0.6663196743247735698, -2.603479645215216163E-15, 0.7456662065614397816 ) ) ;
#863 = EDGE_CURVE ( 'NONE', #826, #851, #63, .T. ) ;
#864 = ORIENTED_EDGE ( 'NONE', *, *, #279, .F. ) ;
#865 =( LENGTH_UNIT ( ) NAMED_UNIT ( * ) SI_UNIT ( .MILLI., .METRE. ) );
#866 =( NAMED_UNIT ( * ) SI_UNIT ( $, .STERADIAN. ) SOLID_ANGLE_UNIT ( ) );
#867 = SURFACE_STYLE_FILL_AREA ( #384 ) ;
#868 = COLOUR_RGB ( '',0.7764705882352941346, 0.7568627450980391913, 0.7372549019607843590 ) ;
#869 = ORIENTED_EDGE ( 'NONE', *, *, #612, .T. ) ;
#870 =( GEOMETRIC_REPRESENTATION_CONTEXT ( 3 ) GLOBAL_UNCERTAINTY_ASSIGNED_CONTEXT ( ( #226 ) ) GLOBAL_UNIT_ASSIGNED_CONTEXT ( ( #180, #25, #806 ) ) REPRESENTATION_CONTEXT ( 'NONE', 'WORKASPACE' ) );
#871 = AXIS2_PLACEMENT_3D ( 'NONE', #109, #564, #973 ) ;
#872 =( NAMED_UNIT ( * ) PLANE_ANGLE_UNIT ( ) SI_UNIT ( $, .RADIAN. ) );
#873 =( NAMED_UNIT ( * ) PLANE_ANGLE_UNIT ( ) SI_UNIT ( $, .RADIAN. ) );
#874 = DIRECTION ( 'NONE',  ( 0.9938370308809507669, 0.000000000000000000, 0.1108510534444137746 ) ) ;
#875 = UNCERTAINTY_MEASURE_WITH_UNIT (LENGTH_MEASURE( 1.000000000000000082E-05 ), #280, 'distance_accuracy_value', 'NONE');
#876 = ORIENTED_EDGE ( 'NONE', *, *, #198, .T. ) ;
#877 = PRESENTATION_STYLE_ASSIGNMENT (( #1024 ) ) ;
#878 = DIRECTION ( 'NONE',  ( -0.9938370308809506559, 0.000000000000000000, 0.1108510534444136914 ) ) ;
#879 = SURFACE_STYLE_USAGE ( .BOTH. , #555 ) ;
#880 = LINE ( 'NONE', #940, #632 ) ;
#881 = ORIENTED_EDGE ( 'NONE', *, *, #455, .F. ) ;
#882 = FILL_AREA_STYLE ('',( #792 ) ) ;
#883 = EDGE_CURVE ( 'NONE', #167, #591, #677, .T. ) ;
#884 = VECTOR ( 'NONE', #734, 1000.000000000000000 ) ;
#885 =( LENGTH_UNIT ( ) NAMED_UNIT ( * ) SI_UNIT ( .MILLI., .METRE. ) );
#886 = COLOUR_RGB ( '',0.7764705882352941346, 0.7568627450980391913, 0.7372549019607843590 ) ;
#887 = COLOUR_RGB ( '',0.7764705882352941346, 0.7568627450980391913, 0.7372549019607843590 ) ;
#888 = PRODUCT_DEFINITION ( 'UNKNOWN', '', #955, #213 ) ;
#889 = FACE_OUTER_BOUND ( 'NONE', #222, .T. ) ;
#890 = DIRECTION ( 'NONE',  ( 0.000000000000000000, -1.224646799147354193E-16, 1.000000000000000000 ) ) ;
#891 = DIRECTION ( 'NONE',  ( 0.000000000000000000, 1.000000000000000000, 1.224646799147353207E-16 ) ) ;
#892 = EDGE_CURVE ( 'NONE', #58, #223, #467, .T. ) ;
#893 = FACE_OUTER_BOUND ( 'NONE', #528, .T. ) ;
#894 = DIRECTION ( 'NONE',  ( -1.000000000000000000, -0.000000000000000000, -0.000000000000000000 ) ) ;
#895 = DIRECTION ( 'NONE',  ( 0.000000000000000000, 1.224646799147353207E-16, -1.000000000000000000 ) ) ;
#896 =( NAMED_UNIT ( * ) PLANE_ANGLE_UNIT ( ) SI_UNIT ( $, .RADIAN. ) );
#897 = ADVANCED_FACE ( 'NONE', ( #759 ), #435, .T. ) ;
#898 = COLOUR_RGB ( '',0.7764705882352941346, 0.7568627450980391913, 0.7372549019607843590 ) ;
#899 = STYLED_ITEM ( 'NONE', ( #814 ), #1013 ) ;
#900 = ADVANCED_FACE ( 'NONE', ( #855 ), #315, .T. ) ;
#901 = PLANE ( 'NONE',  #799 ) ;
#902 = PLANE ( 'NONE',  #10 ) ;
#903 = ORIENTED_EDGE ( 'NONE', *, *, #175, .F. ) ;
#904 = SURFACE_SIDE_STYLE ('',( #844 ) ) ;
#905 = DIRECTION ( 'NONE',  ( 0.6663196743247736809, -0.7456662065614397816, -9.292562311528023527E-17 ) ) ;
#906 = EDGE_CURVE ( 'NONE', #1019, #440, #165, .T. ) ;
#907 = DIRECTION ( 'NONE',  ( -0.000000000000000000, 0.000000000000000000, -1.000000000000000000 ) ) ;
#908 = UNCERTAINTY_MEASURE_WITH_UNIT (LENGTH_MEASURE( 1.000000000000000082E-05 ), #29, 'distance_accuracy_value', 'NONE');
#909 = ORIENTED_EDGE ( 'NONE', *, *, #185, .F. ) ;
#910 = SURFACE_STYLE_USAGE ( .BOTH. , #358 ) ;
#911 = EDGE_LOOP ( 'NONE', ( #92, #123, #931, #854 ) ) ;
#912 = VECTOR ( 'NONE', #408, 1000.000000000000000 ) ;
#913 =( LENGTH_UNIT ( ) NAMED_UNIT ( * ) SI_UNIT ( .MILLI., .METRE. ) );
#914 = STYLED_ITEM ( 'NONE', ( #505 ), #660 ) ;
#915 = CIRCLE ( 'NONE', #576, 5.995482475482740270 ) ;
#916 = COLOUR_RGB ( '',0.7764705882352941346, 0.7568627450980391913, 0.7372549019607843590 ) ;
#917 = SURFACE_STYLE_FILL_AREA ( #590 ) ;
#918 = ORIENTED_EDGE ( 'NONE', *, *, #883, .T. ) ;
#919 =( NAMED_UNIT ( * ) PLANE_ANGLE_UNIT ( ) SI_UNIT ( $, .RADIAN. ) );
#920 = DIRECTION ( 'NONE',  ( -1.000000000000000000, -0.000000000000000000, -0.000000000000000000 ) ) ;
#921 = CARTESIAN_POINT ( 'NONE',  ( 6.000000000000000000, 2.326828918379972351E-16, 0.000000000000000000 ) ) ;
#922 = ORIENTED_EDGE ( 'NONE', *, *, #923, .T. ) ;
#923 = EDGE_CURVE ( 'NONE', #437, #678, #359, .T. ) ;
#924 = CARTESIAN_POINT ( 'NONE',  ( 8.600000000000003197, 2.143131898507868051E-16, -1.749999999999999778 ) ) ;
#925 = EDGE_LOOP ( 'NONE', ( #325, #291, #992 ) ) ;
#926 = CARTESIAN_POINT ( 'NONE',  ( 5.974195292295553905, -0.2313525518329657138, -8.028830871489587498E-16 ) ) ;
#927 = AXIS2_PLACEMENT_3D ( 'NONE', #768, #300, #795 ) ;
#928 = DIRECTION ( 'NONE',  ( 0.7431005017819711789, -0.08288428673721758011, -0.6640269868487616023 ) ) ;
#929 = PRESENTATION_LAYER_ASSIGNMENT (  '', '', ( #559 ) ) ;
#930 = UNCERTAINTY_MEASURE_WITH_UNIT (LENGTH_MEASURE( 1.000000000000000082E-05 ), #543, 'distance_accuracy_value', 'NONE');
#931 = ORIENTED_EDGE ( 'NONE', *, *, #906, .F. ) ;
#932 = PRESENTATION_LAYER_ASSIGNMENT (  '', '', ( #729 ) ) ;
#933 =( NAMED_UNIT ( * ) SI_UNIT ( $, .STERADIAN. ) SOLID_ANGLE_UNIT ( ) );
#934 = AXIS2_PLACEMENT_3D ( 'NONE', #321, #643, #311 ) ;
#935 = ORIENTED_EDGE ( 'NONE', *, *, #846, .F. ) ;
#936 =( NAMED_UNIT ( * ) PLANE_ANGLE_UNIT ( ) SI_UNIT ( $, .RADIAN. ) );
#937 = EDGE_CURVE ( 'NONE', #434, #672, #84, .T. ) ;
#938 = CARTESIAN_POINT ( 'NONE',  ( 1.949999999999999956, -0.2175000000000000266, -0.2174999999999999989 ) ) ;
#939 = EDGE_LOOP ( 'NONE', ( #278, #378, #541, #626 ) ) ;
#940 = CARTESIAN_POINT ( 'NONE',  ( 1.949999999999999956, 0.2174999999999999989, 0.2174999999999999711 ) ) ;
#941 = ADVANCED_FACE ( 'NONE', ( #95 ), #184, .T. ) ;
#942 = ORIENTED_EDGE ( 'NONE', *, *, #101, .T. ) ;
#943 = SURFACE_STYLE_FILL_AREA ( #471 ) ;
#944 = DIRECTION ( 'NONE',  ( 0.6663196743247736809, 0.7456662065614397816, 0.000000000000000000 ) ) ;
#945 = DIRECTION ( 'NONE',  ( -0.000000000000000000, 0.000000000000000000, 1.000000000000000000 ) ) ;
#946 = DIRECTION ( 'NONE',  ( 0.7456662065614396706, 0.6663196743247736809, 0.000000000000000000 ) ) ;
#947 = EDGE_CURVE ( 'NONE', #707, #281, #475, .T. ) ;
#948 = MECHANICAL_DESIGN_GEOMETRIC_PRESENTATION_REPRESENTATION (  '', ( #485 ), #526 ) ;
#949 = ORIENTED_EDGE ( 'NONE', *, *, #1002, .F. ) ;
#950 =( NAMED_UNIT ( * ) PLANE_ANGLE_UNIT ( ) SI_UNIT ( $, .RADIAN. ) );
#951 = MECHANICAL_DESIGN_GEOMETRIC_PRESENTATION_REPRESENTATION (  '', ( #729 ), #690 ) ;
#952 = CIRCLE ( 'NONE', #193, 1.749999999999999778 ) ;
#953 = FACE_BOUND ( 'NONE', #554, .T. ) ;
#954 = CARTESIAN_POINT ( 'NONE',  ( 0.9968214519863044520, 0.000000000000000000, 0.000000000000000000 ) ) ;
#955 = PRODUCT_DEFINITION_FORMATION_WITH_SPECIFIED_SOURCE ( 'ANY', '', #428, .NOT_KNOWN. ) ;
#956 = CARTESIAN_POINT ( 'NONE',  ( 2.193400286944045430, 0.1903515064562410486, 2.309278636184420884E-16 ) ) ;
#957 = DIRECTION ( 'NONE',  ( -1.000000000000000000, -0.000000000000000000, -0.000000000000000000 ) ) ;
#958 = DIRECTION ( 'NONE',  ( 0.9938370308809506559, 0.000000000000000000, 0.1108510534444137469 ) ) ;
#959 = ADVANCED_FACE ( 'NONE', ( #330 ), #739, .F. ) ;
#960 = CARTESIAN_POINT ( 'NONE',  ( -25.39999999999996305, 0.000000000000000000, 3.500000000000000444 ) ) ;
#961 = FILL_AREA_STYLE ('',( #105 ) ) ;
#962 = CARTESIAN_POINT ( 'NONE',  ( 2.214116351126373505, 0.1880408685282115300, 0.1880408685282121406 ) ) ;
#963 = DIRECTION ( 'NONE',  ( 0.000000000000000000, 0.000000000000000000, 1.000000000000000000 ) ) ;
#964 = PRESENTATION_STYLE_ASSIGNMENT (( #480 ) ) ;
#965 = LINE ( 'NONE', #20, #430 ) ;
#966 = COLOUR_RGB ( '',0.7764705882352941346, 0.7568627450980391913, 0.7372549019607843590 ) ;
#967 =( NAMED_UNIT ( * ) SI_UNIT ( $, .STERADIAN. ) SOLID_ANGLE_UNIT ( ) );
#968 = CARTESIAN_POINT ( 'NONE',  ( 0.9968214519863044520, 0.000000000000000000, 0.000000000000000000 ) ) ;
#969 = CIRCLE ( 'NONE', #633, 5.437518987584764929 ) ;
#970 = PRESENTATION_STYLE_ASSIGNMENT (( #989 ) ) ;
#971 =( NAMED_UNIT ( * ) PLANE_ANGLE_UNIT ( ) SI_UNIT ( $, .RADIAN. ) );
#972 = PRESENTATION_LAYER_ASSIGNMENT (  '', '', ( #758 ) ) ;
#973 = DIRECTION ( 'NONE',  ( -0.7456662065614396706, 0.000000000000000000, -0.6663196743247736809 ) ) ;
#974 = CARTESIAN_POINT ( 'NONE',  ( 2.193400286944045430, -4.336808689942017736E-16, -0.1903515064562410486 ) ) ;
#975 = FILL_AREA_STYLE ('',( #344 ) ) ;
#976 = LINE ( 'NONE', #331, #508 ) ;
#977 = EDGE_CURVE ( 'NONE', #477, #845, #969, .T. ) ;
#978 = SURFACE_STYLE_USAGE ( .BOTH. , #266 ) ;
#979 = SURFACE_STYLE_FILL_AREA ( #429 ) ;
#980 = SURFACE_STYLE_FILL_AREA ( #48 ) ;
#981 = MECHANICAL_DESIGN_GEOMETRIC_PRESENTATION_REPRESENTATION (  '', ( #181 ), #445 ) ;
#982 = AXIS2_PLACEMENT_3D ( 'NONE', #791, #944, #694 ) ;
#983 = COLOUR_RGB ( '',0.7764705882352941346, 0.7568627450980391913, 0.7372549019607843590 ) ;
#984 = MECHANICAL_DESIGN_GEOMETRIC_PRESENTATION_REPRESENTATION (  '', ( #758 ), #515 ) ;
#985 = PRESENTATION_STYLE_ASSIGNMENT (( #662 ) ) ;
#986 = ORIENTED_EDGE ( 'NONE', *, *, #217, .T. ) ;
#987 = CARTESIAN_POINT ( 'NONE',  ( 0.03111693966988560850, 0.4315292644214372975, -0.4315292644214357431 ) ) ;
#988 = EDGE_CURVE ( 'NONE', #437, #295, #804, .T. ) ;
#989 = SURFACE_STYLE_USAGE ( .BOTH. , #654 ) ;
#990 = DIRECTION ( 'NONE',  ( 0.000000000000000000, 0.000000000000000000, 1.000000000000000000 ) ) ;
#991 = ORIENTED_EDGE ( 'NONE', *, *, #801, .T. ) ;
#992 = ORIENTED_EDGE ( 'NONE', *, *, #805, .F. ) ;
#993 =( NAMED_UNIT ( * ) SI_UNIT ( $, .STERADIAN. ) SOLID_ANGLE_UNIT ( ) );
#994 =( NAMED_UNIT ( * ) SI_UNIT ( $, .STERADIAN. ) SOLID_ANGLE_UNIT ( ) );
#995 = FILL_AREA_STYLE_COLOUR ( '', #383 ) ;
#996 =( LENGTH_UNIT ( ) NAMED_UNIT ( * ) SI_UNIT ( .MILLI., .METRE. ) );
#997 = EDGE_LOOP ( 'NONE', ( #60, #676, #705 ) ) ;
#998 = CIRCLE ( 'NONE', #774, 5.437518987584765817 ) ;
#999 = MECHANICAL_DESIGN_GEOMETRIC_PRESENTATION_REPRESENTATION (  '', ( #831 ), #356 ) ;
#1000 = PRESENTATION_LAYER_ASSIGNMENT (  '', '', ( #419 ) ) ;
#1001 = DIRECTION ( 'NONE',  ( 0.9938370308809507669, -0.1108510534444137746, 0.000000000000000000 ) ) ;
#1002 = EDGE_CURVE ( 'NONE', #538, #707, #126, .T. ) ;
#1003 = CARTESIAN_POINT ( 'NONE',  ( 1.949999999999999956, 0.2174999999999999989, 0.2174999999999999711 ) ) ;
#1004 = COLOUR_RGB ( '',0.7921568627450980005, 0.8196078431372548767, 0.9333333333333333481 ) ;
#1005 = EDGE_LOOP ( 'NONE', ( #162, #986, #78, #303, #132 ) ) ;
#1006 = DIRECTION ( 'NONE',  ( 0.000000000000000000, 0.000000000000000000, 1.000000000000000000 ) ) ;
#1007 = CARTESIAN_POINT ( 'NONE',  ( 1.347043950347265318, 0.000000000000000000, 3.500000000000000444 ) ) ;
#1008 = ADVANCED_FACE ( 'NONE', ( #736 ), #187, .T. ) ;
#1009 = EDGE_LOOP ( 'NONE', ( #456, #609, #147 ) ) ;
#1010 = ORIENTED_EDGE ( 'NONE', *, *, #530, .F. ) ;
#1011 = LINE ( 'NONE', #385, #827 ) ;
#1012 = ORIENTED_EDGE ( 'NONE', *, *, #906, .T. ) ;
#1013 = ADVANCED_FACE ( 'NONE', ( #893 ), #40, .T. ) ;
#1014 = ORIENTED_EDGE ( 'NONE', *, *, #103, .F. ) ;
#1015 = FILL_AREA_STYLE_COLOUR ( '', #284 ) ;
#1016 = PRESENTATION_STYLE_ASSIGNMENT (( #9 ) ) ;
#1017 = PRESENTATION_LAYER_ASSIGNMENT (  '', '', ( #828 ) ) ;
#1018 = UNCERTAINTY_MEASURE_WITH_UNIT (LENGTH_MEASURE( 1.000000000000000082E-05 ), #885, 'distance_accuracy_value', 'NONE');
#1019 = VERTEX_POINT ( 'NONE', #708 ) ;
#1020 = AXIS2_PLACEMENT_3D ( 'NONE', #842, #296, #836 ) ;
#1021 = AXIS2_PLACEMENT_3D ( 'NONE', #540, #1, #89 ) ;
#1022 = DIRECTION ( 'NONE',  ( -0.7456662065614397816, 0.6663196743247735698, 0.000000000000000000 ) ) ;
#1023 = EDGE_CURVE ( 'NONE', #215, #5, #328, .T. ) ;
#1024 = SURFACE_STYLE_USAGE ( .BOTH. , #786 ) ;
#1025 = PRODUCT_CONTEXT ( 'NONE', #245, 'mechanical' ) ;
ENDSEC;
END-ISO-10303-21;
