ISO-10303-21;
HEADER;
FILE_DESCRIPTION (( 'STEP AP214' ),
    '1' );
FILE_NAME ('M3.5 x 10 Screw head.STEP',
    '2023-03-28T04:22:11',
    ( '' ),
    ( '' ),
    'SwSTEP 2.0',
    'SolidWorks 2022',
    '' );
FILE_SCHEMA (( 'AUTOMOTIVE_DESIGN' ));
ENDSEC;

DATA;
#1 = ORIENTED_EDGE ( 'NONE', *, *, #111, .F. ) ;
#2 = PRESENTATION_STYLE_ASSIGNMENT (( #411 ) ) ;
#3 = VERTEX_POINT ( 'NONE', #440 ) ;
#4 = SURFACE_STYLE_FILL_AREA ( #422 ) ;
#5 = SPHERICAL_SURFACE ( 'NONE', #907, 6.000000000000000000 ) ;
#6 = EDGE_CURVE ( 'NONE', #22, #413, #888, .T. ) ;
#7 = ORIENTED_EDGE ( 'NONE', *, *, #768, .T. ) ;
#8 =( LENGTH_UNIT ( ) NAMED_UNIT ( * ) SI_UNIT ( .MILLI., .METRE. ) );
#9 =( GEOMETRIC_REPRESENTATION_CONTEXT ( 3 ) GLOBAL_UNCERTAINTY_ASSIGNED_CONTEXT ( ( #558 ) ) GLOBAL_UNIT_ASSIGNED_CONTEXT ( ( #858, #306, #929 ) ) REPRESENTATION_CONTEXT ( 'NONE', 'WORKASPACE' ) );
#10 = ORIENTED_EDGE ( 'NONE', *, *, #891, .F. ) ;
#11 = TOROIDAL_SURFACE ( 'NONE', #1023, 3.080000000000000515, 0.4200000000000000400 ) ;
#12 = VECTOR ( 'NONE', #956, 1000.000000000000000 ) ;
#13 = SURFACE_STYLE_FILL_AREA ( #148 ) ;
#14 = ORIENTED_EDGE ( 'NONE', *, *, #593, .F. ) ;
#15 = PLANE ( 'NONE',  #1020 ) ;
#16 = FILL_AREA_STYLE ('',( #359 ) ) ;
#17 = DIRECTION ( 'NONE',  ( -1.000000000000000000, -0.000000000000000000, -0.000000000000000000 ) ) ;
#18 = FACE_OUTER_BOUND ( 'NONE', #407, .T. ) ;
#19 = DIRECTION ( 'NONE',  ( -1.000000000000000000, -0.000000000000000000, -0.000000000000000000 ) ) ;
#20 = DIRECTION ( 'NONE',  ( 0.000000000000000000, 0.000000000000000000, 1.000000000000000000 ) ) ;
#21 = AXIS2_PLACEMENT_3D ( 'NONE', #747, #44, #904 ) ;
#22 = VERTEX_POINT ( 'NONE', #105 ) ;
#23 = SURFACE_SIDE_STYLE ('',( #894 ) ) ;
#24 = PRESENTATION_LAYER_ASSIGNMENT (  '', '', ( #42 ) ) ;
#25 = VECTOR ( 'NONE', #210, 1000.000000000000000 ) ;
#26 = COLOUR_RGB ( '',0.7764705882352941346, 0.7568627450980391913, 0.7372549019607843590 ) ;
#27 = DIRECTION ( 'NONE',  ( -1.000000000000000000, -0.000000000000000000, -0.000000000000000000 ) ) ;
#28 = DIRECTION ( 'NONE',  ( 0.000000000000000000, 0.000000000000000000, 1.000000000000000000 ) ) ;
#29 =( GEOMETRIC_REPRESENTATION_CONTEXT ( 3 ) GLOBAL_UNCERTAINTY_ASSIGNED_CONTEXT ( ( #340 ) ) GLOBAL_UNIT_ASSIGNED_CONTEXT ( ( #786, #71, #169 ) ) REPRESENTATION_CONTEXT ( 'NONE', 'WORKASPACE' ) );
#30 = CARTESIAN_POINT ( 'NONE',  ( 0.2666411873824114376, -0.4052592521765708278, -1.721732169736487128 ) ) ;
#31 = CARTESIAN_POINT ( 'NONE',  ( 0.9968214519863044520, -3.311827956989247035, -4.055819506853600563E-16 ) ) ;
#32 = DIRECTION ( 'NONE',  ( -0.7456662065614396706, 0.6663196743247736809, 0.000000000000000000 ) ) ;
#33 = CARTESIAN_POINT ( 'NONE',  ( 1.949999999999999956, 0.2174999999999999989, 0.2174999999999999156 ) ) ;
#34 = SURFACE_STYLE_USAGE ( .BOTH. , #756 ) ;
#35 = ADVANCED_FACE ( 'NONE', ( #18 ), #506, .T. ) ;
#36 = CARTESIAN_POINT ( 'NONE',  ( 2.193400286944045430, -0.1903515064562409931, -2.309278636184418912E-16 ) ) ;
#37 = DIRECTION ( 'NONE',  ( -1.000000000000000000, -0.000000000000000000, -0.000000000000000000 ) ) ;
#38 = LINE ( 'NONE', #459, #510 ) ;
#39 = LINE ( 'NONE', #1009, #77 ) ;
#40 = CIRCLE ( 'NONE', #759, 5.995482475482741158 ) ;
#41 = ORIENTED_EDGE ( 'NONE', *, *, #491, .F. ) ;
#42 = STYLED_ITEM ( 'NONE', ( #836 ), #277 ) ;
#43 = MECHANICAL_DESIGN_GEOMETRIC_PRESENTATION_REPRESENTATION (  '', ( #746 ), #997 ) ;
#44 = DIRECTION ( 'NONE',  ( 0.6663196743247736809, 0.7456662065614397816, 0.000000000000000000 ) ) ;
#45 = STYLED_ITEM ( 'NONE', ( #565 ), #605 ) ;
#46 = PLANE ( 'NONE',  #983 ) ;
#47 = CARTESIAN_POINT ( 'NONE',  ( 2.599999999999998312, 0.000000000000000000, 3.500000000000000000 ) ) ;
#48 = VERTEX_POINT ( 'NONE', #31 ) ;
#49 = EDGE_CURVE ( 'NONE', #313, #222, #211, .T. ) ;
#50 =( NAMED_UNIT ( * ) SI_UNIT ( $, .STERADIAN. ) SOLID_ANGLE_UNIT ( ) );
#51 = DIRECTION ( 'NONE',  ( 0.000000000000000000, 0.000000000000000000, -1.000000000000000000 ) ) ;
#52 = ORIENTED_EDGE ( 'NONE', *, *, #1019, .T. ) ;
#53 = FACE_OUTER_BOUND ( 'NONE', #718, .T. ) ;
#54 =( LENGTH_UNIT ( ) NAMED_UNIT ( * ) SI_UNIT ( .MILLI., .METRE. ) );
#55 =( LENGTH_UNIT ( ) NAMED_UNIT ( * ) SI_UNIT ( .MILLI., .METRE. ) );
#56 =( NAMED_UNIT ( * ) SI_UNIT ( $, .STERADIAN. ) SOLID_ANGLE_UNIT ( ) );
#57 = ORIENTED_EDGE ( 'NONE', *, *, #473, .F. ) ;
#58 = AXIS2_PLACEMENT_3D ( 'NONE', #209, #556, #508 ) ;
#59 = FILL_AREA_STYLE ('',( #383 ) ) ;
#60 =( GEOMETRIC_REPRESENTATION_CONTEXT ( 3 ) GLOBAL_UNCERTAINTY_ASSIGNED_CONTEXT ( ( #783 ) ) GLOBAL_UNIT_ASSIGNED_CONTEXT ( ( #519, #87, #712 ) ) REPRESENTATION_CONTEXT ( 'NONE', 'WORKASPACE' ) );
#61 = LINE ( 'NONE', #281, #147 ) ;
#62 = DIRECTION ( 'NONE',  ( 0.6663196743247736809, 2.696405268330496226E-15, -0.7456662065614397816 ) ) ;
#63 =( NAMED_UNIT ( * ) PLANE_ANGLE_UNIT ( ) SI_UNIT ( $, .RADIAN. ) );
#64 =( GEOMETRIC_REPRESENTATION_CONTEXT ( 3 ) GLOBAL_UNCERTAINTY_ASSIGNED_CONTEXT ( ( #151 ) ) GLOBAL_UNIT_ASSIGNED_CONTEXT ( ( #287, #606, #1005 ) ) REPRESENTATION_CONTEXT ( 'NONE', 'WORKASPACE' ) );
#65 = EDGE_LOOP ( 'NONE', ( #872, #884, #700, #184, #1 ) ) ;
#66 = PRESENTATION_STYLE_ASSIGNMENT (( #311 ) ) ;
#67 = ORIENTED_EDGE ( 'NONE', *, *, #111, .T. ) ;
#68 = EDGE_CURVE ( 'NONE', #152, #588, #974, .T. ) ;
#69 = CARTESIAN_POINT ( 'NONE',  ( 0.9968214519863044520, 0.000000000000000000, 0.000000000000000000 ) ) ;
#70 = ORIENTED_EDGE ( 'NONE', *, *, #503, .F. ) ;
#71 =( NAMED_UNIT ( * ) PLANE_ANGLE_UNIT ( ) SI_UNIT ( $, .RADIAN. ) );
#72 = DIRECTION ( 'NONE',  ( -0.1108510534444137469, -0.9938370308809506559, -3.448999966305766196E-15 ) ) ;
#73 = ORIENTED_EDGE ( 'NONE', *, *, #885, .F. ) ;
#74 = ADVANCED_FACE ( 'NONE', ( #965, #187 ), #279, .F. ) ;
#75 = FILL_AREA_STYLE_COLOUR ( '', #879 ) ;
#76 = MECHANICAL_DESIGN_GEOMETRIC_PRESENTATION_REPRESENTATION (  '', ( #590 ), #731 ) ;
#77 = VECTOR ( 'NONE', #372, 1000.000000000000000 ) ;
#78 = CIRCLE ( 'NONE', #418, 5.995482475482740270 ) ;
#79 = ORIENTED_EDGE ( 'NONE', *, *, #750, .T. ) ;
#80 = EDGE_CURVE ( 'NONE', #246, #84, #40, .T. ) ;
#81 = DIRECTION ( 'NONE',  ( -0.000000000000000000, 0.000000000000000000, -1.000000000000000000 ) ) ;
#82 = DIRECTION ( 'NONE',  ( -1.000000000000000000, -0.000000000000000000, -0.000000000000000000 ) ) ;
#83 = UNCERTAINTY_MEASURE_WITH_UNIT (LENGTH_MEASURE( 1.000000000000000082E-05 ), #743, 'distance_accuracy_value', 'NONE');
#84 = VERTEX_POINT ( 'NONE', #469 ) ;
#85 = DIRECTION ( 'NONE',  ( -1.000000000000000000, -0.000000000000000000, -0.000000000000000000 ) ) ;
#86 = ORIENTED_EDGE ( 'NONE', *, *, #225, .F. ) ;
#87 =( NAMED_UNIT ( * ) PLANE_ANGLE_UNIT ( ) SI_UNIT ( $, .RADIAN. ) );
#88 = SURFACE_SIDE_STYLE ('',( #13 ) ) ;
#89 = DIRECTION ( 'NONE',  ( 0.6663196743247735698, 2.696405268330496621E-15, -0.7456662065614397816 ) ) ;
#90 = MANIFOLD_SOLID_BREP ( 'Move Face1', #176 ) ;
#91 = AXIS2_PLACEMENT_3D ( 'NONE', #967, #27, #914 ) ;
#92 = CIRCLE ( 'NONE', #680, 0.4199999999999998179 ) ;
#93 = ORIENTED_EDGE ( 'NONE', *, *, #49, .T. ) ;
#94 = CIRCLE ( 'NONE', #499, 5.995482475482740270 ) ;
#95 = FILL_AREA_STYLE_COLOUR ( '', #766 ) ;
#96 = SURFACE_STYLE_USAGE ( .BOTH. , #346 ) ;
#97 = ORIENTED_EDGE ( 'NONE', *, *, #491, .T. ) ;
#98 = ADVANCED_FACE ( 'NONE', ( #118 ), #770, .T. ) ;
#99 = DIRECTION ( 'NONE',  ( -1.000000000000000000, -0.000000000000000000, -0.000000000000000000 ) ) ;
#100 = CARTESIAN_POINT ( 'NONE',  ( 0.2666411873824114376, 1.721732169736486240, -0.4052592521765773226 ) ) ;
#101 = DIRECTION ( 'NONE',  ( -1.000000000000000000, -0.000000000000000000, -0.000000000000000000 ) ) ;
#102 =( NAMED_UNIT ( * ) SI_UNIT ( $, .STERADIAN. ) SOLID_ANGLE_UNIT ( ) );
#103 = AXIS2_PLACEMENT_3D ( 'NONE', #851, #371, #390 ) ;
#104 = AXIS2_PLACEMENT_3D ( 'NONE', #36, #109, #975 ) ;
#105 = CARTESIAN_POINT ( 'NONE',  ( 0.2666411873824114376, 0.4052592521765831513, -1.721732169736484019 ) ) ;
#106 = VECTOR ( 'NONE', #585, 999.9999999999998863 ) ;
#107 = AXIS2_PLACEMENT_3D ( 'NONE', #350, #970, #365 ) ;
#108 = STYLED_ITEM ( 'NONE', ( #122 ), #855 ) ;
#109 = DIRECTION ( 'NONE',  ( -0.1108510534444136914, 0.9938370308809506559, 3.595744332370143179E-15 ) ) ;
#110 = PRESENTATION_LAYER_ASSIGNMENT (  '', '', ( #150 ) ) ;
#111 = EDGE_CURVE ( 'NONE', #246, #168, #251, .T. ) ;
#112 = CARTESIAN_POINT ( 'NONE',  ( 1.347043950347263763, 0.000000000000000000, 0.000000000000000000 ) ) ;
#113 = ORIENTED_EDGE ( 'NONE', *, *, #304, .F. ) ;
#114 = DIRECTION ( 'NONE',  ( -0.000000000000000000, 0.000000000000000000, -1.000000000000000000 ) ) ;
#115 = DIRECTION ( 'NONE',  ( -1.000000000000000000, -0.000000000000000000, -0.000000000000000000 ) ) ;
#116 = PRESENTATION_STYLE_ASSIGNMENT (( #713 ) ) ;
#117 = CARTESIAN_POINT ( 'NONE',  ( 0.000000000000000000, 0.4349999999999932254, 1.960000000000001741 ) ) ;
#118 = FACE_OUTER_BOUND ( 'NONE', #619, .T. ) ;
#119 = ORIENTED_EDGE ( 'NONE', *, *, #891, .T. ) ;
#120 = DIRECTION ( 'NONE',  ( 0.9938370308809507669, 0.000000000000000000, 0.1108510534444137746 ) ) ;
#121 = CARTESIAN_POINT ( 'NONE',  ( 2.214116351126373505, -0.1880408685282114467, -0.1880408685282121684 ) ) ;
#122 = PRESENTATION_STYLE_ASSIGNMENT (( #679 ) ) ;
#123 = DIRECTION ( 'NONE',  ( -0.1108510534444137469, -0.9938370308809506559, -3.448999966305766196E-15 ) ) ;
#124 = ORIENTED_EDGE ( 'NONE', *, *, #291, .F. ) ;
#125 = EDGE_CURVE ( 'NONE', #723, #22, #140, .T. ) ;
#126 = STYLED_ITEM ( 'NONE', ( #702 ), #349 ) ;
#127 = MECHANICAL_DESIGN_GEOMETRIC_PRESENTATION_REPRESENTATION (  '', ( #878 ), #375 ) ;
#128 = SURFACE_SIDE_STYLE ('',( #911 ) ) ;
#129 = DIRECTION ( 'NONE',  ( 0.9938370308809506559, -0.1108510534444137469, -3.870343844922734420E-16 ) ) ;
#130 = ORIENTED_EDGE ( 'NONE', *, *, #563, .F. ) ;
#131 = CARTESIAN_POINT ( 'NONE',  ( 2.193400286944045430, -4.336808689942017736E-16, -0.1903515064562410486 ) ) ;
#132 =( LENGTH_UNIT ( ) NAMED_UNIT ( * ) SI_UNIT ( .MILLI., .METRE. ) );
#133 = CARTESIAN_POINT ( 'NONE',  ( 1.949999999999999956, 0.2174999999999999989, 0.2174999999999999711 ) ) ;
#134 = UNCERTAINTY_MEASURE_WITH_UNIT (LENGTH_MEASURE( 1.000000000000000082E-05 ), #132, 'distance_accuracy_value', 'NONE');
#135 = ORIENTED_EDGE ( 'NONE', *, *, #815, .T. ) ;
#136 = SURFACE_STYLE_FILL_AREA ( #395 ) ;
#137 = CARTESIAN_POINT ( 'NONE',  ( 4.309938594911940868, 1.891316923914901471, 2.356976916973721757E-16 ) ) ;
#138 = CARTESIAN_POINT ( 'NONE',  ( 5.974195292295553905, 0.2313525518329656860, 8.370432990360215258E-16 ) ) ;
#139 = ORIENTED_EDGE ( 'NONE', *, *, #473, .T. ) ;
#140 = CIRCLE ( 'NONE', #369, 5.437518987584765817 ) ;
#141 = CIRCLE ( 'NONE', #21, 5.437518987584765817 ) ;
#142 =( LENGTH_UNIT ( ) NAMED_UNIT ( * ) SI_UNIT ( .MILLI., .METRE. ) );
#143 = ORIENTED_EDGE ( 'NONE', *, *, #593, .T. ) ;
#144 = CIRCLE ( 'NONE', #283, 1.749999999999999778 ) ;
#145 = AXIS2_PLACEMENT_3D ( 'NONE', #264, #892, #20 ) ;
#146 = EDGE_CURVE ( 'NONE', #393, #429, #614, .T. ) ;
#147 = VECTOR ( 'NONE', #216, 1000.000000000000114 ) ;
#148 = FILL_AREA_STYLE ('',( #267 ) ) ;
#149 = DIRECTION ( 'NONE',  ( 0.000000000000000000, 0.000000000000000000, 1.000000000000000000 ) ) ;
#150 = STYLED_ITEM ( 'NONE', ( #116 ), #727 ) ;
#151 = UNCERTAINTY_MEASURE_WITH_UNIT (LENGTH_MEASURE( 1.000000000000000082E-05 ), #287, 'distance_accuracy_value', 'NONE');
#152 = VERTEX_POINT ( 'NONE', #738 ) ;
#153 = FACE_OUTER_BOUND ( 'NONE', #937, .T. ) ;
#154 = EDGE_LOOP ( 'NONE', ( #711, #448, #14, #657 ) ) ;
#155 = SURFACE_STYLE_FILL_AREA ( #554 ) ;
#156 =( LENGTH_UNIT ( ) NAMED_UNIT ( * ) SI_UNIT ( .MILLI., .METRE. ) );
#157 = EDGE_LOOP ( 'NONE', ( #841, #226, #326 ) ) ;
#158 = CARTESIAN_POINT ( 'NONE',  ( 0.2666411873824114376, 0.4052592521765713274, 1.721732169736487794 ) ) ;
#159 = FACE_OUTER_BOUND ( 'NONE', #154, .T. ) ;
#160 = UNCERTAINTY_MEASURE_WITH_UNIT (LENGTH_MEASURE( 1.000000000000000082E-05 ), #55, 'distance_accuracy_value', 'NONE');
#161 = ORIENTED_EDGE ( 'NONE', *, *, #125, .T. ) ;
#162 = ADVANCED_FACE ( 'NONE', ( #864 ), #398, .T. ) ;
#163 =( GEOMETRIC_REPRESENTATION_CONTEXT ( 3 ) GLOBAL_UNCERTAINTY_ASSIGNED_CONTEXT ( ( #774 ) ) GLOBAL_UNIT_ASSIGNED_CONTEXT ( ( #787, #629, #890 ) ) REPRESENTATION_CONTEXT ( 'NONE', 'WORKASPACE' ) );
#164 =( NAMED_UNIT ( * ) PLANE_ANGLE_UNIT ( ) SI_UNIT ( $, .RADIAN. ) );
#165 = STYLED_ITEM ( 'NONE', ( #617 ), #514 ) ;
#166 = COLOUR_RGB ( '',0.7764705882352941346, 0.7568627450980391913, 0.7372549019607843590 ) ;
#167 =( NAMED_UNIT ( * ) PLANE_ANGLE_UNIT ( ) SI_UNIT ( $, .RADIAN. ) );
#168 = VERTEX_POINT ( 'NONE', #703 ) ;
#169 =( NAMED_UNIT ( * ) SI_UNIT ( $, .STERADIAN. ) SOLID_ANGLE_UNIT ( ) );
#170 =( LENGTH_UNIT ( ) NAMED_UNIT ( * ) SI_UNIT ( .MILLI., .METRE. ) );
#171 = UNCERTAINTY_MEASURE_WITH_UNIT (LENGTH_MEASURE( 1.000000000000000082E-05 ), #54, 'distance_accuracy_value', 'NONE');
#172 = ORIENTED_EDGE ( 'NONE', *, *, #1000, .T. ) ;
#173 = FILL_AREA_STYLE ('',( #95 ) ) ;
#174 = FACE_OUTER_BOUND ( 'NONE', #353, .T. ) ;
#175 = VERTEX_POINT ( 'NONE', #1008 ) ;
#176 = CLOSED_SHELL ( 'NONE', ( #190, #349, #35, #428, #897, #605, #336, #855, #188, #162, #74, #455, #685, #923, #737, #971, #789, #961, #277, #514, #673, #98, #316 ) ) ;
#177 = SURFACE_STYLE_FILL_AREA ( #709 ) ;
#178 = DIRECTION ( 'NONE',  ( 0.7456662065614397816, -2.326442708608981349E-15, 0.6663196743247735698 ) ) ;
#179 =( GEOMETRIC_REPRESENTATION_CONTEXT ( 3 ) GLOBAL_UNCERTAINTY_ASSIGNED_CONTEXT ( ( #83 ) ) GLOBAL_UNIT_ASSIGNED_CONTEXT ( ( #743, #550, #454 ) ) REPRESENTATION_CONTEXT ( 'NONE', 'WORKASPACE' ) );
#180 =( LENGTH_UNIT ( ) NAMED_UNIT ( * ) SI_UNIT ( .MILLI., .METRE. ) );
#181 = PRESENTATION_LAYER_ASSIGNMENT (  '', '', ( #932 ) ) ;
#182 = EDGE_CURVE ( 'NONE', #222, #456, #479, .T. ) ;
#183 =( GEOMETRIC_REPRESENTATION_CONTEXT ( 3 ) GLOBAL_UNCERTAINTY_ASSIGNED_CONTEXT ( ( #329 ) ) GLOBAL_UNIT_ASSIGNED_CONTEXT ( ( #142, #401, #797 ) ) REPRESENTATION_CONTEXT ( 'NONE', 'WORKASPACE' ) );
#184 = ORIENTED_EDGE ( 'NONE', *, *, #768, .F. ) ;
#185 = VECTOR ( 'NONE', #37, 1000.000000000000000 ) ;
#186 = LINE ( 'NONE', #887, #526 ) ;
#187 = FACE_BOUND ( 'NONE', #219, .T. ) ;
#188 = ADVANCED_FACE ( 'NONE', ( #485 ), #15, .T. ) ;
#189 = SURFACE_STYLE_FILL_AREA ( #899 ) ;
#190 = ADVANCED_FACE ( 'NONE', ( #941 ), #745, .T. ) ;
#191 = SURFACE_SIDE_STYLE ('',( #446 ) ) ;
#192 = PRESENTATION_LAYER_ASSIGNMENT (  '', '', ( #444 ) ) ;
#193 = SURFACE_STYLE_FILL_AREA ( #586 ) ;
#194 = AXIS2_PLACEMENT_3D ( 'NONE', #980, #99, #457 ) ;
#195 = ORIENTED_EDGE ( 'NONE', *, *, #806, .T. ) ;
#196 = AXIS2_PLACEMENT_3D ( 'NONE', #518, #583, #361 ) ;
#197 = MECHANICAL_DESIGN_GEOMETRIC_PRESENTATION_REPRESENTATION (  '', ( #982 ), #666 ) ;
#198 =( GEOMETRIC_REPRESENTATION_CONTEXT ( 3 ) GLOBAL_UNCERTAINTY_ASSIGNED_CONTEXT ( ( #439 ) ) GLOBAL_UNIT_ASSIGNED_CONTEXT ( ( #882, #164, #646 ) ) REPRESENTATION_CONTEXT ( 'NONE', 'WORKASPACE' ) );
#199 = EDGE_CURVE ( 'NONE', #175, #382, #678, .T. ) ;
#200 =( NAMED_UNIT ( * ) PLANE_ANGLE_UNIT ( ) SI_UNIT ( $, .RADIAN. ) );
#201 = AXIS2_PLACEMENT_3D ( 'NONE', #430, #258, #644 ) ;
#202 = DIRECTION ( 'NONE',  ( -0.1108510534444136914, 1.257808851980383614E-16, -0.9938370308809506559 ) ) ;
#203 = SURFACE_SIDE_STYLE ('',( #834 ) ) ;
#204 = LINE ( 'NONE', #445, #269 ) ;
#205 = FILL_AREA_STYLE_COLOUR ( '', #166 ) ;
#206 = ORIENTED_EDGE ( 'NONE', *, *, #575, .F. ) ;
#207 = CARTESIAN_POINT ( 'NONE',  ( 5.974195292295553905, 2.375629221075779134E-16, 0.2313525518329657416 ) ) ;
#208 = DIRECTION ( 'NONE',  ( 0.000000000000000000, 0.000000000000000000, 1.000000000000000000 ) ) ;
#209 = CARTESIAN_POINT ( 'NONE',  ( 4.309938594911940868, 6.836180637525074799E-15, -1.891316923914901693 ) ) ;
#210 = DIRECTION ( 'NONE',  ( 0.000000000000000000, 1.000000000000000000, 6.231046968307495628E-17 ) ) ;
#211 = CIRCLE ( 'NONE', #196, 3.500000000000000444 ) ;
#212 = ORIENTED_EDGE ( 'NONE', *, *, #325, .F. ) ;
#213 = PRESENTATION_LAYER_ASSIGNMENT (  '', '', ( #863 ) ) ;
#214 = CIRCLE ( 'NONE', #698, 5.995482475482741158 ) ;
#215 = VECTOR ( 'NONE', #596, 1000.000000000000000 ) ;
#216 = DIRECTION ( 'NONE',  ( 0.9877866216249069353, 0.1101762001043169042, -0.1101762001043164879 ) ) ;
#217 = CIRCLE ( 'NONE', #257, 3.311827956989247479 ) ;
#218 = DIRECTION ( 'NONE',  ( 0.000000000000000000, -1.000000000000000000, 0.000000000000000000 ) ) ;
#219 = EDGE_LOOP ( 'NONE', ( #420, #918 ) ) ;
#220 =( NAMED_UNIT ( * ) PLANE_ANGLE_UNIT ( ) SI_UNIT ( $, .RADIAN. ) );
#221 = UNCERTAINTY_MEASURE_WITH_UNIT (LENGTH_MEASURE( 1.000000000000000082E-05 ), #600, 'distance_accuracy_value', 'NONE');
#222 = VERTEX_POINT ( 'NONE', #280 ) ;
#223 =( NAMED_UNIT ( * ) SI_UNIT ( $, .STERADIAN. ) SOLID_ANGLE_UNIT ( ) );
#224 = CYLINDRICAL_SURFACE ( 'NONE', #433, 3.500000000000000444 ) ;
#225 = EDGE_CURVE ( 'NONE', #256, #693, #204, .T. ) ;
#226 = ORIENTED_EDGE ( 'NONE', *, *, #503, .T. ) ;
#227 = CARTESIAN_POINT ( 'NONE',  ( 0.000000000000000000, 1.959999999999999964, 0.4350000000000001088 ) ) ;
#228 = CARTESIAN_POINT ( 'NONE',  ( 1.347043950347263763, 3.771912141373848894E-16, -3.080000000000000515 ) ) ;
#229 = EDGE_LOOP ( 'NONE', ( #57, #848, #805, #541 ) ) ;
#230 =( NAMED_UNIT ( * ) PLANE_ANGLE_UNIT ( ) SI_UNIT ( $, .RADIAN. ) );
#231 = PLANE ( 'NONE',  #315 ) ;
#232 = ORIENTED_EDGE ( 'NONE', *, *, #225, .T. ) ;
#233 = STYLED_ITEM ( 'NONE', ( #880 ), #428 ) ;
#234 = SURFACE_STYLE_FILL_AREA ( #417 ) ;
#235 =( GEOMETRIC_REPRESENTATION_CONTEXT ( 3 ) GLOBAL_UNCERTAINTY_ASSIGNED_CONTEXT ( ( #587 ) ) GLOBAL_UNIT_ASSIGNED_CONTEXT ( ( #568, #167, #494 ) ) REPRESENTATION_CONTEXT ( 'NONE', 'WORKASPACE' ) );
#236 = PRESENTATION_LAYER_ASSIGNMENT (  '', '', ( #867 ) ) ;
#237 = SURFACE_STYLE_USAGE ( .BOTH. , #564 ) ;
#238 = CARTESIAN_POINT ( 'NONE',  ( 6.000000000000000000, 2.326828918379972351E-16, 0.000000000000000000 ) ) ;
#239 = ORIENTED_EDGE ( 'NONE', *, *, #49, .F. ) ;
#240 = LINE ( 'NONE', #905, #512 ) ;
#241 = DIRECTION ( 'NONE',  ( 0.9938370308809506559, 0.000000000000000000, 0.1108510534444137469 ) ) ;
#242 = FILL_AREA_STYLE_COLOUR ( '', #496 ) ;
#243 = SURFACE_SIDE_STYLE ('',( #653 ) ) ;
#244 = EDGE_CURVE ( 'NONE', #437, #464, #414, .T. ) ;
#245 = ORIENTED_EDGE ( 'NONE', *, *, #389, .F. ) ;
#246 = VERTEX_POINT ( 'NONE', #663 ) ;
#247 = FILL_AREA_STYLE ('',( #312 ) ) ;
#248 = ORIENTED_EDGE ( 'NONE', *, *, #978, .F. ) ;
#249 = EDGE_CURVE ( 'NONE', #437, #175, #141, .T. ) ;
#250 = SURFACE_STYLE_USAGE ( .BOTH. , #327 ) ;
#251 = CIRCLE ( 'NONE', #824, 5.437518987584764929 ) ;
#252 = SURFACE_SIDE_STYLE ('',( #234 ) ) ;
#253 = COLOUR_RGB ( '',0.7764705882352941346, 0.7568627450980391913, 0.7372549019607843590 ) ;
#254 = SURFACE_STYLE_FILL_AREA ( #883 ) ;
#255 = MECHANICAL_DESIGN_GEOMETRIC_PRESENTATION_REPRESENTATION (  '', ( #867 ), #198 ) ;
#256 = VERTEX_POINT ( 'NONE', #831 ) ;
#257 = AXIS2_PLACEMENT_3D ( 'NONE', #741, #274, #28 ) ;
#258 = DIRECTION ( 'NONE',  ( 0.000000000000000000, 0.000000000000000000, 1.000000000000000000 ) ) ;
#259 = CARTESIAN_POINT ( 'NONE',  ( 1.949999999999999956, 0.2175000000000007205, -0.2174999999999992772 ) ) ;
#260 = UNCERTAINTY_MEASURE_WITH_UNIT (LENGTH_MEASURE( 1.000000000000000082E-05 ), #441, 'distance_accuracy_value', 'NONE');
#261 = FILL_AREA_STYLE ('',( #807 ) ) ;
#262 = CARTESIAN_POINT ( 'NONE',  ( 0.000000000000000000, -0.4349999999999927813, -1.960000000000001741 ) ) ;
#263 = EDGE_CURVE ( 'NONE', #3, #256, #557, .T. ) ;
#264 = CARTESIAN_POINT ( 'NONE',  ( 2.599999999999998312, 0.000000000000000000, 0.000000000000000000 ) ) ;
#265 = ORIENTED_EDGE ( 'NONE', *, *, #244, .T. ) ;
#266 =( GEOMETRIC_REPRESENTATION_CONTEXT ( 3 ) GLOBAL_UNCERTAINTY_ASSIGNED_CONTEXT ( ( #298 ) ) GLOBAL_UNIT_ASSIGNED_CONTEXT ( ( #819, #823, #366 ) ) REPRESENTATION_CONTEXT ( 'NONE', 'WORKASPACE' ) );
#267 = FILL_AREA_STYLE_COLOUR ( '', #497 ) ;
#268 = MECHANICAL_DESIGN_GEOMETRIC_PRESENTATION_REPRESENTATION (  '', ( #919 ), #573 ) ;
#269 = VECTOR ( 'NONE', #19, 1000.000000000000000 ) ;
#270 = AXIS2_PLACEMENT_3D ( 'NONE', #830, #114, #835 ) ;
#271 = SURFACE_STYLE_FILL_AREA ( #451 ) ;
#272 = COLOUR_RGB ( '',0.7764705882352941346, 0.7568627450980391913, 0.7372549019607843590 ) ;
#273 = AXIS2_PLACEMENT_3D ( 'NONE', #484, #562, #714 ) ;
#274 = DIRECTION ( 'NONE',  ( -1.000000000000000000, -0.000000000000000000, -0.000000000000000000 ) ) ;
#275 = CARTESIAN_POINT ( 'NONE',  ( 0.9968214519863044520, 0.000000000000000000, 3.311827956989247479 ) ) ;
#276 = SURFACE_STYLE_FILL_AREA ( #261 ) ;
#277 = ADVANCED_FACE ( 'NONE', ( #972 ), #608, .T. ) ;
#278 = DIRECTION ( 'NONE',  ( 0.000000000000000000, 0.000000000000000000, 1.000000000000000000 ) ) ;
#279 = PLANE ( 'NONE',  #103 ) ;
#280 = CARTESIAN_POINT ( 'NONE',  ( 1.347043950347265318, 4.286263797015737088E-16, -3.500000000000000444 ) ) ;
#281 = CARTESIAN_POINT ( 'NONE',  ( 2.214116351126373949, -0.1880408685282127235, 0.1880408685282120573 ) ) ;
#282 = AXIS2_PLACEMENT_3D ( 'NONE', #228, #782, #816 ) ;
#283 = AXIS2_PLACEMENT_3D ( 'NONE', #912, #462, #765 ) ;
#284 = CIRCLE ( 'NONE', #749, 6.000000000000000000 ) ;
#285 = VECTOR ( 'NONE', #875, 1000.000000000000000 ) ;
#286 = DIRECTION ( 'NONE',  ( 0.9938370308809507669, 0.000000000000000000, 0.1108510534444137746 ) ) ;
#287 =( LENGTH_UNIT ( ) NAMED_UNIT ( * ) SI_UNIT ( .MILLI., .METRE. ) );
#288 =( NAMED_UNIT ( * ) SI_UNIT ( $, .STERADIAN. ) SOLID_ANGLE_UNIT ( ) );
#289 = SURFACE_STYLE_FILL_AREA ( #551 ) ;
#290 = ORIENTED_EDGE ( 'NONE', *, *, #415, .F. ) ;
#291 = EDGE_CURVE ( 'NONE', #456, #48, #351, .T. ) ;
#292 = DIRECTION ( 'NONE',  ( -0.1108510534444136914, 1.257808851980383614E-16, -0.9938370308809506559 ) ) ;
#293 = ORIENTED_EDGE ( 'NONE', *, *, #750, .F. ) ;
#294 = DIRECTION ( 'NONE',  ( -0.9938370308809507669, -0.1108510534444137052, 0.000000000000000000 ) ) ;
#295 = DIRECTION ( 'NONE',  ( 0.7431005017819711789, -0.08288428673721758011, -0.6640269868487616023 ) ) ;
#296 = SURFACE_STYLE_FILL_AREA ( #916 ) ;
#297 = AXIS2_PLACEMENT_3D ( 'NONE', #378, #101, #278 ) ;
#298 = UNCERTAINTY_MEASURE_WITH_UNIT (LENGTH_MEASURE( 1.000000000000000082E-05 ), #819, 'distance_accuracy_value', 'NONE');
#299 = ORIENTED_EDGE ( 'NONE', *, *, #610, .F. ) ;
#300 = PRESENTATION_LAYER_ASSIGNMENT (  '', '', ( #878 ) ) ;
#301 = CIRCLE ( 'NONE', #544, 3.311827956989247479 ) ;
#302 =( NAMED_UNIT ( * ) SI_UNIT ( $, .STERADIAN. ) SOLID_ANGLE_UNIT ( ) );
#303 = ORIENTED_EDGE ( 'NONE', *, *, #721, .T. ) ;
#304 = EDGE_CURVE ( 'NONE', #471, #559, #630, .T. ) ;
#305 = SURFACE_STYLE_USAGE ( .BOTH. , #426 ) ;
#306 =( NAMED_UNIT ( * ) PLANE_ANGLE_UNIT ( ) SI_UNIT ( $, .RADIAN. ) );
#307 = ORIENTED_EDGE ( 'NONE', *, *, #80, .F. ) ;
#308 = PRESENTATION_STYLE_ASSIGNMENT (( #664 ) ) ;
#309 = EDGE_CURVE ( 'NONE', #222, #313, #649, .T. ) ;
#310 = FILL_AREA_STYLE_COLOUR ( '', #591 ) ;
#311 = SURFACE_STYLE_USAGE ( .BOTH. , #88 ) ;
#312 = FILL_AREA_STYLE_COLOUR ( '', #272 ) ;
#313 = VERTEX_POINT ( 'NONE', #594 ) ;
#314 = PRESENTATION_STYLE_ASSIGNMENT (( #924 ) ) ;
#315 = AXIS2_PLACEMENT_3D ( 'NONE', #131, #928, #241 ) ;
#316 = ADVANCED_FACE ( 'NONE', ( #53 ), #476, .T. ) ;
#317 =( GEOMETRIC_REPRESENTATION_CONTEXT ( 3 ) GLOBAL_UNCERTAINTY_ASSIGNED_CONTEXT ( ( #943 ) ) GLOBAL_UNIT_ASSIGNED_CONTEXT ( ( #170, #1014, #715 ) ) REPRESENTATION_CONTEXT ( 'NONE', 'WORKASPACE' ) );
#318 = CIRCLE ( 'NONE', #735, 5.995482475482741158 ) ;
#319 = DIRECTION ( 'NONE',  ( -0.1108510534444136914, 1.257808851980383614E-16, -0.9938370308809506559 ) ) ;
#320 = CARTESIAN_POINT ( 'NONE',  ( 2.599999999999998312, 0.000000000000000000, 0.000000000000000000 ) ) ;
#321 = UNCERTAINTY_MEASURE_WITH_UNIT (LENGTH_MEASURE( 1.000000000000000082E-05 ), #156, 'distance_accuracy_value', 'NONE');
#322 = ORIENTED_EDGE ( 'NONE', *, *, #840, .F. ) ;
#323 = LINE ( 'NONE', #639, #795 ) ;
#324 = EDGE_LOOP ( 'NONE', ( #638, #139, #402, #802 ) ) ;
#325 = EDGE_CURVE ( 'NONE', #84, #429, #214, .T. ) ;
#326 = ORIENTED_EDGE ( 'NONE', *, *, #820, .T. ) ;
#327 = SURFACE_SIDE_STYLE ('',( #4 ) ) ;
#328 = DIRECTION ( 'NONE',  ( 0.7431005017819711789, 0.08288428673722224305, -0.6640269868487610472 ) ) ;
#329 = UNCERTAINTY_MEASURE_WITH_UNIT (LENGTH_MEASURE( 1.000000000000000082E-05 ), #142, 'distance_accuracy_value', 'NONE');
#330 = ORIENTED_EDGE ( 'NONE', *, *, #820, .F. ) ;
#331 = COLOUR_RGB ( '',0.7764705882352941346, 0.7568627450980391913, 0.7372549019607843590 ) ;
#332 = MECHANICAL_DESIGN_GEOMETRIC_PRESENTATION_REPRESENTATION (  '', ( #615 ), #1021 ) ;
#333 = AXIS2_PLACEMENT_3D ( 'NONE', #427, #722, #752 ) ;
#334 = PLANE ( 'NONE',  #699 ) ;
#335 = ORIENTED_EDGE ( 'NONE', *, *, #263, .F. ) ;
#336 = ADVANCED_FACE ( 'NONE', ( #153 ), #231, .T. ) ;
#337 = DIRECTION ( 'NONE',  ( 0.000000000000000000, 0.000000000000000000, 1.000000000000000000 ) ) ;
#338 =( NAMED_UNIT ( * ) SI_UNIT ( $, .STERADIAN. ) SOLID_ANGLE_UNIT ( ) );
#339 = PRESENTATION_STYLE_ASSIGNMENT (( #517 ) ) ;
#340 = UNCERTAINTY_MEASURE_WITH_UNIT (LENGTH_MEASURE( 1.000000000000000082E-05 ), #786, 'distance_accuracy_value', 'NONE');
#341 = DIRECTION ( 'NONE',  ( -1.000000000000000000, -0.000000000000000000, -0.000000000000000000 ) ) ;
#342 = FILL_AREA_STYLE ('',( #513 ) ) ;
#343 = LINE ( 'NONE', #262, #106 ) ;
#344 = SURFACE_SIDE_STYLE ('',( #811 ) ) ;
#345 = SURFACE_STYLE_FILL_AREA ( #16 ) ;
#346 = SURFACE_SIDE_STYLE ('',( #193 ) ) ;
#347 = PRESENTATION_STYLE_ASSIGNMENT (( #516 ) ) ;
#348 = DIRECTION ( 'NONE',  ( -0.1108510534444137469, 2.096348086633972484E-17, 0.9938370308809506559 ) ) ;
#349 = ADVANCED_FACE ( 'NONE', ( #472 ), #224, .T. ) ;
#350 = CARTESIAN_POINT ( 'NONE',  ( 4.309938594911940868, 1.891316923914901471, 2.356976916973721757E-16 ) ) ;
#351 = CIRCLE ( 'NONE', #370, 3.311827956989247479 ) ;
#352 = PRESENTATION_LAYER_ASSIGNMENT (  '', '', ( #746 ) ) ;
#353 = EDGE_LOOP ( 'NONE', ( #303, #729, #877, #425, #705 ) ) ;
#354 = SURFACE_STYLE_USAGE ( .BOTH. , #23 ) ;
#355 = STYLED_ITEM ( 'NONE', ( #957 ), #737 ) ;
#356 =( GEOMETRIC_REPRESENTATION_CONTEXT ( 3 ) GLOBAL_UNCERTAINTY_ASSIGNED_CONTEXT ( ( #134 ) ) GLOBAL_UNIT_ASSIGNED_CONTEXT ( ( #132, #925, #288 ) ) REPRESENTATION_CONTEXT ( 'NONE', 'WORKASPACE' ) );
#357 =( GEOMETRIC_REPRESENTATION_CONTEXT ( 3 ) GLOBAL_UNCERTAINTY_ASSIGNED_CONTEXT ( ( #392 ) ) GLOBAL_UNIT_ASSIGNED_CONTEXT ( ( #8, #748, #338 ) ) REPRESENTATION_CONTEXT ( 'NONE', 'WORKASPACE' ) );
#358 =( NAMED_UNIT ( * ) PLANE_ANGLE_UNIT ( ) SI_UNIT ( $, .RADIAN. ) );
#359 = FILL_AREA_STYLE_COLOUR ( '', #669 ) ;
#360 = FACE_OUTER_BOUND ( 'NONE', #798, .T. ) ;
#361 = DIRECTION ( 'NONE',  ( 0.000000000000000000, 0.000000000000000000, 1.000000000000000000 ) ) ;
#362 = CYLINDRICAL_SURFACE ( 'NONE', #373, 3.500000000000000444 ) ;
#363 = CARTESIAN_POINT ( 'NONE',  ( 5.974195292295553905, 2.375629221075779134E-16, 0.2313525518329657416 ) ) ;
#364 = CARTESIAN_POINT ( 'NONE',  ( 0.03111693966988647586, 0.4315292644214342443, 0.4315292644214356321 ) ) ;
#365 = DIRECTION ( 'NONE',  ( 0.7456662065614396706, 0.6663196743247736809, 0.000000000000000000 ) ) ;
#366 =( NAMED_UNIT ( * ) SI_UNIT ( $, .STERADIAN. ) SOLID_ANGLE_UNIT ( ) );
#367 = DIRECTION ( 'NONE',  ( 0.000000000000000000, 0.000000000000000000, 1.000000000000000000 ) ) ;
#368 =( LENGTH_UNIT ( ) NAMED_UNIT ( * ) SI_UNIT ( .MILLI., .METRE. ) );
#369 = AXIS2_PLACEMENT_3D ( 'NONE', #611, #62, #676 ) ;
#370 = AXIS2_PLACEMENT_3D ( 'NONE', #450, #115, #367 ) ;
#371 = DIRECTION ( 'NONE',  ( -1.000000000000000000, 0.000000000000000000, -0.000000000000000000 ) ) ;
#372 = DIRECTION ( 'NONE',  ( -0.9877866216249070463, 0.1101762001043161965, 0.1101762001043165434 ) ) ;
#373 = AXIS2_PLACEMENT_3D ( 'NONE', #381, #704, #612 ) ;
#374 = EDGE_LOOP ( 'NONE', ( #648, #866, #290 ) ) ;
#375 =( GEOMETRIC_REPRESENTATION_CONTEXT ( 3 ) GLOBAL_UNCERTAINTY_ASSIGNED_CONTEXT ( ( #171 ) ) GLOBAL_UNIT_ASSIGNED_CONTEXT ( ( #54, #686, #50 ) ) REPRESENTATION_CONTEXT ( 'NONE', 'WORKASPACE' ) );
#376 = EDGE_CURVE ( 'NONE', #723, #152, #343, .T. ) ;
#377 = PRESENTATION_LAYER_ASSIGNMENT (  '', '', ( #812 ) ) ;
#378 = CARTESIAN_POINT ( 'NONE',  ( 1.347043950347263763, 0.000000000000000000, 0.000000000000000000 ) ) ;
#379 = PRESENTATION_LAYER_ASSIGNMENT (  '', '', ( #449 ) ) ;
#380 = SURFACE_STYLE_USAGE ( .BOTH. , #397 ) ;
#381 = CARTESIAN_POINT ( 'NONE',  ( -25.39999999999996305, 0.000000000000000000, 0.000000000000000000 ) ) ;
#382 = VERTEX_POINT ( 'NONE', #502 ) ;
#383 = FILL_AREA_STYLE_COLOUR ( '', #331 ) ;
#384 = PRODUCT_RELATED_PRODUCT_CATEGORY ( 'part', '', ( #873 ) ) ;
#385 = DIRECTION ( 'NONE',  ( -1.000000000000000000, 0.000000000000000000, 0.000000000000000000 ) ) ;
#386 = CARTESIAN_POINT ( 'NONE',  ( 2.599999999999998312, 2.143131898507868051E-16, -1.749999999999999778 ) ) ;
#387 = ORIENTED_EDGE ( 'NONE', *, *, #1019, .F. ) ;
#388 = PLANE ( 'NONE',  #936 ) ;
#389 = EDGE_CURVE ( 'NONE', #623, #175, #665, .T. ) ;
#390 = DIRECTION ( 'NONE',  ( -0.000000000000000000, 0.000000000000000000, 1.000000000000000000 ) ) ;
#391 = MECHANICAL_DESIGN_GEOMETRIC_PRESENTATION_REPRESENTATION (  '', ( #42 ), #793 ) ;
#392 = UNCERTAINTY_MEASURE_WITH_UNIT (LENGTH_MEASURE( 1.000000000000000082E-05 ), #8, 'distance_accuracy_value', 'NONE');
#393 = VERTEX_POINT ( 'NONE', #158 ) ;
#394 = AXIS2_PLACEMENT_3D ( 'NONE', #852, #82, #149 ) ;
#395 = FILL_AREA_STYLE ('',( #310 ) ) ;
#396 = AXIS2_PLACEMENT_3D ( 'NONE', #259, #89, #178 ) ;
#397 = SURFACE_SIDE_STYLE ('',( #609 ) ) ;
#398 = CYLINDRICAL_SURFACE ( 'NONE', #697, 1.749999999999999778 ) ;
#399 = CARTESIAN_POINT ( 'NONE',  ( 1.949999999999999956, -0.2175000000000000266, -0.2174999999999999989 ) ) ;
#400 = ORIENTED_EDGE ( 'NONE', *, *, #376, .F. ) ;
#401 =( NAMED_UNIT ( * ) PLANE_ANGLE_UNIT ( ) SI_UNIT ( $, .RADIAN. ) );
#402 = ORIENTED_EDGE ( 'NONE', *, *, #6, .F. ) ;
#403 = DIRECTION ( 'NONE',  ( 0.000000000000000000, 0.000000000000000000, 1.000000000000000000 ) ) ;
#404 = FILL_AREA_STYLE_COLOUR ( '', #809 ) ;
#405 = DIRECTION ( 'NONE',  ( 0.9938370308809506559, 0.000000000000000000, 0.1108510534444137469 ) ) ;
#406 = UNCERTAINTY_MEASURE_WITH_UNIT (LENGTH_MEASURE( 1.000000000000000082E-05 ), #180, 'distance_accuracy_value', 'NONE');
#407 = EDGE_LOOP ( 'NONE', ( #119, #574, #643, #86 ) ) ;
#408 = CARTESIAN_POINT ( 'NONE',  ( 1.949999999999999956, -0.2175000000000000266, -0.2174999999999999711 ) ) ;
#409 =( LENGTH_UNIT ( ) NAMED_UNIT ( * ) SI_UNIT ( .MILLI., .METRE. ) );
#410 = DIRECTION ( 'NONE',  ( -1.000000000000000000, -0.000000000000000000, -0.000000000000000000 ) ) ;
#411 = SURFACE_STYLE_USAGE ( .BOTH. , #243 ) ;
#412 = STYLED_ITEM ( 'NONE', ( #955 ), #74 ) ;
#413 = VERTEX_POINT ( 'NONE', #720 ) ;
#414 = CIRCLE ( 'NONE', #876, 5.995482475482740270 ) ;
#415 = EDGE_CURVE ( 'NONE', #464, #413, #323, .T. ) ;
#416 = PRESENTATION_LAYER_ASSIGNMENT (  '', '', ( #126 ) ) ;
#417 = FILL_AREA_STYLE ('',( #75 ) ) ;
#418 = AXIS2_PLACEMENT_3D ( 'NONE', #504, #72, #947 ) ;
#419 = PLANE ( 'NONE',  #333 ) ;
#420 = ORIENTED_EDGE ( 'NONE', *, *, #642, .T. ) ;
#421 = SHAPE_DEFINITION_REPRESENTATION ( #755, #727 ) ;
#422 = FILL_AREA_STYLE ('',( #498 ) ) ;
#423 = LINE ( 'NONE', #227, #285 ) ;
#424 = CARTESIAN_POINT ( 'NONE',  ( 0.9968214519863044520, 3.311827956989247479, 0.000000000000000000 ) ) ;
#425 = ORIENTED_EDGE ( 'NONE', *, *, #199, .F. ) ;
#426 = SURFACE_SIDE_STYLE ('',( #155 ) ) ;
#427 = CARTESIAN_POINT ( 'NONE',  ( 1.949999999999999956, -0.2175000000000006928, 0.2174999999999992495 ) ) ;
#428 = ADVANCED_FACE ( 'NONE', ( #571 ), #452, .T. ) ;
#429 = VERTEX_POINT ( 'NONE', #874 ) ;
#430 = CARTESIAN_POINT ( 'NONE',  ( 0.000000000000000000, 0.000000000000000000, 0.000000000000000000 ) ) ;
#431 = VECTOR ( 'NONE', #671, 1000.000000000000000 ) ;
#432 = MECHANICAL_DESIGN_GEOMETRIC_PRESENTATION_REPRESENTATION (  '', ( #863 ), #163 ) ;
#433 = AXIS2_PLACEMENT_3D ( 'NONE', #651, #645, #337 ) ;
#434 = PRESENTATION_LAYER_ASSIGNMENT (  '', '', ( #906 ) ) ;
#435 = PLANE ( 'NONE',  #620 ) ;
#436 = COLOUR_RGB ( '',0.7764705882352941346, 0.7568627450980391913, 0.7372549019607843590 ) ;
#437 = VERTEX_POINT ( 'NONE', #100 ) ;
#438 =( LENGTH_UNIT ( ) NAMED_UNIT ( * ) SI_UNIT ( .MILLI., .METRE. ) );
#439 = UNCERTAINTY_MEASURE_WITH_UNIT (LENGTH_MEASURE( 1.000000000000000082E-05 ), #882, 'distance_accuracy_value', 'NONE');
#440 = CARTESIAN_POINT ( 'NONE',  ( 12.60000000000000320, 2.143131898507868051E-16, -1.749999999999999778 ) ) ;
#441 =( LENGTH_UNIT ( ) NAMED_UNIT ( * ) SI_UNIT ( .MILLI., .METRE. ) );
#442 = DIRECTION ( 'NONE',  ( -0.7456662065614397816, 0.6663196743247735698, 0.000000000000000000 ) ) ;
#443 = FACE_OUTER_BOUND ( 'NONE', #501, .T. ) ;
#444 = STYLED_ITEM ( 'NONE', ( #347 ), #35 ) ;
#445 = CARTESIAN_POINT ( 'NONE',  ( -25.39999999999996305, 0.000000000000000000, 1.749999999999999778 ) ) ;
#446 = SURFACE_STYLE_FILL_AREA ( #173 ) ;
#447 = COLOUR_RGB ( '',0.7764705882352941346, 0.7568627450980391913, 0.7372549019607843590 ) ;
#448 = ORIENTED_EDGE ( 'NONE', *, *, #706, .T. ) ;
#449 = STYLED_ITEM ( 'NONE', ( #726 ), #961 ) ;
#450 = CARTESIAN_POINT ( 'NONE',  ( 0.9968214519863044520, 0.000000000000000000, 0.000000000000000000 ) ) ;
#451 = FILL_AREA_STYLE ('',( #597 ) ) ;
#452 = SPHERICAL_SURFACE ( 'NONE', #270, 6.000000000000000000 ) ;
#453 = FILL_AREA_STYLE_COLOUR ( '', #667 ) ;
#454 =( NAMED_UNIT ( * ) SI_UNIT ( $, .STERADIAN. ) SOLID_ANGLE_UNIT ( ) );
#455 = ADVANCED_FACE ( 'NONE', ( #443 ), #362, .T. ) ;
#456 = VERTEX_POINT ( 'NONE', #540 ) ;
#457 = DIRECTION ( 'NONE',  ( 0.000000000000000000, 0.000000000000000000, 1.000000000000000000 ) ) ;
#458 = DIRECTION ( 'NONE',  ( 0.6663196743247735698, -0.7456662065614397816, -9.292562311528023527E-17 ) ) ;
#459 = CARTESIAN_POINT ( 'NONE',  ( 0.000000000000000000, -1.959999999999999964, -0.4349999999999999978 ) ) ;
#460 = MECHANICAL_DESIGN_GEOMETRIC_PRESENTATION_REPRESENTATION (  '', ( #966 ), #895 ) ;
#461 = DIRECTION ( 'NONE',  ( 0.9938370308809506559, -0.1108510534444137469, -3.870343844922734420E-16 ) ) ;
#462 = DIRECTION ( 'NONE',  ( -1.000000000000000000, -0.000000000000000000, -0.000000000000000000 ) ) ;
#463 = COLOUR_RGB ( '',0.7764705882352941346, 0.7568627450980391913, 0.7372549019607843590 ) ;
#464 = VERTEX_POINT ( 'NONE', #536 ) ;
#465 = PRESENTATION_LAYER_ASSIGNMENT (  '', '', ( #982 ) ) ;
#466 = PRESENTATION_LAYER_ASSIGNMENT (  '', '', ( #108 ) ) ;
#467 = MECHANICAL_DESIGN_GEOMETRIC_PRESENTATION_REPRESENTATION (  '', ( #150 ), #64 ) ;
#468 = FILL_AREA_STYLE ('',( #453 ) ) ;
#469 = CARTESIAN_POINT ( 'NONE',  ( 0.03111693966988560850, -0.4315292644214371864, 0.4315292644214354101 ) ) ;
#470 = LINE ( 'NONE', #133, #979 ) ;
#471 = VERTEX_POINT ( 'NONE', #990 ) ;
#472 = FACE_OUTER_BOUND ( 'NONE', #893, .T. ) ;
#473 = EDGE_CURVE ( 'NONE', #152, #413, #688, .T. ) ;
#474 = DIRECTION ( 'NONE',  ( -0.9938370308809507669, -0.1108510534444137052, 0.000000000000000000 ) ) ;
#475 = ORIENTED_EDGE ( 'NONE', *, *, #953, .T. ) ;
#476 = PLANE ( 'NONE',  #509 ) ;
#477 = PRESENTATION_STYLE_ASSIGNMENT (( #380 ) ) ;
#478 = PRESENTATION_STYLE_ASSIGNMENT (( #838 ) ) ;
#479 = CIRCLE ( 'NONE', #282, 0.4199999999999998179 ) ;
#480 = VERTEX_POINT ( 'NONE', #47 ) ;
#481 = CIRCLE ( 'NONE', #394, 3.500000000000000000 ) ;
#482 = VERTEX_POINT ( 'NONE', #986 ) ;
#483 = COLOUR_RGB ( '',0.7921568627450980005, 0.8196078431372548767, 0.9333333333333333481 ) ;
#484 = CARTESIAN_POINT ( 'NONE',  ( 12.59999999999999964, 1.749999999999999778, 0.000000000000000000 ) ) ;
#485 = FACE_OUTER_BOUND ( 'NONE', #861, .T. ) ;
#486 = FILL_AREA_STYLE_COLOUR ( '', #896 ) ;
#487 = ORIENTED_EDGE ( 'NONE', *, *, #993, .F. ) ;
#488 =( NAMED_UNIT ( * ) SI_UNIT ( $, .STERADIAN. ) SOLID_ANGLE_UNIT ( ) );
#489 = LINE ( 'NONE', #728, #732 ) ;
#490 = EDGE_LOOP ( 'NONE', ( #265, #775, #944 ) ) ;
#491 = EDGE_CURVE ( 'NONE', #723, #471, #618, .T. ) ;
#492 = DIRECTION ( 'NONE',  ( 0.000000000000000000, 1.000000000000000000, 0.000000000000000000 ) ) ;
#493 = CARTESIAN_POINT ( 'NONE',  ( 2.193400286944045430, 4.336808689942017736E-16, 0.1903515064562409931 ) ) ;
#494 =( NAMED_UNIT ( * ) SI_UNIT ( $, .STERADIAN. ) SOLID_ANGLE_UNIT ( ) );
#495 = ORIENTED_EDGE ( 'NONE', *, *, #325, .T. ) ;
#496 = COLOUR_RGB ( '',0.7764705882352941346, 0.7568627450980391913, 0.7372549019607843590 ) ;
#497 = COLOUR_RGB ( '',0.7764705882352941346, 0.7568627450980391913, 0.7372549019607843590 ) ;
#498 = FILL_AREA_STYLE_COLOUR ( '', #601 ) ;
#499 = AXIS2_PLACEMENT_3D ( 'NONE', #500, #710, #1022 ) ;
#500 = CARTESIAN_POINT ( 'NONE',  ( 5.974195292295553905, -0.2313525518329657138, -8.028830871489587498E-16 ) ) ;
#501 = EDGE_LOOP ( 'NONE', ( #387, #79, #172, #913 ) ) ;
#502 = CARTESIAN_POINT ( 'NONE',  ( 0.2666411873824114376, 1.721732169736485352, 0.4052592521765772671 ) ) ;
#503 = EDGE_CURVE ( 'NONE', #788, #987, #39, .T. ) ;
#504 = CARTESIAN_POINT ( 'NONE',  ( 5.974195292295553905, -0.2313525518329657138, -8.028830871489587498E-16 ) ) ;
#505 = ORIENTED_EDGE ( 'NONE', *, *, #304, .T. ) ;
#506 = CYLINDRICAL_SURFACE ( 'NONE', #842, 1.749999999999999778 ) ;
#507 = PRESENTATION_LAYER_ASSIGNMENT (  '', '', ( #744 ) ) ;
#508 = DIRECTION ( 'NONE',  ( 0.7456662065614395596, 0.000000000000000000, -0.6663196743247737919 ) ) ;
#509 = AXIS2_PLACEMENT_3D ( 'NONE', #1017, #991, #1006 ) ;
#510 = VECTOR ( 'NONE', #850, 1000.000000000000000 ) ;
#511 = VECTOR ( 'NONE', #837, 1000.000000000000000 ) ;
#512 = VECTOR ( 'NONE', #761, 1000.000000000000000 ) ;
#513 = FILL_AREA_STYLE_COLOUR ( '', #463 ) ;
#514 = ADVANCED_FACE ( 'NONE', ( #917 ), #607, .T. ) ;
#515 = DIRECTION ( 'NONE',  ( -1.000000000000000000, -0.000000000000000000, -0.000000000000000000 ) ) ;
#516 = SURFACE_STYLE_USAGE ( .BOTH. , #900 ) ;
#517 = SURFACE_STYLE_USAGE ( .BOTH. , #818 ) ;
#518 = CARTESIAN_POINT ( 'NONE',  ( 1.347043950347265318, 0.000000000000000000, 0.000000000000000000 ) ) ;
#519 =( LENGTH_UNIT ( ) NAMED_UNIT ( * ) SI_UNIT ( .MILLI., .METRE. ) );
#520 = MECHANICAL_DESIGN_GEOMETRIC_PRESENTATION_REPRESENTATION (  '', ( #444 ), #266 ) ;
#521 = AXIS2_PLACEMENT_3D ( 'NONE', #773, #857, #461 ) ;
#522 = APPLICATION_CONTEXT ( 'automotive_design' ) ;
#523 = SURFACE_STYLE_USAGE ( .BOTH. , #191 ) ;
#524 = AXIS2_PLACEMENT_3D ( 'NONE', #207, #677, #120 ) ;
#525 = MECHANICAL_DESIGN_GEOMETRIC_PRESENTATION_REPRESENTATION (  '', ( #233 ), #60 ) ;
#526 = VECTOR ( 'NONE', #902, 1000.000000000000000 ) ;
#527 = PRESENTATION_LAYER_ASSIGNMENT (  '', '', ( #754 ) ) ;
#528 = SURFACE_SIDE_STYLE ('',( #534 ) ) ;
#529 = EDGE_CURVE ( 'NONE', #552, #693, #144, .T. ) ;
#530 = LINE ( 'NONE', #763, #511 ) ;
#531 = DIRECTION ( 'NONE',  ( -0.1108510534444136914, 1.257808851980383614E-16, -0.9938370308809506559 ) ) ;
#532 = EDGE_LOOP ( 'NONE', ( #784, #654, #232, #948 ) ) ;
#533 = DIRECTION ( 'NONE',  ( 0.6663196743247736809, 0.7456662065614397816, 0.000000000000000000 ) ) ;
#534 = SURFACE_STYLE_FILL_AREA ( #981 ) ;
#535 = FILL_AREA_STYLE ('',( #977 ) ) ;
#536 = CARTESIAN_POINT ( 'NONE',  ( 0.03111693966988560850, 0.4315292644214372975, -0.4315292644214357431 ) ) ;
#537 = ORIENTED_EDGE ( 'NONE', *, *, #598, .F. ) ;
#538 = LINE ( 'NONE', #117, #701 ) ;
#539 =( NAMED_UNIT ( * ) PLANE_ANGLE_UNIT ( ) SI_UNIT ( $, .RADIAN. ) );
#540 = CARTESIAN_POINT ( 'NONE',  ( 0.9968214519863044520, 4.171041651934668579E-16, -3.311827956989247479 ) ) ;
#541 = ORIENTED_EDGE ( 'NONE', *, *, #542, .T. ) ;
#542 = EDGE_CURVE ( 'NONE', #788, #413, #470, .T. ) ;
#543 = PRESENTATION_LAYER_ASSIGNMENT (  '', '', ( #355 ) ) ;
#544 = AXIS2_PLACEMENT_3D ( 'NONE', #833, #696, #208 ) ;
#545 =( NAMED_UNIT ( * ) SI_UNIT ( $, .STERADIAN. ) SOLID_ANGLE_UNIT ( ) );
#546 = DIRECTION ( 'NONE',  ( 0.000000000000000000, 0.000000000000000000, -1.000000000000000000 ) ) ;
#547 = UNCERTAINTY_MEASURE_WITH_UNIT (LENGTH_MEASURE( 1.000000000000000082E-05 ), #409, 'distance_accuracy_value', 'NONE');
#548 = ORIENTED_EDGE ( 'NONE', *, *, #80, .T. ) ;
#549 = FILL_AREA_STYLE ('',( #771 ) ) ;
#550 =( NAMED_UNIT ( * ) PLANE_ANGLE_UNIT ( ) SI_UNIT ( $, .RADIAN. ) );
#551 = FILL_AREA_STYLE ('',( #205 ) ) ;
#552 = VERTEX_POINT ( 'NONE', #386 ) ;
#553 = ORIENTED_EDGE ( 'NONE', *, *, #847, .F. ) ;
#554 = FILL_AREA_STYLE ('',( #862 ) ) ;
#555 = PRESENTATION_LAYER_ASSIGNMENT (  '', '', ( #412 ) ) ;
#556 = DIRECTION ( 'NONE',  ( 0.6663196743247736809, -2.603479645215216163E-15, 0.7456662065614397816 ) ) ;
#557 = CIRCLE ( 'NONE', #91, 1.749999999999999778 ) ;
#558 = UNCERTAINTY_MEASURE_WITH_UNIT (LENGTH_MEASURE( 1.000000000000000082E-05 ), #858, 'distance_accuracy_value', 'NONE');
#559 = VERTEX_POINT ( 'NONE', #692 ) ;
#560 = DIRECTION ( 'NONE',  ( -1.000000000000000000, -0.000000000000000000, -0.000000000000000000 ) ) ;
#561 = ORIENTED_EDGE ( 'NONE', *, *, #563, .T. ) ;
#562 = DIRECTION ( 'NONE',  ( 1.000000000000000000, 0.000000000000000000, 0.000000000000000000 ) ) ;
#563 = EDGE_CURVE ( 'NONE', #313, #767, #92, .T. ) ;
#564 = SURFACE_SIDE_STYLE ('',( #177 ) ) ;
#565 = PRESENTATION_STYLE_ASSIGNMENT (( #801 ) ) ;
#566 = ORIENTED_EDGE ( 'NONE', *, *, #244, .F. ) ;
#567 = CARTESIAN_POINT ( 'NONE',  ( 4.309938594911940868, -1.891316923914901471, 0.000000000000000000 ) ) ;
#568 =( LENGTH_UNIT ( ) NAMED_UNIT ( * ) SI_UNIT ( .MILLI., .METRE. ) );
#569 = UNCERTAINTY_MEASURE_WITH_UNIT (LENGTH_MEASURE( 1.000000000000000082E-05 ), #438, 'distance_accuracy_value', 'NONE');
#570 = ORIENTED_EDGE ( 'NONE', *, *, #847, .T. ) ;
#571 = FACE_OUTER_BOUND ( 'NONE', #794, .T. ) ;
#572 = DIRECTION ( 'NONE',  ( -0.1108510534444137469, 2.096348086633972484E-17, 0.9938370308809506559 ) ) ;
#573 =( GEOMETRIC_REPRESENTATION_CONTEXT ( 3 ) GLOBAL_UNCERTAINTY_ASSIGNED_CONTEXT ( ( #631 ) ) GLOBAL_UNIT_ASSIGNED_CONTEXT ( ( #985, #616, #302 ) ) REPRESENTATION_CONTEXT ( 'NONE', 'WORKASPACE' ) );
#574 = ORIENTED_EDGE ( 'NONE', *, *, #940, .T. ) ;
#575 = EDGE_CURVE ( 'NONE', #480, #482, #481, .T. ) ;
#576 = MECHANICAL_DESIGN_GEOMETRIC_PRESENTATION_REPRESENTATION (  '', ( #126 ), #183 ) ;
#577 =( GEOMETRIC_REPRESENTATION_CONTEXT ( 3 ) GLOBAL_UNCERTAINTY_ASSIGNED_CONTEXT ( ( #569 ) ) GLOBAL_UNIT_ASSIGNED_CONTEXT ( ( #438, #822, #976 ) ) REPRESENTATION_CONTEXT ( 'NONE', 'WORKASPACE' ) );
#578 =( GEOMETRIC_REPRESENTATION_CONTEXT ( 3 ) GLOBAL_UNCERTAINTY_ASSIGNED_CONTEXT ( ( #221 ) ) GLOBAL_UNIT_ASSIGNED_CONTEXT ( ( #600, #230, #927 ) ) REPRESENTATION_CONTEXT ( 'NONE', 'WORKASPACE' ) );
#579 = AXIS2_PLACEMENT_3D ( 'NONE', #408, #458, #785 ) ;
#580 = UNCERTAINTY_MEASURE_WITH_UNIT (LENGTH_MEASURE( 1.000000000000000082E-05 ), #627, 'distance_accuracy_value', 'NONE');
#581 = ORIENTED_EDGE ( 'NONE', *, *, #182, .T. ) ;
#582 = FACE_OUTER_BOUND ( 'NONE', #229, .T. ) ;
#583 = DIRECTION ( 'NONE',  ( -1.000000000000000000, -0.000000000000000000, -0.000000000000000000 ) ) ;
#584 = PRODUCT_CONTEXT ( 'NONE', #808, 'mechanical' ) ;
#585 = DIRECTION ( 'NONE',  ( 0.7431005017819711789, 0.08288428673721742745, 0.6640269868487616023 ) ) ;
#586 = FILL_AREA_STYLE ('',( #656 ) ) ;
#587 = UNCERTAINTY_MEASURE_WITH_UNIT (LENGTH_MEASURE( 1.000000000000000082E-05 ), #568, 'distance_accuracy_value', 'NONE');
#588 = VERTEX_POINT ( 'NONE', #950 ) ;
#589 = MECHANICAL_DESIGN_GEOMETRIC_PRESENTATION_REPRESENTATION (  '', ( #744 ), #777 ) ;
#590 = STYLED_ITEM ( 'NONE', ( #960 ), #190 ) ;
#591 = COLOUR_RGB ( '',0.7764705882352941346, 0.7568627450980391913, 0.7372549019607843590 ) ;
#592 = COLOUR_RGB ( '',0.7764705882352941346, 0.7568627450980391913, 0.7372549019607843590 ) ;
#593 = EDGE_CURVE ( 'NONE', #429, #588, #489, .T. ) ;
#594 = CARTESIAN_POINT ( 'NONE',  ( 1.347043950347265318, 0.000000000000000000, 3.500000000000000444 ) ) ;
#595 = FILL_AREA_STYLE ('',( #604 ) ) ;
#596 = DIRECTION ( 'NONE',  ( 0.7431005017819711789, -0.6640269868487613802, 0.08288428673721989770 ) ) ;
#597 = FILL_AREA_STYLE_COLOUR ( '', #1018 ) ;
#598 = EDGE_CURVE ( 'NONE', #48, #168, #284, .T. ) ;
#599 =( NAMED_UNIT ( * ) SI_UNIT ( $, .STERADIAN. ) SOLID_ANGLE_UNIT ( ) );
#600 =( LENGTH_UNIT ( ) NAMED_UNIT ( * ) SI_UNIT ( .MILLI., .METRE. ) );
#601 = COLOUR_RGB ( '',0.7764705882352941346, 0.7568627450980391913, 0.7372549019607843590 ) ;
#602 = COLOUR_RGB ( '',0.7764705882352941346, 0.7568627450980391913, 0.7372549019607843590 ) ;
#603 = CARTESIAN_POINT ( 'NONE',  ( 5.974195292295553905, 2.619630734554813543E-16, -0.2313525518329656583 ) ) ;
#604 = FILL_AREA_STYLE_COLOUR ( '', #447 ) ;
#605 = ADVANCED_FACE ( 'NONE', ( #935 ), #334, .T. ) ;
#606 =( NAMED_UNIT ( * ) PLANE_ANGLE_UNIT ( ) SI_UNIT ( $, .RADIAN. ) );
#607 = PLANE ( 'NONE',  #633 ) ;
#608 = PLANE ( 'NONE',  #104 ) ;
#609 = SURFACE_STYLE_FILL_AREA ( #844 ) ;
#610 = EDGE_CURVE ( 'NONE', #464, #22, #94, .T. ) ;
#611 = CARTESIAN_POINT ( 'NONE',  ( 4.309938594911940868, -6.606512545546451519E-15, 1.891316923914901693 ) ) ;
#612 = DIRECTION ( 'NONE',  ( 0.000000000000000000, 0.000000000000000000, 1.000000000000000000 ) ) ;
#613 = CARTESIAN_POINT ( 'NONE',  ( 12.60000000000000320, 0.000000000000000000, 0.000000000000000000 ) ) ;
#614 = CIRCLE ( 'NONE', #58, 5.437518987584765817 ) ;
#615 = STYLED_ITEM ( 'NONE', ( #672 ), #455 ) ;
#616 =( NAMED_UNIT ( * ) PLANE_ANGLE_UNIT ( ) SI_UNIT ( $, .RADIAN. ) );
#617 = PRESENTATION_STYLE_ASSIGNMENT (( #839 ) ) ;
#618 = CIRCLE ( 'NONE', #650, 5.995482475482741158 ) ;
#619 = EDGE_LOOP ( 'NONE', ( #1004, #70, #73 ) ) ;
#620 = AXIS2_PLACEMENT_3D ( 'NONE', #33, #670, #442 ) ;
#621 = AXIS2_PLACEMENT_3D ( 'NONE', #613, #410, #403 ) ;
#622 = DIRECTION ( 'NONE',  ( -0.1108510534444136914, 0.9938370308809506559, 3.595744332370143968E-15 ) ) ;
#623 = VERTEX_POINT ( 'NONE', #424 ) ;
#624 = CARTESIAN_POINT ( 'NONE',  ( -25.39999999999996305, 4.286263797015737088E-16, -3.500000000000000444 ) ) ;
#625 =( NAMED_UNIT ( * ) SI_UNIT ( $, .STERADIAN. ) SOLID_ANGLE_UNIT ( ) );
#626 = EDGE_LOOP ( 'NONE', ( #206, #293 ) ) ;
#627 =( LENGTH_UNIT ( ) NAMED_UNIT ( * ) SI_UNIT ( .MILLI., .METRE. ) );
#628 = EDGE_CURVE ( 'NONE', #393, #987, #78, .T. ) ;
#629 =( NAMED_UNIT ( * ) PLANE_ANGLE_UNIT ( ) SI_UNIT ( $, .RADIAN. ) );
#630 = CIRCLE ( 'NONE', #524, 5.995482475482740270 ) ;
#631 = UNCERTAINTY_MEASURE_WITH_UNIT (LENGTH_MEASURE( 1.000000000000000082E-05 ), #985, 'distance_accuracy_value', 'NONE');
#632 = ORIENTED_EDGE ( 'NONE', *, *, #389, .T. ) ;
#633 = AXIS2_PLACEMENT_3D ( 'NONE', #757, #123, #129 ) ;
#634 = PRESENTATION_LAYER_ASSIGNMENT (  '', '', ( #45 ) ) ;
#635 =( NAMED_UNIT ( * ) PLANE_ANGLE_UNIT ( ) SI_UNIT ( $, .RADIAN. ) );
#636 = DIRECTION ( 'NONE',  ( -0.9938370308809506559, 0.000000000000000000, 0.1108510534444136914 ) ) ;
#637 = DIRECTION ( 'NONE',  ( 0.000000000000000000, 0.000000000000000000, 1.000000000000000000 ) ) ;
#638 = ORIENTED_EDGE ( 'NONE', *, *, #376, .T. ) ;
#639 = CARTESIAN_POINT ( 'NONE',  ( 2.214116351126373949, 0.1880408685282127790, -0.1880408685282121406 ) ) ;
#640 = PRESENTATION_STYLE_ASSIGNMENT (( #305 ) ) ;
#641 = DIRECTION ( 'NONE',  ( 0.000000000000000000, 1.000000000000000000, 1.224646799147353207E-16 ) ) ;
#642 = EDGE_CURVE ( 'NONE', #693, #552, #865, .T. ) ;
#643 = ORIENTED_EDGE ( 'NONE', *, *, #642, .F. ) ;
#644 = DIRECTION ( 'NONE',  ( 1.000000000000000000, 0.000000000000000000, 0.000000000000000000 ) ) ;
#645 = DIRECTION ( 'NONE',  ( -1.000000000000000000, -0.000000000000000000, -0.000000000000000000 ) ) ;
#646 =( NAMED_UNIT ( * ) SI_UNIT ( $, .STERADIAN. ) SOLID_ANGLE_UNIT ( ) );
#647 = SURFACE_SIDE_STYLE ('',( #254 ) ) ;
#648 = ORIENTED_EDGE ( 'NONE', *, *, #610, .T. ) ;
#649 = CIRCLE ( 'NONE', #194, 3.500000000000000444 ) ;
#650 = AXIS2_PLACEMENT_3D ( 'NONE', #138, #926, #474 ) ;
#651 = CARTESIAN_POINT ( 'NONE',  ( -25.39999999999996305, 0.000000000000000000, 0.000000000000000000 ) ) ;
#652 = CIRCLE ( 'NONE', #145, 3.500000000000000000 ) ;
#653 = SURFACE_STYLE_FILL_AREA ( #247 ) ;
#654 = ORIENTED_EDGE ( 'NONE', *, *, #263, .T. ) ;
#655 = CARTESIAN_POINT ( 'NONE',  ( -25.39999999999996305, 0.000000000000000000, 0.000000000000000000 ) ) ;
#656 = FILL_AREA_STYLE_COLOUR ( '', #592 ) ;
#657 = ORIENTED_EDGE ( 'NONE', *, *, #146, .F. ) ;
#658 = SURFACE_STYLE_USAGE ( .BOTH. , #344 ) ;
#659 = SURFACE_SIDE_STYLE ('',( #345 ) ) ;
#660 =( NAMED_UNIT ( * ) PLANE_ANGLE_UNIT ( ) SI_UNIT ( $, .RADIAN. ) );
#661 = CARTESIAN_POINT ( 'NONE',  ( 1.949999999999999956, -0.2175000000000000266, -0.2174999999999999989 ) ) ;
#662 = PRESENTATION_LAYER_ASSIGNMENT (  '', '', ( #590 ) ) ;
#663 = CARTESIAN_POINT ( 'NONE',  ( 0.2666411873824114376, -1.721732169736485796, 0.4052592521765768785 ) ) ;
#664 = SURFACE_STYLE_USAGE ( .BOTH. , #659 ) ;
#665 = CIRCLE ( 'NONE', #764, 6.000000000000000000 ) ;
#666 =( GEOMETRIC_REPRESENTATION_CONTEXT ( 3 ) GLOBAL_UNCERTAINTY_ASSIGNED_CONTEXT ( ( #406 ) ) GLOBAL_UNIT_ASSIGNED_CONTEXT ( ( #180, #660, #102 ) ) REPRESENTATION_CONTEXT ( 'NONE', 'WORKASPACE' ) );
#667 = COLOUR_RGB ( '',0.7764705882352941346, 0.7568627450980391913, 0.7372549019607843590 ) ;
#668 = ORIENTED_EDGE ( 'NONE', *, *, #598, .T. ) ;
#669 = COLOUR_RGB ( '',0.7764705882352941346, 0.7568627450980391913, 0.7372549019607843590 ) ;
#670 = DIRECTION ( 'NONE',  ( 0.6663196743247735698, 0.7456662065614397816, 0.000000000000000000 ) ) ;
#671 = DIRECTION ( 'NONE',  ( 0.000000000000000000, -1.246209393661499619E-16, 1.000000000000000000 ) ) ;
#672 = PRESENTATION_STYLE_ASSIGNMENT (( #354 ) ) ;
#673 = ADVANCED_FACE ( 'NONE', ( #159 ), #419, .F. ) ;
#674 =( NAMED_UNIT ( * ) PLANE_ANGLE_UNIT ( ) SI_UNIT ( $, .RADIAN. ) );
#675 = CARTESIAN_POINT ( 'NONE',  ( 1.949999999999999956, 0.2175000000000001377, 0.2174999999999999711 ) ) ;
#676 = DIRECTION ( 'NONE',  ( -0.7456662065614396706, 0.000000000000000000, -0.6663196743247736809 ) ) ;
#677 = DIRECTION ( 'NONE',  ( -0.1108510534444137469, 2.096348086633972484E-17, 0.9938370308809506559 ) ) ;
#678 = CIRCLE ( 'NONE', #825, 5.437518987584765817 ) ;
#679 = SURFACE_STYLE_USAGE ( .BOTH. , #128 ) ;
#680 = AXIS2_PLACEMENT_3D ( 'NONE', #995, #218, #546 ) ;
#681 = MECHANICAL_DESIGN_GEOMETRIC_PRESENTATION_REPRESENTATION (  '', ( #906 ), #235 ) ;
#682 = SURFACE_SIDE_STYLE ('',( #296 ) ) ;
#683 = ORIENTED_EDGE ( 'NONE', *, *, #628, .F. ) ;
#684 =( LENGTH_UNIT ( ) NAMED_UNIT ( * ) SI_UNIT ( .MILLI., .METRE. ) );
#685 = ADVANCED_FACE ( 'NONE', ( #360 ), #11, .T. ) ;
#686 =( NAMED_UNIT ( * ) PLANE_ANGLE_UNIT ( ) SI_UNIT ( $, .RADIAN. ) );
#687 = DIRECTION ( 'NONE',  ( 0.6663196743247736809, -0.7456662065614397816, -9.292562311528023527E-17 ) ) ;
#688 = LINE ( 'NONE', #399, #25 ) ;
#689 = ORIENTED_EDGE ( 'NONE', *, *, #575, .T. ) ;
#690 = PRODUCT_DEFINITION ( 'UNKNOWN', '', #969, #1015 ) ;
#691 = PRESENTATION_STYLE_ASSIGNMENT (( #989 ) ) ;
#692 = CARTESIAN_POINT ( 'NONE',  ( 0.2666411873824114376, -1.721732169736485796, -0.4052592521765772116 ) ) ;
#693 = VERTEX_POINT ( 'NONE', #742 ) ;
#694 = SURFACE_STYLE_FILL_AREA ( #59 ) ;
#695 = VECTOR ( 'NONE', #829, 1000.000000000000000 ) ;
#696 = DIRECTION ( 'NONE',  ( -1.000000000000000000, -0.000000000000000000, -0.000000000000000000 ) ) ;
#697 = AXIS2_PLACEMENT_3D ( 'NONE', #655, #515, #934 ) ;
#698 = AXIS2_PLACEMENT_3D ( 'NONE', #849, #622, #294 ) ;
#699 = AXIS2_PLACEMENT_3D ( 'NONE', #942, #572, #405 ) ;
#700 = ORIENTED_EDGE ( 'NONE', *, *, #806, .F. ) ;
#701 = VECTOR ( 'NONE', #295, 999.9999999999998863 ) ;
#702 = PRESENTATION_STYLE_ASSIGNMENT (( #708 ) ) ;
#703 = CARTESIAN_POINT ( 'NONE',  ( 0.2553644383338094515, -1.731808957027352047, -2.120854295958262972E-16 ) ) ;
#704 = DIRECTION ( 'NONE',  ( -1.000000000000000000, -0.000000000000000000, -0.000000000000000000 ) ) ;
#705 = ORIENTED_EDGE ( 'NONE', *, *, #249, .F. ) ;
#706 = EDGE_CURVE ( 'NONE', #788, #588, #186, .T. ) ;
#707 = DIRECTION ( 'NONE',  ( -0.9877866216249070463, -0.1101762001043161271, -0.1101762001043165851 ) ) ;
#708 = SURFACE_STYLE_USAGE ( .BOTH. , #776 ) ;
#709 = FILL_AREA_STYLE ('',( #404 ) ) ;
#710 = DIRECTION ( 'NONE',  ( -0.1108510534444137469, -0.9938370308809506559, -3.448999966305766196E-15 ) ) ;
#711 = ORIENTED_EDGE ( 'NONE', *, *, #885, .T. ) ;
#712 =( NAMED_UNIT ( * ) SI_UNIT ( $, .STERADIAN. ) SOLID_ANGLE_UNIT ( ) );
#713 = SURFACE_STYLE_USAGE ( .BOTH. , #528 ) ;
#714 = DIRECTION ( 'NONE',  ( 0.000000000000000000, 0.000000000000000000, -1.000000000000000000 ) ) ;
#715 =( NAMED_UNIT ( * ) SI_UNIT ( $, .STERADIAN. ) SOLID_ANGLE_UNIT ( ) );
#716 = COLOUR_RGB ( '',0.7764705882352941346, 0.7568627450980391913, 0.7372549019607843590 ) ;
#717 = PRESENTATION_LAYER_ASSIGNMENT (  '', '', ( #966 ) ) ;
#718 = EDGE_LOOP ( 'NONE', ( #495, #143, #780 ) ) ;
#719 = MECHANICAL_DESIGN_GEOMETRIC_PRESENTATION_REPRESENTATION (  '', ( #355 ), #577 ) ;
#720 = CARTESIAN_POINT ( 'NONE',  ( 1.949999999999999956, 0.2175000000000007483, -0.2174999999999992772 ) ) ;
#721 = EDGE_CURVE ( 'NONE', #437, #413, #740, .T. ) ;
#722 = DIRECTION ( 'NONE',  ( 0.6663196743247735698, -2.603479645215216163E-15, 0.7456662065614397816 ) ) ;
#723 = VERTEX_POINT ( 'NONE', #30 ) ;
#724 = SURFACE_STYLE_USAGE ( .BOTH. , #252 ) ;
#725 = ORIENTED_EDGE ( 'NONE', *, *, #953, .F. ) ;
#726 = PRESENTATION_STYLE_ASSIGNMENT (( #523 ) ) ;
#727 = ADVANCED_BREP_SHAPE_REPRESENTATION ( 'M3.5 x 10 Screw head', ( #90, #201 ), #1001 ) ;
#728 = CARTESIAN_POINT ( 'NONE',  ( 0.000000000000000000, -0.4350000000000069367, 1.959999999999998188 ) ) ;
#729 = ORIENTED_EDGE ( 'NONE', *, *, #542, .F. ) ;
#730 = APPLICATION_PROTOCOL_DEFINITION ( 'draft international standard', 'automotive_design', 1998, #522 ) ;
#731 =( GEOMETRIC_REPRESENTATION_CONTEXT ( 3 ) GLOBAL_UNCERTAINTY_ASSIGNED_CONTEXT ( ( #260 ) ) GLOBAL_UNIT_ASSIGNED_CONTEXT ( ( #441, #358, #599 ) ) REPRESENTATION_CONTEXT ( 'NONE', 'WORKASPACE' ) );
#732 = VECTOR ( 'NONE', #328, 1000.000000000000000 ) ;
#733 =( NAMED_UNIT ( * ) PLANE_ANGLE_UNIT ( ) SI_UNIT ( $, .RADIAN. ) );
#734 = PLANE ( 'NONE',  #579 ) ;
#735 = AXIS2_PLACEMENT_3D ( 'NONE', #908, #202, #915 ) ;
#736 = CARTESIAN_POINT ( 'NONE',  ( -25.39999999999996305, 0.000000000000000000, 0.000000000000000000 ) ) ;
#737 = ADVANCED_FACE ( 'NONE', ( #174 ), #435, .F. ) ;
#738 = CARTESIAN_POINT ( 'NONE',  ( 1.949999999999999956, -0.2175000000000000266, -0.2174999999999999989 ) ) ;
#739 = PLANE ( 'NONE',  #396 ) ;
#740 = LINE ( 'NONE', #813, #215 ) ;
#741 = CARTESIAN_POINT ( 'NONE',  ( 0.9968214519863044520, 0.000000000000000000, 0.000000000000000000 ) ) ;
#742 = CARTESIAN_POINT ( 'NONE',  ( 2.599999999999998312, 0.000000000000000000, 1.749999999999999778 ) ) ;
#743 =( LENGTH_UNIT ( ) NAMED_UNIT ( * ) SI_UNIT ( .MILLI., .METRE. ) );
#744 = STYLED_ITEM ( 'NONE', ( #478 ), #90 ) ;
#745 = TOROIDAL_SURFACE ( 'NONE', #297, 3.080000000000000515, 0.4200000000000000400 ) ;
#746 = STYLED_ITEM ( 'NONE', ( #314 ), #336 ) ;
#747 = CARTESIAN_POINT ( 'NONE',  ( 4.309938594911940868, -1.891316923914901471, 0.000000000000000000 ) ) ;
#748 =( NAMED_UNIT ( * ) PLANE_ANGLE_UNIT ( ) SI_UNIT ( $, .RADIAN. ) );
#749 = AXIS2_PLACEMENT_3D ( 'NONE', #238, #804, #641 ) ;
#750 = EDGE_CURVE ( 'NONE', #482, #480, #652, .T. ) ;
#751 = CIRCLE ( 'NONE', #107, 5.437518987584764929 ) ;
#752 = DIRECTION ( 'NONE',  ( -0.7456662065614397816, -2.326442708608981349E-15, 0.6663196743247735698 ) ) ;
#753 = CARTESIAN_POINT ( 'NONE',  ( 0.000000000000000000, 0.4350000000000068257, -1.959999999999998188 ) ) ;
#754 = STYLED_ITEM ( 'NONE', ( #308 ), #971 ) ;
#755 = PRODUCT_DEFINITION_SHAPE ( 'NONE', 'NONE',  #690 ) ;
#756 = SURFACE_SIDE_STYLE ('',( #271 ) ) ;
#757 = CARTESIAN_POINT ( 'NONE',  ( 2.193400286944045430, 0.1903515064562410486, 2.309278636184420884E-16 ) ) ;
#758 = ORIENTED_EDGE ( 'NONE', *, *, #199, .T. ) ;
#759 = AXIS2_PLACEMENT_3D ( 'NONE', #603, #531, #909 ) ;
#760 = SURFACE_STYLE_USAGE ( .BOTH. , #898 ) ;
#761 = DIRECTION ( 'NONE',  ( -1.000000000000000000, -0.000000000000000000, -0.000000000000000000 ) ) ;
#762 = MECHANICAL_DESIGN_GEOMETRIC_PRESENTATION_REPRESENTATION (  '', ( #932 ), #826 ) ;
#763 = CARTESIAN_POINT ( 'NONE',  ( 0.000000000000000000, -1.959999999999999964, 0.4349999999999996092 ) ) ;
#764 = AXIS2_PLACEMENT_3D ( 'NONE', #959, #889, #871 ) ;
#765 = DIRECTION ( 'NONE',  ( 0.000000000000000000, 0.000000000000000000, 1.000000000000000000 ) ) ;
#766 = COLOUR_RGB ( '',0.7764705882352941346, 0.7568627450980391913, 0.7372549019607843590 ) ;
#767 = VERTEX_POINT ( 'NONE', #275 ) ;
#768 = EDGE_CURVE ( 'NONE', #168, #559, #751, .T. ) ;
#769 = SURFACE_SIDE_STYLE ('',( #694 ) ) ;
#770 = PLANE ( 'NONE',  #521 ) ;
#771 = FILL_AREA_STYLE_COLOUR ( '', #253 ) ;
#772 = FILL_AREA_STYLE_COLOUR ( '', #845 ) ;
#773 = CARTESIAN_POINT ( 'NONE',  ( 2.193400286944045430, 0.1903515064562410486, 2.309278636184420884E-16 ) ) ;
#774 = UNCERTAINTY_MEASURE_WITH_UNIT (LENGTH_MEASURE( 1.000000000000000082E-05 ), #787, 'distance_accuracy_value', 'NONE');
#775 = ORIENTED_EDGE ( 'NONE', *, *, #415, .T. ) ;
#776 = SURFACE_SIDE_STYLE ('',( #854 ) ) ;
#777 =( GEOMETRIC_REPRESENTATION_CONTEXT ( 3 ) GLOBAL_UNCERTAINTY_ASSIGNED_CONTEXT ( ( #160 ) ) GLOBAL_UNIT_ASSIGNED_CONTEXT ( ( #55, #539, #545 ) ) REPRESENTATION_CONTEXT ( 'NONE', 'WORKASPACE' ) );
#778 = PRESENTATION_LAYER_ASSIGNMENT (  '', '', ( #233 ) ) ;
#779 = DIRECTION ( 'NONE',  ( 0.7456662065614396706, 0.6663196743247736809, 0.000000000000000000 ) ) ;
#780 = ORIENTED_EDGE ( 'NONE', *, *, #815, .F. ) ;
#781 = DIRECTION ( 'NONE',  ( 0.000000000000000000, 0.000000000000000000, 1.000000000000000000 ) ) ;
#782 = DIRECTION ( 'NONE',  ( -0.000000000000000000, 1.000000000000000000, 1.224646799147353207E-16 ) ) ;
#783 = UNCERTAINTY_MEASURE_WITH_UNIT (LENGTH_MEASURE( 1.000000000000000082E-05 ), #519, 'distance_accuracy_value', 'NONE');
#784 = ORIENTED_EDGE ( 'NONE', *, *, #940, .F. ) ;
#785 = DIRECTION ( 'NONE',  ( 0.7456662065614397816, 0.6663196743247735698, 0.000000000000000000 ) ) ;
#786 =( LENGTH_UNIT ( ) NAMED_UNIT ( * ) SI_UNIT ( .MILLI., .METRE. ) );
#787 =( LENGTH_UNIT ( ) NAMED_UNIT ( * ) SI_UNIT ( .MILLI., .METRE. ) );
#788 = VERTEX_POINT ( 'NONE', #675 ) ;
#789 = ADVANCED_FACE ( 'NONE', ( #582 ), #388, .T. ) ;
#790 = FACE_OUTER_BOUND ( 'NONE', #859, .T. ) ;
#791 = FILL_AREA_STYLE ('',( #242 ) ) ;
#792 = COLOUR_RGB ( '',0.7921568627450980005, 0.8196078431372548767, 0.9333333333333333481 ) ;
#793 =( GEOMETRIC_REPRESENTATION_CONTEXT ( 3 ) GLOBAL_UNCERTAINTY_ASSIGNED_CONTEXT ( ( #921 ) ) GLOBAL_UNIT_ASSIGNED_CONTEXT ( ( #684, #674, #827 ) ) REPRESENTATION_CONTEXT ( 'NONE', 'WORKASPACE' ) );
#794 = EDGE_LOOP ( 'NONE', ( #570, #1016, #668, #7, #113, #41, #161, #299, #566, #996, #245 ) ) ;
#795 = VECTOR ( 'NONE', #945, 1000.000000000000114 ) ;
#796 = MECHANICAL_DESIGN_GEOMETRIC_PRESENTATION_REPRESENTATION (  '', ( #45 ), #317 ) ;
#797 =( NAMED_UNIT ( * ) SI_UNIT ( $, .STERADIAN. ) SOLID_ANGLE_UNIT ( ) );
#798 = EDGE_LOOP ( 'NONE', ( #931, #951, #561, #725, #124 ) ) ;
#799 = MECHANICAL_DESIGN_GEOMETRIC_PRESENTATION_REPRESENTATION (  '', ( #108 ), #356 ) ;
#800 = CARTESIAN_POINT ( 'NONE',  ( 6.000000000000000000, 2.326828918379972351E-16, 0.000000000000000000 ) ) ;
#801 = SURFACE_STYLE_USAGE ( .BOTH. , #647 ) ;
#802 = ORIENTED_EDGE ( 'NONE', *, *, #125, .F. ) ;
#803 = PLANE ( 'NONE',  #273 ) ;
#804 = DIRECTION ( 'NONE',  ( 0.000000000000000000, 1.224646799147353207E-16, -1.000000000000000000 ) ) ;
#805 = ORIENTED_EDGE ( 'NONE', *, *, #706, .F. ) ;
#806 = EDGE_CURVE ( 'NONE', #559, #152, #38, .T. ) ;
#807 = FILL_AREA_STYLE_COLOUR ( '', #602 ) ;
#808 = APPLICATION_CONTEXT ( 'automotive_design' ) ;
#809 = COLOUR_RGB ( '',0.7764705882352941346, 0.7568627450980391913, 0.7372549019607843590 ) ;
#810 = PRESENTATION_LAYER_ASSIGNMENT (  '', '', ( #615 ) ) ;
#811 = SURFACE_STYLE_FILL_AREA ( #791 ) ;
#812 = STYLED_ITEM ( 'NONE', ( #640 ), #923 ) ;
#813 = CARTESIAN_POINT ( 'NONE',  ( 0.000000000000000000, 1.959999999999999964, -0.4350000000000000533 ) ) ;
#814 = DIRECTION ( 'NONE',  ( 0.000000000000000000, 0.000000000000000000, 1.000000000000000000 ) ) ;
#815 = EDGE_CURVE ( 'NONE', #84, #588, #61, .T. ) ;
#816 = DIRECTION ( 'NONE',  ( 0.000000000000000000, -1.224646799147354193E-16, 1.000000000000000000 ) ) ;
#817 = CARTESIAN_POINT ( 'NONE',  ( -25.39999999999996305, 2.143131898507868051E-16, -1.749999999999999778 ) ) ;
#818 = SURFACE_SIDE_STYLE ('',( #189 ) ) ;
#819 =( LENGTH_UNIT ( ) NAMED_UNIT ( * ) SI_UNIT ( .MILLI., .METRE. ) );
#820 = EDGE_CURVE ( 'NONE', #987, #382, #318, .T. ) ;
#821 = FACE_OUTER_BOUND ( 'NONE', #65, .T. ) ;
#822 =( NAMED_UNIT ( * ) PLANE_ANGLE_UNIT ( ) SI_UNIT ( $, .RADIAN. ) );
#823 =( NAMED_UNIT ( * ) PLANE_ANGLE_UNIT ( ) SI_UNIT ( $, .RADIAN. ) );
#824 = AXIS2_PLACEMENT_3D ( 'NONE', #137, #687, #779 ) ;
#825 = AXIS2_PLACEMENT_3D ( 'NONE', #567, #533, #32 ) ;
#826 =( GEOMETRIC_REPRESENTATION_CONTEXT ( 3 ) GLOBAL_UNCERTAINTY_ASSIGNED_CONTEXT ( ( #547 ) ) GLOBAL_UNIT_ASSIGNED_CONTEXT ( ( #409, #635, #939 ) ) REPRESENTATION_CONTEXT ( 'NONE', 'WORKASPACE' ) );
#827 =( NAMED_UNIT ( * ) SI_UNIT ( $, .STERADIAN. ) SOLID_ANGLE_UNIT ( ) );
#828 = MECHANICAL_DESIGN_GEOMETRIC_PRESENTATION_REPRESENTATION (  '', ( #449 ), #357 ) ;
#829 = DIRECTION ( 'NONE',  ( 0.7431005017819711789, -0.08288428673722218754, 0.6640269868487610472 ) ) ;
#830 = CARTESIAN_POINT ( 'NONE',  ( 6.000000000000000000, 2.326828918379972351E-16, 0.000000000000000000 ) ) ;
#831 = CARTESIAN_POINT ( 'NONE',  ( 12.60000000000000320, 0.000000000000000000, 1.749999999999999778 ) ) ;
#832 = LINE ( 'NONE', #624, #185 ) ;
#833 = CARTESIAN_POINT ( 'NONE',  ( 0.9968214519863044520, 0.000000000000000000, 0.000000000000000000 ) ) ;
#834 = SURFACE_STYLE_FILL_AREA ( #535 ) ;
#835 = DIRECTION ( 'NONE',  ( 0.000000000000000000, 1.000000000000000000, 0.000000000000000000 ) ) ;
#836 = PRESENTATION_STYLE_ASSIGNMENT (( #760 ) ) ;
#837 = DIRECTION ( 'NONE',  ( 0.7431005017819711789, 0.6640269868487613802, -0.08288428673721975892 ) ) ;
#838 = SURFACE_STYLE_USAGE ( .BOTH. , #203 ) ;
#839 = SURFACE_STYLE_USAGE ( .BOTH. , #846 ) ;
#840 = EDGE_CURVE ( 'NONE', #246, #588, #530, .T. ) ;
#841 = ORIENTED_EDGE ( 'NONE', *, *, #910, .T. ) ;
#842 = AXIS2_PLACEMENT_3D ( 'NONE', #736, #341, #814 ) ;
#843 = SURFACE_SIDE_STYLE ('',( #136 ) ) ;
#844 = FILL_AREA_STYLE ('',( #772 ) ) ;
#845 = COLOUR_RGB ( '',0.7764705882352941346, 0.7568627450980391913, 0.7372549019607843590 ) ;
#846 = SURFACE_SIDE_STYLE ('',( #289 ) ) ;
#847 = EDGE_CURVE ( 'NONE', #623, #456, #301, .T. ) ;
#848 = ORIENTED_EDGE ( 'NONE', *, *, #68, .T. ) ;
#849 = CARTESIAN_POINT ( 'NONE',  ( 5.974195292295553905, 0.2313525518329656860, 8.370432990360215258E-16 ) ) ;
#850 = DIRECTION ( 'NONE',  ( 0.7431005017819711789, 0.6640269868487613802, 0.08288428673721986994 ) ) ;
#851 = CARTESIAN_POINT ( 'NONE',  ( 2.600000000000000089, 1.749999999999999778, 0.000000000000000000 ) ) ;
#852 = CARTESIAN_POINT ( 'NONE',  ( 2.599999999999998312, 0.000000000000000000, 0.000000000000000000 ) ) ;
#853 = EDGE_LOOP ( 'NONE', ( #93, #581, #553, #487, #130 ) ) ;
#854 = SURFACE_STYLE_FILL_AREA ( #549 ) ;
#855 = ADVANCED_FACE ( 'NONE', ( #998 ), #46, .T. ) ;
#856 = DIRECTION ( 'NONE',  ( 0.000000000000000000, 0.000000000000000000, 1.000000000000000000 ) ) ;
#857 = DIRECTION ( 'NONE',  ( -0.1108510534444137469, -0.9938370308809506559, -3.448999966305766196E-15 ) ) ;
#858 =( LENGTH_UNIT ( ) NAMED_UNIT ( * ) SI_UNIT ( .MILLI., .METRE. ) );
#859 = EDGE_LOOP ( 'NONE', ( #10, #335 ) ) ;
#860 = FILL_AREA_STYLE_COLOUR ( '', #483 ) ;
#861 = EDGE_LOOP ( 'NONE', ( #548, #135, #322 ) ) ;
#862 = FILL_AREA_STYLE_COLOUR ( '', #436 ) ;
#863 = STYLED_ITEM ( 'NONE', ( #66 ), #162 ) ;
#864 = FACE_OUTER_BOUND ( 'NONE', #532, .T. ) ;
#865 = CIRCLE ( 'NONE', #952, 1.749999999999999778 ) ;
#866 = ORIENTED_EDGE ( 'NONE', *, *, #6, .T. ) ;
#867 = STYLED_ITEM ( 'NONE', ( #949 ), #897 ) ;
#868 = APPLICATION_PROTOCOL_DEFINITION ( 'draft international standard', 'automotive_design', 1998, #808 ) ;
#869 = SURFACE_STYLE_USAGE ( .BOTH. , #769 ) ;
#870 = ORIENTED_EDGE ( 'NONE', *, *, #993, .T. ) ;
#871 = DIRECTION ( 'NONE',  ( 1.000000000000000000, 0.000000000000000000, 0.000000000000000000 ) ) ;
#872 = ORIENTED_EDGE ( 'NONE', *, *, #840, .T. ) ;
#873 = PRODUCT ( 'M3.5 x 10 Screw head', 'M3.5 x 10 Screw head', '', ( #584 ) ) ;
#874 = CARTESIAN_POINT ( 'NONE',  ( 0.2666411873824114376, -0.4052592521765831513, 1.721732169736483131 ) ) ;
#875 = DIRECTION ( 'NONE',  ( 0.7431005017819711789, -0.6640269868487613802, -0.08288428673721992546 ) ) ;
#876 = AXIS2_PLACEMENT_3D ( 'NONE', #363, #348, #286 ) ;
#877 = ORIENTED_EDGE ( 'NONE', *, *, #910, .F. ) ;
#878 = STYLED_ITEM ( 'NONE', ( #477 ), #789 ) ;
#879 = COLOUR_RGB ( '',0.7764705882352941346, 0.7568627450980391913, 0.7372549019607843590 ) ;
#880 = PRESENTATION_STYLE_ASSIGNMENT (( #250 ) ) ;
#881 = VECTOR ( 'NONE', #707, 1000.000000000000000 ) ;
#882 =( LENGTH_UNIT ( ) NAMED_UNIT ( * ) SI_UNIT ( .MILLI., .METRE. ) );
#883 = FILL_AREA_STYLE ('',( #486 ) ) ;
#884 = ORIENTED_EDGE ( 'NONE', *, *, #68, .F. ) ;
#885 = EDGE_CURVE ( 'NONE', #393, #788, #538, .T. ) ;
#886 = FACE_OUTER_BOUND ( 'NONE', #324, .T. ) ;
#887 = CARTESIAN_POINT ( 'NONE',  ( 1.949999999999999956, 0.2174999999999999989, 0.2174999999999999711 ) ) ;
#888 = LINE ( 'NONE', #753, #695 ) ;
#889 = DIRECTION ( 'NONE',  ( -0.000000000000000000, 0.000000000000000000, 1.000000000000000000 ) ) ;
#890 =( NAMED_UNIT ( * ) SI_UNIT ( $, .STERADIAN. ) SOLID_ANGLE_UNIT ( ) );
#891 = EDGE_CURVE ( 'NONE', #256, #3, #920, .T. ) ;
#892 = DIRECTION ( 'NONE',  ( -1.000000000000000000, -0.000000000000000000, -0.000000000000000000 ) ) ;
#893 = EDGE_LOOP ( 'NONE', ( #689, #52, #239, #1024 ) ) ;
#894 = SURFACE_STYLE_FILL_AREA ( #342 ) ;
#895 =( GEOMETRIC_REPRESENTATION_CONTEXT ( 3 ) GLOBAL_UNCERTAINTY_ASSIGNED_CONTEXT ( ( #321 ) ) GLOBAL_UNIT_ASSIGNED_CONTEXT ( ( #156, #733, #488 ) ) REPRESENTATION_CONTEXT ( 'NONE', 'WORKASPACE' ) );
#896 = COLOUR_RGB ( '',0.7764705882352941346, 0.7568627450980391913, 0.7372549019607843590 ) ;
#897 = ADVANCED_FACE ( 'NONE', ( #1007 ), #5, .T. ) ;
#898 = SURFACE_SIDE_STYLE ('',( #901 ) ) ;
#899 = FILL_AREA_STYLE ('',( #962 ) ) ;
#900 = SURFACE_SIDE_STYLE ('',( #276 ) ) ;
#901 = SURFACE_STYLE_FILL_AREA ( #595 ) ;
#902 = DIRECTION ( 'NONE',  ( 0.000000000000000000, -1.000000000000000000, -1.246209393661499126E-16 ) ) ;
#903 = MECHANICAL_DESIGN_GEOMETRIC_PRESENTATION_REPRESENTATION (  '', ( #165 ), #9 ) ;
#904 = DIRECTION ( 'NONE',  ( -0.7456662065614396706, 0.6663196743247736809, 0.000000000000000000 ) ) ;
#905 = CARTESIAN_POINT ( 'NONE',  ( -25.39999999999996305, 0.000000000000000000, 3.500000000000000444 ) ) ;
#906 = STYLED_ITEM ( 'NONE', ( #2 ), #673 ) ;
#907 = AXIS2_PLACEMENT_3D ( 'NONE', #800, #81, #492 ) ;
#908 = CARTESIAN_POINT ( 'NONE',  ( 5.974195292295553905, 2.619630734554813543E-16, -0.2313525518329656583 ) ) ;
#909 = DIRECTION ( 'NONE',  ( -0.9938370308809507669, 0.000000000000000000, 0.1108510534444137052 ) ) ;
#910 = EDGE_CURVE ( 'NONE', #382, #788, #423, .T. ) ;
#911 = SURFACE_STYLE_FILL_AREA ( #468 ) ;
#912 = CARTESIAN_POINT ( 'NONE',  ( 2.599999999999998312, 0.000000000000000000, 0.000000000000000000 ) ) ;
#913 = ORIENTED_EDGE ( 'NONE', *, *, #309, .F. ) ;
#914 = DIRECTION ( 'NONE',  ( 0.000000000000000000, 0.000000000000000000, 1.000000000000000000 ) ) ;
#915 = DIRECTION ( 'NONE',  ( -0.9938370308809507669, 0.000000000000000000, 0.1108510534444137052 ) ) ;
#916 = FILL_AREA_STYLE ('',( #994 ) ) ;
#917 = FACE_OUTER_BOUND ( 'NONE', #374, .T. ) ;
#918 = ORIENTED_EDGE ( 'NONE', *, *, #529, .T. ) ;
#919 = STYLED_ITEM ( 'NONE', ( #691 ), #98 ) ;
#920 = CIRCLE ( 'NONE', #621, 1.749999999999999778 ) ;
#921 = UNCERTAINTY_MEASURE_WITH_UNIT (LENGTH_MEASURE( 1.000000000000000082E-05 ), #684, 'distance_accuracy_value', 'NONE');
#922 = ORIENTED_EDGE ( 'NONE', *, *, #978, .T. ) ;
#923 = ADVANCED_FACE ( 'NONE', ( #790 ), #803, .T. ) ;
#924 = SURFACE_STYLE_USAGE ( .BOTH. , #843 ) ;
#925 =( NAMED_UNIT ( * ) PLANE_ANGLE_UNIT ( ) SI_UNIT ( $, .RADIAN. ) );
#926 = DIRECTION ( 'NONE',  ( -0.1108510534444136914, 0.9938370308809506559, 3.595744332370143968E-15 ) ) ;
#927 =( NAMED_UNIT ( * ) SI_UNIT ( $, .STERADIAN. ) SOLID_ANGLE_UNIT ( ) );
#928 = DIRECTION ( 'NONE',  ( -0.1108510534444137469, 2.096348086633972484E-17, 0.9938370308809506559 ) ) ;
#929 =( NAMED_UNIT ( * ) SI_UNIT ( $, .STERADIAN. ) SOLID_ANGLE_UNIT ( ) );
#930 = UNCERTAINTY_MEASURE_WITH_UNIT (LENGTH_MEASURE( 1.000000000000000082E-05 ), #999, 'distance_accuracy_value', 'NONE');
#931 = ORIENTED_EDGE ( 'NONE', *, *, #182, .F. ) ;
#932 = STYLED_ITEM ( 'NONE', ( #1012 ), #316 ) ;
#933 = PRESENTATION_LAYER_ASSIGNMENT (  '', '', ( #165 ) ) ;
#934 = DIRECTION ( 'NONE',  ( 0.000000000000000000, 0.000000000000000000, 1.000000000000000000 ) ) ;
#935 = FACE_OUTER_BOUND ( 'NONE', #490, .T. ) ;
#936 = AXIS2_PLACEMENT_3D ( 'NONE', #984, #385, #856 ) ;
#937 = EDGE_LOOP ( 'NONE', ( #195, #922, #505 ) ) ;
#938 = MECHANICAL_DESIGN_GEOMETRIC_PRESENTATION_REPRESENTATION (  '', ( #812 ), #29 ) ;
#939 =( NAMED_UNIT ( * ) SI_UNIT ( $, .STERADIAN. ) SOLID_ANGLE_UNIT ( ) );
#940 = EDGE_CURVE ( 'NONE', #3, #552, #968, .T. ) ;
#941 = FACE_OUTER_BOUND ( 'NONE', #853, .T. ) ;
#942 = CARTESIAN_POINT ( 'NONE',  ( 2.193400286944045430, -4.336808689942017736E-16, -0.1903515064562410486 ) ) ;
#943 = UNCERTAINTY_MEASURE_WITH_UNIT (LENGTH_MEASURE( 1.000000000000000082E-05 ), #170, 'distance_accuracy_value', 'NONE');
#944 = ORIENTED_EDGE ( 'NONE', *, *, #721, .F. ) ;
#945 = DIRECTION ( 'NONE',  ( 0.9877866216249069353, -0.1101762001043169320, 0.1101762001043165712 ) ) ;
#946 = EDGE_LOOP ( 'NONE', ( #97, #248, #400 ) ) ;
#947 = DIRECTION ( 'NONE',  ( 0.9938370308809507669, -0.1108510534444137746, 0.000000000000000000 ) ) ;
#948 = ORIENTED_EDGE ( 'NONE', *, *, #529, .F. ) ;
#949 = PRESENTATION_STYLE_ASSIGNMENT (( #724 ) ) ;
#950 = CARTESIAN_POINT ( 'NONE',  ( 1.949999999999999956, -0.2175000000000007205, 0.2174999999999993883 ) ) ;
#951 = ORIENTED_EDGE ( 'NONE', *, *, #309, .T. ) ;
#952 = AXIS2_PLACEMENT_3D ( 'NONE', #320, #85, #637 ) ;
#953 = EDGE_CURVE ( 'NONE', #48, #767, #217, .T. ) ;
#954 = AXIS2_PLACEMENT_3D ( 'NONE', #69, #560, #781 ) ;
#955 = PRESENTATION_STYLE_ASSIGNMENT (( #34 ) ) ;
#956 = DIRECTION ( 'NONE',  ( -1.000000000000000000, -0.000000000000000000, -0.000000000000000000 ) ) ;
#957 = PRESENTATION_STYLE_ASSIGNMENT (( #96 ) ) ;
#958 = ORIENTED_EDGE ( 'NONE', *, *, #146, .T. ) ;
#959 = CARTESIAN_POINT ( 'NONE',  ( 6.000000000000000000, 2.326828918379972351E-16, 0.000000000000000000 ) ) ;
#960 = PRESENTATION_STYLE_ASSIGNMENT (( #658 ) ) ;
#961 = ADVANCED_FACE ( 'NONE', ( #886 ), #739, .F. ) ;
#962 = FILL_AREA_STYLE_COLOUR ( '', #26 ) ;
#963 = MECHANICAL_DESIGN_GEOMETRIC_PRESENTATION_REPRESENTATION (  '', ( #412 ), #179 ) ;
#964 = PRESENTATION_LAYER_ASSIGNMENT (  '', '', ( #919 ) ) ;
#965 = FACE_OUTER_BOUND ( 'NONE', #626, .T. ) ;
#966 = STYLED_ITEM ( 'NONE', ( #1013 ), #188 ) ;
#967 = CARTESIAN_POINT ( 'NONE',  ( 12.60000000000000320, 0.000000000000000000, 0.000000000000000000 ) ) ;
#968 = LINE ( 'NONE', #817, #12 ) ;
#969 = PRODUCT_DEFINITION_FORMATION_WITH_SPECIFIED_SOURCE ( 'ANY', '', #873, .NOT_KNOWN. ) ;
#970 = DIRECTION ( 'NONE',  ( 0.6663196743247736809, -0.7456662065614397816, -9.292562311528023527E-17 ) ) ;
#971 = ADVANCED_FACE ( 'NONE', ( #821 ), #734, .F. ) ;
#972 = FACE_OUTER_BOUND ( 'NONE', #946, .T. ) ;
#973 = DIRECTION ( 'NONE',  ( 0.000000000000000000, 0.000000000000000000, 1.000000000000000000 ) ) ;
#974 = LINE ( 'NONE', #661, #431 ) ;
#975 = DIRECTION ( 'NONE',  ( -0.9938370308809506559, -0.1108510534444136914, -3.870343844922732447E-16 ) ) ;
#976 =( NAMED_UNIT ( * ) SI_UNIT ( $, .STERADIAN. ) SOLID_ANGLE_UNIT ( ) );
#977 = FILL_AREA_STYLE_COLOUR ( '', #792 ) ;
#978 = EDGE_CURVE ( 'NONE', #152, #471, #1011, .T. ) ;
#979 = VECTOR ( 'NONE', #51, 1000.000000000000000 ) ;
#980 = CARTESIAN_POINT ( 'NONE',  ( 1.347043950347265318, 0.000000000000000000, 0.000000000000000000 ) ) ;
#981 = FILL_AREA_STYLE ('',( #860 ) ) ;
#982 = STYLED_ITEM ( 'NONE', ( #339 ), #685 ) ;
#983 = AXIS2_PLACEMENT_3D ( 'NONE', #988, #292, #992 ) ;
#984 = CARTESIAN_POINT ( 'NONE',  ( 1.949999999999999956, 0.2174999999999999989, -0.2174999999999999711 ) ) ;
#985 =( LENGTH_UNIT ( ) NAMED_UNIT ( * ) SI_UNIT ( .MILLI., .METRE. ) );
#986 = CARTESIAN_POINT ( 'NONE',  ( 2.599999999999998312, 4.286263797015736595E-16, -3.500000000000000000 ) ) ;
#987 = VERTEX_POINT ( 'NONE', #364 ) ;
#988 = CARTESIAN_POINT ( 'NONE',  ( 2.193400286944045430, 4.336808689942017736E-16, 0.1903515064562409931 ) ) ;
#989 = SURFACE_STYLE_USAGE ( .BOTH. , #682 ) ;
#990 = CARTESIAN_POINT ( 'NONE',  ( 0.03111693966988647586, -0.4315292644214340778, -0.4315292644214357987 ) ) ;
#991 = DIRECTION ( 'NONE',  ( -0.1108510534444136914, 0.9938370308809506559, 3.595744332370143179E-15 ) ) ;
#992 = DIRECTION ( 'NONE',  ( -0.9938370308809506559, 0.000000000000000000, 0.1108510534444136914 ) ) ;
#993 = EDGE_CURVE ( 'NONE', #767, #623, #1025, .T. ) ;
#994 = FILL_AREA_STYLE_COLOUR ( '', #716 ) ;
#995 = CARTESIAN_POINT ( 'NONE',  ( 1.347043950347263763, 0.000000000000000000, 3.080000000000000515 ) ) ;
#996 = ORIENTED_EDGE ( 'NONE', *, *, #249, .T. ) ;
#997 =( GEOMETRIC_REPRESENTATION_CONTEXT ( 3 ) GLOBAL_UNCERTAINTY_ASSIGNED_CONTEXT ( ( #580 ) ) GLOBAL_UNIT_ASSIGNED_CONTEXT ( ( #627, #220, #625 ) ) REPRESENTATION_CONTEXT ( 'NONE', 'WORKASPACE' ) );
#998 = FACE_OUTER_BOUND ( 'NONE', #157, .T. ) ;
#999 =( LENGTH_UNIT ( ) NAMED_UNIT ( * ) SI_UNIT ( .MILLI., .METRE. ) );
#1000 = EDGE_CURVE ( 'NONE', #480, #313, #240, .T. ) ;
#1001 =( GEOMETRIC_REPRESENTATION_CONTEXT ( 3 ) GLOBAL_UNCERTAINTY_ASSIGNED_CONTEXT ( ( #1002 ) ) GLOBAL_UNIT_ASSIGNED_CONTEXT ( ( #368, #200, #223 ) ) REPRESENTATION_CONTEXT ( 'NONE', 'WORKASPACE' ) );
#1002 = UNCERTAINTY_MEASURE_WITH_UNIT (LENGTH_MEASURE( 1.000000000000000082E-05 ), #368, 'distance_accuracy_value', 'NONE');
#1003 = MECHANICAL_DESIGN_GEOMETRIC_PRESENTATION_REPRESENTATION (  '', ( #754 ), #578 ) ;
#1004 = ORIENTED_EDGE ( 'NONE', *, *, #628, .T. ) ;
#1005 =( NAMED_UNIT ( * ) SI_UNIT ( $, .STERADIAN. ) SOLID_ANGLE_UNIT ( ) );
#1006 = DIRECTION ( 'NONE',  ( -0.9938370308809506559, -0.1108510534444136914, -3.870343844922732447E-16 ) ) ;
#1007 = FACE_OUTER_BOUND ( 'NONE', #1010, .T. ) ;
#1008 = CARTESIAN_POINT ( 'NONE',  ( 0.2553644383338094515, 1.731808957027352269, 0.000000000000000000 ) ) ;
#1009 = CARTESIAN_POINT ( 'NONE',  ( 2.214116351126373505, 0.1880408685282115300, 0.1880408685282121406 ) ) ;
#1010 = EDGE_LOOP ( 'NONE', ( #537, #475, #870, #632, #758, #330, #683, #958, #212, #307, #67 ) ) ;
#1011 = LINE ( 'NONE', #121, #881 ) ;
#1012 = PRESENTATION_STYLE_ASSIGNMENT (( #869 ) ) ;
#1013 = PRESENTATION_STYLE_ASSIGNMENT (( #237 ) ) ;
#1014 =( NAMED_UNIT ( * ) PLANE_ANGLE_UNIT ( ) SI_UNIT ( $, .RADIAN. ) );
#1015 = PRODUCT_DEFINITION_CONTEXT ( 'detailed design', #522, 'design' ) ;
#1016 = ORIENTED_EDGE ( 'NONE', *, *, #291, .T. ) ;
#1017 = CARTESIAN_POINT ( 'NONE',  ( 2.193400286944045430, -0.1903515064562409931, -2.309278636184418912E-16 ) ) ;
#1018 = COLOUR_RGB ( '',0.7764705882352941346, 0.7568627450980391913, 0.7372549019607843590 ) ;
#1019 = EDGE_CURVE ( 'NONE', #482, #222, #832, .T. ) ;
#1020 = AXIS2_PLACEMENT_3D ( 'NONE', #493, #319, #636 ) ;
#1021 =( GEOMETRIC_REPRESENTATION_CONTEXT ( 3 ) GLOBAL_UNCERTAINTY_ASSIGNED_CONTEXT ( ( #930 ) ) GLOBAL_UNIT_ASSIGNED_CONTEXT ( ( #999, #63, #56 ) ) REPRESENTATION_CONTEXT ( 'NONE', 'WORKASPACE' ) );
#1022 = DIRECTION ( 'NONE',  ( 0.9938370308809507669, -0.1108510534444137746, 0.000000000000000000 ) ) ;
#1023 = AXIS2_PLACEMENT_3D ( 'NONE', #112, #17, #973 ) ;
#1024 = ORIENTED_EDGE ( 'NONE', *, *, #1000, .F. ) ;
#1025 = CIRCLE ( 'NONE', #954, 3.311827956989247479 ) ;
ENDSEC;
END-ISO-10303-21;
