ISO-10303-21;
HEADER;
FILE_DESCRIPTION (( 'STEP AP214' ),
    '1' );
FILE_NAME ('M3.5 x 8 Screw head.STEP',
    '2023-03-28T04:21:56',
    ( '' ),
    ( '' ),
    'SwSTEP 2.0',
    'SolidWorks 2022',
    '' );
FILE_SCHEMA (( 'AUTOMOTIVE_DESIGN' ));
ENDSEC;

DATA;
#1 = FILL_AREA_STYLE ('',( #237 ) ) ;
#2 = CARTESIAN_POINT ( 'NONE',  ( 2.599999999999998312, 0.000000000000000000, 1.749999999999999778 ) ) ;
#3 = SURFACE_STYLE_USAGE ( .BOTH. , #378 ) ;
#4 = FILL_AREA_STYLE_COLOUR ( '', #381 ) ;
#5 = PRESENTATION_STYLE_ASSIGNMENT (( #862 ) ) ;
#6 = DIRECTION ( 'NONE',  ( 0.000000000000000000, 0.000000000000000000, 1.000000000000000000 ) ) ;
#7 = CARTESIAN_POINT ( 'NONE',  ( 2.193400286944045430, -0.1903515064562409931, -2.309278636184418912E-16 ) ) ;
#8 = AXIS2_PLACEMENT_3D ( 'NONE', #139, #946, #855 ) ;
#9 = FILL_AREA_STYLE_COLOUR ( '', #700 ) ;
#10 = UNCERTAINTY_MEASURE_WITH_UNIT (LENGTH_MEASURE( 1.000000000000000082E-05 ), #632, 'distance_accuracy_value', 'NONE');
#11 = FILL_AREA_STYLE_COLOUR ( '', #114 ) ;
#12 = COLOUR_RGB ( '',0.7764705882352941346, 0.7568627450980391913, 0.7372549019607843590 ) ;
#13 = VERTEX_POINT ( 'NONE', #1009 ) ;
#14 = FACE_OUTER_BOUND ( 'NONE', #649, .T. ) ;
#15 = STYLED_ITEM ( 'NONE', ( #19 ), #927 ) ;
#16 = EDGE_CURVE ( 'NONE', #835, #88, #138, .T. ) ;
#17 = DIRECTION ( 'NONE',  ( 0.9938370308809506559, -0.1108510534444137469, -3.870343844922734420E-16 ) ) ;
#18 = CARTESIAN_POINT ( 'NONE',  ( -25.39999999999996305, 0.000000000000000000, 0.000000000000000000 ) ) ;
#19 = PRESENTATION_STYLE_ASSIGNMENT (( #414 ) ) ;
#20 = ORIENTED_EDGE ( 'NONE', *, *, #77, .F. ) ;
#21 = DIRECTION ( 'NONE',  ( 0.6663196743247735698, 0.7456662065614397816, 0.000000000000000000 ) ) ;
#22 = FILL_AREA_STYLE ('',( #345 ) ) ;
#23 = SURFACE_STYLE_FILL_AREA ( #814 ) ;
#24 = FILL_AREA_STYLE_COLOUR ( '', #813 ) ;
#25 = ORIENTED_EDGE ( 'NONE', *, *, #1006, .F. ) ;
#26 = DIRECTION ( 'NONE',  ( 0.000000000000000000, 0.000000000000000000, 1.000000000000000000 ) ) ;
#27 = AXIS2_PLACEMENT_3D ( 'NONE', #975, #108, #181 ) ;
#28 = AXIS2_PLACEMENT_3D ( 'NONE', #230, #392, #480 ) ;
#29 = CARTESIAN_POINT ( 'NONE',  ( 0.2666411873824114376, -0.4052592521765831513, 1.721732169736483131 ) ) ;
#30 = DIRECTION ( 'NONE',  ( 0.000000000000000000, 0.000000000000000000, 1.000000000000000000 ) ) ;
#31 = ORIENTED_EDGE ( 'NONE', *, *, #963, .F. ) ;
#32 = SURFACE_STYLE_USAGE ( .BOTH. , #350 ) ;
#33 = AXIS2_PLACEMENT_3D ( 'NONE', #933, #675, #213 ) ;
#34 = COLOUR_RGB ( '',0.7764705882352941346, 0.7568627450980391913, 0.7372549019607843590 ) ;
#35 = CARTESIAN_POINT ( 'NONE',  ( 0.000000000000000000, -0.4350000000000069367, 1.959999999999998188 ) ) ;
#36 =( GEOMETRIC_REPRESENTATION_CONTEXT ( 3 ) GLOBAL_UNCERTAINTY_ASSIGNED_CONTEXT ( ( #122 ) ) GLOBAL_UNIT_ASSIGNED_CONTEXT ( ( #158, #856, #703 ) ) REPRESENTATION_CONTEXT ( 'NONE', 'WORKASPACE' ) );
#37 = UNCERTAINTY_MEASURE_WITH_UNIT (LENGTH_MEASURE( 1.000000000000000082E-05 ), #808, 'distance_accuracy_value', 'NONE');
#38 = CARTESIAN_POINT ( 'NONE',  ( 0.03111693966988647586, -0.4315292644214340778, -0.4315292644214357987 ) ) ;
#39 = FILL_AREA_STYLE ('',( #24 ) ) ;
#40 = EDGE_CURVE ( 'NONE', #624, #509, #1014, .T. ) ;
#41 = ORIENTED_EDGE ( 'NONE', *, *, #621, .T. ) ;
#42 = ORIENTED_EDGE ( 'NONE', *, *, #149, .F. ) ;
#43 = CARTESIAN_POINT ( 'NONE',  ( 2.193400286944045430, -4.336808689942017736E-16, -0.1903515064562410486 ) ) ;
#44 = VERTEX_POINT ( 'NONE', #226 ) ;
#45 = FILL_AREA_STYLE_COLOUR ( '', #171 ) ;
#46 = AXIS2_PLACEMENT_3D ( 'NONE', #744, #180, #252 ) ;
#47 = CIRCLE ( 'NONE', #639, 5.995482475482741158 ) ;
#48 = DIRECTION ( 'NONE',  ( 0.7431005017819711789, 0.6640269868487613802, 0.08288428673721986994 ) ) ;
#49 = ORIENTED_EDGE ( 'NONE', *, *, #532, .T. ) ;
#50 = SURFACE_SIDE_STYLE ('',( #288 ) ) ;
#51 = LINE ( 'NONE', #523, #791 ) ;
#52 =( NAMED_UNIT ( * ) PLANE_ANGLE_UNIT ( ) SI_UNIT ( $, .RADIAN. ) );
#53 = EDGE_LOOP ( 'NONE', ( #49, #996, #186 ) ) ;
#54 = PLANE ( 'NONE',  #906 ) ;
#55 = FACE_OUTER_BOUND ( 'NONE', #364, .T. ) ;
#56 = PLANE ( 'NONE',  #91 ) ;
#57 = CARTESIAN_POINT ( 'NONE',  ( 1.949999999999999956, 0.2174999999999999989, -0.2174999999999999711 ) ) ;
#58 = AXIS2_PLACEMENT_3D ( 'NONE', #18, #551, #328 ) ;
#59 = EDGE_CURVE ( 'NONE', #427, #486, #457, .T. ) ;
#60 = VERTEX_POINT ( 'NONE', #150 ) ;
#61 = STYLED_ITEM ( 'NONE', ( #5 ), #383 ) ;
#62 = PRESENTATION_STYLE_ASSIGNMENT (( #514 ) ) ;
#63 = SURFACE_STYLE_FILL_AREA ( #658 ) ;
#64 = VECTOR ( 'NONE', #634, 1000.000000000000000 ) ;
#65 = DIRECTION ( 'NONE',  ( -1.000000000000000000, -0.000000000000000000, -0.000000000000000000 ) ) ;
#66 = EDGE_CURVE ( 'NONE', #356, #100, #389, .T. ) ;
#67 = DIRECTION ( 'NONE',  ( 0.6663196743247735698, 2.696405268330496621E-15, -0.7456662065614397816 ) ) ;
#68 = CARTESIAN_POINT ( 'NONE',  ( 0.9968214519863044520, 0.000000000000000000, 0.000000000000000000 ) ) ;
#69 = EDGE_CURVE ( 'NONE', #781, #269, #315, .T. ) ;
#70 = CARTESIAN_POINT ( 'NONE',  ( 1.949999999999999956, 0.2175000000000001377, 0.2174999999999999711 ) ) ;
#71 = CARTESIAN_POINT ( 'NONE',  ( 2.599999999999998312, 0.000000000000000000, 0.000000000000000000 ) ) ;
#72 = CARTESIAN_POINT ( 'NONE',  ( 0.9968214519863044520, 3.311827956989247479, 0.000000000000000000 ) ) ;
#73 = AXIS2_PLACEMENT_3D ( 'NONE', #728, #413, #488 ) ;
#74 = TOROIDAL_SURFACE ( 'NONE', #541, 3.080000000000000515, 0.4200000000000000400 ) ;
#75 = PLANE ( 'NONE',  #79 ) ;
#76 =( NAMED_UNIT ( * ) PLANE_ANGLE_UNIT ( ) SI_UNIT ( $, .RADIAN. ) );
#77 = EDGE_CURVE ( 'NONE', #88, #612, #931, .T. ) ;
#78 = STYLED_ITEM ( 'NONE', ( #770 ), #525 ) ;
#79 = AXIS2_PLACEMENT_3D ( 'NONE', #465, #21, #656 ) ;
#80 = CARTESIAN_POINT ( 'NONE',  ( 5.974195292295553905, 0.2313525518329656860, 8.370432990360215258E-16 ) ) ;
#81 = DIRECTION ( 'NONE',  ( -0.1108510534444136914, 1.257808851980383614E-16, -0.9938370308809506559 ) ) ;
#82 = CARTESIAN_POINT ( 'NONE',  ( -25.39999999999996305, 0.000000000000000000, 1.749999999999999778 ) ) ;
#83 = CARTESIAN_POINT ( 'NONE',  ( 0.2666411873824114376, 1.721732169736485352, 0.4052592521765772671 ) ) ;
#84 =( LENGTH_UNIT ( ) NAMED_UNIT ( * ) SI_UNIT ( .MILLI., .METRE. ) );
#85 = PLANE ( 'NONE',  #598 ) ;
#86 = SURFACE_SIDE_STYLE ('',( #247 ) ) ;
#87 = EDGE_CURVE ( 'NONE', #915, #325, #316, .T. ) ;
#88 = VERTEX_POINT ( 'NONE', #384 ) ;
#89 = CARTESIAN_POINT ( 'NONE',  ( 6.000000000000000000, 2.326828918379972351E-16, 0.000000000000000000 ) ) ;
#90 = AXIS2_PLACEMENT_3D ( 'NONE', #702, #929, #622 ) ;
#91 = AXIS2_PLACEMENT_3D ( 'NONE', #699, #460, #168 ) ;
#92 =( NAMED_UNIT ( * ) PLANE_ANGLE_UNIT ( ) SI_UNIT ( $, .RADIAN. ) );
#93 =( NAMED_UNIT ( * ) PLANE_ANGLE_UNIT ( ) SI_UNIT ( $, .RADIAN. ) );
#94 = VECTOR ( 'NONE', #1007, 1000.000000000000000 ) ;
#95 = PRESENTATION_LAYER_ASSIGNMENT (  '', '', ( #529 ) ) ;
#96 = ORIENTED_EDGE ( 'NONE', *, *, #681, .T. ) ;
#97 = EDGE_CURVE ( 'NONE', #644, #624, #769, .T. ) ;
#98 = CIRCLE ( 'NONE', #672, 3.500000000000000444 ) ;
#99 = SURFACE_STYLE_FILL_AREA ( #39 ) ;
#100 = VERTEX_POINT ( 'NONE', #377 ) ;
#101 = SURFACE_SIDE_STYLE ('',( #331 ) ) ;
#102 = EDGE_CURVE ( 'NONE', #100, #865, #106, .T. ) ;
#103 = ORIENTED_EDGE ( 'NONE', *, *, #713, .F. ) ;
#104 =( NAMED_UNIT ( * ) PLANE_ANGLE_UNIT ( ) SI_UNIT ( $, .RADIAN. ) );
#105 = PLANE ( 'NONE',  #33 ) ;
#106 = CIRCLE ( 'NONE', #90, 5.995482475482741158 ) ;
#107 = COLOUR_RGB ( '',0.7764705882352941346, 0.7568627450980391913, 0.7372549019607843590 ) ;
#108 = DIRECTION ( 'NONE',  ( -1.000000000000000000, -0.000000000000000000, -0.000000000000000000 ) ) ;
#109 = LINE ( 'NONE', #248, #279 ) ;
#110 = VERTEX_POINT ( 'NONE', #692 ) ;
#111 = LINE ( 'NONE', #895, #889 ) ;
#112 = AXIS2_PLACEMENT_3D ( 'NONE', #43, #892, #554 ) ;
#113 = SURFACE_STYLE_USAGE ( .BOTH. , #246 ) ;
#114 = COLOUR_RGB ( '',0.7764705882352941346, 0.7568627450980391913, 0.7372549019607843590 ) ;
#115 = UNCERTAINTY_MEASURE_WITH_UNIT (LENGTH_MEASURE( 1.000000000000000082E-05 ), #301, 'distance_accuracy_value', 'NONE');
#116 = ORIENTED_EDGE ( 'NONE', *, *, #238, .T. ) ;
#117 = FACE_OUTER_BOUND ( 'NONE', #53, .T. ) ;
#118 = DIRECTION ( 'NONE',  ( 0.7456662065614396706, 0.6663196743247736809, 0.000000000000000000 ) ) ;
#119 = PRESENTATION_STYLE_ASSIGNMENT (( #923 ) ) ;
#120 = EDGE_LOOP ( 'NONE', ( #202, #553, #249, #682 ) ) ;
#121 = EDGE_CURVE ( 'NONE', #612, #921, #1016, .T. ) ;
#122 = UNCERTAINTY_MEASURE_WITH_UNIT (LENGTH_MEASURE( 1.000000000000000082E-05 ), #158, 'distance_accuracy_value', 'NONE');
#123 = VECTOR ( 'NONE', #863, 999.9999999999998863 ) ;
#124 = TOROIDAL_SURFACE ( 'NONE', #28, 3.080000000000000515, 0.4200000000000000400 ) ;
#125 = ORIENTED_EDGE ( 'NONE', *, *, #432, .F. ) ;
#126 =( LENGTH_UNIT ( ) NAMED_UNIT ( * ) SI_UNIT ( .MILLI., .METRE. ) );
#127 = PRESENTATION_LAYER_ASSIGNMENT (  '', '', ( #564 ) ) ;
#128 =( NAMED_UNIT ( * ) SI_UNIT ( $, .STERADIAN. ) SOLID_ANGLE_UNIT ( ) );
#129 = COLOUR_RGB ( '',0.7764705882352941346, 0.7568627450980391913, 0.7372549019607843590 ) ;
#130 = PRESENTATION_LAYER_ASSIGNMENT (  '', '', ( #974 ) ) ;
#131 = AXIS2_PLACEMENT_3D ( 'NONE', #620, #701, #852 ) ;
#132 = ORIENTED_EDGE ( 'NONE', *, *, #134, .F. ) ;
#133 = CARTESIAN_POINT ( 'NONE',  ( 4.309938594911940868, 6.836180637525074799E-15, -1.891316923914901693 ) ) ;
#134 = EDGE_CURVE ( 'NONE', #644, #44, #370, .T. ) ;
#135 = SURFACE_SIDE_STYLE ('',( #845 ) ) ;
#136 = ORIENTED_EDGE ( 'NONE', *, *, #867, .F. ) ;
#137 =( NAMED_UNIT ( * ) PLANE_ANGLE_UNIT ( ) SI_UNIT ( $, .RADIAN. ) );
#138 = CIRCLE ( 'NONE', #417, 3.311827956989247479 ) ;
#139 = CARTESIAN_POINT ( 'NONE',  ( 6.000000000000000000, 2.326828918379972351E-16, 0.000000000000000000 ) ) ;
#140 = FILL_AREA_STYLE_COLOUR ( '', #12 ) ;
#141 = FILL_AREA_STYLE_COLOUR ( '', #107 ) ;
#142 = AXIS2_PLACEMENT_3D ( 'NONE', #518, #298, #764 ) ;
#143 = COLOUR_RGB ( '',0.7764705882352941346, 0.7568627450980391913, 0.7372549019607843590 ) ;
#144 = DIRECTION ( 'NONE',  ( -0.9877866216249070463, 0.1101762001043161965, 0.1101762001043165434 ) ) ;
#145 = SURFACE_STYLE_FILL_AREA ( #451 ) ;
#146 = DIRECTION ( 'NONE',  ( 0.9938370308809507669, 0.000000000000000000, 0.1108510534444137746 ) ) ;
#147 = PRESENTATION_STYLE_ASSIGNMENT (( #3 ) ) ;
#148 = ORIENTED_EDGE ( 'NONE', *, *, #786, .F. ) ;
#149 = EDGE_CURVE ( 'NONE', #356, #13, #711, .T. ) ;
#150 = CARTESIAN_POINT ( 'NONE',  ( 0.2666411873824114376, -1.721732169736485796, -0.4052592521765772116 ) ) ;
#151 = DIRECTION ( 'NONE',  ( 0.9877866216249069353, -0.1101762001043169320, 0.1101762001043165712 ) ) ;
#152 = MECHANICAL_DESIGN_GEOMETRIC_PRESENTATION_REPRESENTATION (  '', ( #806 ), #578 ) ;
#153 =( GEOMETRIC_REPRESENTATION_CONTEXT ( 3 ) GLOBAL_UNCERTAINTY_ASSIGNED_CONTEXT ( ( #657 ) ) GLOBAL_UNIT_ASSIGNED_CONTEXT ( ( #669, #651, #261 ) ) REPRESENTATION_CONTEXT ( 'NONE', 'WORKASPACE' ) );
#154 = DIRECTION ( 'NONE',  ( -0.9938370308809507669, -0.1108510534444137052, 0.000000000000000000 ) ) ;
#155 = CIRCLE ( 'NONE', #1020, 5.995482475482740270 ) ;
#156 = COLOUR_RGB ( '',0.7764705882352941346, 0.7568627450980391913, 0.7372549019607843590 ) ;
#157 = SURFACE_STYLE_FILL_AREA ( #531 ) ;
#158 =( LENGTH_UNIT ( ) NAMED_UNIT ( * ) SI_UNIT ( .MILLI., .METRE. ) );
#159 = MECHANICAL_DESIGN_GEOMETRIC_PRESENTATION_REPRESENTATION (  '', ( #653 ), #857 ) ;
#160 = SURFACE_STYLE_USAGE ( .BOTH. , #872 ) ;
#161 = FACE_OUTER_BOUND ( 'NONE', #166, .T. ) ;
#162 = UNCERTAINTY_MEASURE_WITH_UNIT (LENGTH_MEASURE( 1.000000000000000082E-05 ), #239, 'distance_accuracy_value', 'NONE');
#163 = EDGE_CURVE ( 'NONE', #486, #325, #318, .T. ) ;
#164 = DIRECTION ( 'NONE',  ( 0.000000000000000000, 0.000000000000000000, 1.000000000000000000 ) ) ;
#165 =( LENGTH_UNIT ( ) NAMED_UNIT ( * ) SI_UNIT ( .MILLI., .METRE. ) );
#166 = EDGE_LOOP ( 'NONE', ( #329, #965, #666, #538, #591 ) ) ;
#167 = CARTESIAN_POINT ( 'NONE',  ( 0.2666411873824114376, 1.721732169736486240, -0.4052592521765773226 ) ) ;
#168 = DIRECTION ( 'NONE',  ( -0.9938370308809506559, 0.000000000000000000, 0.1108510534444136914 ) ) ;
#169 = UNCERTAINTY_MEASURE_WITH_UNIT (LENGTH_MEASURE( 1.000000000000000082E-05 ), #749, 'distance_accuracy_value', 'NONE');
#170 = CARTESIAN_POINT ( 'NONE',  ( 2.599999999999998312, 0.000000000000000000, 0.000000000000000000 ) ) ;
#171 = COLOUR_RGB ( '',0.7764705882352941346, 0.7568627450980391913, 0.7372549019607843590 ) ;
#172 = STYLED_ITEM ( 'NONE', ( #456 ), #603 ) ;
#173 = ORIENTED_EDGE ( 'NONE', *, *, #636, .T. ) ;
#174 = PRESENTATION_LAYER_ASSIGNMENT (  '', '', ( #640 ) ) ;
#175 = CARTESIAN_POINT ( 'NONE',  ( 10.60000000000000142, 2.143131898507868051E-16, -1.749999999999999778 ) ) ;
#176 = SURFACE_STYLE_USAGE ( .BOTH. , #969 ) ;
#177 = EDGE_LOOP ( 'NONE', ( #410, #245, #655 ) ) ;
#178 = LINE ( 'NONE', #491, #618 ) ;
#179 = ADVANCED_FACE ( 'NONE', ( #937 ), #774, .T. ) ;
#180 = DIRECTION ( 'NONE',  ( 0.6663196743247735698, -2.603479645215216163E-15, 0.7456662065614397816 ) ) ;
#181 = DIRECTION ( 'NONE',  ( 0.000000000000000000, 0.000000000000000000, 1.000000000000000000 ) ) ;
#182 = VERTEX_POINT ( 'NONE', #323 ) ;
#183 = SURFACE_STYLE_FILL_AREA ( #561 ) ;
#184 = PRESENTATION_STYLE_ASSIGNMENT (( #896 ) ) ;
#185 = PRESENTATION_LAYER_ASSIGNMENT (  '', '', ( #234 ) ) ;
#186 = ORIENTED_EDGE ( 'NONE', *, *, #519, .F. ) ;
#187 = DIRECTION ( 'NONE',  ( 0.6663196743247736809, -0.7456662065614397816, -9.292562311528023527E-17 ) ) ;
#188 =( GEOMETRIC_REPRESENTATION_CONTEXT ( 3 ) GLOBAL_UNCERTAINTY_ASSIGNED_CONTEXT ( ( #267 ) ) GLOBAL_UNIT_ASSIGNED_CONTEXT ( ( #836, #851, #777 ) ) REPRESENTATION_CONTEXT ( 'NONE', 'WORKASPACE' ) );
#189 = AXIS2_PLACEMENT_3D ( 'NONE', #170, #735, #30 ) ;
#190 = UNCERTAINTY_MEASURE_WITH_UNIT (LENGTH_MEASURE( 1.000000000000000082E-05 ), #513, 'distance_accuracy_value', 'NONE');
#191 = ADVANCED_FACE ( 'NONE', ( #643 ), #483, .T. ) ;
#192 = DIRECTION ( 'NONE',  ( 0.9938370308809506559, 0.000000000000000000, 0.1108510534444137469 ) ) ;
#193 = ORIENTED_EDGE ( 'NONE', *, *, #121, .F. ) ;
#194 = DIRECTION ( 'NONE',  ( -0.000000000000000000, 0.000000000000000000, 1.000000000000000000 ) ) ;
#195 = CARTESIAN_POINT ( 'NONE',  ( 5.974195292295553905, -0.2313525518329657138, -8.028830871489587498E-16 ) ) ;
#196 = VERTEX_POINT ( 'NONE', #38 ) ;
#197 = FACE_OUTER_BOUND ( 'NONE', #120, .T. ) ;
#198 = FILL_AREA_STYLE_COLOUR ( '', #511 ) ;
#199 = CIRCLE ( 'NONE', #787, 1.749999999999999778 ) ;
#200 =( GEOMETRIC_REPRESENTATION_CONTEXT ( 3 ) GLOBAL_UNCERTAINTY_ASSIGNED_CONTEXT ( ( #115 ) ) GLOBAL_UNIT_ASSIGNED_CONTEXT ( ( #301, #686, #369 ) ) REPRESENTATION_CONTEXT ( 'NONE', 'WORKASPACE' ) );
#201 =( NAMED_UNIT ( * ) PLANE_ANGLE_UNIT ( ) SI_UNIT ( $, .RADIAN. ) );
#202 = ORIENTED_EDGE ( 'NONE', *, *, #910, .T. ) ;
#203 = ADVANCED_FACE ( 'NONE', ( #469 ), #409, .T. ) ;
#204 = VECTOR ( 'NONE', #978, 1000.000000000000114 ) ;
#205 =( GEOMETRIC_REPRESENTATION_CONTEXT ( 3 ) GLOBAL_UNCERTAINTY_ASSIGNED_CONTEXT ( ( #285 ) ) GLOBAL_UNIT_ASSIGNED_CONTEXT ( ( #567, #493, #641 ) ) REPRESENTATION_CONTEXT ( 'NONE', 'WORKASPACE' ) );
#206 = ORIENTED_EDGE ( 'NONE', *, *, #681, .F. ) ;
#207 = FILL_AREA_STYLE_COLOUR ( '', #129 ) ;
#208 = EDGE_CURVE ( 'NONE', #325, #486, #199, .T. ) ;
#209 =( NAMED_UNIT ( * ) PLANE_ANGLE_UNIT ( ) SI_UNIT ( $, .RADIAN. ) );
#210 =( NAMED_UNIT ( * ) SI_UNIT ( $, .STERADIAN. ) SOLID_ANGLE_UNIT ( ) );
#211 = DIRECTION ( 'NONE',  ( -1.000000000000000000, -0.000000000000000000, -0.000000000000000000 ) ) ;
#212 = CYLINDRICAL_SURFACE ( 'NONE', #638, 1.749999999999999778 ) ;
#213 = DIRECTION ( 'NONE',  ( 0.7456662065614397816, 0.6663196743247735698, 0.000000000000000000 ) ) ;
#214 = AXIS2_PLACEMENT_3D ( 'NONE', #71, #65, #925 ) ;
#215 = MECHANICAL_DESIGN_GEOMETRIC_PRESENTATION_REPRESENTATION (  '', ( #235 ), #984 ) ;
#216 = DIRECTION ( 'NONE',  ( -1.000000000000000000, -0.000000000000000000, -0.000000000000000000 ) ) ;
#217 = FILL_AREA_STYLE ('',( #1024 ) ) ;
#218 = ORIENTED_EDGE ( 'NONE', *, *, #1012, .F. ) ;
#219 = CARTESIAN_POINT ( 'NONE',  ( 2.214116351126373505, -0.1880408685282114467, -0.1880408685282121684 ) ) ;
#220 = AXIS2_PLACEMENT_3D ( 'NONE', #242, #373, #146 ) ;
#221 = MECHANICAL_DESIGN_GEOMETRIC_PRESENTATION_REPRESENTATION (  '', ( #529 ), #36 ) ;
#222 = COLOUR_RGB ( '',0.7921568627450980005, 0.8196078431372548767, 0.9333333333333333481 ) ;
#223 = CARTESIAN_POINT ( 'NONE',  ( 0.000000000000000000, 0.4350000000000068257, -1.959999999999998188 ) ) ;
#224 = VERTEX_POINT ( 'NONE', #29 ) ;
#225 = ADVANCED_BREP_SHAPE_REPRESENTATION ( 'M3.5 x 8 Screw head', ( #927, #131 ), #1004 ) ;
#226 = CARTESIAN_POINT ( 'NONE',  ( 1.949999999999999956, -0.2175000000000000266, -0.2174999999999999989 ) ) ;
#227 = DIRECTION ( 'NONE',  ( -0.000000000000000000, 0.000000000000000000, 1.000000000000000000 ) ) ;
#228 = ORIENTED_EDGE ( 'NONE', *, *, #713, .T. ) ;
#229 = DIRECTION ( 'NONE',  ( -0.1108510534444136914, 0.9938370308809506559, 3.595744332370143179E-15 ) ) ;
#230 = CARTESIAN_POINT ( 'NONE',  ( 1.347043950347263763, 0.000000000000000000, 0.000000000000000000 ) ) ;
#231 = SHAPE_DEFINITION_REPRESENTATION ( #562, #225 ) ;
#232 = CARTESIAN_POINT ( 'NONE',  ( 0.000000000000000000, -0.4349999999999927813, -1.960000000000001741 ) ) ;
#233 = CARTESIAN_POINT ( 'NONE',  ( 10.60000000000000142, 0.000000000000000000, 0.000000000000000000 ) ) ;
#234 = STYLED_ITEM ( 'NONE', ( #542 ), #179 ) ;
#235 = STYLED_ITEM ( 'NONE', ( #540 ), #283 ) ;
#236 = ORIENTED_EDGE ( 'NONE', *, *, #935, .F. ) ;
#237 = FILL_AREA_STYLE_COLOUR ( '', #773 ) ;
#238 = EDGE_CURVE ( 'NONE', #512, #437, #335, .T. ) ;
#239 =( LENGTH_UNIT ( ) NAMED_UNIT ( * ) SI_UNIT ( .MILLI., .METRE. ) );
#240 = SURFACE_STYLE_USAGE ( .BOTH. , #802 ) ;
#241 = AXIS2_PLACEMENT_3D ( 'NONE', #233, #712, #164 ) ;
#242 = CARTESIAN_POINT ( 'NONE',  ( 5.974195292295553905, 2.375629221075779134E-16, 0.2313525518329657416 ) ) ;
#243 =( NAMED_UNIT ( * ) SI_UNIT ( $, .STERADIAN. ) SOLID_ANGLE_UNIT ( ) );
#244 = EDGE_CURVE ( 'NONE', #437, #835, #461, .T. ) ;
#245 = ORIENTED_EDGE ( 'NONE', *, *, #550, .T. ) ;
#246 = SURFACE_SIDE_STYLE ('',( #962 ) ) ;
#247 = SURFACE_STYLE_FILL_AREA ( #734 ) ;
#248 = CARTESIAN_POINT ( 'NONE',  ( 0.000000000000000000, 0.4349999999999932254, 1.960000000000001741 ) ) ;
#249 = ORIENTED_EDGE ( 'NONE', *, *, #208, .F. ) ;
#250 = DIRECTION ( 'NONE',  ( -0.1108510534444136914, 0.9938370308809506559, 3.595744332370143179E-15 ) ) ;
#251 = STYLED_ITEM ( 'NONE', ( #732 ), #388 ) ;
#252 = DIRECTION ( 'NONE',  ( -0.7456662065614397816, -2.326442708608981349E-15, 0.6663196743247735698 ) ) ;
#253 = UNCERTAINTY_MEASURE_WITH_UNIT (LENGTH_MEASURE( 1.000000000000000082E-05 ), #303, 'distance_accuracy_value', 'NONE');
#254 = STYLED_ITEM ( 'NONE', ( #833 ), #419 ) ;
#255 = DIRECTION ( 'NONE',  ( 0.000000000000000000, -1.000000000000000000, 0.000000000000000000 ) ) ;
#256 = SURFACE_STYLE_USAGE ( .BOTH. , #401 ) ;
#257 = PRESENTATION_LAYER_ASSIGNMENT (  '', '', ( #704 ) ) ;
#258 = ADVANCED_FACE ( 'NONE', ( #823 ), #420, .T. ) ;
#259 = PRESENTATION_LAYER_ASSIGNMENT (  '', '', ( #653 ) ) ;
#260 = ORIENTED_EDGE ( 'NONE', *, *, #550, .F. ) ;
#261 =( NAMED_UNIT ( * ) SI_UNIT ( $, .STERADIAN. ) SOLID_ANGLE_UNIT ( ) );
#262 = DIRECTION ( 'NONE',  ( 1.000000000000000000, 0.000000000000000000, 0.000000000000000000 ) ) ;
#263 = DIRECTION ( 'NONE',  ( -0.000000000000000000, 0.000000000000000000, -1.000000000000000000 ) ) ;
#264 = EDGE_LOOP ( 'NONE', ( #607, #1005, #42, #372 ) ) ;
#265 = FILL_AREA_STYLE ('',( #743 ) ) ;
#266 = DIRECTION ( 'NONE',  ( 0.000000000000000000, -1.246209393661499619E-16, 1.000000000000000000 ) ) ;
#267 = UNCERTAINTY_MEASURE_WITH_UNIT (LENGTH_MEASURE( 1.000000000000000082E-05 ), #836, 'distance_accuracy_value', 'NONE');
#268 = DIRECTION ( 'NONE',  ( -0.1108510534444137469, 2.096348086633972484E-17, 0.9938370308809506559 ) ) ;
#269 = VERTEX_POINT ( 'NONE', #934 ) ;
#270 =( LENGTH_UNIT ( ) NAMED_UNIT ( * ) SI_UNIT ( .MILLI., .METRE. ) );
#271 = CLOSED_SHELL ( 'NONE', ( #388, #203, #748, #917, #525, #676, #258, #830, #280, #191, #859, #834, #283, #179, #603, #449, #979, #273, #539, #383, #419, #459, #647 ) ) ;
#272 = FACE_OUTER_BOUND ( 'NONE', #993, .T. ) ;
#273 = ADVANCED_FACE ( 'NONE', ( #454 ), #778, .F. ) ;
#274 = FACE_OUTER_BOUND ( 'NONE', #846, .T. ) ;
#275 = ORIENTED_EDGE ( 'NONE', *, *, #963, .T. ) ;
#276 = PRESENTATION_LAYER_ASSIGNMENT (  '', '', ( #1001 ) ) ;
#277 = CIRCLE ( 'NONE', #652, 5.437518987584765817 ) ;
#278 = DIRECTION ( 'NONE',  ( -1.000000000000000000, -0.000000000000000000, -0.000000000000000000 ) ) ;
#279 = VECTOR ( 'NONE', #729, 999.9999999999998863 ) ;
#280 = ADVANCED_FACE ( 'NONE', ( #274 ), #56, .T. ) ;
#281 = ORIENTED_EDGE ( 'NONE', *, *, #867, .T. ) ;
#282 = APPLICATION_CONTEXT ( 'automotive_design' ) ;
#283 = ADVANCED_FACE ( 'NONE', ( #945 ), #124, .T. ) ;
#284 = EDGE_LOOP ( 'NONE', ( #825, #725, #746 ) ) ;
#285 = UNCERTAINTY_MEASURE_WITH_UNIT (LENGTH_MEASURE( 1.000000000000000082E-05 ), #567, 'distance_accuracy_value', 'NONE');
#286 = PRESENTATION_LAYER_ASSIGNMENT (  '', '', ( #61 ) ) ;
#287 = EDGE_LOOP ( 'NONE', ( #533, #673, #820 ) ) ;
#288 = SURFACE_STYLE_FILL_AREA ( #768 ) ;
#289 = PRODUCT_DEFINITION ( 'UNKNOWN', '', #403, #498 ) ;
#290 = MECHANICAL_DESIGN_GEOMETRIC_PRESENTATION_REPRESENTATION (  '', ( #254 ), #583 ) ;
#291 = FILL_AREA_STYLE ('',( #198 ) ) ;
#292 = MECHANICAL_DESIGN_GEOMETRIC_PRESENTATION_REPRESENTATION (  '', ( #740 ), #322 ) ;
#293 = PRESENTATION_LAYER_ASSIGNMENT (  '', '', ( #15 ) ) ;
#294 = FILL_AREA_STYLE ('',( #691 ) ) ;
#295 = SURFACE_STYLE_USAGE ( .BOTH. , #135 ) ;
#296 = ORIENTED_EDGE ( 'NONE', *, *, #589, .F. ) ;
#297 = DIRECTION ( 'NONE',  ( -0.1108510534444136914, 1.257808851980383614E-16, -0.9938370308809506559 ) ) ;
#298 = DIRECTION ( 'NONE',  ( -0.1108510534444137469, -0.9938370308809506559, -3.448999966305766196E-15 ) ) ;
#299 = CARTESIAN_POINT ( 'NONE',  ( 2.599999999999998312, 0.000000000000000000, 0.000000000000000000 ) ) ;
#300 = ORIENTED_EDGE ( 'NONE', *, *, #40, .F. ) ;
#301 =( LENGTH_UNIT ( ) NAMED_UNIT ( * ) SI_UNIT ( .MILLI., .METRE. ) );
#302 = CARTESIAN_POINT ( 'NONE',  ( 1.949999999999999956, 0.2174999999999999989, 0.2174999999999999711 ) ) ;
#303 =( LENGTH_UNIT ( ) NAMED_UNIT ( * ) SI_UNIT ( .MILLI., .METRE. ) );
#304 = ORIENTED_EDGE ( 'NONE', *, *, #426, .F. ) ;
#305 = MECHANICAL_DESIGN_GEOMETRIC_PRESENTATION_REPRESENTATION (  '', ( #1001 ), #853 ) ;
#306 = MECHANICAL_DESIGN_GEOMETRIC_PRESENTATION_REPRESENTATION (  '', ( #955 ), #939 ) ;
#307 =( GEOMETRIC_REPRESENTATION_CONTEXT ( 3 ) GLOBAL_UNCERTAINTY_ASSIGNED_CONTEXT ( ( #473 ) ) GLOBAL_UNIT_ASSIGNED_CONTEXT ( ( #126, #517, #775 ) ) REPRESENTATION_CONTEXT ( 'NONE', 'WORKASPACE' ) );
#308 = CIRCLE ( 'NONE', #189, 3.500000000000000000 ) ;
#309 = PLANE ( 'NONE',  #382 ) ;
#310 =( NAMED_UNIT ( * ) SI_UNIT ( $, .STERADIAN. ) SOLID_ANGLE_UNIT ( ) );
#311 =( NAMED_UNIT ( * ) SI_UNIT ( $, .STERADIAN. ) SOLID_ANGLE_UNIT ( ) );
#312 = EDGE_CURVE ( 'NONE', #844, #110, #807, .T. ) ;
#313 = ORIENTED_EDGE ( 'NONE', *, *, #765, .T. ) ;
#314 = UNCERTAINTY_MEASURE_WITH_UNIT (LENGTH_MEASURE( 1.000000000000000082E-05 ), #848, 'distance_accuracy_value', 'NONE');
#315 = CIRCLE ( 'NONE', #646, 3.500000000000000000 ) ;
#316 = LINE ( 'NONE', #82, #597 ) ;
#317 = SURFACE_STYLE_FILL_AREA ( #217 ) ;
#318 = CIRCLE ( 'NONE', #214, 1.749999999999999778 ) ;
#319 = VECTOR ( 'NONE', #727, 1000.000000000000000 ) ;
#320 = SURFACE_SIDE_STYLE ('',( #882 ) ) ;
#321 = AXIS2_PLACEMENT_3D ( 'NONE', #80, #866, #154 ) ;
#322 =( GEOMETRIC_REPRESENTATION_CONTEXT ( 3 ) GLOBAL_UNCERTAINTY_ASSIGNED_CONTEXT ( ( #190 ) ) GLOBAL_UNIT_ASSIGNED_CONTEXT ( ( #513, #137, #912 ) ) REPRESENTATION_CONTEXT ( 'NONE', 'WORKASPACE' ) );
#323 = CARTESIAN_POINT ( 'NONE',  ( 0.03111693966988560850, 0.4315292644214372975, -0.4315292644214357431 ) ) ;
#324 = STYLED_ITEM ( 'NONE', ( #654 ), #979 ) ;
#325 = VERTEX_POINT ( 'NONE', #2 ) ;
#326 = DIRECTION ( 'NONE',  ( -0.7456662065614396706, 0.6663196743247736809, 0.000000000000000000 ) ) ;
#327 = UNCERTAINTY_MEASURE_WITH_UNIT (LENGTH_MEASURE( 1.000000000000000082E-05 ), #165, 'distance_accuracy_value', 'NONE');
#328 = DIRECTION ( 'NONE',  ( 0.000000000000000000, 0.000000000000000000, 1.000000000000000000 ) ) ;
#329 = ORIENTED_EDGE ( 'NONE', *, *, #854, .T. ) ;
#330 = PRESENTATION_STYLE_ASSIGNMENT (( #32 ) ) ;
#331 = SURFACE_STYLE_FILL_AREA ( #22 ) ;
#332 = CARTESIAN_POINT ( 'NONE',  ( 2.599999999999998312, 0.000000000000000000, 0.000000000000000000 ) ) ;
#333 =( NAMED_UNIT ( * ) PLANE_ANGLE_UNIT ( ) SI_UNIT ( $, .RADIAN. ) );
#334 = ORIENTED_EDGE ( 'NONE', *, *, #519, .T. ) ;
#335 = CIRCLE ( 'NONE', #914, 0.4199999999999998179 ) ;
#336 = PRESENTATION_LAYER_ASSIGNMENT (  '', '', ( #235 ) ) ;
#337 = FACE_OUTER_BOUND ( 'NONE', #490, .T. ) ;
#338 = UNCERTAINTY_MEASURE_WITH_UNIT (LENGTH_MEASURE( 1.000000000000000082E-05 ), #908, 'distance_accuracy_value', 'NONE');
#339 = AXIS2_PLACEMENT_3D ( 'NONE', #893, #983, #412 ) ;
#340 = FILL_AREA_STYLE_COLOUR ( '', #446 ) ;
#341 = FILL_AREA_STYLE ('',( #879 ) ) ;
#342 = VECTOR ( 'NONE', #48, 1000.000000000000000 ) ;
#343 = EDGE_LOOP ( 'NONE', ( #136, #877, #516, #218 ) ) ;
#344 = FACE_OUTER_BOUND ( 'NONE', #547, .T. ) ;
#345 = FILL_AREA_STYLE_COLOUR ( '', #481 ) ;
#346 = EDGE_LOOP ( 'NONE', ( #458, #25 ) ) ;
#347 = DIRECTION ( 'NONE',  ( 0.6663196743247736809, -0.7456662065614397816, -9.292562311528023527E-17 ) ) ;
#348 = DIRECTION ( 'NONE',  ( 0.000000000000000000, 0.000000000000000000, 1.000000000000000000 ) ) ;
#349 = ORIENTED_EDGE ( 'NONE', *, *, #1021, .F. ) ;
#350 = SURFACE_SIDE_STYLE ('',( #411 ) ) ;
#351 =( GEOMETRIC_REPRESENTATION_CONTEXT ( 3 ) GLOBAL_UNCERTAINTY_ASSIGNED_CONTEXT ( ( #408 ) ) GLOBAL_UNIT_ASSIGNED_CONTEXT ( ( #1023, #942, #310 ) ) REPRESENTATION_CONTEXT ( 'NONE', 'WORKASPACE' ) );
#352 = ORIENTED_EDGE ( 'NONE', *, *, #97, .T. ) ;
#353 =( GEOMETRIC_REPRESENTATION_CONTEXT ( 3 ) GLOBAL_UNCERTAINTY_ASSIGNED_CONTEXT ( ( #812 ) ) GLOBAL_UNIT_ASSIGNED_CONTEXT ( ( #694, #841, #433 ) ) REPRESENTATION_CONTEXT ( 'NONE', 'WORKASPACE' ) );
#354 = FACE_OUTER_BOUND ( 'NONE', #804, .T. ) ;
#355 = VECTOR ( 'NONE', #508, 1000.000000000000000 ) ;
#356 = VERTEX_POINT ( 'NONE', #70 ) ;
#357 = SURFACE_STYLE_USAGE ( .BOTH. , #510 ) ;
#358 = SURFACE_STYLE_FILL_AREA ( #291 ) ;
#359 = DIRECTION ( 'NONE',  ( -1.000000000000000000, -0.000000000000000000, -0.000000000000000000 ) ) ;
#360 = ORIENTED_EDGE ( 'NONE', *, *, #796, .T. ) ;
#361 = DIRECTION ( 'NONE',  ( 0.7456662065614395596, 0.000000000000000000, -0.6663196743247737919 ) ) ;
#362 = CARTESIAN_POINT ( 'NONE',  ( 5.974195292295553905, 2.375629221075779134E-16, 0.2313525518329657416 ) ) ;
#363 = DIRECTION ( 'NONE',  ( -0.1108510534444137469, -0.9938370308809506559, -3.448999966305766196E-15 ) ) ;
#364 = EDGE_LOOP ( 'NONE', ( #193, #832, #891, #360, #579, #948, #600, #502, #587, #981, #173 ) ) ;
#365 = SURFACE_STYLE_FILL_AREA ( #1011 ) ;
#366 = AXIS2_PLACEMENT_3D ( 'NONE', #960, #263, #724 ) ;
#367 = SURFACE_STYLE_USAGE ( .BOTH. , #576 ) ;
#368 = FILL_AREA_STYLE_COLOUR ( '', #684 ) ;
#369 =( NAMED_UNIT ( * ) SI_UNIT ( $, .STERADIAN. ) SOLID_ANGLE_UNIT ( ) );
#370 = LINE ( 'NONE', #232, #123 ) ;
#371 =( NAMED_UNIT ( * ) PLANE_ANGLE_UNIT ( ) SI_UNIT ( $, .RADIAN. ) );
#372 = ORIENTED_EDGE ( 'NONE', *, *, #1021, .T. ) ;
#373 = DIRECTION ( 'NONE',  ( -0.1108510534444137469, 2.096348086633972484E-17, 0.9938370308809506559 ) ) ;
#374 = EDGE_CURVE ( 'NONE', #865, #356, #710, .T. ) ;
#375 = FILL_AREA_STYLE ('',( #1019 ) ) ;
#376 = STYLED_ITEM ( 'NONE', ( #717 ), #203 ) ;
#377 = CARTESIAN_POINT ( 'NONE',  ( 0.03111693966988647586, 0.4315292644214342443, 0.4315292644214356321 ) ) ;
#378 = SURFACE_SIDE_STYLE ('',( #145 ) ) ;
#379 = LINE ( 'NONE', #219, #64 ) ;
#380 = VECTOR ( 'NONE', #266, 1000.000000000000000 ) ;
#381 = COLOUR_RGB ( '',0.7764705882352941346, 0.7568627450980391913, 0.7372549019607843590 ) ;
#382 = AXIS2_PLACEMENT_3D ( 'NONE', #869, #943, #227 ) ;
#383 = ADVANCED_FACE ( 'NONE', ( #637 ), #85, .T. ) ;
#384 = CARTESIAN_POINT ( 'NONE',  ( 0.9968214519863044520, 4.171041651934668579E-16, -3.311827956989247479 ) ) ;
#385 = FACE_OUTER_BOUND ( 'NONE', #977, .T. ) ;
#386 =( NAMED_UNIT ( * ) PLANE_ANGLE_UNIT ( ) SI_UNIT ( $, .RADIAN. ) );
#387 = DIRECTION ( 'NONE',  ( -0.9938370308809507669, 0.000000000000000000, 0.1108510534444137052 ) ) ;
#388 = ADVANCED_FACE ( 'NONE', ( #161 ), #74, .T. ) ;
#389 = LINE ( 'NONE', #785, #951 ) ;
#390 = DIRECTION ( 'NONE',  ( -0.7456662065614396706, 0.6663196743247736809, 0.000000000000000000 ) ) ;
#391 =( NAMED_UNIT ( * ) PLANE_ANGLE_UNIT ( ) SI_UNIT ( $, .RADIAN. ) );
#392 = DIRECTION ( 'NONE',  ( -1.000000000000000000, -0.000000000000000000, -0.000000000000000000 ) ) ;
#393 = UNCERTAINTY_MEASURE_WITH_UNIT (LENGTH_MEASURE( 1.000000000000000082E-05 ), #84, 'distance_accuracy_value', 'NONE');
#394 = PRESENTATION_LAYER_ASSIGNMENT (  '', '', ( #806 ) ) ;
#395 = COLOUR_RGB ( '',0.7764705882352941346, 0.7568627450980391913, 0.7372549019607843590 ) ;
#396 = ORIENTED_EDGE ( 'NONE', *, *, #982, .F. ) ;
#397 = SURFACE_STYLE_USAGE ( .BOTH. , #944 ) ;
#398 = SURFACE_STYLE_FILL_AREA ( #375 ) ;
#399 = PRESENTATION_LAYER_ASSIGNMENT (  '', '', ( #78 ) ) ;
#400 = CIRCLE ( 'NONE', #755, 5.437518987584764929 ) ;
#401 = SURFACE_SIDE_STYLE ('',( #901 ) ) ;
#402 = AXIS2_PLACEMENT_3D ( 'NONE', #57, #590, #599 ) ;
#403 = PRODUCT_DEFINITION_FORMATION_WITH_SPECIFIED_SOURCE ( 'ANY', '', #582, .NOT_KNOWN. ) ;
#404 = ORIENTED_EDGE ( 'NONE', *, *, #77, .T. ) ;
#405 = DIRECTION ( 'NONE',  ( 0.7456662065614396706, 0.6663196743247736809, 0.000000000000000000 ) ) ;
#406 = EDGE_CURVE ( 'NONE', #224, #13, #715, .T. ) ;
#407 = CARTESIAN_POINT ( 'NONE',  ( 1.347043950347263763, 0.000000000000000000, 0.000000000000000000 ) ) ;
#408 = UNCERTAINTY_MEASURE_WITH_UNIT (LENGTH_MEASURE( 1.000000000000000082E-05 ), #1023, 'distance_accuracy_value', 'NONE');
#409 = CYLINDRICAL_SURFACE ( 'NONE', #73, 3.500000000000000444 ) ;
#410 = ORIENTED_EDGE ( 'NONE', *, *, #991, .T. ) ;
#411 = SURFACE_STYLE_FILL_AREA ( #265 ) ;
#412 = DIRECTION ( 'NONE',  ( 0.000000000000000000, -1.224646799147354193E-16, 1.000000000000000000 ) ) ;
#413 = DIRECTION ( 'NONE',  ( -1.000000000000000000, -0.000000000000000000, -0.000000000000000000 ) ) ;
#414 = SURFACE_STYLE_USAGE ( .BOTH. , #558 ) ;
#415 = ORIENTED_EDGE ( 'NONE', *, *, #935, .T. ) ;
#416 = LINE ( 'NONE', #738, #204 ) ;
#417 = AXIS2_PLACEMENT_3D ( 'NONE', #696, #779, #521 ) ;
#418 = SURFACE_STYLE_FILL_AREA ( #575 ) ;
#419 = ADVANCED_FACE ( 'NONE', ( #337 ), #571, .F. ) ;
#420 = PLANE ( 'NONE',  #953 ) ;
#421 = DIRECTION ( 'NONE',  ( -0.9938370308809507669, -0.1108510534444137052, 0.000000000000000000 ) ) ;
#422 = ORIENTED_EDGE ( 'NONE', *, *, #121, .T. ) ;
#423 =( NAMED_UNIT ( * ) PLANE_ANGLE_UNIT ( ) SI_UNIT ( $, .RADIAN. ) );
#424 =( LENGTH_UNIT ( ) NAMED_UNIT ( * ) SI_UNIT ( .MILLI., .METRE. ) );
#425 = CARTESIAN_POINT ( 'NONE',  ( 10.60000000000000142, 0.000000000000000000, 0.000000000000000000 ) ) ;
#426 = EDGE_CURVE ( 'NONE', #921, #60, #843, .T. ) ;
#427 = VERTEX_POINT ( 'NONE', #175 ) ;
#428 = PLANE ( 'NONE',  #112 ) ;
#429 = FILL_AREA_STYLE_COLOUR ( '', #918 ) ;
#430 = SURFACE_SIDE_STYLE ('',( #928 ) ) ;
#431 = ORIENTED_EDGE ( 'NONE', *, *, #441, .F. ) ;
#432 = EDGE_CURVE ( 'NONE', #44, #13, #662, .T. ) ;
#433 =( NAMED_UNIT ( * ) SI_UNIT ( $, .STERADIAN. ) SOLID_ANGLE_UNIT ( ) );
#434 = STYLED_ITEM ( 'NONE', ( #1008 ), #280 ) ;
#435 = LINE ( 'NONE', #680, #342 ) ;
#436 = MECHANICAL_DESIGN_GEOMETRIC_PRESENTATION_REPRESENTATION (  '', ( #78 ), #188 ) ;
#437 = VERTEX_POINT ( 'NONE', #818 ) ;
#438 = DIRECTION ( 'NONE',  ( -0.9938370308809506559, 0.000000000000000000, 0.1108510534444136914 ) ) ;
#439 = SURFACE_SIDE_STYLE ('',( #365 ) ) ;
#440 = MECHANICAL_DESIGN_GEOMETRIC_PRESENTATION_REPRESENTATION (  '', ( #974 ), #829 ) ;
#441 = EDGE_CURVE ( 'NONE', #907, #88, #988, .T. ) ;
#442 = EDGE_LOOP ( 'NONE', ( #504, #41, #300, #756 ) ) ;
#443 = ORIENTED_EDGE ( 'NONE', *, *, #426, .T. ) ;
#444 = SURFACE_STYLE_FILL_AREA ( #994 ) ;
#445 =( NAMED_UNIT ( * ) PLANE_ANGLE_UNIT ( ) SI_UNIT ( $, .RADIAN. ) );
#446 = COLOUR_RGB ( '',0.7764705882352941346, 0.7568627450980391913, 0.7372549019607843590 ) ;
#447 = CARTESIAN_POINT ( 'NONE',  ( 1.949999999999999956, 0.2175000000000007205, -0.2174999999999992772 ) ) ;
#448 = MECHANICAL_DESIGN_GEOMETRIC_PRESENTATION_REPRESENTATION (  '', ( #434 ), #581 ) ;
#449 = ADVANCED_FACE ( 'NONE', ( #272 ), #105, .F. ) ;
#450 = DIRECTION ( 'NONE',  ( 0.000000000000000000, -1.000000000000000000, -1.246209393661499126E-16 ) ) ;
#451 = FILL_AREA_STYLE ('',( #140 ) ) ;
#452 = AXIS2_PLACEMENT_3D ( 'NONE', #747, #250, #826 ) ;
#453 = MECHANICAL_DESIGN_GEOMETRIC_PRESENTATION_REPRESENTATION (  '', ( #15 ), #205 ) ;
#454 = FACE_OUTER_BOUND ( 'NONE', #442, .T. ) ;
#455 = CARTESIAN_POINT ( 'NONE',  ( -25.39999999999996305, 2.143131898507868051E-16, -1.749999999999999778 ) ) ;
#456 = PRESENTATION_STYLE_ASSIGNMENT (( #160 ) ) ;
#457 = LINE ( 'NONE', #455, #899 ) ;
#458 = ORIENTED_EDGE ( 'NONE', *, *, #910, .F. ) ;
#459 = ADVANCED_FACE ( 'NONE', ( #354 ), #613, .T. ) ;
#460 = DIRECTION ( 'NONE',  ( -0.1108510534444136914, 1.257808851980383614E-16, -0.9938370308809506559 ) ) ;
#461 = CIRCLE ( 'NONE', #27, 3.311827956989247479 ) ;
#462 = MECHANICAL_DESIGN_GEOMETRIC_PRESENTATION_REPRESENTATION (  '', ( #61 ), #615 ) ;
#463 = CARTESIAN_POINT ( 'NONE',  ( 4.309938594911940868, -1.891316923914901471, 0.000000000000000000 ) ) ;
#464 = ORIENTED_EDGE ( 'NONE', *, *, #163, .T. ) ;
#465 = CARTESIAN_POINT ( 'NONE',  ( 1.949999999999999956, 0.2174999999999999989, 0.2174999999999999156 ) ) ;
#466 = AXIS2_PLACEMENT_3D ( 'NONE', #563, #347, #118 ) ;
#467 = AXIS2_PLACEMENT_3D ( 'NONE', #596, #194, #916 ) ;
#468 = DIRECTION ( 'NONE',  ( -1.000000000000000000, -0.000000000000000000, -0.000000000000000000 ) ) ;
#469 = FACE_OUTER_BOUND ( 'NONE', #718, .T. ) ;
#470 = CARTESIAN_POINT ( 'NONE',  ( 10.60000000000000142, 0.000000000000000000, 1.749999999999999778 ) ) ;
#471 = ORIENTED_EDGE ( 'NONE', *, *, #312, .T. ) ;
#472 = CARTESIAN_POINT ( 'NONE',  ( 2.193400286944045430, 0.1903515064562410486, 2.309278636184420884E-16 ) ) ;
#473 = UNCERTAINTY_MEASURE_WITH_UNIT (LENGTH_MEASURE( 1.000000000000000082E-05 ), #126, 'distance_accuracy_value', 'NONE');
#474 = MECHANICAL_DESIGN_GEOMETRIC_PRESENTATION_REPRESENTATION (  '', ( #234 ), #351 ) ;
#475 =( NAMED_UNIT ( * ) SI_UNIT ( $, .STERADIAN. ) SOLID_ANGLE_UNIT ( ) );
#476 = VECTOR ( 'NONE', #952, 1000.000000000000000 ) ;
#477 = EDGE_CURVE ( 'NONE', #269, #512, #593, .T. ) ;
#478 = ORIENTED_EDGE ( 'NONE', *, *, #897, .T. ) ;
#479 = CARTESIAN_POINT ( 'NONE',  ( 0.9968214519863044520, -3.311827956989247035, -4.055819506853600563E-16 ) ) ;
#480 = DIRECTION ( 'NONE',  ( 0.000000000000000000, 0.000000000000000000, 1.000000000000000000 ) ) ;
#481 = COLOUR_RGB ( '',0.7764705882352941346, 0.7568627450980391913, 0.7372549019607843590 ) ;
#482 = STYLED_ITEM ( 'NONE', ( #661 ), #676 ) ;
#483 = CYLINDRICAL_SURFACE ( 'NONE', #58, 1.749999999999999778 ) ;
#484 = FACE_OUTER_BOUND ( 'NONE', #264, .T. ) ;
#485 = AXIS2_PLACEMENT_3D ( 'NONE', #425, #359, #348 ) ;
#486 = VERTEX_POINT ( 'NONE', #604 ) ;
#487 = CARTESIAN_POINT ( 'NONE',  ( 1.949999999999999956, -0.2175000000000000266, -0.2174999999999999989 ) ) ;
#488 = DIRECTION ( 'NONE',  ( 0.000000000000000000, 0.000000000000000000, 1.000000000000000000 ) ) ;
#489 = PRESENTATION_STYLE_ASSIGNMENT (( #256 ) ) ;
#490 = EDGE_LOOP ( 'NONE', ( #415, #574, #990, #762 ) ) ;
#491 = CARTESIAN_POINT ( 'NONE',  ( 0.000000000000000000, -1.959999999999999964, 0.4349999999999996092 ) ) ;
#492 =( NAMED_UNIT ( * ) SI_UNIT ( $, .STERADIAN. ) SOLID_ANGLE_UNIT ( ) );
#493 =( NAMED_UNIT ( * ) PLANE_ANGLE_UNIT ( ) SI_UNIT ( $, .RADIAN. ) );
#494 = ORIENTED_EDGE ( 'NONE', *, *, #208, .T. ) ;
#495 = DIRECTION ( 'NONE',  ( 0.000000000000000000, 1.000000000000000000, 6.231046968307495628E-17 ) ) ;
#496 = COLOUR_RGB ( '',0.7764705882352941346, 0.7568627450980391913, 0.7372549019607843590 ) ;
#497 = AXIS2_PLACEMENT_3D ( 'NONE', #447, #67, #695 ) ;
#498 = PRODUCT_DEFINITION_CONTEXT ( 'detailed design', #282, 'design' ) ;
#499 = AXIS2_PLACEMENT_3D ( 'NONE', #7, #229, #858 ) ;
#500 = MECHANICAL_DESIGN_GEOMETRIC_PRESENTATION_REPRESENTATION (  '', ( #482 ), #543 ) ;
#501 = AXIS2_PLACEMENT_3D ( 'NONE', #798, #697, #938 ) ;
#502 = ORIENTED_EDGE ( 'NONE', *, *, #733, .T. ) ;
#503 =( NAMED_UNIT ( * ) SI_UNIT ( $, .STERADIAN. ) SOLID_ANGLE_UNIT ( ) );
#504 = ORIENTED_EDGE ( 'NONE', *, *, #134, .T. ) ;
#505 = DIRECTION ( 'NONE',  ( 0.9938370308809507669, -0.1108510534444137746, 0.000000000000000000 ) ) ;
#506 = SURFACE_STYLE_USAGE ( .BOTH. , #679 ) ;
#507 = UNCERTAINTY_MEASURE_WITH_UNIT (LENGTH_MEASURE( 1.000000000000000082E-05 ), #772, 'distance_accuracy_value', 'NONE');
#508 = DIRECTION ( 'NONE',  ( 0.000000000000000000, 0.000000000000000000, -1.000000000000000000 ) ) ;
#509 = VERTEX_POINT ( 'NONE', #999 ) ;
#510 = SURFACE_SIDE_STYLE ('',( #444 ) ) ;
#511 = COLOUR_RGB ( '',0.7764705882352941346, 0.7568627450980391913, 0.7372549019607843590 ) ;
#512 = VERTEX_POINT ( 'NONE', #759 ) ;
#513 =( LENGTH_UNIT ( ) NAMED_UNIT ( * ) SI_UNIT ( .MILLI., .METRE. ) );
#514 = SURFACE_STYLE_USAGE ( .BOTH. , #439 ) ;
#515 = FILL_AREA_STYLE_COLOUR ( '', #605 ) ;
#516 = ORIENTED_EDGE ( 'NONE', *, *, #477, .T. ) ;
#517 =( NAMED_UNIT ( * ) PLANE_ANGLE_UNIT ( ) SI_UNIT ( $, .RADIAN. ) );
#518 = CARTESIAN_POINT ( 'NONE',  ( 2.193400286944045430, 0.1903515064562410486, 2.309278636184420884E-16 ) ) ;
#519 = EDGE_CURVE ( 'NONE', #688, #509, #51, .T. ) ;
#520 = APPLICATION_PROTOCOL_DEFINITION ( 'draft international standard', 'automotive_design', 1998, #282 ) ;
#521 = DIRECTION ( 'NONE',  ( 0.000000000000000000, 0.000000000000000000, 1.000000000000000000 ) ) ;
#522 = DIRECTION ( 'NONE',  ( -1.000000000000000000, -0.000000000000000000, -0.000000000000000000 ) ) ;
#523 = CARTESIAN_POINT ( 'NONE',  ( 0.000000000000000000, 1.959999999999999964, -0.4350000000000000533 ) ) ;
#524 = VECTOR ( 'NONE', #849, 1000.000000000000000 ) ;
#525 = ADVANCED_FACE ( 'NONE', ( #55 ), #805, .T. ) ;
#526 = DIRECTION ( 'NONE',  ( -0.7456662065614396706, 0.000000000000000000, -0.6663196743247736809 ) ) ;
#527 = CARTESIAN_POINT ( 'NONE',  ( 0.2666411873824114376, -1.721732169736485796, 0.4052592521765768785 ) ) ;
#528 = PRESENTATION_STYLE_ASSIGNMENT (( #397 ) ) ;
#529 = STYLED_ITEM ( 'NONE', ( #147 ), #834 ) ;
#530 = AXIS2_PLACEMENT_3D ( 'NONE', #195, #363, #687 ) ;
#531 = FILL_AREA_STYLE ('',( #368 ) ) ;
#532 = EDGE_CURVE ( 'NONE', #688, #182, #155, .T. ) ;
#533 = ORIENTED_EDGE ( 'NONE', *, *, #982, .T. ) ;
#534 =( NAMED_UNIT ( * ) SI_UNIT ( $, .STERADIAN. ) SOLID_ANGLE_UNIT ( ) );
#535 =( NAMED_UNIT ( * ) SI_UNIT ( $, .STERADIAN. ) SOLID_ANGLE_UNIT ( ) );
#536 = DIRECTION ( 'NONE',  ( -1.000000000000000000, -0.000000000000000000, -0.000000000000000000 ) ) ;
#537 = DIRECTION ( 'NONE',  ( -1.000000000000000000, -0.000000000000000000, -0.000000000000000000 ) ) ;
#538 = ORIENTED_EDGE ( 'NONE', *, *, #244, .F. ) ;
#539 = ADVANCED_FACE ( 'NONE', ( #950 ), #799, .T. ) ;
#540 = PRESENTATION_STYLE_ASSIGNMENT (( #800 ) ) ;
#541 = AXIS2_PLACEMENT_3D ( 'NONE', #407, #278, #26 ) ;
#542 = PRESENTATION_STYLE_ASSIGNMENT (( #616 ) ) ;
#543 =( GEOMETRIC_REPRESENTATION_CONTEXT ( 3 ) GLOBAL_UNCERTAINTY_ASSIGNED_CONTEXT ( ( #878 ) ) GLOBAL_UNIT_ASSIGNED_CONTEXT ( ( #270, #104, #817 ) ) REPRESENTATION_CONTEXT ( 'NONE', 'WORKASPACE' ) );
#544 = CIRCLE ( 'NONE', #619, 5.437518987584765817 ) ;
#545 =( NAMED_UNIT ( * ) PLANE_ANGLE_UNIT ( ) SI_UNIT ( $, .RADIAN. ) );
#546 = LINE ( 'NONE', #864, #565 ) ;
#547 = EDGE_LOOP ( 'NONE', ( #886, #751, #103 ) ) ;
#548 = SURFACE_STYLE_FILL_AREA ( #714 ) ;
#549 = FILL_AREA_STYLE ('',( #9 ) ) ;
#550 = EDGE_CURVE ( 'NONE', #44, #196, #379, .T. ) ;
#551 = DIRECTION ( 'NONE',  ( -1.000000000000000000, -0.000000000000000000, -0.000000000000000000 ) ) ;
#552 = CARTESIAN_POINT ( 'NONE',  ( 5.974195292295553905, 0.2313525518329656860, 8.370432990360215258E-16 ) ) ;
#553 = ORIENTED_EDGE ( 'NONE', *, *, #59, .T. ) ;
#554 = DIRECTION ( 'NONE',  ( 0.9938370308809506559, 0.000000000000000000, 0.1108510534444137469 ) ) ;
#555 = FILL_AREA_STYLE ('',( #629 ) ) ;
#556 = UNCERTAINTY_MEASURE_WITH_UNIT (LENGTH_MEASURE( 1.000000000000000082E-05 ), #671, 'distance_accuracy_value', 'NONE');
#557 = EDGE_CURVE ( 'NONE', #110, #224, #635, .T. ) ;
#558 = SURFACE_SIDE_STYLE ('',( #819 ) ) ;
#559 = PRESENTATION_LAYER_ASSIGNMENT (  '', '', ( #967 ) ) ;
#560 = ORIENTED_EDGE ( 'NONE', *, *, #66, .F. ) ;
#561 = FILL_AREA_STYLE ('',( #650 ) ) ;
#562 = PRODUCT_DEFINITION_SHAPE ( 'NONE', 'NONE',  #289 ) ;
#563 = CARTESIAN_POINT ( 'NONE',  ( 4.309938594911940868, 1.891316923914901471, 2.356976916973721757E-16 ) ) ;
#564 = STYLED_ITEM ( 'NONE', ( #528 ), #539 ) ;
#565 = VECTOR ( 'NONE', #151, 1000.000000000000114 ) ;
#566 = DIRECTION ( 'NONE',  ( 0.000000000000000000, 0.000000000000000000, -1.000000000000000000 ) ) ;
#567 =( LENGTH_UNIT ( ) NAMED_UNIT ( * ) SI_UNIT ( .MILLI., .METRE. ) );
#568 =( GEOMETRIC_REPRESENTATION_CONTEXT ( 3 ) GLOBAL_UNCERTAINTY_ASSIGNED_CONTEXT ( ( #169 ) ) GLOBAL_UNIT_ASSIGNED_CONTEXT ( ( #749, #201, #924 ) ) REPRESENTATION_CONTEXT ( 'NONE', 'WORKASPACE' ) );
#569 = ORIENTED_EDGE ( 'NONE', *, *, #374, .F. ) ;
#570 = EDGE_CURVE ( 'NONE', #196, #60, #905, .T. ) ;
#571 = PLANE ( 'NONE',  #46 ) ;
#572 = UNCERTAINTY_MEASURE_WITH_UNIT (LENGTH_MEASURE( 1.000000000000000082E-05 ), #788, 'distance_accuracy_value', 'NONE');
#573 = SURFACE_STYLE_USAGE ( .BOTH. , #86 ) ;
#574 = ORIENTED_EDGE ( 'NONE', *, *, #149, .T. ) ;
#575 = FILL_AREA_STYLE ('',( #429 ) ) ;
#576 = SURFACE_SIDE_STYLE ('',( #63 ) ) ;
#577 = FACE_OUTER_BOUND ( 'NONE', #961, .T. ) ;
#578 =( GEOMETRIC_REPRESENTATION_CONTEXT ( 3 ) GLOBAL_UNCERTAINTY_ASSIGNED_CONTEXT ( ( #37 ) ) GLOBAL_UNIT_ASSIGNED_CONTEXT ( ( #808, #545, #492 ) ) REPRESENTATION_CONTEXT ( 'NONE', 'WORKASPACE' ) );
#579 = ORIENTED_EDGE ( 'NONE', *, *, #589, .T. ) ;
#580 = CARTESIAN_POINT ( 'NONE',  ( 0.2666411873824114376, 0.4052592521765831513, -1.721732169736484019 ) ) ;
#581 =( GEOMETRIC_REPRESENTATION_CONTEXT ( 3 ) GLOBAL_UNCERTAINTY_ASSIGNED_CONTEXT ( ( #721 ) ) GLOBAL_UNIT_ASSIGNED_CONTEXT ( ( #424, #900, #831 ) ) REPRESENTATION_CONTEXT ( 'NONE', 'WORKASPACE' ) );
#582 = PRODUCT ( 'M3.5 x 8 Screw head', 'M3.5 x 8 Screw head', '', ( #784 ) ) ;
#583 =( GEOMETRIC_REPRESENTATION_CONTEXT ( 3 ) GLOBAL_UNCERTAINTY_ASSIGNED_CONTEXT ( ( #338 ) ) GLOBAL_UNIT_ASSIGNED_CONTEXT ( ( #908, #423, #980 ) ) REPRESENTATION_CONTEXT ( 'NONE', 'WORKASPACE' ) );
#584 = FILL_AREA_STYLE_COLOUR ( '', #789 ) ;
#585 = APPLICATION_PROTOCOL_DEFINITION ( 'draft international standard', 'automotive_design', 1998, #761 ) ;
#586 = PRESENTATION_LAYER_ASSIGNMENT (  '', '', ( #172 ) ) ;
#587 = ORIENTED_EDGE ( 'NONE', *, *, #557, .F. ) ;
#588 = PRESENTATION_STYLE_ASSIGNMENT (( #357 ) ) ;
#589 = EDGE_CURVE ( 'NONE', #767, #865, #719, .T. ) ;
#590 = DIRECTION ( 'NONE',  ( -1.000000000000000000, 0.000000000000000000, 0.000000000000000000 ) ) ;
#591 = ORIENTED_EDGE ( 'NONE', *, *, #238, .F. ) ;
#592 = CARTESIAN_POINT ( 'NONE',  ( -25.39999999999996305, 0.000000000000000000, 0.000000000000000000 ) ) ;
#593 = LINE ( 'NONE', #913, #94 ) ;
#594 = PRESENTATION_STYLE_ASSIGNMENT (( #295 ) ) ;
#595 = ORIENTED_EDGE ( 'NONE', *, *, #636, .F. ) ;
#596 = CARTESIAN_POINT ( 'NONE',  ( 6.000000000000000000, 2.326828918379972351E-16, 0.000000000000000000 ) ) ;
#597 = VECTOR ( 'NONE', #216, 1000.000000000000000 ) ;
#598 = AXIS2_PLACEMENT_3D ( 'NONE', #472, #874, #17 ) ;
#599 = DIRECTION ( 'NONE',  ( 0.000000000000000000, 0.000000000000000000, 1.000000000000000000 ) ) ;
#600 = ORIENTED_EDGE ( 'NONE', *, *, #765, .F. ) ;
#601 = CARTESIAN_POINT ( 'NONE',  ( 2.193400286944045430, 4.336808689942017736E-16, 0.1903515064562409931 ) ) ;
#602 = CIRCLE ( 'NONE', #501, 3.500000000000000444 ) ;
#603 = ADVANCED_FACE ( 'NONE', ( #14 ), #75, .F. ) ;
#604 = CARTESIAN_POINT ( 'NONE',  ( 2.599999999999998312, 2.143131898507868051E-16, -1.749999999999999778 ) ) ;
#605 = COLOUR_RGB ( '',0.7921568627450980005, 0.8196078431372548767, 0.9333333333333333481 ) ;
#606 = CARTESIAN_POINT ( 'NONE',  ( 2.193400286944045430, -4.336808689942017736E-16, -0.1903515064562410486 ) ) ;
#607 = ORIENTED_EDGE ( 'NONE', *, *, #621, .F. ) ;
#608 = CYLINDRICAL_SURFACE ( 'NONE', #940, 3.500000000000000444 ) ;
#609 = DIRECTION ( 'NONE',  ( 0.7431005017819711789, -0.6640269868487613802, 0.08288428673721989770 ) ) ;
#610 = CARTESIAN_POINT ( 'NONE',  ( 4.309938594911940868, -6.606512545546451519E-15, 1.891316923914901693 ) ) ;
#611 = LINE ( 'NONE', #930, #1003 ) ;
#612 = VERTEX_POINT ( 'NONE', #479 ) ;
#613 = PLANE ( 'NONE',  #142 ) ;
#614 = SURFACE_STYLE_USAGE ( .BOTH. , #430 ) ;
#615 =( GEOMETRIC_REPRESENTATION_CONTEXT ( 3 ) GLOBAL_UNCERTAINTY_ASSIGNED_CONTEXT ( ( #572 ) ) GLOBAL_UNIT_ASSIGNED_CONTEXT ( ( #788, #76, #243 ) ) REPRESENTATION_CONTEXT ( 'NONE', 'WORKASPACE' ) );
#616 = SURFACE_STYLE_USAGE ( .BOTH. , #707 ) ;
#617 = STYLED_ITEM ( 'NONE', ( #184 ), #449 ) ;
#618 = VECTOR ( 'NONE', #881, 1000.000000000000000 ) ;
#619 = AXIS2_PLACEMENT_3D ( 'NONE', #463, #708, #390 ) ;
#620 = CARTESIAN_POINT ( 'NONE',  ( 0.000000000000000000, 0.000000000000000000, 0.000000000000000000 ) ) ;
#621 = EDGE_CURVE ( 'NONE', #44, #509, #111, .T. ) ;
#622 = DIRECTION ( 'NONE',  ( -0.9938370308809507669, 0.000000000000000000, 0.1108510534444137052 ) ) ;
#623 = SURFACE_STYLE_USAGE ( .BOTH. , #1010 ) ;
#624 = VERTEX_POINT ( 'NONE', #580 ) ;
#625 = SURFACE_STYLE_FILL_AREA ( #1 ) ;
#626 = CARTESIAN_POINT ( 'NONE',  ( 1.347043950347265318, 4.286263797015737088E-16, -3.500000000000000444 ) ) ;
#627 = ORIENTED_EDGE ( 'NONE', *, *, #1012, .T. ) ;
#628 =( LENGTH_UNIT ( ) NAMED_UNIT ( * ) SI_UNIT ( .MILLI., .METRE. ) );
#629 = FILL_AREA_STYLE_COLOUR ( '', #395 ) ;
#630 = PRESENTATION_LAYER_ASSIGNMENT (  '', '', ( #376 ) ) ;
#631 =( GEOMETRIC_REPRESENTATION_CONTEXT ( 3 ) GLOBAL_UNCERTAINTY_ASSIGNED_CONTEXT ( ( #507 ) ) GLOBAL_UNIT_ASSIGNED_CONTEXT ( ( #772, #209, #503 ) ) REPRESENTATION_CONTEXT ( 'NONE', 'WORKASPACE' ) );
#632 =( LENGTH_UNIT ( ) NAMED_UNIT ( * ) SI_UNIT ( .MILLI., .METRE. ) );
#633 = EDGE_LOOP ( 'NONE', ( #742, #260, #132 ) ) ;
#634 = DIRECTION ( 'NONE',  ( -0.9877866216249070463, -0.1101762001043161271, -0.1101762001043165851 ) ) ;
#635 = CIRCLE ( 'NONE', #321, 5.995482475482741158 ) ;
#636 = EDGE_CURVE ( 'NONE', #844, #921, #400, .T. ) ;
#637 = FACE_OUTER_BOUND ( 'NONE', #287, .T. ) ;
#638 = AXIS2_PLACEMENT_3D ( 'NONE', #592, #522, #926 ) ;
#639 = AXIS2_PLACEMENT_3D ( 'NONE', #552, #885, #421 ) ;
#640 = STYLED_ITEM ( 'NONE', ( #594 ), #225 ) ;
#641 =( NAMED_UNIT ( * ) SI_UNIT ( $, .STERADIAN. ) SOLID_ANGLE_UNIT ( ) );
#642 = EDGE_LOOP ( 'NONE', ( #986, #677, #838, #730 ) ) ;
#643 = FACE_OUTER_BOUND ( 'NONE', #642, .T. ) ;
#644 = VERTEX_POINT ( 'NONE', #726 ) ;
#645 =( NAMED_UNIT ( * ) SI_UNIT ( $, .STERADIAN. ) SOLID_ANGLE_UNIT ( ) );
#646 = AXIS2_PLACEMENT_3D ( 'NONE', #299, #211, #6 ) ;
#647 = ADVANCED_FACE ( 'NONE', ( #344 ), #971, .T. ) ;
#648 = DIRECTION ( 'NONE',  ( 0.000000000000000000, 0.000000000000000000, 1.000000000000000000 ) ) ;
#649 = EDGE_LOOP ( 'NONE', ( #334, #349, #569, #296, #737 ) ) ;
#650 = FILL_AREA_STYLE_COLOUR ( '', #143 ) ;
#651 =( NAMED_UNIT ( * ) PLANE_ANGLE_UNIT ( ) SI_UNIT ( $, .RADIAN. ) );
#652 = AXIS2_PLACEMENT_3D ( 'NONE', #133, #752, #361 ) ;
#653 = STYLED_ITEM ( 'NONE', ( #947 ), #859 ) ;
#654 = PRESENTATION_STYLE_ASSIGNMENT (( #176 ) ) ;
#655 = ORIENTED_EDGE ( 'NONE', *, *, #570, .T. ) ;
#656 = DIRECTION ( 'NONE',  ( -0.7456662065614397816, 0.6663196743247735698, 0.000000000000000000 ) ) ;
#657 = UNCERTAINTY_MEASURE_WITH_UNIT (LENGTH_MEASURE( 1.000000000000000082E-05 ), #669, 'distance_accuracy_value', 'NONE');
#658 = FILL_AREA_STYLE ('',( #584 ) ) ;
#659 = SPHERICAL_SURFACE ( 'NONE', #366, 6.000000000000000000 ) ;
#660 = ORIENTED_EDGE ( 'NONE', *, *, #477, .F. ) ;
#661 = PRESENTATION_STYLE_ASSIGNMENT (( #904 ) ) ;
#662 = LINE ( 'NONE', #487, #380 ) ;
#663 = SURFACE_SIDE_STYLE ('',( #1013 ) ) ;
#664 =( NAMED_UNIT ( * ) PLANE_ANGLE_UNIT ( ) SI_UNIT ( $, .RADIAN. ) );
#665 = VECTOR ( 'NONE', #450, 1000.000000000000000 ) ;
#666 = ORIENTED_EDGE ( 'NONE', *, *, #16, .F. ) ;
#667 = SURFACE_STYLE_USAGE ( .BOTH. , #50 ) ;
#668 = MECHANICAL_DESIGN_GEOMETRIC_PRESENTATION_REPRESENTATION (  '', ( #967 ), #631 ) ;
#669 =( LENGTH_UNIT ( ) NAMED_UNIT ( * ) SI_UNIT ( .MILLI., .METRE. ) );
#670 = PRESENTATION_LAYER_ASSIGNMENT (  '', '', ( #617 ) ) ;
#671 =( LENGTH_UNIT ( ) NAMED_UNIT ( * ) SI_UNIT ( .MILLI., .METRE. ) );
#672 = AXIS2_PLACEMENT_3D ( 'NONE', #766, #754, #992 ) ;
#673 = ORIENTED_EDGE ( 'NONE', *, *, #40, .T. ) ;
#674 = DIRECTION ( 'NONE',  ( -1.000000000000000000, -0.000000000000000000, -0.000000000000000000 ) ) ;
#675 = DIRECTION ( 'NONE',  ( 0.6663196743247735698, -0.7456662065614397816, -9.292562311528023527E-17 ) ) ;
#676 = ADVANCED_FACE ( 'NONE', ( #117 ), #428, .T. ) ;
#677 = ORIENTED_EDGE ( 'NONE', *, *, #1006, .T. ) ;
#678 = CARTESIAN_POINT ( 'NONE',  ( 2.599999999999998312, 4.286263797015736595E-16, -3.500000000000000000 ) ) ;
#679 = SURFACE_SIDE_STYLE ('',( #358 ) ) ;
#680 = CARTESIAN_POINT ( 'NONE',  ( 0.000000000000000000, -1.959999999999999964, -0.4349999999999999978 ) ) ;
#681 = EDGE_CURVE ( 'NONE', #844, #13, #178, .T. ) ;
#682 = ORIENTED_EDGE ( 'NONE', *, *, #87, .F. ) ;
#683 = FACE_OUTER_BOUND ( 'NONE', #284, .T. ) ;
#684 = COLOUR_RGB ( '',0.7764705882352941346, 0.7568627450980391913, 0.7372549019607843590 ) ;
#685 = MECHANICAL_DESIGN_GEOMETRIC_PRESENTATION_REPRESENTATION (  '', ( #998 ), #200 ) ;
#686 =( NAMED_UNIT ( * ) PLANE_ANGLE_UNIT ( ) SI_UNIT ( $, .RADIAN. ) );
#687 = DIRECTION ( 'NONE',  ( 0.9938370308809507669, -0.1108510534444137746, 0.000000000000000000 ) ) ;
#688 = VERTEX_POINT ( 'NONE', #167 ) ;
#689 = CIRCLE ( 'NONE', #467, 6.000000000000000000 ) ;
#690 = PRODUCT_RELATED_PRODUCT_CATEGORY ( 'part', '', ( #582 ) ) ;
#691 = FILL_AREA_STYLE_COLOUR ( '', #902 ) ;
#692 = CARTESIAN_POINT ( 'NONE',  ( 0.03111693966988560850, -0.4315292644214371864, 0.4315292644214354101 ) ) ;
#693 = DIRECTION ( 'NONE',  ( -1.000000000000000000, -0.000000000000000000, -0.000000000000000000 ) ) ;
#694 =( LENGTH_UNIT ( ) NAMED_UNIT ( * ) SI_UNIT ( .MILLI., .METRE. ) );
#695 = DIRECTION ( 'NONE',  ( 0.7456662065614397816, -2.326442708608981349E-15, 0.6663196743247735698 ) ) ;
#696 = CARTESIAN_POINT ( 'NONE',  ( 0.9968214519863044520, 0.000000000000000000, 0.000000000000000000 ) ) ;
#697 = DIRECTION ( 'NONE',  ( -1.000000000000000000, -0.000000000000000000, -0.000000000000000000 ) ) ;
#698 = DIRECTION ( 'NONE',  ( 0.6663196743247736809, 0.7456662065614397816, 0.000000000000000000 ) ) ;
#699 = CARTESIAN_POINT ( 'NONE',  ( 2.193400286944045430, 4.336808689942017736E-16, 0.1903515064562409931 ) ) ;
#700 = COLOUR_RGB ( '',0.7764705882352941346, 0.7568627450980391913, 0.7372549019607843590 ) ;
#701 = DIRECTION ( 'NONE',  ( 0.000000000000000000, 0.000000000000000000, 1.000000000000000000 ) ) ;
#702 = CARTESIAN_POINT ( 'NONE',  ( 5.974195292295553905, 2.619630734554813543E-16, -0.2313525518329656583 ) ) ;
#703 =( NAMED_UNIT ( * ) SI_UNIT ( $, .STERADIAN. ) SOLID_ANGLE_UNIT ( ) );
#704 = STYLED_ITEM ( 'NONE', ( #588 ), #748 ) ;
#705 = DIRECTION ( 'NONE',  ( -0.000000000000000000, 0.000000000000000000, -1.000000000000000000 ) ) ;
#706 = MECHANICAL_DESIGN_GEOMETRIC_PRESENTATION_REPRESENTATION (  '', ( #324 ), #794 ) ;
#707 = SURFACE_SIDE_STYLE ('',( #157 ) ) ;
#708 = DIRECTION ( 'NONE',  ( 0.6663196743247736809, 0.7456662065614397816, 0.000000000000000000 ) ) ;
#709 = CARTESIAN_POINT ( 'NONE',  ( 4.309938594911940868, -1.891316923914901471, 0.000000000000000000 ) ) ;
#710 = LINE ( 'NONE', #941, #476 ) ;
#711 = LINE ( 'NONE', #302, #665 ) ;
#712 = DIRECTION ( 'NONE',  ( -1.000000000000000000, -0.000000000000000000, -0.000000000000000000 ) ) ;
#713 = EDGE_CURVE ( 'NONE', #110, #13, #416, .T. ) ;
#714 = FILL_AREA_STYLE ('',( #4 ) ) ;
#715 = LINE ( 'NONE', #35, #319 ) ;
#716 = AXIS2_PLACEMENT_3D ( 'NONE', #958, #81, #387 ) ;
#717 = PRESENTATION_STYLE_ASSIGNMENT (( #573 ) ) ;
#718 = EDGE_LOOP ( 'NONE', ( #275, #281, #816, #660 ) ) ;
#719 = CIRCLE ( 'NONE', #811, 5.437518987584765817 ) ;
#720 = CIRCLE ( 'NONE', #972, 5.995482475482740270 ) ;
#721 = UNCERTAINTY_MEASURE_WITH_UNIT (LENGTH_MEASURE( 1.000000000000000082E-05 ), #424, 'distance_accuracy_value', 'NONE');
#722 = PRESENTATION_LAYER_ASSIGNMENT (  '', '', ( #324 ) ) ;
#723 =( NAMED_UNIT ( * ) SI_UNIT ( $, .STERADIAN. ) SOLID_ANGLE_UNIT ( ) );
#724 = DIRECTION ( 'NONE',  ( 0.000000000000000000, 1.000000000000000000, 0.000000000000000000 ) ) ;
#725 = ORIENTED_EDGE ( 'NONE', *, *, #66, .T. ) ;
#726 = CARTESIAN_POINT ( 'NONE',  ( 0.2666411873824114376, -0.4052592521765708278, -1.721732169736487128 ) ) ;
#727 = DIRECTION ( 'NONE',  ( 0.7431005017819711789, 0.08288428673722224305, -0.6640269868487610472 ) ) ;
#728 = CARTESIAN_POINT ( 'NONE',  ( -25.39999999999996305, 0.000000000000000000, 0.000000000000000000 ) ) ;
#729 = DIRECTION ( 'NONE',  ( 0.7431005017819711789, -0.08288428673721758011, -0.6640269868487616023 ) ) ;
#730 = ORIENTED_EDGE ( 'NONE', *, *, #163, .F. ) ;
#731 =( NAMED_UNIT ( * ) PLANE_ANGLE_UNIT ( ) SI_UNIT ( $, .RADIAN. ) );
#732 = PRESENTATION_STYLE_ASSIGNMENT (( #113 ) ) ;
#733 = EDGE_CURVE ( 'NONE', #880, #224, #277, .T. ) ;
#734 = FILL_AREA_STYLE ('',( #340 ) ) ;
#735 = DIRECTION ( 'NONE',  ( -1.000000000000000000, -0.000000000000000000, -0.000000000000000000 ) ) ;
#736 = COLOUR_RGB ( '',0.7764705882352941346, 0.7568627450980391913, 0.7372549019607843590 ) ;
#737 = ORIENTED_EDGE ( 'NONE', *, *, #897, .F. ) ;
#738 = CARTESIAN_POINT ( 'NONE',  ( 2.214116351126373949, -0.1880408685282127235, 0.1880408685282120573 ) ) ;
#739 = SURFACE_SIDE_STYLE ('',( #418 ) ) ;
#740 = STYLED_ITEM ( 'NONE', ( #763 ), #830 ) ;
#741 = PRESENTATION_STYLE_ASSIGNMENT (( #240 ) ) ;
#742 = ORIENTED_EDGE ( 'NONE', *, *, #949, .T. ) ;
#743 = FILL_AREA_STYLE_COLOUR ( '', #34 ) ;
#744 = CARTESIAN_POINT ( 'NONE',  ( 1.949999999999999956, -0.2175000000000006928, 0.2174999999999992495 ) ) ;
#745 =( NAMED_UNIT ( * ) SI_UNIT ( $, .STERADIAN. ) SOLID_ANGLE_UNIT ( ) );
#746 = ORIENTED_EDGE ( 'NONE', *, *, #102, .T. ) ;
#747 = CARTESIAN_POINT ( 'NONE',  ( 2.193400286944045430, -0.1903515064562409931, -2.309278636184418912E-16 ) ) ;
#748 = ADVANCED_FACE ( 'NONE', ( #197 ), #212, .T. ) ;
#749 =( LENGTH_UNIT ( ) NAMED_UNIT ( * ) SI_UNIT ( .MILLI., .METRE. ) );
#750 = MECHANICAL_DESIGN_GEOMETRIC_PRESENTATION_REPRESENTATION (  '', ( #376 ), #966 ) ;
#751 = ORIENTED_EDGE ( 'NONE', *, *, #406, .T. ) ;
#752 = DIRECTION ( 'NONE',  ( 0.6663196743247736809, -2.603479645215216163E-15, 0.7456662065614397816 ) ) ;
#753 = AXIS2_PLACEMENT_3D ( 'NONE', #89, #705, #782 ) ;
#754 = DIRECTION ( 'NONE',  ( -1.000000000000000000, -0.000000000000000000, -0.000000000000000000 ) ) ;
#755 = AXIS2_PLACEMENT_3D ( 'NONE', #821, #187, #405 ) ;
#756 = ORIENTED_EDGE ( 'NONE', *, *, #97, .F. ) ;
#757 = FILL_AREA_STYLE_COLOUR ( '', #156 ) ;
#758 = MECHANICAL_DESIGN_GEOMETRIC_PRESENTATION_REPRESENTATION (  '', ( #640 ), #568 ) ;
#759 = CARTESIAN_POINT ( 'NONE',  ( 1.347043950347265318, 0.000000000000000000, 3.500000000000000444 ) ) ;
#760 = CARTESIAN_POINT ( 'NONE',  ( 1.949999999999999956, 0.2174999999999999989, 0.2174999999999999711 ) ) ;
#761 = APPLICATION_CONTEXT ( 'automotive_design' ) ;
#762 = ORIENTED_EDGE ( 'NONE', *, *, #733, .F. ) ;
#763 = PRESENTATION_STYLE_ASSIGNMENT (( #667 ) ) ;
#764 = DIRECTION ( 'NONE',  ( 0.9938370308809506559, -0.1108510534444137469, -3.870343844922734420E-16 ) ) ;
#765 = EDGE_CURVE ( 'NONE', #880, #100, #720, .T. ) ;
#766 = CARTESIAN_POINT ( 'NONE',  ( 1.347043950347265318, 0.000000000000000000, 0.000000000000000000 ) ) ;
#767 = VERTEX_POINT ( 'NONE', #997 ) ;
#768 = FILL_AREA_STYLE ('',( #757 ) ) ;
#769 = CIRCLE ( 'NONE', #995, 5.437518987584765817 ) ;
#770 = PRESENTATION_STYLE_ASSIGNMENT (( #506 ) ) ;
#771 = PRESENTATION_LAYER_ASSIGNMENT (  '', '', ( #998 ) ) ;
#772 =( LENGTH_UNIT ( ) NAMED_UNIT ( * ) SI_UNIT ( .MILLI., .METRE. ) );
#773 = COLOUR_RGB ( '',0.7764705882352941346, 0.7568627450980391913, 0.7372549019607843590 ) ;
#774 = PLANE ( 'NONE',  #822 ) ;
#775 =( NAMED_UNIT ( * ) SI_UNIT ( $, .STERADIAN. ) SOLID_ANGLE_UNIT ( ) );
#776 = PRESENTATION_LAYER_ASSIGNMENT (  '', '', ( #740 ) ) ;
#777 =( NAMED_UNIT ( * ) SI_UNIT ( $, .STERADIAN. ) SOLID_ANGLE_UNIT ( ) );
#778 = PLANE ( 'NONE',  #497 ) ;
#779 = DIRECTION ( 'NONE',  ( -1.000000000000000000, -0.000000000000000000, -0.000000000000000000 ) ) ;
#780 = CARTESIAN_POINT ( 'NONE',  ( -25.39999999999996305, 0.000000000000000000, 0.000000000000000000 ) ) ;
#781 = VERTEX_POINT ( 'NONE', #678 ) ;
#782 = DIRECTION ( 'NONE',  ( 0.000000000000000000, 1.000000000000000000, 0.000000000000000000 ) ) ;
#783 = FILL_AREA_STYLE ('',( #141 ) ) ;
#784 = PRODUCT_CONTEXT ( 'NONE', #761, 'mechanical' ) ;
#785 = CARTESIAN_POINT ( 'NONE',  ( 2.214116351126373505, 0.1880408685282115300, 0.1880408685282121406 ) ) ;
#786 = EDGE_CURVE ( 'NONE', #612, #437, #792, .T. ) ;
#787 = AXIS2_PLACEMENT_3D ( 'NONE', #332, #890, #648 ) ;
#788 =( LENGTH_UNIT ( ) NAMED_UNIT ( * ) SI_UNIT ( .MILLI., .METRE. ) );
#789 = COLOUR_RGB ( '',0.7764705882352941346, 0.7568627450980391913, 0.7372549019607843590 ) ;
#790 = DIRECTION ( 'NONE',  ( 0.6663196743247736809, 2.696405268330496226E-15, -0.7456662065614397816 ) ) ;
#791 = VECTOR ( 'NONE', #609, 1000.000000000000000 ) ;
#792 = CIRCLE ( 'NONE', #919, 3.311827956989247479 ) ;
#793 = DIRECTION ( 'NONE',  ( 0.9938370308809507669, 0.000000000000000000, 0.1108510534444137746 ) ) ;
#794 =( GEOMETRIC_REPRESENTATION_CONTEXT ( 3 ) GLOBAL_UNCERTAINTY_ASSIGNED_CONTEXT ( ( #898 ) ) GLOBAL_UNIT_ASSIGNED_CONTEXT ( ( #985, #52, #210 ) ) REPRESENTATION_CONTEXT ( 'NONE', 'WORKASPACE' ) );
#795 = SURFACE_SIDE_STYLE ('',( #398 ) ) ;
#796 = EDGE_CURVE ( 'NONE', #835, #767, #689, .T. ) ;
#797 = DIRECTION ( 'NONE',  ( 0.000000000000000000, 0.000000000000000000, 1.000000000000000000 ) ) ;
#798 = CARTESIAN_POINT ( 'NONE',  ( 1.347043950347265318, 0.000000000000000000, 0.000000000000000000 ) ) ;
#799 = PLANE ( 'NONE',  #499 ) ;
#800 = SURFACE_STYLE_USAGE ( .BOTH. , #320 ) ;
#801 = UNCERTAINTY_MEASURE_WITH_UNIT (LENGTH_MEASURE( 1.000000000000000082E-05 ), #628, 'distance_accuracy_value', 'NONE');
#802 = SURFACE_SIDE_STYLE ('',( #23 ) ) ;
#803 = FACE_BOUND ( 'NONE', #911, .T. ) ;
#804 = EDGE_LOOP ( 'NONE', ( #313, #560, #236 ) ) ;
#805 = SPHERICAL_SURFACE ( 'NONE', #753, 6.000000000000000000 ) ;
#806 = STYLED_ITEM ( 'NONE', ( #741 ), #191 ) ;
#807 = CIRCLE ( 'NONE', #716, 5.995482475482741158 ) ;
#808 =( LENGTH_UNIT ( ) NAMED_UNIT ( * ) SI_UNIT ( .MILLI., .METRE. ) );
#809 = ORIENTED_EDGE ( 'NONE', *, *, #570, .F. ) ;
#810 =( LENGTH_UNIT ( ) NAMED_UNIT ( * ) SI_UNIT ( .MILLI., .METRE. ) );
#811 = AXIS2_PLACEMENT_3D ( 'NONE', #709, #698, #326 ) ;
#812 = UNCERTAINTY_MEASURE_WITH_UNIT (LENGTH_MEASURE( 1.000000000000000082E-05 ), #694, 'distance_accuracy_value', 'NONE');
#813 = COLOUR_RGB ( '',0.7764705882352941346, 0.7568627450980391913, 0.7372549019607843590 ) ;
#814 = FILL_AREA_STYLE ('',( #959 ) ) ;
#815 = PLANE ( 'NONE',  #402 ) ;
#816 = ORIENTED_EDGE ( 'NONE', *, *, #854, .F. ) ;
#817 =( NAMED_UNIT ( * ) SI_UNIT ( $, .STERADIAN. ) SOLID_ANGLE_UNIT ( ) );
#818 = CARTESIAN_POINT ( 'NONE',  ( 0.9968214519863044520, 0.000000000000000000, 3.311827956989247479 ) ) ;
#819 = SURFACE_STYLE_FILL_AREA ( #341 ) ;
#820 = ORIENTED_EDGE ( 'NONE', *, *, #875, .F. ) ;
#821 = CARTESIAN_POINT ( 'NONE',  ( 4.309938594911940868, 1.891316923914901471, 2.356976916973721757E-16 ) ) ;
#822 = AXIS2_PLACEMENT_3D ( 'NONE', #964, #262, #884 ) ;
#823 = FACE_OUTER_BOUND ( 'NONE', #177, .T. ) ;
#824 = CARTESIAN_POINT ( 'NONE',  ( 0.2553644383338094515, -1.731808957027352047, -2.120854295958262972E-16 ) ) ;
#825 = ORIENTED_EDGE ( 'NONE', *, *, #374, .T. ) ;
#826 = DIRECTION ( 'NONE',  ( -0.9938370308809506559, -0.1108510534444136914, -3.870343844922732447E-16 ) ) ;
#827 =( GEOMETRIC_REPRESENTATION_CONTEXT ( 3 ) GLOBAL_UNCERTAINTY_ASSIGNED_CONTEXT ( ( #801 ) ) GLOBAL_UNIT_ASSIGNED_CONTEXT ( ( #628, #386, #534 ) ) REPRESENTATION_CONTEXT ( 'NONE', 'WORKASPACE' ) );
#828 = MECHANICAL_DESIGN_GEOMETRIC_PRESENTATION_REPRESENTATION (  '', ( #172 ), #871 ) ;
#829 =( GEOMETRIC_REPRESENTATION_CONTEXT ( 3 ) GLOBAL_UNCERTAINTY_ASSIGNED_CONTEXT ( ( #327 ) ) GLOBAL_UNIT_ASSIGNED_CONTEXT ( ( #165, #333, #475 ) ) REPRESENTATION_CONTEXT ( 'NONE', 'WORKASPACE' ) );
#830 = ADVANCED_FACE ( 'NONE', ( #683 ), #54, .T. ) ;
#831 =( NAMED_UNIT ( * ) SI_UNIT ( $, .STERADIAN. ) SOLID_ANGLE_UNIT ( ) );
#832 = ORIENTED_EDGE ( 'NONE', *, *, #786, .T. ) ;
#833 = PRESENTATION_STYLE_ASSIGNMENT (( #973 ) ) ;
#834 = ADVANCED_FACE ( 'NONE', ( #922 ), #608, .T. ) ;
#835 = VERTEX_POINT ( 'NONE', #72 ) ;
#836 =( LENGTH_UNIT ( ) NAMED_UNIT ( * ) SI_UNIT ( .MILLI., .METRE. ) );
#837 = LINE ( 'NONE', #760, #355 ) ;
#838 = ORIENTED_EDGE ( 'NONE', *, *, #87, .T. ) ;
#839 = DIRECTION ( 'NONE',  ( -0.1108510534444137469, -0.9938370308809506559, -3.448999966305766196E-15 ) ) ;
#840 = MECHANICAL_DESIGN_GEOMETRIC_PRESENTATION_REPRESENTATION (  '', ( #251 ), #153 ) ;
#841 =( NAMED_UNIT ( * ) PLANE_ANGLE_UNIT ( ) SI_UNIT ( $, .RADIAN. ) );
#842 = UNCERTAINTY_MEASURE_WITH_UNIT (LENGTH_MEASURE( 1.000000000000000082E-05 ), #810, 'distance_accuracy_value', 'NONE');
#843 = CIRCLE ( 'NONE', #466, 5.437518987584764929 ) ;
#844 = VERTEX_POINT ( 'NONE', #527 ) ;
#845 = SURFACE_STYLE_FILL_AREA ( #909 ) ;
#846 = EDGE_LOOP ( 'NONE', ( #471, #228, #206 ) ) ;
#847 = CARTESIAN_POINT ( 'NONE',  ( 5.974195292295553905, -0.2313525518329657138, -8.028830871489587498E-16 ) ) ;
#848 =( LENGTH_UNIT ( ) NAMED_UNIT ( * ) SI_UNIT ( .MILLI., .METRE. ) );
#849 = DIRECTION ( 'NONE',  ( 0.7431005017819711789, -0.08288428673722218754, 0.6640269868487610472 ) ) ;
#850 = CARTESIAN_POINT ( 'NONE',  ( 0.9968214519863044520, 0.000000000000000000, 0.000000000000000000 ) ) ;
#851 =( NAMED_UNIT ( * ) PLANE_ANGLE_UNIT ( ) SI_UNIT ( $, .RADIAN. ) );
#852 = DIRECTION ( 'NONE',  ( 1.000000000000000000, 0.000000000000000000, 0.000000000000000000 ) ) ;
#853 =( GEOMETRIC_REPRESENTATION_CONTEXT ( 3 ) GLOBAL_UNCERTAINTY_ASSIGNED_CONTEXT ( ( #314 ) ) GLOBAL_UNIT_ASSIGNED_CONTEXT ( ( #848, #445, #128 ) ) REPRESENTATION_CONTEXT ( 'NONE', 'WORKASPACE' ) );
#854 = EDGE_CURVE ( 'NONE', #512, #907, #602, .T. ) ;
#855 = DIRECTION ( 'NONE',  ( 0.000000000000000000, 1.000000000000000000, 1.224646799147353207E-16 ) ) ;
#856 =( NAMED_UNIT ( * ) PLANE_ANGLE_UNIT ( ) SI_UNIT ( $, .RADIAN. ) );
#857 =( GEOMETRIC_REPRESENTATION_CONTEXT ( 3 ) GLOBAL_UNCERTAINTY_ASSIGNED_CONTEXT ( ( #253 ) ) GLOBAL_UNIT_ASSIGNED_CONTEXT ( ( #303, #371, #311 ) ) REPRESENTATION_CONTEXT ( 'NONE', 'WORKASPACE' ) );
#858 = DIRECTION ( 'NONE',  ( -0.9938370308809506559, -0.1108510534444136914, -3.870343844922732447E-16 ) ) ;
#859 = ADVANCED_FACE ( 'NONE', ( #385, #803 ), #309, .F. ) ;
#860 = ORIENTED_EDGE ( 'NONE', *, *, #16, .T. ) ;
#861 =( NAMED_UNIT ( * ) SI_UNIT ( $, .STERADIAN. ) SOLID_ANGLE_UNIT ( ) );
#862 = SURFACE_STYLE_USAGE ( .BOTH. , #795 ) ;
#863 = DIRECTION ( 'NONE',  ( 0.7431005017819711789, 0.08288428673721742745, 0.6640269868487616023 ) ) ;
#864 = CARTESIAN_POINT ( 'NONE',  ( 2.214116351126373949, 0.1880408685282127790, -0.1880408685282121406 ) ) ;
#865 = VERTEX_POINT ( 'NONE', #83 ) ;
#866 = DIRECTION ( 'NONE',  ( -0.1108510534444136914, 0.9938370308809506559, 3.595744332370143968E-15 ) ) ;
#867 = EDGE_CURVE ( 'NONE', #781, #907, #611, .T. ) ;
#868 = PRESENTATION_LAYER_ASSIGNMENT (  '', '', ( #251 ) ) ;
#869 = CARTESIAN_POINT ( 'NONE',  ( 2.600000000000000089, 1.749999999999999778, 0.000000000000000000 ) ) ;
#870 = PRESENTATION_LAYER_ASSIGNMENT (  '', '', ( #254 ) ) ;
#871 =( GEOMETRIC_REPRESENTATION_CONTEXT ( 3 ) GLOBAL_UNCERTAINTY_ASSIGNED_CONTEXT ( ( #393 ) ) GLOBAL_UNIT_ASSIGNED_CONTEXT ( ( #84, #391, #861 ) ) REPRESENTATION_CONTEXT ( 'NONE', 'WORKASPACE' ) );
#872 = SURFACE_SIDE_STYLE ('',( #548 ) ) ;
#873 = CIRCLE ( 'NONE', #241, 1.749999999999999778 ) ;
#874 = DIRECTION ( 'NONE',  ( -0.1108510534444137469, -0.9938370308809506559, -3.448999966305766196E-15 ) ) ;
#875 = EDGE_CURVE ( 'NONE', #182, #509, #546, .T. ) ;
#876 = CARTESIAN_POINT ( 'NONE',  ( 0.2666411873824114376, 0.4052592521765713274, 1.721732169736487794 ) ) ;
#877 = ORIENTED_EDGE ( 'NONE', *, *, #69, .T. ) ;
#878 = UNCERTAINTY_MEASURE_WITH_UNIT (LENGTH_MEASURE( 1.000000000000000082E-05 ), #270, 'distance_accuracy_value', 'NONE');
#879 = FILL_AREA_STYLE_COLOUR ( '', #222 ) ;
#880 = VERTEX_POINT ( 'NONE', #876 ) ;
#881 = DIRECTION ( 'NONE',  ( 0.7431005017819711789, 0.6640269868487613802, -0.08288428673721975892 ) ) ;
#882 = SURFACE_STYLE_FILL_AREA ( #555 ) ;
#883 = AXIS2_PLACEMENT_3D ( 'NONE', #68, #468, #797 ) ;
#884 = DIRECTION ( 'NONE',  ( 0.000000000000000000, 0.000000000000000000, -1.000000000000000000 ) ) ;
#885 = DIRECTION ( 'NONE',  ( -0.1108510534444136914, 0.9938370308809506559, 3.595744332370143968E-15 ) ) ;
#886 = ORIENTED_EDGE ( 'NONE', *, *, #557, .T. ) ;
#887 = SURFACE_SIDE_STYLE ('',( #183 ) ) ;
#888 = PRESENTATION_LAYER_ASSIGNMENT (  '', '', ( #955 ) ) ;
#889 = VECTOR ( 'NONE', #495, 1000.000000000000000 ) ;
#890 = DIRECTION ( 'NONE',  ( -1.000000000000000000, -0.000000000000000000, -0.000000000000000000 ) ) ;
#891 = ORIENTED_EDGE ( 'NONE', *, *, #244, .T. ) ;
#892 = DIRECTION ( 'NONE',  ( -0.1108510534444137469, 2.096348086633972484E-17, 0.9938370308809506559 ) ) ;
#893 = CARTESIAN_POINT ( 'NONE',  ( 1.347043950347263763, 3.771912141373848894E-16, -3.080000000000000515 ) ) ;
#894 = ORIENTED_EDGE ( 'NONE', *, *, #69, .F. ) ;
#895 = CARTESIAN_POINT ( 'NONE',  ( 1.949999999999999956, -0.2175000000000000266, -0.2174999999999999989 ) ) ;
#896 = SURFACE_STYLE_USAGE ( .BOTH. , #739 ) ;
#897 = EDGE_CURVE ( 'NONE', #688, #767, #544, .T. ) ;
#898 = UNCERTAINTY_MEASURE_WITH_UNIT (LENGTH_MEASURE( 1.000000000000000082E-05 ), #985, 'distance_accuracy_value', 'NONE');
#899 = VECTOR ( 'NONE', #536, 1000.000000000000000 ) ;
#900 =( NAMED_UNIT ( * ) PLANE_ANGLE_UNIT ( ) SI_UNIT ( $, .RADIAN. ) );
#901 = SURFACE_STYLE_FILL_AREA ( #976 ) ;
#902 = COLOUR_RGB ( '',0.7764705882352941346, 0.7568627450980391913, 0.7372549019607843590 ) ;
#903 = ORIENTED_EDGE ( 'NONE', *, *, #949, .F. ) ;
#904 = SURFACE_STYLE_USAGE ( .BOTH. , #887 ) ;
#905 = CIRCLE ( 'NONE', #220, 5.995482475482740270 ) ;
#906 = AXIS2_PLACEMENT_3D ( 'NONE', #601, #297, #438 ) ;
#907 = VERTEX_POINT ( 'NONE', #626 ) ;
#908 =( LENGTH_UNIT ( ) NAMED_UNIT ( * ) SI_UNIT ( .MILLI., .METRE. ) );
#909 = FILL_AREA_STYLE ('',( #515 ) ) ;
#910 = EDGE_CURVE ( 'NONE', #915, #427, #873, .T. ) ;
#911 = EDGE_LOOP ( 'NONE', ( #494, #464 ) ) ;
#912 =( NAMED_UNIT ( * ) SI_UNIT ( $, .STERADIAN. ) SOLID_ANGLE_UNIT ( ) );
#913 = CARTESIAN_POINT ( 'NONE',  ( -25.39999999999996305, 0.000000000000000000, 3.500000000000000444 ) ) ;
#914 = AXIS2_PLACEMENT_3D ( 'NONE', #968, #255, #566 ) ;
#915 = VERTEX_POINT ( 'NONE', #470 ) ;
#916 = DIRECTION ( 'NONE',  ( 1.000000000000000000, 0.000000000000000000, 0.000000000000000000 ) ) ;
#917 = ADVANCED_FACE ( 'NONE', ( #577 ), #659, .T. ) ;
#918 = COLOUR_RGB ( '',0.7764705882352941346, 0.7568627450980391913, 0.7372549019607843590 ) ;
#919 = AXIS2_PLACEMENT_3D ( 'NONE', #850, #674, #987 ) ;
#920 = CIRCLE ( 'NONE', #485, 1.749999999999999778 ) ;
#921 = VERTEX_POINT ( 'NONE', #824 ) ;
#922 = FACE_OUTER_BOUND ( 'NONE', #343, .T. ) ;
#923 = SURFACE_STYLE_USAGE ( .BOTH. , #663 ) ;
#924 =( NAMED_UNIT ( * ) SI_UNIT ( $, .STERADIAN. ) SOLID_ANGLE_UNIT ( ) );
#925 = DIRECTION ( 'NONE',  ( 0.000000000000000000, 0.000000000000000000, 1.000000000000000000 ) ) ;
#926 = DIRECTION ( 'NONE',  ( 0.000000000000000000, 0.000000000000000000, 1.000000000000000000 ) ) ;
#927 = MANIFOLD_SOLID_BREP ( 'Move Face1', #271 ) ;
#928 = SURFACE_STYLE_FILL_AREA ( #783 ) ;
#929 = DIRECTION ( 'NONE',  ( -0.1108510534444136914, 1.257808851980383614E-16, -0.9938370308809506559 ) ) ;
#930 = CARTESIAN_POINT ( 'NONE',  ( -25.39999999999996305, 4.286263797015737088E-16, -3.500000000000000444 ) ) ;
#931 = CIRCLE ( 'NONE', #883, 3.311827956989247479 ) ;
#932 = EDGE_LOOP ( 'NONE', ( #431, #627, #116, #148, #20 ) ) ;
#933 = CARTESIAN_POINT ( 'NONE',  ( 1.949999999999999956, -0.2175000000000000266, -0.2174999999999999711 ) ) ;
#934 = CARTESIAN_POINT ( 'NONE',  ( 2.599999999999998312, 0.000000000000000000, 3.500000000000000000 ) ) ;
#935 = EDGE_CURVE ( 'NONE', #880, #356, #109, .T. ) ;
#936 = MECHANICAL_DESIGN_GEOMETRIC_PRESENTATION_REPRESENTATION (  '', ( #617 ), #353 ) ;
#937 = FACE_OUTER_BOUND ( 'NONE', #346, .T. ) ;
#938 = DIRECTION ( 'NONE',  ( 0.000000000000000000, 0.000000000000000000, 1.000000000000000000 ) ) ;
#939 =( GEOMETRIC_REPRESENTATION_CONTEXT ( 3 ) GLOBAL_UNCERTAINTY_ASSIGNED_CONTEXT ( ( #842 ) ) GLOBAL_UNIT_ASSIGNED_CONTEXT ( ( #810, #731, #645 ) ) REPRESENTATION_CONTEXT ( 'NONE', 'WORKASPACE' ) );
#940 = AXIS2_PLACEMENT_3D ( 'NONE', #780, #693, #1015 ) ;
#941 = CARTESIAN_POINT ( 'NONE',  ( 0.000000000000000000, 1.959999999999999964, 0.4350000000000001088 ) ) ;
#942 =( NAMED_UNIT ( * ) PLANE_ANGLE_UNIT ( ) SI_UNIT ( $, .RADIAN. ) );
#943 = DIRECTION ( 'NONE',  ( -1.000000000000000000, 0.000000000000000000, -0.000000000000000000 ) ) ;
#944 = SURFACE_SIDE_STYLE ('',( #625 ) ) ;
#945 = FACE_OUTER_BOUND ( 'NONE', #932, .T. ) ;
#946 = DIRECTION ( 'NONE',  ( 0.000000000000000000, 1.224646799147353207E-16, -1.000000000000000000 ) ) ;
#947 = PRESENTATION_STYLE_ASSIGNMENT (( #623 ) ) ;
#948 = ORIENTED_EDGE ( 'NONE', *, *, #102, .F. ) ;
#949 = EDGE_CURVE ( 'NONE', #644, #196, #47, .T. ) ;
#950 = FACE_OUTER_BOUND ( 'NONE', #633, .T. ) ;
#951 = VECTOR ( 'NONE', #144, 1000.000000000000000 ) ;
#952 = DIRECTION ( 'NONE',  ( 0.7431005017819711789, -0.6640269868487613802, -0.08288428673721992546 ) ) ;
#953 = AXIS2_PLACEMENT_3D ( 'NONE', #606, #268, #192 ) ;
#954 = MECHANICAL_DESIGN_GEOMETRIC_PRESENTATION_REPRESENTATION (  '', ( #564 ), #827 ) ;
#955 = STYLED_ITEM ( 'NONE', ( #330 ), #647 ) ;
#956 = ORIENTED_EDGE ( 'NONE', *, *, #991, .F. ) ;
#957 = DIRECTION ( 'NONE',  ( -0.1108510534444137469, 2.096348086633972484E-17, 0.9938370308809506559 ) ) ;
#958 = CARTESIAN_POINT ( 'NONE',  ( 5.974195292295553905, 2.619630734554813543E-16, -0.2313525518329656583 ) ) ;
#959 = FILL_AREA_STYLE_COLOUR ( '', #496 ) ;
#960 = CARTESIAN_POINT ( 'NONE',  ( 6.000000000000000000, 2.326828918379972351E-16, 0.000000000000000000 ) ) ;
#961 = EDGE_LOOP ( 'NONE', ( #860, #404, #422, #443, #809, #903, #352, #396, #970, #478, #1018 ) ) ;
#962 = SURFACE_STYLE_FILL_AREA ( #549 ) ;
#963 = EDGE_CURVE ( 'NONE', #269, #781, #308, .T. ) ;
#964 = CARTESIAN_POINT ( 'NONE',  ( 10.60000000000000142, 1.749999999999999778, 0.000000000000000000 ) ) ;
#965 = ORIENTED_EDGE ( 'NONE', *, *, #441, .T. ) ;
#966 =( GEOMETRIC_REPRESENTATION_CONTEXT ( 3 ) GLOBAL_UNCERTAINTY_ASSIGNED_CONTEXT ( ( #10 ) ) GLOBAL_UNIT_ASSIGNED_CONTEXT ( ( #632, #93, #723 ) ) REPRESENTATION_CONTEXT ( 'NONE', 'WORKASPACE' ) );
#967 = STYLED_ITEM ( 'NONE', ( #119 ), #273 ) ;
#968 = CARTESIAN_POINT ( 'NONE',  ( 1.347043950347263763, 0.000000000000000000, 3.080000000000000515 ) ) ;
#969 = SURFACE_SIDE_STYLE ('',( #99 ) ) ;
#970 = ORIENTED_EDGE ( 'NONE', *, *, #532, .F. ) ;
#971 = PLANE ( 'NONE',  #452 ) ;
#972 = AXIS2_PLACEMENT_3D ( 'NONE', #847, #839, #505 ) ;
#973 = SURFACE_STYLE_USAGE ( .BOTH. , #101 ) ;
#974 = STYLED_ITEM ( 'NONE', ( #489 ), #917 ) ;
#975 = CARTESIAN_POINT ( 'NONE',  ( 0.9968214519863044520, 0.000000000000000000, 0.000000000000000000 ) ) ;
#976 = FILL_AREA_STYLE ('',( #11 ) ) ;
#977 = EDGE_LOOP ( 'NONE', ( #31, #894 ) ) ;
#978 = DIRECTION ( 'NONE',  ( 0.9877866216249069353, 0.1101762001043169042, -0.1101762001043164879 ) ) ;
#979 = ADVANCED_FACE ( 'NONE', ( #484 ), #815, .T. ) ;
#980 =( NAMED_UNIT ( * ) SI_UNIT ( $, .STERADIAN. ) SOLID_ANGLE_UNIT ( ) );
#981 = ORIENTED_EDGE ( 'NONE', *, *, #312, .F. ) ;
#982 = EDGE_CURVE ( 'NONE', #182, #624, #989, .T. ) ;
#983 = DIRECTION ( 'NONE',  ( -0.000000000000000000, 1.000000000000000000, 1.224646799147353207E-16 ) ) ;
#984 =( GEOMETRIC_REPRESENTATION_CONTEXT ( 3 ) GLOBAL_UNCERTAINTY_ASSIGNED_CONTEXT ( ( #162 ) ) GLOBAL_UNIT_ASSIGNED_CONTEXT ( ( #239, #92, #535 ) ) REPRESENTATION_CONTEXT ( 'NONE', 'WORKASPACE' ) );
#985 =( LENGTH_UNIT ( ) NAMED_UNIT ( * ) SI_UNIT ( .MILLI., .METRE. ) );
#986 = ORIENTED_EDGE ( 'NONE', *, *, #59, .F. ) ;
#987 = DIRECTION ( 'NONE',  ( 0.000000000000000000, 0.000000000000000000, 1.000000000000000000 ) ) ;
#988 = CIRCLE ( 'NONE', #339, 0.4199999999999998179 ) ;
#989 = CIRCLE ( 'NONE', #530, 5.995482475482740270 ) ;
#990 = ORIENTED_EDGE ( 'NONE', *, *, #406, .F. ) ;
#991 = EDGE_CURVE ( 'NONE', #60, #44, #435, .T. ) ;
#992 = DIRECTION ( 'NONE',  ( 0.000000000000000000, 0.000000000000000000, 1.000000000000000000 ) ) ;
#993 = EDGE_LOOP ( 'NONE', ( #96, #125, #956, #304, #595 ) ) ;
#994 = FILL_AREA_STYLE ('',( #207 ) ) ;
#995 = AXIS2_PLACEMENT_3D ( 'NONE', #610, #790, #526 ) ;
#996 = ORIENTED_EDGE ( 'NONE', *, *, #875, .T. ) ;
#997 = CARTESIAN_POINT ( 'NONE',  ( 0.2553644383338094515, 1.731808957027352269, 0.000000000000000000 ) ) ;
#998 = STYLED_ITEM ( 'NONE', ( #1000 ), #258 ) ;
#999 = CARTESIAN_POINT ( 'NONE',  ( 1.949999999999999956, 0.2175000000000007483, -0.2174999999999992772 ) ) ;
#1000 = PRESENTATION_STYLE_ASSIGNMENT (( #614 ) ) ;
#1001 = STYLED_ITEM ( 'NONE', ( #62 ), #459 ) ;
#1002 = MECHANICAL_DESIGN_GEOMETRIC_PRESENTATION_REPRESENTATION (  '', ( #704 ), #307 ) ;
#1003 = VECTOR ( 'NONE', #537, 1000.000000000000000 ) ;
#1004 =( GEOMETRIC_REPRESENTATION_CONTEXT ( 3 ) GLOBAL_UNCERTAINTY_ASSIGNED_CONTEXT ( ( #556 ) ) GLOBAL_UNIT_ASSIGNED_CONTEXT ( ( #671, #664, #745 ) ) REPRESENTATION_CONTEXT ( 'NONE', 'WORKASPACE' ) );
#1005 = ORIENTED_EDGE ( 'NONE', *, *, #432, .T. ) ;
#1006 = EDGE_CURVE ( 'NONE', #427, #915, #920, .T. ) ;
#1007 = DIRECTION ( 'NONE',  ( -1.000000000000000000, -0.000000000000000000, -0.000000000000000000 ) ) ;
#1008 = PRESENTATION_STYLE_ASSIGNMENT (( #367 ) ) ;
#1009 = CARTESIAN_POINT ( 'NONE',  ( 1.949999999999999956, -0.2175000000000007205, 0.2174999999999993883 ) ) ;
#1010 = SURFACE_SIDE_STYLE ('',( #317 ) ) ;
#1011 = FILL_AREA_STYLE ('',( #45 ) ) ;
#1012 = EDGE_CURVE ( 'NONE', #907, #512, #98, .T. ) ;
#1013 = SURFACE_STYLE_FILL_AREA ( #294 ) ;
#1014 = LINE ( 'NONE', #223, #524 ) ;
#1015 = DIRECTION ( 'NONE',  ( 0.000000000000000000, 0.000000000000000000, 1.000000000000000000 ) ) ;
#1016 = CIRCLE ( 'NONE', #8, 6.000000000000000000 ) ;
#1017 = PRESENTATION_LAYER_ASSIGNMENT (  '', '', ( #434 ) ) ;
#1018 = ORIENTED_EDGE ( 'NONE', *, *, #796, .F. ) ;
#1019 = FILL_AREA_STYLE_COLOUR ( '', #736 ) ;
#1020 = AXIS2_PLACEMENT_3D ( 'NONE', #362, #957, #793 ) ;
#1021 = EDGE_CURVE ( 'NONE', #356, #509, #837, .T. ) ;
#1022 = PRESENTATION_LAYER_ASSIGNMENT (  '', '', ( #482 ) ) ;
#1023 =( LENGTH_UNIT ( ) NAMED_UNIT ( * ) SI_UNIT ( .MILLI., .METRE. ) );
#1024 = FILL_AREA_STYLE_COLOUR ( '', #1025 ) ;
#1025 = COLOUR_RGB ( '',0.7764705882352941346, 0.7568627450980391913, 0.7372549019607843590 ) ;
ENDSEC;
END-ISO-10303-21;
