ISO-10303-21;
HEADER;
FILE_DESCRIPTION (( 'STEP AP214' ),
    '1' );
FILE_NAME ('M3.5 x 16 Screw head.STEP',
    '2023-03-28T04:22:40',
    ( '' ),
    ( '' ),
    'SwSTEP 2.0',
    'SolidWorks 2022',
    '' );
FILE_SCHEMA (( 'AUTOMOTIVE_DESIGN' ));
ENDSEC;

DATA;
#1 = SURFACE_STYLE_FILL_AREA ( #473 ) ;
#2 = TOROIDAL_SURFACE ( 'NONE', #392, 3.080000000000000515, 0.4200000000000000400 ) ;
#3 = PRESENTATION_LAYER_ASSIGNMENT (  '', '', ( #459 ) ) ;
#4 = CARTESIAN_POINT ( 'NONE',  ( 1.949999999999999956, -0.2175000000000000266, -0.2174999999999999989 ) ) ;
#5 =( GEOMETRIC_REPRESENTATION_CONTEXT ( 3 ) GLOBAL_UNCERTAINTY_ASSIGNED_CONTEXT ( ( #474 ) ) GLOBAL_UNIT_ASSIGNED_CONTEXT ( ( #282, #451, #894 ) ) REPRESENTATION_CONTEXT ( 'NONE', 'WORKASPACE' ) );
#6 =( NAMED_UNIT ( * ) SI_UNIT ( $, .STERADIAN. ) SOLID_ANGLE_UNIT ( ) );
#7 = EDGE_CURVE ( 'NONE', #231, #930, #153, .T. ) ;
#8 =( LENGTH_UNIT ( ) NAMED_UNIT ( * ) SI_UNIT ( .MILLI., .METRE. ) );
#9 = CARTESIAN_POINT ( 'NONE',  ( -25.39999999999996305, 2.143131898507868051E-16, -1.749999999999999778 ) ) ;
#10 = DIRECTION ( 'NONE',  ( 0.6663196743247735698, -2.603479645215216163E-15, 0.7456662065614397816 ) ) ;
#11 =( LENGTH_UNIT ( ) NAMED_UNIT ( * ) SI_UNIT ( .MILLI., .METRE. ) );
#12 = LINE ( 'NONE', #646, #753 ) ;
#13 = DIRECTION ( 'NONE',  ( -0.9938370308809506559, 0.000000000000000000, 0.1108510534444136914 ) ) ;
#14 = VERTEX_POINT ( 'NONE', #243 ) ;
#15 = CARTESIAN_POINT ( 'NONE',  ( 0.2553644383338094515, 1.731808957027352269, 0.000000000000000000 ) ) ;
#16 = PRESENTATION_LAYER_ASSIGNMENT (  '', '', ( #719 ) ) ;
#17 = FACE_OUTER_BOUND ( 'NONE', #1001, .T. ) ;
#18 = AXIS2_PLACEMENT_3D ( 'NONE', #874, #921, #599 ) ;
#19 = AXIS2_PLACEMENT_3D ( 'NONE', #829, #867, #942 ) ;
#20 = AXIS2_PLACEMENT_3D ( 'NONE', #385, #47, #302 ) ;
#21 = VERTEX_POINT ( 'NONE', #879 ) ;
#22 = DIRECTION ( 'NONE',  ( 0.000000000000000000, 0.000000000000000000, -1.000000000000000000 ) ) ;
#23 = SURFACE_STYLE_FILL_AREA ( #28 ) ;
#24 = PRESENTATION_STYLE_ASSIGNMENT (( #281 ) ) ;
#25 = FILL_AREA_STYLE_COLOUR ( '', #940 ) ;
#26 = VERTEX_POINT ( 'NONE', #261 ) ;
#27 = UNCERTAINTY_MEASURE_WITH_UNIT (LENGTH_MEASURE( 1.000000000000000082E-05 ), #584, 'distance_accuracy_value', 'NONE');
#28 = FILL_AREA_STYLE ('',( #893 ) ) ;
#29 = UNCERTAINTY_MEASURE_WITH_UNIT (LENGTH_MEASURE( 1.000000000000000082E-05 ), #1024, 'distance_accuracy_value', 'NONE');
#30 = CARTESIAN_POINT ( 'NONE',  ( 6.000000000000000000, 2.326828918379972351E-16, 0.000000000000000000 ) ) ;
#31 = EDGE_LOOP ( 'NONE', ( #530, #550, #278, #502, #437 ) ) ;
#32 = DIRECTION ( 'NONE',  ( -1.000000000000000000, -0.000000000000000000, -0.000000000000000000 ) ) ;
#33 = APPLICATION_PROTOCOL_DEFINITION ( 'draft international standard', 'automotive_design', 1998, #61 ) ;
#34 =( NAMED_UNIT ( * ) PLANE_ANGLE_UNIT ( ) SI_UNIT ( $, .RADIAN. ) );
#35 = PRESENTATION_STYLE_ASSIGNMENT (( #840 ) ) ;
#36 = PRESENTATION_LAYER_ASSIGNMENT (  '', '', ( #185 ) ) ;
#37 = MECHANICAL_DESIGN_GEOMETRIC_PRESENTATION_REPRESENTATION (  '', ( #819 ), #375 ) ;
#38 = CIRCLE ( 'NONE', #654, 5.995482475482741158 ) ;
#39 = ORIENTED_EDGE ( 'NONE', *, *, #348, .F. ) ;
#40 = SURFACE_SIDE_STYLE ('',( #439 ) ) ;
#41 = DIRECTION ( 'NONE',  ( 1.000000000000000000, 0.000000000000000000, 0.000000000000000000 ) ) ;
#42 = AXIS2_PLACEMENT_3D ( 'NONE', #92, #724, #84 ) ;
#43 = ADVANCED_FACE ( 'NONE', ( #647 ), #890, .F. ) ;
#44 = SURFACE_SIDE_STYLE ('',( #752 ) ) ;
#45 = ORIENTED_EDGE ( 'NONE', *, *, #89, .F. ) ;
#46 = SURFACE_STYLE_USAGE ( .BOTH. , #40 ) ;
#47 = DIRECTION ( 'NONE',  ( -0.1108510534444137469, 2.096348086633972484E-17, 0.9938370308809506559 ) ) ;
#48 = DIRECTION ( 'NONE',  ( 0.9938370308809506559, -0.1108510534444137469, -3.870343844922734420E-16 ) ) ;
#49 = SURFACE_STYLE_USAGE ( .BOTH. , #365 ) ;
#50 = ORIENTED_EDGE ( 'NONE', *, *, #957, .T. ) ;
#51 = DIRECTION ( 'NONE',  ( 0.9877866216249069353, -0.1101762001043169320, 0.1101762001043165712 ) ) ;
#52 = DIRECTION ( 'NONE',  ( 0.000000000000000000, 0.000000000000000000, 1.000000000000000000 ) ) ;
#53 = SURFACE_STYLE_USAGE ( .BOTH. , #999 ) ;
#54 = EDGE_CURVE ( 'NONE', #211, #209, #524, .T. ) ;
#55 = PRESENTATION_LAYER_ASSIGNMENT (  '', '', ( #667 ) ) ;
#56 = ORIENTED_EDGE ( 'NONE', *, *, #163, .F. ) ;
#57 = SURFACE_SIDE_STYLE ('',( #846 ) ) ;
#58 =( LENGTH_UNIT ( ) NAMED_UNIT ( * ) SI_UNIT ( .MILLI., .METRE. ) );
#59 = SURFACE_SIDE_STYLE ('',( #773 ) ) ;
#60 = DIRECTION ( 'NONE',  ( -1.000000000000000000, -0.000000000000000000, -0.000000000000000000 ) ) ;
#61 = APPLICATION_CONTEXT ( 'automotive_design' ) ;
#62 = ORIENTED_EDGE ( 'NONE', *, *, #988, .F. ) ;
#63 = SURFACE_STYLE_FILL_AREA ( #468 ) ;
#64 = CARTESIAN_POINT ( 'NONE',  ( 0.2666411873824114376, 1.721732169736486240, -0.4052592521765773226 ) ) ;
#65 = UNCERTAINTY_MEASURE_WITH_UNIT (LENGTH_MEASURE( 1.000000000000000082E-05 ), #694, 'distance_accuracy_value', 'NONE');
#66 = ORIENTED_EDGE ( 'NONE', *, *, #461, .T. ) ;
#67 = EDGE_CURVE ( 'NONE', #209, #319, #462, .T. ) ;
#68 = DIRECTION ( 'NONE',  ( 0.7456662065614395596, 0.000000000000000000, -0.6663196743247737919 ) ) ;
#69 = FILL_AREA_STYLE_COLOUR ( '', #793 ) ;
#70 = FILL_AREA_STYLE ('',( #143 ) ) ;
#71 = SURFACE_STYLE_USAGE ( .BOTH. , #955 ) ;
#72 = ORIENTED_EDGE ( 'NONE', *, *, #238, .T. ) ;
#73 = VECTOR ( 'NONE', #827, 999.9999999999998863 ) ;
#74 = AXIS2_PLACEMENT_3D ( 'NONE', #331, #975, #338 ) ;
#75 = ADVANCED_FACE ( 'NONE', ( #403 ), #258, .T. ) ;
#76 = UNCERTAINTY_MEASURE_WITH_UNIT (LENGTH_MEASURE( 1.000000000000000082E-05 ), #356, 'distance_accuracy_value', 'NONE');
#77 =( GEOMETRIC_REPRESENTATION_CONTEXT ( 3 ) GLOBAL_UNCERTAINTY_ASSIGNED_CONTEXT ( ( #76 ) ) GLOBAL_UNIT_ASSIGNED_CONTEXT ( ( #356, #277, #370 ) ) REPRESENTATION_CONTEXT ( 'NONE', 'WORKASPACE' ) );
#78 = CIRCLE ( 'NONE', #252, 5.995482475482740270 ) ;
#79 = LINE ( 'NONE', #800, #650 ) ;
#80 = DIRECTION ( 'NONE',  ( -1.000000000000000000, -0.000000000000000000, -0.000000000000000000 ) ) ;
#81 = AXIS2_PLACEMENT_3D ( 'NONE', #116, #508, #41 ) ;
#82 = LINE ( 'NONE', #205, #478 ) ;
#83 = ORIENTED_EDGE ( 'NONE', *, *, #114, .T. ) ;
#84 = DIRECTION ( 'NONE',  ( 0.000000000000000000, 0.000000000000000000, 1.000000000000000000 ) ) ;
#85 = DIRECTION ( 'NONE',  ( 0.000000000000000000, 0.000000000000000000, 1.000000000000000000 ) ) ;
#86 = EDGE_CURVE ( 'NONE', #231, #21, #374, .T. ) ;
#87 = CARTESIAN_POINT ( 'NONE',  ( 2.599999999999998312, 0.000000000000000000, 0.000000000000000000 ) ) ;
#88 = FILL_AREA_STYLE ('',( #802 ) ) ;
#89 = EDGE_CURVE ( 'NONE', #912, #845, #528, .T. ) ;
#90 = DIRECTION ( 'NONE',  ( 0.7456662065614397816, -2.326442708608981349E-15, 0.6663196743247735698 ) ) ;
#91 =( NAMED_UNIT ( * ) SI_UNIT ( $, .STERADIAN. ) SOLID_ANGLE_UNIT ( ) );
#92 = CARTESIAN_POINT ( 'NONE',  ( -25.39999999999996305, 0.000000000000000000, 0.000000000000000000 ) ) ;
#93 = MECHANICAL_DESIGN_GEOMETRIC_PRESENTATION_REPRESENTATION (  '', ( #185 ), #287 ) ;
#94 = COLOUR_RGB ( '',0.7764705882352941346, 0.7568627450980391913, 0.7372549019607843590 ) ;
#95 = STYLED_ITEM ( 'NONE', ( #760 ), #97 ) ;
#96 = STYLED_ITEM ( 'NONE', ( #697 ), #978 ) ;
#97 = ADVANCED_FACE ( 'NONE', ( #548 ), #926, .T. ) ;
#98 =( LENGTH_UNIT ( ) NAMED_UNIT ( * ) SI_UNIT ( .MILLI., .METRE. ) );
#99 = SURFACE_STYLE_FILL_AREA ( #569 ) ;
#100 = DIRECTION ( 'NONE',  ( 0.000000000000000000, 0.000000000000000000, 1.000000000000000000 ) ) ;
#101 = ORIENTED_EDGE ( 'NONE', *, *, #333, .F. ) ;
#102 =( GEOMETRIC_REPRESENTATION_CONTEXT ( 3 ) GLOBAL_UNCERTAINTY_ASSIGNED_CONTEXT ( ( #796 ) ) GLOBAL_UNIT_ASSIGNED_CONTEXT ( ( #832, #744, #732 ) ) REPRESENTATION_CONTEXT ( 'NONE', 'WORKASPACE' ) );
#103 = DIRECTION ( 'NONE',  ( -0.9938370308809506559, -0.1108510534444136914, -3.870343844922732447E-16 ) ) ;
#104 = AXIS2_PLACEMENT_3D ( 'NONE', #554, #929, #537 ) ;
#105 = CIRCLE ( 'NONE', #359, 3.311827956989247479 ) ;
#106 = ORIENTED_EDGE ( 'NONE', *, *, #681, .T. ) ;
#107 =( NAMED_UNIT ( * ) PLANE_ANGLE_UNIT ( ) SI_UNIT ( $, .RADIAN. ) );
#108 = SURFACE_STYLE_FILL_AREA ( #825 ) ;
#109 = ORIENTED_EDGE ( 'NONE', *, *, #891, .T. ) ;
#110 = FILL_AREA_STYLE_COLOUR ( '', #888 ) ;
#111 = CARTESIAN_POINT ( 'NONE',  ( 18.60000000000000142, 2.143131898507868051E-16, -1.749999999999999778 ) ) ;
#112 = DIRECTION ( 'NONE',  ( 0.7431005017819711789, -0.08288428673722218754, 0.6640269868487610472 ) ) ;
#113 = FILL_AREA_STYLE ('',( #514 ) ) ;
#114 = EDGE_CURVE ( 'NONE', #121, #471, #78, .T. ) ;
#115 = ORIENTED_EDGE ( 'NONE', *, *, #67, .F. ) ;
#116 = CARTESIAN_POINT ( 'NONE',  ( 0.000000000000000000, 0.000000000000000000, 0.000000000000000000 ) ) ;
#117 = FILL_AREA_STYLE_COLOUR ( '', #701 ) ;
#118 = STYLED_ITEM ( 'NONE', ( #684 ), #377 ) ;
#119 = CIRCLE ( 'NONE', #702, 5.995482475482740270 ) ;
#120 = VECTOR ( 'NONE', #480, 1000.000000000000000 ) ;
#121 = VERTEX_POINT ( 'NONE', #542 ) ;
#122 = MECHANICAL_DESIGN_GEOMETRIC_PRESENTATION_REPRESENTATION (  '', ( #240 ), #378 ) ;
#123 = EDGE_CURVE ( 'NONE', #432, #352, #903, .T. ) ;
#124 = SURFACE_SIDE_STYLE ('',( #906 ) ) ;
#125 = UNCERTAINTY_MEASURE_WITH_UNIT (LENGTH_MEASURE( 1.000000000000000082E-05 ), #1004, 'distance_accuracy_value', 'NONE');
#126 =( NAMED_UNIT ( * ) PLANE_ANGLE_UNIT ( ) SI_UNIT ( $, .RADIAN. ) );
#127 = VERTEX_POINT ( 'NONE', #932 ) ;
#128 = SURFACE_STYLE_FILL_AREA ( #223 ) ;
#129 =( NAMED_UNIT ( * ) SI_UNIT ( $, .STERADIAN. ) SOLID_ANGLE_UNIT ( ) );
#130 = EDGE_CURVE ( 'NONE', #301, #930, #38, .T. ) ;
#131 = FILL_AREA_STYLE_COLOUR ( '', #202 ) ;
#132 = FACE_OUTER_BOUND ( 'NONE', #337, .T. ) ;
#133 = EDGE_LOOP ( 'NONE', ( #315, #546, #794 ) ) ;
#134 = SURFACE_SIDE_STYLE ('',( #63 ) ) ;
#135 = FILL_AREA_STYLE ('',( #69 ) ) ;
#136 = UNCERTAINTY_MEASURE_WITH_UNIT (LENGTH_MEASURE( 1.000000000000000082E-05 ), #272, 'distance_accuracy_value', 'NONE');
#137 = PLANE ( 'NONE',  #159 ) ;
#138 = CIRCLE ( 'NONE', #216, 0.4199999999999998179 ) ;
#139 = VERTEX_POINT ( 'NONE', #948 ) ;
#140 = AXIS2_PLACEMENT_3D ( 'NONE', #638, #962, #100 ) ;
#141 = COLOUR_RGB ( '',0.7764705882352941346, 0.7568627450980391913, 0.7372549019607843590 ) ;
#142 = DIRECTION ( 'NONE',  ( 0.7456662065614397816, 0.6663196743247735698, 0.000000000000000000 ) ) ;
#143 = FILL_AREA_STYLE_COLOUR ( '', #391 ) ;
#144 = VERTEX_POINT ( 'NONE', #536 ) ;
#145 = DIRECTION ( 'NONE',  ( 0.000000000000000000, 0.000000000000000000, 1.000000000000000000 ) ) ;
#146 = CARTESIAN_POINT ( 'NONE',  ( 5.974195292295553905, 0.2313525518329656860, 8.370432990360215258E-16 ) ) ;
#147 = ORIENTED_EDGE ( 'NONE', *, *, #787, .F. ) ;
#148 = ADVANCED_FACE ( 'NONE', ( #692, #847 ), #137, .F. ) ;
#149 = FILL_AREA_STYLE_COLOUR ( '', #938 ) ;
#150 = FILL_AREA_STYLE_COLOUR ( '', #541 ) ;
#151 = DIRECTION ( 'NONE',  ( -0.000000000000000000, 0.000000000000000000, -1.000000000000000000 ) ) ;
#152 = SURFACE_SIDE_STYLE ('',( #868 ) ) ;
#153 = LINE ( 'NONE', #956, #120 ) ;
#154 = COLOUR_RGB ( '',0.7764705882352941346, 0.7568627450980391913, 0.7372549019607843590 ) ;
#155 = SURFACE_SIDE_STYLE ('',( #952 ) ) ;
#156 =( NAMED_UNIT ( * ) SI_UNIT ( $, .STERADIAN. ) SOLID_ANGLE_UNIT ( ) );
#157 = PRESENTATION_LAYER_ASSIGNMENT (  '', '', ( #1013 ) ) ;
#158 = AXIS2_PLACEMENT_3D ( 'NONE', #296, #60, #313 ) ;
#159 = AXIS2_PLACEMENT_3D ( 'NONE', #329, #233, #964 ) ;
#160 = DIRECTION ( 'NONE',  ( -1.000000000000000000, -0.000000000000000000, -0.000000000000000000 ) ) ;
#161 = AXIS2_PLACEMENT_3D ( 'NONE', #615, #80, #933 ) ;
#162 =( NAMED_UNIT ( * ) SI_UNIT ( $, .STERADIAN. ) SOLID_ANGLE_UNIT ( ) );
#163 = EDGE_CURVE ( 'NONE', #432, #912, #12, .T. ) ;
#164 = SURFACE_STYLE_USAGE ( .BOTH. , #242 ) ;
#165 = CARTESIAN_POINT ( 'NONE',  ( 18.60000000000000142, 0.000000000000000000, 0.000000000000000000 ) ) ;
#166 = PRODUCT_RELATED_PRODUCT_CATEGORY ( 'part', '', ( #758 ) ) ;
#167 = DIRECTION ( 'NONE',  ( -0.7456662065614397816, -2.326442708608981349E-15, 0.6663196743247735698 ) ) ;
#168 =( GEOMETRIC_REPRESENTATION_CONTEXT ( 3 ) GLOBAL_UNCERTAINTY_ASSIGNED_CONTEXT ( ( #136 ) ) GLOBAL_UNIT_ASSIGNED_CONTEXT ( ( #272, #34, #591 ) ) REPRESENTATION_CONTEXT ( 'NONE', 'WORKASPACE' ) );
#169 = AXIS2_PLACEMENT_3D ( 'NONE', #871, #484, #225 ) ;
#170 = FACE_OUTER_BOUND ( 'NONE', #563, .T. ) ;
#171 = COLOUR_RGB ( '',0.7764705882352941346, 0.7568627450980391913, 0.7372549019607843590 ) ;
#172 = EDGE_CURVE ( 'NONE', #209, #224, #708, .T. ) ;
#173 = DIRECTION ( 'NONE',  ( -1.000000000000000000, -0.000000000000000000, -0.000000000000000000 ) ) ;
#174 = SHAPE_DEFINITION_REPRESENTATION ( #436, #778 ) ;
#175 = FACE_OUTER_BOUND ( 'NONE', #735, .T. ) ;
#176 = ORIENTED_EDGE ( 'NONE', *, *, #130, .F. ) ;
#177 =( NAMED_UNIT ( * ) SI_UNIT ( $, .STERADIAN. ) SOLID_ANGLE_UNIT ( ) );
#178 = PRESENTATION_STYLE_ASSIGNMENT (( #503 ) ) ;
#179 = CARTESIAN_POINT ( 'NONE',  ( 1.347043950347265318, 4.286263797015737088E-16, -3.500000000000000444 ) ) ;
#180 = ORIENTED_EDGE ( 'NONE', *, *, #562, .F. ) ;
#181 = CARTESIAN_POINT ( 'NONE',  ( 0.000000000000000000, 0.4349999999999932254, 1.960000000000001741 ) ) ;
#182 = VECTOR ( 'NONE', #580, 1000.000000000000000 ) ;
#183 = AXIS2_PLACEMENT_3D ( 'NONE', #813, #32, #353 ) ;
#184 = DIRECTION ( 'NONE',  ( -0.7456662065614396706, 0.6663196743247736809, 0.000000000000000000 ) ) ;
#185 = STYLED_ITEM ( 'NONE', ( #316 ), #271 ) ;
#186 = VERTEX_POINT ( 'NONE', #246 ) ;
#187 = SURFACE_STYLE_USAGE ( .BOTH. , #518 ) ;
#188 = DIRECTION ( 'NONE',  ( 0.6663196743247735698, 0.7456662065614397816, 0.000000000000000000 ) ) ;
#189 = EDGE_CURVE ( 'NONE', #382, #144, #856, .T. ) ;
#190 = DIRECTION ( 'NONE',  ( 1.000000000000000000, 0.000000000000000000, 0.000000000000000000 ) ) ;
#191 = ORIENTED_EDGE ( 'NONE', *, *, #189, .F. ) ;
#192 = FILL_AREA_STYLE_COLOUR ( '', #94 ) ;
#193 = LINE ( 'NONE', #990, #182 ) ;
#194 = EDGE_LOOP ( 'NONE', ( #895, #457, #66, #517, #387 ) ) ;
#195 =( NAMED_UNIT ( * ) SI_UNIT ( $, .STERADIAN. ) SOLID_ANGLE_UNIT ( ) );
#196 = DIRECTION ( 'NONE',  ( -0.1108510534444137469, 2.096348086633972484E-17, 0.9938370308809506559 ) ) ;
#197 = PRESENTATION_LAYER_ASSIGNMENT (  '', '', ( #257 ) ) ;
#198 = CARTESIAN_POINT ( 'NONE',  ( 4.309938594911940868, -6.606512545546451519E-15, 1.891316923914901693 ) ) ;
#199 =( GEOMETRIC_REPRESENTATION_CONTEXT ( 3 ) GLOBAL_UNCERTAINTY_ASSIGNED_CONTEXT ( ( #369 ) ) GLOBAL_UNIT_ASSIGNED_CONTEXT ( ( #696, #454, #617 ) ) REPRESENTATION_CONTEXT ( 'NONE', 'WORKASPACE' ) );
#200 = CIRCLE ( 'NONE', #183, 3.311827956989247479 ) ;
#201 = COLOUR_RGB ( '',0.7764705882352941346, 0.7568627450980391913, 0.7372549019607843590 ) ;
#202 = COLOUR_RGB ( '',0.7764705882352941346, 0.7568627450980391913, 0.7372549019607843590 ) ;
#203 = EDGE_LOOP ( 'NONE', ( #512, #762 ) ) ;
#204 = EDGE_CURVE ( 'NONE', #144, #799, #326, .T. ) ;
#205 = CARTESIAN_POINT ( 'NONE',  ( 2.214116351126373949, 0.1880408685282127790, -0.1880408685282121406 ) ) ;
#206 = DIRECTION ( 'NONE',  ( 0.7431005017819711789, 0.6640269868487613802, 0.08288428673721986994 ) ) ;
#207 =( NAMED_UNIT ( * ) PLANE_ANGLE_UNIT ( ) SI_UNIT ( $, .RADIAN. ) );
#208 = DIRECTION ( 'NONE',  ( -0.1108510534444137469, -0.9938370308809506559, -3.448999966305766196E-15 ) ) ;
#209 = VERTEX_POINT ( 'NONE', #564 ) ;
#210 = DIRECTION ( 'NONE',  ( -1.000000000000000000, -0.000000000000000000, -0.000000000000000000 ) ) ;
#211 = VERTEX_POINT ( 'NONE', #486 ) ;
#212 = FILL_AREA_STYLE_COLOUR ( '', #683 ) ;
#213 = DIRECTION ( 'NONE',  ( 0.9938370308809507669, -0.1108510534444137746, 0.000000000000000000 ) ) ;
#214 = EDGE_CURVE ( 'NONE', #352, #845, #1020, .T. ) ;
#215 = AXIS2_PLACEMENT_3D ( 'NONE', #417, #188, #910 ) ;
#216 = AXIS2_PLACEMENT_3D ( 'NONE', #746, #889, #22 ) ;
#217 = ORIENTED_EDGE ( 'NONE', *, *, #741, .T. ) ;
#218 = VECTOR ( 'NONE', #597, 1000.000000000000000 ) ;
#219 = AXIS2_PLACEMENT_3D ( 'NONE', #456, #628, #532 ) ;
#220 = CARTESIAN_POINT ( 'NONE',  ( 5.974195292295553905, -0.2313525518329657138, -8.028830871489587498E-16 ) ) ;
#221 = LINE ( 'NONE', #470, #289 ) ;
#222 = EDGE_CURVE ( 'NONE', #979, #400, #738, .T. ) ;
#223 = FILL_AREA_STYLE ('',( #711 ) ) ;
#224 = VERTEX_POINT ( 'NONE', #1025 ) ;
#225 = DIRECTION ( 'NONE',  ( 0.000000000000000000, 0.000000000000000000, -1.000000000000000000 ) ) ;
#226 = CARTESIAN_POINT ( 'NONE',  ( 0.9968214519863044520, -3.311827956989247035, -4.055819506853600563E-16 ) ) ;
#227 = UNCERTAINTY_MEASURE_WITH_UNIT (LENGTH_MEASURE( 1.000000000000000082E-05 ), #8, 'distance_accuracy_value', 'NONE');
#228 = CARTESIAN_POINT ( 'NONE',  ( 2.599999999999998312, 0.000000000000000000, 0.000000000000000000 ) ) ;
#229 = DIRECTION ( 'NONE',  ( 0.7431005017819711789, 0.08288428673721742745, 0.6640269868487616023 ) ) ;
#230 = DIRECTION ( 'NONE',  ( 0.9938370308809507669, -0.1108510534444137746, 0.000000000000000000 ) ) ;
#231 = VERTEX_POINT ( 'NONE', #4 ) ;
#232 =( NAMED_UNIT ( * ) PLANE_ANGLE_UNIT ( ) SI_UNIT ( $, .RADIAN. ) );
#233 = DIRECTION ( 'NONE',  ( -1.000000000000000000, 0.000000000000000000, -0.000000000000000000 ) ) ;
#234 = DIRECTION ( 'NONE',  ( -0.9938370308809507669, -0.1108510534444137052, 0.000000000000000000 ) ) ;
#235 = ORIENTED_EDGE ( 'NONE', *, *, #461, .F. ) ;
#236 = MECHANICAL_DESIGN_GEOMETRIC_PRESENTATION_REPRESENTATION (  '', ( #118 ), #199 ) ;
#237 = MECHANICAL_DESIGN_GEOMETRIC_PRESENTATION_REPRESENTATION (  '', ( #719 ), #340 ) ;
#238 = EDGE_CURVE ( 'NONE', #352, #432, #426, .T. ) ;
#239 =( NAMED_UNIT ( * ) SI_UNIT ( $, .STERADIAN. ) SOLID_ANGLE_UNIT ( ) );
#240 = STYLED_ITEM ( 'NONE', ( #178 ), #778 ) ;
#241 = SURFACE_STYLE_FILL_AREA ( #88 ) ;
#242 = SURFACE_SIDE_STYLE ('',( #565 ) ) ;
#243 = CARTESIAN_POINT ( 'NONE',  ( 0.03111693966988560850, 0.4315292644214372975, -0.4315292644214357431 ) ) ;
#244 = FACE_OUTER_BOUND ( 'NONE', #662, .T. ) ;
#245 = PRESENTATION_STYLE_ASSIGNMENT (( #842 ) ) ;
#246 = CARTESIAN_POINT ( 'NONE',  ( 0.9968214519863044520, 3.311827956989247479, 0.000000000000000000 ) ) ;
#247 = SURFACE_STYLE_USAGE ( .BOTH. , #965 ) ;
#248 = DIRECTION ( 'NONE',  ( -0.9938370308809507669, 0.000000000000000000, 0.1108510534444137052 ) ) ;
#249 = SURFACE_STYLE_USAGE ( .BOTH. , #155 ) ;
#250 = EDGE_CURVE ( 'NONE', #555, #21, #488, .T. ) ;
#251 = PRESENTATION_STYLE_ASSIGNMENT (( #247 ) ) ;
#252 = AXIS2_PLACEMENT_3D ( 'NONE', #220, #208, #213 ) ;
#253 = CARTESIAN_POINT ( 'NONE',  ( 0.03111693966988647586, 0.4315292644214342443, 0.4315292644214356321 ) ) ;
#254 = MECHANICAL_DESIGN_GEOMETRIC_PRESENTATION_REPRESENTATION (  '', ( #770 ), #791 ) ;
#255 = PRESENTATION_LAYER_ASSIGNMENT (  '', '', ( #853 ) ) ;
#256 =( GEOMETRIC_REPRESENTATION_CONTEXT ( 3 ) GLOBAL_UNCERTAINTY_ASSIGNED_CONTEXT ( ( #865 ) ) GLOBAL_UNIT_ASSIGNED_CONTEXT ( ( #816, #730, #162 ) ) REPRESENTATION_CONTEXT ( 'NONE', 'WORKASPACE' ) );
#257 = STYLED_ITEM ( 'NONE', ( #355 ), #75 ) ;
#258 = PLANE ( 'NONE',  #887 ) ;
#259 = STYLED_ITEM ( 'NONE', ( #937 ), #968 ) ;
#260 = EDGE_CURVE ( 'NONE', #211, #224, #79, .T. ) ;
#261 = CARTESIAN_POINT ( 'NONE',  ( 0.9968214519863044520, 0.000000000000000000, 3.311827956989247479 ) ) ;
#262 = EDGE_LOOP ( 'NONE', ( #835, #588, #945 ) ) ;
#263 =( LENGTH_UNIT ( ) NAMED_UNIT ( * ) SI_UNIT ( .MILLI., .METRE. ) );
#264 = ORIENTED_EDGE ( 'NONE', *, *, #891, .F. ) ;
#265 = DIRECTION ( 'NONE',  ( 0.000000000000000000, 0.000000000000000000, 1.000000000000000000 ) ) ;
#266 = CARTESIAN_POINT ( 'NONE',  ( 2.599999999999998312, 0.000000000000000000, 1.749999999999999778 ) ) ;
#267 = DIRECTION ( 'NONE',  ( 0.6663196743247736809, 2.696405268330496226E-15, -0.7456662065614397816 ) ) ;
#268 = ORIENTED_EDGE ( 'NONE', *, *, #303, .T. ) ;
#269 = DIRECTION ( 'NONE',  ( 0.000000000000000000, 0.000000000000000000, 1.000000000000000000 ) ) ;
#270 = PRODUCT_DEFINITION_CONTEXT ( 'detailed design', #419, 'design' ) ;
#271 = ADVANCED_FACE ( 'NONE', ( #556 ), #872, .T. ) ;
#272 =( LENGTH_UNIT ( ) NAMED_UNIT ( * ) SI_UNIT ( .MILLI., .METRE. ) );
#273 = MECHANICAL_DESIGN_GEOMETRIC_PRESENTATION_REPRESENTATION (  '', ( #767 ), #168 ) ;
#274 = AXIS2_PLACEMENT_3D ( 'NONE', #736, #421, #664 ) ;
#275 = AXIS2_PLACEMENT_3D ( 'NONE', #87, #570, #321 ) ;
#276 = ORIENTED_EDGE ( 'NONE', *, *, #250, .F. ) ;
#277 =( NAMED_UNIT ( * ) PLANE_ANGLE_UNIT ( ) SI_UNIT ( $, .RADIAN. ) );
#278 = ORIENTED_EDGE ( 'NONE', *, *, #398, .F. ) ;
#279 = APPLICATION_PROTOCOL_DEFINITION ( 'draft international standard', 'automotive_design', 1998, #419 ) ;
#280 = SURFACE_STYLE_USAGE ( .BOTH. , #57 ) ;
#281 = SURFACE_STYLE_USAGE ( .BOTH. , #124 ) ;
#282 =( LENGTH_UNIT ( ) NAMED_UNIT ( * ) SI_UNIT ( .MILLI., .METRE. ) );
#283 = ADVANCED_FACE ( 'NONE', ( #170 ), #397, .F. ) ;
#284 = VERTEX_POINT ( 'NONE', #15 ) ;
#285 =( NAMED_UNIT ( * ) SI_UNIT ( $, .STERADIAN. ) SOLID_ANGLE_UNIT ( ) );
#286 = CYLINDRICAL_SURFACE ( 'NONE', #42, 3.500000000000000444 ) ;
#287 =( GEOMETRIC_REPRESENTATION_CONTEXT ( 3 ) GLOBAL_UNCERTAINTY_ASSIGNED_CONTEXT ( ( #843 ) ) GLOBAL_UNIT_ASSIGNED_CONTEXT ( ( #98, #405, #729 ) ) REPRESENTATION_CONTEXT ( 'NONE', 'WORKASPACE' ) );
#288 = PRESENTATION_LAYER_ASSIGNMENT (  '', '', ( #819 ) ) ;
#289 = VECTOR ( 'NONE', #229, 999.9999999999998863 ) ;
#290 = AXIS2_PLACEMENT_3D ( 'NONE', #721, #644, #248 ) ;
#291 = ORIENTED_EDGE ( 'NONE', *, *, #408, .F. ) ;
#292 =( GEOMETRIC_REPRESENTATION_CONTEXT ( 3 ) GLOBAL_UNCERTAINTY_ASSIGNED_CONTEXT ( ( #429 ) ) GLOBAL_UNIT_ASSIGNED_CONTEXT ( ( #966, #410, #156 ) ) REPRESENTATION_CONTEXT ( 'NONE', 'WORKASPACE' ) );
#293 = DIRECTION ( 'NONE',  ( -0.000000000000000000, 0.000000000000000000, -1.000000000000000000 ) ) ;
#294 = UNCERTAINTY_MEASURE_WITH_UNIT (LENGTH_MEASURE( 1.000000000000000082E-05 ), #344, 'distance_accuracy_value', 'NONE');
#295 =( NAMED_UNIT ( * ) PLANE_ANGLE_UNIT ( ) SI_UNIT ( $, .RADIAN. ) );
#296 = CARTESIAN_POINT ( 'NONE',  ( 1.347043950347265318, 0.000000000000000000, 0.000000000000000000 ) ) ;
#297 = ORIENTED_EDGE ( 'NONE', *, *, #568, .F. ) ;
#298 = SURFACE_STYLE_FILL_AREA ( #135 ) ;
#299 = DIRECTION ( 'NONE',  ( 0.000000000000000000, 0.000000000000000000, 1.000000000000000000 ) ) ;
#300 = DIRECTION ( 'NONE',  ( 0.000000000000000000, -1.246209393661499619E-16, 1.000000000000000000 ) ) ;
#301 = VERTEX_POINT ( 'NONE', #984 ) ;
#302 = DIRECTION ( 'NONE',  ( 0.9938370308809507669, 0.000000000000000000, 0.1108510534444137746 ) ) ;
#303 = EDGE_CURVE ( 'NONE', #127, #555, #193, .T. ) ;
#304 = FILL_AREA_STYLE ('',( #837 ) ) ;
#305 = AXIS2_PLACEMENT_3D ( 'NONE', #549, #386, #523 ) ;
#306 = EDGE_LOOP ( 'NONE', ( #631, #314, #920, #908 ) ) ;
#307 =( GEOMETRIC_REPRESENTATION_CONTEXT ( 3 ) GLOBAL_UNCERTAINTY_ASSIGNED_CONTEXT ( ( #389 ) ) GLOBAL_UNIT_ASSIGNED_CONTEXT ( ( #263, #881, #803 ) ) REPRESENTATION_CONTEXT ( 'NONE', 'WORKASPACE' ) );
#308 = VECTOR ( 'NONE', #880, 1000.000000000000000 ) ;
#309 = PRESENTATION_LAYER_ASSIGNMENT (  '', '', ( #593 ) ) ;
#310 = DIRECTION ( 'NONE',  ( 0.9938370308809506559, -0.1108510534444137469, -3.870343844922734420E-16 ) ) ;
#311 =( NAMED_UNIT ( * ) PLANE_ANGLE_UNIT ( ) SI_UNIT ( $, .RADIAN. ) );
#312 = DIRECTION ( 'NONE',  ( 0.000000000000000000, 1.000000000000000000, 6.231046968307495628E-17 ) ) ;
#313 = DIRECTION ( 'NONE',  ( 0.000000000000000000, 0.000000000000000000, 1.000000000000000000 ) ) ;
#314 = ORIENTED_EDGE ( 'NONE', *, *, #86, .T. ) ;
#315 = ORIENTED_EDGE ( 'NONE', *, *, #988, .T. ) ;
#316 = PRESENTATION_STYLE_ASSIGNMENT (( #496 ) ) ;
#317 = FACE_OUTER_BOUND ( 'NONE', #366, .T. ) ;
#318 = ADVANCED_FACE ( 'NONE', ( #175 ), #905, .T. ) ;
#319 = VERTEX_POINT ( 'NONE', #585 ) ;
#320 = DIRECTION ( 'NONE',  ( -1.000000000000000000, -0.000000000000000000, -0.000000000000000000 ) ) ;
#321 = DIRECTION ( 'NONE',  ( 0.000000000000000000, 0.000000000000000000, 1.000000000000000000 ) ) ;
#322 = SURFACE_STYLE_USAGE ( .BOTH. , #977 ) ;
#323 = PRESENTATION_STYLE_ASSIGNMENT (( #723 ) ) ;
#324 = MECHANICAL_DESIGN_GEOMETRIC_PRESENTATION_REPRESENTATION (  '', ( #1013 ), #77 ) ;
#325 = MECHANICAL_DESIGN_GEOMETRIC_PRESENTATION_REPRESENTATION (  '', ( #95 ), #623 ) ;
#326 = LINE ( 'NONE', #967, #358 ) ;
#327 = CARTESIAN_POINT ( 'NONE',  ( 1.347043950347265318, 0.000000000000000000, 3.500000000000000444 ) ) ;
#328 = CARTESIAN_POINT ( 'NONE',  ( 1.949999999999999956, 0.2175000000000007205, -0.2174999999999992772 ) ) ;
#329 = CARTESIAN_POINT ( 'NONE',  ( 2.600000000000000089, 1.749999999999999778, 0.000000000000000000 ) ) ;
#330 = PLANE ( 'NONE',  #703 ) ;
#331 = CARTESIAN_POINT ( 'NONE',  ( 1.347043950347263763, 3.771912141373848894E-16, -3.080000000000000515 ) ) ;
#332 = CARTESIAN_POINT ( 'NONE',  ( 1.949999999999999956, 0.2174999999999999989, 0.2174999999999999711 ) ) ;
#333 = EDGE_CURVE ( 'NONE', #555, #471, #513, .T. ) ;
#334 = FACE_OUTER_BOUND ( 'NONE', #997, .T. ) ;
#335 = PRESENTATION_STYLE_ASSIGNMENT (( #322 ) ) ;
#336 = STYLED_ITEM ( 'NONE', ( #759 ), #415 ) ;
#337 = EDGE_LOOP ( 'NONE', ( #616, #658, #989 ) ) ;
#338 = DIRECTION ( 'NONE',  ( 0.000000000000000000, -1.224646799147354193E-16, 1.000000000000000000 ) ) ;
#339 = AXIS2_PLACEMENT_3D ( 'NONE', #914, #936, #68 ) ;
#340 =( GEOMETRIC_REPRESENTATION_CONTEXT ( 3 ) GLOBAL_UNCERTAINTY_ASSIGNED_CONTEXT ( ( #854 ) ) GLOBAL_UNIT_ASSIGNED_CONTEXT ( ( #785, #232, #645 ) ) REPRESENTATION_CONTEXT ( 'NONE', 'WORKASPACE' ) );
#341 = SURFACE_SIDE_STYLE ('',( #23 ) ) ;
#342 = AXIS2_PLACEMENT_3D ( 'NONE', #693, #151, #848 ) ;
#343 = MECHANICAL_DESIGN_GEOMETRIC_PRESENTATION_REPRESENTATION (  '', ( #573 ), #699 ) ;
#344 =( LENGTH_UNIT ( ) NAMED_UNIT ( * ) SI_UNIT ( .MILLI., .METRE. ) );
#345 = FILL_AREA_STYLE ('',( #578 ) ) ;
#346 = CYLINDRICAL_SURFACE ( 'NONE', #274, 1.749999999999999778 ) ;
#347 = CARTESIAN_POINT ( 'NONE',  ( 5.974195292295553905, 2.619630734554813543E-16, -0.2313525518329656583 ) ) ;
#348 = EDGE_CURVE ( 'NONE', #121, #555, #897, .T. ) ;
#349 = ORIENTED_EDGE ( 'NONE', *, *, #67, .T. ) ;
#350 = SURFACE_STYLE_FILL_AREA ( #499 ) ;
#351 = DIRECTION ( 'NONE',  ( -0.1108510534444136914, 0.9938370308809506559, 3.595744332370143179E-15 ) ) ;
#352 = VERTEX_POINT ( 'NONE', #111 ) ;
#353 = DIRECTION ( 'NONE',  ( 0.000000000000000000, 0.000000000000000000, 1.000000000000000000 ) ) ;
#354 = COLOUR_RGB ( '',0.7764705882352941346, 0.7568627450980391913, 0.7372549019607843590 ) ;
#355 = PRESENTATION_STYLE_ASSIGNMENT (( #710 ) ) ;
#356 =( LENGTH_UNIT ( ) NAMED_UNIT ( * ) SI_UNIT ( .MILLI., .METRE. ) );
#357 = AXIS2_PLACEMENT_3D ( 'NONE', #527, #586, #184 ) ;
#358 = VECTOR ( 'NONE', #714, 1000.000000000000000 ) ;
#359 = AXIS2_PLACEMENT_3D ( 'NONE', #626, #947, #995 ) ;
#360 = ORIENTED_EDGE ( 'NONE', *, *, #812, .F. ) ;
#361 = CARTESIAN_POINT ( 'NONE',  ( 2.193400286944045430, -4.336808689942017736E-16, -0.1903515064562410486 ) ) ;
#362 = SURFACE_STYLE_FILL_AREA ( #659 ) ;
#363 = SURFACE_STYLE_USAGE ( .BOTH. , #44 ) ;
#364 = ADVANCED_FACE ( 'NONE', ( #433 ), #900, .T. ) ;
#365 = SURFACE_SIDE_STYLE ('',( #108 ) ) ;
#366 = EDGE_LOOP ( 'NONE', ( #841, #467, #1018, #632 ) ) ;
#367 = PRESENTATION_STYLE_ASSIGNMENT (( #46 ) ) ;
#368 = SURFACE_STYLE_FILL_AREA ( #535 ) ;
#369 = UNCERTAINTY_MEASURE_WITH_UNIT (LENGTH_MEASURE( 1.000000000000000082E-05 ), #696, 'distance_accuracy_value', 'NONE');
#370 =( NAMED_UNIT ( * ) SI_UNIT ( $, .STERADIAN. ) SOLID_ANGLE_UNIT ( ) );
#371 = ORIENTED_EDGE ( 'NONE', *, *, #521, .T. ) ;
#372 = SURFACE_STYLE_USAGE ( .BOTH. , #134 ) ;
#373 =( GEOMETRIC_REPRESENTATION_CONTEXT ( 3 ) GLOBAL_UNCERTAINTY_ASSIGNED_CONTEXT ( ( #614 ) ) GLOBAL_UNIT_ASSIGNED_CONTEXT ( ( #776, #690, #285 ) ) REPRESENTATION_CONTEXT ( 'NONE', 'WORKASPACE' ) );
#374 = LINE ( 'NONE', #680, #923 ) ;
#375 =( GEOMETRIC_REPRESENTATION_CONTEXT ( 3 ) GLOBAL_UNCERTAINTY_ASSIGNED_CONTEXT ( ( #65 ) ) GLOBAL_UNIT_ASSIGNED_CONTEXT ( ( #694, #1022, #447 ) ) REPRESENTATION_CONTEXT ( 'NONE', 'WORKASPACE' ) );
#376 = CIRCLE ( 'NONE', #357, 5.437518987584765817 ) ;
#377 = ADVANCED_FACE ( 'NONE', ( #987 ), #2, .T. ) ;
#378 =( GEOMETRIC_REPRESENTATION_CONTEXT ( 3 ) GLOBAL_UNCERTAINTY_ASSIGNED_CONTEXT ( ( #27 ) ) GLOBAL_UNIT_ASSIGNED_CONTEXT ( ( #584, #107, #422 ) ) REPRESENTATION_CONTEXT ( 'NONE', 'WORKASPACE' ) );
#379 = ORIENTED_EDGE ( 'NONE', *, *, #885, .T. ) ;
#380 = FACE_OUTER_BOUND ( 'NONE', #766, .T. ) ;
#381 = PRESENTATION_STYLE_ASSIGNMENT (( #390 ) ) ;
#382 = VERTEX_POINT ( 'NONE', #600 ) ;
#383 = EDGE_CURVE ( 'NONE', #121, #319, #788, .T. ) ;
#384 = CARTESIAN_POINT ( 'NONE',  ( 1.949999999999999956, 0.2174999999999999989, 0.2174999999999999711 ) ) ;
#385 = CARTESIAN_POINT ( 'NONE',  ( 5.974195292295553905, 2.375629221075779134E-16, 0.2313525518329657416 ) ) ;
#386 = DIRECTION ( 'NONE',  ( -0.1108510534444137469, 2.096348086633972484E-17, 0.9938370308809506559 ) ) ;
#387 = ORIENTED_EDGE ( 'NONE', *, *, #490, .F. ) ;
#388 = CARTESIAN_POINT ( 'NONE',  ( 0.000000000000000000, -1.959999999999999964, -0.4349999999999999978 ) ) ;
#389 = UNCERTAINTY_MEASURE_WITH_UNIT (LENGTH_MEASURE( 1.000000000000000082E-05 ), #263, 'distance_accuracy_value', 'NONE');
#390 = SURFACE_STYLE_USAGE ( .BOTH. , #59 ) ;
#391 = COLOUR_RGB ( '',0.7764705882352941346, 0.7568627450980391913, 0.7372549019607843590 ) ;
#392 = AXIS2_PLACEMENT_3D ( 'NONE', #449, #547, #145 ) ;
#393 = ORIENTED_EDGE ( 'NONE', *, *, #504, .F. ) ;
#394 = COLOUR_RGB ( '',0.7764705882352941346, 0.7568627450980391913, 0.7372549019607843590 ) ;
#395 = AXIS2_PLACEMENT_3D ( 'NONE', #228, #210, #299 ) ;
#396 =( NAMED_UNIT ( * ) PLANE_ANGLE_UNIT ( ) SI_UNIT ( $, .RADIAN. ) );
#397 = PLANE ( 'NONE',  #215 ) ;
#398 = EDGE_CURVE ( 'NONE', #400, #231, #613, .T. ) ;
#399 =( NAMED_UNIT ( * ) SI_UNIT ( $, .STERADIAN. ) SOLID_ANGLE_UNIT ( ) );
#400 = VERTEX_POINT ( 'NONE', #539 ) ;
#401 = UNCERTAINTY_MEASURE_WITH_UNIT (LENGTH_MEASURE( 1.000000000000000082E-05 ), #466, 'distance_accuracy_value', 'NONE');
#402 = CARTESIAN_POINT ( 'NONE',  ( 2.599999999999998312, 0.000000000000000000, 0.000000000000000000 ) ) ;
#403 = FACE_OUTER_BOUND ( 'NONE', #986, .T. ) ;
#404 = CYLINDRICAL_SURFACE ( 'NONE', #852, 1.749999999999999778 ) ;
#405 =( NAMED_UNIT ( * ) PLANE_ANGLE_UNIT ( ) SI_UNIT ( $, .RADIAN. ) );
#406 = CARTESIAN_POINT ( 'NONE',  ( 0.000000000000000000, -0.4350000000000069367, 1.959999999999998188 ) ) ;
#407 = MECHANICAL_DESIGN_GEOMETRIC_PRESENTATION_REPRESENTATION (  '', ( #667 ), #102 ) ;
#408 = EDGE_CURVE ( 'NONE', #555, #224, #678, .T. ) ;
#409 = SURFACE_SIDE_STYLE ('',( #1 ) ) ;
#410 =( NAMED_UNIT ( * ) PLANE_ANGLE_UNIT ( ) SI_UNIT ( $, .RADIAN. ) );
#411 = PRESENTATION_LAYER_ASSIGNMENT (  '', '', ( #424 ) ) ;
#412 =( GEOMETRIC_REPRESENTATION_CONTEXT ( 3 ) GLOBAL_UNCERTAINTY_ASSIGNED_CONTEXT ( ( #782 ) ) GLOBAL_UNIT_ASSIGNED_CONTEXT ( ( #641, #806, #566 ) ) REPRESENTATION_CONTEXT ( 'NONE', 'WORKASPACE' ) );
#413 = VECTOR ( 'NONE', #1012, 1000.000000000000000 ) ;
#414 =( NAMED_UNIT ( * ) PLANE_ANGLE_UNIT ( ) SI_UNIT ( $, .RADIAN. ) );
#415 = ADVANCED_FACE ( 'NONE', ( #380 ), #850, .T. ) ;
#416 = CARTESIAN_POINT ( 'NONE',  ( -25.39999999999996305, 0.000000000000000000, 0.000000000000000000 ) ) ;
#417 = CARTESIAN_POINT ( 'NONE',  ( 1.949999999999999956, 0.2174999999999999989, 0.2174999999999999156 ) ) ;
#418 = ADVANCED_FACE ( 'NONE', ( #244 ), #404, .T. ) ;
#419 = APPLICATION_CONTEXT ( 'automotive_design' ) ;
#420 = PRESENTATION_LAYER_ASSIGNMENT (  '', '', ( #118 ) ) ;
#421 = DIRECTION ( 'NONE',  ( -1.000000000000000000, -0.000000000000000000, -0.000000000000000000 ) ) ;
#422 =( NAMED_UNIT ( * ) SI_UNIT ( $, .STERADIAN. ) SOLID_ANGLE_UNIT ( ) );
#423 = MECHANICAL_DESIGN_GEOMETRIC_PRESENTATION_REPRESENTATION (  '', ( #459 ), #526 ) ;
#424 = STYLED_ITEM ( 'NONE', ( #251 ), #698 ) ;
#425 = AXIS2_PLACEMENT_3D ( 'NONE', #596, #196, #660 ) ;
#426 = CIRCLE ( 'NONE', #1009, 1.749999999999999778 ) ;
#427 = ADVANCED_FACE ( 'NONE', ( #946 ), #809, .T. ) ;
#428 = ORIENTED_EDGE ( 'NONE', *, *, #222, .T. ) ;
#429 = UNCERTAINTY_MEASURE_WITH_UNIT (LENGTH_MEASURE( 1.000000000000000082E-05 ), #966, 'distance_accuracy_value', 'NONE');
#430 =( NAMED_UNIT ( * ) SI_UNIT ( $, .STERADIAN. ) SOLID_ANGLE_UNIT ( ) );
#431 = FACE_OUTER_BOUND ( 'NONE', #877, .T. ) ;
#432 = VERTEX_POINT ( 'NONE', #625 ) ;
#433 = FACE_OUTER_BOUND ( 'NONE', #194, .T. ) ;
#434 = CARTESIAN_POINT ( 'NONE',  ( 0.9968214519863044520, 0.000000000000000000, 0.000000000000000000 ) ) ;
#435 = SURFACE_STYLE_FILL_AREA ( #113 ) ;
#436 = PRODUCT_DEFINITION_SHAPE ( 'NONE', 'NONE',  #876 ) ;
#437 = ORIENTED_EDGE ( 'NONE', *, *, #870, .F. ) ;
#438 = ADVANCED_FACE ( 'NONE', ( #727 ), #346, .T. ) ;
#439 = SURFACE_STYLE_FILL_AREA ( #557 ) ;
#440 = FILL_AREA_STYLE ('',( #117 ) ) ;
#441 =( GEOMETRIC_REPRESENTATION_CONTEXT ( 3 ) GLOBAL_UNCERTAINTY_ASSIGNED_CONTEXT ( ( #916 ) ) GLOBAL_UNIT_ASSIGNED_CONTEXT ( ( #500, #525, #195 ) ) REPRESENTATION_CONTEXT ( 'NONE', 'WORKASPACE' ) );
#442 = PRESENTATION_LAYER_ASSIGNMENT (  '', '', ( #605 ) ) ;
#443 = CARTESIAN_POINT ( 'NONE',  ( 2.193400286944045430, 0.1903515064562410486, 2.309278636184420884E-16 ) ) ;
#444 = CIRCLE ( 'NONE', #622, 5.995482475482741158 ) ;
#445 = CIRCLE ( 'NONE', #161, 3.311827956989247479 ) ;
#446 = ORIENTED_EDGE ( 'NONE', *, *, #562, .T. ) ;
#447 =( NAMED_UNIT ( * ) SI_UNIT ( $, .STERADIAN. ) SOLID_ANGLE_UNIT ( ) );
#448 = EDGE_CURVE ( 'NONE', #799, #139, #493, .T. ) ;
#449 = CARTESIAN_POINT ( 'NONE',  ( 1.347043950347263763, 0.000000000000000000, 0.000000000000000000 ) ) ;
#450 = DIRECTION ( 'NONE',  ( 0.000000000000000000, 0.000000000000000000, 1.000000000000000000 ) ) ;
#451 =( NAMED_UNIT ( * ) PLANE_ANGLE_UNIT ( ) SI_UNIT ( $, .RADIAN. ) );
#452 = ORIENTED_EDGE ( 'NONE', *, *, #123, .T. ) ;
#453 =( NAMED_UNIT ( * ) PLANE_ANGLE_UNIT ( ) SI_UNIT ( $, .RADIAN. ) );
#454 =( NAMED_UNIT ( * ) PLANE_ANGLE_UNIT ( ) SI_UNIT ( $, .RADIAN. ) );
#455 = CARTESIAN_POINT ( 'NONE',  ( 6.000000000000000000, 2.326828918379972351E-16, 0.000000000000000000 ) ) ;
#456 = CARTESIAN_POINT ( 'NONE',  ( 1.949999999999999956, 0.2174999999999999989, -0.2174999999999999711 ) ) ;
#457 = ORIENTED_EDGE ( 'NONE', *, *, #663, .T. ) ;
#458 = FILL_AREA_STYLE ('',( #131 ) ) ;
#459 = STYLED_ITEM ( 'NONE', ( #743 ), #438 ) ;
#460 = CLOSED_SHELL ( 'NONE', ( #377, #1015, #438, #968, #824, #498, #896, #669, #271, #418, #148, #318, #364, #415, #283, #978, #97, #43, #780, #427, #629, #75, #698 ) ) ;
#461 = EDGE_CURVE ( 'NONE', #674, #26, #138, .T. ) ;
#462 = CIRCLE ( 'NONE', #576, 5.995482475482741158 ) ;
#463 = MECHANICAL_DESIGN_GEOMETRIC_PRESENTATION_REPRESENTATION (  '', ( #96 ), #577 ) ;
#464 = ORIENTED_EDGE ( 'NONE', *, *, #472, .T. ) ;
#465 = UNCERTAINTY_MEASURE_WITH_UNIT (LENGTH_MEASURE( 1.000000000000000082E-05 ), #11, 'distance_accuracy_value', 'NONE');
#466 =( LENGTH_UNIT ( ) NAMED_UNIT ( * ) SI_UNIT ( .MILLI., .METRE. ) );
#467 = ORIENTED_EDGE ( 'NONE', *, *, #408, .T. ) ;
#468 = FILL_AREA_STYLE ('',( #212 ) ) ;
#469 =( NAMED_UNIT ( * ) SI_UNIT ( $, .STERADIAN. ) SOLID_ANGLE_UNIT ( ) );
#470 = CARTESIAN_POINT ( 'NONE',  ( 0.000000000000000000, -0.4349999999999927813, -1.960000000000001741 ) ) ;
#471 = VERTEX_POINT ( 'NONE', #253 ) ;
#472 = EDGE_CURVE ( 'NONE', #144, #382, #804, .T. ) ;
#473 = FILL_AREA_STYLE ('',( #635 ) ) ;
#474 = UNCERTAINTY_MEASURE_WITH_UNIT (LENGTH_MEASURE( 1.000000000000000082E-05 ), #282, 'distance_accuracy_value', 'NONE');
#475 = FILL_AREA_STYLE ('',( #150 ) ) ;
#476 = LINE ( 'NONE', #790, #510 ) ;
#477 = CARTESIAN_POINT ( 'NONE',  ( 1.949999999999999956, 0.2175000000000001377, 0.2174999999999999711 ) ) ;
#478 = VECTOR ( 'NONE', #51, 1000.000000000000114 ) ;
#479 = CIRCLE ( 'NONE', #305, 5.995482475482740270 ) ;
#480 = DIRECTION ( 'NONE',  ( -0.9877866216249070463, -0.1101762001043161271, -0.1101762001043165851 ) ) ;
#481 = AXIS2_PLACEMENT_3D ( 'NONE', #520, #981, #103 ) ;
#482 = PRESENTATION_LAYER_ASSIGNMENT (  '', '', ( #96 ) ) ;
#483 = SURFACE_SIDE_STYLE ('',( #954 ) ) ;
#484 = DIRECTION ( 'NONE',  ( 1.000000000000000000, 0.000000000000000000, 0.000000000000000000 ) ) ;
#485 = ORIENTED_EDGE ( 'NONE', *, *, #260, .F. ) ;
#486 = CARTESIAN_POINT ( 'NONE',  ( 0.2666411873824114376, -1.721732169736485796, 0.4052592521765768785 ) ) ;
#487 = PRESENTATION_STYLE_ASSIGNMENT (( #164 ) ) ;
#488 = LINE ( 'NONE', #332, #970 ) ;
#489 = DIRECTION ( 'NONE',  ( -0.1108510534444136914, 1.257808851980383614E-16, -0.9938370308809506559 ) ) ;
#490 = EDGE_CURVE ( 'NONE', #139, #1005, #200, .T. ) ;
#491 = SURFACE_STYLE_FILL_AREA ( #345 ) ;
#492 = AXIS2_PLACEMENT_3D ( 'NONE', #666, #509, #265 ) ;
#493 = CIRCLE ( 'NONE', #74, 0.4199999999999998179 ) ;
#494 = PRESENTATION_LAYER_ASSIGNMENT (  '', '', ( #960 ) ) ;
#495 = MECHANICAL_DESIGN_GEOMETRIC_PRESENTATION_REPRESENTATION (  '', ( #529 ), #292 ) ;
#496 = SURFACE_STYLE_USAGE ( .BOTH. , #789 ) ;
#497 = PLANE ( 'NONE',  #902 ) ;
#498 = ADVANCED_FACE ( 'NONE', ( #944 ), #1007, .T. ) ;
#499 = FILL_AREA_STYLE ('',( #192 ) ) ;
#500 =( LENGTH_UNIT ( ) NAMED_UNIT ( * ) SI_UNIT ( .MILLI., .METRE. ) );
#501 = FILL_AREA_STYLE ('',( #726 ) ) ;
#502 = ORIENTED_EDGE ( 'NONE', *, *, #222, .F. ) ;
#503 = SURFACE_STYLE_USAGE ( .BOTH. , #665 ) ;
#504 = EDGE_CURVE ( 'NONE', #930, #400, #479, .T. ) ;
#505 = DIRECTION ( 'NONE',  ( -0.1108510534444137469, -0.9938370308809506559, -3.448999966305766196E-15 ) ) ;
#506 = AXIS2_PLACEMENT_3D ( 'NONE', #571, #866, #797 ) ;
#507 = ORIENTED_EDGE ( 'NONE', *, *, #521, .F. ) ;
#508 = DIRECTION ( 'NONE',  ( 0.000000000000000000, 0.000000000000000000, 1.000000000000000000 ) ) ;
#509 = DIRECTION ( 'NONE',  ( -1.000000000000000000, -0.000000000000000000, -0.000000000000000000 ) ) ;
#510 = VECTOR ( 'NONE', #300, 1000.000000000000000 ) ;
#511 = FACE_OUTER_BOUND ( 'NONE', #262, .T. ) ;
#512 = ORIENTED_EDGE ( 'NONE', *, *, #89, .T. ) ;
#513 = LINE ( 'NONE', #823, #603 ) ;
#514 = FILL_AREA_STYLE_COLOUR ( '', #171 ) ;
#515 = DIRECTION ( 'NONE',  ( -0.1108510534444136914, 0.9938370308809506559, 3.595744332370143968E-15 ) ) ;
#516 = MANIFOLD_SOLID_BREP ( 'Move Face1', #460 ) ;
#517 = ORIENTED_EDGE ( 'NONE', *, *, #950, .F. ) ;
#518 = SURFACE_SIDE_STYLE ('',( #350 ) ) ;
#519 = DIRECTION ( 'NONE',  ( -0.9877866216249070463, 0.1101762001043161965, 0.1101762001043165434 ) ) ;
#520 = CARTESIAN_POINT ( 'NONE',  ( 2.193400286944045430, -0.1903515064562409931, -2.309278636184418912E-16 ) ) ;
#521 = EDGE_CURVE ( 'NONE', #14, #700, #119, .T. ) ;
#522 = EDGE_LOOP ( 'NONE', ( #191, #689 ) ) ;
#523 = DIRECTION ( 'NONE',  ( 0.9938370308809507669, 0.000000000000000000, 0.1108510534444137746 ) ) ;
#524 = CIRCLE ( 'NONE', #290, 5.995482475482741158 ) ;
#525 =( NAMED_UNIT ( * ) PLANE_ANGLE_UNIT ( ) SI_UNIT ( $, .RADIAN. ) );
#526 =( GEOMETRIC_REPRESENTATION_CONTEXT ( 3 ) GLOBAL_UNCERTAINTY_ASSIGNED_CONTEXT ( ( #465 ) ) GLOBAL_UNIT_ASSIGNED_CONTEXT ( ( #11, #821, #177 ) ) REPRESENTATION_CONTEXT ( 'NONE', 'WORKASPACE' ) );
#527 = CARTESIAN_POINT ( 'NONE',  ( 4.309938594911940868, -1.891316923914901471, 0.000000000000000000 ) ) ;
#528 = CIRCLE ( 'NONE', #395, 1.749999999999999778 ) ;
#529 = STYLED_ITEM ( 'NONE', ( #245 ), #1015 ) ;
#530 = ORIENTED_EDGE ( 'NONE', *, *, #260, .T. ) ;
#531 = SURFACE_SIDE_STYLE ('',( #924 ) ) ;
#532 = DIRECTION ( 'NONE',  ( 0.000000000000000000, 0.000000000000000000, 1.000000000000000000 ) ) ;
#533 = ORIENTED_EDGE ( 'NONE', *, *, #204, .T. ) ;
#534 = FILL_AREA_STYLE ('',( #768 ) ) ;
#535 = FILL_AREA_STYLE ('',( #764 ) ) ;
#536 = CARTESIAN_POINT ( 'NONE',  ( 2.599999999999998312, 4.286263797015736595E-16, -3.500000000000000000 ) ) ;
#537 = DIRECTION ( 'NONE',  ( 0.7456662065614396706, 0.6663196743247736809, 0.000000000000000000 ) ) ;
#538 = ORIENTED_EDGE ( 'NONE', *, *, #250, .T. ) ;
#539 = CARTESIAN_POINT ( 'NONE',  ( 0.2666411873824114376, -1.721732169736485796, -0.4052592521765772116 ) ) ;
#540 = DIRECTION ( 'NONE',  ( 0.6663196743247735698, -0.7456662065614397816, -9.292562311528023527E-17 ) ) ;
#541 = COLOUR_RGB ( '',0.7764705882352941346, 0.7568627450980391913, 0.7372549019607843590 ) ;
#542 = CARTESIAN_POINT ( 'NONE',  ( 0.2666411873824114376, 0.4052592521765713274, 1.721732169736487794 ) ) ;
#543 = PLANE ( 'NONE',  #425 ) ;
#544 = AXIS2_PLACEMENT_3D ( 'NONE', #1011, #561, #310 ) ;
#545 = MECHANICAL_DESIGN_GEOMETRIC_PRESENTATION_REPRESENTATION (  '', ( #639 ), #307 ) ;
#546 = ORIENTED_EDGE ( 'NONE', *, *, #568, .T. ) ;
#547 = DIRECTION ( 'NONE',  ( -1.000000000000000000, -0.000000000000000000, -0.000000000000000000 ) ) ;
#548 = FACE_OUTER_BOUND ( 'NONE', #602, .T. ) ;
#549 = CARTESIAN_POINT ( 'NONE',  ( 5.974195292295553905, 2.375629221075779134E-16, 0.2313525518329657416 ) ) ;
#550 = ORIENTED_EDGE ( 'NONE', *, *, #885, .F. ) ;
#551 = FILL_AREA_STYLE ('',( #149 ) ) ;
#552 = FILL_AREA_STYLE_COLOUR ( '', #686 ) ;
#553 = SURFACE_STYLE_FILL_AREA ( #70 ) ;
#554 = CARTESIAN_POINT ( 'NONE',  ( 4.309938594911940868, 1.891316923914901471, 2.356976916973721757E-16 ) ) ;
#555 = VERTEX_POINT ( 'NONE', #477 ) ;
#556 = FACE_OUTER_BOUND ( 'NONE', #849, .T. ) ;
#557 = FILL_AREA_STYLE ('',( #633 ) ) ;
#558 = COLOUR_RGB ( '',0.7764705882352941346, 0.7568627450980391913, 0.7372549019607843590 ) ;
#559 = MECHANICAL_DESIGN_GEOMETRIC_PRESENTATION_REPRESENTATION (  '', ( #590 ), #653 ) ;
#560 = CIRCLE ( 'NONE', #20, 5.995482475482740270 ) ;
#561 = DIRECTION ( 'NONE',  ( -0.1108510534444137469, -0.9938370308809506559, -3.448999966305766196E-15 ) ) ;
#562 = EDGE_CURVE ( 'NONE', #284, #127, #973, .T. ) ;
#563 = EDGE_LOOP ( 'NONE', ( #859, #276, #869, #180, #817 ) ) ;
#564 = CARTESIAN_POINT ( 'NONE',  ( 0.03111693966988560850, -0.4315292644214371864, 0.4315292644214354101 ) ) ;
#565 = SURFACE_STYLE_FILL_AREA ( #501 ) ;
#566 =( NAMED_UNIT ( * ) SI_UNIT ( $, .STERADIAN. ) SOLID_ANGLE_UNIT ( ) );
#567 = DIRECTION ( 'NONE',  ( 0.9877866216249069353, 0.1101762001043169042, -0.1101762001043164879 ) ) ;
#568 = EDGE_CURVE ( 'NONE', #14, #21, #82, .T. ) ;
#569 = FILL_AREA_STYLE ('',( #961 ) ) ;
#570 = DIRECTION ( 'NONE',  ( -1.000000000000000000, -0.000000000000000000, -0.000000000000000000 ) ) ;
#571 = CARTESIAN_POINT ( 'NONE',  ( 2.193400286944045430, 4.336808689942017736E-16, 0.1903515064562409931 ) ) ;
#572 = CARTESIAN_POINT ( 'NONE',  ( 1.949999999999999956, -0.2175000000000006928, 0.2174999999999992495 ) ) ;
#573 = STYLED_ITEM ( 'NONE', ( #381 ), #148 ) ;
#574 = AXIS2_PLACEMENT_3D ( 'NONE', #928, #610, #52 ) ;
#575 = MECHANICAL_DESIGN_GEOMETRIC_PRESENTATION_REPRESENTATION (  '', ( #605 ), #996 ) ;
#576 = AXIS2_PLACEMENT_3D ( 'NONE', #882, #515, #234 ) ;
#577 =( GEOMETRIC_REPRESENTATION_CONTEXT ( 3 ) GLOBAL_UNCERTAINTY_ASSIGNED_CONTEXT ( ( #953 ) ) GLOBAL_UNIT_ASSIGNED_CONTEXT ( ( #58, #207, #129 ) ) REPRESENTATION_CONTEXT ( 'NONE', 'WORKASPACE' ) );
#578 = FILL_AREA_STYLE_COLOUR ( '', #589 ) ;
#579 = ORIENTED_EDGE ( 'NONE', *, *, #830, .F. ) ;
#580 = DIRECTION ( 'NONE',  ( 0.7431005017819711789, -0.6640269868487613802, -0.08288428673721992546 ) ) ;
#581 = CARTESIAN_POINT ( 'NONE',  ( -25.39999999999996305, 0.000000000000000000, 3.500000000000000444 ) ) ;
#582 =( LENGTH_UNIT ( ) NAMED_UNIT ( * ) SI_UNIT ( .MILLI., .METRE. ) );
#583 = EDGE_LOOP ( 'NONE', ( #624, #712, #927, #264, #235 ) ) ;
#584 =( LENGTH_UNIT ( ) NAMED_UNIT ( * ) SI_UNIT ( .MILLI., .METRE. ) );
#585 = CARTESIAN_POINT ( 'NONE',  ( 0.2666411873824114376, -0.4052592521765831513, 1.721732169736483131 ) ) ;
#586 = DIRECTION ( 'NONE',  ( 0.6663196743247736809, 0.7456662065614397816, 0.000000000000000000 ) ) ;
#587 = VECTOR ( 'NONE', #1002, 1000.000000000000000 ) ;
#588 = ORIENTED_EDGE ( 'NONE', *, *, #7, .F. ) ;
#589 = COLOUR_RGB ( '',0.7764705882352941346, 0.7568627450980391913, 0.7372549019607843590 ) ;
#590 = STYLED_ITEM ( 'NONE', ( #487 ), #669 ) ;
#591 =( NAMED_UNIT ( * ) SI_UNIT ( $, .STERADIAN. ) SOLID_ANGLE_UNIT ( ) );
#592 =( NAMED_UNIT ( * ) PLANE_ANGLE_UNIT ( ) SI_UNIT ( $, .RADIAN. ) );
#593 = STYLED_ITEM ( 'NONE', ( #24 ), #896 ) ;
#594 = PLANE ( 'NONE',  #481 ) ;
#595 = ORIENTED_EDGE ( 'NONE', *, *, #123, .F. ) ;
#596 = CARTESIAN_POINT ( 'NONE',  ( 2.193400286944045430, -4.336808689942017736E-16, -0.1903515064562410486 ) ) ;
#597 = DIRECTION ( 'NONE',  ( 0.7431005017819711789, -0.6640269868487613802, 0.08288428673721989770 ) ) ;
#598 = ORIENTED_EDGE ( 'NONE', *, *, #172, .T. ) ;
#599 = DIRECTION ( 'NONE',  ( -0.7456662065614396706, 0.6663196743247736809, 0.000000000000000000 ) ) ;
#600 = CARTESIAN_POINT ( 'NONE',  ( 2.599999999999998312, 0.000000000000000000, 3.500000000000000000 ) ) ;
#601 = SURFACE_SIDE_STYLE ('',( #435 ) ) ;
#602 = EDGE_LOOP ( 'NONE', ( #1008, #379, #291, #538 ) ) ;
#603 = VECTOR ( 'NONE', #519, 1000.000000000000000 ) ;
#604 = SURFACE_SIDE_STYLE ('',( #298 ) ) ;
#605 = STYLED_ITEM ( 'NONE', ( #763 ), #516 ) ;
#606 = AXIS2_PLACEMENT_3D ( 'NONE', #572, #10, #167 ) ;
#607 = CIRCLE ( 'NONE', #158, 3.500000000000000444 ) ;
#608 = VECTOR ( 'NONE', #567, 1000.000000000000114 ) ;
#609 = EDGE_LOOP ( 'NONE', ( #756, #533, #779, #634 ) ) ;
#610 = DIRECTION ( 'NONE',  ( -1.000000000000000000, -0.000000000000000000, -0.000000000000000000 ) ) ;
#611 =( NAMED_UNIT ( * ) SI_UNIT ( $, .STERADIAN. ) SOLID_ANGLE_UNIT ( ) );
#612 = ORIENTED_EDGE ( 'NONE', *, *, #830, .T. ) ;
#613 = LINE ( 'NONE', #388, #958 ) ;
#614 = UNCERTAINTY_MEASURE_WITH_UNIT (LENGTH_MEASURE( 1.000000000000000082E-05 ), #776, 'distance_accuracy_value', 'NONE');
#615 = CARTESIAN_POINT ( 'NONE',  ( 0.9968214519863044520, 0.000000000000000000, 0.000000000000000000 ) ) ;
#616 = ORIENTED_EDGE ( 'NONE', *, *, #398, .T. ) ;
#617 =( NAMED_UNIT ( * ) SI_UNIT ( $, .STERADIAN. ) SOLID_ANGLE_UNIT ( ) );
#618 = FACE_OUTER_BOUND ( 'NONE', #609, .T. ) ;
#619 = PRESENTATION_LAYER_ASSIGNMENT (  '', '', ( #935 ) ) ;
#620 =( NAMED_UNIT ( * ) SI_UNIT ( $, .STERADIAN. ) SOLID_ANGLE_UNIT ( ) );
#621 = SURFACE_STYLE_USAGE ( .BOTH. , #152 ) ;
#622 = AXIS2_PLACEMENT_3D ( 'NONE', #347, #834, #917 ) ;
#623 =( GEOMETRIC_REPRESENTATION_CONTEXT ( 3 ) GLOBAL_UNCERTAINTY_ASSIGNED_CONTEXT ( ( #401 ) ) GLOBAL_UNIT_ASSIGNED_CONTEXT ( ( #466, #295, #611 ) ) REPRESENTATION_CONTEXT ( 'NONE', 'WORKASPACE' ) );
#624 = ORIENTED_EDGE ( 'NONE', *, *, #858, .T. ) ;
#625 = CARTESIAN_POINT ( 'NONE',  ( 18.60000000000000142, 0.000000000000000000, 1.749999999999999778 ) ) ;
#626 = CARTESIAN_POINT ( 'NONE',  ( 0.9968214519863044520, 0.000000000000000000, 0.000000000000000000 ) ) ;
#627 = UNCERTAINTY_MEASURE_WITH_UNIT (LENGTH_MEASURE( 1.000000000000000082E-05 ), #582, 'distance_accuracy_value', 'NONE');
#628 = DIRECTION ( 'NONE',  ( -1.000000000000000000, 0.000000000000000000, 0.000000000000000000 ) ) ;
#629 = ADVANCED_FACE ( 'NONE', ( #317 ), #757, .F. ) ;
#630 = CARTESIAN_POINT ( 'NONE',  ( 5.974195292295553905, -0.2313525518329657138, -8.028830871489587498E-16 ) ) ;
#631 = ORIENTED_EDGE ( 'NONE', *, *, #836, .T. ) ;
#632 = ORIENTED_EDGE ( 'NONE', *, *, #383, .F. ) ;
#633 = FILL_AREA_STYLE_COLOUR ( '', #154 ) ;
#634 = ORIENTED_EDGE ( 'NONE', *, *, #957, .F. ) ;
#635 = FILL_AREA_STYLE_COLOUR ( '', #354 ) ;
#636 = UNCERTAINTY_MEASURE_WITH_UNIT (LENGTH_MEASURE( 1.000000000000000082E-05 ), #991, 'distance_accuracy_value', 'NONE');
#637 = DIRECTION ( 'NONE',  ( 0.6663196743247736809, -0.7456662065614397816, -9.292562311528023527E-17 ) ) ;
#638 = CARTESIAN_POINT ( 'NONE',  ( 1.347043950347265318, 0.000000000000000000, 0.000000000000000000 ) ) ;
#639 = STYLED_ITEM ( 'NONE', ( #367 ), #629 ) ;
#640 = AXIS2_PLACEMENT_3D ( 'NONE', #30, #907, #190 ) ;
#641 =( LENGTH_UNIT ( ) NAMED_UNIT ( * ) SI_UNIT ( .MILLI., .METRE. ) );
#642 = COLOUR_RGB ( '',0.7764705882352941346, 0.7568627450980391913, 0.7372549019607843590 ) ;
#643 = CARTESIAN_POINT ( 'NONE',  ( 4.309938594911940868, 1.891316923914901471, 2.356976916973721757E-16 ) ) ;
#644 = DIRECTION ( 'NONE',  ( -0.1108510534444136914, 1.257808851980383614E-16, -0.9938370308809506559 ) ) ;
#645 =( NAMED_UNIT ( * ) SI_UNIT ( $, .STERADIAN. ) SOLID_ANGLE_UNIT ( ) );
#646 = CARTESIAN_POINT ( 'NONE',  ( -25.39999999999996305, 0.000000000000000000, 1.749999999999999778 ) ) ;
#647 = FACE_OUTER_BOUND ( 'NONE', #306, .T. ) ;
#648 =( NAMED_UNIT ( * ) PLANE_ANGLE_UNIT ( ) SI_UNIT ( $, .RADIAN. ) );
#649 = EDGE_CURVE ( 'NONE', #845, #912, #974, .T. ) ;
#650 = VECTOR ( 'NONE', #883, 1000.000000000000000 ) ;
#651 = AXIS2_PLACEMENT_3D ( 'NONE', #983, #173, #269 ) ;
#652 = ORIENTED_EDGE ( 'NONE', *, *, #214, .T. ) ;
#653 =( GEOMETRIC_REPRESENTATION_CONTEXT ( 3 ) GLOBAL_UNCERTAINTY_ASSIGNED_CONTEXT ( ( #627 ) ) GLOBAL_UNIT_ASSIGNED_CONTEXT ( ( #582, #414, #6 ) ) REPRESENTATION_CONTEXT ( 'NONE', 'WORKASPACE' ) );
#654 = AXIS2_PLACEMENT_3D ( 'NONE', #146, #844, #685 ) ;
#655 = PRODUCT_DEFINITION_FORMATION_WITH_SPECIFIED_SOURCE ( 'ANY', '', #758, .NOT_KNOWN. ) ;
#656 = DIRECTION ( 'NONE',  ( 0.000000000000000000, 0.000000000000000000, 1.000000000000000000 ) ) ;
#657 = FILL_AREA_STYLE ('',( #969 ) ) ;
#658 = ORIENTED_EDGE ( 'NONE', *, *, #7, .T. ) ;
#659 = FILL_AREA_STYLE ('',( #110 ) ) ;
#660 = DIRECTION ( 'NONE',  ( 0.9938370308809506559, 0.000000000000000000, 0.1108510534444137469 ) ) ;
#661 = DIRECTION ( 'NONE',  ( -0.9938370308809506559, -0.1108510534444136914, -3.870343844922732447E-16 ) ) ;
#662 = EDGE_LOOP ( 'NONE', ( #677, #72, #831, #892 ) ) ;
#663 = EDGE_CURVE ( 'NONE', #799, #674, #670, .T. ) ;
#664 = DIRECTION ( 'NONE',  ( 0.000000000000000000, 0.000000000000000000, 1.000000000000000000 ) ) ;
#665 = SURFACE_SIDE_STYLE ('',( #362 ) ) ;
#666 = CARTESIAN_POINT ( 'NONE',  ( -25.39999999999996305, 0.000000000000000000, 0.000000000000000000 ) ) ;
#667 = STYLED_ITEM ( 'NONE', ( #671 ), #283 ) ;
#668 = ORIENTED_EDGE ( 'NONE', *, *, #728, .T. ) ;
#669 = ADVANCED_FACE ( 'NONE', ( #334 ), #497, .T. ) ;
#670 = CIRCLE ( 'NONE', #140, 3.500000000000000444 ) ;
#671 = PRESENTATION_STYLE_ASSIGNMENT (( #976 ) ) ;
#672 = PRESENTATION_LAYER_ASSIGNMENT (  '', '', ( #95 ) ) ;
#673 =( NAMED_UNIT ( * ) PLANE_ANGLE_UNIT ( ) SI_UNIT ( $, .RADIAN. ) );
#674 = VERTEX_POINT ( 'NONE', #327 ) ;
#675 = PRESENTATION_STYLE_ASSIGNMENT (( #363 ) ) ;
#676 = PRESENTATION_STYLE_ASSIGNMENT (( #49 ) ) ;
#677 = ORIENTED_EDGE ( 'NONE', *, *, #214, .F. ) ;
#678 = LINE ( 'NONE', #384, #587 ) ;
#679 = SURFACE_STYLE_USAGE ( .BOTH. , #931 ) ;
#680 = CARTESIAN_POINT ( 'NONE',  ( 1.949999999999999956, -0.2175000000000000266, -0.2174999999999999989 ) ) ;
#681 = EDGE_CURVE ( 'NONE', #319, #224, #972, .T. ) ;
#682 = ORIENTED_EDGE ( 'NONE', *, *, #383, .T. ) ;
#683 = COLOUR_RGB ( '',0.7764705882352941346, 0.7568627450980391913, 0.7372549019607843590 ) ;
#684 = PRESENTATION_STYLE_ASSIGNMENT (( #372 ) ) ;
#685 = DIRECTION ( 'NONE',  ( -0.9938370308809507669, -0.1108510534444137052, 0.000000000000000000 ) ) ;
#686 = COLOUR_RGB ( '',0.7764705882352941346, 0.7568627450980391913, 0.7372549019607843590 ) ;
#687 = ORIENTED_EDGE ( 'NONE', *, *, #950, .T. ) ;
#688 = PLANE ( 'NONE',  #808 ) ;
#689 = ORIENTED_EDGE ( 'NONE', *, *, #472, .F. ) ;
#690 =( NAMED_UNIT ( * ) PLANE_ANGLE_UNIT ( ) SI_UNIT ( $, .RADIAN. ) );
#691 = FACE_OUTER_BOUND ( 'NONE', #904, .T. ) ;
#692 = FACE_OUTER_BOUND ( 'NONE', #522, .T. ) ;
#693 = CARTESIAN_POINT ( 'NONE',  ( 6.000000000000000000, 2.326828918379972351E-16, 0.000000000000000000 ) ) ;
#694 =( LENGTH_UNIT ( ) NAMED_UNIT ( * ) SI_UNIT ( .MILLI., .METRE. ) );
#695 = ORIENTED_EDGE ( 'NONE', *, *, #54, .T. ) ;
#696 =( LENGTH_UNIT ( ) NAMED_UNIT ( * ) SI_UNIT ( .MILLI., .METRE. ) );
#697 = PRESENTATION_STYLE_ASSIGNMENT (( #781 ) ) ;
#698 = ADVANCED_FACE ( 'NONE', ( #17 ), #330, .T. ) ;
#699 =( GEOMETRIC_REPRESENTATION_CONTEXT ( 3 ) GLOBAL_UNCERTAINTY_ASSIGNED_CONTEXT ( ( #125 ) ) GLOBAL_UNIT_ASSIGNED_CONTEXT ( ( #1004, #126, #620 ) ) REPRESENTATION_CONTEXT ( 'NONE', 'WORKASPACE' ) );
#700 = VERTEX_POINT ( 'NONE', #761 ) ;
#701 = COLOUR_RGB ( '',0.7764705882352941346, 0.7568627450980391913, 0.7372549019607843590 ) ;
#702 = AXIS2_PLACEMENT_3D ( 'NONE', #630, #949, #230 ) ;
#703 = AXIS2_PLACEMENT_3D ( 'NONE', #748, #351, #661 ) ;
#704 = COLOUR_RGB ( '',0.7764705882352941346, 0.7568627450980391913, 0.7372549019607843590 ) ;
#705 = PRESENTATION_LAYER_ASSIGNMENT (  '', '', ( #259 ) ) ;
#706 = ORIENTED_EDGE ( 'NONE', *, *, #663, .F. ) ;
#707 = UNCERTAINTY_MEASURE_WITH_UNIT (LENGTH_MEASURE( 1.000000000000000082E-05 ), #1003, 'distance_accuracy_value', 'NONE');
#708 = LINE ( 'NONE', #725, #608 ) ;
#709 = FILL_AREA_STYLE_COLOUR ( '', #642 ) ;
#710 = SURFACE_STYLE_USAGE ( .BOTH. , #815 ) ;
#711 = FILL_AREA_STYLE_COLOUR ( '', #558 ) ;
#712 = ORIENTED_EDGE ( 'NONE', *, *, #448, .T. ) ;
#713 = DIRECTION ( 'NONE',  ( -1.000000000000000000, -0.000000000000000000, -0.000000000000000000 ) ) ;
#714 = DIRECTION ( 'NONE',  ( -1.000000000000000000, -0.000000000000000000, -0.000000000000000000 ) ) ;
#715 = EDGE_CURVE ( 'NONE', #982, #21, #740, .T. ) ;
#716 = DIRECTION ( 'NONE',  ( 0.000000000000000000, 0.000000000000000000, 1.000000000000000000 ) ) ;
#717 = DIRECTION ( 'NONE',  ( 0.7456662065614396706, 0.6663196743247736809, 0.000000000000000000 ) ) ;
#718 = DIRECTION ( 'NONE',  ( 0.7431005017819711789, 0.08288428673722224305, -0.6640269868487610472 ) ) ;
#719 = STYLED_ITEM ( 'NONE', ( #323 ), #427 ) ;
#720 = PRESENTATION_LAYER_ASSIGNMENT (  '', '', ( #590 ) ) ;
#721 = CARTESIAN_POINT ( 'NONE',  ( 5.974195292295553905, 2.619630734554813543E-16, -0.2313525518329656583 ) ) ;
#722 = MECHANICAL_DESIGN_GEOMETRIC_PRESENTATION_REPRESENTATION (  '', ( #257 ), #772 ) ;
#723 = SURFACE_STYLE_USAGE ( .BOTH. , #409 ) ;
#724 = DIRECTION ( 'NONE',  ( -1.000000000000000000, -0.000000000000000000, -0.000000000000000000 ) ) ;
#725 = CARTESIAN_POINT ( 'NONE',  ( 2.214116351126373949, -0.1880408685282127235, 0.1880408685282120573 ) ) ;
#726 = FILL_AREA_STYLE_COLOUR ( '', #394 ) ;
#727 = FACE_OUTER_BOUND ( 'NONE', #731, .T. ) ;
#728 = EDGE_CURVE ( 'NONE', #301, #700, #820, .T. ) ;
#729 =( NAMED_UNIT ( * ) SI_UNIT ( $, .STERADIAN. ) SOLID_ANGLE_UNIT ( ) );
#730 =( NAMED_UNIT ( * ) PLANE_ANGLE_UNIT ( ) SI_UNIT ( $, .RADIAN. ) );
#731 = EDGE_LOOP ( 'NONE', ( #452, #652, #45, #56 ) ) ;
#732 =( NAMED_UNIT ( * ) SI_UNIT ( $, .STERADIAN. ) SOLID_ANGLE_UNIT ( ) );
#733 = PRESENTATION_LAYER_ASSIGNMENT (  '', '', ( #336 ) ) ;
#734 = CIRCLE ( 'NONE', #104, 5.437518987584764929 ) ;
#735 = EDGE_LOOP ( 'NONE', ( #934, #464, #50, #706 ) ) ;
#736 = CARTESIAN_POINT ( 'NONE',  ( -25.39999999999996305, 0.000000000000000000, 0.000000000000000000 ) ) ;
#737 =( GEOMETRIC_REPRESENTATION_CONTEXT ( 3 ) GLOBAL_UNCERTAINTY_ASSIGNED_CONTEXT ( ( #29 ) ) GLOBAL_UNIT_ASSIGNED_CONTEXT ( ( #1024, #648, #239 ) ) REPRESENTATION_CONTEXT ( 'NONE', 'WORKASPACE' ) );
#738 = CIRCLE ( 'NONE', #875, 5.437518987584764929 ) ;
#739 = CIRCLE ( 'NONE', #822, 3.311827956989247479 ) ;
#740 = LINE ( 'NONE', #755, #218 ) ;
#741 = EDGE_CURVE ( 'NONE', #982, #284, #376, .T. ) ;
#742 = ORIENTED_EDGE ( 'NONE', *, *, #333, .T. ) ;
#743 = PRESENTATION_STYLE_ASSIGNMENT (( #187 ) ) ;
#744 =( NAMED_UNIT ( * ) PLANE_ANGLE_UNIT ( ) SI_UNIT ( $, .RADIAN. ) );
#745 = ORIENTED_EDGE ( 'NONE', *, *, #490, .T. ) ;
#746 = CARTESIAN_POINT ( 'NONE',  ( 1.347043950347263763, 0.000000000000000000, 3.080000000000000515 ) ) ;
#747 =( NAMED_UNIT ( * ) SI_UNIT ( $, .STERADIAN. ) SOLID_ANGLE_UNIT ( ) );
#748 = CARTESIAN_POINT ( 'NONE',  ( 2.193400286944045430, -0.1903515064562409931, -2.309278636184418912E-16 ) ) ;
#749 = MECHANICAL_DESIGN_GEOMETRIC_PRESENTATION_REPRESENTATION (  '', ( #935 ), #441 ) ;
#750 = ORIENTED_EDGE ( 'NONE', *, *, #870, .T. ) ;
#751 = AXIS2_PLACEMENT_3D ( 'NONE', #361, #913, #1017 ) ;
#752 = SURFACE_STYLE_FILL_AREA ( #440 ) ;
#753 = VECTOR ( 'NONE', #320, 1000.000000000000000 ) ;
#754 =( GEOMETRIC_REPRESENTATION_CONTEXT ( 3 ) GLOBAL_UNCERTAINTY_ASSIGNED_CONTEXT ( ( #636 ) ) GLOBAL_UNIT_ASSIGNED_CONTEXT ( ( #991, #592, #747 ) ) REPRESENTATION_CONTEXT ( 'NONE', 'WORKASPACE' ) );
#755 = CARTESIAN_POINT ( 'NONE',  ( 0.000000000000000000, 1.959999999999999964, -0.4350000000000000533 ) ) ;
#756 = ORIENTED_EDGE ( 'NONE', *, *, #189, .T. ) ;
#757 = PLANE ( 'NONE',  #606 ) ;
#758 = PRODUCT ( 'M3.5 x 16 Screw head', 'M3.5 x 16 Screw head', '', ( #909 ) ) ;
#759 = PRESENTATION_STYLE_ASSIGNMENT (( #280 ) ) ;
#760 = PRESENTATION_STYLE_ASSIGNMENT (( #53 ) ) ;
#761 = CARTESIAN_POINT ( 'NONE',  ( 0.2666411873824114376, 0.4052592521765831513, -1.721732169736484019 ) ) ;
#762 = ORIENTED_EDGE ( 'NONE', *, *, #649, .T. ) ;
#763 = PRESENTATION_STYLE_ASSIGNMENT (( #621 ) ) ;
#764 = FILL_AREA_STYLE_COLOUR ( '', #141 ) ;
#765 = CARTESIAN_POINT ( 'NONE',  ( 18.60000000000000142, 0.000000000000000000, 0.000000000000000000 ) ) ;
#766 = EDGE_LOOP ( 'NONE', ( #595, #993 ) ) ;
#767 = STYLED_ITEM ( 'NONE', ( #818 ), #318 ) ;
#768 = FILL_AREA_STYLE_COLOUR ( '', #919 ) ;
#769 = CARTESIAN_POINT ( 'NONE',  ( 1.949999999999999956, -0.2175000000000000266, -0.2174999999999999711 ) ) ;
#770 = STYLED_ITEM ( 'NONE', ( #795 ), #418 ) ;
#771 = VECTOR ( 'NONE', #718, 1000.000000000000000 ) ;
#772 =( GEOMETRIC_REPRESENTATION_CONTEXT ( 3 ) GLOBAL_UNCERTAINTY_ASSIGNED_CONTEXT ( ( #294 ) ) GLOBAL_UNIT_ASSIGNED_CONTEXT ( ( #344, #673, #430 ) ) REPRESENTATION_CONTEXT ( 'NONE', 'WORKASPACE' ) );
#773 = SURFACE_STYLE_FILL_AREA ( #458 ) ;
#774 = VECTOR ( 'NONE', #112, 1000.000000000000000 ) ;
#775 = ORIENTED_EDGE ( 'NONE', *, *, #812, .T. ) ;
#776 =( LENGTH_UNIT ( ) NAMED_UNIT ( * ) SI_UNIT ( .MILLI., .METRE. ) );
#777 = CARTESIAN_POINT ( 'NONE',  ( 0.2553644383338094515, -1.731808957027352047, -2.120854295958262972E-16 ) ) ;
#778 = ADVANCED_BREP_SHAPE_REPRESENTATION ( 'M3.5 x 16 Screw head', ( #516, #81 ), #737 ) ;
#779 = ORIENTED_EDGE ( 'NONE', *, *, #858, .F. ) ;
#780 = ADVANCED_FACE ( 'NONE', ( #511 ), #594, .T. ) ;
#781 = SURFACE_STYLE_USAGE ( .BOTH. , #604 ) ;
#782 = UNCERTAINTY_MEASURE_WITH_UNIT (LENGTH_MEASURE( 1.000000000000000082E-05 ), #641, 'distance_accuracy_value', 'NONE');
#783 = SPHERICAL_SURFACE ( 'NONE', #342, 6.000000000000000000 ) ;
#784 = EDGE_LOOP ( 'NONE', ( #371, #826, #297 ) ) ;
#785 =( LENGTH_UNIT ( ) NAMED_UNIT ( * ) SI_UNIT ( .MILLI., .METRE. ) );
#786 = COLOUR_RGB ( '',0.7764705882352941346, 0.7568627450980391913, 0.7372549019607843590 ) ;
#787 = EDGE_CURVE ( 'NONE', #186, #284, #998, .T. ) ;
#788 = CIRCLE ( 'NONE', #339, 5.437518987584765817 ) ;
#789 = SURFACE_SIDE_STYLE ('',( #241 ) ) ;
#790 = CARTESIAN_POINT ( 'NONE',  ( 1.949999999999999956, -0.2175000000000000266, -0.2174999999999999989 ) ) ;
#791 =( GEOMETRIC_REPRESENTATION_CONTEXT ( 3 ) GLOBAL_UNCERTAINTY_ASSIGNED_CONTEXT ( ( #227 ) ) GLOBAL_UNIT_ASSIGNED_CONTEXT ( ( #8, #396, #91 ) ) REPRESENTATION_CONTEXT ( 'NONE', 'WORKASPACE' ) );
#792 = PRESENTATION_LAYER_ASSIGNMENT (  '', '', ( #573 ) ) ;
#793 = COLOUR_RGB ( '',0.7764705882352941346, 0.7568627450980391913, 0.7372549019607843590 ) ;
#794 = ORIENTED_EDGE ( 'NONE', *, *, #715, .F. ) ;
#795 = PRESENTATION_STYLE_ASSIGNMENT (( #249 ) ) ;
#796 = UNCERTAINTY_MEASURE_WITH_UNIT (LENGTH_MEASURE( 1.000000000000000082E-05 ), #832, 'distance_accuracy_value', 'NONE');
#797 = DIRECTION ( 'NONE',  ( -0.9938370308809506559, 0.000000000000000000, 0.1108510534444136914 ) ) ;
#798 = CARTESIAN_POINT ( 'NONE',  ( 2.193400286944045430, 4.336808689942017736E-16, 0.1903515064562409931 ) ) ;
#799 = VERTEX_POINT ( 'NONE', #179 ) ;
#800 = CARTESIAN_POINT ( 'NONE',  ( 0.000000000000000000, -1.959999999999999964, 0.4349999999999996092 ) ) ;
#801 = DIRECTION ( 'NONE',  ( 0.6663196743247735698, 2.696405268330496621E-15, -0.7456662065614397816 ) ) ;
#802 = FILL_AREA_STYLE_COLOUR ( '', #786 ) ;
#803 =( NAMED_UNIT ( * ) SI_UNIT ( $, .STERADIAN. ) SOLID_ANGLE_UNIT ( ) );
#804 = CIRCLE ( 'NONE', #651, 3.500000000000000000 ) ;
#805 = AXIS2_PLACEMENT_3D ( 'NONE', #198, #267, #899 ) ;
#806 =( NAMED_UNIT ( * ) PLANE_ANGLE_UNIT ( ) SI_UNIT ( $, .RADIAN. ) );
#807 = AXIS2_PLACEMENT_3D ( 'NONE', #765, #861, #450 ) ;
#808 = AXIS2_PLACEMENT_3D ( 'NONE', #769, #540, #142 ) ;
#809 = PLANE ( 'NONE',  #544 ) ;
#810 = DIRECTION ( 'NONE',  ( -1.000000000000000000, -0.000000000000000000, -0.000000000000000000 ) ) ;
#811 = SURFACE_STYLE_FILL_AREA ( #657 ) ;
#812 = EDGE_CURVE ( 'NONE', #471, #127, #444, .T. ) ;
#813 = CARTESIAN_POINT ( 'NONE',  ( 0.9968214519863044520, 0.000000000000000000, 0.000000000000000000 ) ) ;
#814 = SURFACE_STYLE_USAGE ( .BOTH. , #341 ) ;
#815 = SURFACE_SIDE_STYLE ('',( #99 ) ) ;
#816 =( LENGTH_UNIT ( ) NAMED_UNIT ( * ) SI_UNIT ( .MILLI., .METRE. ) );
#817 = ORIENTED_EDGE ( 'NONE', *, *, #741, .F. ) ;
#818 = PRESENTATION_STYLE_ASSIGNMENT (( #814 ) ) ;
#819 = STYLED_ITEM ( 'NONE', ( #994 ), #498 ) ;
#820 = CIRCLE ( 'NONE', #805, 5.437518987584765817 ) ;
#821 =( NAMED_UNIT ( * ) PLANE_ANGLE_UNIT ( ) SI_UNIT ( $, .RADIAN. ) );
#822 = AXIS2_PLACEMENT_3D ( 'NONE', #434, #833, #656 ) ;
#823 = CARTESIAN_POINT ( 'NONE',  ( 2.214116351126373505, 0.1880408685282115300, 0.1880408685282121406 ) ) ;
#824 = ADVANCED_FACE ( 'NONE', ( #431 ), #783, .T. ) ;
#825 = FILL_AREA_STYLE ('',( #25 ) ) ;
#826 = ORIENTED_EDGE ( 'NONE', *, *, #911, .T. ) ;
#827 = DIRECTION ( 'NONE',  ( 0.7431005017819711789, -0.08288428673721758011, -0.6640269868487616023 ) ) ;
#828 = LINE ( 'NONE', #980, #774 ) ;
#829 = CARTESIAN_POINT ( 'NONE',  ( 6.000000000000000000, 2.326828918379972351E-16, 0.000000000000000000 ) ) ;
#830 = EDGE_CURVE ( 'NONE', #1005, #979, #922, .T. ) ;
#831 = ORIENTED_EDGE ( 'NONE', *, *, #163, .T. ) ;
#832 =( LENGTH_UNIT ( ) NAMED_UNIT ( * ) SI_UNIT ( .MILLI., .METRE. ) );
#833 = DIRECTION ( 'NONE',  ( -1.000000000000000000, -0.000000000000000000, -0.000000000000000000 ) ) ;
#834 = DIRECTION ( 'NONE',  ( -0.1108510534444136914, 1.257808851980383614E-16, -0.9938370308809506559 ) ) ;
#835 = ORIENTED_EDGE ( 'NONE', *, *, #130, .T. ) ;
#836 = EDGE_CURVE ( 'NONE', #301, #231, #221, .T. ) ;
#837 = FILL_AREA_STYLE_COLOUR ( '', #884 ) ;
#838 = MECHANICAL_DESIGN_GEOMETRIC_PRESENTATION_REPRESENTATION (  '', ( #853 ), #412 ) ;
#839 =( GEOMETRIC_REPRESENTATION_CONTEXT ( 3 ) GLOBAL_UNCERTAINTY_ASSIGNED_CONTEXT ( ( #707 ) ) GLOBAL_UNIT_ASSIGNED_CONTEXT ( ( #1003, #311, #469 ) ) REPRESENTATION_CONTEXT ( 'NONE', 'WORKASPACE' ) );
#840 = SURFACE_STYLE_USAGE ( .BOTH. , #601 ) ;
#841 = ORIENTED_EDGE ( 'NONE', *, *, #348, .T. ) ;
#842 = SURFACE_STYLE_USAGE ( .BOTH. , #531 ) ;
#843 = UNCERTAINTY_MEASURE_WITH_UNIT (LENGTH_MEASURE( 1.000000000000000082E-05 ), #98, 'distance_accuracy_value', 'NONE');
#844 = DIRECTION ( 'NONE',  ( -0.1108510534444136914, 0.9938370308809506559, 3.595744332370143968E-15 ) ) ;
#845 = VERTEX_POINT ( 'NONE', #1000 ) ;
#846 = SURFACE_STYLE_FILL_AREA ( #534 ) ;
#847 = FACE_BOUND ( 'NONE', #203, .T. ) ;
#848 = DIRECTION ( 'NONE',  ( 0.000000000000000000, 1.000000000000000000, 0.000000000000000000 ) ) ;
#849 = EDGE_LOOP ( 'NONE', ( #695, #598, #485 ) ) ;
#850 = PLANE ( 'NONE',  #169 ) ;
#851 = FACE_OUTER_BOUND ( 'NONE', #31, .T. ) ;
#852 = AXIS2_PLACEMENT_3D ( 'NONE', #416, #713, #716 ) ;
#853 = STYLED_ITEM ( 'NONE', ( #335 ), #43 ) ;
#854 = UNCERTAINTY_MEASURE_WITH_UNIT (LENGTH_MEASURE( 1.000000000000000082E-05 ), #785, 'distance_accuracy_value', 'NONE');
#855 = MECHANICAL_DESIGN_GEOMETRIC_PRESENTATION_REPRESENTATION (  '', ( #424 ), #256 ) ;
#856 = CIRCLE ( 'NONE', #985, 3.500000000000000000 ) ;
#857 = MECHANICAL_DESIGN_GEOMETRIC_PRESENTATION_REPRESENTATION (  '', ( #593 ), #754 ) ;
#858 = EDGE_CURVE ( 'NONE', #674, #799, #607, .T. ) ;
#859 = ORIENTED_EDGE ( 'NONE', *, *, #715, .T. ) ;
#860 = SPHERICAL_SURFACE ( 'NONE', #925, 6.000000000000000000 ) ;
#861 = DIRECTION ( 'NONE',  ( -1.000000000000000000, -0.000000000000000000, -0.000000000000000000 ) ) ;
#862 =( LENGTH_UNIT ( ) NAMED_UNIT ( * ) SI_UNIT ( .MILLI., .METRE. ) );
#863 = ORIENTED_EDGE ( 'NONE', *, *, #172, .F. ) ;
#864 = FILL_AREA_STYLE ('',( #552 ) ) ;
#865 = UNCERTAINTY_MEASURE_WITH_UNIT (LENGTH_MEASURE( 1.000000000000000082E-05 ), #816, 'distance_accuracy_value', 'NONE');
#866 = DIRECTION ( 'NONE',  ( -0.1108510534444136914, 1.257808851980383614E-16, -0.9938370308809506559 ) ) ;
#867 = DIRECTION ( 'NONE',  ( 0.000000000000000000, 1.224646799147353207E-16, -1.000000000000000000 ) ) ;
#868 = SURFACE_STYLE_FILL_AREA ( #304 ) ;
#869 = ORIENTED_EDGE ( 'NONE', *, *, #303, .F. ) ;
#870 = EDGE_CURVE ( 'NONE', #211, #979, #734, .T. ) ;
#871 = CARTESIAN_POINT ( 'NONE',  ( 18.59999999999999787, 1.749999999999999778, 0.000000000000000000 ) ) ;
#872 = PLANE ( 'NONE',  #506 ) ;
#873 = PRESENTATION_LAYER_ASSIGNMENT (  '', '', ( #639 ) ) ;
#874 = CARTESIAN_POINT ( 'NONE',  ( 4.309938594911940868, -1.891316923914901471, 0.000000000000000000 ) ) ;
#875 = AXIS2_PLACEMENT_3D ( 'NONE', #643, #637, #717 ) ;
#876 = PRODUCT_DEFINITION ( 'UNKNOWN', '', #655, #270 ) ;
#877 = EDGE_LOOP ( 'NONE', ( #579, #687, #109, #1023, #446, #360, #1019, #682, #115, #951, #750 ) ) ;
#878 = DIRECTION ( 'NONE',  ( 0.000000000000000000, 0.000000000000000000, -1.000000000000000000 ) ) ;
#879 = CARTESIAN_POINT ( 'NONE',  ( 1.949999999999999956, 0.2175000000000007483, -0.2174999999999992772 ) ) ;
#880 = DIRECTION ( 'NONE',  ( -1.000000000000000000, -0.000000000000000000, -0.000000000000000000 ) ) ;
#881 =( NAMED_UNIT ( * ) PLANE_ANGLE_UNIT ( ) SI_UNIT ( $, .RADIAN. ) );
#882 = CARTESIAN_POINT ( 'NONE',  ( 5.974195292295553905, 0.2313525518329656860, 8.370432990360215258E-16 ) ) ;
#883 = DIRECTION ( 'NONE',  ( 0.7431005017819711789, 0.6640269868487613802, -0.08288428673721975892 ) ) ;
#884 = COLOUR_RGB ( '',0.7921568627450980005, 0.8196078431372548767, 0.9333333333333333481 ) ;
#885 = EDGE_CURVE ( 'NONE', #231, #224, #476, .T. ) ;
#886 = MECHANICAL_DESIGN_GEOMETRIC_PRESENTATION_REPRESENTATION (  '', ( #960 ), #5 ) ;
#887 = AXIS2_PLACEMENT_3D ( 'NONE', #443, #505, #48 ) ;
#888 = COLOUR_RGB ( '',0.7921568627450980005, 0.8196078431372548767, 0.9333333333333333481 ) ;
#889 = DIRECTION ( 'NONE',  ( 0.000000000000000000, -1.000000000000000000, 0.000000000000000000 ) ) ;
#890 = PLANE ( 'NONE',  #941 ) ;
#891 = EDGE_CURVE ( 'NONE', #26, #186, #445, .T. ) ;
#892 = ORIENTED_EDGE ( 'NONE', *, *, #649, .F. ) ;
#893 = FILL_AREA_STYLE_COLOUR ( '', #1010 ) ;
#894 =( NAMED_UNIT ( * ) SI_UNIT ( $, .STERADIAN. ) SOLID_ANGLE_UNIT ( ) );
#895 = ORIENTED_EDGE ( 'NONE', *, *, #448, .F. ) ;
#896 = ADVANCED_FACE ( 'NONE', ( #132 ), #543, .T. ) ;
#897 = LINE ( 'NONE', #181, #73 ) ;
#898 = LINE ( 'NONE', #581, #413 ) ;
#899 = DIRECTION ( 'NONE',  ( -0.7456662065614396706, 0.000000000000000000, -0.6663196743247736809 ) ) ;
#900 = TOROIDAL_SURFACE ( 'NONE', #574, 3.080000000000000515, 0.4200000000000000400 ) ;
#901 = PRESENTATION_LAYER_ASSIGNMENT (  '', '', ( #770 ) ) ;
#902 = AXIS2_PLACEMENT_3D ( 'NONE', #798, #489, #13 ) ;
#903 = CIRCLE ( 'NONE', #807, 1.749999999999999778 ) ;
#904 = EDGE_LOOP ( 'NONE', ( #1014, #745, #612, #428, #393, #176, #668, #507, #62, #217, #147 ) ) ;
#905 = CYLINDRICAL_SURFACE ( 'NONE', #492, 3.500000000000000444 ) ;
#906 = SURFACE_STYLE_FILL_AREA ( #1021 ) ;
#907 = DIRECTION ( 'NONE',  ( -0.000000000000000000, 0.000000000000000000, 1.000000000000000000 ) ) ;
#908 = ORIENTED_EDGE ( 'NONE', *, *, #728, .F. ) ;
#909 = PRODUCT_CONTEXT ( 'NONE', #61, 'mechanical' ) ;
#910 = DIRECTION ( 'NONE',  ( -0.7456662065614397816, 0.6663196743247735698, 0.000000000000000000 ) ) ;
#911 = EDGE_CURVE ( 'NONE', #700, #21, #828, .T. ) ;
#912 = VERTEX_POINT ( 'NONE', #266 ) ;
#913 = DIRECTION ( 'NONE',  ( -0.1108510534444137469, 2.096348086633972484E-17, 0.9938370308809506559 ) ) ;
#914 = CARTESIAN_POINT ( 'NONE',  ( 4.309938594911940868, 6.836180637525074799E-15, -1.891316923914901693 ) ) ;
#915 = CARTESIAN_POINT ( 'NONE',  ( 0.03111693966988647586, -0.4315292644214340778, -0.4315292644214357987 ) ) ;
#916 = UNCERTAINTY_MEASURE_WITH_UNIT (LENGTH_MEASURE( 1.000000000000000082E-05 ), #500, 'distance_accuracy_value', 'NONE');
#917 = DIRECTION ( 'NONE',  ( -0.9938370308809507669, 0.000000000000000000, 0.1108510534444137052 ) ) ;
#918 = MECHANICAL_DESIGN_GEOMETRIC_PRESENTATION_REPRESENTATION (  '', ( #336 ), #373 ) ;
#919 = COLOUR_RGB ( '',0.7764705882352941346, 0.7568627450980391913, 0.7372549019607843590 ) ;
#920 = ORIENTED_EDGE ( 'NONE', *, *, #911, .F. ) ;
#921 = DIRECTION ( 'NONE',  ( 0.6663196743247736809, 0.7456662065614397816, 0.000000000000000000 ) ) ;
#922 = CIRCLE ( 'NONE', #19, 6.000000000000000000 ) ;
#923 = VECTOR ( 'NONE', #312, 1000.000000000000000 ) ;
#924 = SURFACE_STYLE_FILL_AREA ( #864 ) ;
#925 = AXIS2_PLACEMENT_3D ( 'NONE', #455, #293, #1006 ) ;
#926 = PLANE ( 'NONE',  #219 ) ;
#927 = ORIENTED_EDGE ( 'NONE', *, *, #992, .F. ) ;
#928 = CARTESIAN_POINT ( 'NONE',  ( 1.347043950347263763, 0.000000000000000000, 0.000000000000000000 ) ) ;
#929 = DIRECTION ( 'NONE',  ( 0.6663196743247736809, -0.7456662065614397816, -9.292562311528023527E-17 ) ) ;
#930 = VERTEX_POINT ( 'NONE', #915 ) ;
#931 = SURFACE_SIDE_STYLE ('',( #368 ) ) ;
#932 = CARTESIAN_POINT ( 'NONE',  ( 0.2666411873824114376, 1.721732169736485352, 0.4052592521765772671 ) ) ;
#933 = DIRECTION ( 'NONE',  ( 0.000000000000000000, 0.000000000000000000, 1.000000000000000000 ) ) ;
#934 = ORIENTED_EDGE ( 'NONE', *, *, #204, .F. ) ;
#935 = STYLED_ITEM ( 'NONE', ( #675 ), #364 ) ;
#936 = DIRECTION ( 'NONE',  ( 0.6663196743247736809, -2.603479645215216163E-15, 0.7456662065614397816 ) ) ;
#937 = PRESENTATION_STYLE_ASSIGNMENT (( #679 ) ) ;
#938 = COLOUR_RGB ( '',0.7764705882352941346, 0.7568627450980391913, 0.7372549019607843590 ) ;
#939 = UNCERTAINTY_MEASURE_WITH_UNIT (LENGTH_MEASURE( 1.000000000000000082E-05 ), #862, 'distance_accuracy_value', 'NONE');
#940 = COLOUR_RGB ( '',0.7764705882352941346, 0.7568627450980391913, 0.7372549019607843590 ) ;
#941 = AXIS2_PLACEMENT_3D ( 'NONE', #328, #801, #90 ) ;
#942 = DIRECTION ( 'NONE',  ( 0.000000000000000000, 1.000000000000000000, 1.224646799147353207E-16 ) ) ;
#943 = PRESENTATION_LAYER_ASSIGNMENT (  '', '', ( #529 ) ) ;
#944 = FACE_OUTER_BOUND ( 'NONE', #133, .T. ) ;
#945 = ORIENTED_EDGE ( 'NONE', *, *, #836, .F. ) ;
#946 = FACE_OUTER_BOUND ( 'NONE', #784, .T. ) ;
#947 = DIRECTION ( 'NONE',  ( -1.000000000000000000, -0.000000000000000000, -0.000000000000000000 ) ) ;
#948 = CARTESIAN_POINT ( 'NONE',  ( 0.9968214519863044520, 4.171041651934668579E-16, -3.311827956989247479 ) ) ;
#949 = DIRECTION ( 'NONE',  ( -0.1108510534444137469, -0.9938370308809506559, -3.448999966305766196E-15 ) ) ;
#950 = EDGE_CURVE ( 'NONE', #1005, #26, #739, .T. ) ;
#951 = ORIENTED_EDGE ( 'NONE', *, *, #54, .F. ) ;
#952 = SURFACE_STYLE_FILL_AREA ( #551 ) ;
#953 = UNCERTAINTY_MEASURE_WITH_UNIT (LENGTH_MEASURE( 1.000000000000000082E-05 ), #58, 'distance_accuracy_value', 'NONE');
#954 = SURFACE_STYLE_FILL_AREA ( #475 ) ;
#955 = SURFACE_SIDE_STYLE ('',( #128 ) ) ;
#956 = CARTESIAN_POINT ( 'NONE',  ( 2.214116351126373505, -0.1880408685282114467, -0.1880408685282121684 ) ) ;
#957 = EDGE_CURVE ( 'NONE', #382, #674, #898, .T. ) ;
#958 = VECTOR ( 'NONE', #206, 1000.000000000000000 ) ;
#959 = DIRECTION ( 'NONE',  ( 0.000000000000000000, 0.000000000000000000, 1.000000000000000000 ) ) ;
#960 = STYLED_ITEM ( 'NONE', ( #676 ), #780 ) ;
#961 = FILL_AREA_STYLE_COLOUR ( '', #704 ) ;
#962 = DIRECTION ( 'NONE',  ( -1.000000000000000000, -0.000000000000000000, -0.000000000000000000 ) ) ;
#963 = MECHANICAL_DESIGN_GEOMETRIC_PRESENTATION_REPRESENTATION (  '', ( #259 ), #839 ) ;
#964 = DIRECTION ( 'NONE',  ( -0.000000000000000000, 0.000000000000000000, 1.000000000000000000 ) ) ;
#965 = SURFACE_SIDE_STYLE ('',( #811 ) ) ;
#966 =( LENGTH_UNIT ( ) NAMED_UNIT ( * ) SI_UNIT ( .MILLI., .METRE. ) );
#967 = CARTESIAN_POINT ( 'NONE',  ( -25.39999999999996305, 4.286263797015737088E-16, -3.500000000000000444 ) ) ;
#968 = ADVANCED_FACE ( 'NONE', ( #691 ), #860, .T. ) ;
#969 = FILL_AREA_STYLE_COLOUR ( '', #201 ) ;
#970 = VECTOR ( 'NONE', #878, 1000.000000000000000 ) ;
#971 = PRESENTATION_LAYER_ASSIGNMENT (  '', '', ( #767 ) ) ;
#972 = LINE ( 'NONE', #406, #771 ) ;
#973 = CIRCLE ( 'NONE', #18, 5.437518987584765817 ) ;
#974 = CIRCLE ( 'NONE', #275, 1.749999999999999778 ) ;
#975 = DIRECTION ( 'NONE',  ( -0.000000000000000000, 1.000000000000000000, 1.224646799147353207E-16 ) ) ;
#976 = SURFACE_STYLE_USAGE ( .BOTH. , #483 ) ;
#977 = SURFACE_SIDE_STYLE ('',( #491 ) ) ;
#978 = ADVANCED_FACE ( 'NONE', ( #851 ), #688, .F. ) ;
#979 = VERTEX_POINT ( 'NONE', #777 ) ;
#980 = CARTESIAN_POINT ( 'NONE',  ( 0.000000000000000000, 0.4350000000000068257, -1.959999999999998188 ) ) ;
#981 = DIRECTION ( 'NONE',  ( -0.1108510534444136914, 0.9938370308809506559, 3.595744332370143179E-15 ) ) ;
#982 = VERTEX_POINT ( 'NONE', #64 ) ;
#983 = CARTESIAN_POINT ( 'NONE',  ( 2.599999999999998312, 0.000000000000000000, 0.000000000000000000 ) ) ;
#984 = CARTESIAN_POINT ( 'NONE',  ( 0.2666411873824114376, -0.4052592521765708278, -1.721732169736487128 ) ) ;
#985 = AXIS2_PLACEMENT_3D ( 'NONE', #402, #810, #85 ) ;
#986 = EDGE_LOOP ( 'NONE', ( #83, #101, #39 ) ) ;
#987 = FACE_OUTER_BOUND ( 'NONE', #583, .T. ) ;
#988 = EDGE_CURVE ( 'NONE', #982, #14, #560, .T. ) ;
#989 = ORIENTED_EDGE ( 'NONE', *, *, #504, .T. ) ;
#990 = CARTESIAN_POINT ( 'NONE',  ( 0.000000000000000000, 1.959999999999999964, 0.4350000000000001088 ) ) ;
#991 =( LENGTH_UNIT ( ) NAMED_UNIT ( * ) SI_UNIT ( .MILLI., .METRE. ) );
#992 = EDGE_CURVE ( 'NONE', #186, #139, #105, .T. ) ;
#993 = ORIENTED_EDGE ( 'NONE', *, *, #238, .F. ) ;
#994 = PRESENTATION_STYLE_ASSIGNMENT (( #71 ) ) ;
#995 = DIRECTION ( 'NONE',  ( 0.000000000000000000, 0.000000000000000000, 1.000000000000000000 ) ) ;
#996 =( GEOMETRIC_REPRESENTATION_CONTEXT ( 3 ) GLOBAL_UNCERTAINTY_ASSIGNED_CONTEXT ( ( #939 ) ) GLOBAL_UNIT_ASSIGNED_CONTEXT ( ( #862, #453, #399 ) ) REPRESENTATION_CONTEXT ( 'NONE', 'WORKASPACE' ) );
#997 = EDGE_LOOP ( 'NONE', ( #268, #742, #775 ) ) ;
#998 = CIRCLE ( 'NONE', #640, 6.000000000000000000 ) ;
#999 = SURFACE_SIDE_STYLE ('',( #553 ) ) ;
#1000 = CARTESIAN_POINT ( 'NONE',  ( 2.599999999999998312, 2.143131898507868051E-16, -1.749999999999999778 ) ) ;
#1001 = EDGE_LOOP ( 'NONE', ( #349, #106, #863 ) ) ;
#1002 = DIRECTION ( 'NONE',  ( 0.000000000000000000, -1.000000000000000000, -1.246209393661499126E-16 ) ) ;
#1003 =( LENGTH_UNIT ( ) NAMED_UNIT ( * ) SI_UNIT ( .MILLI., .METRE. ) );
#1004 =( LENGTH_UNIT ( ) NAMED_UNIT ( * ) SI_UNIT ( .MILLI., .METRE. ) );
#1005 = VERTEX_POINT ( 'NONE', #226 ) ;
#1006 = DIRECTION ( 'NONE',  ( 0.000000000000000000, 1.000000000000000000, 0.000000000000000000 ) ) ;
#1007 = PLANE ( 'NONE',  #751 ) ;
#1008 = ORIENTED_EDGE ( 'NONE', *, *, #86, .F. ) ;
#1009 = AXIS2_PLACEMENT_3D ( 'NONE', #165, #160, #959 ) ;
#1010 = COLOUR_RGB ( '',0.7764705882352941346, 0.7568627450980391913, 0.7372549019607843590 ) ;
#1011 = CARTESIAN_POINT ( 'NONE',  ( 2.193400286944045430, 0.1903515064562410486, 2.309278636184420884E-16 ) ) ;
#1012 = DIRECTION ( 'NONE',  ( -1.000000000000000000, -0.000000000000000000, -0.000000000000000000 ) ) ;
#1013 = STYLED_ITEM ( 'NONE', ( #35 ), #824 ) ;
#1014 = ORIENTED_EDGE ( 'NONE', *, *, #992, .T. ) ;
#1015 = ADVANCED_FACE ( 'NONE', ( #618 ), #286, .T. ) ;
#1016 = PRESENTATION_LAYER_ASSIGNMENT (  '', '', ( #240 ) ) ;
#1017 = DIRECTION ( 'NONE',  ( 0.9938370308809506559, 0.000000000000000000, 0.1108510534444137469 ) ) ;
#1018 = ORIENTED_EDGE ( 'NONE', *, *, #681, .F. ) ;
#1019 = ORIENTED_EDGE ( 'NONE', *, *, #114, .F. ) ;
#1020 = LINE ( 'NONE', #9, #308 ) ;
#1021 = FILL_AREA_STYLE ('',( #709 ) ) ;
#1022 =( NAMED_UNIT ( * ) PLANE_ANGLE_UNIT ( ) SI_UNIT ( $, .RADIAN. ) );
#1023 = ORIENTED_EDGE ( 'NONE', *, *, #787, .T. ) ;
#1024 =( LENGTH_UNIT ( ) NAMED_UNIT ( * ) SI_UNIT ( .MILLI., .METRE. ) );
#1025 = CARTESIAN_POINT ( 'NONE',  ( 1.949999999999999956, -0.2175000000000007205, 0.2174999999999993883 ) ) ;
ENDSEC;
END-ISO-10303-21;
