ISO-10303-21;
HEADER;
FILE_DESCRIPTION (( 'STEP AP214' ),
    '1' );
FILE_NAME ('M3.5 x 20 Screw head.STEP',
    '2023-03-28T04:22:51',
    ( '' ),
    ( '' ),
    'SwSTEP 2.0',
    'SolidWorks 2022',
    '' );
FILE_SCHEMA (( 'AUTOMOTIVE_DESIGN' ));
ENDSEC;

DATA;
#1 = CARTESIAN_POINT ( 'NONE',  ( 6.000000000000000000, 2.326828918379972351E-16, 0.000000000000000000 ) ) ;
#2 = SURFACE_STYLE_FILL_AREA ( #562 ) ;
#3 = DIRECTION ( 'NONE',  ( -0.1108510534444137469, 2.096348086633972484E-17, 0.9938370308809506559 ) ) ;
#4 = STYLED_ITEM ( 'NONE', ( #665 ), #180 ) ;
#5 = AXIS2_PLACEMENT_3D ( 'NONE', #1, #229, #317 ) ;
#6 = SURFACE_STYLE_FILL_AREA ( #714 ) ;
#7 = EDGE_CURVE ( 'NONE', #404, #871, #677, .T. ) ;
#8 =( GEOMETRIC_REPRESENTATION_CONTEXT ( 3 ) GLOBAL_UNCERTAINTY_ASSIGNED_CONTEXT ( ( #486 ) ) GLOBAL_UNIT_ASSIGNED_CONTEXT ( ( #270, #182, #589 ) ) REPRESENTATION_CONTEXT ( 'NONE', 'WORKASPACE' ) );
#9 = CARTESIAN_POINT ( 'NONE',  ( 4.309938594911940868, 1.891316923914901471, 2.356976916973721757E-16 ) ) ;
#10 = STYLED_ITEM ( 'NONE', ( #840 ), #925 ) ;
#11 = CARTESIAN_POINT ( 'NONE',  ( -25.39999999999996305, 2.143131898507868051E-16, -1.749999999999999778 ) ) ;
#12 = SURFACE_SIDE_STYLE ('',( #6 ) ) ;
#13 = SURFACE_SIDE_STYLE ('',( #341 ) ) ;
#14 = CARTESIAN_POINT ( 'NONE',  ( 1.949999999999999956, 0.2175000000000007205, -0.2174999999999992772 ) ) ;
#15 = SURFACE_STYLE_USAGE ( .BOTH. , #570 ) ;
#16 = ORIENTED_EDGE ( 'NONE', *, *, #710, .T. ) ;
#17 = SURFACE_STYLE_FILL_AREA ( #823 ) ;
#18 =( NAMED_UNIT ( * ) PLANE_ANGLE_UNIT ( ) SI_UNIT ( $, .RADIAN. ) );
#19 = COLOUR_RGB ( '',0.7764705882352941346, 0.7568627450980391913, 0.7372549019607843590 ) ;
#20 = ORIENTED_EDGE ( 'NONE', *, *, #735, .T. ) ;
#21 = CYLINDRICAL_SURFACE ( 'NONE', #734, 3.500000000000000444 ) ;
#22 = LINE ( 'NONE', #107, #38 ) ;
#23 = DIRECTION ( 'NONE',  ( 1.000000000000000000, 0.000000000000000000, 0.000000000000000000 ) ) ;
#24 = MECHANICAL_DESIGN_GEOMETRIC_PRESENTATION_REPRESENTATION (  '', ( #855 ), #770 ) ;
#25 = CIRCLE ( 'NONE', #648, 5.995482475482741158 ) ;
#26 = VERTEX_POINT ( 'NONE', #564 ) ;
#27 = DIRECTION ( 'NONE',  ( -1.000000000000000000, -0.000000000000000000, -0.000000000000000000 ) ) ;
#28 = UNCERTAINTY_MEASURE_WITH_UNIT (LENGTH_MEASURE( 1.000000000000000082E-05 ), #192, 'distance_accuracy_value', 'NONE');
#29 = FILL_AREA_STYLE_COLOUR ( '', #167 ) ;
#30 = ADVANCED_FACE ( 'NONE', ( #876 ), #794, .F. ) ;
#31 = ORIENTED_EDGE ( 'NONE', *, *, #72, .F. ) ;
#32 = FACE_OUTER_BOUND ( 'NONE', #35, .T. ) ;
#33 = APPLICATION_PROTOCOL_DEFINITION ( 'draft international standard', 'automotive_design', 1998, #417 ) ;
#34 = DIRECTION ( 'NONE',  ( -0.1108510534444137469, 2.096348086633972484E-17, 0.9938370308809506559 ) ) ;
#35 = EDGE_LOOP ( 'NONE', ( #253, #798, #843, #78 ) ) ;
#36 =( NAMED_UNIT ( * ) PLANE_ANGLE_UNIT ( ) SI_UNIT ( $, .RADIAN. ) );
#37 = TOROIDAL_SURFACE ( 'NONE', #130, 3.080000000000000515, 0.4200000000000000400 ) ;
#38 = VECTOR ( 'NONE', #177, 1000.000000000000000 ) ;
#39 = DIRECTION ( 'NONE',  ( 0.9877866216249069353, -0.1101762001043169320, 0.1101762001043165712 ) ) ;
#40 =( GEOMETRIC_REPRESENTATION_CONTEXT ( 3 ) GLOBAL_UNCERTAINTY_ASSIGNED_CONTEXT ( ( #438 ) ) GLOBAL_UNIT_ASSIGNED_CONTEXT ( ( #351, #726, #746 ) ) REPRESENTATION_CONTEXT ( 'NONE', 'WORKASPACE' ) );
#41 = CIRCLE ( 'NONE', #402, 5.995482475482740270 ) ;
#42 = DIRECTION ( 'NONE',  ( 0.000000000000000000, 0.000000000000000000, 1.000000000000000000 ) ) ;
#43 = ORIENTED_EDGE ( 'NONE', *, *, #903, .F. ) ;
#44 = CARTESIAN_POINT ( 'NONE',  ( 2.599999999999998312, 0.000000000000000000, 0.000000000000000000 ) ) ;
#45 = DIRECTION ( 'NONE',  ( 0.000000000000000000, 0.000000000000000000, 1.000000000000000000 ) ) ;
#46 = EDGE_CURVE ( 'NONE', #634, #891, #994, .T. ) ;
#47 = PRESENTATION_STYLE_ASSIGNMENT (( #205 ) ) ;
#48 = DIRECTION ( 'NONE',  ( 0.6663196743247736809, -2.603479645215216163E-15, 0.7456662065614397816 ) ) ;
#49 = ORIENTED_EDGE ( 'NONE', *, *, #312, .T. ) ;
#50 = FILL_AREA_STYLE_COLOUR ( '', #979 ) ;
#51 =( LENGTH_UNIT ( ) NAMED_UNIT ( * ) SI_UNIT ( .MILLI., .METRE. ) );
#52 = DIRECTION ( 'NONE',  ( 0.7431005017819711789, 0.6640269868487613802, -0.08288428673721975892 ) ) ;
#53 = ORIENTED_EDGE ( 'NONE', *, *, #115, .F. ) ;
#54 = COLOUR_RGB ( '',0.7764705882352941346, 0.7568627450980391913, 0.7372549019607843590 ) ;
#55 = CARTESIAN_POINT ( 'NONE',  ( 5.974195292295553905, 2.619630734554813543E-16, -0.2313525518329656583 ) ) ;
#56 = STYLED_ITEM ( 'NONE', ( #277 ), #292 ) ;
#57 = FACE_OUTER_BOUND ( 'NONE', #618, .T. ) ;
#58 = SURFACE_STYLE_FILL_AREA ( #552 ) ;
#59 = VECTOR ( 'NONE', #936, 999.9999999999998863 ) ;
#60 =( GEOMETRIC_REPRESENTATION_CONTEXT ( 3 ) GLOBAL_UNCERTAINTY_ASSIGNED_CONTEXT ( ( #806 ) ) GLOBAL_UNIT_ASSIGNED_CONTEXT ( ( #424, #18, #153 ) ) REPRESENTATION_CONTEXT ( 'NONE', 'WORKASPACE' ) );
#61 = CIRCLE ( 'NONE', #363, 5.437518987584764929 ) ;
#62 = EDGE_LOOP ( 'NONE', ( #316, #475, #357, #337, #826, #929, #487, #1017, #97, #389, #211 ) ) ;
#63 = LINE ( 'NONE', #274, #336 ) ;
#64 = DIRECTION ( 'NONE',  ( 0.6663196743247736809, -0.7456662065614397816, -9.292562311528023527E-17 ) ) ;
#65 = SURFACE_SIDE_STYLE ('',( #926 ) ) ;
#66 = ORIENTED_EDGE ( 'NONE', *, *, #324, .T. ) ;
#67 = EDGE_CURVE ( 'NONE', #396, #786, #961, .T. ) ;
#68 = SURFACE_STYLE_FILL_AREA ( #972 ) ;
#69 = CARTESIAN_POINT ( 'NONE',  ( 2.599999999999998312, 4.286263797015736595E-16, -3.500000000000000000 ) ) ;
#70 =( LENGTH_UNIT ( ) NAMED_UNIT ( * ) SI_UNIT ( .MILLI., .METRE. ) );
#71 = ORIENTED_EDGE ( 'NONE', *, *, #361, .F. ) ;
#72 = EDGE_CURVE ( 'NONE', #73, #786, #449, .T. ) ;
#73 = VERTEX_POINT ( 'NONE', #279 ) ;
#74 = DIRECTION ( 'NONE',  ( 0.6663196743247735698, 2.696405268330496621E-15, -0.7456662065614397816 ) ) ;
#75 = SURFACE_SIDE_STYLE ('',( #58 ) ) ;
#76 = AXIS2_PLACEMENT_3D ( 'NONE', #834, #507, #912 ) ;
#77 =( GEOMETRIC_REPRESENTATION_CONTEXT ( 3 ) GLOBAL_UNCERTAINTY_ASSIGNED_CONTEXT ( ( #273 ) ) GLOBAL_UNIT_ASSIGNED_CONTEXT ( ( #707, #409, #795 ) ) REPRESENTATION_CONTEXT ( 'NONE', 'WORKASPACE' ) );
#78 = ORIENTED_EDGE ( 'NONE', *, *, #136, .F. ) ;
#79 = VECTOR ( 'NONE', #52, 1000.000000000000000 ) ;
#80 = SURFACE_SIDE_STYLE ('',( #414 ) ) ;
#81 =( GEOMETRIC_REPRESENTATION_CONTEXT ( 3 ) GLOBAL_UNCERTAINTY_ASSIGNED_CONTEXT ( ( #284 ) ) GLOBAL_UNIT_ASSIGNED_CONTEXT ( ( #139, #993, #390 ) ) REPRESENTATION_CONTEXT ( 'NONE', 'WORKASPACE' ) );
#82 =( NAMED_UNIT ( * ) SI_UNIT ( $, .STERADIAN. ) SOLID_ANGLE_UNIT ( ) );
#83 = ADVANCED_FACE ( 'NONE', ( #126 ), #715, .T. ) ;
#84 = CARTESIAN_POINT ( 'NONE',  ( 22.60000000000000142, 0.000000000000000000, 0.000000000000000000 ) ) ;
#85 = UNCERTAINTY_MEASURE_WITH_UNIT (LENGTH_MEASURE( 1.000000000000000082E-05 ), #106, 'distance_accuracy_value', 'NONE');
#86 = FILL_AREA_STYLE ('',( #303 ) ) ;
#87 =( NAMED_UNIT ( * ) SI_UNIT ( $, .STERADIAN. ) SOLID_ANGLE_UNIT ( ) );
#88 = FILL_AREA_STYLE_COLOUR ( '', #626 ) ;
#89 = CARTESIAN_POINT ( 'NONE',  ( 2.599999999999998312, 2.143131898507868051E-16, -1.749999999999999778 ) ) ;
#90 =( LENGTH_UNIT ( ) NAMED_UNIT ( * ) SI_UNIT ( .MILLI., .METRE. ) );
#91 = PRESENTATION_LAYER_ASSIGNMENT (  '', '', ( #285 ) ) ;
#92 = COLOUR_RGB ( '',0.7764705882352941346, 0.7568627450980391913, 0.7372549019607843590 ) ;
#93 = VECTOR ( 'NONE', #480, 1000.000000000000000 ) ;
#94 = PRESENTATION_LAYER_ASSIGNMENT (  '', '', ( #1000 ) ) ;
#95 =( NAMED_UNIT ( * ) PLANE_ANGLE_UNIT ( ) SI_UNIT ( $, .RADIAN. ) );
#96 = FACE_OUTER_BOUND ( 'NONE', #141, .T. ) ;
#97 = ORIENTED_EDGE ( 'NONE', *, *, #500, .F. ) ;
#98 = ADVANCED_FACE ( 'NONE', ( #369 ), #37, .T. ) ;
#99 = DIRECTION ( 'NONE',  ( 0.000000000000000000, 0.000000000000000000, 1.000000000000000000 ) ) ;
#100 =( NAMED_UNIT ( * ) SI_UNIT ( $, .STERADIAN. ) SOLID_ANGLE_UNIT ( ) );
#101 =( NAMED_UNIT ( * ) PLANE_ANGLE_UNIT ( ) SI_UNIT ( $, .RADIAN. ) );
#102 = DIRECTION ( 'NONE',  ( 0.7456662065614395596, 0.000000000000000000, -0.6663196743247737919 ) ) ;
#103 =( GEOMETRIC_REPRESENTATION_CONTEXT ( 3 ) GLOBAL_UNCERTAINTY_ASSIGNED_CONTEXT ( ( #796 ) ) GLOBAL_UNIT_ASSIGNED_CONTEXT ( ( #318, #955, #940 ) ) REPRESENTATION_CONTEXT ( 'NONE', 'WORKASPACE' ) );
#104 = COLOUR_RGB ( '',0.7764705882352941346, 0.7568627450980391913, 0.7372549019607843590 ) ;
#105 = EDGE_LOOP ( 'NONE', ( #939, #176, #71 ) ) ;
#106 =( LENGTH_UNIT ( ) NAMED_UNIT ( * ) SI_UNIT ( .MILLI., .METRE. ) );
#107 = CARTESIAN_POINT ( 'NONE',  ( 0.000000000000000000, 1.959999999999999964, 0.4350000000000001088 ) ) ;
#108 = MECHANICAL_DESIGN_GEOMETRIC_PRESENTATION_REPRESENTATION (  '', ( #135 ), #963 ) ;
#109 = VECTOR ( 'NONE', #465, 1000.000000000000000 ) ;
#110 =( NAMED_UNIT ( * ) SI_UNIT ( $, .STERADIAN. ) SOLID_ANGLE_UNIT ( ) );
#111 = ADVANCED_FACE ( 'NONE', ( #57 ), #305, .F. ) ;
#112 = ORIENTED_EDGE ( 'NONE', *, *, #809, .F. ) ;
#113 = FILL_AREA_STYLE_COLOUR ( '', #873 ) ;
#114 = ORIENTED_EDGE ( 'NONE', *, *, #809, .T. ) ;
#115 = EDGE_CURVE ( 'NONE', #634, #233, #494, .T. ) ;
#116 = STYLED_ITEM ( 'NONE', ( #326 ), #175 ) ;
#117 = STYLED_ITEM ( 'NONE', ( #771 ), #345 ) ;
#118 = LINE ( 'NONE', #756, #435 ) ;
#119 = LINE ( 'NONE', #900, #498 ) ;
#120 = CIRCLE ( 'NONE', #947, 3.311827956989247479 ) ;
#121 = AXIS2_PLACEMENT_3D ( 'NONE', #1024, #625, #804 ) ;
#122 =( LENGTH_UNIT ( ) NAMED_UNIT ( * ) SI_UNIT ( .MILLI., .METRE. ) );
#123 = DIRECTION ( 'NONE',  ( 0.9938370308809507669, -0.1108510534444137746, 0.000000000000000000 ) ) ;
#124 = EDGE_LOOP ( 'NONE', ( #535, #223, #53 ) ) ;
#125 = LINE ( 'NONE', #218, #109 ) ;
#126 = FACE_OUTER_BOUND ( 'NONE', #781, .T. ) ;
#127 = PRESENTATION_STYLE_ASSIGNMENT (( #289 ) ) ;
#128 = SURFACE_SIDE_STYLE ('',( #537 ) ) ;
#129 = ORIENTED_EDGE ( 'NONE', *, *, #935, .F. ) ;
#130 = AXIS2_PLACEMENT_3D ( 'NONE', #461, #763, #547 ) ;
#131 =( LENGTH_UNIT ( ) NAMED_UNIT ( * ) SI_UNIT ( .MILLI., .METRE. ) );
#132 = AXIS2_PLACEMENT_3D ( 'NONE', #161, #413, #717 ) ;
#133 = PRESENTATION_STYLE_ASSIGNMENT (( #214 ) ) ;
#134 =( GEOMETRIC_REPRESENTATION_CONTEXT ( 3 ) GLOBAL_UNCERTAINTY_ASSIGNED_CONTEXT ( ( #415 ) ) GLOBAL_UNIT_ASSIGNED_CONTEXT ( ( #70, #36, #359 ) ) REPRESENTATION_CONTEXT ( 'NONE', 'WORKASPACE' ) );
#135 = STYLED_ITEM ( 'NONE', ( #410 ), #727 ) ;
#136 = EDGE_CURVE ( 'NONE', #864, #291, #281, .T. ) ;
#137 = COLOUR_RGB ( '',0.7764705882352941346, 0.7568627450980391913, 0.7372549019607843590 ) ;
#138 = ORIENTED_EDGE ( 'NONE', *, *, #741, .T. ) ;
#139 =( LENGTH_UNIT ( ) NAMED_UNIT ( * ) SI_UNIT ( .MILLI., .METRE. ) );
#140 = DIRECTION ( 'NONE',  ( 0.6663196743247736809, 2.696405268330496226E-15, -0.7456662065614397816 ) ) ;
#141 = EDGE_LOOP ( 'NONE', ( #301, #822, #860, #760 ) ) ;
#142 = CARTESIAN_POINT ( 'NONE',  ( -25.39999999999996305, 0.000000000000000000, 3.500000000000000444 ) ) ;
#143 = CARTESIAN_POINT ( 'NONE',  ( 0.9968214519863044520, 0.000000000000000000, 0.000000000000000000 ) ) ;
#144 = VERTEX_POINT ( 'NONE', #878 ) ;
#145 = CARTESIAN_POINT ( 'NONE',  ( 0.000000000000000000, -0.4349999999999927813, -1.960000000000001741 ) ) ;
#146 = CARTESIAN_POINT ( 'NONE',  ( -25.39999999999996305, 0.000000000000000000, 1.749999999999999778 ) ) ;
#147 = FILL_AREA_STYLE ('',( #863 ) ) ;
#148 = ORIENTED_EDGE ( 'NONE', *, *, #865, .F. ) ;
#149 = ADVANCED_FACE ( 'NONE', ( #479 ), #231, .T. ) ;
#150 = SURFACE_STYLE_USAGE ( .BOTH. , #932 ) ;
#151 = FACE_OUTER_BOUND ( 'NONE', #490, .T. ) ;
#152 = MECHANICAL_DESIGN_GEOMETRIC_PRESENTATION_REPRESENTATION (  '', ( #4 ), #434 ) ;
#153 =( NAMED_UNIT ( * ) SI_UNIT ( $, .STERADIAN. ) SOLID_ANGLE_UNIT ( ) );
#154 = STYLED_ITEM ( 'NONE', ( #654 ), #590 ) ;
#155 = DIRECTION ( 'NONE',  ( 0.000000000000000000, 0.000000000000000000, 1.000000000000000000 ) ) ;
#156 = STYLED_ITEM ( 'NONE', ( #127 ), #846 ) ;
#157 = AXIS2_PLACEMENT_3D ( 'NONE', #381, #684, #1004 ) ;
#158 = AXIS2_PLACEMENT_3D ( 'NONE', #532, #692, #844 ) ;
#159 = DIRECTION ( 'NONE',  ( 0.000000000000000000, 0.000000000000000000, 1.000000000000000000 ) ) ;
#160 = CYLINDRICAL_SURFACE ( 'NONE', #930, 1.749999999999999778 ) ;
#161 = CARTESIAN_POINT ( 'NONE',  ( 5.974195292295553905, 2.375629221075779134E-16, 0.2313525518329657416 ) ) ;
#162 = FILL_AREA_STYLE ('',( #311 ) ) ;
#163 = SURFACE_STYLE_USAGE ( .BOTH. , #321 ) ;
#164 = CARTESIAN_POINT ( 'NONE',  ( 6.000000000000000000, 2.326828918379972351E-16, 0.000000000000000000 ) ) ;
#165 = MECHANICAL_DESIGN_GEOMETRIC_PRESENTATION_REPRESENTATION (  '', ( #397 ), #812 ) ;
#166 = EDGE_CURVE ( 'NONE', #871, #215, #237, .T. ) ;
#167 = COLOUR_RGB ( '',0.7764705882352941346, 0.7568627450980391913, 0.7372549019607843590 ) ;
#168 = VECTOR ( 'NONE', #951, 1000.000000000000000 ) ;
#169 =( LENGTH_UNIT ( ) NAMED_UNIT ( * ) SI_UNIT ( .MILLI., .METRE. ) );
#170 = SURFACE_SIDE_STYLE ('',( #587 ) ) ;
#171 = MECHANICAL_DESIGN_GEOMETRIC_PRESENTATION_REPRESENTATION (  '', ( #738 ), #563 ) ;
#172 = UNCERTAINTY_MEASURE_WITH_UNIT (LENGTH_MEASURE( 1.000000000000000082E-05 ), #313, 'distance_accuracy_value', 'NONE');
#173 = CARTESIAN_POINT ( 'NONE',  ( 0.03111693966988560850, -0.4315292644214371864, 0.4315292644214354101 ) ) ;
#174 = DIRECTION ( 'NONE',  ( 0.000000000000000000, -1.000000000000000000, -1.246209393661499126E-16 ) ) ;
#175 = ADVANCED_FACE ( 'NONE', ( #151 ), #556, .T. ) ;
#176 = ORIENTED_EDGE ( 'NONE', *, *, #569, .T. ) ;
#177 = DIRECTION ( 'NONE',  ( 0.7431005017819711789, -0.6640269868487613802, -0.08288428673721992546 ) ) ;
#178 = PRESENTATION_STYLE_ASSIGNMENT (( #759 ) ) ;
#179 = CARTESIAN_POINT ( 'NONE',  ( 2.193400286944045430, -4.336808689942017736E-16, -0.1903515064562410486 ) ) ;
#180 = ADVANCED_FACE ( 'NONE', ( #267 ), #262, .T. ) ;
#181 = CARTESIAN_POINT ( 'NONE',  ( 1.949999999999999956, -0.2175000000000000266, -0.2174999999999999989 ) ) ;
#182 =( NAMED_UNIT ( * ) PLANE_ANGLE_UNIT ( ) SI_UNIT ( $, .RADIAN. ) );
#183 = CLOSED_SHELL ( 'NONE', ( #98, #557, #621, #149, #476, #196, #1025, #693, #180, #727, #892, #590, #83, #883, #991, #30, #175, #111, #846, #768, #292, #640, #345 ) ) ;
#184 = AXIS2_PLACEMENT_3D ( 'NONE', #712, #950, #718 ) ;
#185 = MECHANICAL_DESIGN_GEOMETRIC_PRESENTATION_REPRESENTATION (  '', ( #945 ), #77 ) ;
#186 = ORIENTED_EDGE ( 'NONE', *, *, #688, .T. ) ;
#187 = MECHANICAL_DESIGN_GEOMETRIC_PRESENTATION_REPRESENTATION (  '', ( #630 ), #134 ) ;
#188 = CARTESIAN_POINT ( 'NONE',  ( 2.599999999999998312, 0.000000000000000000, 1.749999999999999778 ) ) ;
#189 = CIRCLE ( 'NONE', #382, 5.995482475482740270 ) ;
#190 = PLANE ( 'NONE',  #573 ) ;
#191 = AXIS2_PLACEMENT_3D ( 'NONE', #179, #502, #425 ) ;
#192 =( LENGTH_UNIT ( ) NAMED_UNIT ( * ) SI_UNIT ( .MILLI., .METRE. ) );
#193 = DIRECTION ( 'NONE',  ( 0.7431005017819711789, 0.08288428673722224305, -0.6640269868487610472 ) ) ;
#194 =( NAMED_UNIT ( * ) SI_UNIT ( $, .STERADIAN. ) SOLID_ANGLE_UNIT ( ) );
#195 = CARTESIAN_POINT ( 'NONE',  ( 1.949999999999999956, -0.2175000000000000266, -0.2174999999999999711 ) ) ;
#196 = ADVANCED_FACE ( 'NONE', ( #827 ), #190, .T. ) ;
#197 = DIRECTION ( 'NONE',  ( -0.1108510534444136914, 0.9938370308809506559, 3.595744332370143179E-15 ) ) ;
#198 = CARTESIAN_POINT ( 'NONE',  ( 22.60000000000000142, 1.749999999999999778, 0.000000000000000000 ) ) ;
#199 = DIRECTION ( 'NONE',  ( 0.000000000000000000, 0.000000000000000000, 1.000000000000000000 ) ) ;
#200 = VERTEX_POINT ( 'NONE', #173 ) ;
#201 = AXIS2_PLACEMENT_3D ( 'NONE', #195, #440, #829 ) ;
#202 = AXIS2_PLACEMENT_3D ( 'NONE', #44, #367, #683 ) ;
#203 = DIRECTION ( 'NONE',  ( -1.000000000000000000, -0.000000000000000000, -0.000000000000000000 ) ) ;
#204 =( NAMED_UNIT ( * ) PLANE_ANGLE_UNIT ( ) SI_UNIT ( $, .RADIAN. ) );
#205 = SURFACE_STYLE_USAGE ( .BOTH. , #65 ) ;
#206 = EDGE_LOOP ( 'NONE', ( #471, #295, #148, #982, #228 ) ) ;
#207 =( NAMED_UNIT ( * ) PLANE_ANGLE_UNIT ( ) SI_UNIT ( $, .RADIAN. ) );
#208 = APPLICATION_CONTEXT ( 'automotive_design' ) ;
#209 = DIRECTION ( 'NONE',  ( 0.9938370308809507669, -0.1108510534444137746, 0.000000000000000000 ) ) ;
#210 = FILL_AREA_STYLE_COLOUR ( '', #416 ) ;
#211 = ORIENTED_EDGE ( 'NONE', *, *, #312, .F. ) ;
#212 = DIRECTION ( 'NONE',  ( 1.000000000000000000, 0.000000000000000000, 0.000000000000000000 ) ) ;
#213 = FACE_OUTER_BOUND ( 'NONE', #436, .T. ) ;
#214 = SURFACE_STYLE_USAGE ( .BOTH. , #1005 ) ;
#215 = VERTEX_POINT ( 'NONE', #894 ) ;
#216 = STYLED_ITEM ( 'NONE', ( #703 ), #149 ) ;
#217 = CARTESIAN_POINT ( 'NONE',  ( 2.193400286944045430, -0.1903515064562409931, -2.309278636184418912E-16 ) ) ;
#218 = CARTESIAN_POINT ( 'NONE',  ( 1.949999999999999956, -0.2175000000000000266, -0.2174999999999999989 ) ) ;
#219 = FILL_AREA_STYLE ('',( #776 ) ) ;
#220 =( GEOMETRIC_REPRESENTATION_CONTEXT ( 3 ) GLOBAL_UNCERTAINTY_ASSIGNED_CONTEXT ( ( #172 ) ) GLOBAL_UNIT_ASSIGNED_CONTEXT ( ( #313, #833, #753 ) ) REPRESENTATION_CONTEXT ( 'NONE', 'WORKASPACE' ) );
#221 = DIRECTION ( 'NONE',  ( 0.000000000000000000, 0.000000000000000000, 1.000000000000000000 ) ) ;
#222 = COLOUR_RGB ( '',0.7764705882352941346, 0.7568627450980391913, 0.7372549019607843590 ) ;
#223 = ORIENTED_EDGE ( 'NONE', *, *, #306, .F. ) ;
#224 = PRESENTATION_STYLE_ASSIGNMENT (( #150 ) ) ;
#225 = CARTESIAN_POINT ( 'NONE',  ( 22.60000000000000142, 2.143131898507868051E-16, -1.749999999999999778 ) ) ;
#226 = CARTESIAN_POINT ( 'NONE',  ( 2.193400286944045430, -0.1903515064562409931, -2.309278636184418912E-16 ) ) ;
#227 = LINE ( 'NONE', #1015, #59 ) ;
#228 = ORIENTED_EDGE ( 'NONE', *, *, #548, .F. ) ;
#229 = DIRECTION ( 'NONE',  ( -0.000000000000000000, 0.000000000000000000, -1.000000000000000000 ) ) ;
#230 = ORIENTED_EDGE ( 'NONE', *, *, #705, .T. ) ;
#231 = SPHERICAL_SURFACE ( 'NONE', #678, 6.000000000000000000 ) ;
#232 = DIRECTION ( 'NONE',  ( -1.000000000000000000, -0.000000000000000000, -0.000000000000000000 ) ) ;
#233 = VERTEX_POINT ( 'NONE', #181 ) ;
#234 = EDGE_CURVE ( 'NONE', #786, #674, #22, .T. ) ;
#235 =( NAMED_UNIT ( * ) SI_UNIT ( $, .STERADIAN. ) SOLID_ANGLE_UNIT ( ) );
#236 = AXIS2_PLACEMENT_3D ( 'NONE', #242, #330, #155 ) ;
#237 = CIRCLE ( 'NONE', #376, 3.311827956989247479 ) ;
#238 = DIRECTION ( 'NONE',  ( 0.000000000000000000, 0.000000000000000000, 1.000000000000000000 ) ) ;
#239 = VECTOR ( 'NONE', #882, 1000.000000000000000 ) ;
#240 =( GEOMETRIC_REPRESENTATION_CONTEXT ( 3 ) GLOBAL_UNCERTAINTY_ASSIGNED_CONTEXT ( ( #754 ) ) GLOBAL_UNIT_ASSIGNED_CONTEXT ( ( #169, #431, #443 ) ) REPRESENTATION_CONTEXT ( 'NONE', 'WORKASPACE' ) );
#241 = MECHANICAL_DESIGN_GEOMETRIC_PRESENTATION_REPRESENTATION (  '', ( #156 ), #719 ) ;
#242 = CARTESIAN_POINT ( 'NONE',  ( 0.9968214519863044520, 0.000000000000000000, 0.000000000000000000 ) ) ;
#243 = CIRCLE ( 'NONE', #546, 5.995482475482740270 ) ;
#244 = FILL_AREA_STYLE_COLOUR ( '', #403 ) ;
#245 = DIRECTION ( 'NONE',  ( -1.000000000000000000, -0.000000000000000000, -0.000000000000000000 ) ) ;
#246 = ORIENTED_EDGE ( 'NONE', *, *, #779, .T. ) ;
#247 = FACE_OUTER_BOUND ( 'NONE', #456, .T. ) ;
#248 = FILL_AREA_STYLE ('',( #244 ) ) ;
#249 = LINE ( 'NONE', #964, #818 ) ;
#250 = SURFACE_STYLE_FILL_AREA ( #960 ) ;
#251 = STYLED_ITEM ( 'NONE', ( #47 ), #83 ) ;
#252 =( GEOMETRIC_REPRESENTATION_CONTEXT ( 3 ) GLOBAL_UNCERTAINTY_ASSIGNED_CONTEXT ( ( #664 ) ) GLOBAL_UNIT_ASSIGNED_CONTEXT ( ( #51, #592, #857 ) ) REPRESENTATION_CONTEXT ( 'NONE', 'WORKASPACE' ) );
#253 = ORIENTED_EDGE ( 'NONE', *, *, #324, .F. ) ;
#254 = PRESENTATION_LAYER_ASSIGNMENT (  '', '', ( #998 ) ) ;
#255 = PRESENTATION_LAYER_ASSIGNMENT (  '', '', ( #888 ) ) ;
#256 = CIRCLE ( 'NONE', #685, 0.4199999999999998179 ) ;
#257 = SURFACE_STYLE_USAGE ( .BOTH. , #962 ) ;
#258 = DIRECTION ( 'NONE',  ( -1.000000000000000000, -0.000000000000000000, -0.000000000000000000 ) ) ;
#259 = EDGE_CURVE ( 'NONE', #752, #791, #978, .T. ) ;
#260 = VERTEX_POINT ( 'NONE', #810 ) ;
#261 =( NAMED_UNIT ( * ) SI_UNIT ( $, .STERADIAN. ) SOLID_ANGLE_UNIT ( ) );
#262 = PLANE ( 'NONE',  #885 ) ;
#263 = CARTESIAN_POINT ( 'NONE',  ( 2.193400286944045430, 0.1903515064562410486, 2.309278636184420884E-16 ) ) ;
#264 = AXIS2_PLACEMENT_3D ( 'NONE', #422, #635, #800 ) ;
#265 = ORIENTED_EDGE ( 'NONE', *, *, #275, .T. ) ;
#266 = COLOUR_RGB ( '',0.7921568627450980005, 0.8196078431372548767, 0.9333333333333333481 ) ;
#267 = FACE_OUTER_BOUND ( 'NONE', #271, .T. ) ;
#268 = DIRECTION ( 'NONE',  ( 0.7431005017819711789, 0.6640269868487613802, 0.08288428673721986994 ) ) ;
#269 = AXIS2_PLACEMENT_3D ( 'NONE', #841, #298, #922 ) ;
#270 =( LENGTH_UNIT ( ) NAMED_UNIT ( * ) SI_UNIT ( .MILLI., .METRE. ) );
#271 = EDGE_LOOP ( 'NONE', ( #1009, #350, #129 ) ) ;
#272 = FILL_AREA_STYLE ('',( #505 ) ) ;
#273 = UNCERTAINTY_MEASURE_WITH_UNIT (LENGTH_MEASURE( 1.000000000000000082E-05 ), #707, 'distance_accuracy_value', 'NONE');
#274 = CARTESIAN_POINT ( 'NONE',  ( 2.214116351126373505, -0.1880408685282114467, -0.1880408685282121684 ) ) ;
#275 = EDGE_CURVE ( 'NONE', #674, #73, #520, .T. ) ;
#276 = DIRECTION ( 'NONE',  ( 0.9938370308809506559, -0.1108510534444137469, -3.870343844922734420E-16 ) ) ;
#277 = PRESENTATION_STYLE_ASSIGNMENT (( #391 ) ) ;
#278 = SURFACE_SIDE_STYLE ('',( #392 ) ) ;
#279 = CARTESIAN_POINT ( 'NONE',  ( 0.03111693966988647586, 0.4315292644214342443, 0.4315292644214356321 ) ) ;
#280 = CARTESIAN_POINT ( 'NONE',  ( 1.949999999999999956, 0.2175000000000007483, -0.2174999999999992772 ) ) ;
#281 = CIRCLE ( 'NONE', #870, 3.500000000000000444 ) ;
#282 = ORIENTED_EDGE ( 'NONE', *, *, #816, .T. ) ;
#283 =( GEOMETRIC_REPRESENTATION_CONTEXT ( 3 ) GLOBAL_UNCERTAINTY_ASSIGNED_CONTEXT ( ( #730 ) ) GLOBAL_UNIT_ASSIGNED_CONTEXT ( ( #122, #842, #82 ) ) REPRESENTATION_CONTEXT ( 'NONE', 'WORKASPACE' ) );
#284 = UNCERTAINTY_MEASURE_WITH_UNIT (LENGTH_MEASURE( 1.000000000000000082E-05 ), #139, 'distance_accuracy_value', 'NONE');
#285 = STYLED_ITEM ( 'NONE', ( #743 ), #196 ) ;
#286 = DIRECTION ( 'NONE',  ( 0.000000000000000000, 0.000000000000000000, -1.000000000000000000 ) ) ;
#287 = STYLED_ITEM ( 'NONE', ( #586 ), #640 ) ;
#288 = AXIS2_PLACEMENT_3D ( 'NONE', #263, #510, #750 ) ;
#289 = SURFACE_STYLE_USAGE ( .BOTH. , #75 ) ;
#290 = PRESENTATION_LAYER_ASSIGNMENT (  '', '', ( #803 ) ) ;
#291 = VERTEX_POINT ( 'NONE', #732 ) ;
#292 = ADVANCED_FACE ( 'NONE', ( #509 ), #439, .F. ) ;
#293 = LINE ( 'NONE', #602, #239 ) ;
#294 = FILL_AREA_STYLE_COLOUR ( '', #420 ) ;
#295 = ORIENTED_EDGE ( 'NONE', *, *, #411, .F. ) ;
#296 = APPLICATION_PROTOCOL_DEFINITION ( 'draft international standard', 'automotive_design', 1998, #208 ) ;
#297 = FILL_AREA_STYLE ('',( #528 ) ) ;
#298 = DIRECTION ( 'NONE',  ( -1.000000000000000000, 0.000000000000000000, -0.000000000000000000 ) ) ;
#299 = SURFACE_STYLE_USAGE ( .BOTH. , #128 ) ;
#300 = DIRECTION ( 'NONE',  ( -0.1108510534444137469, -0.9938370308809506559, -3.448999966305766196E-15 ) ) ;
#301 = ORIENTED_EDGE ( 'NONE', *, *, #705, .F. ) ;
#302 = AXIS2_PLACEMENT_3D ( 'NONE', #14, #74, #401 ) ;
#303 = FILL_AREA_STYLE_COLOUR ( '', #645 ) ;
#304 = DIRECTION ( 'NONE',  ( -0.9938370308809507669, 0.000000000000000000, 0.1108510534444137052 ) ) ;
#305 = PLANE ( 'NONE',  #302 ) ;
#306 = EDGE_CURVE ( 'NONE', #233, #891, #63, .T. ) ;
#307 = AXIS2_PLACEMENT_3D ( 'NONE', #655, #354, #658 ) ;
#308 = ORIENTED_EDGE ( 'NONE', *, *, #374, .T. ) ;
#309 = UNCERTAINTY_MEASURE_WITH_UNIT (LENGTH_MEASURE( 1.000000000000000082E-05 ), #651, 'distance_accuracy_value', 'NONE');
#310 = LINE ( 'NONE', #142, #378 ) ;
#311 = FILL_AREA_STYLE_COLOUR ( '', #1014 ) ;
#312 = EDGE_CURVE ( 'NONE', #215, #396, #872, .T. ) ;
#313 =( LENGTH_UNIT ( ) NAMED_UNIT ( * ) SI_UNIT ( .MILLI., .METRE. ) );
#314 =( LENGTH_UNIT ( ) NAMED_UNIT ( * ) SI_UNIT ( .MILLI., .METRE. ) );
#315 = CARTESIAN_POINT ( 'NONE',  ( 0.9968214519863044520, 0.000000000000000000, 0.000000000000000000 ) ) ;
#316 = ORIENTED_EDGE ( 'NONE', *, *, #607, .T. ) ;
#317 = DIRECTION ( 'NONE',  ( 0.000000000000000000, 1.000000000000000000, 0.000000000000000000 ) ) ;
#318 =( LENGTH_UNIT ( ) NAMED_UNIT ( * ) SI_UNIT ( .MILLI., .METRE. ) );
#319 = PRESENTATION_LAYER_ASSIGNMENT (  '', '', ( #117 ) ) ;
#320 = CIRCLE ( 'NONE', #997, 3.500000000000000000 ) ;
#321 = SURFACE_SIDE_STYLE ('',( #880 ) ) ;
#322 = PRESENTATION_LAYER_ASSIGNMENT (  '', '', ( #855 ) ) ;
#323 = ORIENTED_EDGE ( 'NONE', *, *, #954, .F. ) ;
#324 = EDGE_CURVE ( 'NONE', #967, #864, #372, .T. ) ;
#325 = CARTESIAN_POINT ( 'NONE',  ( 0.2553644383338094515, -1.731808957027352047, -2.120854295958262972E-16 ) ) ;
#326 = PRESENTATION_STYLE_ASSIGNMENT (( #875 ) ) ;
#327 = FACE_OUTER_BOUND ( 'NONE', #653, .T. ) ;
#328 = DIRECTION ( 'NONE',  ( 0.000000000000000000, 1.000000000000000000, 0.000000000000000000 ) ) ;
#329 = FILL_AREA_STYLE_COLOUR ( '', #999 ) ;
#330 = DIRECTION ( 'NONE',  ( -1.000000000000000000, -0.000000000000000000, -0.000000000000000000 ) ) ;
#331 = ORIENTED_EDGE ( 'NONE', *, *, #959, .F. ) ;
#332 = CARTESIAN_POINT ( 'NONE',  ( 2.193400286944045430, 4.336808689942017736E-16, 0.1903515064562409931 ) ) ;
#333 = CARTESIAN_POINT ( 'NONE',  ( 5.974195292295553905, 0.2313525518329656860, 8.370432990360215258E-16 ) ) ;
#334 = CARTESIAN_POINT ( 'NONE',  ( 1.949999999999999956, 0.2175000000000001377, 0.2174999999999999711 ) ) ;
#335 = PRESENTATION_LAYER_ASSIGNMENT (  '', '', ( #251 ) ) ;
#336 = VECTOR ( 'NONE', #761, 1000.000000000000000 ) ;
#337 = ORIENTED_EDGE ( 'NONE', *, *, #976, .T. ) ;
#338 = PRESENTATION_LAYER_ASSIGNMENT (  '', '', ( #630 ) ) ;
#339 = AXIS2_PLACEMENT_3D ( 'NONE', #980, #521, #42 ) ;
#340 = ORIENTED_EDGE ( 'NONE', *, *, #136, .T. ) ;
#341 = SURFACE_STYLE_FILL_AREA ( #347 ) ;
#342 = FILL_AREA_STYLE_COLOUR ( '', #104 ) ;
#343 = PRESENTATION_STYLE_ASSIGNMENT (( #644 ) ) ;
#344 = CARTESIAN_POINT ( 'NONE',  ( 0.03111693966988560850, 0.4315292644214372975, -0.4315292644214357431 ) ) ;
#345 = ADVANCED_FACE ( 'NONE', ( #386 ), #845, .T. ) ;
#346 = ORIENTED_EDGE ( 'NONE', *, *, #7, .T. ) ;
#347 = FILL_AREA_STYLE ('',( #519 ) ) ;
#348 =( LENGTH_UNIT ( ) NAMED_UNIT ( * ) SI_UNIT ( .MILLI., .METRE. ) );
#349 = DIRECTION ( 'NONE',  ( -0.1108510534444136914, 0.9938370308809506559, 3.595744332370143968E-15 ) ) ;
#350 = ORIENTED_EDGE ( 'NONE', *, *, #361, .T. ) ;
#351 =( LENGTH_UNIT ( ) NAMED_UNIT ( * ) SI_UNIT ( .MILLI., .METRE. ) );
#352 = UNCERTAINTY_MEASURE_WITH_UNIT (LENGTH_MEASURE( 1.000000000000000082E-05 ), #990, 'distance_accuracy_value', 'NONE');
#353 = DIRECTION ( 'NONE',  ( 0.6663196743247736809, 0.7456662065614397816, 0.000000000000000000 ) ) ;
#354 = DIRECTION ( 'NONE',  ( -0.1108510534444136914, 0.9938370308809506559, 3.595744332370143968E-15 ) ) ;
#355 = COLOUR_RGB ( '',0.7764705882352941346, 0.7568627450980391913, 0.7372549019607843590 ) ;
#356 = VECTOR ( 'NONE', #921, 1000.000000000000000 ) ;
#357 = ORIENTED_EDGE ( 'NONE', *, *, #488, .T. ) ;
#358 = CIRCLE ( 'NONE', #928, 5.437518987584765817 ) ;
#359 =( NAMED_UNIT ( * ) SI_UNIT ( $, .STERADIAN. ) SOLID_ANGLE_UNIT ( ) );
#360 = VECTOR ( 'NONE', #268, 1000.000000000000000 ) ;
#361 = EDGE_CURVE ( 'NONE', #200, #702, #118, .T. ) ;
#362 = FILL_AREA_STYLE_COLOUR ( '', #466 ) ;
#363 = AXIS2_PLACEMENT_3D ( 'NONE', #533, #64, #603 ) ;
#364 = CARTESIAN_POINT ( 'NONE',  ( 1.347043950347263763, 3.771912141373848894E-16, -3.080000000000000515 ) ) ;
#365 = EDGE_LOOP ( 'NONE', ( #1023, #412 ) ) ;
#366 = UNCERTAINTY_MEASURE_WITH_UNIT (LENGTH_MEASURE( 1.000000000000000082E-05 ), #884, 'distance_accuracy_value', 'NONE');
#367 = DIRECTION ( 'NONE',  ( -1.000000000000000000, -0.000000000000000000, -0.000000000000000000 ) ) ;
#368 = CARTESIAN_POINT ( 'NONE',  ( 1.347043950347263763, 0.000000000000000000, 3.080000000000000515 ) ) ;
#369 = FACE_OUTER_BOUND ( 'NONE', #451, .T. ) ;
#370 = PRESENTATION_STYLE_ASSIGNMENT (( #673 ) ) ;
#371 = ORIENTED_EDGE ( 'NONE', *, *, #667, .F. ) ;
#372 = LINE ( 'NONE', #543, #701 ) ;
#373 = CARTESIAN_POINT ( 'NONE',  ( 5.974195292295553905, -0.2313525518329657138, -8.028830871489587498E-16 ) ) ;
#374 = EDGE_CURVE ( 'NONE', #1001, #583, #679, .T. ) ;
#375 = STYLED_ITEM ( 'NONE', ( #517 ), #30 ) ;
#376 = AXIS2_PLACEMENT_3D ( 'NONE', #315, #624, #238 ) ;
#377 = ORIENTED_EDGE ( 'NONE', *, *, #259, .T. ) ;
#378 = VECTOR ( 'NONE', #405, 1000.000000000000000 ) ;
#379 = PRESENTATION_LAYER_ASSIGNMENT (  '', '', ( #154 ) ) ;
#380 = DIRECTION ( 'NONE',  ( 0.9877866216249069353, 0.1101762001043169042, -0.1101762001043164879 ) ) ;
#381 = CARTESIAN_POINT ( 'NONE',  ( 2.599999999999998312, 0.000000000000000000, 0.000000000000000000 ) ) ;
#382 = AXIS2_PLACEMENT_3D ( 'NONE', #445, #652, #123 ) ;
#383 = AXIS2_PLACEMENT_3D ( 'NONE', #198, #23, #676 ) ;
#384 = FILL_AREA_STYLE_COLOUR ( '', #19 ) ;
#385 = ORIENTED_EDGE ( 'NONE', *, *, #672, .T. ) ;
#386 = FACE_OUTER_BOUND ( 'NONE', #105, .T. ) ;
#387 = PRESENTATION_STYLE_ASSIGNMENT (( #772 ) ) ;
#388 = SURFACE_STYLE_USAGE ( .BOTH. , #869 ) ;
#389 = ORIENTED_EDGE ( 'NONE', *, *, #903, .T. ) ;
#390 =( NAMED_UNIT ( * ) SI_UNIT ( $, .STERADIAN. ) SOLID_ANGLE_UNIT ( ) );
#391 = SURFACE_STYLE_USAGE ( .BOTH. , #598 ) ;
#392 = SURFACE_STYLE_FILL_AREA ( #599 ) ;
#393 = ORIENTED_EDGE ( 'NONE', *, *, #234, .F. ) ;
#394 =( NAMED_UNIT ( * ) PLANE_ANGLE_UNIT ( ) SI_UNIT ( $, .RADIAN. ) );
#395 = DIRECTION ( 'NONE',  ( -1.000000000000000000, -0.000000000000000000, -0.000000000000000000 ) ) ;
#396 = VERTEX_POINT ( 'NONE', #669 ) ;
#397 = STYLED_ITEM ( 'NONE', ( #473 ), #98 ) ;
#398 = PRESENTATION_STYLE_ASSIGNMENT (( #559 ) ) ;
#399 = PRESENTATION_LAYER_ASSIGNMENT (  '', '', ( #945 ) ) ;
#400 = ORIENTED_EDGE ( 'NONE', *, *, #865, .T. ) ;
#401 = DIRECTION ( 'NONE',  ( 0.7456662065614397816, -2.326442708608981349E-15, 0.6663196743247735698 ) ) ;
#402 = AXIS2_PLACEMENT_3D ( 'NONE', #713, #3, #986 ) ;
#403 = COLOUR_RGB ( '',0.7764705882352941346, 0.7568627450980391913, 0.7372549019607843590 ) ;
#404 = VERTEX_POINT ( 'NONE', #988 ) ;
#405 = DIRECTION ( 'NONE',  ( -1.000000000000000000, -0.000000000000000000, -0.000000000000000000 ) ) ;
#406 = EDGE_LOOP ( 'NONE', ( #775, #16, #524, #604 ) ) ;
#407 =( LENGTH_UNIT ( ) NAMED_UNIT ( * ) SI_UNIT ( .MILLI., .METRE. ) );
#408 = CARTESIAN_POINT ( 'NONE',  ( 0.2666411873824114376, 0.4052592521765831513, -1.721732169736484019 ) ) ;
#409 =( NAMED_UNIT ( * ) PLANE_ANGLE_UNIT ( ) SI_UNIT ( $, .RADIAN. ) );
#410 = PRESENTATION_STYLE_ASSIGNMENT (( #15 ) ) ;
#411 = EDGE_CURVE ( 'NONE', #233, #702, #459, .T. ) ;
#412 = ORIENTED_EDGE ( 'NONE', *, *, #579, .F. ) ;
#413 = DIRECTION ( 'NONE',  ( -0.1108510534444137469, 2.096348086633972484E-17, 0.9938370308809506559 ) ) ;
#414 = SURFACE_STYLE_FILL_AREA ( #248 ) ;
#415 = UNCERTAINTY_MEASURE_WITH_UNIT (LENGTH_MEASURE( 1.000000000000000082E-05 ), #70, 'distance_accuracy_value', 'NONE');
#416 = COLOUR_RGB ( '',0.7764705882352941346, 0.7568627450980391913, 0.7372549019607843590 ) ;
#417 = APPLICATION_CONTEXT ( 'automotive_design' ) ;
#418 = AXIS2_PLACEMENT_3D ( 'NONE', #663, #232, #221 ) ;
#419 = CARTESIAN_POINT ( 'NONE',  ( 1.949999999999999956, -0.2175000000000007205, 0.2174999999999993883 ) ) ;
#420 = COLOUR_RGB ( '',0.7764705882352941346, 0.7568627450980391913, 0.7372549019607843590 ) ;
#421 = PRODUCT_RELATED_PRODUCT_CATEGORY ( 'part', '', ( #917 ) ) ;
#422 = CARTESIAN_POINT ( 'NONE',  ( 2.599999999999998312, 0.000000000000000000, 0.000000000000000000 ) ) ;
#423 = DIRECTION ( 'NONE',  ( -0.000000000000000000, 0.000000000000000000, -1.000000000000000000 ) ) ;
#424 =( LENGTH_UNIT ( ) NAMED_UNIT ( * ) SI_UNIT ( .MILLI., .METRE. ) );
#425 = DIRECTION ( 'NONE',  ( 0.9938370308809506559, 0.000000000000000000, 0.1108510534444137469 ) ) ;
#426 = UNCERTAINTY_MEASURE_WITH_UNIT (LENGTH_MEASURE( 1.000000000000000082E-05 ), #534, 'distance_accuracy_value', 'NONE');
#427 = EDGE_CURVE ( 'NONE', #674, #791, #293, .T. ) ;
#428 = DIRECTION ( 'NONE',  ( -0.9938370308809506559, 0.000000000000000000, 0.1108510534444136914 ) ) ;
#429 = FILL_AREA_STYLE_COLOUR ( '', #751 ) ;
#430 = VERTEX_POINT ( 'NONE', #477 ) ;
#431 =( NAMED_UNIT ( * ) PLANE_ANGLE_UNIT ( ) SI_UNIT ( $, .RADIAN. ) );
#432 = DIRECTION ( 'NONE',  ( -0.9877866216249070463, 0.1101762001043161965, 0.1101762001043165434 ) ) ;
#433 = PRESENTATION_LAYER_ASSIGNMENT (  '', '', ( #216 ) ) ;
#434 =( GEOMETRIC_REPRESENTATION_CONTEXT ( 3 ) GLOBAL_UNCERTAINTY_ASSIGNED_CONTEXT ( ( #458 ) ) GLOBAL_UNIT_ASSIGNED_CONTEXT ( ( #444, #968, #515 ) ) REPRESENTATION_CONTEXT ( 'NONE', 'WORKASPACE' ) );
#435 = VECTOR ( 'NONE', #380, 1000.000000000000114 ) ;
#436 = EDGE_LOOP ( 'NONE', ( #504, #838, #393, #987, #43 ) ) ;
#437 = STYLED_ITEM ( 'NONE', ( #953 ), #1025 ) ;
#438 = UNCERTAINTY_MEASURE_WITH_UNIT (LENGTH_MEASURE( 1.000000000000000082E-05 ), #351, 'distance_accuracy_value', 'NONE');
#439 = PLANE ( 'NONE',  #814 ) ;
#440 = DIRECTION ( 'NONE',  ( 0.6663196743247735698, -0.7456662065614397816, -9.292562311528023527E-17 ) ) ;
#441 = PLANE ( 'NONE',  #288 ) ;
#442 = VERTEX_POINT ( 'NONE', #550 ) ;
#443 =( NAMED_UNIT ( * ) SI_UNIT ( $, .STERADIAN. ) SOLID_ANGLE_UNIT ( ) );
#444 =( LENGTH_UNIT ( ) NAMED_UNIT ( * ) SI_UNIT ( .MILLI., .METRE. ) );
#445 = CARTESIAN_POINT ( 'NONE',  ( 5.974195292295553905, -0.2313525518329657138, -8.028830871489587498E-16 ) ) ;
#446 = EDGE_CURVE ( 'NONE', #442, #291, #310, .T. ) ;
#447 = CARTESIAN_POINT ( 'NONE',  ( 2.214116351126373505, 0.1880408685282115300, 0.1880408685282121406 ) ) ;
#448 = CARTESIAN_POINT ( 'NONE',  ( 4.309938594911940868, -1.891316923914901471, 0.000000000000000000 ) ) ;
#449 = CIRCLE ( 'NONE', #76, 5.995482475482741158 ) ;
#450 = VECTOR ( 'NONE', #39, 1000.000000000000114 ) ;
#451 = EDGE_LOOP ( 'NONE', ( #114, #282, #617, #687, #331 ) ) ;
#452 = MECHANICAL_DESIGN_GEOMETRIC_PRESENTATION_REPRESENTATION (  '', ( #998 ), #240 ) ;
#453 = PRESENTATION_STYLE_ASSIGNMENT (( #388 ) ) ;
#454 = CARTESIAN_POINT ( 'NONE',  ( 1.347043950347263763, 0.000000000000000000, 0.000000000000000000 ) ) ;
#455 = FILL_AREA_STYLE ('',( #745 ) ) ;
#456 = EDGE_LOOP ( 'NONE', ( #848, #66, #112, #725 ) ) ;
#457 = SURFACE_STYLE_FILL_AREA ( #147 ) ;
#458 = UNCERTAINTY_MEASURE_WITH_UNIT (LENGTH_MEASURE( 1.000000000000000082E-05 ), #444, 'distance_accuracy_value', 'NONE');
#459 = LINE ( 'NONE', #1003, #356 ) ;
#460 = CARTESIAN_POINT ( 'NONE',  ( 0.000000000000000000, -1.959999999999999964, 0.4349999999999996092 ) ) ;
#461 = CARTESIAN_POINT ( 'NONE',  ( 1.347043950347263763, 0.000000000000000000, 0.000000000000000000 ) ) ;
#462 = ORIENTED_EDGE ( 'NONE', *, *, #859, .F. ) ;
#463 = PRODUCT_DEFINITION_SHAPE ( 'NONE', 'NONE',  #755 ) ;
#464 = DIRECTION ( 'NONE',  ( -0.000000000000000000, 0.000000000000000000, 1.000000000000000000 ) ) ;
#465 = DIRECTION ( 'NONE',  ( 0.000000000000000000, 1.000000000000000000, 6.231046968307495628E-17 ) ) ;
#466 = COLOUR_RGB ( '',0.7764705882352941346, 0.7568627450980391913, 0.7372549019607843590 ) ;
#467 = ORIENTED_EDGE ( 'NONE', *, *, #779, .F. ) ;
#468 =( GEOMETRIC_REPRESENTATION_CONTEXT ( 3 ) GLOBAL_UNCERTAINTY_ASSIGNED_CONTEXT ( ( #571 ) ) GLOBAL_UNIT_ASSIGNED_CONTEXT ( ( #131, #207, #605 ) ) REPRESENTATION_CONTEXT ( 'NONE', 'WORKASPACE' ) );
#469 = PRODUCT_DEFINITION_CONTEXT ( 'detailed design', #208, 'design' ) ;
#470 = PLANE ( 'NONE',  #269 ) ;
#471 = ORIENTED_EDGE ( 'NONE', *, *, #935, .T. ) ;
#472 = DIRECTION ( 'NONE',  ( -0.1108510534444136914, 1.257808851980383614E-16, -0.9938370308809506559 ) ) ;
#473 = PRESENTATION_STYLE_ASSIGNMENT (( #299 ) ) ;
#474 = DIRECTION ( 'NONE',  ( -1.000000000000000000, -0.000000000000000000, -0.000000000000000000 ) ) ;
#475 = ORIENTED_EDGE ( 'NONE', *, *, #954, .T. ) ;
#476 = ADVANCED_FACE ( 'NONE', ( #623 ), #938, .T. ) ;
#477 = CARTESIAN_POINT ( 'NONE',  ( 0.9968214519863044520, 4.171041651934668579E-16, -3.311827956989247479 ) ) ;
#478 = ORIENTED_EDGE ( 'NONE', *, *, #916, .T. ) ;
#479 = FACE_OUTER_BOUND ( 'NONE', #62, .T. ) ;
#480 = DIRECTION ( 'NONE',  ( -1.000000000000000000, -0.000000000000000000, -0.000000000000000000 ) ) ;
#481 = SURFACE_SIDE_STYLE ('',( #457 ) ) ;
#482 = ORIENTED_EDGE ( 'NONE', *, *, #688, .F. ) ;
#483 = DIRECTION ( 'NONE',  ( 0.6663196743247735698, 0.7456662065614397816, 0.000000000000000000 ) ) ;
#484 = CIRCLE ( 'NONE', #307, 5.995482475482741158 ) ;
#485 = AXIS2_PLACEMENT_3D ( 'NONE', #143, #695, #45 ) ;
#486 = UNCERTAINTY_MEASURE_WITH_UNIT (LENGTH_MEASURE( 1.000000000000000082E-05 ), #270, 'distance_accuracy_value', 'NONE');
#487 = ORIENTED_EDGE ( 'NONE', *, *, #667, .T. ) ;
#488 = EDGE_CURVE ( 'NONE', #404, #549, #913, .T. ) ;
#489 = CARTESIAN_POINT ( 'NONE',  ( -25.39999999999996305, 0.000000000000000000, 0.000000000000000000 ) ) ;
#490 = EDGE_LOOP ( 'NONE', ( #937, #492, #854, #905 ) ) ;
#491 = PRESENTATION_STYLE_ASSIGNMENT (( #163 ) ) ;
#492 = ORIENTED_EDGE ( 'NONE', *, *, #411, .T. ) ;
#493 = MECHANICAL_DESIGN_GEOMETRIC_PRESENTATION_REPRESENTATION (  '', ( #216 ), #103 ) ;
#494 = LINE ( 'NONE', #145, #539 ) ;
#495 = MECHANICAL_DESIGN_GEOMETRIC_PRESENTATION_REPRESENTATION (  '', ( #285 ), #977 ) ;
#496 = CIRCLE ( 'NONE', #611, 1.749999999999999778 ) ;
#497 = DIRECTION ( 'NONE',  ( 0.000000000000000000, 0.000000000000000000, 1.000000000000000000 ) ) ;
#498 = VECTOR ( 'NONE', #516, 1000.000000000000000 ) ;
#499 =( GEOMETRIC_REPRESENTATION_CONTEXT ( 3 ) GLOBAL_UNCERTAINTY_ASSIGNED_CONTEXT ( ( #787 ) ) GLOBAL_UNIT_ASSIGNED_CONTEXT ( ( #314, #638, #235 ) ) REPRESENTATION_CONTEXT ( 'NONE', 'WORKASPACE' ) );
#500 = EDGE_CURVE ( 'NONE', #144, #752, #898, .T. ) ;
#501 = DIRECTION ( 'NONE',  ( 0.000000000000000000, 0.000000000000000000, 1.000000000000000000 ) ) ;
#502 = DIRECTION ( 'NONE',  ( -0.1108510534444137469, 2.096348086633972484E-17, 0.9938370308809506559 ) ) ;
#503 = DIRECTION ( 'NONE',  ( -0.7456662065614396706, 0.000000000000000000, -0.6663196743247736809 ) ) ;
#504 = ORIENTED_EDGE ( 'NONE', *, *, #879, .T. ) ;
#505 = FILL_AREA_STYLE_COLOUR ( '', #661 ) ;
#506 = CARTESIAN_POINT ( 'NONE',  ( 2.214116351126373949, 0.1880408685282127790, -0.1880408685282121406 ) ) ;
#507 = DIRECTION ( 'NONE',  ( -0.1108510534444136914, 1.257808851980383614E-16, -0.9938370308809506559 ) ) ;
#508 = CARTESIAN_POINT ( 'NONE',  ( 4.309938594911940868, 6.836180637525074799E-15, -1.891316923914901693 ) ) ;
#509 = FACE_OUTER_BOUND ( 'NONE', #406, .T. ) ;
#510 = DIRECTION ( 'NONE',  ( -0.1108510534444137469, -0.9938370308809506559, -3.448999966305766196E-15 ) ) ;
#511 = AXIS2_PLACEMENT_3D ( 'NONE', #164, #629, #877 ) ;
#512 = CIRCLE ( 'NONE', #339, 3.500000000000000444 ) ;
#513 = CIRCLE ( 'NONE', #485, 3.311827956989247479 ) ;
#514 = EDGE_LOOP ( 'NONE', ( #700, #346, #1006, #49, #915, #31, #467, #138, #992, #711, #721 ) ) ;
#515 =( NAMED_UNIT ( * ) SI_UNIT ( $, .STERADIAN. ) SOLID_ANGLE_UNIT ( ) );
#516 = DIRECTION ( 'NONE',  ( 0.7431005017819711789, -0.6640269868487613802, 0.08288428673721989770 ) ) ;
#517 = PRESENTATION_STYLE_ASSIGNMENT (( #637 ) ) ;
#518 = EDGE_LOOP ( 'NONE', ( #400, #577, #20 ) ) ;
#519 = FILL_AREA_STYLE_COLOUR ( '', #525 ) ;
#520 = LINE ( 'NONE', #447, #733 ) ;
#521 = DIRECTION ( 'NONE',  ( -1.000000000000000000, -0.000000000000000000, -0.000000000000000000 ) ) ;
#522 = CARTESIAN_POINT ( 'NONE',  ( 1.949999999999999956, -0.2175000000000006928, 0.2174999999999992495 ) ) ;
#523 = DIRECTION ( 'NONE',  ( -0.000000000000000000, 1.000000000000000000, 1.224646799147353207E-16 ) ) ;
#524 = ORIENTED_EDGE ( 'NONE', *, *, #569, .F. ) ;
#525 = COLOUR_RGB ( '',0.7764705882352941346, 0.7568627450980391913, 0.7372549019607843590 ) ;
#526 = EDGE_CURVE ( 'NONE', #583, #1001, #716, .T. ) ;
#527 = CIRCLE ( 'NONE', #632, 5.437518987584765817 ) ;
#528 = FILL_AREA_STYLE_COLOUR ( '', #659 ) ;
#529 =( NAMED_UNIT ( * ) SI_UNIT ( $, .STERADIAN. ) SOLID_ANGLE_UNIT ( ) );
#530 =( GEOMETRIC_REPRESENTATION_CONTEXT ( 3 ) GLOBAL_UNCERTAINTY_ASSIGNED_CONTEXT ( ( #722 ) ) GLOBAL_UNIT_ASSIGNED_CONTEXT ( ( #933, #204, #529 ) ) REPRESENTATION_CONTEXT ( 'NONE', 'WORKASPACE' ) );
#531 = ORIENTED_EDGE ( 'NONE', *, *, #275, .F. ) ;
#532 = CARTESIAN_POINT ( 'NONE',  ( 0.000000000000000000, 0.000000000000000000, 0.000000000000000000 ) ) ;
#533 = CARTESIAN_POINT ( 'NONE',  ( 4.309938594911940868, 1.891316923914901471, 2.356976916973721757E-16 ) ) ;
#534 =( LENGTH_UNIT ( ) NAMED_UNIT ( * ) SI_UNIT ( .MILLI., .METRE. ) );
#535 = ORIENTED_EDGE ( 'NONE', *, *, #46, .T. ) ;
#536 = SURFACE_STYLE_FILL_AREA ( #606 ) ;
#537 = SURFACE_STYLE_FILL_AREA ( #219 ) ;
#538 = LINE ( 'NONE', #146, #93 ) ;
#539 = VECTOR ( 'NONE', #1020, 999.9999999999998863 ) ;
#540 = ORIENTED_EDGE ( 'NONE', *, *, #526, .T. ) ;
#541 = MECHANICAL_DESIGN_GEOMETRIC_PRESENTATION_REPRESENTATION (  '', ( #56 ), #252 ) ;
#542 = MECHANICAL_DESIGN_GEOMETRIC_PRESENTATION_REPRESENTATION (  '', ( #287 ), #220 ) ;
#543 = CARTESIAN_POINT ( 'NONE',  ( -25.39999999999996305, 4.286263797015737088E-16, -3.500000000000000444 ) ) ;
#544 = SURFACE_STYLE_USAGE ( .BOTH. , #278 ) ;
#545 = AXIS2_PLACEMENT_3D ( 'NONE', #226, #923, #862 ) ;
#546 = AXIS2_PLACEMENT_3D ( 'NONE', #373, #995, #209 ) ;
#547 = DIRECTION ( 'NONE',  ( 0.000000000000000000, 0.000000000000000000, 1.000000000000000000 ) ) ;
#548 = EDGE_CURVE ( 'NONE', #662, #549, #852, .T. ) ;
#549 = VERTEX_POINT ( 'NONE', #325 ) ;
#550 = CARTESIAN_POINT ( 'NONE',  ( 2.599999999999998312, 0.000000000000000000, 3.500000000000000000 ) ) ;
#551 = CARTESIAN_POINT ( 'NONE',  ( 0.03111693966988647586, -0.4315292644214340778, -0.4315292644214357987 ) ) ;
#552 = FILL_AREA_STYLE ('',( #294 ) ) ;
#553 = CYLINDRICAL_SURFACE ( 'NONE', #418, 1.749999999999999778 ) ;
#554 = EDGE_LOOP ( 'NONE', ( #246, #531, #622 ) ) ;
#555 = DIRECTION ( 'NONE',  ( 0.6663196743247736809, -0.7456662065614397816, -9.292562311528023527E-17 ) ) ;
#556 = PLANE ( 'NONE',  #184 ) ;
#557 = ADVANCED_FACE ( 'NONE', ( #247 ), #952, .T. ) ;
#558 = PRESENTATION_LAYER_ASSIGNMENT (  '', '', ( #4 ) ) ;
#559 = SURFACE_STYLE_USAGE ( .BOTH. , #780 ) ;
#560 = SURFACE_STYLE_USAGE ( .BOTH. , #80 ) ;
#561 = AXIS2_PLACEMENT_3D ( 'NONE', #739, #886, #99 ) ;
#562 = FILL_AREA_STYLE ('',( #639 ) ) ;
#563 =( GEOMETRIC_REPRESENTATION_CONTEXT ( 3 ) GLOBAL_UNCERTAINTY_ASSIGNED_CONTEXT ( ( #309 ) ) GLOBAL_UNIT_ASSIGNED_CONTEXT ( ( #651, #744, #194 ) ) REPRESENTATION_CONTEXT ( 'NONE', 'WORKASPACE' ) );
#564 = CARTESIAN_POINT ( 'NONE',  ( 0.2666411873824114376, 0.4052592521765713274, 1.721732169736487794 ) ) ;
#565 =( NAMED_UNIT ( * ) PLANE_ANGLE_UNIT ( ) SI_UNIT ( $, .RADIAN. ) );
#566 = CARTESIAN_POINT ( 'NONE',  ( 0.000000000000000000, 0.4350000000000068257, -1.959999999999998188 ) ) ;
#567 = FILL_AREA_STYLE_COLOUR ( '', #92 ) ;
#568 = CARTESIAN_POINT ( 'NONE',  ( 1.347043950347265318, 0.000000000000000000, 0.000000000000000000 ) ) ;
#569 = EDGE_CURVE ( 'NONE', #260, #702, #805, .T. ) ;
#570 = SURFACE_SIDE_STYLE ('',( #250 ) ) ;
#571 = UNCERTAINTY_MEASURE_WITH_UNIT (LENGTH_MEASURE( 1.000000000000000082E-05 ), #131, 'distance_accuracy_value', 'NONE');
#572 = PRESENTATION_LAYER_ASSIGNMENT (  '', '', ( #593 ) ) ;
#573 = AXIS2_PLACEMENT_3D ( 'NONE', #899, #34, #728 ) ;
#574 = PRESENTATION_LAYER_ASSIGNMENT (  '', '', ( #135 ) ) ;
#575 = EDGE_LOOP ( 'NONE', ( #540, #308 ) ) ;
#576 = FACE_OUTER_BOUND ( 'NONE', #881, .T. ) ;
#577 = ORIENTED_EDGE ( 'NONE', *, *, #306, .T. ) ;
#578 =( NAMED_UNIT ( * ) SI_UNIT ( $, .STERADIAN. ) SOLID_ANGLE_UNIT ( ) );
#579 = EDGE_CURVE ( 'NONE', #967, #442, #320, .T. ) ;
#580 = CARTESIAN_POINT ( 'NONE',  ( 0.2666411873824114376, -1.721732169736485796, -0.4052592521765772116 ) ) ;
#581 =( GEOMETRIC_REPRESENTATION_CONTEXT ( 3 ) GLOBAL_UNCERTAINTY_ASSIGNED_CONTEXT ( ( #585 ) ) GLOBAL_UNIT_ASSIGNED_CONTEXT ( ( #90, #95, #87 ) ) REPRESENTATION_CONTEXT ( 'NONE', 'WORKASPACE' ) );
#582 = DIRECTION ( 'NONE',  ( -1.000000000000000000, -0.000000000000000000, -0.000000000000000000 ) ) ;
#583 = VERTEX_POINT ( 'NONE', #188 ) ;
#584 = PRODUCT_DEFINITION_FORMATION_WITH_SPECIFIED_SOURCE ( 'ANY', '', #917, .NOT_KNOWN. ) ;
#585 = UNCERTAINTY_MEASURE_WITH_UNIT (LENGTH_MEASURE( 1.000000000000000082E-05 ), #90, 'distance_accuracy_value', 'NONE');
#586 = PRESENTATION_STYLE_ASSIGNMENT (( #784 ) ) ;
#587 = SURFACE_STYLE_FILL_AREA ( #272 ) ;
#588 = CARTESIAN_POINT ( 'NONE',  ( 6.000000000000000000, 2.326828918379972351E-16, 0.000000000000000000 ) ) ;
#589 =( NAMED_UNIT ( * ) SI_UNIT ( $, .STERADIAN. ) SOLID_ANGLE_UNIT ( ) );
#590 = ADVANCED_FACE ( 'NONE', ( #32 ), #21, .T. ) ;
#591 = CARTESIAN_POINT ( 'NONE',  ( 4.309938594911940868, -6.606512545546451519E-15, 1.891316923914901693 ) ) ;
#592 =( NAMED_UNIT ( * ) PLANE_ANGLE_UNIT ( ) SI_UNIT ( $, .RADIAN. ) );
#593 = STYLED_ITEM ( 'NONE', ( #133 ), #111 ) ;
#594 = MECHANICAL_DESIGN_GEOMETRIC_PRESENTATION_REPRESENTATION (  '', ( #117 ), #468 ) ;
#595 = VECTOR ( 'NONE', #193, 1000.000000000000000 ) ;
#596 = PRODUCT_CONTEXT ( 'NONE', #417, 'mechanical' ) ;
#597 = AXIS2_PLACEMENT_3D ( 'NONE', #908, #582, #199 ) ;
#598 = SURFACE_SIDE_STYLE ('',( #68 ) ) ;
#599 = FILL_AREA_STYLE ('',( #757 ) ) ;
#600 = CIRCLE ( 'NONE', #157, 3.500000000000000000 ) ;
#601 = ORIENTED_EDGE ( 'NONE', *, *, #259, .F. ) ;
#602 = CARTESIAN_POINT ( 'NONE',  ( 1.949999999999999956, 0.2174999999999999989, 0.2174999999999999711 ) ) ;
#603 = DIRECTION ( 'NONE',  ( 0.7456662065614396706, 0.6663196743247736809, 0.000000000000000000 ) ) ;
#604 = ORIENTED_EDGE ( 'NONE', *, *, #741, .F. ) ;
#605 =( NAMED_UNIT ( * ) SI_UNIT ( $, .STERADIAN. ) SOLID_ANGLE_UNIT ( ) );
#606 = FILL_AREA_STYLE ('',( #924 ) ) ;
#607 = EDGE_CURVE ( 'NONE', #215, #430, #120, .T. ) ;
#608 =( NAMED_UNIT ( * ) SI_UNIT ( $, .STERADIAN. ) SOLID_ANGLE_UNIT ( ) );
#609 = EDGE_LOOP ( 'NONE', ( #385, #230, #971, #462 ) ) ;
#610 = PRESENTATION_LAYER_ASSIGNMENT (  '', '', ( #56 ) ) ;
#611 = AXIS2_PLACEMENT_3D ( 'NONE', #84, #258, #497 ) ;
#612 = SURFACE_STYLE_FILL_AREA ( #1011 ) ;
#613 = PLANE ( 'NONE',  #874 ) ;
#614 = AXIS2_PLACEMENT_3D ( 'NONE', #364, #523, #835 ) ;
#615 = CIRCLE ( 'NONE', #914, 5.437518987584765817 ) ;
#616 = EDGE_CURVE ( 'NONE', #26, #674, #227, .T. ) ;
#617 = ORIENTED_EDGE ( 'NONE', *, *, #607, .F. ) ;
#618 = EDGE_LOOP ( 'NONE', ( #680, #478, #482, #371 ) ) ;
#619 = SURFACE_SIDE_STYLE ('',( #868 ) ) ;
#620 = FACE_OUTER_BOUND ( 'NONE', #609, .T. ) ;
#621 = ADVANCED_FACE ( 'NONE', ( #620 ), #553, .T. ) ;
#622 = ORIENTED_EDGE ( 'NONE', *, *, #616, .F. ) ;
#623 = FACE_OUTER_BOUND ( 'NONE', #514, .T. ) ;
#624 = DIRECTION ( 'NONE',  ( -1.000000000000000000, -0.000000000000000000, -0.000000000000000000 ) ) ;
#625 = DIRECTION ( 'NONE',  ( -0.1108510534444136914, 1.257808851980383614E-16, -0.9938370308809506559 ) ) ;
#626 = COLOUR_RGB ( '',0.7764705882352941346, 0.7568627450980391913, 0.7372549019607843590 ) ;
#627 = ORIENTED_EDGE ( 'NONE', *, *, #948, .T. ) ;
#628 = AXIS2_PLACEMENT_3D ( 'NONE', #588, #464, #212 ) ;
#629 = DIRECTION ( 'NONE',  ( 0.000000000000000000, 1.224646799147353207E-16, -1.000000000000000000 ) ) ;
#630 = STYLED_ITEM ( 'NONE', ( #453 ), #621 ) ;
#631 = SURFACE_SIDE_STYLE ('',( #2 ) ) ;
#632 = AXIS2_PLACEMENT_3D ( 'NONE', #508, #48, #102 ) ;
#633 = MECHANICAL_DESIGN_GEOMETRIC_PRESENTATION_REPRESENTATION (  '', ( #1000 ), #499 ) ;
#634 = VERTEX_POINT ( 'NONE', #839 ) ;
#635 = DIRECTION ( 'NONE',  ( -1.000000000000000000, -0.000000000000000000, -0.000000000000000000 ) ) ;
#636 = DIRECTION ( 'NONE',  ( -0.7456662065614397816, 0.6663196743247735698, 0.000000000000000000 ) ) ;
#637 = SURFACE_STYLE_USAGE ( .BOTH. , #12 ) ;
#638 =( NAMED_UNIT ( * ) PLANE_ANGLE_UNIT ( ) SI_UNIT ( $, .RADIAN. ) );
#639 = FILL_AREA_STYLE_COLOUR ( '', #54 ) ;
#640 = ADVANCED_FACE ( 'NONE', ( #690 ), #1022, .T. ) ;
#641 =( NAMED_UNIT ( * ) PLANE_ANGLE_UNIT ( ) SI_UNIT ( $, .RADIAN. ) );
#642 =( GEOMETRIC_REPRESENTATION_CONTEXT ( 3 ) GLOBAL_UNCERTAINTY_ASSIGNED_CONTEXT ( ( #813 ) ) GLOBAL_UNIT_ASSIGNED_CONTEXT ( ( #686, #847, #1013 ) ) REPRESENTATION_CONTEXT ( 'NONE', 'WORKASPACE' ) );
#643 = FILL_AREA_STYLE ('',( #342 ) ) ;
#644 = SURFACE_STYLE_USAGE ( .BOTH. , #969 ) ;
#645 = COLOUR_RGB ( '',0.7764705882352941346, 0.7568627450980391913, 0.7372549019607843590 ) ;
#646 = FILL_AREA_STYLE ('',( #429 ) ) ;
#647 = MECHANICAL_DESIGN_GEOMETRIC_PRESENTATION_REPRESENTATION (  '', ( #888 ), #60 ) ;
#648 = AXIS2_PLACEMENT_3D ( 'NONE', #55, #472, #304 ) ;
#649 = SURFACE_STYLE_USAGE ( .BOTH. , #13 ) ;
#650 = SURFACE_STYLE_USAGE ( .BOTH. , #902 ) ;
#651 =( LENGTH_UNIT ( ) NAMED_UNIT ( * ) SI_UNIT ( .MILLI., .METRE. ) );
#652 = DIRECTION ( 'NONE',  ( -0.1108510534444137469, -0.9938370308809506559, -3.448999966305766196E-15 ) ) ;
#653 = EDGE_LOOP ( 'NONE', ( #966, #265, #729 ) ) ;
#654 = PRESENTATION_STYLE_ASSIGNMENT (( #649 ) ) ;
#655 = CARTESIAN_POINT ( 'NONE',  ( 5.974195292295553905, 0.2313525518329656860, 8.370432990360215258E-16 ) ) ;
#656 =( NAMED_UNIT ( * ) PLANE_ANGLE_UNIT ( ) SI_UNIT ( $, .RADIAN. ) );
#657 = DIRECTION ( 'NONE',  ( -0.7456662065614396706, 0.6663196743247736809, 0.000000000000000000 ) ) ;
#658 = DIRECTION ( 'NONE',  ( -0.9938370308809507669, -0.1108510534444137052, 0.000000000000000000 ) ) ;
#659 = COLOUR_RGB ( '',0.7764705882352941346, 0.7568627450980391913, 0.7372549019607843590 ) ;
#660 = PRESENTATION_LAYER_ASSIGNMENT (  '', '', ( #889 ) ) ;
#661 = COLOUR_RGB ( '',0.7921568627450980005, 0.8196078431372548767, 0.9333333333333333481 ) ;
#662 = VERTEX_POINT ( 'NONE', #858 ) ;
#663 = CARTESIAN_POINT ( 'NONE',  ( -25.39999999999996305, 0.000000000000000000, 0.000000000000000000 ) ) ;
#664 = UNCERTAINTY_MEASURE_WITH_UNIT (LENGTH_MEASURE( 1.000000000000000082E-05 ), #51, 'distance_accuracy_value', 'NONE');
#665 = PRESENTATION_STYLE_ASSIGNMENT (( #650 ) ) ;
#666 = CARTESIAN_POINT ( 'NONE',  ( 0.9968214519863044520, 0.000000000000000000, 3.311827956989247479 ) ) ;
#667 = EDGE_CURVE ( 'NONE', #634, #708, #358, .T. ) ;
#668 = FACE_OUTER_BOUND ( 'NONE', #706, .T. ) ;
#669 = CARTESIAN_POINT ( 'NONE',  ( 0.2553644383338094515, 1.731808957027352269, 0.000000000000000000 ) ) ;
#670 = FACE_OUTER_BOUND ( 'NONE', #365, .T. ) ;
#671 = DIRECTION ( 'NONE',  ( 0.000000000000000000, 0.000000000000000000, 1.000000000000000000 ) ) ;
#672 = EDGE_CURVE ( 'NONE', #778, #909, #496, .T. ) ;
#673 = SURFACE_STYLE_USAGE ( .BOTH. , #904 ) ;
#674 = VERTEX_POINT ( 'NONE', #334 ) ;
#675 = UNCERTAINTY_MEASURE_WITH_UNIT (LENGTH_MEASURE( 1.000000000000000082E-05 ), #348, 'distance_accuracy_value', 'NONE');
#676 = DIRECTION ( 'NONE',  ( 0.000000000000000000, 0.000000000000000000, -1.000000000000000000 ) ) ;
#677 = CIRCLE ( 'NONE', #236, 3.311827956989247479 ) ;
#678 = AXIS2_PLACEMENT_3D ( 'NONE', #958, #423, #328 ) ;
#679 = CIRCLE ( 'NONE', #202, 1.749999999999999778 ) ;
#680 = ORIENTED_EDGE ( 'NONE', *, *, #115, .T. ) ;
#681 = PRESENTATION_LAYER_ASSIGNMENT (  '', '', ( #156 ) ) ;
#682 = CIRCLE ( 'NONE', #597, 1.749999999999999778 ) ;
#683 = DIRECTION ( 'NONE',  ( 0.000000000000000000, 0.000000000000000000, 1.000000000000000000 ) ) ;
#684 = DIRECTION ( 'NONE',  ( -1.000000000000000000, -0.000000000000000000, -0.000000000000000000 ) ) ;
#685 = AXIS2_PLACEMENT_3D ( 'NONE', #368, #764, #286 ) ;
#686 =( LENGTH_UNIT ( ) NAMED_UNIT ( * ) SI_UNIT ( .MILLI., .METRE. ) );
#687 = ORIENTED_EDGE ( 'NONE', *, *, #166, .F. ) ;
#688 = EDGE_CURVE ( 'NONE', #708, #791, #956, .T. ) ;
#689 = DIRECTION ( 'NONE',  ( 0.6663196743247735698, -2.603479645215216163E-15, 0.7456662065614397816 ) ) ;
#690 = FACE_OUTER_BOUND ( 'NONE', #554, .T. ) ;
#691 = ORIENTED_EDGE ( 'NONE', *, *, #672, .F. ) ;
#692 = DIRECTION ( 'NONE',  ( 0.000000000000000000, 0.000000000000000000, 1.000000000000000000 ) ) ;
#693 = ADVANCED_FACE ( 'NONE', ( #327 ), #792, .T. ) ;
#694 = DIRECTION ( 'NONE',  ( -0.7456662065614397816, -2.326442708608981349E-15, 0.6663196743247735698 ) ) ;
#695 = DIRECTION ( 'NONE',  ( -1.000000000000000000, -0.000000000000000000, -0.000000000000000000 ) ) ;
#696 = ORIENTED_EDGE ( 'NONE', *, *, #500, .T. ) ;
#697 = FILL_AREA_STYLE ('',( #384 ) ) ;
#698 = DIRECTION ( 'NONE',  ( 0.000000000000000000, 0.000000000000000000, 1.000000000000000000 ) ) ;
#699 = PRESENTATION_LAYER_ASSIGNMENT (  '', '', ( #116 ) ) ;
#700 = ORIENTED_EDGE ( 'NONE', *, *, #488, .F. ) ;
#701 = VECTOR ( 'NONE', #203, 1000.000000000000000 ) ;
#702 = VERTEX_POINT ( 'NONE', #419 ) ;
#703 = PRESENTATION_STYLE_ASSIGNMENT (( #782 ) ) ;
#704 = CARTESIAN_POINT ( 'NONE',  ( 1.347043950347265318, 4.286263797015737088E-16, -3.500000000000000444 ) ) ;
#705 = EDGE_CURVE ( 'NONE', #909, #1001, #720, .T. ) ;
#706 = EDGE_LOOP ( 'NONE', ( #627, #186, #601 ) ) ;
#707 =( LENGTH_UNIT ( ) NAMED_UNIT ( * ) SI_UNIT ( .MILLI., .METRE. ) );
#708 = VERTEX_POINT ( 'NONE', #408 ) ;
#709 = DIRECTION ( 'NONE',  ( -1.000000000000000000, -0.000000000000000000, -0.000000000000000000 ) ) ;
#710 = EDGE_CURVE ( 'NONE', #674, #702, #249, .T. ) ;
#711 = ORIENTED_EDGE ( 'NONE', *, *, #965, .F. ) ;
#712 = CARTESIAN_POINT ( 'NONE',  ( 1.949999999999999956, 0.2174999999999999989, -0.2174999999999999711 ) ) ;
#713 = CARTESIAN_POINT ( 'NONE',  ( 5.974195292295553905, 2.375629221075779134E-16, 0.2313525518329657416 ) ) ;
#714 = FILL_AREA_STYLE ('',( #88 ) ) ;
#715 = TOROIDAL_SURFACE ( 'NONE', #749, 3.080000000000000515, 0.4200000000000000400 ) ;
#716 = CIRCLE ( 'NONE', #264, 1.749999999999999778 ) ;
#717 = DIRECTION ( 'NONE',  ( 0.9938370308809507669, 0.000000000000000000, 0.1108510534444137746 ) ) ;
#718 = DIRECTION ( 'NONE',  ( 0.000000000000000000, 0.000000000000000000, 1.000000000000000000 ) ) ;
#719 =( GEOMETRIC_REPRESENTATION_CONTEXT ( 3 ) GLOBAL_UNCERTAINTY_ASSIGNED_CONTEXT ( ( #426 ) ) GLOBAL_UNIT_ASSIGNED_CONTEXT ( ( #534, #774, #783 ) ) REPRESENTATION_CONTEXT ( 'NONE', 'WORKASPACE' ) );
#720 = LINE ( 'NONE', #11, #837 ) ;
#721 = ORIENTED_EDGE ( 'NONE', *, *, #548, .T. ) ;
#722 = UNCERTAINTY_MEASURE_WITH_UNIT (LENGTH_MEASURE( 1.000000000000000082E-05 ), #933, 'distance_accuracy_value', 'NONE');
#723 = PLANE ( 'NONE',  #191 ) ;
#724 = UNCERTAINTY_MEASURE_WITH_UNIT (LENGTH_MEASURE( 1.000000000000000082E-05 ), #407, 'distance_accuracy_value', 'NONE');
#725 = ORIENTED_EDGE ( 'NONE', *, *, #446, .F. ) ;
#726 =( NAMED_UNIT ( * ) PLANE_ANGLE_UNIT ( ) SI_UNIT ( $, .RADIAN. ) );
#727 = ADVANCED_FACE ( 'NONE', ( #96 ), #160, .T. ) ;
#728 = DIRECTION ( 'NONE',  ( 0.9938370308809506559, 0.000000000000000000, 0.1108510534444137469 ) ) ;
#729 = ORIENTED_EDGE ( 'NONE', *, *, #72, .T. ) ;
#730 = UNCERTAINTY_MEASURE_WITH_UNIT (LENGTH_MEASURE( 1.000000000000000082E-05 ), #122, 'distance_accuracy_value', 'NONE');
#731 = MECHANICAL_DESIGN_GEOMETRIC_PRESENTATION_REPRESENTATION (  '', ( #593 ), #283 ) ;
#732 = CARTESIAN_POINT ( 'NONE',  ( 1.347043950347265318, 0.000000000000000000, 3.500000000000000444 ) ) ;
#733 = VECTOR ( 'NONE', #432, 1000.000000000000000 ) ;
#734 = AXIS2_PLACEMENT_3D ( 'NONE', #910, #395, #983 ) ;
#735 = EDGE_CURVE ( 'NONE', #891, #867, #41, .T. ) ;
#736 = CARTESIAN_POINT ( 'NONE',  ( 0.2666411873824114376, 1.721732169736485352, 0.4052592521765772671 ) ) ;
#737 = MECHANICAL_DESIGN_GEOMETRIC_PRESENTATION_REPRESENTATION (  '', ( #889 ), #8 ) ;
#738 = STYLED_ITEM ( 'NONE', ( #343 ), #883 ) ;
#739 = CARTESIAN_POINT ( 'NONE',  ( -25.39999999999996305, 0.000000000000000000, 0.000000000000000000 ) ) ;
#740 =( NAMED_UNIT ( * ) PLANE_ANGLE_UNIT ( ) SI_UNIT ( $, .RADIAN. ) );
#741 = EDGE_CURVE ( 'NONE', #26, #260, #527, .T. ) ;
#742 = CARTESIAN_POINT ( 'NONE',  ( 2.599999999999998312, 0.000000000000000000, 0.000000000000000000 ) ) ;
#743 = PRESENTATION_STYLE_ASSIGNMENT (( #257 ) ) ;
#744 =( NAMED_UNIT ( * ) PLANE_ANGLE_UNIT ( ) SI_UNIT ( $, .RADIAN. ) );
#745 = FILL_AREA_STYLE_COLOUR ( '', #266 ) ;
#746 =( NAMED_UNIT ( * ) SI_UNIT ( $, .STERADIAN. ) SOLID_ANGLE_UNIT ( ) );
#747 =( NAMED_UNIT ( * ) SI_UNIT ( $, .STERADIAN. ) SOLID_ANGLE_UNIT ( ) );
#748 = SURFACE_STYLE_FILL_AREA ( #828 ) ;
#749 = AXIS2_PLACEMENT_3D ( 'NONE', #454, #758, #671 ) ;
#750 = DIRECTION ( 'NONE',  ( 0.9938370308809506559, -0.1108510534444137469, -3.870343844922734420E-16 ) ) ;
#751 = COLOUR_RGB ( '',0.7764705882352941346, 0.7568627450980391913, 0.7372549019607843590 ) ;
#752 = VERTEX_POINT ( 'NONE', #344 ) ;
#753 =( NAMED_UNIT ( * ) SI_UNIT ( $, .STERADIAN. ) SOLID_ANGLE_UNIT ( ) );
#754 = UNCERTAINTY_MEASURE_WITH_UNIT (LENGTH_MEASURE( 1.000000000000000082E-05 ), #169, 'distance_accuracy_value', 'NONE');
#755 = PRODUCT_DEFINITION ( 'UNKNOWN', '', #584, #469 ) ;
#756 = CARTESIAN_POINT ( 'NONE',  ( 2.214116351126373949, -0.1880408685282127235, 0.1880408685282120573 ) ) ;
#757 = FILL_AREA_STYLE_COLOUR ( '', #222 ) ;
#758 = DIRECTION ( 'NONE',  ( -1.000000000000000000, -0.000000000000000000, -0.000000000000000000 ) ) ;
#759 = SURFACE_STYLE_USAGE ( .BOTH. , #893 ) ;
#760 = ORIENTED_EDGE ( 'NONE', *, *, #374, .F. ) ;
#761 = DIRECTION ( 'NONE',  ( -0.9877866216249070463, -0.1101762001043161271, -0.1101762001043165851 ) ) ;
#762 = FACE_BOUND ( 'NONE', #575, .T. ) ;
#763 = DIRECTION ( 'NONE',  ( -1.000000000000000000, -0.000000000000000000, -0.000000000000000000 ) ) ;
#764 = DIRECTION ( 'NONE',  ( 0.000000000000000000, -1.000000000000000000, 0.000000000000000000 ) ) ;
#765 = MECHANICAL_DESIGN_GEOMETRIC_PRESENTATION_REPRESENTATION (  '', ( #375 ), #851 ) ;
#766 = FILL_AREA_STYLE ('',( #210 ) ) ;
#767 = AXIS2_PLACEMENT_3D ( 'NONE', #448, #353, #657 ) ;
#768 = ADVANCED_FACE ( 'NONE', ( #668 ), #441, .T. ) ;
#769 = ORIENTED_EDGE ( 'NONE', *, *, #879, .F. ) ;
#770 =( GEOMETRIC_REPRESENTATION_CONTEXT ( 3 ) GLOBAL_UNCERTAINTY_ASSIGNED_CONTEXT ( ( #28 ) ) GLOBAL_UNIT_ASSIGNED_CONTEXT ( ( #192, #740, #974 ) ) REPRESENTATION_CONTEXT ( 'NONE', 'WORKASPACE' ) );
#771 = PRESENTATION_STYLE_ASSIGNMENT (( #918 ) ) ;
#772 = SURFACE_STYLE_USAGE ( .BOTH. , #850 ) ;
#773 = SURFACE_STYLE_FILL_AREA ( #697 ) ;
#774 =( NAMED_UNIT ( * ) PLANE_ANGLE_UNIT ( ) SI_UNIT ( $, .RADIAN. ) );
#775 = ORIENTED_EDGE ( 'NONE', *, *, #616, .T. ) ;
#776 = FILL_AREA_STYLE_COLOUR ( '', #355 ) ;
#777 = FILL_AREA_STYLE ('',( #50 ) ) ;
#778 = VERTEX_POINT ( 'NONE', #830 ) ;
#779 = EDGE_CURVE ( 'NONE', #26, #73, #189, .T. ) ;
#780 = SURFACE_SIDE_STYLE ('',( #789 ) ) ;
#781 = EDGE_LOOP ( 'NONE', ( #1019, #340, #832, #946, #323 ) ) ;
#782 = SURFACE_STYLE_USAGE ( .BOTH. , #619 ) ;
#783 =( NAMED_UNIT ( * ) SI_UNIT ( $, .STERADIAN. ) SOLID_ANGLE_UNIT ( ) );
#784 = SURFACE_STYLE_USAGE ( .BOTH. , #481 ) ;
#785 = AXIS2_PLACEMENT_3D ( 'NONE', #333, #349, #973 ) ;
#786 = VERTEX_POINT ( 'NONE', #736 ) ;
#787 = UNCERTAINTY_MEASURE_WITH_UNIT (LENGTH_MEASURE( 1.000000000000000082E-05 ), #314, 'distance_accuracy_value', 'NONE');
#788 = PRESENTATION_LAYER_ASSIGNMENT (  '', '', ( #287 ) ) ;
#789 = SURFACE_STYLE_FILL_AREA ( #86 ) ;
#790 = FACE_OUTER_BOUND ( 'NONE', #518, .T. ) ;
#791 = VERTEX_POINT ( 'NONE', #280 ) ;
#792 = PLANE ( 'NONE',  #121 ) ;
#793 = DIRECTION ( 'NONE',  ( 0.000000000000000000, 0.000000000000000000, 1.000000000000000000 ) ) ;
#794 = PLANE ( 'NONE',  #201 ) ;
#795 =( NAMED_UNIT ( * ) SI_UNIT ( $, .STERADIAN. ) SOLID_ANGLE_UNIT ( ) );
#796 = UNCERTAINTY_MEASURE_WITH_UNIT (LENGTH_MEASURE( 1.000000000000000082E-05 ), #318, 'distance_accuracy_value', 'NONE');
#797 = EDGE_CURVE ( 'NONE', #909, #778, #682, .T. ) ;
#798 = ORIENTED_EDGE ( 'NONE', *, *, #579, .T. ) ;
#799 = PRESENTATION_LAYER_ASSIGNMENT (  '', '', ( #397 ) ) ;
#800 = DIRECTION ( 'NONE',  ( 0.000000000000000000, 0.000000000000000000, 1.000000000000000000 ) ) ;
#801 = AXIS2_PLACEMENT_3D ( 'NONE', #1008, #300, #276 ) ;
#802 = CIRCLE ( 'NONE', #614, 0.4199999999999998179 ) ;
#803 = STYLED_ITEM ( 'NONE', ( #861 ), #892 ) ;
#804 = DIRECTION ( 'NONE',  ( -0.9938370308809506559, 0.000000000000000000, 0.1108510534444136914 ) ) ;
#805 = LINE ( 'NONE', #957, #595 ) ;
#806 = UNCERTAINTY_MEASURE_WITH_UNIT (LENGTH_MEASURE( 1.000000000000000082E-05 ), #424, 'distance_accuracy_value', 'NONE');
#807 = DIRECTION ( 'NONE',  ( -1.000000000000000000, -0.000000000000000000, -0.000000000000000000 ) ) ;
#808 = SURFACE_STYLE_USAGE ( .BOTH. , #170 ) ;
#809 = EDGE_CURVE ( 'NONE', #291, #864, #512, .T. ) ;
#810 = CARTESIAN_POINT ( 'NONE',  ( 0.2666411873824114376, -0.4052592521765831513, 1.721732169736483131 ) ) ;
#811 = SURFACE_STYLE_FILL_AREA ( #819 ) ;
#812 =( GEOMETRIC_REPRESENTATION_CONTEXT ( 3 ) GLOBAL_UNCERTAINTY_ASSIGNED_CONTEXT ( ( #352 ) ) GLOBAL_UNIT_ASSIGNED_CONTEXT ( ( #990, #394, #608 ) ) REPRESENTATION_CONTEXT ( 'NONE', 'WORKASPACE' ) );
#813 = UNCERTAINTY_MEASURE_WITH_UNIT (LENGTH_MEASURE( 1.000000000000000082E-05 ), #686, 'distance_accuracy_value', 'NONE');
#814 = AXIS2_PLACEMENT_3D ( 'NONE', #522, #689, #694 ) ;
#815 = SURFACE_STYLE_FILL_AREA ( #643 ) ;
#816 = EDGE_CURVE ( 'NONE', #864, #430, #802, .T. ) ;
#817 = MECHANICAL_DESIGN_GEOMETRIC_PRESENTATION_REPRESENTATION (  '', ( #154 ), #40 ) ;
#818 = VECTOR ( 'NONE', #174, 1000.000000000000000 ) ;
#819 = FILL_AREA_STYLE ('',( #113 ) ) ;
#820 = PRESENTATION_LAYER_ASSIGNMENT (  '', '', ( #738 ) ) ;
#821 = PRESENTATION_LAYER_ASSIGNMENT (  '', '', ( #437 ) ) ;
#822 = ORIENTED_EDGE ( 'NONE', *, *, #797, .T. ) ;
#823 = FILL_AREA_STYLE ('',( #362 ) ) ;
#824 = FILL_AREA_STYLE_COLOUR ( '', #137 ) ;
#825 = MANIFOLD_SOLID_BREP ( 'Move Face1', #183 ) ;
#826 = ORIENTED_EDGE ( 'NONE', *, *, #735, .F. ) ;
#827 = FACE_OUTER_BOUND ( 'NONE', #920, .T. ) ;
#828 = FILL_AREA_STYLE ('',( #824 ) ) ;
#829 = DIRECTION ( 'NONE',  ( 0.7456662065614397816, 0.6663196743247735698, 0.000000000000000000 ) ) ;
#830 = CARTESIAN_POINT ( 'NONE',  ( 22.60000000000000142, 0.000000000000000000, 1.749999999999999778 ) ) ;
#831 = EDGE_CURVE ( 'NONE', #200, #260, #484, .T. ) ;
#832 = ORIENTED_EDGE ( 'NONE', *, *, #959, .T. ) ;
#833 =( NAMED_UNIT ( * ) PLANE_ANGLE_UNIT ( ) SI_UNIT ( $, .RADIAN. ) );
#834 = CARTESIAN_POINT ( 'NONE',  ( 5.974195292295553905, 2.619630734554813543E-16, -0.2313525518329656583 ) ) ;
#835 = DIRECTION ( 'NONE',  ( 0.000000000000000000, -1.224646799147354193E-16, 1.000000000000000000 ) ) ;
#836 = AXIS2_PLACEMENT_3D ( 'NONE', #217, #197, #911 ) ;
#837 = VECTOR ( 'NONE', #245, 1000.000000000000000 ) ;
#838 = ORIENTED_EDGE ( 'NONE', *, *, #427, .F. ) ;
#839 = CARTESIAN_POINT ( 'NONE',  ( 0.2666411873824114376, -0.4052592521765708278, -1.721732169736487128 ) ) ;
#840 = PRESENTATION_STYLE_ASSIGNMENT (( #808 ) ) ;
#841 = CARTESIAN_POINT ( 'NONE',  ( 2.600000000000000089, 1.749999999999999778, 0.000000000000000000 ) ) ;
#842 =( NAMED_UNIT ( * ) PLANE_ANGLE_UNIT ( ) SI_UNIT ( $, .RADIAN. ) );
#843 = ORIENTED_EDGE ( 'NONE', *, *, #446, .T. ) ;
#844 = DIRECTION ( 'NONE',  ( 1.000000000000000000, 0.000000000000000000, 0.000000000000000000 ) ) ;
#845 = PLANE ( 'NONE',  #836 ) ;
#846 = ADVANCED_FACE ( 'NONE', ( #996 ), #934, .T. ) ;
#847 =( NAMED_UNIT ( * ) PLANE_ANGLE_UNIT ( ) SI_UNIT ( $, .RADIAN. ) );
#848 = ORIENTED_EDGE ( 'NONE', *, *, #985, .T. ) ;
#849 = SURFACE_SIDE_STYLE ('',( #906 ) ) ;
#850 = SURFACE_SIDE_STYLE ('',( #536 ) ) ;
#851 =( GEOMETRIC_REPRESENTATION_CONTEXT ( 3 ) GLOBAL_UNCERTAINTY_ASSIGNED_CONTEXT ( ( #724 ) ) GLOBAL_UNIT_ASSIGNED_CONTEXT ( ( #407, #565, #110 ) ) REPRESENTATION_CONTEXT ( 'NONE', 'WORKASPACE' ) );
#852 = CIRCLE ( 'NONE', #1016, 5.437518987584764929 ) ;
#853 = COLOUR_RGB ( '',0.7764705882352941346, 0.7568627450980391913, 0.7372549019607843590 ) ;
#854 = ORIENTED_EDGE ( 'NONE', *, *, #710, .F. ) ;
#855 = STYLED_ITEM ( 'NONE', ( #178 ), #825 ) ;
#856 = COLOUR_RGB ( '',0.7764705882352941346, 0.7568627450980391913, 0.7372549019607843590 ) ;
#857 =( NAMED_UNIT ( * ) SI_UNIT ( $, .STERADIAN. ) SOLID_ANGLE_UNIT ( ) );
#858 = CARTESIAN_POINT ( 'NONE',  ( 0.2666411873824114376, -1.721732169736485796, 0.4052592521765768785 ) ) ;
#859 = EDGE_CURVE ( 'NONE', #778, #583, #538, .T. ) ;
#860 = ORIENTED_EDGE ( 'NONE', *, *, #859, .T. ) ;
#861 = PRESENTATION_STYLE_ASSIGNMENT (( #544 ) ) ;
#862 = DIRECTION ( 'NONE',  ( -0.9938370308809506559, -0.1108510534444136914, -3.870343844922732447E-16 ) ) ;
#863 = FILL_AREA_STYLE_COLOUR ( '', #853 ) ;
#864 = VERTEX_POINT ( 'NONE', #704 ) ;
#865 = EDGE_CURVE ( 'NONE', #867, #233, #1021, .T. ) ;
#866 = DIRECTION ( 'NONE',  ( 0.7456662065614396706, 0.6663196743247736809, 0.000000000000000000 ) ) ;
#867 = VERTEX_POINT ( 'NONE', #580 ) ;
#868 = SURFACE_STYLE_FILL_AREA ( #162 ) ;
#869 = SURFACE_SIDE_STYLE ('',( #941 ) ) ;
#870 = AXIS2_PLACEMENT_3D ( 'NONE', #568, #709, #159 ) ;
#871 = VERTEX_POINT ( 'NONE', #666 ) ;
#872 = CIRCLE ( 'NONE', #628, 6.000000000000000000 ) ;
#873 = COLOUR_RGB ( '',0.7764705882352941346, 0.7568627450980391913, 0.7372549019607843590 ) ;
#874 = AXIS2_PLACEMENT_3D ( 'NONE', #943, #483, #636 ) ;
#875 = SURFACE_STYLE_USAGE ( .BOTH. , #631 ) ;
#876 = FACE_OUTER_BOUND ( 'NONE', #206, .T. ) ;
#877 = DIRECTION ( 'NONE',  ( 0.000000000000000000, 1.000000000000000000, 1.224646799147353207E-16 ) ) ;
#878 = CARTESIAN_POINT ( 'NONE',  ( 0.2666411873824114376, 1.721732169736486240, -0.4052592521765773226 ) ) ;
#879 = EDGE_CURVE ( 'NONE', #144, #791, #119, .T. ) ;
#880 = SURFACE_STYLE_FILL_AREA ( #646 ) ;
#881 = EDGE_LOOP ( 'NONE', ( #691, #942 ) ) ;
#882 = DIRECTION ( 'NONE',  ( 0.000000000000000000, 0.000000000000000000, -1.000000000000000000 ) ) ;
#883 = ADVANCED_FACE ( 'NONE', ( #576 ), #907, .T. ) ;
#884 =( LENGTH_UNIT ( ) NAMED_UNIT ( * ) SI_UNIT ( .MILLI., .METRE. ) );
#885 = AXIS2_PLACEMENT_3D ( 'NONE', #332, #984, #428 ) ;
#886 = DIRECTION ( 'NONE',  ( -1.000000000000000000, -0.000000000000000000, -0.000000000000000000 ) ) ;
#887 =( LENGTH_UNIT ( ) NAMED_UNIT ( * ) SI_UNIT ( .MILLI., .METRE. ) );
#888 = STYLED_ITEM ( 'NONE', ( #491 ), #693 ) ;
#889 = STYLED_ITEM ( 'NONE', ( #370 ), #768 ) ;
#890 = PRESENTATION_LAYER_ASSIGNMENT (  '', '', ( #10 ) ) ;
#891 = VERTEX_POINT ( 'NONE', #551 ) ;
#892 = ADVANCED_FACE ( 'NONE', ( #670, #762 ), #470, .F. ) ;
#893 = SURFACE_SIDE_STYLE ('',( #970 ) ) ;
#894 = CARTESIAN_POINT ( 'NONE',  ( 0.9968214519863044520, 3.311827956989247479, 0.000000000000000000 ) ) ;
#895 = CARTESIAN_POINT ( 'NONE',  ( 0.000000000000000000, -1.959999999999999964, -0.4349999999999999978 ) ) ;
#896 =( NAMED_UNIT ( * ) PLANE_ANGLE_UNIT ( ) SI_UNIT ( $, .RADIAN. ) );
#897 = MECHANICAL_DESIGN_GEOMETRIC_PRESENTATION_REPRESENTATION (  '', ( #116 ), #581 ) ;
#898 = CIRCLE ( 'NONE', #132, 5.995482475482740270 ) ;
#899 = CARTESIAN_POINT ( 'NONE',  ( 2.193400286944045430, -4.336808689942017736E-16, -0.1903515064562410486 ) ) ;
#900 = CARTESIAN_POINT ( 'NONE',  ( 0.000000000000000000, 1.959999999999999964, -0.4350000000000000533 ) ) ;
#901 =( GEOMETRIC_REPRESENTATION_CONTEXT ( 3 ) GLOBAL_UNCERTAINTY_ASSIGNED_CONTEXT ( ( #85 ) ) GLOBAL_UNIT_ASSIGNED_CONTEXT ( ( #106, #896, #747 ) ) REPRESENTATION_CONTEXT ( 'NONE', 'WORKASPACE' ) );
#902 = SURFACE_SIDE_STYLE ('',( #17 ) ) ;
#903 = EDGE_CURVE ( 'NONE', #144, #396, #615, .T. ) ;
#904 = SURFACE_SIDE_STYLE ('',( #811 ) ) ;
#905 = ORIENTED_EDGE ( 'NONE', *, *, #427, .T. ) ;
#906 = SURFACE_STYLE_FILL_AREA ( #297 ) ;
#907 = PLANE ( 'NONE',  #383 ) ;
#908 = CARTESIAN_POINT ( 'NONE',  ( 22.60000000000000142, 0.000000000000000000, 0.000000000000000000 ) ) ;
#909 = VERTEX_POINT ( 'NONE', #225 ) ;
#910 = CARTESIAN_POINT ( 'NONE',  ( -25.39999999999996305, 0.000000000000000000, 0.000000000000000000 ) ) ;
#911 = DIRECTION ( 'NONE',  ( -0.9938370308809506559, -0.1108510534444136914, -3.870343844922732447E-16 ) ) ;
#912 = DIRECTION ( 'NONE',  ( -0.9938370308809507669, 0.000000000000000000, 0.1108510534444137052 ) ) ;
#913 = CIRCLE ( 'NONE', #511, 6.000000000000000000 ) ;
#914 = AXIS2_PLACEMENT_3D ( 'NONE', #1007, #989, #1012 ) ;
#915 = ORIENTED_EDGE ( 'NONE', *, *, #67, .T. ) ;
#916 = EDGE_CURVE ( 'NONE', #233, #791, #125, .T. ) ;
#917 = PRODUCT ( 'M3.5 x 20 Screw head', 'M3.5 x 20 Screw head', '', ( #596 ) ) ;
#918 = SURFACE_STYLE_USAGE ( .BOTH. , #849 ) ;
#919 = LINE ( 'NONE', #460, #79 ) ;
#920 = EDGE_LOOP ( 'NONE', ( #696, #377, #769 ) ) ;
#921 = DIRECTION ( 'NONE',  ( 0.000000000000000000, -1.246209393661499619E-16, 1.000000000000000000 ) ) ;
#922 = DIRECTION ( 'NONE',  ( -0.000000000000000000, 0.000000000000000000, 1.000000000000000000 ) ) ;
#923 = DIRECTION ( 'NONE',  ( -0.1108510534444136914, 0.9938370308809506559, 3.595744332370143179E-15 ) ) ;
#924 = FILL_AREA_STYLE_COLOUR ( '', #856 ) ;
#925 = ADVANCED_BREP_SHAPE_REPRESENTATION ( 'M3.5 x 20 Screw head', ( #825, #158 ), #901 ) ;
#926 = SURFACE_STYLE_FILL_AREA ( #766 ) ;
#927 = CARTESIAN_POINT ( 'NONE',  ( 0.9968214519863044520, 0.000000000000000000, 0.000000000000000000 ) ) ;
#928 = AXIS2_PLACEMENT_3D ( 'NONE', #591, #140, #503 ) ;
#929 = ORIENTED_EDGE ( 'NONE', *, *, #46, .F. ) ;
#930 = AXIS2_PLACEMENT_3D ( 'NONE', #489, #807, #793 ) ;
#931 = MECHANICAL_DESIGN_GEOMETRIC_PRESENTATION_REPRESENTATION (  '', ( #437 ), #981 ) ;
#932 = SURFACE_SIDE_STYLE ('',( #612 ) ) ;
#933 =( LENGTH_UNIT ( ) NAMED_UNIT ( * ) SI_UNIT ( .MILLI., .METRE. ) );
#934 = PLANE ( 'NONE',  #545 ) ;
#935 = EDGE_CURVE ( 'NONE', #662, #702, #919, .T. ) ;
#936 = DIRECTION ( 'NONE',  ( 0.7431005017819711789, -0.08288428673721758011, -0.6640269868487616023 ) ) ;
#937 = ORIENTED_EDGE ( 'NONE', *, *, #916, .F. ) ;
#938 = SPHERICAL_SURFACE ( 'NONE', #5, 6.000000000000000000 ) ;
#939 = ORIENTED_EDGE ( 'NONE', *, *, #831, .T. ) ;
#940 =( NAMED_UNIT ( * ) SI_UNIT ( $, .STERADIAN. ) SOLID_ANGLE_UNIT ( ) );
#941 = SURFACE_STYLE_FILL_AREA ( #777 ) ;
#942 = ORIENTED_EDGE ( 'NONE', *, *, #797, .F. ) ;
#943 = CARTESIAN_POINT ( 'NONE',  ( 1.949999999999999956, 0.2174999999999999989, 0.2174999999999999156 ) ) ;
#944 = PRESENTATION_LAYER_ASSIGNMENT (  '', '', ( #375 ) ) ;
#945 = STYLED_ITEM ( 'NONE', ( #398 ), #476 ) ;
#946 = ORIENTED_EDGE ( 'NONE', *, *, #7, .F. ) ;
#947 = AXIS2_PLACEMENT_3D ( 'NONE', #927, #474, #698 ) ;
#948 = EDGE_CURVE ( 'NONE', #752, #708, #243, .T. ) ;
#949 = MECHANICAL_DESIGN_GEOMETRIC_PRESENTATION_REPRESENTATION (  '', ( #803 ), #530 ) ;
#950 = DIRECTION ( 'NONE',  ( -1.000000000000000000, 0.000000000000000000, 0.000000000000000000 ) ) ;
#951 = DIRECTION ( 'NONE',  ( 0.7431005017819711789, -0.08288428673722218754, 0.6640269868487610472 ) ) ;
#952 = CYLINDRICAL_SURFACE ( 'NONE', #561, 3.500000000000000444 ) ;
#953 = PRESENTATION_STYLE_ASSIGNMENT (( #560 ) ) ;
#954 = EDGE_CURVE ( 'NONE', #430, #404, #513, .T. ) ;
#955 =( NAMED_UNIT ( * ) PLANE_ANGLE_UNIT ( ) SI_UNIT ( $, .RADIAN. ) );
#956 = LINE ( 'NONE', #566, #168 ) ;
#957 = CARTESIAN_POINT ( 'NONE',  ( 0.000000000000000000, -0.4350000000000069367, 1.959999999999998188 ) ) ;
#958 = CARTESIAN_POINT ( 'NONE',  ( 6.000000000000000000, 2.326828918379972351E-16, 0.000000000000000000 ) ) ;
#959 = EDGE_CURVE ( 'NONE', #291, #871, #256, .T. ) ;
#960 = FILL_AREA_STYLE ('',( #329 ) ) ;
#961 = CIRCLE ( 'NONE', #767, 5.437518987584765817 ) ;
#962 = SURFACE_SIDE_STYLE ('',( #815 ) ) ;
#963 =( GEOMETRIC_REPRESENTATION_CONTEXT ( 3 ) GLOBAL_UNCERTAINTY_ASSIGNED_CONTEXT ( ( #366 ) ) GLOBAL_UNIT_ASSIGNED_CONTEXT ( ( #884, #641, #100 ) ) REPRESENTATION_CONTEXT ( 'NONE', 'WORKASPACE' ) );
#964 = CARTESIAN_POINT ( 'NONE',  ( 1.949999999999999956, 0.2174999999999999989, 0.2174999999999999711 ) ) ;
#965 = EDGE_CURVE ( 'NONE', #662, #200, #25, .T. ) ;
#966 = ORIENTED_EDGE ( 'NONE', *, *, #234, .T. ) ;
#967 = VERTEX_POINT ( 'NONE', #69 ) ;
#968 =( NAMED_UNIT ( * ) PLANE_ANGLE_UNIT ( ) SI_UNIT ( $, .RADIAN. ) );
#969 = SURFACE_SIDE_STYLE ('',( #748 ) ) ;
#970 = SURFACE_STYLE_FILL_AREA ( #455 ) ;
#971 = ORIENTED_EDGE ( 'NONE', *, *, #526, .F. ) ;
#972 = FILL_AREA_STYLE ('',( #29 ) ) ;
#973 = DIRECTION ( 'NONE',  ( -0.9938370308809507669, -0.1108510534444137052, 0.000000000000000000 ) ) ;
#974 =( NAMED_UNIT ( * ) SI_UNIT ( $, .STERADIAN. ) SOLID_ANGLE_UNIT ( ) );
#975 = MECHANICAL_DESIGN_GEOMETRIC_PRESENTATION_REPRESENTATION (  '', ( #251 ), #642 ) ;
#976 = EDGE_CURVE ( 'NONE', #549, #867, #61, .T. ) ;
#977 =( GEOMETRIC_REPRESENTATION_CONTEXT ( 3 ) GLOBAL_UNCERTAINTY_ASSIGNED_CONTEXT ( ( #675 ) ) GLOBAL_UNIT_ASSIGNED_CONTEXT ( ( #348, #101, #578 ) ) REPRESENTATION_CONTEXT ( 'NONE', 'WORKASPACE' ) );
#978 = LINE ( 'NONE', #506, #450 ) ;
#979 = COLOUR_RGB ( '',0.7764705882352941346, 0.7568627450980391913, 0.7372549019607843590 ) ;
#980 = CARTESIAN_POINT ( 'NONE',  ( 1.347043950347265318, 0.000000000000000000, 0.000000000000000000 ) ) ;
#981 =( GEOMETRIC_REPRESENTATION_CONTEXT ( 3 ) GLOBAL_UNCERTAINTY_ASSIGNED_CONTEXT ( ( #1002 ) ) GLOBAL_UNIT_ASSIGNED_CONTEXT ( ( #887, #656, #261 ) ) REPRESENTATION_CONTEXT ( 'NONE', 'WORKASPACE' ) );
#982 = ORIENTED_EDGE ( 'NONE', *, *, #976, .F. ) ;
#983 = DIRECTION ( 'NONE',  ( 0.000000000000000000, 0.000000000000000000, 1.000000000000000000 ) ) ;
#984 = DIRECTION ( 'NONE',  ( -0.1108510534444136914, 1.257808851980383614E-16, -0.9938370308809506559 ) ) ;
#985 = EDGE_CURVE ( 'NONE', #442, #967, #600, .T. ) ;
#986 = DIRECTION ( 'NONE',  ( 0.9938370308809507669, 0.000000000000000000, 0.1108510534444137746 ) ) ;
#987 = ORIENTED_EDGE ( 'NONE', *, *, #67, .F. ) ;
#988 = CARTESIAN_POINT ( 'NONE',  ( 0.9968214519863044520, -3.311827956989247035, -4.055819506853600563E-16 ) ) ;
#989 = DIRECTION ( 'NONE',  ( 0.6663196743247736809, 0.7456662065614397816, 0.000000000000000000 ) ) ;
#990 =( LENGTH_UNIT ( ) NAMED_UNIT ( * ) SI_UNIT ( .MILLI., .METRE. ) );
#991 = ADVANCED_FACE ( 'NONE', ( #213 ), #613, .F. ) ;
#992 = ORIENTED_EDGE ( 'NONE', *, *, #831, .F. ) ;
#993 =( NAMED_UNIT ( * ) PLANE_ANGLE_UNIT ( ) SI_UNIT ( $, .RADIAN. ) );
#994 = CIRCLE ( 'NONE', #785, 5.995482475482741158 ) ;
#995 = DIRECTION ( 'NONE',  ( -0.1108510534444137469, -0.9938370308809506559, -3.448999966305766196E-15 ) ) ;
#996 = FACE_OUTER_BOUND ( 'NONE', #124, .T. ) ;
#997 = AXIS2_PLACEMENT_3D ( 'NONE', #742, #27, #501 ) ;
#998 = STYLED_ITEM ( 'NONE', ( #224 ), #557 ) ;
#999 = COLOUR_RGB ( '',0.7764705882352941346, 0.7568627450980391913, 0.7372549019607843590 ) ;
#1000 = STYLED_ITEM ( 'NONE', ( #387 ), #991 ) ;
#1001 = VERTEX_POINT ( 'NONE', #89 ) ;
#1002 = UNCERTAINTY_MEASURE_WITH_UNIT (LENGTH_MEASURE( 1.000000000000000082E-05 ), #887, 'distance_accuracy_value', 'NONE');
#1003 = CARTESIAN_POINT ( 'NONE',  ( 1.949999999999999956, -0.2175000000000000266, -0.2174999999999999989 ) ) ;
#1004 = DIRECTION ( 'NONE',  ( 0.000000000000000000, 0.000000000000000000, 1.000000000000000000 ) ) ;
#1005 = SURFACE_SIDE_STYLE ('',( #773 ) ) ;
#1006 = ORIENTED_EDGE ( 'NONE', *, *, #166, .T. ) ;
#1007 = CARTESIAN_POINT ( 'NONE',  ( 4.309938594911940868, -1.891316923914901471, 0.000000000000000000 ) ) ;
#1008 = CARTESIAN_POINT ( 'NONE',  ( 2.193400286944045430, 0.1903515064562410486, 2.309278636184420884E-16 ) ) ;
#1009 = ORIENTED_EDGE ( 'NONE', *, *, #965, .T. ) ;
#1010 = SHAPE_DEFINITION_REPRESENTATION ( #463, #925 ) ;
#1011 = FILL_AREA_STYLE ('',( #567 ) ) ;
#1012 = DIRECTION ( 'NONE',  ( -0.7456662065614396706, 0.6663196743247736809, 0.000000000000000000 ) ) ;
#1013 =( NAMED_UNIT ( * ) SI_UNIT ( $, .STERADIAN. ) SOLID_ANGLE_UNIT ( ) );
#1014 = COLOUR_RGB ( '',0.7764705882352941346, 0.7568627450980391913, 0.7372549019607843590 ) ;
#1015 = CARTESIAN_POINT ( 'NONE',  ( 0.000000000000000000, 0.4349999999999932254, 1.960000000000001741 ) ) ;
#1016 = AXIS2_PLACEMENT_3D ( 'NONE', #9, #555, #866 ) ;
#1017 = ORIENTED_EDGE ( 'NONE', *, *, #948, .F. ) ;
#1018 = MECHANICAL_DESIGN_GEOMETRIC_PRESENTATION_REPRESENTATION (  '', ( #10 ), #81 ) ;
#1019 = ORIENTED_EDGE ( 'NONE', *, *, #816, .F. ) ;
#1020 = DIRECTION ( 'NONE',  ( 0.7431005017819711789, 0.08288428673721742745, 0.6640269868487616023 ) ) ;
#1021 = LINE ( 'NONE', #895, #360 ) ;
#1022 = PLANE ( 'NONE',  #801 ) ;
#1023 = ORIENTED_EDGE ( 'NONE', *, *, #985, .F. ) ;
#1024 = CARTESIAN_POINT ( 'NONE',  ( 2.193400286944045430, 4.336808689942017736E-16, 0.1903515064562409931 ) ) ;
#1025 = ADVANCED_FACE ( 'NONE', ( #790 ), #723, .T. ) ;
ENDSEC;
END-ISO-10303-21;
