ISO-10303-21;
HEADER;
FILE_DESCRIPTION(('STEP AP242'),
    '1');
FILE_NAME('ƒŒœ—“≈Õ¿ Àﬂ',
    '',
    ('UNSPECIFIED'),
    ('UNSPECIFIED'),
    'C3D Converter',
    'C3D Toolkit',
    '');
FILE_SCHEMA(('AP242_MANAGED_MODEL_BASED_3D_ENGINEERING_MIM_LF { 1 0 10303 442 1 1 4 }'));
ENDSEC;

DATA;
#1=PRODUCT_DEFINITION('','UNSPECIFIED',#28,#31);
#2=SHAPE_DEFINITION_REPRESENTATION(#26,#3);
#3=SHAPE_REPRESENTATION('NONE',(#4),#8);
#4=AXIS2_PLACEMENT_3D('',#5,#6,#7);
#5=CARTESIAN_POINT('',(0.,0.,0.));
#6=DIRECTION('',(0.,0.,1.));
#7=DIRECTION('',(1.,0.,0.));
#8=(GEOMETRIC_REPRESENTATION_CONTEXT(3)GLOBAL_UNCERTAINTY_ASSIGNED_CONTEXT((#10))
GLOBAL_UNIT_ASSIGNED_CONTEXT((#9,#11,#12))REPRESENTATION_CONTEXT('NONE','NONE'));
#9=(LENGTH_UNIT()NAMED_UNIT(*)SI_UNIT(.MILLI.,.METRE.));
#10=UNCERTAINTY_MEASURE_WITH_UNIT(LENGTH_MEASURE(1.E-5),#9,'NONE','NONE');
#11=(NAMED_UNIT(*)PLANE_ANGLE_UNIT()SI_UNIT($,.RADIAN.));
#12=(NAMED_UNIT(*)SI_UNIT($,.STERADIAN.)SOLID_ANGLE_UNIT());
#13=MANIFOLD_SOLID_BREP('',#14);
#14=CLOSED_SHELL('',(#53,#54,#55,#56,#57,#58));
#15=COLOUR_RGB('',0.564705882352941,0.564705882352941,0.564705882352941);
#16=FILL_AREA_STYLE_COLOUR('',#15);
#17=FILL_AREA_STYLE($,(#16));
#18=SURFACE_STYLE_FILL_AREA(#17);
#19=SURFACE_SIDE_STYLE('',(#18));
#20=SURFACE_STYLE_USAGE(.BOTH.,#19);
#21=PRESENTATION_STYLE_ASSIGNMENT((#20));
#22=MECHANICAL_DESIGN_GEOMETRIC_PRESENTATION_REPRESENTATION('NONE',(#23),#8);
#23=STYLED_ITEM('',(#21),#13);
#24=ADVANCED_BREP_SHAPE_REPRESENTATION('NONE',(#13),#8);
#25=SHAPE_REPRESENTATION_RELATIONSHIP('','',#3,#24);
#26=PRODUCT_DEFINITION_SHAPE('NONE','NONE',#1);
#27=MECHANICAL_CONTEXT('NONE',#32,'mechanical');
#28=PRODUCT_DEFINITION_FORMATION_WITH_SPECIFIED_SOURCE('ANY','UNSPECIFIED',#29,.NOT_KNOWN.);
#29=PRODUCT('','\X2\0414043504420430043B044C\X0\','NONE',(#27));
#30=PRODUCT_RELATED_PRODUCT_CATEGORY('detail','',(#29));
#31=DESIGN_CONTEXT('detailed design',#32,'design');
#32=APPLICATION_CONTEXT('configuration controlled 3d designs of mechanical parts and assemblies');
#33=APPLICATION_PROTOCOL_DEFINITION('international standard','config_control_design',
1994,#32);
#34=CC_DESIGN_DATE_AND_TIME_ASSIGNMENT(#35,#39,(#1));
#35=DATE_AND_TIME(#36,#37);
#36=CALENDAR_DATE(0,1,1);
#37=LOCAL_TIME(0,0,0.,#38);
#38=COORDINATED_UNIVERSAL_TIME_OFFSET(0,0,.AHEAD.);
#39=DATE_TIME_ROLE('creation_date');
#40=CC_DESIGN_APPROVAL(#41,(#1));
#41=APPROVAL(#42,'UNSPECIFIED');
#42=APPROVAL_STATUS('not_yet_approved');
#43=APPROVAL_DATE_TIME(#44,#41);
#44=DATE_AND_TIME(#45,#46);
#45=CALENDAR_DATE(0,1,1);
#46=LOCAL_TIME(0,0,0.,#47);
#47=COORDINATED_UNIVERSAL_TIME_OFFSET(0,0,.AHEAD.);
#48=PERSON('UNSPECIFIED','ADMIN','UNSPECIFIED',('UNSPECIFIED'),('UNSPECIFIED'),(
'UNSPECIFIED'));
#49=ORGANIZATION('UNSPECIFIED','UNSPECIFIED','UNSPECIFIED');
#50=PERSON_AND_ORGANIZATION(#48,#49);
#51=PERSON_AND_ORGANIZATION_ROLE('creator');
#52=CC_DESIGN_PERSON_AND_ORGANIZATION_ASSIGNMENT(#50,#51,(#28,#1));
#53=ADVANCED_FACE('',(#59),#61,.T.);
#54=ADVANCED_FACE('',(#66),#68,.T.);
#55=ADVANCED_FACE('',(#73),#75,.T.);
#56=ADVANCED_FACE('',(#80),#82,.T.);
#57=ADVANCED_FACE('',(#87),#89,.T.);
#58=ADVANCED_FACE('',(#94),#96,.F.);
#59=FACE_BOUND('',#60,.T.);
#60=EDGE_LOOP('',(#101,#102,#103,#104));
#61=PLANE('',#62);
#62=AXIS2_PLACEMENT_3D('',#63,#64,#65);
#63=CARTESIAN_POINT('',(-40.8104122122361,2.31675099838421E-15,-37.8354150763669));
#64=DIRECTION('',(-1.,-1.3684555315672E-48,-1.57898385724467E-16));
#65=DIRECTION('',(-1.57898385724467E-16,-6.12323399573677E-17,1.));
#66=FACE_BOUND('',#67,.T.);
#67=EDGE_LOOP('',(#105,#106,#107,#108));
#68=PLANE('',#69);
#69=AXIS2_PLACEMENT_3D('',#70,#71,#72);
#70=CARTESIAN_POINT('',(-40.8104122122362,-3.19415959777888E-15,52.1645849236331));
#71=DIRECTION('',(-1.86984930463184E-16,0.,1.));
#72=DIRECTION('',(1.,-1.0379748752908E-32,1.86984930463184E-16));
#73=FACE_BOUND('',#74,.T.);
#74=EDGE_LOOP('',(#109,#110,#111,#112));
#75=PLANE('',#76);
#76=AXIS2_PLACEMENT_3D('',#77,#78,#79);
#77=CARTESIAN_POINT('',(35.1895877877638,-3.19415959777888E-15,52.1645849236331));
#78=DIRECTION('',(1.,1.3684555315672E-48,1.57898385724467E-16));
#79=DIRECTION('',(1.57898385724467E-16,6.12323399573677E-17,-1.));
#80=FACE_BOUND('',#81,.T.);
#81=EDGE_LOOP('',(#113,#114,#115,#116));
#82=PLANE('',#83);
#83=AXIS2_PLACEMENT_3D('',#84,#85,#86);
#84=CARTESIAN_POINT('',(35.1895877877639,2.31675099838421E-15,-37.8354150763669));
#85=DIRECTION('',(1.86984930463184E-16,0.,-1.));
#86=DIRECTION('',(-1.,1.0379748752908E-32,-1.86984930463184E-16));
#87=FACE_BOUND('',#88,.T.);
#88=EDGE_LOOP('',(#117,#118,#119,#120));
#89=PLANE('',#90);
#90=AXIS2_PLACEMENT_3D('',#91,#92,#93);
#91=CARTESIAN_POINT('',(0.,2.5,1.53080849893419E-16));
#92=DIRECTION('',(0.,1.,6.12323399573677E-17));
#93=DIRECTION('',(-1.,7.49879891330929E-33,-1.22464679914735E-16));
#94=FACE_BOUND('',#95,.T.);
#95=EDGE_LOOP('',(#121,#122,#123,#124));
#96=PLANE('',#97);
#97=AXIS2_PLACEMENT_3D('',#98,#99,#100);
#98=CARTESIAN_POINT('',(0.,0.,0.));
#99=DIRECTION('',(0.,1.,6.12323399573677E-17));
#100=DIRECTION('',(-1.,7.49879891330929E-33,-1.22464679914735E-16));
#101=ORIENTED_EDGE('',*,*,#125,.T.);
#102=ORIENTED_EDGE('',*,*,#126,.T.);
#103=ORIENTED_EDGE('',*,*,#127,.F.);
#104=ORIENTED_EDGE('',*,*,#128,.F.);
#105=ORIENTED_EDGE('',*,*,#129,.T.);
#106=ORIENTED_EDGE('',*,*,#130,.T.);
#107=ORIENTED_EDGE('',*,*,#131,.F.);
#108=ORIENTED_EDGE('',*,*,#126,.F.);
#109=ORIENTED_EDGE('',*,*,#132,.T.);
#110=ORIENTED_EDGE('',*,*,#133,.T.);
#111=ORIENTED_EDGE('',*,*,#134,.F.);
#112=ORIENTED_EDGE('',*,*,#130,.F.);
#113=ORIENTED_EDGE('',*,*,#135,.T.);
#114=ORIENTED_EDGE('',*,*,#128,.T.);
#115=ORIENTED_EDGE('',*,*,#136,.F.);
#116=ORIENTED_EDGE('',*,*,#133,.F.);
#117=ORIENTED_EDGE('',*,*,#127,.T.);
#118=ORIENTED_EDGE('',*,*,#131,.T.);
#119=ORIENTED_EDGE('',*,*,#134,.T.);
#120=ORIENTED_EDGE('',*,*,#136,.T.);
#121=ORIENTED_EDGE('',*,*,#135,.F.);
#122=ORIENTED_EDGE('',*,*,#132,.F.);
#123=ORIENTED_EDGE('',*,*,#129,.F.);
#124=ORIENTED_EDGE('',*,*,#125,.F.);
#125=EDGE_CURVE('',#137,#138,#139,.T.);
#126=EDGE_CURVE('',#138,#140,#141,.T.);
#127=EDGE_CURVE('',#142,#140,#143,.T.);
#128=EDGE_CURVE('',#137,#142,#144,.T.);
#129=EDGE_CURVE('',#138,#145,#146,.T.);
#130=EDGE_CURVE('',#145,#147,#148,.T.);
#131=EDGE_CURVE('',#140,#147,#149,.T.);
#132=EDGE_CURVE('',#145,#150,#151,.T.);
#133=EDGE_CURVE('',#150,#152,#153,.T.);
#134=EDGE_CURVE('',#147,#152,#154,.T.);
#135=EDGE_CURVE('',#150,#137,#155,.T.);
#136=EDGE_CURVE('',#152,#142,#156,.T.);
#137=VERTEX_POINT('',#157);
#138=VERTEX_POINT('',#158);
#139=LINE('',#159,#160);
#140=VERTEX_POINT('',#162);
#141=LINE('',#163,#164);
#142=VERTEX_POINT('',#166);
#143=LINE('',#167,#168);
#144=LINE('',#170,#171);
#145=VERTEX_POINT('',#173);
#146=LINE('',#174,#175);
#147=VERTEX_POINT('',#177);
#148=LINE('',#178,#179);
#149=LINE('',#181,#182);
#150=VERTEX_POINT('',#184);
#151=LINE('',#185,#186);
#152=VERTEX_POINT('',#188);
#153=LINE('',#189,#190);
#154=LINE('',#192,#193);
#155=LINE('',#195,#196);
#156=LINE('',#198,#199);
#157=CARTESIAN_POINT('',(-40.8104122122361,2.31675099838421E-15,-37.8354150763669));
#158=CARTESIAN_POINT('',(-40.8104122122362,-3.19415959777888E-15,52.1645849236331));
#159=CARTESIAN_POINT('',(-40.8104122122361,2.31675099838421E-15,-37.8354150763669));
#160=VECTOR('',#161,1.);
#161=DIRECTION('',(-1.57898385724467E-16,-6.12323399573677E-17,1.));
#162=CARTESIAN_POINT('',(-40.8104122122362,2.5,52.1645849236331));
#163=CARTESIAN_POINT('',(-40.8104122122362,-3.19415959777888E-15,52.1645849236331));
#164=VECTOR('',#165,1.);
#165=DIRECTION('',(0.,1.,0.));
#166=CARTESIAN_POINT('',(-40.8104122122361,2.5,-37.8354150763669));
#167=CARTESIAN_POINT('',(-40.8104122122361,2.5,-37.8354150763669));
#168=VECTOR('',#169,1.);
#169=DIRECTION('',(-1.57898385724467E-16,-5.9211894646675E-17,1.));
#170=CARTESIAN_POINT('',(-40.8104122122361,2.31675099838421E-15,-37.8354150763669));
#171=VECTOR('',#172,1.);
#172=DIRECTION('',(0.,1.,0.));
#173=CARTESIAN_POINT('',(35.1895877877638,-3.19415959777888E-15,52.1645849236331));
#174=CARTESIAN_POINT('',(-40.8104122122362,-3.19415959777888E-15,52.1645849236331));
#175=VECTOR('',#176,1.);
#176=DIRECTION('',(1.,-1.55696231293621E-32,1.86984930463184E-16));
#177=CARTESIAN_POINT('',(35.1895877877638,2.5,52.1645849236331));
#178=CARTESIAN_POINT('',(35.1895877877638,-3.19415959777888E-15,52.1645849236331));
#179=VECTOR('',#180,1.);
#180=DIRECTION('',(0.,1.,0.));
#181=CARTESIAN_POINT('',(-40.8104122122362,2.5,52.1645849236331));
#182=VECTOR('',#183,1.);
#183=DIRECTION('',(1.,0.,1.86984930463184E-16));
#184=CARTESIAN_POINT('',(35.1895877877639,2.31675099838421E-15,-37.8354150763669));
#185=CARTESIAN_POINT('',(35.1895877877638,-3.19415959777888E-15,52.1645849236331));
#186=VECTOR('',#187,1.);
#187=DIRECTION('',(1.57898385724467E-16,6.12323399573677E-17,-1.));
#188=CARTESIAN_POINT('',(35.1895877877639,2.5,-37.8354150763669));
#189=CARTESIAN_POINT('',(35.1895877877639,2.31675099838421E-15,-37.8354150763669));
#190=VECTOR('',#191,1.);
#191=DIRECTION('',(0.,1.,0.));
#192=CARTESIAN_POINT('',(35.1895877877638,2.5,52.1645849236331));
#193=VECTOR('',#194,1.);
#194=DIRECTION('',(1.57898385724467E-16,5.9211894646675E-17,-1.));
#195=CARTESIAN_POINT('',(35.1895877877639,2.31675099838421E-15,-37.8354150763669));
#196=VECTOR('',#197,1.);
#197=DIRECTION('',(-1.,1.0379748752908E-32,-1.86984930463184E-16));
#198=CARTESIAN_POINT('',(35.1895877877639,2.5,-37.8354150763669));
#199=VECTOR('',#200,1.);
#200=DIRECTION('',(-1.,0.,-1.86984930463184E-16));
ENDSEC;
END-ISO-10303-21;
