ISO-10303-21;
HEADER;
FILE_DESCRIPTION(('STEP AP242'),
    '1');
FILE_NAME('первая половина',
    '',
    ('UNSPECIFIED'),
    ('UNSPECIFIED'),
    'C3D Converter',
    'C3D Toolkit',
    '');
FILE_SCHEMA(('AP242_MANAGED_MODEL_BASED_3D_ENGINEERING_MIM_LF { 1 0 10303 442 1 1 4 }'));
ENDSEC;

DATA;
#1=PRODUCT_DEFINITION('','UNSPECIFIED',#33,#36);
#2=SHAPE_DEFINITION_REPRESENTATION(#31,#3);
#3=SHAPE_REPRESENTATION('NONE',(#4),#8);
#4=AXIS2_PLACEMENT_3D('',#5,#6,#7);
#5=CARTESIAN_POINT('',(0.,0.,0.));
#6=DIRECTION('',(0.,0.,1.));
#7=DIRECTION('',(1.,0.,0.));
#8=(GEOMETRIC_REPRESENTATION_CONTEXT(3)GLOBAL_UNCERTAINTY_ASSIGNED_CONTEXT((#10))
GLOBAL_UNIT_ASSIGNED_CONTEXT((#9,#11,#12))REPRESENTATION_CONTEXT('NONE','NONE'));
#9=(LENGTH_UNIT()NAMED_UNIT(*)SI_UNIT(.MILLI.,.METRE.));
#10=UNCERTAINTY_MEASURE_WITH_UNIT(LENGTH_MEASURE(1.E-5),#9,'NONE','NONE');
#11=(NAMED_UNIT(*)PLANE_ANGLE_UNIT()SI_UNIT($,.RADIAN.));
#12=(NAMED_UNIT(*)SI_UNIT($,.STERADIAN.)SOLID_ANGLE_UNIT());
#13=MANIFOLD_SOLID_BREP('',#14);
#14=CLOSED_SHELL('',(#58,#59,#60,#61,#62,#63,#64,#65,#66,#67,#68,#69,#70,#71,#72,
#73,#74,#75,#76,#77,#78,#79,#80,#81,#82,#83,#84,#85,#86,#87,#88,#89,#90,#91,#92,
#93,#94,#95,#96,#97,#98,#99));
#15=COLOUR_RGB('',0.2,0.4,0.);
#16=FILL_AREA_STYLE_COLOUR('',#15);
#17=FILL_AREA_STYLE($,(#16));
#18=SURFACE_STYLE_FILL_AREA(#17);
#19=SURFACE_SIDE_STYLE('',(#18));
#20=SURFACE_STYLE_USAGE(.BOTH.,#19);
#21=PRESENTATION_STYLE_ASSIGNMENT((#20));
#22=MECHANICAL_DESIGN_GEOMETRIC_PRESENTATION_REPRESENTATION('NONE',(#23),#8);
#23=STYLED_ITEM('',(#21),#13);
#24=ADVANCED_BREP_SHAPE_REPRESENTATION('NONE',(#13),#8);
#25=SHAPE_REPRESENTATION_RELATIONSHIP('','',#3,#24);
#26=GEOMETRIC_CURVE_SET('',(#100));
#27=GEOMETRIC_CURVE_SET('',(#101));
#28=GEOMETRIC_CURVE_SET('',(#102));
#29=GEOMETRICALLY_BOUNDED_WIREFRAME_SHAPE_REPRESENTATION('NONE',(#26,#27,#28),#8);
#30=SHAPE_REPRESENTATION_RELATIONSHIP('','',#3,#29);
#31=PRODUCT_DEFINITION_SHAPE('NONE','NONE',#1);
#32=MECHANICAL_CONTEXT('NONE',#37,'mechanical');
#33=PRODUCT_DEFINITION_FORMATION_WITH_SPECIFIED_SOURCE('ANY','UNSPECIFIED',#34,.NOT_KNOWN.);
#34=PRODUCT('','\X2\043F0435044004320430044F\X0\ \X2\043F043E043B043E04320438043D0430\X0\',
'NONE',(#32));
#35=PRODUCT_RELATED_PRODUCT_CATEGORY('detail','',(#34));
#36=DESIGN_CONTEXT('detailed design',#37,'design');
#37=APPLICATION_CONTEXT('configuration controlled 3d designs of mechanical parts and assemblies');
#38=APPLICATION_PROTOCOL_DEFINITION('international standard','config_control_design',
1994,#37);
#39=CC_DESIGN_DATE_AND_TIME_ASSIGNMENT(#40,#44,(#1));
#40=DATE_AND_TIME(#41,#42);
#41=CALENDAR_DATE(0,1,1);
#42=LOCAL_TIME(0,0,0.,#43);
#43=COORDINATED_UNIVERSAL_TIME_OFFSET(0,0,.AHEAD.);
#44=DATE_TIME_ROLE('creation_date');
#45=CC_DESIGN_APPROVAL(#46,(#1));
#46=APPROVAL(#47,'UNSPECIFIED');
#47=APPROVAL_STATUS('not_yet_approved');
#48=APPROVAL_DATE_TIME(#49,#46);
#49=DATE_AND_TIME(#50,#51);
#50=CALENDAR_DATE(0,1,1);
#51=LOCAL_TIME(0,0,0.,#52);
#52=COORDINATED_UNIVERSAL_TIME_OFFSET(0,0,.AHEAD.);
#53=PERSON('UNSPECIFIED','ADMIN','UNSPECIFIED',('UNSPECIFIED'),('UNSPECIFIED'),(
'UNSPECIFIED'));
#54=ORGANIZATION('UNSPECIFIED','UNSPECIFIED','UNSPECIFIED');
#55=PERSON_AND_ORGANIZATION(#53,#54);
#56=PERSON_AND_ORGANIZATION_ROLE('creator');
#57=CC_DESIGN_PERSON_AND_ORGANIZATION_ASSIGNMENT(#55,#56,(#33,#1));
#58=ADVANCED_FACE('',(#103,#105),#107,.T.);
#59=ADVANCED_FACE('',(#112,#114,#116,#118,#120,#122),#124,.F.);
#60=ADVANCED_FACE('',(#129,#131),#133,.F.);
#61=ADVANCED_FACE('',(#138),#140,.T.);
#62=ADVANCED_FACE('',(#145),#147,.T.);
#63=ADVANCED_FACE('',(#152),#154,.T.);
#64=ADVANCED_FACE('',(#159),#161,.T.);
#65=ADVANCED_FACE('',(#166),#168,.T.);
#66=ADVANCED_FACE('',(#173),#175,.T.);
#67=ADVANCED_FACE('',(#180),#182,.T.);
#68=ADVANCED_FACE('',(#187),#189,.T.);
#69=ADVANCED_FACE('',(#194),#196,.T.);
#70=ADVANCED_FACE('',(#201),#203,.T.);
#71=ADVANCED_FACE('',(#208),#210,.T.);
#72=ADVANCED_FACE('',(#215),#217,.T.);
#73=ADVANCED_FACE('',(#222),#224,.T.);
#74=ADVANCED_FACE('',(#229),#231,.T.);
#75=ADVANCED_FACE('',(#236,#238),#240,.F.);
#76=ADVANCED_FACE('',(#245),#247,.F.);
#77=ADVANCED_FACE('',(#252),#254,.F.);
#78=ADVANCED_FACE('',(#259),#261,.F.);
#79=ADVANCED_FACE('',(#266),#268,.F.);
#80=ADVANCED_FACE('',(#273),#275,.F.);
#81=ADVANCED_FACE('',(#280),#282,.F.);
#82=ADVANCED_FACE('',(#287),#289,.F.);
#83=ADVANCED_FACE('',(#294),#296,.F.);
#84=ADVANCED_FACE('',(#301,#303),#305,.F.);
#85=ADVANCED_FACE('',(#310,#312),#314,.F.);
#86=ADVANCED_FACE('',(#319,#321),#323,.T.);
#87=ADVANCED_FACE('',(#328),#330,.T.);
#88=ADVANCED_FACE('',(#335),#337,.T.);
#89=ADVANCED_FACE('',(#342,#344),#346,.T.);
#90=ADVANCED_FACE('',(#351),#353,.T.);
#91=ADVANCED_FACE('',(#358),#360,.T.);
#92=ADVANCED_FACE('',(#365),#367,.T.);
#93=ADVANCED_FACE('',(#372,#374),#376,.T.);
#94=ADVANCED_FACE('',(#381),#383,.T.);
#95=ADVANCED_FACE('',(#388),#390,.T.);
#96=ADVANCED_FACE('',(#395),#397,.T.);
#97=ADVANCED_FACE('',(#402,#404),#406,.T.);
#98=ADVANCED_FACE('',(#411),#413,.T.);
#99=ADVANCED_FACE('',(#418),#420,.T.);
#100=CARTESIAN_POINT('',(-54.4135389027341,-85.,25.));
#101=CARTESIAN_POINT('',(25.5864610972659,-85.,25.));
#102=CARTESIAN_POINT('',(-14.4135389027341,-40.,10.));
#103=FACE_BOUND('',#104,.T.);
#104=EDGE_LOOP('',(#425,#426,#427,#428));
#105=FACE_BOUND('',#106,.T.);
#106=EDGE_LOOP('',(#429));
#107=PLANE('',#108);
#108=AXIS2_PLACEMENT_3D('',#109,#110,#111);
#109=CARTESIAN_POINT('',(5.32907051820075E-15,90.,25.));
#110=DIRECTION('',(0.,0.,1.));
#111=DIRECTION('',(-1.,1.22464679914735E-16,0.));
#112=FACE_BOUND('',#113,.T.);
#113=EDGE_LOOP('',(#430,#431,#432,#433,#434,#435,#436,#437,#438,#439,#440,#441));
#114=FACE_BOUND('',#115,.T.);
#115=EDGE_LOOP('',(#442));
#116=FACE_BOUND('',#117,.T.);
#117=EDGE_LOOP('',(#443));
#118=FACE_BOUND('',#119,.T.);
#119=EDGE_LOOP('',(#444,#445,#446,#447,#448,#449,#450,#451));
#120=FACE_BOUND('',#121,.T.);
#121=EDGE_LOOP('',(#452));
#122=FACE_BOUND('',#123,.T.);
#123=EDGE_LOOP('',(#453));
#124=PLANE('',#125);
#125=AXIS2_PLACEMENT_3D('',#126,#127,#128);
#126=CARTESIAN_POINT('',(0.,0.,0.));
#127=DIRECTION('',(0.,0.,1.));
#128=DIRECTION('',(-1.,1.22464679914735E-16,0.));
#129=FACE_OUTER_BOUND('',#130,.T.);
#130=EDGE_LOOP('',(#454));
#131=FACE_OUTER_BOUND('',#132,.T.);
#132=EDGE_LOOP('',(#455));
#133=CYLINDRICAL_SURFACE('',#134,2.52500000000001);
#134=AXIS2_PLACEMENT_3D('',#135,#136,#137);
#135=CARTESIAN_POINT('',(-54.4135389027341,5.,0.));
#136=DIRECTION('',(0.,0.,1.));
#137=DIRECTION('',(0.,1.,0.));
#138=FACE_BOUND('',#139,.T.);
#139=EDGE_LOOP('',(#456,#457,#458,#459,#460,#461,#462,#463));
#140=PLANE('',#141);
#141=AXIS2_PLACEMENT_3D('',#142,#143,#144);
#142=CARTESIAN_POINT('',(-64.4135389027341,7.88838342389868E-15,0.));
#143=DIRECTION('',(-1.22464679914735E-16,-1.,0.));
#144=DIRECTION('',(1.,-1.22464679914735E-16,0.));
#145=FACE_BOUND('',#146,.T.);
#146=EDGE_LOOP('',(#464,#465,#466,#467));
#147=PLANE('',#148);
#148=AXIS2_PLACEMENT_3D('',#149,#150,#151);
#149=CARTESIAN_POINT('',(-49.4135389027341,0.,10.));
#150=DIRECTION('',(1.,-7.10542735760101E-16,0.));
#151=DIRECTION('',(7.10542735760101E-16,1.,0.));
#152=FACE_BOUND('',#153,.T.);
#153=EDGE_LOOP('',(#468,#469,#470,#471,#472,#473,#474,#475,#476,#477,#478,#479));
#154=PLANE('',#155);
#155=AXIS2_PLACEMENT_3D('',#156,#157,#158);
#156=CARTESIAN_POINT('',(35.5864610972659,9.99999999999999,0.));
#157=DIRECTION('',(1.06581410364015E-16,1.,0.));
#158=DIRECTION('',(-1.,1.06581410364015E-16,0.));
#159=FACE_BOUND('',#160,.T.);
#160=EDGE_LOOP('',(#480,#481,#482,#483));
#161=PLANE('',#162);
#162=AXIS2_PLACEMENT_3D('',#163,#164,#165);
#163=CARTESIAN_POINT('',(-59.4135389027341,10.,10.));
#164=DIRECTION('',(-1.,7.105427357601E-16,0.));
#165=DIRECTION('',(-7.105427357601E-16,-1.,0.));
#166=FACE_BOUND('',#167,.T.);
#167=EDGE_LOOP('',(#484,#485,#486,#487));
#168=PLANE('',#169);
#169=AXIS2_PLACEMENT_3D('',#170,#171,#172);
#170=CARTESIAN_POINT('',(-64.4135389027341,10.,0.));
#171=DIRECTION('',(-1.,0.,0.));
#172=DIRECTION('',(0.,-1.,0.));
#173=FACE_BOUND('',#174,.T.);
#174=EDGE_LOOP('',(#488,#489,#490,#491));
#175=PLANE('',#176);
#176=AXIS2_PLACEMENT_3D('',#177,#178,#179);
#177=CARTESIAN_POINT('',(35.5864610972659,-8.31348369076253E-15,0.));
#178=DIRECTION('',(1.,0.,0.));
#179=DIRECTION('',(0.,1.,0.));
#180=FACE_BOUND('',#181,.T.);
#181=EDGE_LOOP('',(#492,#493,#494,#495,#496,#497,#498,#499));
#182=PLANE('',#183);
#183=AXIS2_PLACEMENT_3D('',#184,#185,#186);
#184=CARTESIAN_POINT('',(25.5864610972659,-3.1334377684275E-15,0.));
#185=DIRECTION('',(-5.18004592233504E-16,-1.,0.));
#186=DIRECTION('',(1.,-5.18004592233504E-16,0.));
#187=FACE_BOUND('',#188,.T.);
#188=EDGE_LOOP('',(#500,#501,#502,#503));
#189=PLANE('',#190);
#190=AXIS2_PLACEMENT_3D('',#191,#192,#193);
#191=CARTESIAN_POINT('',(25.5864610972659,-80.,0.));
#192=DIRECTION('',(1.,-3.10862446895044E-16,0.));
#193=DIRECTION('',(3.10862446895044E-16,1.,0.));
#194=FACE_BOUND('',#195,.T.);
#195=EDGE_LOOP('',(#504,#505,#506,#507,#508,#509,#510,#511));
#196=PLANE('',#197);
#197=AXIS2_PLACEMENT_3D('',#198,#199,#200);
#198=CARTESIAN_POINT('',(35.5864610972659,-80.,0.));
#199=DIRECTION('',(0.,1.,0.));
#200=DIRECTION('',(-1.,0.,0.));
#201=FACE_BOUND('',#202,.T.);
#202=EDGE_LOOP('',(#512,#513,#514,#515));
#203=PLANE('',#204);
#204=AXIS2_PLACEMENT_3D('',#205,#206,#207);
#205=CARTESIAN_POINT('',(35.5864610972659,-90.,0.));
#206=DIRECTION('',(1.,-7.105427357601E-16,0.));
#207=DIRECTION('',(7.105427357601E-16,1.,0.));
#208=FACE_BOUND('',#209,.T.);
#209=EDGE_LOOP('',(#516,#517,#518,#519,#520,#521,#522,#523,#524,#525,#526,#527));
#210=PLANE('',#211);
#211=AXIS2_PLACEMENT_3D('',#212,#213,#214);
#212=CARTESIAN_POINT('',(-64.4135389027341,-90.,0.));
#213=DIRECTION('',(-1.4210854715202E-16,-1.,0.));
#214=DIRECTION('',(1.,-1.4210854715202E-16,0.));
#215=FACE_BOUND('',#216,.T.);
#216=EDGE_LOOP('',(#528,#529,#530,#531));
#217=PLANE('',#218);
#218=AXIS2_PLACEMENT_3D('',#219,#220,#221);
#219=CARTESIAN_POINT('',(-64.4135389027341,-80.,0.));
#220=DIRECTION('',(-1.,0.,0.));
#221=DIRECTION('',(0.,-1.,0.));
#222=FACE_BOUND('',#223,.T.);
#223=EDGE_LOOP('',(#532,#533,#534,#535,#536,#537,#538,#539));
#224=PLANE('',#225);
#225=AXIS2_PLACEMENT_3D('',#226,#227,#228);
#226=CARTESIAN_POINT('',(-54.4135389027341,-80.,0.));
#227=DIRECTION('',(1.4210854715202E-15,1.,0.));
#228=DIRECTION('',(-1.,1.4210854715202E-15,0.));
#229=FACE_BOUND('',#230,.T.);
#230=EDGE_LOOP('',(#540,#541,#542,#543));
#231=PLANE('',#232);
#232=AXIS2_PLACEMENT_3D('',#233,#234,#235);
#233=CARTESIAN_POINT('',(-54.4135389027341,6.66373662475133E-15,0.));
#234=DIRECTION('',(-1.,8.88178419700125E-17,0.));
#235=DIRECTION('',(-8.88178419700125E-17,-1.,0.));
#236=FACE_OUTER_BOUND('',#237,.T.);
#237=EDGE_LOOP('',(#544));
#238=FACE_OUTER_BOUND('',#239,.T.);
#239=EDGE_LOOP('',(#545));
#240=CYLINDRICAL_SURFACE('',#241,2.52500000000001);
#241=AXIS2_PLACEMENT_3D('',#242,#243,#244);
#242=CARTESIAN_POINT('',(-54.4135389027341,-85.,0.));
#243=DIRECTION('',(0.,0.,1.));
#244=DIRECTION('',(0.,1.,0.));
#245=FACE_BOUND('',#246,.T.);
#246=EDGE_LOOP('',(#546,#547,#548,#549));
#247=CYLINDRICAL_SURFACE('',#248,15.);
#248=AXIS2_PLACEMENT_3D('',#249,#250,#251);
#249=CARTESIAN_POINT('',(1.17213090146241,-65.,0.));
#250=DIRECTION('',(0.,0.,1.));
#251=DIRECTION('',(-1.8167657456141E-16,-1.,0.));
#252=FACE_BOUND('',#253,.T.);
#253=EDGE_LOOP('',(#550,#551,#552,#553));
#254=PLANE('',#255);
#255=AXIS2_PLACEMENT_3D('',#256,#257,#258);
#256=CARTESIAN_POINT('',(16.1721309014624,-65.,0.));
#257=DIRECTION('',(1.,-7.105427357601E-17,0.));
#258=DIRECTION('',(7.105427357601E-17,1.,0.));
#259=FACE_BOUND('',#260,.T.);
#260=EDGE_LOOP('',(#554,#555,#556,#557));
#261=CYLINDRICAL_SURFACE('',#262,15.);
#262=AXIS2_PLACEMENT_3D('',#263,#264,#265);
#263=CARTESIAN_POINT('',(1.17213090146242,-15.,0.));
#264=DIRECTION('',(0.,0.,1.));
#265=DIRECTION('',(1.,-2.40888469208085E-16,0.));
#266=FACE_BOUND('',#267,.T.);
#267=EDGE_LOOP('',(#558,#559,#560,#561));
#268=PLANE('',#269);
#269=AXIS2_PLACEMENT_3D('',#270,#271,#272);
#270=CARTESIAN_POINT('',(1.17213090146242,-1.43543993508678E-14,0.));
#271=DIRECTION('',(1.22464679914735E-16,1.,0.));
#272=DIRECTION('',(-1.,1.22464679914735E-16,0.));
#273=FACE_BOUND('',#274,.T.);
#274=EDGE_LOOP('',(#562,#563,#564,#565));
#275=CYLINDRICAL_SURFACE('',#276,15.);
#276=AXIS2_PLACEMENT_3D('',#277,#278,#279);
#277=CARTESIAN_POINT('',(-29.9992087069306,-15.,0.));
#278=DIRECTION('',(0.,0.,1.));
#279=DIRECTION('',(3.59312258501435E-16,1.,0.));
#280=FACE_BOUND('',#281,.T.);
#281=EDGE_LOOP('',(#566,#567,#568,#569));
#282=PLANE('',#283);
#283=AXIS2_PLACEMENT_3D('',#284,#285,#286);
#284=CARTESIAN_POINT('',(-44.9992087069306,-15.,0.));
#285=DIRECTION('',(-1.,1.4210854715202E-16,0.));
#286=DIRECTION('',(-1.4210854715202E-16,-1.,0.));
#287=FACE_BOUND('',#288,.T.);
#288=EDGE_LOOP('',(#570,#571,#572,#573));
#289=CYLINDRICAL_SURFACE('',#290,15.);
#290=AXIS2_PLACEMENT_3D('',#291,#292,#293);
#291=CARTESIAN_POINT('',(-29.9992087069306,-65.,0.));
#292=DIRECTION('',(0.,0.,1.));
#293=DIRECTION('',(-1.,1.22464679914735E-16,0.));
#294=FACE_BOUND('',#295,.T.);
#295=EDGE_LOOP('',(#574,#575,#576,#577));
#296=PLANE('',#297);
#297=AXIS2_PLACEMENT_3D('',#298,#299,#300);
#298=CARTESIAN_POINT('',(-29.9992087069306,-80.,0.));
#299=DIRECTION('',(0.,-1.,0.));
#300=DIRECTION('',(1.,0.,0.));
#301=FACE_OUTER_BOUND('',#302,.T.);
#302=EDGE_LOOP('',(#578));
#303=FACE_OUTER_BOUND('',#304,.T.);
#304=EDGE_LOOP('',(#579));
#305=CYLINDRICAL_SURFACE('',#306,2.52500000000001);
#306=AXIS2_PLACEMENT_3D('',#307,#308,#309);
#307=CARTESIAN_POINT('',(25.5864610972659,-85.,0.));
#308=DIRECTION('',(0.,0.,1.));
#309=DIRECTION('',(0.,1.,0.));
#310=FACE_OUTER_BOUND('',#311,.T.);
#311=EDGE_LOOP('',(#580));
#312=FACE_OUTER_BOUND('',#313,.T.);
#313=EDGE_LOOP('',(#581));
#314=CYLINDRICAL_SURFACE('',#315,2.525);
#315=AXIS2_PLACEMENT_3D('',#316,#317,#318);
#316=CARTESIAN_POINT('',(25.5864610972659,5.,0.));
#317=DIRECTION('',(0.,0.,1.));
#318=DIRECTION('',(0.,1.,0.));
#319=FACE_BOUND('',#320,.T.);
#320=EDGE_LOOP('',(#582,#583,#584,#585,#586,#587,#588,#589,#590,#591,#592,#593));
#321=FACE_BOUND('',#322,.T.);
#322=EDGE_LOOP('',(#594,#595,#596,#597,#598,#599,#600,#601));
#323=PLANE('',#324);
#324=AXIS2_PLACEMENT_3D('',#325,#326,#327);
#325=CARTESIAN_POINT('',(0.,0.,10.));
#326=DIRECTION('',(0.,0.,1.));
#327=DIRECTION('',(-1.,1.22464679914735E-16,0.));
#328=FACE_BOUND('',#329,.T.);
#329=EDGE_LOOP('',(#602,#603,#604,#605));
#330=PLANE('',#331);
#331=AXIS2_PLACEMENT_3D('',#332,#333,#334);
#332=CARTESIAN_POINT('',(0.,0.,10.));
#333=DIRECTION('',(0.,0.,1.));
#334=DIRECTION('',(-1.,1.22464679914735E-16,0.));
#335=FACE_BOUND('',#336,.T.);
#336=EDGE_LOOP('',(#606,#607,#608,#609));
#337=PLANE('',#338);
#338=AXIS2_PLACEMENT_3D('',#339,#340,#341);
#339=CARTESIAN_POINT('',(20.5864610972659,10.,10.));
#340=DIRECTION('',(-1.,0.,0.));
#341=DIRECTION('',(0.,-1.,0.));
#342=FACE_BOUND('',#343,.T.);
#343=EDGE_LOOP('',(#610,#611,#612,#613));
#344=FACE_BOUND('',#345,.T.);
#345=EDGE_LOOP('',(#614));
#346=PLANE('',#347);
#347=AXIS2_PLACEMENT_3D('',#348,#349,#350);
#348=CARTESIAN_POINT('',(5.32907051820075E-15,90.,25.));
#349=DIRECTION('',(0.,0.,1.));
#350=DIRECTION('',(-1.,1.22464679914735E-16,0.));
#351=FACE_BOUND('',#352,.T.);
#352=EDGE_LOOP('',(#615,#616,#617,#618));
#353=PLANE('',#354);
#354=AXIS2_PLACEMENT_3D('',#355,#356,#357);
#355=CARTESIAN_POINT('',(30.5864610972659,0.,10.));
#356=DIRECTION('',(1.,0.,0.));
#357=DIRECTION('',(0.,1.,0.));
#358=FACE_BOUND('',#359,.T.);
#359=EDGE_LOOP('',(#619,#620,#621,#622));
#360=PLANE('',#361);
#361=AXIS2_PLACEMENT_3D('',#362,#363,#364);
#362=CARTESIAN_POINT('',(0.,0.,10.));
#363=DIRECTION('',(0.,0.,1.));
#364=DIRECTION('',(-1.,1.22464679914735E-16,0.));
#365=FACE_BOUND('',#366,.T.);
#366=EDGE_LOOP('',(#623,#624,#625,#626));
#367=PLANE('',#368);
#368=AXIS2_PLACEMENT_3D('',#369,#370,#371);
#369=CARTESIAN_POINT('',(20.5864610972659,-80.,10.));
#370=DIRECTION('',(-1.,0.,0.));
#371=DIRECTION('',(0.,-1.,0.));
#372=FACE_BOUND('',#373,.T.);
#373=EDGE_LOOP('',(#627,#628,#629,#630));
#374=FACE_BOUND('',#375,.T.);
#375=EDGE_LOOP('',(#631));
#376=PLANE('',#377);
#377=AXIS2_PLACEMENT_3D('',#378,#379,#380);
#378=CARTESIAN_POINT('',(0.,0.,25.));
#379=DIRECTION('',(0.,0.,1.));
#380=DIRECTION('',(-1.,1.22464679914735E-16,0.));
#381=FACE_BOUND('',#382,.T.);
#382=EDGE_LOOP('',(#632,#633,#634,#635));
#383=PLANE('',#384);
#384=AXIS2_PLACEMENT_3D('',#385,#386,#387);
#385=CARTESIAN_POINT('',(30.5864610972659,-90.,10.));
#386=DIRECTION('',(1.,0.,0.));
#387=DIRECTION('',(0.,1.,0.));
#388=FACE_BOUND('',#389,.T.);
#389=EDGE_LOOP('',(#636,#637,#638,#639));
#390=PLANE('',#391);
#391=AXIS2_PLACEMENT_3D('',#392,#393,#394);
#392=CARTESIAN_POINT('',(0.,0.,10.));
#393=DIRECTION('',(0.,0.,1.));
#394=DIRECTION('',(-1.,1.22464679914735E-16,0.));
#395=FACE_BOUND('',#396,.T.);
#396=EDGE_LOOP('',(#640,#641,#642,#643));
#397=PLANE('',#398);
#398=AXIS2_PLACEMENT_3D('',#399,#400,#401);
#399=CARTESIAN_POINT('',(-49.4135389027341,-90.,10.));
#400=DIRECTION('',(1.,-7.10542735760101E-16,0.));
#401=DIRECTION('',(7.10542735760101E-16,1.,0.));
#402=FACE_BOUND('',#403,.T.);
#403=EDGE_LOOP('',(#644,#645,#646,#647));
#404=FACE_BOUND('',#405,.T.);
#405=EDGE_LOOP('',(#648));
#406=PLANE('',#407);
#407=AXIS2_PLACEMENT_3D('',#408,#409,#410);
#408=CARTESIAN_POINT('',(0.,0.,25.));
#409=DIRECTION('',(0.,0.,1.));
#410=DIRECTION('',(-1.,1.22464679914735E-16,0.));
#411=FACE_BOUND('',#412,.T.);
#412=EDGE_LOOP('',(#649,#650,#651,#652));
#413=PLANE('',#414);
#414=AXIS2_PLACEMENT_3D('',#415,#416,#417);
#415=CARTESIAN_POINT('',(-59.4135389027341,-80.,10.));
#416=DIRECTION('',(-1.,7.105427357601E-16,0.));
#417=DIRECTION('',(-7.105427357601E-16,-1.,0.));
#418=FACE_BOUND('',#419,.T.);
#419=EDGE_LOOP('',(#653,#654,#655,#656));
#420=PLANE('',#421);
#421=AXIS2_PLACEMENT_3D('',#422,#423,#424);
#422=CARTESIAN_POINT('',(0.,0.,10.));
#423=DIRECTION('',(0.,0.,1.));
#424=DIRECTION('',(-1.,1.22464679914735E-16,0.));
#425=ORIENTED_EDGE('',*,*,#657,.T.);
#426=ORIENTED_EDGE('',*,*,#658,.T.);
#427=ORIENTED_EDGE('',*,*,#659,.T.);
#428=ORIENTED_EDGE('',*,*,#660,.T.);
#429=ORIENTED_EDGE('',*,*,#661,.T.);
#430=ORIENTED_EDGE('',*,*,#662,.F.);
#431=ORIENTED_EDGE('',*,*,#663,.F.);
#432=ORIENTED_EDGE('',*,*,#664,.F.);
#433=ORIENTED_EDGE('',*,*,#665,.F.);
#434=ORIENTED_EDGE('',*,*,#666,.F.);
#435=ORIENTED_EDGE('',*,*,#667,.F.);
#436=ORIENTED_EDGE('',*,*,#668,.F.);
#437=ORIENTED_EDGE('',*,*,#669,.F.);
#438=ORIENTED_EDGE('',*,*,#670,.F.);
#439=ORIENTED_EDGE('',*,*,#671,.F.);
#440=ORIENTED_EDGE('',*,*,#672,.F.);
#441=ORIENTED_EDGE('',*,*,#673,.F.);
#442=ORIENTED_EDGE('',*,*,#674,.T.);
#443=ORIENTED_EDGE('',*,*,#675,.T.);
#444=ORIENTED_EDGE('',*,*,#676,.T.);
#445=ORIENTED_EDGE('',*,*,#677,.T.);
#446=ORIENTED_EDGE('',*,*,#678,.T.);
#447=ORIENTED_EDGE('',*,*,#679,.T.);
#448=ORIENTED_EDGE('',*,*,#680,.T.);
#449=ORIENTED_EDGE('',*,*,#681,.T.);
#450=ORIENTED_EDGE('',*,*,#682,.T.);
#451=ORIENTED_EDGE('',*,*,#683,.T.);
#452=ORIENTED_EDGE('',*,*,#684,.T.);
#453=ORIENTED_EDGE('',*,*,#685,.T.);
#454=ORIENTED_EDGE('',*,*,#661,.F.);
#455=ORIENTED_EDGE('',*,*,#674,.F.);
#456=ORIENTED_EDGE('',*,*,#673,.T.);
#457=ORIENTED_EDGE('',*,*,#686,.T.);
#458=ORIENTED_EDGE('',*,*,#687,.T.);
#459=ORIENTED_EDGE('',*,*,#688,.T.);
#460=ORIENTED_EDGE('',*,*,#657,.F.);
#461=ORIENTED_EDGE('',*,*,#689,.F.);
#462=ORIENTED_EDGE('',*,*,#690,.F.);
#463=ORIENTED_EDGE('',*,*,#691,.F.);
#464=ORIENTED_EDGE('',*,*,#692,.T.);
#465=ORIENTED_EDGE('',*,*,#693,.T.);
#466=ORIENTED_EDGE('',*,*,#658,.F.);
#467=ORIENTED_EDGE('',*,*,#688,.F.);
#468=ORIENTED_EDGE('',*,*,#663,.T.);
#469=ORIENTED_EDGE('',*,*,#694,.T.);
#470=ORIENTED_EDGE('',*,*,#695,.F.);
#471=ORIENTED_EDGE('',*,*,#696,.T.);
#472=ORIENTED_EDGE('',*,*,#659,.F.);
#473=ORIENTED_EDGE('',*,*,#693,.F.);
#474=ORIENTED_EDGE('',*,*,#697,.F.);
#475=ORIENTED_EDGE('',*,*,#698,.T.);
#476=ORIENTED_EDGE('',*,*,#699,.F.);
#477=ORIENTED_EDGE('',*,*,#700,.F.);
#478=ORIENTED_EDGE('',*,*,#701,.F.);
#479=ORIENTED_EDGE('',*,*,#702,.F.);
#480=ORIENTED_EDGE('',*,*,#703,.T.);
#481=ORIENTED_EDGE('',*,*,#689,.T.);
#482=ORIENTED_EDGE('',*,*,#660,.F.);
#483=ORIENTED_EDGE('',*,*,#696,.F.);
#484=ORIENTED_EDGE('',*,*,#662,.T.);
#485=ORIENTED_EDGE('',*,*,#691,.T.);
#486=ORIENTED_EDGE('',*,*,#704,.F.);
#487=ORIENTED_EDGE('',*,*,#694,.F.);
#488=ORIENTED_EDGE('',*,*,#664,.T.);
#489=ORIENTED_EDGE('',*,*,#702,.T.);
#490=ORIENTED_EDGE('',*,*,#705,.F.);
#491=ORIENTED_EDGE('',*,*,#706,.F.);
#492=ORIENTED_EDGE('',*,*,#665,.T.);
#493=ORIENTED_EDGE('',*,*,#706,.T.);
#494=ORIENTED_EDGE('',*,*,#707,.F.);
#495=ORIENTED_EDGE('',*,*,#708,.T.);
#496=ORIENTED_EDGE('',*,*,#709,.F.);
#497=ORIENTED_EDGE('',*,*,#710,.F.);
#498=ORIENTED_EDGE('',*,*,#711,.T.);
#499=ORIENTED_EDGE('',*,*,#712,.F.);
#500=ORIENTED_EDGE('',*,*,#666,.T.);
#501=ORIENTED_EDGE('',*,*,#712,.T.);
#502=ORIENTED_EDGE('',*,*,#713,.F.);
#503=ORIENTED_EDGE('',*,*,#714,.F.);
#504=ORIENTED_EDGE('',*,*,#667,.T.);
#505=ORIENTED_EDGE('',*,*,#714,.T.);
#506=ORIENTED_EDGE('',*,*,#715,.T.);
#507=ORIENTED_EDGE('',*,*,#716,.T.);
#508=ORIENTED_EDGE('',*,*,#717,.F.);
#509=ORIENTED_EDGE('',*,*,#718,.F.);
#510=ORIENTED_EDGE('',*,*,#719,.F.);
#511=ORIENTED_EDGE('',*,*,#720,.F.);
#512=ORIENTED_EDGE('',*,*,#668,.T.);
#513=ORIENTED_EDGE('',*,*,#720,.T.);
#514=ORIENTED_EDGE('',*,*,#721,.F.);
#515=ORIENTED_EDGE('',*,*,#722,.F.);
#516=ORIENTED_EDGE('',*,*,#669,.T.);
#517=ORIENTED_EDGE('',*,*,#722,.T.);
#518=ORIENTED_EDGE('',*,*,#723,.F.);
#519=ORIENTED_EDGE('',*,*,#724,.T.);
#520=ORIENTED_EDGE('',*,*,#725,.F.);
#521=ORIENTED_EDGE('',*,*,#726,.F.);
#522=ORIENTED_EDGE('',*,*,#727,.F.);
#523=ORIENTED_EDGE('',*,*,#728,.T.);
#524=ORIENTED_EDGE('',*,*,#729,.F.);
#525=ORIENTED_EDGE('',*,*,#730,.F.);
#526=ORIENTED_EDGE('',*,*,#731,.F.);
#527=ORIENTED_EDGE('',*,*,#732,.F.);
#528=ORIENTED_EDGE('',*,*,#670,.T.);
#529=ORIENTED_EDGE('',*,*,#732,.T.);
#530=ORIENTED_EDGE('',*,*,#733,.F.);
#531=ORIENTED_EDGE('',*,*,#734,.F.);
#532=ORIENTED_EDGE('',*,*,#671,.T.);
#533=ORIENTED_EDGE('',*,*,#734,.T.);
#534=ORIENTED_EDGE('',*,*,#735,.F.);
#535=ORIENTED_EDGE('',*,*,#736,.T.);
#536=ORIENTED_EDGE('',*,*,#737,.F.);
#537=ORIENTED_EDGE('',*,*,#738,.F.);
#538=ORIENTED_EDGE('',*,*,#739,.T.);
#539=ORIENTED_EDGE('',*,*,#740,.F.);
#540=ORIENTED_EDGE('',*,*,#672,.T.);
#541=ORIENTED_EDGE('',*,*,#740,.T.);
#542=ORIENTED_EDGE('',*,*,#741,.F.);
#543=ORIENTED_EDGE('',*,*,#686,.F.);
#544=ORIENTED_EDGE('',*,*,#742,.F.);
#545=ORIENTED_EDGE('',*,*,#675,.F.);
#546=ORIENTED_EDGE('',*,*,#743,.F.);
#547=ORIENTED_EDGE('',*,*,#744,.F.);
#548=ORIENTED_EDGE('',*,*,#676,.F.);
#549=ORIENTED_EDGE('',*,*,#745,.T.);
#550=ORIENTED_EDGE('',*,*,#746,.F.);
#551=ORIENTED_EDGE('',*,*,#747,.F.);
#552=ORIENTED_EDGE('',*,*,#677,.F.);
#553=ORIENTED_EDGE('',*,*,#744,.T.);
#554=ORIENTED_EDGE('',*,*,#748,.F.);
#555=ORIENTED_EDGE('',*,*,#749,.F.);
#556=ORIENTED_EDGE('',*,*,#678,.F.);
#557=ORIENTED_EDGE('',*,*,#747,.T.);
#558=ORIENTED_EDGE('',*,*,#750,.F.);
#559=ORIENTED_EDGE('',*,*,#751,.F.);
#560=ORIENTED_EDGE('',*,*,#679,.F.);
#561=ORIENTED_EDGE('',*,*,#749,.T.);
#562=ORIENTED_EDGE('',*,*,#752,.F.);
#563=ORIENTED_EDGE('',*,*,#753,.F.);
#564=ORIENTED_EDGE('',*,*,#680,.F.);
#565=ORIENTED_EDGE('',*,*,#751,.T.);
#566=ORIENTED_EDGE('',*,*,#754,.F.);
#567=ORIENTED_EDGE('',*,*,#755,.F.);
#568=ORIENTED_EDGE('',*,*,#681,.F.);
#569=ORIENTED_EDGE('',*,*,#753,.T.);
#570=ORIENTED_EDGE('',*,*,#756,.F.);
#571=ORIENTED_EDGE('',*,*,#757,.F.);
#572=ORIENTED_EDGE('',*,*,#682,.F.);
#573=ORIENTED_EDGE('',*,*,#755,.T.);
#574=ORIENTED_EDGE('',*,*,#758,.F.);
#575=ORIENTED_EDGE('',*,*,#745,.F.);
#576=ORIENTED_EDGE('',*,*,#683,.F.);
#577=ORIENTED_EDGE('',*,*,#757,.T.);
#578=ORIENTED_EDGE('',*,*,#759,.F.);
#579=ORIENTED_EDGE('',*,*,#684,.F.);
#580=ORIENTED_EDGE('',*,*,#760,.F.);
#581=ORIENTED_EDGE('',*,*,#685,.F.);
#582=ORIENTED_EDGE('',*,*,#761,.F.);
#583=ORIENTED_EDGE('',*,*,#697,.T.);
#584=ORIENTED_EDGE('',*,*,#692,.F.);
#585=ORIENTED_EDGE('',*,*,#687,.F.);
#586=ORIENTED_EDGE('',*,*,#741,.T.);
#587=ORIENTED_EDGE('',*,*,#739,.F.);
#588=ORIENTED_EDGE('',*,*,#762,.F.);
#589=ORIENTED_EDGE('',*,*,#727,.T.);
#590=ORIENTED_EDGE('',*,*,#763,.F.);
#591=ORIENTED_EDGE('',*,*,#715,.F.);
#592=ORIENTED_EDGE('',*,*,#713,.T.);
#593=ORIENTED_EDGE('',*,*,#711,.F.);
#594=ORIENTED_EDGE('',*,*,#743,.T.);
#595=ORIENTED_EDGE('',*,*,#758,.T.);
#596=ORIENTED_EDGE('',*,*,#756,.T.);
#597=ORIENTED_EDGE('',*,*,#754,.T.);
#598=ORIENTED_EDGE('',*,*,#752,.T.);
#599=ORIENTED_EDGE('',*,*,#750,.T.);
#600=ORIENTED_EDGE('',*,*,#748,.T.);
#601=ORIENTED_EDGE('',*,*,#746,.T.);
#602=ORIENTED_EDGE('',*,*,#703,.F.);
#603=ORIENTED_EDGE('',*,*,#695,.T.);
#604=ORIENTED_EDGE('',*,*,#704,.T.);
#605=ORIENTED_EDGE('',*,*,#690,.T.);
#606=ORIENTED_EDGE('',*,*,#761,.T.);
#607=ORIENTED_EDGE('',*,*,#710,.T.);
#608=ORIENTED_EDGE('',*,*,#764,.F.);
#609=ORIENTED_EDGE('',*,*,#698,.F.);
#610=ORIENTED_EDGE('',*,*,#764,.T.);
#611=ORIENTED_EDGE('',*,*,#709,.T.);
#612=ORIENTED_EDGE('',*,*,#765,.T.);
#613=ORIENTED_EDGE('',*,*,#699,.T.);
#614=ORIENTED_EDGE('',*,*,#760,.T.);
#615=ORIENTED_EDGE('',*,*,#766,.T.);
#616=ORIENTED_EDGE('',*,*,#700,.T.);
#617=ORIENTED_EDGE('',*,*,#765,.F.);
#618=ORIENTED_EDGE('',*,*,#708,.F.);
#619=ORIENTED_EDGE('',*,*,#766,.F.);
#620=ORIENTED_EDGE('',*,*,#707,.T.);
#621=ORIENTED_EDGE('',*,*,#705,.T.);
#622=ORIENTED_EDGE('',*,*,#701,.T.);
#623=ORIENTED_EDGE('',*,*,#763,.T.);
#624=ORIENTED_EDGE('',*,*,#726,.T.);
#625=ORIENTED_EDGE('',*,*,#767,.F.);
#626=ORIENTED_EDGE('',*,*,#716,.F.);
#627=ORIENTED_EDGE('',*,*,#767,.T.);
#628=ORIENTED_EDGE('',*,*,#725,.T.);
#629=ORIENTED_EDGE('',*,*,#768,.T.);
#630=ORIENTED_EDGE('',*,*,#717,.T.);
#631=ORIENTED_EDGE('',*,*,#759,.T.);
#632=ORIENTED_EDGE('',*,*,#769,.T.);
#633=ORIENTED_EDGE('',*,*,#718,.T.);
#634=ORIENTED_EDGE('',*,*,#768,.F.);
#635=ORIENTED_EDGE('',*,*,#724,.F.);
#636=ORIENTED_EDGE('',*,*,#769,.F.);
#637=ORIENTED_EDGE('',*,*,#723,.T.);
#638=ORIENTED_EDGE('',*,*,#721,.T.);
#639=ORIENTED_EDGE('',*,*,#719,.T.);
#640=ORIENTED_EDGE('',*,*,#762,.T.);
#641=ORIENTED_EDGE('',*,*,#738,.T.);
#642=ORIENTED_EDGE('',*,*,#770,.F.);
#643=ORIENTED_EDGE('',*,*,#728,.F.);
#644=ORIENTED_EDGE('',*,*,#729,.T.);
#645=ORIENTED_EDGE('',*,*,#770,.T.);
#646=ORIENTED_EDGE('',*,*,#737,.T.);
#647=ORIENTED_EDGE('',*,*,#771,.T.);
#648=ORIENTED_EDGE('',*,*,#742,.T.);
#649=ORIENTED_EDGE('',*,*,#772,.T.);
#650=ORIENTED_EDGE('',*,*,#730,.T.);
#651=ORIENTED_EDGE('',*,*,#771,.F.);
#652=ORIENTED_EDGE('',*,*,#736,.F.);
#653=ORIENTED_EDGE('',*,*,#772,.F.);
#654=ORIENTED_EDGE('',*,*,#735,.T.);
#655=ORIENTED_EDGE('',*,*,#733,.T.);
#656=ORIENTED_EDGE('',*,*,#731,.T.);
#657=EDGE_CURVE('',#773,#774,#775,.T.);
#658=EDGE_CURVE('',#774,#776,#777,.T.);
#659=EDGE_CURVE('',#776,#778,#779,.T.);
#660=EDGE_CURVE('',#778,#773,#780,.T.);
#661=EDGE_CURVE('',#781,#781,#782,.F.);
#662=EDGE_CURVE('',#783,#784,#785,.T.);
#663=EDGE_CURVE('',#786,#783,#787,.T.);
#664=EDGE_CURVE('',#788,#786,#789,.T.);
#665=EDGE_CURVE('',#790,#788,#791,.T.);
#666=EDGE_CURVE('',#792,#790,#793,.T.);
#667=EDGE_CURVE('',#794,#792,#795,.T.);
#668=EDGE_CURVE('',#796,#794,#797,.T.);
#669=EDGE_CURVE('',#798,#796,#799,.T.);
#670=EDGE_CURVE('',#800,#798,#801,.T.);
#671=EDGE_CURVE('',#802,#800,#803,.T.);
#672=EDGE_CURVE('',#804,#802,#805,.T.);
#673=EDGE_CURVE('',#784,#804,#806,.T.);
#674=EDGE_CURVE('',#807,#807,#808,.T.);
#675=EDGE_CURVE('',#809,#809,#810,.T.);
#676=EDGE_CURVE('',#811,#812,#813,.T.);
#677=EDGE_CURVE('',#812,#814,#815,.T.);
#678=EDGE_CURVE('',#814,#816,#817,.T.);
#679=EDGE_CURVE('',#816,#818,#819,.T.);
#680=EDGE_CURVE('',#818,#820,#821,.T.);
#681=EDGE_CURVE('',#820,#822,#823,.T.);
#682=EDGE_CURVE('',#822,#824,#825,.T.);
#683=EDGE_CURVE('',#824,#811,#826,.T.);
#684=EDGE_CURVE('',#827,#827,#828,.T.);
#685=EDGE_CURVE('',#829,#829,#830,.T.);
#686=EDGE_CURVE('',#804,#831,#832,.T.);
#687=EDGE_CURVE('',#831,#833,#834,.T.);
#688=EDGE_CURVE('',#833,#774,#835,.T.);
#689=EDGE_CURVE('',#836,#773,#837,.T.);
#690=EDGE_CURVE('',#838,#836,#839,.T.);
#691=EDGE_CURVE('',#784,#838,#840,.T.);
#692=EDGE_CURVE('',#833,#841,#842,.T.);
#693=EDGE_CURVE('',#841,#776,#843,.T.);
#694=EDGE_CURVE('',#783,#844,#845,.T.);
#695=EDGE_CURVE('',#846,#844,#847,.T.);
#696=EDGE_CURVE('',#846,#778,#848,.T.);
#697=EDGE_CURVE('',#849,#841,#850,.T.);
#698=EDGE_CURVE('',#849,#851,#852,.T.);
#699=EDGE_CURVE('',#853,#851,#854,.T.);
#700=EDGE_CURVE('',#855,#853,#856,.T.);
#701=EDGE_CURVE('',#857,#855,#858,.T.);
#702=EDGE_CURVE('',#786,#857,#859,.T.);
#703=EDGE_CURVE('',#846,#836,#860,.T.);
#704=EDGE_CURVE('',#844,#838,#861,.T.);
#705=EDGE_CURVE('',#862,#857,#863,.T.);
#706=EDGE_CURVE('',#788,#862,#864,.T.);
#707=EDGE_CURVE('',#865,#862,#866,.T.);
#708=EDGE_CURVE('',#865,#867,#868,.T.);
#709=EDGE_CURVE('',#869,#867,#870,.T.);
#710=EDGE_CURVE('',#871,#869,#872,.T.);
#711=EDGE_CURVE('',#871,#873,#874,.T.);
#712=EDGE_CURVE('',#790,#873,#875,.T.);
#713=EDGE_CURVE('',#876,#873,#877,.T.);
#714=EDGE_CURVE('',#792,#876,#878,.T.);
#715=EDGE_CURVE('',#876,#879,#880,.T.);
#716=EDGE_CURVE('',#879,#881,#882,.T.);
#717=EDGE_CURVE('',#883,#881,#884,.T.);
#718=EDGE_CURVE('',#885,#883,#886,.T.);
#719=EDGE_CURVE('',#887,#885,#888,.T.);
#720=EDGE_CURVE('',#794,#887,#889,.T.);
#721=EDGE_CURVE('',#890,#887,#891,.T.);
#722=EDGE_CURVE('',#796,#890,#892,.T.);
#723=EDGE_CURVE('',#893,#890,#894,.T.);
#724=EDGE_CURVE('',#893,#895,#896,.T.);
#725=EDGE_CURVE('',#897,#895,#898,.T.);
#726=EDGE_CURVE('',#899,#897,#900,.T.);
#727=EDGE_CURVE('',#901,#899,#902,.T.);
#728=EDGE_CURVE('',#901,#903,#904,.T.);
#729=EDGE_CURVE('',#905,#903,#906,.T.);
#730=EDGE_CURVE('',#907,#905,#908,.T.);
#731=EDGE_CURVE('',#909,#907,#910,.T.);
#732=EDGE_CURVE('',#798,#909,#911,.T.);
#733=EDGE_CURVE('',#912,#909,#913,.T.);
#734=EDGE_CURVE('',#800,#912,#914,.T.);
#735=EDGE_CURVE('',#915,#912,#916,.T.);
#736=EDGE_CURVE('',#915,#917,#918,.T.);
#737=EDGE_CURVE('',#919,#917,#920,.T.);
#738=EDGE_CURVE('',#921,#919,#922,.T.);
#739=EDGE_CURVE('',#921,#923,#924,.T.);
#740=EDGE_CURVE('',#802,#923,#925,.T.);
#741=EDGE_CURVE('',#831,#923,#926,.T.);
#742=EDGE_CURVE('',#927,#927,#928,.F.);
#743=EDGE_CURVE('',#929,#930,#931,.F.);
#744=EDGE_CURVE('',#812,#929,#932,.T.);
#745=EDGE_CURVE('',#811,#930,#933,.T.);
#746=EDGE_CURVE('',#934,#929,#935,.F.);
#747=EDGE_CURVE('',#814,#934,#936,.T.);
#748=EDGE_CURVE('',#937,#934,#938,.F.);
#749=EDGE_CURVE('',#816,#937,#939,.T.);
#750=EDGE_CURVE('',#940,#937,#941,.F.);
#751=EDGE_CURVE('',#818,#940,#942,.T.);
#752=EDGE_CURVE('',#943,#940,#944,.F.);
#753=EDGE_CURVE('',#820,#943,#945,.T.);
#754=EDGE_CURVE('',#946,#943,#947,.F.);
#755=EDGE_CURVE('',#822,#946,#948,.T.);
#756=EDGE_CURVE('',#949,#946,#950,.F.);
#757=EDGE_CURVE('',#824,#949,#951,.T.);
#758=EDGE_CURVE('',#930,#949,#952,.F.);
#759=EDGE_CURVE('',#953,#953,#954,.F.);
#760=EDGE_CURVE('',#955,#955,#956,.F.);
#761=EDGE_CURVE('',#849,#871,#957,.T.);
#762=EDGE_CURVE('',#901,#921,#958,.T.);
#763=EDGE_CURVE('',#879,#899,#959,.T.);
#764=EDGE_CURVE('',#851,#869,#960,.T.);
#765=EDGE_CURVE('',#867,#853,#961,.T.);
#766=EDGE_CURVE('',#865,#855,#962,.T.);
#767=EDGE_CURVE('',#881,#897,#963,.T.);
#768=EDGE_CURVE('',#895,#883,#964,.T.);
#769=EDGE_CURVE('',#893,#885,#965,.T.);
#770=EDGE_CURVE('',#903,#919,#966,.T.);
#771=EDGE_CURVE('',#917,#905,#967,.T.);
#772=EDGE_CURVE('',#915,#907,#968,.T.);
#773=VERTEX_POINT('',#969);
#774=VERTEX_POINT('',#970);
#775=LINE('',#971,#972);
#776=VERTEX_POINT('',#974);
#777=LINE('',#975,#976);
#778=VERTEX_POINT('',#978);
#779=LINE('',#979,#980);
#780=LINE('',#982,#983);
#781=VERTEX_POINT('',#985);
#782=CIRCLE('',#986,2.52500000000001);
#783=VERTEX_POINT('',#990);
#784=VERTEX_POINT('',#991);
#785=LINE('',#992,#993);
#786=VERTEX_POINT('',#995);
#787=LINE('',#996,#997);
#788=VERTEX_POINT('',#999);
#789=LINE('',#1000,#1001);
#790=VERTEX_POINT('',#1003);
#791=LINE('',#1004,#1005);
#792=VERTEX_POINT('',#1007);
#793=LINE('',#1008,#1009);
#794=VERTEX_POINT('',#1011);
#795=LINE('',#1012,#1013);
#796=VERTEX_POINT('',#1015);
#797=LINE('',#1016,#1017);
#798=VERTEX_POINT('',#1019);
#799=LINE('',#1020,#1021);
#800=VERTEX_POINT('',#1023);
#801=LINE('',#1024,#1025);
#802=VERTEX_POINT('',#1027);
#803=LINE('',#1028,#1029);
#804=VERTEX_POINT('',#1031);
#805=LINE('',#1032,#1033);
#806=LINE('',#1035,#1036);
#807=VERTEX_POINT('',#1038);
#808=CIRCLE('',#1039,2.52500000000001);
#809=VERTEX_POINT('',#1043);
#810=CIRCLE('',#1044,2.52500000000001);
#811=VERTEX_POINT('',#1048);
#812=VERTEX_POINT('',#1049);
#813=CIRCLE('',#1050,15.);
#814=VERTEX_POINT('',#1054);
#815=LINE('',#1055,#1056);
#816=VERTEX_POINT('',#1058);
#817=CIRCLE('',#1059,15.);
#818=VERTEX_POINT('',#1063);
#819=LINE('',#1064,#1065);
#820=VERTEX_POINT('',#1067);
#821=CIRCLE('',#1068,15.);
#822=VERTEX_POINT('',#1072);
#823=LINE('',#1073,#1074);
#824=VERTEX_POINT('',#1076);
#825=CIRCLE('',#1077,15.);
#826=LINE('',#1081,#1082);
#827=VERTEX_POINT('',#1084);
#828=CIRCLE('',#1085,2.52500000000001);
#829=VERTEX_POINT('',#1089);
#830=CIRCLE('',#1090,2.525);
#831=VERTEX_POINT('',#1094);
#832=LINE('',#1095,#1096);
#833=VERTEX_POINT('',#1098);
#834=LINE('',#1099,#1100);
#835=LINE('',#1102,#1103);
#836=VERTEX_POINT('',#1105);
#837=LINE('',#1106,#1107);
#838=VERTEX_POINT('',#1109);
#839=LINE('',#1110,#1111);
#840=LINE('',#1113,#1114);
#841=VERTEX_POINT('',#1116);
#842=LINE('',#1117,#1118);
#843=LINE('',#1120,#1121);
#844=VERTEX_POINT('',#1123);
#845=LINE('',#1124,#1125);
#846=VERTEX_POINT('',#1127);
#847=LINE('',#1128,#1129);
#848=LINE('',#1131,#1132);
#849=VERTEX_POINT('',#1134);
#850=LINE('',#1135,#1136);
#851=VERTEX_POINT('',#1138);
#852=LINE('',#1139,#1140);
#853=VERTEX_POINT('',#1142);
#854=LINE('',#1143,#1144);
#855=VERTEX_POINT('',#1146);
#856=LINE('',#1147,#1148);
#857=VERTEX_POINT('',#1150);
#858=LINE('',#1151,#1152);
#859=LINE('',#1154,#1155);
#860=LINE('',#1157,#1158);
#861=LINE('',#1160,#1161);
#862=VERTEX_POINT('',#1163);
#863=LINE('',#1164,#1165);
#864=LINE('',#1167,#1168);
#865=VERTEX_POINT('',#1170);
#866=LINE('',#1171,#1172);
#867=VERTEX_POINT('',#1174);
#868=LINE('',#1175,#1176);
#869=VERTEX_POINT('',#1178);
#870=LINE('',#1179,#1180);
#871=VERTEX_POINT('',#1182);
#872=LINE('',#1183,#1184);
#873=VERTEX_POINT('',#1186);
#874=LINE('',#1187,#1188);
#875=LINE('',#1190,#1191);
#876=VERTEX_POINT('',#1193);
#877=LINE('',#1194,#1195);
#878=LINE('',#1197,#1198);
#879=VERTEX_POINT('',#1200);
#880=LINE('',#1201,#1202);
#881=VERTEX_POINT('',#1204);
#882=LINE('',#1205,#1206);
#883=VERTEX_POINT('',#1208);
#884=LINE('',#1209,#1210);
#885=VERTEX_POINT('',#1212);
#886=LINE('',#1213,#1214);
#887=VERTEX_POINT('',#1216);
#888=LINE('',#1217,#1218);
#889=LINE('',#1220,#1221);
#890=VERTEX_POINT('',#1223);
#891=LINE('',#1224,#1225);
#892=LINE('',#1227,#1228);
#893=VERTEX_POINT('',#1230);
#894=LINE('',#1231,#1232);
#895=VERTEX_POINT('',#1234);
#896=LINE('',#1235,#1236);
#897=VERTEX_POINT('',#1238);
#898=LINE('',#1239,#1240);
#899=VERTEX_POINT('',#1242);
#900=LINE('',#1243,#1244);
#901=VERTEX_POINT('',#1246);
#902=LINE('',#1247,#1248);
#903=VERTEX_POINT('',#1250);
#904=LINE('',#1251,#1252);
#905=VERTEX_POINT('',#1254);
#906=LINE('',#1255,#1256);
#907=VERTEX_POINT('',#1258);
#908=LINE('',#1259,#1260);
#909=VERTEX_POINT('',#1262);
#910=LINE('',#1263,#1264);
#911=LINE('',#1266,#1267);
#912=VERTEX_POINT('',#1269);
#913=LINE('',#1270,#1271);
#914=LINE('',#1273,#1274);
#915=VERTEX_POINT('',#1276);
#916=LINE('',#1277,#1278);
#917=VERTEX_POINT('',#1280);
#918=LINE('',#1281,#1282);
#919=VERTEX_POINT('',#1284);
#920=LINE('',#1285,#1286);
#921=VERTEX_POINT('',#1288);
#922=LINE('',#1289,#1290);
#923=VERTEX_POINT('',#1292);
#924=LINE('',#1293,#1294);
#925=LINE('',#1296,#1297);
#926=LINE('',#1299,#1300);
#927=VERTEX_POINT('',#1302);
#928=CIRCLE('',#1303,2.52500000000001);
#929=VERTEX_POINT('',#1307);
#930=VERTEX_POINT('',#1308);
#931=CIRCLE('',#1309,15.);
#932=LINE('',#1313,#1314);
#933=LINE('',#1316,#1317);
#934=VERTEX_POINT('',#1319);
#935=LINE('',#1320,#1321);
#936=LINE('',#1323,#1324);
#937=VERTEX_POINT('',#1326);
#938=CIRCLE('',#1327,15.);
#939=LINE('',#1331,#1332);
#940=VERTEX_POINT('',#1334);
#941=LINE('',#1335,#1336);
#942=LINE('',#1338,#1339);
#943=VERTEX_POINT('',#1341);
#944=CIRCLE('',#1342,15.);
#945=LINE('',#1346,#1347);
#946=VERTEX_POINT('',#1349);
#947=LINE('',#1350,#1351);
#948=LINE('',#1353,#1354);
#949=VERTEX_POINT('',#1356);
#950=CIRCLE('',#1357,15.);
#951=LINE('',#1361,#1362);
#952=LINE('',#1364,#1365);
#953=VERTEX_POINT('',#1367);
#954=CIRCLE('',#1368,2.52500000000001);
#955=VERTEX_POINT('',#1372);
#956=CIRCLE('',#1373,2.525);
#957=LINE('',#1377,#1378);
#958=LINE('',#1380,#1381);
#959=LINE('',#1383,#1384);
#960=LINE('',#1386,#1387);
#961=LINE('',#1389,#1390);
#962=LINE('',#1392,#1393);
#963=LINE('',#1395,#1396);
#964=LINE('',#1398,#1399);
#965=LINE('',#1401,#1402);
#966=LINE('',#1404,#1405);
#967=LINE('',#1407,#1408);
#968=LINE('',#1410,#1411);
#969=CARTESIAN_POINT('',(-59.4135389027341,1.4210854715202E-14,25.));
#970=CARTESIAN_POINT('',(-49.4135389027341,0.,25.));
#971=CARTESIAN_POINT('',(-59.4135389027341,1.07434573697635E-14,25.));
#972=VECTOR('',#973,1.);
#973=DIRECTION('',(1.,-7.71775075717468E-16,0.));
#974=CARTESIAN_POINT('',(-49.4135389027341,9.99999999999999,25.));
#975=CARTESIAN_POINT('',(-49.4135389027341,0.,25.));
#976=VECTOR('',#977,1.);
#977=DIRECTION('',(7.10542735760101E-16,1.,0.));
#978=CARTESIAN_POINT('',(-59.4135389027341,10.,25.));
#979=CARTESIAN_POINT('',(-49.4135389027341,9.99999999999999,25.));
#980=VECTOR('',#981,1.);
#981=DIRECTION('',(-1.,7.105427357601E-16,0.));
#982=CARTESIAN_POINT('',(-59.4135389027341,10.,25.));
#983=VECTOR('',#984,1.);
#984=DIRECTION('',(-7.105427357601E-16,-1.,0.));
#985=CARTESIAN_POINT('',(-54.4135389027341,7.52500000000001,25.));
#986=AXIS2_PLACEMENT_3D('',#987,#988,#989);
#987=CARTESIAN_POINT('',(-54.4135389027341,5.,25.));
#988=DIRECTION('',(0.,0.,1.));
#989=DIRECTION('',(0.,1.,0.));
#990=CARTESIAN_POINT('',(-64.4135389027341,10.,0.));
#991=CARTESIAN_POINT('',(-64.4135389027341,7.88838342389868E-15,0.));
#992=CARTESIAN_POINT('',(-64.4135389027341,10.,0.));
#993=VECTOR('',#994,1.);
#994=DIRECTION('',(0.,-1.,0.));
#995=CARTESIAN_POINT('',(35.5864610972659,9.99999999999999,0.));
#996=CARTESIAN_POINT('',(35.5864610972659,9.99999999999999,0.));
#997=VECTOR('',#998,1.);
#998=DIRECTION('',(-1.,1.06581410364015E-16,0.));
#999=CARTESIAN_POINT('',(35.5864610972659,-8.31348369076253E-15,0.));
#1000=CARTESIAN_POINT('',(35.5864610972659,-8.31348369076253E-15,0.));
#1001=VECTOR('',#1002,1.);
#1002=DIRECTION('',(0.,1.,0.));
#1003=CARTESIAN_POINT('',(25.5864610972659,-3.1334377684275E-15,0.));
#1004=CARTESIAN_POINT('',(25.5864610972659,-3.1334377684275E-15,0.));
#1005=VECTOR('',#1006,1.);
#1006=DIRECTION('',(1.,-5.18004592233504E-16,0.));
#1007=CARTESIAN_POINT('',(25.5864610972659,-80.,0.));
#1008=CARTESIAN_POINT('',(25.5864610972659,-80.,0.));
#1009=VECTOR('',#1010,1.);
#1010=DIRECTION('',(3.10862446895044E-16,1.,0.));
#1011=CARTESIAN_POINT('',(35.5864610972659,-80.,0.));
#1012=CARTESIAN_POINT('',(35.5864610972659,-80.,0.));
#1013=VECTOR('',#1014,1.);
#1014=DIRECTION('',(-1.,0.,0.));
#1015=CARTESIAN_POINT('',(35.5864610972659,-90.,0.));
#1016=CARTESIAN_POINT('',(35.5864610972659,-90.,0.));
#1017=VECTOR('',#1018,1.);
#1018=DIRECTION('',(7.105427357601E-16,1.,0.));
#1019=CARTESIAN_POINT('',(-64.4135389027341,-90.,0.));
#1020=CARTESIAN_POINT('',(-64.4135389027341,-90.,0.));
#1021=VECTOR('',#1022,1.);
#1022=DIRECTION('',(1.,-1.4210854715202E-16,0.));
#1023=CARTESIAN_POINT('',(-64.4135389027341,-80.,0.));
#1024=CARTESIAN_POINT('',(-64.4135389027341,-80.,0.));
#1025=VECTOR('',#1026,1.);
#1026=DIRECTION('',(0.,-1.,0.));
#1027=CARTESIAN_POINT('',(-54.4135389027341,-80.,0.));
#1028=CARTESIAN_POINT('',(-54.4135389027341,-80.,0.));
#1029=VECTOR('',#1030,1.);
#1030=DIRECTION('',(-1.,1.4210854715202E-15,0.));
#1031=CARTESIAN_POINT('',(-54.4135389027341,6.66373662475133E-15,0.));
#1032=CARTESIAN_POINT('',(-54.4135389027341,6.66373662475133E-15,0.));
#1033=VECTOR('',#1034,1.);
#1034=DIRECTION('',(-8.88178419700125E-17,-1.,0.));
#1035=CARTESIAN_POINT('',(-64.4135389027341,7.88838342389868E-15,0.));
#1036=VECTOR('',#1037,1.);
#1037=DIRECTION('',(1.,-1.22464679914735E-16,0.));
#1038=CARTESIAN_POINT('',(-54.4135389027341,7.52500000000001,0.));
#1039=AXIS2_PLACEMENT_3D('',#1040,#1041,#1042);
#1040=CARTESIAN_POINT('',(-54.4135389027341,5.,0.));
#1041=DIRECTION('',(0.,0.,1.));
#1042=DIRECTION('',(0.,1.,0.));
#1043=CARTESIAN_POINT('',(-54.4135389027341,-82.475,0.));
#1044=AXIS2_PLACEMENT_3D('',#1045,#1046,#1047);
#1045=CARTESIAN_POINT('',(-54.4135389027341,-85.,0.));
#1046=DIRECTION('',(0.,0.,1.));
#1047=DIRECTION('',(0.,1.,0.));
#1048=CARTESIAN_POINT('',(1.17213090146241,-80.,0.));
#1049=CARTESIAN_POINT('',(16.1721309014624,-65.,0.));
#1050=AXIS2_PLACEMENT_3D('',#1051,#1052,#1053);
#1051=CARTESIAN_POINT('',(1.17213090146241,-65.,0.));
#1052=DIRECTION('',(0.,0.,1.));
#1053=DIRECTION('',(-1.77635683940025E-16,-1.,0.));
#1054=CARTESIAN_POINT('',(16.1721309014624,-15.,0.));
#1055=CARTESIAN_POINT('',(16.1721309014624,-65.,0.));
#1056=VECTOR('',#1057,1.);
#1057=DIRECTION('',(0.,1.,0.));
#1058=CARTESIAN_POINT('',(1.17213090146242,-1.43543993508678E-14,0.));
#1059=AXIS2_PLACEMENT_3D('',#1060,#1061,#1062);
#1060=CARTESIAN_POINT('',(1.17213090146242,-15.,0.));
#1061=DIRECTION('',(0.,0.,1.));
#1062=DIRECTION('',(1.,-2.368475785867E-16,0.));
#1063=CARTESIAN_POINT('',(-29.9992087069306,-1.05370112232124E-14,0.));
#1064=CARTESIAN_POINT('',(1.17213090146242,-1.43543993508678E-14,0.));
#1065=VECTOR('',#1066,1.);
#1066=DIRECTION('',(-1.,1.22464679914735E-16,0.));
#1067=CARTESIAN_POINT('',(-44.9992087069306,-15.,0.));
#1068=AXIS2_PLACEMENT_3D('',#1069,#1070,#1071);
#1069=CARTESIAN_POINT('',(-29.9992087069306,-15.,0.));
#1070=DIRECTION('',(0.,0.,1.));
#1071=DIRECTION('',(4.736951571734E-16,1.,0.));
#1072=CARTESIAN_POINT('',(-44.9992087069306,-65.,0.));
#1073=CARTESIAN_POINT('',(-44.9992087069306,-15.,0.));
#1074=VECTOR('',#1075,1.);
#1075=DIRECTION('',(-1.4210854715202E-16,-1.,0.));
#1076=CARTESIAN_POINT('',(-29.9992087069306,-80.,0.));
#1077=AXIS2_PLACEMENT_3D('',#1078,#1079,#1080);
#1078=CARTESIAN_POINT('',(-29.9992087069306,-65.,0.));
#1079=DIRECTION('',(0.,0.,1.));
#1080=DIRECTION('',(-1.,0.,0.));
#1081=CARTESIAN_POINT('',(-29.9992087069306,-80.,0.));
#1082=VECTOR('',#1083,1.);
#1083=DIRECTION('',(1.,0.,0.));
#1084=CARTESIAN_POINT('',(25.5864610972659,-82.475,0.));
#1085=AXIS2_PLACEMENT_3D('',#1086,#1087,#1088);
#1086=CARTESIAN_POINT('',(25.5864610972659,-85.,0.));
#1087=DIRECTION('',(0.,0.,1.));
#1088=DIRECTION('',(0.,1.,0.));
#1089=CARTESIAN_POINT('',(25.5864610972659,7.525,0.));
#1090=AXIS2_PLACEMENT_3D('',#1091,#1092,#1093);
#1091=CARTESIAN_POINT('',(25.5864610972659,5.,0.));
#1092=DIRECTION('',(0.,0.,1.));
#1093=DIRECTION('',(0.,1.,0.));
#1094=CARTESIAN_POINT('',(-54.4135389027341,6.66373662475133E-15,10.));
#1095=CARTESIAN_POINT('',(-54.4135389027341,6.66373662475133E-15,0.));
#1096=VECTOR('',#1097,1.);
#1097=DIRECTION('',(0.,0.,1.));
#1098=CARTESIAN_POINT('',(-49.4135389027341,0.,10.));
#1099=CARTESIAN_POINT('',(-54.4135389027341,6.88458199117616E-15,10.));
#1100=VECTOR('',#1101,1.);
#1101=DIRECTION('',(1.,-7.71775075717468E-16,0.));
#1102=CARTESIAN_POINT('',(-49.4135389027341,3.02570661258883E-15,10.));
#1103=VECTOR('',#1104,1.);
#1104=DIRECTION('',(0.,0.,1.));
#1105=CARTESIAN_POINT('',(-59.4135389027341,1.07718961475508E-14,10.));
#1106=CARTESIAN_POINT('',(-59.4135389027341,1.07434573697635E-14,10.));
#1107=VECTOR('',#1108,1.);
#1108=DIRECTION('',(0.,0.,1.));
#1109=CARTESIAN_POINT('',(-64.4135389027341,7.88838342389868E-15,10.));
#1110=CARTESIAN_POINT('',(-64.4135389027341,7.88838342389868E-15,10.));
#1111=VECTOR('',#1112,1.);
#1112=DIRECTION('',(1.,-1.22464679914735E-16,0.));
#1113=CARTESIAN_POINT('',(-64.4135389027341,7.49690539074984E-15,0.));
#1114=VECTOR('',#1115,1.);
#1115=DIRECTION('',(0.,0.,1.));
#1116=CARTESIAN_POINT('',(-49.4135389027341,9.99999999999999,10.));
#1117=CARTESIAN_POINT('',(-49.4135389027341,-7.88860905221012E-31,10.));
#1118=VECTOR('',#1119,1.);
#1119=DIRECTION('',(7.10542735760101E-16,1.,0.));
#1120=CARTESIAN_POINT('',(-49.4135389027341,9.99999999999999,10.));
#1121=VECTOR('',#1122,1.);
#1122=DIRECTION('',(0.,0.,1.));
#1123=CARTESIAN_POINT('',(-64.4135389027341,10.,10.));
#1124=CARTESIAN_POINT('',(-64.4135389027341,10.,0.));
#1125=VECTOR('',#1126,1.);
#1126=DIRECTION('',(0.,0.,1.));
#1127=CARTESIAN_POINT('',(-59.4135389027341,10.,10.));
#1128=CARTESIAN_POINT('',(-59.4135389027341,10.,10.));
#1129=VECTOR('',#1130,1.);
#1130=DIRECTION('',(-1.,0.,0.));
#1131=CARTESIAN_POINT('',(-59.4135389027341,10.,10.));
#1132=VECTOR('',#1133,1.);
#1133=DIRECTION('',(0.,0.,1.));
#1134=CARTESIAN_POINT('',(20.5864610972659,9.99999999999999,10.));
#1135=CARTESIAN_POINT('',(20.5864610972659,9.99999999999999,10.));
#1136=VECTOR('',#1137,1.);
#1137=DIRECTION('',(-1.,1.01506105108586E-16,0.));
#1138=CARTESIAN_POINT('',(20.5864610972659,10.,25.));
#1139=CARTESIAN_POINT('',(20.5864610972659,10.,10.));
#1140=VECTOR('',#1141,1.);
#1141=DIRECTION('',(0.,0.,1.));
#1142=CARTESIAN_POINT('',(30.5864610972659,10.,25.));
#1143=CARTESIAN_POINT('',(30.5864610972659,9.99999999999999,25.));
#1144=VECTOR('',#1145,1.);
#1145=DIRECTION('',(-1.,1.77635683940025E-16,0.));
#1146=CARTESIAN_POINT('',(30.5864610972659,9.99999999999999,10.));
#1147=CARTESIAN_POINT('',(30.5864610972659,9.99999999999999,10.));
#1148=VECTOR('',#1149,1.);
#1149=DIRECTION('',(0.,0.,1.));
#1150=CARTESIAN_POINT('',(35.5864610972659,9.99999999999999,10.));
#1151=CARTESIAN_POINT('',(35.5864610972659,9.99999999999999,10.));
#1152=VECTOR('',#1153,1.);
#1153=DIRECTION('',(-1.,0.,0.));
#1154=CARTESIAN_POINT('',(35.5864610972659,9.99999999999999,0.));
#1155=VECTOR('',#1156,1.);
#1156=DIRECTION('',(0.,0.,1.));
#1157=CARTESIAN_POINT('',(-59.4135389027341,10.,10.));
#1158=VECTOR('',#1159,1.);
#1159=DIRECTION('',(0.,-1.,0.));
#1160=CARTESIAN_POINT('',(-64.4135389027341,10.,10.));
#1161=VECTOR('',#1162,1.);
#1162=DIRECTION('',(0.,-1.,0.));
#1163=CARTESIAN_POINT('',(35.5864610972659,-8.31348369076253E-15,10.));
#1164=CARTESIAN_POINT('',(35.5864610972659,-8.31348369076253E-15,10.));
#1165=VECTOR('',#1166,1.);
#1166=DIRECTION('',(0.,1.,0.));
#1167=CARTESIAN_POINT('',(35.5864610972659,-8.31348369076253E-15,0.));
#1168=VECTOR('',#1169,1.);
#1169=DIRECTION('',(0.,0.,1.));
#1170=CARTESIAN_POINT('',(30.5864610972659,-2.8617303647975E-15,10.));
#1171=CARTESIAN_POINT('',(30.5864610972659,-5.72346072959501E-15,10.));
#1172=VECTOR('',#1173,1.);
#1173=DIRECTION('',(1.,-5.18004592233504E-16,0.));
#1174=CARTESIAN_POINT('',(30.5864610972659,0.,25.));
#1175=CARTESIAN_POINT('',(30.5864610972659,-2.8617303647975E-15,10.));
#1176=VECTOR('',#1177,1.);
#1177=DIRECTION('',(0.,0.,1.));
#1178=CARTESIAN_POINT('',(20.5864610972659,0.,25.));
#1179=CARTESIAN_POINT('',(20.5864610972659,-2.71707403629986E-16,25.));
#1180=VECTOR('',#1181,1.);
#1181=DIRECTION('',(1.,-2.59002296116752E-16,0.));
#1182=CARTESIAN_POINT('',(20.5864610972659,0.,10.));
#1183=CARTESIAN_POINT('',(20.5864610972659,-2.71707403629986E-16,10.));
#1184=VECTOR('',#1185,1.);
#1185=DIRECTION('',(0.,0.,1.));
#1186=CARTESIAN_POINT('',(25.5864610972659,-3.1334377684275E-15,10.));
#1187=CARTESIAN_POINT('',(20.5864610972659,-2.71707403629986E-16,10.));
#1188=VECTOR('',#1189,1.);
#1189=DIRECTION('',(1.,-2.59002296116752E-16,0.));
#1190=CARTESIAN_POINT('',(25.5864610972659,-1.56671888421375E-15,0.));
#1191=VECTOR('',#1192,1.);
#1192=DIRECTION('',(0.,0.,1.));
#1193=CARTESIAN_POINT('',(25.5864610972659,-80.,10.));
#1194=CARTESIAN_POINT('',(25.5864610972659,-80.,10.));
#1195=VECTOR('',#1196,1.);
#1196=DIRECTION('',(3.10862446895044E-16,1.,0.));
#1197=CARTESIAN_POINT('',(25.5864610972659,-80.,0.));
#1198=VECTOR('',#1199,1.);
#1199=DIRECTION('',(0.,0.,1.));
#1200=CARTESIAN_POINT('',(20.5864610972659,-80.,10.));
#1201=CARTESIAN_POINT('',(25.5864610972659,-80.,10.));
#1202=VECTOR('',#1203,1.);
#1203=DIRECTION('',(-1.,0.,0.));
#1204=CARTESIAN_POINT('',(20.5864610972659,-80.,25.));
#1205=CARTESIAN_POINT('',(20.5864610972659,-80.,10.));
#1206=VECTOR('',#1207,1.);
#1207=DIRECTION('',(0.,0.,1.));
#1208=CARTESIAN_POINT('',(30.5864610972659,-80.,25.));
#1209=CARTESIAN_POINT('',(30.5864610972659,-80.,25.));
#1210=VECTOR('',#1211,1.);
#1211=DIRECTION('',(-1.,0.,0.));
#1212=CARTESIAN_POINT('',(30.5864610972659,-80.,10.));
#1213=CARTESIAN_POINT('',(30.5864610972659,-80.,10.));
#1214=VECTOR('',#1215,1.);
#1215=DIRECTION('',(0.,0.,1.));
#1216=CARTESIAN_POINT('',(35.5864610972659,-80.,10.));
#1217=CARTESIAN_POINT('',(35.5864610972659,-80.,10.));
#1218=VECTOR('',#1219,1.);
#1219=DIRECTION('',(-1.,0.,0.));
#1220=CARTESIAN_POINT('',(35.5864610972659,-80.,0.));
#1221=VECTOR('',#1222,1.);
#1222=DIRECTION('',(0.,0.,1.));
#1223=CARTESIAN_POINT('',(35.5864610972659,-90.,10.));
#1224=CARTESIAN_POINT('',(35.5864610972659,-90.,10.));
#1225=VECTOR('',#1226,1.);
#1226=DIRECTION('',(7.105427357601E-16,1.,0.));
#1227=CARTESIAN_POINT('',(35.5864610972659,-90.,0.));
#1228=VECTOR('',#1229,1.);
#1229=DIRECTION('',(0.,0.,1.));
#1230=CARTESIAN_POINT('',(30.5864610972659,-90.,10.));
#1231=CARTESIAN_POINT('',(30.5864610972659,-90.,10.));
#1232=VECTOR('',#1233,1.);
#1233=DIRECTION('',(1.,0.,0.));
#1234=CARTESIAN_POINT('',(30.5864610972659,-90.,25.));
#1235=CARTESIAN_POINT('',(30.5864610972659,-90.,10.));
#1236=VECTOR('',#1237,1.);
#1237=DIRECTION('',(0.,0.,1.));
#1238=CARTESIAN_POINT('',(20.5864610972659,-90.,25.));
#1239=CARTESIAN_POINT('',(20.5864610972659,-90.,25.));
#1240=VECTOR('',#1241,1.);
#1241=DIRECTION('',(1.,0.,0.));
#1242=CARTESIAN_POINT('',(20.5864610972659,-90.,10.));
#1243=CARTESIAN_POINT('',(20.5864610972659,-90.,10.));
#1244=VECTOR('',#1245,1.);
#1245=DIRECTION('',(0.,0.,1.));
#1246=CARTESIAN_POINT('',(-49.4135389027341,-90.,10.));
#1247=CARTESIAN_POINT('',(-49.4135389027341,-90.,10.));
#1248=VECTOR('',#1249,1.);
#1249=DIRECTION('',(1.,0.,0.));
#1250=CARTESIAN_POINT('',(-49.4135389027341,-90.,25.));
#1251=CARTESIAN_POINT('',(-49.4135389027341,-90.,10.));
#1252=VECTOR('',#1253,1.);
#1253=DIRECTION('',(0.,0.,1.));
#1254=CARTESIAN_POINT('',(-59.4135389027341,-90.,25.));
#1255=CARTESIAN_POINT('',(-59.4135389027341,-90.,25.));
#1256=VECTOR('',#1257,1.);
#1257=DIRECTION('',(1.,-1.4210854715202E-15,0.));
#1258=CARTESIAN_POINT('',(-59.4135389027341,-90.,10.));
#1259=CARTESIAN_POINT('',(-59.4135389027341,-90.,10.));
#1260=VECTOR('',#1261,1.);
#1261=DIRECTION('',(0.,0.,1.));
#1262=CARTESIAN_POINT('',(-64.4135389027341,-90.,10.));
#1263=CARTESIAN_POINT('',(-64.4135389027341,-90.,10.));
#1264=VECTOR('',#1265,1.);
#1265=DIRECTION('',(1.,0.,0.));
#1266=CARTESIAN_POINT('',(-64.4135389027341,-90.,0.));
#1267=VECTOR('',#1268,1.);
#1268=DIRECTION('',(0.,0.,1.));
#1269=CARTESIAN_POINT('',(-64.4135389027341,-80.,10.));
#1270=CARTESIAN_POINT('',(-64.4135389027341,-80.,10.));
#1271=VECTOR('',#1272,1.);
#1272=DIRECTION('',(0.,-1.,0.));
#1273=CARTESIAN_POINT('',(-64.4135389027341,-80.,0.));
#1274=VECTOR('',#1275,1.);
#1275=DIRECTION('',(0.,0.,1.));
#1276=CARTESIAN_POINT('',(-59.4135389027341,-80.,10.));
#1277=CARTESIAN_POINT('',(-59.4135389027341,-80.,10.));
#1278=VECTOR('',#1279,1.);
#1279=DIRECTION('',(-1.,2.84217094304039E-15,0.));
#1280=CARTESIAN_POINT('',(-59.4135389027341,-80.,25.));
#1281=CARTESIAN_POINT('',(-59.4135389027341,-80.,10.));
#1282=VECTOR('',#1283,1.);
#1283=DIRECTION('',(0.,0.,1.));
#1284=CARTESIAN_POINT('',(-49.4135389027341,-80.,25.));
#1285=CARTESIAN_POINT('',(-49.4135389027341,-80.,25.));
#1286=VECTOR('',#1287,1.);
#1287=DIRECTION('',(-1.,0.,0.));
#1288=CARTESIAN_POINT('',(-49.4135389027341,-80.,10.));
#1289=CARTESIAN_POINT('',(-49.4135389027341,-80.,10.));
#1290=VECTOR('',#1291,1.);
#1291=DIRECTION('',(0.,0.,1.));
#1292=CARTESIAN_POINT('',(-54.4135389027341,-80.,10.));
#1293=CARTESIAN_POINT('',(-49.4135389027341,-80.,10.));
#1294=VECTOR('',#1295,1.);
#1295=DIRECTION('',(-1.,0.,0.));
#1296=CARTESIAN_POINT('',(-54.4135389027341,-80.,0.));
#1297=VECTOR('',#1298,1.);
#1298=DIRECTION('',(0.,0.,1.));
#1299=CARTESIAN_POINT('',(-54.4135389027341,6.66373662475133E-15,10.));
#1300=VECTOR('',#1301,1.);
#1301=DIRECTION('',(-8.88178419700125E-17,-1.,0.));
#1302=CARTESIAN_POINT('',(-54.4135389027341,-82.475,25.));
#1303=AXIS2_PLACEMENT_3D('',#1304,#1305,#1306);
#1304=CARTESIAN_POINT('',(-54.4135389027341,-85.,25.));
#1305=DIRECTION('',(0.,0.,1.));
#1306=DIRECTION('',(0.,1.,0.));
#1307=CARTESIAN_POINT('',(16.1721309014624,-65.,10.));
#1308=CARTESIAN_POINT('',(1.17213090146241,-80.,10.));
#1309=AXIS2_PLACEMENT_3D('',#1310,#1311,#1312);
#1310=CARTESIAN_POINT('',(1.17213090146241,-65.,10.));
#1311=DIRECTION('',(0.,0.,1.));
#1312=DIRECTION('',(-1.77635683940025E-16,-1.,0.));
#1313=CARTESIAN_POINT('',(16.1721309014624,-65.,0.));
#1314=VECTOR('',#1315,1.);
#1315=DIRECTION('',(0.,0.,1.));
#1316=CARTESIAN_POINT('',(1.17213090146241,-80.,0.));
#1317=VECTOR('',#1318,1.);
#1318=DIRECTION('',(0.,0.,1.));
#1319=CARTESIAN_POINT('',(16.1721309014624,-15.,10.));
#1320=CARTESIAN_POINT('',(16.1721309014624,-65.,10.));
#1321=VECTOR('',#1322,1.);
#1322=DIRECTION('',(0.,1.,0.));
#1323=CARTESIAN_POINT('',(16.1721309014624,-15.,0.));
#1324=VECTOR('',#1325,1.);
#1325=DIRECTION('',(0.,0.,1.));
#1326=CARTESIAN_POINT('',(1.17213090146242,-1.43543993508678E-14,10.));
#1327=AXIS2_PLACEMENT_3D('',#1328,#1329,#1330);
#1328=CARTESIAN_POINT('',(1.17213090146242,-15.,10.));
#1329=DIRECTION('',(0.,0.,1.));
#1330=DIRECTION('',(1.,-2.368475785867E-16,0.));
#1331=CARTESIAN_POINT('',(1.17213090146242,-1.42826270330349E-14,0.));
#1332=VECTOR('',#1333,1.);
#1333=DIRECTION('',(0.,0.,1.));
#1334=CARTESIAN_POINT('',(-29.9992087069306,-1.05370112232124E-14,10.));
#1335=CARTESIAN_POINT('',(1.17213090146242,-1.43543993508678E-14,10.));
#1336=VECTOR('',#1337,1.);
#1337=DIRECTION('',(-1.,1.22464679914735E-16,0.));
#1338=CARTESIAN_POINT('',(-29.9992087069306,-1.0597576129807E-14,0.));
#1339=VECTOR('',#1340,1.);
#1340=DIRECTION('',(0.,0.,1.));
#1341=CARTESIAN_POINT('',(-44.9992087069306,-15.,10.));
#1342=AXIS2_PLACEMENT_3D('',#1343,#1344,#1345);
#1343=CARTESIAN_POINT('',(-29.9992087069306,-15.,10.));
#1344=DIRECTION('',(0.,0.,1.));
#1345=DIRECTION('',(4.736951571734E-16,1.,0.));
#1346=CARTESIAN_POINT('',(-44.9992087069306,-15.,0.));
#1347=VECTOR('',#1348,1.);
#1348=DIRECTION('',(0.,0.,1.));
#1349=CARTESIAN_POINT('',(-44.9992087069306,-65.,10.));
#1350=CARTESIAN_POINT('',(-44.9992087069306,-15.,10.));
#1351=VECTOR('',#1352,1.);
#1352=DIRECTION('',(-1.4210854715202E-16,-1.,0.));
#1353=CARTESIAN_POINT('',(-44.9992087069306,-65.,0.));
#1354=VECTOR('',#1355,1.);
#1355=DIRECTION('',(0.,0.,1.));
#1356=CARTESIAN_POINT('',(-29.9992087069306,-80.,10.));
#1357=AXIS2_PLACEMENT_3D('',#1358,#1359,#1360);
#1358=CARTESIAN_POINT('',(-29.9992087069306,-65.,10.));
#1359=DIRECTION('',(0.,0.,1.));
#1360=DIRECTION('',(-1.,0.,0.));
#1361=CARTESIAN_POINT('',(-29.9992087069306,-80.,0.));
#1362=VECTOR('',#1363,1.);
#1363=DIRECTION('',(0.,0.,1.));
#1364=CARTESIAN_POINT('',(-29.9992087069306,-80.,10.));
#1365=VECTOR('',#1366,1.);
#1366=DIRECTION('',(1.,0.,0.));
#1367=CARTESIAN_POINT('',(25.5864610972659,-82.475,25.));
#1368=AXIS2_PLACEMENT_3D('',#1369,#1370,#1371);
#1369=CARTESIAN_POINT('',(25.5864610972659,-85.,25.));
#1370=DIRECTION('',(0.,0.,1.));
#1371=DIRECTION('',(0.,1.,0.));
#1372=CARTESIAN_POINT('',(25.5864610972659,7.525,25.));
#1373=AXIS2_PLACEMENT_3D('',#1374,#1375,#1376);
#1374=CARTESIAN_POINT('',(25.5864610972659,5.,25.));
#1375=DIRECTION('',(0.,0.,1.));
#1376=DIRECTION('',(0.,1.,0.));
#1377=CARTESIAN_POINT('',(20.5864610972659,9.99999999999999,10.));
#1378=VECTOR('',#1379,1.);
#1379=DIRECTION('',(0.,-1.,0.));
#1380=CARTESIAN_POINT('',(-49.4135389027341,-90.,10.));
#1381=VECTOR('',#1382,1.);
#1382=DIRECTION('',(7.10542735760102E-16,1.,0.));
#1383=CARTESIAN_POINT('',(20.5864610972659,-80.,10.));
#1384=VECTOR('',#1385,1.);
#1385=DIRECTION('',(3.5527136788005E-16,-1.,0.));
#1386=CARTESIAN_POINT('',(20.5864610972659,10.,25.));
#1387=VECTOR('',#1388,1.);
#1388=DIRECTION('',(0.,-1.,0.));
#1389=CARTESIAN_POINT('',(30.5864610972659,0.,25.));
#1390=VECTOR('',#1391,1.);
#1391=DIRECTION('',(0.,1.,0.));
#1392=CARTESIAN_POINT('',(30.5864610972659,0.,10.));
#1393=VECTOR('',#1394,1.);
#1394=DIRECTION('',(0.,1.,0.));
#1395=CARTESIAN_POINT('',(20.5864610972659,-80.,25.));
#1396=VECTOR('',#1397,1.);
#1397=DIRECTION('',(0.,-1.,0.));
#1398=CARTESIAN_POINT('',(30.5864610972659,-90.,25.));
#1399=VECTOR('',#1400,1.);
#1400=DIRECTION('',(0.,1.,0.));
#1401=CARTESIAN_POINT('',(30.5864610972659,-90.,10.));
#1402=VECTOR('',#1403,1.);
#1403=DIRECTION('',(-3.5527136788005E-16,1.,0.));
#1404=CARTESIAN_POINT('',(-49.4135389027341,-90.,25.));
#1405=VECTOR('',#1406,1.);
#1406=DIRECTION('',(7.10542735760101E-16,1.,0.));
#1407=CARTESIAN_POINT('',(-59.4135389027341,-80.,25.));
#1408=VECTOR('',#1409,1.);
#1409=DIRECTION('',(-7.105427357601E-16,-1.,0.));
#1410=CARTESIAN_POINT('',(-59.4135389027341,-80.,10.));
#1411=VECTOR('',#1412,1.);
#1412=DIRECTION('',(-1.4210854715202E-15,-1.,0.));
#1413=DRAUGHTING_MODEL('NONE',(#1419,#1519),#8);
#1414=PLANE('',#1415);
#1415=AXIS2_PLACEMENT_3D('',#1416,#1417,#1418);
#1416=CARTESIAN_POINT('',(-54.4135389027341,5.,25.));
#1417=DIRECTION('',(0.,0.,1.));
#1418=DIRECTION('',(-0.7857594604902,-0.618532190148701,0.));
#1419=ANNOTATION_PLANE('',(#1420),#1414,(#1468));
#1420=PRESENTATION_STYLE_ASSIGNMENT((#1422));
#1421=COLOUR_RGB('',0.,0.,0.);
#1422=CURVE_STYLE('',#1423,POSITIVE_LENGTH_MEASURE(0.1),#1421);
#1423=PRE_DEFINED_CURVE_FONT('continuous');
#1424=POLYLINE('',(#1614,#1615));
#1425=(ANNOTATION_OCCURRENCE()ANNOTATION_CURVE_OCCURRENCE()DRAUGHTING_ANNOTATION_OCCURRENCE(
)GEOMETRIC_REPRESENTATION_ITEM()REPRESENTATION_ITEM('')STYLED_ITEM((#1426),#1424));
#1426=PRESENTATION_STYLE_ASSIGNMENT((#1427));
#1427=CURVE_STYLE('',#1428,POSITIVE_LENGTH_MEASURE(0.1),#1429);
#1428=PRE_DEFINED_CURVE_FONT('continuous');
#1429=COLOUR_RGB('',0.,0.,0.);
#1430=PRE_DEFINED_DIMENSION_SYMBOL('diameter');
#1431=DEFINED_SYMBOL('',#1430,#1432);
#1432=SYMBOL_TARGET('',#1433,5.25958299636841,5.25958299636841);
#1433=AXIS2_PLACEMENT_3D('',#1434,#1435,#1436);
#1434=CARTESIAN_POINT('',(-97.9492071040413,-26.0109793078023,25.));
#1435=DIRECTION('',(0.,0.,1.));
#1436=DIRECTION('',(0.7857594604902,0.618532190148701,0.));
#1437=(ANNOTATION_OCCURRENCE()ANNOTATION_SYMBOL_OCCURRENCE()DRAUGHTING_ANNOTATION_OCCURRENCE(
)GEOMETRIC_REPRESENTATION_ITEM()REPRESENTATION_ITEM('')STYLED_ITEM((#1438),#1431));
#1438=PRESENTATION_STYLE_ASSIGNMENT((#1439));
#1439=SYMBOL_STYLE('',#1440);
#1440=COLOUR_RGB('',0.,0.,0.);
#1441=EXTERNALLY_DEFINED_TEXT_FONT(IDENTIFIER(''),#1442);
#1442=EXTERNAL_SOURCE(IDENTIFIER('GOST type A'));
#1443=TEXT_LITERAL_WITH_EXTENT('','5,05',#1445,'',.LEFT.,#1441,#1444);
#1444=PLANAR_EXTENT('',11.609582901001,7.13581323623657);
#1445=AXIS2_PLACEMENT_3D('',#1446,#1447,#1448);
#1446=CARTESIAN_POINT('',(-95.2465221720485,-23.8834864625689,25.));
#1447=DIRECTION('',(0.,0.,1.));
#1448=DIRECTION('',(0.7857594604902,0.618532190148701,0.));
#1449=(ANNOTATION_OCCURRENCE()ANNOTATION_TEXT_OCCURRENCE()DRAUGHTING_ANNOTATION_OCCURRENCE(
)GEOMETRIC_REPRESENTATION_ITEM()REPRESENTATION_ITEM('')STYLED_ITEM((#1450),#1443));
#1450=PRESENTATION_STYLE_ASSIGNMENT((#1451));
#1451=TEXT_STYLE_WITH_BOX_CHARACTERISTICS('',#1452,(BOX_SLANT_ANGLE(0.),BOX_ROTATE_ANGLE(
0.)));
#1452=TEXT_STYLE_FOR_DEFINED_FONT(#1453);
#1453=COLOUR_RGB('',0.,0.,0.);
#1454=EXTERNALLY_DEFINED_TEXT_FONT(IDENTIFIER(''),#1455);
#1455=EXTERNAL_SOURCE(IDENTIFIER(''));
#1456=AXIS2_PLACEMENT_3D('',#1457,#1458,#1459);
#1457=CARTESIAN_POINT('',(-54.4135389027341,5.,25.));
#1458=DIRECTION('',(0.,0.,1.));
#1459=DIRECTION('',(-0.7857594604902,-0.618532190148701,0.));
#1460=(DIMENSION_TEXT_ASSOCIATIVITY()REPRESENTATION_ITEM('')GEOMETRIC_REPRESENTATION_ITEM(
)TEXT_LITERAL('',#1456,'',.UNSPECIFIED.,#1454)MAPPED_ITEM(#1511,$));
#1461=(ANNOTATION_OCCURRENCE()ANNOTATION_TEXT_OCCURRENCE()DRAUGHTING_ANNOTATION_OCCURRENCE(
)GEOMETRIC_REPRESENTATION_ITEM()REPRESENTATION_ITEM('')STYLED_ITEM((#1462),#1460));
#1462=PRESENTATION_STYLE_ASSIGNMENT((#1463));
#1463=TEXT_STYLE_WITH_BOX_CHARACTERISTICS('',#1464,(BOX_SLANT_ANGLE(0.),BOX_ROTATE_ANGLE(
0.)));
#1464=TEXT_STYLE_FOR_DEFINED_FONT(#1465);
#1465=COLOUR_RGB('',0.,0.,0.);
#1466=REPRESENTATION_CONTEXT('NONE','NONE');
#1467=DIAMETER_DIMENSION('\X2\041404380430043C0435044204400430043B044C043D044B0439\X0\ \X2\044004300437043C04350440\X0\:2',
(#1425,#1437,#1449,#1461,#1474,#1479,#1491));
#1468=ANNOTATION_OCCURRENCE('',(#1469),#1467);
#1469=PRESENTATION_STYLE_ASSIGNMENT((#1471));
#1470=COLOUR_RGB('',0.,0.,0.);
#1471=CURVE_STYLE('',#1472,POSITIVE_LENGTH_MEASURE(0.1),#1470);
#1472=PRE_DEFINED_CURVE_FONT('continuous');
#1473=POLYLINE('',(#1616,#1617));
#1474=DIMENSION_CURVE('',(#1475),#1473);
#1475=PRESENTATION_STYLE_ASSIGNMENT((#1477));
#1476=COLOUR_RGB('',0.,0.,0.);
#1477=CURVE_STYLE('',#1478,POSITIVE_LENGTH_MEASURE(0.1),#1476);
#1478=PRE_DEFINED_CURVE_FONT('continuous');
#1479=TERMINATOR_SYMBOL('',(#1480),#1484,#1474);
#1480=PRESENTATION_STYLE_ASSIGNMENT((#1482));
#1481=COLOUR_RGB('',0.,0.,0.);
#1482=CURVE_STYLE('',#1483,POSITIVE_LENGTH_MEASURE(0.1),#1481);
#1483=PRE_DEFINED_CURVE_FONT('continuous');
#1484=DEFINED_SYMBOL('',#1485,#1486);
#1485=PRE_DEFINED_TERMINATOR_SYMBOL('filled arrow');
#1486=SYMBOL_TARGET('',#1487,0.12625,0.12625);
#1487=AXIS2_PLACEMENT_3D('',#1488,#1489,#1490);
#1488=CARTESIAN_POINT('',(-52.4294962649963,6.56179378012547,25.));
#1489=DIRECTION('',(0.,0.,1.));
#1490=DIRECTION('',(0.785759460490201,0.618532190148701,0.));
#1491=TERMINATOR_SYMBOL('',(#1492),#1496,#1474);
#1492=PRESENTATION_STYLE_ASSIGNMENT((#1494));
#1493=COLOUR_RGB('',0.,0.,0.);
#1494=CURVE_STYLE('',#1495,POSITIVE_LENGTH_MEASURE(0.1),#1493);
#1495=PRE_DEFINED_CURVE_FONT('continuous');
#1496=DEFINED_SYMBOL('',#1497,#1498);
#1497=PRE_DEFINED_TERMINATOR_SYMBOL('filled arrow');
#1498=SYMBOL_TARGET('',#1499,0.12625,0.12625);
#1499=AXIS2_PLACEMENT_3D('',#1500,#1501,#1502);
#1500=CARTESIAN_POINT('',(-56.3975815404718,3.43820621987453,25.));
#1501=DIRECTION('',(0.,0.,1.));
#1502=DIRECTION('',(-0.785759460490201,-0.618532190148701,0.));
#1503=SHAPE_DIMENSION_REPRESENTATION('NONE',(#1510),#8);
#1504=SHAPE_ASPECT('','',#31,.F.);
#1505=PROPERTY_DEFINITION('NONE','NONE',#1504);
#1506=PROPERTY_DEFINITION_REPRESENTATION(#1505,#1507);
#1507=REPRESENTATION('NONE',($),#8);
#1508=DIMENSIONAL_SIZE(#1504,'diameter');
#1509=DIMENSIONAL_CHARACTERISTIC_REPRESENTATION(#1508,#1503);
#1510=(LENGTH_MEASURE_WITH_UNIT()MEASURE_REPRESENTATION_ITEM()MEASURE_WITH_UNIT(
LENGTH_MEASURE(5.05000000000001),#9)REPRESENTATION_ITEM('diameter'));
#1511=REPRESENTATION_MAP($,#1503);
#1512=SHAPE_ASPECT('','',#31,.F.);
#1513=DRAUGHTING_MODEL_ITEM_ASSOCIATION('','',#1512,#1413,#1468);
#1514=PLANE('',#1515);
#1515=AXIS2_PLACEMENT_3D('',#1516,#1517,#1518);
#1516=CARTESIAN_POINT('',(25.5864610972659,5.,25.));
#1517=DIRECTION('',(0.,0.,1.));
#1518=DIRECTION('',(0.74690729016764,-0.664928191532313,0.));
#1519=ANNOTATION_PLANE('',(#1520),#1514,(#1568));
#1520=PRESENTATION_STYLE_ASSIGNMENT((#1522));
#1521=COLOUR_RGB('',0.,0.,0.);
#1522=CURVE_STYLE('',#1523,POSITIVE_LENGTH_MEASURE(0.1),#1521);
#1523=PRE_DEFINED_CURVE_FONT('continuous');
#1524=POLYLINE('',(#1618,#1619));
#1525=(ANNOTATION_OCCURRENCE()ANNOTATION_CURVE_OCCURRENCE()DRAUGHTING_ANNOTATION_OCCURRENCE(
)GEOMETRIC_REPRESENTATION_ITEM()REPRESENTATION_ITEM('')STYLED_ITEM((#1526),#1524));
#1526=PRESENTATION_STYLE_ASSIGNMENT((#1527));
#1527=CURVE_STYLE('',#1528,POSITIVE_LENGTH_MEASURE(0.1),#1529);
#1528=PRE_DEFINED_CURVE_FONT('continuous');
#1529=COLOUR_RGB('',0.,0.,0.);
#1530=PRE_DEFINED_DIMENSION_SYMBOL('diameter');
#1531=DEFINED_SYMBOL('',#1530,#1532);
#1532=SYMBOL_TARGET('',#1533,5.25958299636841,5.25958299636841);
#1533=AXIS2_PLACEMENT_3D('',#1534,#1535,#1536);
#1534=CARTESIAN_POINT('',(47.1304161633106,-10.7504705114177,25.));
#1535=DIRECTION('',(0.,0.,1.));
#1536=DIRECTION('',(0.74690729016764,-0.664928191532313,0.));
#1537=(ANNOTATION_OCCURRENCE()ANNOTATION_SYMBOL_OCCURRENCE()DRAUGHTING_ANNOTATION_OCCURRENCE(
)GEOMETRIC_REPRESENTATION_ITEM()REPRESENTATION_ITEM('')STYLED_ITEM((#1538),#1531));
#1538=PRESENTATION_STYLE_ASSIGNMENT((#1539));
#1539=SYMBOL_STYLE('',#1540);
#1540=COLOUR_RGB('',0.,0.,0.);
#1541=EXTERNALLY_DEFINED_TEXT_FONT(IDENTIFIER(''),#1542);
#1542=EXTERNAL_SOURCE(IDENTIFIER('GOST type A'));
#1543=TEXT_LITERAL_WITH_EXTENT('','5,05',#1545,'',.LEFT.,#1541,#1544);
#1544=PLANAR_EXTENT('',11.609582901001,7.13581323623657);
#1545=AXIS2_PLACEMENT_3D('',#1546,#1547,#1548);
#1546=CARTESIAN_POINT('',(49.6994658282963,-13.0375462572069,25.));
#1547=DIRECTION('',(0.,0.,1.));
#1548=DIRECTION('',(0.74690729016764,-0.664928191532313,0.));
#1549=(ANNOTATION_OCCURRENCE()ANNOTATION_TEXT_OCCURRENCE()DRAUGHTING_ANNOTATION_OCCURRENCE(
)GEOMETRIC_REPRESENTATION_ITEM()REPRESENTATION_ITEM('')STYLED_ITEM((#1550),#1543));
#1550=PRESENTATION_STYLE_ASSIGNMENT((#1551));
#1551=TEXT_STYLE_WITH_BOX_CHARACTERISTICS('',#1552,(BOX_SLANT_ANGLE(0.),BOX_ROTATE_ANGLE(
0.)));
#1552=TEXT_STYLE_FOR_DEFINED_FONT(#1553);
#1553=COLOUR_RGB('',0.,0.,0.);
#1554=EXTERNALLY_DEFINED_TEXT_FONT(IDENTIFIER(''),#1555);
#1555=EXTERNAL_SOURCE(IDENTIFIER(''));
#1556=AXIS2_PLACEMENT_3D('',#1557,#1558,#1559);
#1557=CARTESIAN_POINT('',(25.5864610972659,5.,25.));
#1558=DIRECTION('',(0.,0.,1.));
#1559=DIRECTION('',(0.74690729016764,-0.664928191532313,0.));
#1560=(DIMENSION_TEXT_ASSOCIATIVITY()REPRESENTATION_ITEM('')GEOMETRIC_REPRESENTATION_ITEM(
)TEXT_LITERAL('',#1556,'',.UNSPECIFIED.,#1554)MAPPED_ITEM(#1611,$));
#1561=(ANNOTATION_OCCURRENCE()ANNOTATION_TEXT_OCCURRENCE()DRAUGHTING_ANNOTATION_OCCURRENCE(
)GEOMETRIC_REPRESENTATION_ITEM()REPRESENTATION_ITEM('')STYLED_ITEM((#1562),#1560));
#1562=PRESENTATION_STYLE_ASSIGNMENT((#1563));
#1563=TEXT_STYLE_WITH_BOX_CHARACTERISTICS('',#1564,(BOX_SLANT_ANGLE(0.),BOX_ROTATE_ANGLE(
0.)));
#1564=TEXT_STYLE_FOR_DEFINED_FONT(#1565);
#1565=COLOUR_RGB('',0.,0.,0.);
#1566=REPRESENTATION_CONTEXT('NONE','NONE');
#1567=DIAMETER_DIMENSION('\X2\041404380430043C0435044204400430043B044C043D044B0439\X0\ \X2\044004300437043C04350440\X0\:1',
(#1525,#1537,#1549,#1561,#1574,#1579,#1591));
#1568=ANNOTATION_OCCURRENCE('',(#1569),#1567);
#1569=PRESENTATION_STYLE_ASSIGNMENT((#1571));
#1570=COLOUR_RGB('',0.,0.,0.);
#1571=CURVE_STYLE('',#1572,POSITIVE_LENGTH_MEASURE(0.1),#1570);
#1572=PRE_DEFINED_CURVE_FONT('continuous');
#1573=POLYLINE('',(#1620,#1621));
#1574=DIMENSION_CURVE('',(#1575),#1573);
#1575=PRESENTATION_STYLE_ASSIGNMENT((#1577));
#1576=COLOUR_RGB('',0.,0.,0.);
#1577=CURVE_STYLE('',#1578,POSITIVE_LENGTH_MEASURE(0.1),#1576);
#1578=PRE_DEFINED_CURVE_FONT('continuous');
#1579=TERMINATOR_SYMBOL('',(#1580),#1584,#1574);
#1580=PRESENTATION_STYLE_ASSIGNMENT((#1582));
#1581=COLOUR_RGB('',0.,0.,0.);
#1582=CURVE_STYLE('',#1583,POSITIVE_LENGTH_MEASURE(0.1),#1581);
#1583=PRE_DEFINED_CURVE_FONT('continuous');
#1584=DEFINED_SYMBOL('',#1585,#1586);
#1585=PRE_DEFINED_TERMINATOR_SYMBOL('filled arrow');
#1586=SYMBOL_TARGET('',#1587,0.12625,0.12625);
#1587=AXIS2_PLACEMENT_3D('',#1588,#1589,#1590);
#1588=CARTESIAN_POINT('',(23.7005201895926,6.67894368361909,25.));
#1589=DIRECTION('',(0.,0.,1.));
#1590=DIRECTION('',(-0.74690729016764,0.664928191532313,0.));
#1591=TERMINATOR_SYMBOL('',(#1592),#1596,#1574);
#1592=PRESENTATION_STYLE_ASSIGNMENT((#1594));
#1593=COLOUR_RGB('',0.,0.,0.);
#1594=CURVE_STYLE('',#1595,POSITIVE_LENGTH_MEASURE(0.1),#1593);
#1595=PRE_DEFINED_CURVE_FONT('continuous');
#1596=DEFINED_SYMBOL('',#1597,#1598);
#1597=PRE_DEFINED_TERMINATOR_SYMBOL('filled arrow');
#1598=SYMBOL_TARGET('',#1599,0.12625,0.12625);
#1599=AXIS2_PLACEMENT_3D('',#1600,#1601,#1602);
#1600=CARTESIAN_POINT('',(27.4724020049392,3.32105631638091,25.));
#1601=DIRECTION('',(0.,0.,1.));
#1602=DIRECTION('',(0.74690729016764,-0.664928191532313,0.));
#1603=SHAPE_DIMENSION_REPRESENTATION('NONE',(#1610),#8);
#1604=SHAPE_ASPECT('','',#31,.F.);
#1605=PROPERTY_DEFINITION('NONE','NONE',#1604);
#1606=PROPERTY_DEFINITION_REPRESENTATION(#1605,#1607);
#1607=REPRESENTATION('NONE',($),#8);
#1608=DIMENSIONAL_SIZE(#1604,'diameter');
#1609=DIMENSIONAL_CHARACTERISTIC_REPRESENTATION(#1608,#1603);
#1610=(LENGTH_MEASURE_WITH_UNIT()MEASURE_REPRESENTATION_ITEM()MEASURE_WITH_UNIT(
LENGTH_MEASURE(5.05),#9)REPRESENTATION_ITEM('diameter'));
#1611=REPRESENTATION_MAP($,#1603);
#1612=SHAPE_ASPECT('','',#31,.F.);
#1613=DRAUGHTING_MODEL_ITEM_ASSOCIATION('','',#1612,#1413,#1568);
#1614=CARTESIAN_POINT('',(-56.3975815404718,3.43820621987453,25.));
#1615=CARTESIAN_POINT('',(-97.9366392116307,-29.2604065362815,25.));
#1616=CARTESIAN_POINT('',(-52.4294962649963,6.56179378012547,25.));
#1617=CARTESIAN_POINT('',(-56.3975815404718,3.43820621987453,25.));
#1618=CARTESIAN_POINT('',(27.4724020049392,3.32105631638091,25.));
#1619=CARTESIAN_POINT('',(58.1616534213476,-23.9998022592702,25.));
#1620=CARTESIAN_POINT('',(23.7005201895926,6.67894368361909,25.));
#1621=CARTESIAN_POINT('',(27.4724020049392,3.32105631638091,25.));
ENDSEC;
END-ISO-10303-21;
