ISO-10303-21;
HEADER;
FILE_DESCRIPTION(('STEP AP242'),
    '1');
FILE_NAME('пластина электроники низ',
    '',
    ('UNSPECIFIED'),
    ('UNSPECIFIED'),
    'C3D Converter',
    'C3D Toolkit',
    '');
FILE_SCHEMA(('AP242_MANAGED_MODEL_BASED_3D_ENGINEERING_MIM_LF { 1 0 10303 442 1 1 4 }'));
ENDSEC;

DATA;
#1=PRODUCT_DEFINITION('','UNSPECIFIED',#28,#31);
#2=SHAPE_DEFINITION_REPRESENTATION(#26,#3);
#3=SHAPE_REPRESENTATION('NONE',(#4),#8);
#4=AXIS2_PLACEMENT_3D('',#5,#6,#7);
#5=CARTESIAN_POINT('',(0.,0.,0.));
#6=DIRECTION('',(0.,0.,1.));
#7=DIRECTION('',(1.,0.,0.));
#8=(GEOMETRIC_REPRESENTATION_CONTEXT(3)GLOBAL_UNCERTAINTY_ASSIGNED_CONTEXT((#10))
GLOBAL_UNIT_ASSIGNED_CONTEXT((#9,#11,#12))REPRESENTATION_CONTEXT('NONE','NONE'));
#9=(LENGTH_UNIT()NAMED_UNIT(*)SI_UNIT(.MILLI.,.METRE.));
#10=UNCERTAINTY_MEASURE_WITH_UNIT(LENGTH_MEASURE(1.E-5),#9,'NONE','NONE');
#11=(NAMED_UNIT(*)PLANE_ANGLE_UNIT()SI_UNIT($,.RADIAN.));
#12=(NAMED_UNIT(*)SI_UNIT($,.STERADIAN.)SOLID_ANGLE_UNIT());
#13=MANIFOLD_SOLID_BREP('',#14);
#14=CLOSED_SHELL('',(#53,#54,#55,#56,#57,#58,#59,#60,#61,#62));
#15=COLOUR_RGB('',0.2,0.4,0.);
#16=FILL_AREA_STYLE_COLOUR('',#15);
#17=FILL_AREA_STYLE($,(#16));
#18=SURFACE_STYLE_FILL_AREA(#17);
#19=SURFACE_SIDE_STYLE('',(#18));
#20=SURFACE_STYLE_USAGE(.BOTH.,#19);
#21=PRESENTATION_STYLE_ASSIGNMENT((#20));
#22=MECHANICAL_DESIGN_GEOMETRIC_PRESENTATION_REPRESENTATION('NONE',(#23),#8);
#23=STYLED_ITEM('',(#21),#13);
#24=ADVANCED_BREP_SHAPE_REPRESENTATION('NONE',(#13),#8);
#25=SHAPE_REPRESENTATION_RELATIONSHIP('','',#3,#24);
#26=PRODUCT_DEFINITION_SHAPE('NONE','NONE',#1);
#27=MECHANICAL_CONTEXT('NONE',#32,'mechanical');
#28=PRODUCT_DEFINITION_FORMATION_WITH_SPECIFIED_SOURCE('ANY','UNSPECIFIED',#29,.NOT_KNOWN.);
#29=PRODUCT('','\X2\043F043B0430044104420438043D0430\X0\ \X2\044D043B0435043A04420440043E043D0438043A0438\X0\',
'NONE',(#27));
#30=PRODUCT_RELATED_PRODUCT_CATEGORY('detail','',(#29));
#31=DESIGN_CONTEXT('detailed design',#32,'design');
#32=APPLICATION_CONTEXT('configuration controlled 3d designs of mechanical parts and assemblies');
#33=APPLICATION_PROTOCOL_DEFINITION('international standard','config_control_design',
1994,#32);
#34=CC_DESIGN_DATE_AND_TIME_ASSIGNMENT(#35,#39,(#1));
#35=DATE_AND_TIME(#36,#37);
#36=CALENDAR_DATE(0,1,1);
#37=LOCAL_TIME(0,0,0.,#38);
#38=COORDINATED_UNIVERSAL_TIME_OFFSET(0,0,.AHEAD.);
#39=DATE_TIME_ROLE('creation_date');
#40=CC_DESIGN_APPROVAL(#41,(#1));
#41=APPROVAL(#42,'UNSPECIFIED');
#42=APPROVAL_STATUS('not_yet_approved');
#43=APPROVAL_DATE_TIME(#44,#41);
#44=DATE_AND_TIME(#45,#46);
#45=CALENDAR_DATE(0,1,1);
#46=LOCAL_TIME(0,0,0.,#47);
#47=COORDINATED_UNIVERSAL_TIME_OFFSET(0,0,.AHEAD.);
#48=PERSON('UNSPECIFIED','ADMIN','UNSPECIFIED',('UNSPECIFIED'),('UNSPECIFIED'),(
'UNSPECIFIED'));
#49=ORGANIZATION('UNSPECIFIED','UNSPECIFIED','UNSPECIFIED');
#50=PERSON_AND_ORGANIZATION(#48,#49);
#51=PERSON_AND_ORGANIZATION_ROLE('creator');
#52=CC_DESIGN_PERSON_AND_ORGANIZATION_ASSIGNMENT(#50,#51,(#28,#1));
#53=ADVANCED_FACE('',(#63,#65,#67,#69,#71),#73,.T.);
#54=ADVANCED_FACE('',(#78,#80,#82,#84,#86),#88,.F.);
#55=ADVANCED_FACE('',(#93,#95),#97,.F.);
#56=ADVANCED_FACE('',(#102,#104),#106,.F.);
#57=ADVANCED_FACE('',(#111,#113),#115,.F.);
#58=ADVANCED_FACE('',(#120),#122,.T.);
#59=ADVANCED_FACE('',(#127),#129,.T.);
#60=ADVANCED_FACE('',(#134),#136,.T.);
#61=ADVANCED_FACE('',(#141),#143,.T.);
#62=ADVANCED_FACE('',(#148,#150),#152,.F.);
#63=FACE_BOUND('',#64,.T.);
#64=EDGE_LOOP('',(#157,#158,#159,#160));
#65=FACE_BOUND('',#66,.T.);
#66=EDGE_LOOP('',(#161));
#67=FACE_BOUND('',#68,.T.);
#68=EDGE_LOOP('',(#162));
#69=FACE_BOUND('',#70,.T.);
#70=EDGE_LOOP('',(#163));
#71=FACE_BOUND('',#72,.T.);
#72=EDGE_LOOP('',(#164));
#73=PLANE('',#74);
#74=AXIS2_PLACEMENT_3D('',#75,#76,#77);
#75=CARTESIAN_POINT('',(0.,0.,1.5));
#76=DIRECTION('',(0.,0.,1.));
#77=DIRECTION('',(-1.,1.22464679914735E-16,0.));
#78=FACE_BOUND('',#79,.T.);
#79=EDGE_LOOP('',(#165,#166,#167,#168));
#80=FACE_BOUND('',#81,.T.);
#81=EDGE_LOOP('',(#169));
#82=FACE_BOUND('',#83,.T.);
#83=EDGE_LOOP('',(#170));
#84=FACE_BOUND('',#85,.T.);
#85=EDGE_LOOP('',(#171));
#86=FACE_BOUND('',#87,.T.);
#87=EDGE_LOOP('',(#172));
#88=PLANE('',#89);
#89=AXIS2_PLACEMENT_3D('',#90,#91,#92);
#90=CARTESIAN_POINT('',(0.,0.,0.));
#91=DIRECTION('',(0.,0.,1.));
#92=DIRECTION('',(-1.,1.22464679914735E-16,0.));
#93=FACE_OUTER_BOUND('',#94,.T.);
#94=EDGE_LOOP('',(#173));
#95=FACE_OUTER_BOUND('',#96,.T.);
#96=EDGE_LOOP('',(#174));
#97=CYLINDRICAL_SURFACE('',#98,1.5);
#98=AXIS2_PLACEMENT_3D('',#99,#100,#101);
#99=CARTESIAN_POINT('',(-38.,34.005,-8.5));
#100=DIRECTION('',(0.,0.,1.));
#101=DIRECTION('',(-1.,1.22464679914735E-16,0.));
#102=FACE_OUTER_BOUND('',#103,.T.);
#103=EDGE_LOOP('',(#175));
#104=FACE_OUTER_BOUND('',#105,.T.);
#105=EDGE_LOOP('',(#176));
#106=CYLINDRICAL_SURFACE('',#107,1.5);
#107=AXIS2_PLACEMENT_3D('',#108,#109,#110);
#108=CARTESIAN_POINT('',(38.,34.005,-8.5));
#109=DIRECTION('',(0.,0.,1.));
#110=DIRECTION('',(-1.,1.22464679914735E-16,0.));
#111=FACE_OUTER_BOUND('',#112,.T.);
#112=EDGE_LOOP('',(#177));
#113=FACE_OUTER_BOUND('',#114,.T.);
#114=EDGE_LOOP('',(#178));
#115=CYLINDRICAL_SURFACE('',#116,1.5);
#116=AXIS2_PLACEMENT_3D('',#117,#118,#119);
#117=CARTESIAN_POINT('',(-38.,-33.995,-8.5));
#118=DIRECTION('',(0.,0.,1.));
#119=DIRECTION('',(-1.,1.22464679914735E-16,0.));
#120=FACE_BOUND('',#121,.T.);
#121=EDGE_LOOP('',(#179,#180,#181,#182));
#122=PLANE('',#123);
#123=AXIS2_PLACEMENT_3D('',#124,#125,#126);
#124=CARTESIAN_POINT('',(-40.,36.145,0.));
#125=DIRECTION('',(-1.,1.96581196779665E-16,0.));
#126=DIRECTION('',(-1.96581196779665E-16,-1.,0.));
#127=FACE_BOUND('',#128,.T.);
#128=EDGE_LOOP('',(#183,#184,#185,#186));
#129=PLANE('',#130);
#130=AXIS2_PLACEMENT_3D('',#131,#132,#133);
#131=CARTESIAN_POINT('',(-40.,-36.145,0.));
#132=DIRECTION('',(-1.77635683940025E-16,-1.,0.));
#133=DIRECTION('',(1.,-1.77635683940025E-16,0.));
#134=FACE_BOUND('',#135,.T.);
#135=EDGE_LOOP('',(#187,#188,#189,#190));
#136=PLANE('',#137);
#137=AXIS2_PLACEMENT_3D('',#138,#139,#140);
#138=CARTESIAN_POINT('',(40.,-36.145,0.));
#139=DIRECTION('',(1.,-1.96581196779665E-16,0.));
#140=DIRECTION('',(1.96581196779665E-16,1.,0.));
#141=FACE_BOUND('',#142,.T.);
#142=EDGE_LOOP('',(#191,#192,#193,#194));
#143=PLANE('',#144);
#144=AXIS2_PLACEMENT_3D('',#145,#146,#147);
#145=CARTESIAN_POINT('',(40.,36.145,0.));
#146=DIRECTION('',(1.77635683940025E-16,1.,0.));
#147=DIRECTION('',(-1.,1.77635683940025E-16,0.));
#148=FACE_OUTER_BOUND('',#149,.T.);
#149=EDGE_LOOP('',(#195));
#150=FACE_OUTER_BOUND('',#151,.T.);
#151=EDGE_LOOP('',(#196));
#152=CYLINDRICAL_SURFACE('',#153,1.5);
#153=AXIS2_PLACEMENT_3D('',#154,#155,#156);
#154=CARTESIAN_POINT('',(38.,-33.995,-8.5));
#155=DIRECTION('',(0.,0.,1.));
#156=DIRECTION('',(-1.,1.22464679914735E-16,0.));
#157=ORIENTED_EDGE('',*,*,#197,.T.);
#158=ORIENTED_EDGE('',*,*,#198,.T.);
#159=ORIENTED_EDGE('',*,*,#199,.T.);
#160=ORIENTED_EDGE('',*,*,#200,.T.);
#161=ORIENTED_EDGE('',*,*,#201,.T.);
#162=ORIENTED_EDGE('',*,*,#202,.T.);
#163=ORIENTED_EDGE('',*,*,#203,.T.);
#164=ORIENTED_EDGE('',*,*,#204,.T.);
#165=ORIENTED_EDGE('',*,*,#205,.F.);
#166=ORIENTED_EDGE('',*,*,#206,.F.);
#167=ORIENTED_EDGE('',*,*,#207,.F.);
#168=ORIENTED_EDGE('',*,*,#208,.F.);
#169=ORIENTED_EDGE('',*,*,#209,.T.);
#170=ORIENTED_EDGE('',*,*,#210,.T.);
#171=ORIENTED_EDGE('',*,*,#211,.T.);
#172=ORIENTED_EDGE('',*,*,#212,.T.);
#173=ORIENTED_EDGE('',*,*,#203,.F.);
#174=ORIENTED_EDGE('',*,*,#211,.F.);
#175=ORIENTED_EDGE('',*,*,#202,.F.);
#176=ORIENTED_EDGE('',*,*,#210,.F.);
#177=ORIENTED_EDGE('',*,*,#201,.F.);
#178=ORIENTED_EDGE('',*,*,#209,.F.);
#179=ORIENTED_EDGE('',*,*,#208,.T.);
#180=ORIENTED_EDGE('',*,*,#213,.T.);
#181=ORIENTED_EDGE('',*,*,#197,.F.);
#182=ORIENTED_EDGE('',*,*,#214,.F.);
#183=ORIENTED_EDGE('',*,*,#207,.T.);
#184=ORIENTED_EDGE('',*,*,#215,.T.);
#185=ORIENTED_EDGE('',*,*,#198,.F.);
#186=ORIENTED_EDGE('',*,*,#213,.F.);
#187=ORIENTED_EDGE('',*,*,#206,.T.);
#188=ORIENTED_EDGE('',*,*,#216,.T.);
#189=ORIENTED_EDGE('',*,*,#199,.F.);
#190=ORIENTED_EDGE('',*,*,#215,.F.);
#191=ORIENTED_EDGE('',*,*,#205,.T.);
#192=ORIENTED_EDGE('',*,*,#214,.T.);
#193=ORIENTED_EDGE('',*,*,#200,.F.);
#194=ORIENTED_EDGE('',*,*,#216,.F.);
#195=ORIENTED_EDGE('',*,*,#204,.F.);
#196=ORIENTED_EDGE('',*,*,#212,.F.);
#197=EDGE_CURVE('',#217,#218,#219,.T.);
#198=EDGE_CURVE('',#218,#220,#221,.T.);
#199=EDGE_CURVE('',#220,#222,#223,.T.);
#200=EDGE_CURVE('',#222,#217,#224,.T.);
#201=EDGE_CURVE('',#225,#225,#226,.F.);
#202=EDGE_CURVE('',#227,#227,#228,.F.);
#203=EDGE_CURVE('',#229,#229,#230,.F.);
#204=EDGE_CURVE('',#231,#231,#232,.F.);
#205=EDGE_CURVE('',#233,#234,#235,.T.);
#206=EDGE_CURVE('',#236,#233,#237,.T.);
#207=EDGE_CURVE('',#238,#236,#239,.T.);
#208=EDGE_CURVE('',#234,#238,#240,.T.);
#209=EDGE_CURVE('',#241,#241,#242,.T.);
#210=EDGE_CURVE('',#243,#243,#244,.T.);
#211=EDGE_CURVE('',#245,#245,#246,.T.);
#212=EDGE_CURVE('',#247,#247,#248,.T.);
#213=EDGE_CURVE('',#238,#218,#249,.T.);
#214=EDGE_CURVE('',#234,#217,#250,.T.);
#215=EDGE_CURVE('',#236,#220,#251,.T.);
#216=EDGE_CURVE('',#233,#222,#252,.T.);
#217=VERTEX_POINT('',#253);
#218=VERTEX_POINT('',#254);
#219=LINE('',#255,#256);
#220=VERTEX_POINT('',#258);
#221=LINE('',#259,#260);
#222=VERTEX_POINT('',#262);
#223=LINE('',#263,#264);
#224=LINE('',#266,#267);
#225=VERTEX_POINT('',#269);
#226=CIRCLE('',#270,1.5);
#227=VERTEX_POINT('',#274);
#228=CIRCLE('',#275,1.5);
#229=VERTEX_POINT('',#279);
#230=CIRCLE('',#280,1.5);
#231=VERTEX_POINT('',#284);
#232=CIRCLE('',#285,1.5);
#233=VERTEX_POINT('',#289);
#234=VERTEX_POINT('',#290);
#235=LINE('',#291,#292);
#236=VERTEX_POINT('',#294);
#237=LINE('',#295,#296);
#238=VERTEX_POINT('',#298);
#239=LINE('',#299,#300);
#240=LINE('',#302,#303);
#241=VERTEX_POINT('',#305);
#242=CIRCLE('',#306,1.5);
#243=VERTEX_POINT('',#310);
#244=CIRCLE('',#311,1.5);
#245=VERTEX_POINT('',#315);
#246=CIRCLE('',#316,1.5);
#247=VERTEX_POINT('',#320);
#248=CIRCLE('',#321,1.5);
#249=LINE('',#325,#326);
#250=LINE('',#328,#329);
#251=LINE('',#331,#332);
#252=LINE('',#334,#335);
#253=CARTESIAN_POINT('',(-40.,36.145,1.5));
#254=CARTESIAN_POINT('',(-40.,-36.145,1.5));
#255=CARTESIAN_POINT('',(-40.,36.145,1.5));
#256=VECTOR('',#257,1.);
#257=DIRECTION('',(-1.96581196779665E-16,-1.,0.));
#258=CARTESIAN_POINT('',(40.,-36.145,1.5));
#259=CARTESIAN_POINT('',(-40.,-36.145,1.5));
#260=VECTOR('',#261,1.);
#261=DIRECTION('',(1.,-1.77635683940025E-16,0.));
#262=CARTESIAN_POINT('',(40.,36.145,1.5));
#263=CARTESIAN_POINT('',(40.,-36.145,1.5));
#264=VECTOR('',#265,1.);
#265=DIRECTION('',(1.96581196779665E-16,1.,0.));
#266=CARTESIAN_POINT('',(40.,36.145,1.5));
#267=VECTOR('',#268,1.);
#268=DIRECTION('',(-1.,1.77635683940025E-16,0.));
#269=CARTESIAN_POINT('',(-39.5,-33.995,1.5));
#270=AXIS2_PLACEMENT_3D('',#271,#272,#273);
#271=CARTESIAN_POINT('',(-38.,-33.995,1.5));
#272=DIRECTION('',(0.,0.,1.));
#273=DIRECTION('',(-1.,1.22464679914735E-16,0.));
#274=CARTESIAN_POINT('',(36.5,34.005,1.5));
#275=AXIS2_PLACEMENT_3D('',#276,#277,#278);
#276=CARTESIAN_POINT('',(38.,34.005,1.5));
#277=DIRECTION('',(0.,0.,1.));
#278=DIRECTION('',(-1.,1.22464679914735E-16,0.));
#279=CARTESIAN_POINT('',(-39.5,34.005,1.5));
#280=AXIS2_PLACEMENT_3D('',#281,#282,#283);
#281=CARTESIAN_POINT('',(-38.,34.005,1.5));
#282=DIRECTION('',(0.,0.,1.));
#283=DIRECTION('',(-1.,1.22464679914735E-16,0.));
#284=CARTESIAN_POINT('',(36.5,-33.995,1.5));
#285=AXIS2_PLACEMENT_3D('',#286,#287,#288);
#286=CARTESIAN_POINT('',(38.,-33.995,1.5));
#287=DIRECTION('',(0.,0.,1.));
#288=DIRECTION('',(-1.,1.22464679914735E-16,0.));
#289=CARTESIAN_POINT('',(40.,36.145,0.));
#290=CARTESIAN_POINT('',(-40.,36.145,0.));
#291=CARTESIAN_POINT('',(40.,36.145,0.));
#292=VECTOR('',#293,1.);
#293=DIRECTION('',(-1.,1.77635683940025E-16,0.));
#294=CARTESIAN_POINT('',(40.,-36.145,0.));
#295=CARTESIAN_POINT('',(40.,-36.145,0.));
#296=VECTOR('',#297,1.);
#297=DIRECTION('',(1.96581196779665E-16,1.,0.));
#298=CARTESIAN_POINT('',(-40.,-36.145,0.));
#299=CARTESIAN_POINT('',(-40.,-36.145,0.));
#300=VECTOR('',#301,1.);
#301=DIRECTION('',(1.,-1.77635683940025E-16,0.));
#302=CARTESIAN_POINT('',(-40.,36.145,0.));
#303=VECTOR('',#304,1.);
#304=DIRECTION('',(-1.96581196779665E-16,-1.,0.));
#305=CARTESIAN_POINT('',(-39.5,-33.995,0.));
#306=AXIS2_PLACEMENT_3D('',#307,#308,#309);
#307=CARTESIAN_POINT('',(-38.,-33.995,0.));
#308=DIRECTION('',(0.,0.,1.));
#309=DIRECTION('',(-1.,1.22464679914735E-16,0.));
#310=CARTESIAN_POINT('',(36.5,34.005,0.));
#311=AXIS2_PLACEMENT_3D('',#312,#313,#314);
#312=CARTESIAN_POINT('',(38.,34.005,0.));
#313=DIRECTION('',(0.,0.,1.));
#314=DIRECTION('',(-1.,1.22464679914735E-16,0.));
#315=CARTESIAN_POINT('',(-39.5,34.005,0.));
#316=AXIS2_PLACEMENT_3D('',#317,#318,#319);
#317=CARTESIAN_POINT('',(-38.,34.005,0.));
#318=DIRECTION('',(0.,0.,1.));
#319=DIRECTION('',(-1.,1.22464679914735E-16,0.));
#320=CARTESIAN_POINT('',(36.5,-33.995,0.));
#321=AXIS2_PLACEMENT_3D('',#322,#323,#324);
#322=CARTESIAN_POINT('',(38.,-33.995,0.));
#323=DIRECTION('',(0.,0.,1.));
#324=DIRECTION('',(-1.,1.22464679914735E-16,0.));
#325=CARTESIAN_POINT('',(-40.,-36.145,0.));
#326=VECTOR('',#327,1.);
#327=DIRECTION('',(0.,0.,1.));
#328=CARTESIAN_POINT('',(-40.,36.145,0.));
#329=VECTOR('',#330,1.);
#330=DIRECTION('',(0.,0.,1.));
#331=CARTESIAN_POINT('',(40.,-36.145,0.));
#332=VECTOR('',#333,1.);
#333=DIRECTION('',(0.,0.,1.));
#334=CARTESIAN_POINT('',(40.,36.145,0.));
#335=VECTOR('',#336,1.);
#336=DIRECTION('',(0.,0.,1.));
ENDSEC;
END-ISO-10303-21;
