ISO-10303-21;
HEADER;
FILE_DESCRIPTION(('STEP AP242'),
    '1');
FILE_NAME('поддержка под лазер',
    '',
    ('UNSPECIFIED'),
    ('UNSPECIFIED'),
    'C3D Converter',
    'C3D Toolkit',
    '');
FILE_SCHEMA(('AP242_MANAGED_MODEL_BASED_3D_ENGINEERING_MIM_LF { 1 0 10303 442 1 1 4 }'));
ENDSEC;

DATA;
#1=PRODUCT_DEFINITION('','UNSPECIFIED',#28,#31);
#2=SHAPE_DEFINITION_REPRESENTATION(#26,#3);
#3=SHAPE_REPRESENTATION('NONE',(#4),#8);
#4=AXIS2_PLACEMENT_3D('',#5,#6,#7);
#5=CARTESIAN_POINT('',(0.,0.,0.));
#6=DIRECTION('',(0.,0.,1.));
#7=DIRECTION('',(1.,0.,0.));
#8=(GEOMETRIC_REPRESENTATION_CONTEXT(3)GLOBAL_UNCERTAINTY_ASSIGNED_CONTEXT((#10))
GLOBAL_UNIT_ASSIGNED_CONTEXT((#9,#11,#12))REPRESENTATION_CONTEXT('NONE','NONE'));
#9=(LENGTH_UNIT()NAMED_UNIT(*)SI_UNIT(.MILLI.,.METRE.));
#10=UNCERTAINTY_MEASURE_WITH_UNIT(LENGTH_MEASURE(1.E-5),#9,'NONE','NONE');
#11=(NAMED_UNIT(*)PLANE_ANGLE_UNIT()SI_UNIT($,.RADIAN.));
#12=(NAMED_UNIT(*)SI_UNIT($,.STERADIAN.)SOLID_ANGLE_UNIT());
#13=MANIFOLD_SOLID_BREP('',#14);
#14=CLOSED_SHELL('',(#53,#54,#55,#56,#57,#58,#59,#60,#61,#62,#63,#64));
#15=COLOUR_RGB('',0.141176470588235,0.141176470588235,0.141176470588235);
#16=FILL_AREA_STYLE_COLOUR('',#15);
#17=FILL_AREA_STYLE($,(#16));
#18=SURFACE_STYLE_FILL_AREA(#17);
#19=SURFACE_SIDE_STYLE('',(#18));
#20=SURFACE_STYLE_USAGE(.BOTH.,#19);
#21=PRESENTATION_STYLE_ASSIGNMENT((#20));
#22=MECHANICAL_DESIGN_GEOMETRIC_PRESENTATION_REPRESENTATION('NONE',(#23),#8);
#23=STYLED_ITEM('',(#21),#13);
#24=ADVANCED_BREP_SHAPE_REPRESENTATION('NONE',(#13),#8);
#25=SHAPE_REPRESENTATION_RELATIONSHIP('','',#3,#24);
#26=PRODUCT_DEFINITION_SHAPE('NONE','NONE',#1);
#27=MECHANICAL_CONTEXT('NONE',#32,'mechanical');
#28=PRODUCT_DEFINITION_FORMATION_WITH_SPECIFIED_SOURCE('ANY','UNSPECIFIED',#29,.NOT_KNOWN.);
#29=PRODUCT('','\X2\043F043E04340434043504400436043A0430\X0\ \X2\043F043E0434\X0\ \X2\043B0430043704350440\X0\',
'NONE',(#27));
#30=PRODUCT_RELATED_PRODUCT_CATEGORY('detail','',(#29));
#31=DESIGN_CONTEXT('detailed design',#32,'design');
#32=APPLICATION_CONTEXT('configuration controlled 3d designs of mechanical parts and assemblies');
#33=APPLICATION_PROTOCOL_DEFINITION('international standard','config_control_design',
1994,#32);
#34=CC_DESIGN_DATE_AND_TIME_ASSIGNMENT(#35,#39,(#1));
#35=DATE_AND_TIME(#36,#37);
#36=CALENDAR_DATE(0,1,1);
#37=LOCAL_TIME(0,0,0.,#38);
#38=COORDINATED_UNIVERSAL_TIME_OFFSET(0,0,.AHEAD.);
#39=DATE_TIME_ROLE('creation_date');
#40=CC_DESIGN_APPROVAL(#41,(#1));
#41=APPROVAL(#42,'UNSPECIFIED');
#42=APPROVAL_STATUS('not_yet_approved');
#43=APPROVAL_DATE_TIME(#44,#41);
#44=DATE_AND_TIME(#45,#46);
#45=CALENDAR_DATE(0,1,1);
#46=LOCAL_TIME(0,0,0.,#47);
#47=COORDINATED_UNIVERSAL_TIME_OFFSET(0,0,.AHEAD.);
#48=PERSON('UNSPECIFIED','Пользователь','UNSPECIFIED',('UNSPECIFIED'),('UNSPECIFIED'),
('UNSPECIFIED'));
#49=ORGANIZATION('UNSPECIFIED','UNSPECIFIED','UNSPECIFIED');
#50=PERSON_AND_ORGANIZATION(#48,#49);
#51=PERSON_AND_ORGANIZATION_ROLE('creator');
#52=CC_DESIGN_PERSON_AND_ORGANIZATION_ASSIGNMENT(#50,#51,(#28,#1));
#53=ADVANCED_FACE('',(#65,#67,#69),#71,.F.);
#54=ADVANCED_FACE('',(#76,#78,#80),#82,.T.);
#55=ADVANCED_FACE('',(#87,#89),#91,.F.);
#56=ADVANCED_FACE('',(#96,#98),#100,.F.);
#57=ADVANCED_FACE('',(#105,#107,#109),#111,.T.);
#58=ADVANCED_FACE('',(#116),#118,.T.);
#59=ADVANCED_FACE('',(#123),#125,.T.);
#60=ADVANCED_FACE('',(#130),#132,.T.);
#61=ADVANCED_FACE('',(#137,#139,#141),#143,.T.);
#62=ADVANCED_FACE('',(#148),#150,.T.);
#63=ADVANCED_FACE('',(#155,#157),#159,.F.);
#64=ADVANCED_FACE('',(#164,#166),#168,.F.);
#65=FACE_BOUND('',#66,.T.);
#66=EDGE_LOOP('',(#173,#174,#175,#176));
#67=FACE_BOUND('',#68,.T.);
#68=EDGE_LOOP('',(#177));
#69=FACE_BOUND('',#70,.T.);
#70=EDGE_LOOP('',(#178));
#71=PLANE('',#72);
#72=AXIS2_PLACEMENT_3D('',#73,#74,#75);
#73=CARTESIAN_POINT('',(0.,0.,0.));
#74=DIRECTION('',(0.,1.,6.12323399573677E-17));
#75=DIRECTION('',(-1.,7.49879891330928E-33,-1.22464679914735E-16));
#76=FACE_BOUND('',#77,.T.);
#77=EDGE_LOOP('',(#179,#180,#181,#182));
#78=FACE_BOUND('',#79,.T.);
#79=EDGE_LOOP('',(#183));
#80=FACE_BOUND('',#81,.T.);
#81=EDGE_LOOP('',(#184));
#82=PLANE('',#83);
#83=AXIS2_PLACEMENT_3D('',#84,#85,#86);
#84=CARTESIAN_POINT('',(0.,2.,0.));
#85=DIRECTION('',(0.,1.,6.12323399573677E-17));
#86=DIRECTION('',(-1.,7.49879891330928E-33,-1.22464679914735E-16));
#87=FACE_OUTER_BOUND('',#88,.T.);
#88=EDGE_LOOP('',(#185));
#89=FACE_OUTER_BOUND('',#90,.T.);
#90=EDGE_LOOP('',(#186));
#91=CYLINDRICAL_SURFACE('',#92,1.15);
#92=AXIS2_PLACEMENT_3D('',#93,#94,#95);
#93=CARTESIAN_POINT('',(-4.84,-8.,11.9));
#94=DIRECTION('',(0.,1.,6.12323399573677E-17));
#95=DIRECTION('',(-1.,7.49879891330928E-33,-1.22464679914735E-16));
#96=FACE_OUTER_BOUND('',#97,.T.);
#97=EDGE_LOOP('',(#187));
#98=FACE_OUTER_BOUND('',#99,.T.);
#99=EDGE_LOOP('',(#188));
#100=CYLINDRICAL_SURFACE('',#101,1.15);
#101=AXIS2_PLACEMENT_3D('',#102,#103,#104);
#102=CARTESIAN_POINT('',(5.84,-8.,11.9));
#103=DIRECTION('',(0.,1.,6.12323399573677E-17));
#104=DIRECTION('',(-1.,7.49879891330928E-33,-1.22464679914735E-16));
#105=FACE_BOUND('',#106,.T.);
#106=EDGE_LOOP('',(#189,#190,#191,#192));
#107=FACE_BOUND('',#108,.T.);
#108=EDGE_LOOP('',(#193));
#109=FACE_BOUND('',#110,.T.);
#110=EDGE_LOOP('',(#194));
#111=PLANE('',#112);
#112=AXIS2_PLACEMENT_3D('',#113,#114,#115);
#113=CARTESIAN_POINT('',(-7.84,0.,-17.5));
#114=DIRECTION('',(-1.,0.,-1.01506105108586E-16));
#115=DIRECTION('',(-1.01506105108586E-16,-6.12323399573677E-17,1.));
#116=FACE_BOUND('',#117,.T.);
#117=EDGE_LOOP('',(#195,#196,#197,#198,#199,#200));
#118=PLANE('',#119);
#119=AXIS2_PLACEMENT_3D('',#120,#121,#122);
#120=CARTESIAN_POINT('',(7.84,0.,-17.5));
#121=DIRECTION('',(-2.26576127474522E-16,0.,-1.));
#122=DIRECTION('',(-1.,-1.25775016776309E-32,2.26576127474522E-16));
#123=FACE_BOUND('',#124,.T.);
#124=EDGE_LOOP('',(#201,#202,#203,#204));
#125=PLANE('',#126);
#126=AXIS2_PLACEMENT_3D('',#127,#128,#129);
#127=CARTESIAN_POINT('',(7.84,0.,17.5));
#128=DIRECTION('',(1.,0.,1.01506105108586E-16));
#129=DIRECTION('',(1.01506105108586E-16,6.12323399573677E-17,-1.));
#130=FACE_BOUND('',#131,.T.);
#131=EDGE_LOOP('',(#205,#206,#207,#208,#209,#210));
#132=PLANE('',#133);
#133=AXIS2_PLACEMENT_3D('',#134,#135,#136);
#134=CARTESIAN_POINT('',(-7.84,0.,17.5));
#135=DIRECTION('',(0.,0.,1.));
#136=DIRECTION('',(1.,0.,0.));
#137=FACE_BOUND('',#138,.T.);
#138=EDGE_LOOP('',(#211,#212,#213,#214));
#139=FACE_BOUND('',#140,.T.);
#140=EDGE_LOOP('',(#215));
#141=FACE_BOUND('',#142,.T.);
#142=EDGE_LOOP('',(#216));
#143=PLANE('',#144);
#144=AXIS2_PLACEMENT_3D('',#145,#146,#147);
#145=CARTESIAN_POINT('',(-6.84,2.,17.5));
#146=DIRECTION('',(1.,0.,1.01506105108586E-16));
#147=DIRECTION('',(1.01506105108586E-16,5.70971841235795E-17,-1.));
#148=FACE_BOUND('',#149,.T.);
#149=EDGE_LOOP('',(#217,#218,#219,#220));
#150=PLANE('',#151);
#151=AXIS2_PLACEMENT_3D('',#152,#153,#154);
#152=CARTESIAN_POINT('',(0.,9.,0.));
#153=DIRECTION('',(0.,1.,6.12323399573677E-17));
#154=DIRECTION('',(-1.,7.49879891330928E-33,-1.22464679914735E-16));
#155=FACE_OUTER_BOUND('',#156,.T.);
#156=EDGE_LOOP('',(#221));
#157=FACE_OUTER_BOUND('',#158,.T.);
#158=EDGE_LOOP('',(#222));
#159=CYLINDRICAL_SURFACE('',#160,0.75);
#160=AXIS2_PLACEMENT_3D('',#161,#162,#163);
#161=CARTESIAN_POINT('',(2.16,5.5,-14.75));
#162=DIRECTION('',(-1.,0.,-1.01506105108586E-16));
#163=DIRECTION('',(-1.01506105108586E-16,-1.22464679914735E-16,1.));
#164=FACE_OUTER_BOUND('',#165,.T.);
#165=EDGE_LOOP('',(#223));
#166=FACE_OUTER_BOUND('',#167,.T.);
#167=EDGE_LOOP('',(#224));
#168=CYLINDRICAL_SURFACE('',#169,0.75);
#169=AXIS2_PLACEMENT_3D('',#170,#171,#172);
#170=CARTESIAN_POINT('',(2.16,5.5,14.75));
#171=DIRECTION('',(-1.,0.,-1.01506105108586E-16));
#172=DIRECTION('',(-1.01506105108586E-16,-1.22464679914735E-16,1.));
#173=ORIENTED_EDGE('',*,*,#225,.F.);
#174=ORIENTED_EDGE('',*,*,#226,.F.);
#175=ORIENTED_EDGE('',*,*,#227,.F.);
#176=ORIENTED_EDGE('',*,*,#228,.F.);
#177=ORIENTED_EDGE('',*,*,#229,.T.);
#178=ORIENTED_EDGE('',*,*,#230,.T.);
#179=ORIENTED_EDGE('',*,*,#231,.F.);
#180=ORIENTED_EDGE('',*,*,#232,.T.);
#181=ORIENTED_EDGE('',*,*,#233,.T.);
#182=ORIENTED_EDGE('',*,*,#234,.T.);
#183=ORIENTED_EDGE('',*,*,#235,.T.);
#184=ORIENTED_EDGE('',*,*,#236,.T.);
#185=ORIENTED_EDGE('',*,*,#236,.F.);
#186=ORIENTED_EDGE('',*,*,#230,.F.);
#187=ORIENTED_EDGE('',*,*,#235,.F.);
#188=ORIENTED_EDGE('',*,*,#229,.F.);
#189=ORIENTED_EDGE('',*,*,#225,.T.);
#190=ORIENTED_EDGE('',*,*,#237,.T.);
#191=ORIENTED_EDGE('',*,*,#238,.F.);
#192=ORIENTED_EDGE('',*,*,#239,.F.);
#193=ORIENTED_EDGE('',*,*,#240,.T.);
#194=ORIENTED_EDGE('',*,*,#241,.T.);
#195=ORIENTED_EDGE('',*,*,#226,.T.);
#196=ORIENTED_EDGE('',*,*,#239,.T.);
#197=ORIENTED_EDGE('',*,*,#242,.F.);
#198=ORIENTED_EDGE('',*,*,#243,.F.);
#199=ORIENTED_EDGE('',*,*,#234,.F.);
#200=ORIENTED_EDGE('',*,*,#244,.F.);
#201=ORIENTED_EDGE('',*,*,#227,.T.);
#202=ORIENTED_EDGE('',*,*,#244,.T.);
#203=ORIENTED_EDGE('',*,*,#233,.F.);
#204=ORIENTED_EDGE('',*,*,#245,.F.);
#205=ORIENTED_EDGE('',*,*,#228,.T.);
#206=ORIENTED_EDGE('',*,*,#245,.T.);
#207=ORIENTED_EDGE('',*,*,#232,.F.);
#208=ORIENTED_EDGE('',*,*,#246,.T.);
#209=ORIENTED_EDGE('',*,*,#247,.F.);
#210=ORIENTED_EDGE('',*,*,#237,.F.);
#211=ORIENTED_EDGE('',*,*,#231,.T.);
#212=ORIENTED_EDGE('',*,*,#243,.T.);
#213=ORIENTED_EDGE('',*,*,#248,.F.);
#214=ORIENTED_EDGE('',*,*,#246,.F.);
#215=ORIENTED_EDGE('',*,*,#249,.T.);
#216=ORIENTED_EDGE('',*,*,#250,.T.);
#217=ORIENTED_EDGE('',*,*,#238,.T.);
#218=ORIENTED_EDGE('',*,*,#247,.T.);
#219=ORIENTED_EDGE('',*,*,#248,.T.);
#220=ORIENTED_EDGE('',*,*,#242,.T.);
#221=ORIENTED_EDGE('',*,*,#249,.F.);
#222=ORIENTED_EDGE('',*,*,#240,.F.);
#223=ORIENTED_EDGE('',*,*,#250,.F.);
#224=ORIENTED_EDGE('',*,*,#241,.F.);
#225=EDGE_CURVE('',#251,#252,#253,.T.);
#226=EDGE_CURVE('',#254,#251,#255,.T.);
#227=EDGE_CURVE('',#256,#254,#257,.T.);
#228=EDGE_CURVE('',#252,#256,#258,.T.);
#229=EDGE_CURVE('',#259,#259,#260,.T.);
#230=EDGE_CURVE('',#261,#261,#262,.T.);
#231=EDGE_CURVE('',#263,#264,#265,.T.);
#232=EDGE_CURVE('',#263,#266,#267,.T.);
#233=EDGE_CURVE('',#266,#268,#269,.T.);
#234=EDGE_CURVE('',#268,#264,#270,.T.);
#235=EDGE_CURVE('',#271,#271,#272,.F.);
#236=EDGE_CURVE('',#273,#273,#274,.F.);
#237=EDGE_CURVE('',#252,#275,#276,.T.);
#238=EDGE_CURVE('',#277,#275,#278,.T.);
#239=EDGE_CURVE('',#251,#277,#279,.T.);
#240=EDGE_CURVE('',#280,#280,#281,.F.);
#241=EDGE_CURVE('',#282,#282,#283,.F.);
#242=EDGE_CURVE('',#284,#277,#285,.T.);
#243=EDGE_CURVE('',#264,#284,#286,.T.);
#244=EDGE_CURVE('',#254,#268,#287,.T.);
#245=EDGE_CURVE('',#256,#266,#288,.T.);
#246=EDGE_CURVE('',#263,#289,#290,.T.);
#247=EDGE_CURVE('',#275,#289,#291,.T.);
#248=EDGE_CURVE('',#289,#284,#292,.T.);
#249=EDGE_CURVE('',#293,#293,#294,.T.);
#250=EDGE_CURVE('',#295,#295,#296,.T.);
#251=VERTEX_POINT('',#297);
#252=VERTEX_POINT('',#298);
#253=LINE('',#299,#300);
#254=VERTEX_POINT('',#302);
#255=LINE('',#303,#304);
#256=VERTEX_POINT('',#306);
#257=LINE('',#307,#308);
#258=LINE('',#310,#311);
#259=VERTEX_POINT('',#313);
#260=CIRCLE('',#314,1.15);
#261=VERTEX_POINT('',#318);
#262=CIRCLE('',#319,1.15);
#263=VERTEX_POINT('',#323);
#264=VERTEX_POINT('',#324);
#265=LINE('',#325,#326);
#266=VERTEX_POINT('',#328);
#267=LINE('',#329,#330);
#268=VERTEX_POINT('',#332);
#269=LINE('',#333,#334);
#270=LINE('',#336,#337);
#271=VERTEX_POINT('',#339);
#272=CIRCLE('',#340,1.15);
#273=VERTEX_POINT('',#344);
#274=CIRCLE('',#345,1.15);
#275=VERTEX_POINT('',#349);
#276=LINE('',#350,#351);
#277=VERTEX_POINT('',#353);
#278=LINE('',#354,#355);
#279=LINE('',#357,#358);
#280=VERTEX_POINT('',#360);
#281=CIRCLE('',#361,0.75);
#282=VERTEX_POINT('',#365);
#283=CIRCLE('',#366,0.75);
#284=VERTEX_POINT('',#370);
#285=LINE('',#371,#372);
#286=LINE('',#374,#375);
#287=LINE('',#377,#378);
#288=LINE('',#380,#381);
#289=VERTEX_POINT('',#383);
#290=LINE('',#384,#385);
#291=LINE('',#387,#388);
#292=LINE('',#390,#391);
#293=VERTEX_POINT('',#393);
#294=CIRCLE('',#394,0.75);
#295=VERTEX_POINT('',#398);
#296=CIRCLE('',#399,0.75);
#297=CARTESIAN_POINT('',(-7.84,1.07156594925393E-15,-17.5));
#298=CARTESIAN_POINT('',(-7.84,-1.07156594925393E-15,17.5));
#299=CARTESIAN_POINT('',(-7.84,1.07156594925393E-15,-17.5));
#300=VECTOR('',#301,1.);
#301=DIRECTION('',(3.04518315325757E-16,-6.12323399573677E-17,1.));
#302=CARTESIAN_POINT('',(7.84,1.07156594925393E-15,-17.5));
#303=CARTESIAN_POINT('',(7.84,1.07156594925393E-15,-17.5));
#304=VECTOR('',#305,1.);
#305=DIRECTION('',(-1.,7.54650100657855E-32,0.));
#306=CARTESIAN_POINT('',(7.84,-1.07156594925393E-15,17.5));
#307=CARTESIAN_POINT('',(7.84,-1.07156594925393E-15,17.5));
#308=VECTOR('',#309,1.);
#309=DIRECTION('',(-3.04518315325757E-16,6.12323399573677E-17,-1.));
#310=CARTESIAN_POINT('',(-7.84,-1.07156594925393E-15,17.5));
#311=VECTOR('',#312,1.);
#312=DIRECTION('',(1.,-7.54650100657855E-32,0.));
#313=CARTESIAN_POINT('',(4.69,-8.35007228297642E-16,11.9));
#314=AXIS2_PLACEMENT_3D('',#315,#316,#317);
#315=CARTESIAN_POINT('',(5.84,-7.28664845492676E-16,11.9));
#316=DIRECTION('',(0.,1.,6.12323399573677E-17));
#317=DIRECTION('',(-1.,0.,0.));
#318=CARTESIAN_POINT('',(-5.99,-8.35007228297642E-16,11.9));
#319=AXIS2_PLACEMENT_3D('',#320,#321,#322);
#320=CARTESIAN_POINT('',(-4.84,-7.28664845492676E-16,11.9));
#321=DIRECTION('',(0.,1.,6.12323399573677E-17));
#322=DIRECTION('',(-1.,0.,0.));
#323=CARTESIAN_POINT('',(-6.84,2.,17.5));
#324=CARTESIAN_POINT('',(-6.84,2.,-17.5));
#325=CARTESIAN_POINT('',(-6.84,2.,17.5));
#326=VECTOR('',#327,1.);
#327=DIRECTION('',(0.,2.53765262771464E-17,-1.));
#328=CARTESIAN_POINT('',(7.84,2.,17.5));
#329=CARTESIAN_POINT('',(-6.84,2.,17.5));
#330=VECTOR('',#331,1.);
#331=DIRECTION('',(1.,0.,-9.68041874332562E-16));
#332=CARTESIAN_POINT('',(7.84,2.,-17.5));
#333=CARTESIAN_POINT('',(7.84,2.,17.5));
#334=VECTOR('',#335,1.);
#335=DIRECTION('',(-3.04518315325757E-16,3.1720657846433E-17,-1.));
#336=CARTESIAN_POINT('',(7.84,2.,-17.5));
#337=VECTOR('',#338,1.);
#338=DIRECTION('',(-1.,0.,9.68041874332561E-16));
#339=CARTESIAN_POINT('',(4.69,2.,11.9));
#340=AXIS2_PLACEMENT_3D('',#341,#342,#343);
#341=CARTESIAN_POINT('',(5.84,2.,11.9));
#342=DIRECTION('',(0.,1.,6.12323399573677E-17));
#343=DIRECTION('',(-1.,0.,0.));
#344=CARTESIAN_POINT('',(-5.99,2.,11.9));
#345=AXIS2_PLACEMENT_3D('',#346,#347,#348);
#346=CARTESIAN_POINT('',(-4.84,2.,11.9));
#347=DIRECTION('',(0.,1.,6.12323399573677E-17));
#348=DIRECTION('',(-1.,0.,0.));
#349=CARTESIAN_POINT('',(-7.84,9.,17.5));
#350=CARTESIAN_POINT('',(-7.84,-1.07156594925393E-15,17.5));
#351=VECTOR('',#352,1.);
#352=DIRECTION('',(-1.97372982155583E-16,1.,0.));
#353=CARTESIAN_POINT('',(-7.84,9.,-17.5));
#354=CARTESIAN_POINT('',(-7.84,9.,-17.5));
#355=VECTOR('',#356,1.);
#356=DIRECTION('',(3.04518315325757E-16,0.,1.));
#357=CARTESIAN_POINT('',(-7.84,1.07156594925393E-15,-17.5));
#358=VECTOR('',#359,1.);
#359=DIRECTION('',(-1.97372982155583E-16,1.,0.));
#360=CARTESIAN_POINT('',(-7.84,5.5,-14.));
#361=AXIS2_PLACEMENT_3D('',#362,#363,#364);
#362=CARTESIAN_POINT('',(-7.84,5.5,-14.75));
#363=DIRECTION('',(-1.,0.,-1.01506105108586E-16));
#364=DIRECTION('',(-1.01506105108586E-16,0.,1.));
#365=CARTESIAN_POINT('',(-7.84,5.5,15.5));
#366=AXIS2_PLACEMENT_3D('',#367,#368,#369);
#367=CARTESIAN_POINT('',(-7.84,5.5,14.75));
#368=DIRECTION('',(-1.,0.,-1.01506105108586E-16));
#369=DIRECTION('',(-1.01506105108586E-16,0.,1.));
#370=CARTESIAN_POINT('',(-6.84,9.,-17.5));
#371=CARTESIAN_POINT('',(-6.84,9.,-17.5));
#372=VECTOR('',#373,1.);
#373=DIRECTION('',(-1.,0.,0.));
#374=CARTESIAN_POINT('',(-6.84,2.,-17.5));
#375=VECTOR('',#376,1.);
#376=DIRECTION('',(2.53765262771464E-16,1.,0.));
#377=CARTESIAN_POINT('',(7.84,1.07156594925393E-15,-17.5));
#378=VECTOR('',#379,1.);
#379=DIRECTION('',(0.,1.,0.));
#380=CARTESIAN_POINT('',(7.84,-1.07156594925393E-15,17.5));
#381=VECTOR('',#382,1.);
#382=DIRECTION('',(0.,1.,0.));
#383=CARTESIAN_POINT('',(-6.84,9.,17.5));
#384=CARTESIAN_POINT('',(-6.84,2.,17.5));
#385=VECTOR('',#386,1.);
#386=DIRECTION('',(2.53765262771464E-16,1.,0.));
#387=CARTESIAN_POINT('',(-7.84,9.,17.5));
#388=VECTOR('',#389,1.);
#389=DIRECTION('',(1.,0.,0.));
#390=CARTESIAN_POINT('',(-6.84,9.,17.5));
#391=VECTOR('',#392,1.);
#392=DIRECTION('',(0.,0.,-1.));
#393=CARTESIAN_POINT('',(-6.84,5.5,-14.));
#394=AXIS2_PLACEMENT_3D('',#395,#396,#397);
#395=CARTESIAN_POINT('',(-6.84,5.5,-14.75));
#396=DIRECTION('',(-1.,0.,-1.01506105108586E-16));
#397=DIRECTION('',(-1.01506105108586E-16,0.,1.));
#398=CARTESIAN_POINT('',(-6.84,5.5,15.5));
#399=AXIS2_PLACEMENT_3D('',#400,#401,#402);
#400=CARTESIAN_POINT('',(-6.84,5.5,14.75));
#401=DIRECTION('',(-1.,0.,-1.01506105108586E-16));
#402=DIRECTION('',(-1.01506105108586E-16,0.,1.));
ENDSEC;
END-ISO-10303-21;
